<?xml version="1.0" encoding="utf-8"?>
<!-- Generator: Adobe Illustrator 27.0.0, SVG Export Plug-In . SVG Version: 6.00 Build 0)  -->
<svg version="1.1" xmlns="http://www.w3.org/2000/svg" xmlns:xlink="http://www.w3.org/1999/xlink" x="0px" y="0px"
	 viewBox="0 0 98.1 87.7" style="enable-background:new 0 0 98.1 87.7;" xml:space="preserve">
<style type="text/css">
	.st0{fill:#FFFFFF;}
	.st1{fill:#8CA2CF;}
	.st2{clip-path:url(#SVGID_00000082348746484390572430000014392400163261446062_);}
	.st3{fill:#627EB5;}
	.st4{fill:#8CA05C;}
	.st5{fill:#677724;}
	.st6{fill:#E0A955;}
	.st7{fill:#BBD7FF;}
	.st8{fill:#3C5987;}
	.st9{fill:#669CD3;}
	.st10{clip-path:url(#SVGID_00000086676512145644604760000014802299146863608714_);}
	.st11{fill:#92C4FC;}
	.st12{fill:#FAF4D2;}
	.st13{fill:#FCCB7C;}
	.st14{clip-path:url(#SVGID_00000013905200891618077740000010297319892281100459_);}
	.st15{clip-path:url(#SVGID_00000045609521392904249170000008872314869788207233_);}
	.st16{fill:#C5CAF0;}
	.st17{clip-path:url(#SVGID_00000011715623010490058210000005698140837579336374_);}
	.st18{clip-path:url(#SVGID_00000108275000590022630890000009623171793276082111_);}
	.st19{clip-path:url(#SVGID_00000112618918841854145870000001775958747893115274_);}
	.st20{clip-path:url(#SVGID_00000101811292897221177290000009785915113005714335_);}
	.st21{clip-path:url(#SVGID_00000027567619952168920520000018297153420103510656_);}
</style>
<g id="BACKGROUND">
</g>
<g id="OBJECTS">
	<g>
		<path class="st13" d="M31.5,49c-0.2-0.5-0.8-1.8-0.9-1.9c-0.2-0.4-0.5-0.6-1-0.8c-0.1-0.1-0.2-0.1-0.3,0c-0.3,0-0.8,0.1-0.9,0.4
			c-4,1.9-8.2,4-10.9,7.6c-2.5,3.6-4.7,7.5-6.1,11.7c-0.3,1.2-0.9,2.4-0.8,3.4c0.3,0.6,0.9,0.2,1.3,0c0.7-0.4,1.3-0.7,2-1
			c2-0.9,3.7-1.1,5.7-2c2.1-0.9,3.6-2.1,5-3.1c1.8-1.4,3.1-2.7,4.2-4.6c0.8-1.3,1.7-2.6,2.1-4.1c0.2-1,0.7-1.8,0.9-2.8
			C32,50.8,31.7,49.9,31.5,49"/>
		<path class="st13" d="M29,47.3C29,47.3,29,47.3,29,47.3C29,47.3,29,47.3,29,47.3C29,47.3,28.9,47.3,29,47.3
			C29,47.3,29,47.3,29,47.3"/>
		<path class="st13" d="M42.3,56.8c-0.1-1.4-0.4-2.9-1-4.2c-0.3-0.5-0.8-0.9-1.3-1.1c-0.4-0.1-0.8,0-0.7,0c-0.1,0-0.1,0-0.2,0
			c0,0,0,0,0,0c0,0,0,0,0,0c0,0-0.1,0-0.1,0c0,0,0.1,0,0.1,0c-0.1,0-0.2,0.1-0.3,0.1c0,0-0.1,0-0.1,0c-0.2,0-0.4,0-0.6,0
			c-1.3,0.1-2.4,0.8-3.4,1.6c-1.4,1.1-2.5,2.4-3.4,3.9c-1.5,2.2-2.6,4.8-3.4,7.3c-0.7,2.4-0.7,4.9-0.7,7.3c0.1,1.6,0,3.1,0.5,4.9
			c0.4,0.8,1.2,0.9,1.7,0.1c0-0.1,0.9-0.8,1.3-1.2c3.2-2.5,6.4-5.1,8.6-8.5C41.2,64.1,42.6,60.5,42.3,56.8"/>
		<path class="st13" d="M39.1,51.5C39,51.5,39,51.5,39.1,51.5C39,51.5,39,51.5,39.1,51.5C39.1,51.5,39.1,51.5,39.1,51.5"/>
		<path class="st13" d="M56.9,82.9c-0.2-1.2-0.3-2.1-0.3-3.5c0-4.2-0.2-8.4-0.8-12.5c-0.1-0.8-0.1-1.5-0.3-2.6
			c-0.3-1.4-0.9-2.7-1.3-4c-0.3-0.7-0.5-1.4-0.8-2.2c-0.4-1.5-0.9-3-2.2-3.9c0,0,0,0-0.1-0.1c-0.3-0.3-0.7-0.6-1.1-0.7
			c-1.1-0.4-2,0.3-2.6,1.1c-0.2,0-0.3,0.1-0.4,0.2c-1.1,1.9-2.2,3.9-2.5,6.1c-0.3,1.5,0.1,3.5,0.2,4.5c0.4,2.6,1.1,5.3,2.2,7.7
			c1.2,2.2,2.6,4.3,4.1,6.4c0.5,0.7,1.1,1.5,1.7,2.2c0.4,0.5,0.8,1.1,1.2,1.5c0,0,0,0,0.1,0.1c0.5,0.6,1,1.1,1.5,1.6
			c0.3,0.3,0.8,0.6,1.2,0.4C57.6,84.8,56.9,83.6,56.9,82.9"/>
		<path class="st13" d="M71.2,73c-0.7-2-1.2-4-1.5-6.1c-0.9-3.7-1.6-7.5-3.5-10.9c-0.9-1.5-2-3.1-3.6-4c-0.5-0.4-1-0.7-1.6-0.7
			c-1.9,0.1-3.5,1.7-4.1,3.4c0,0.1,0,0.1,0,0.2c-2.3,4.8,2.9,10.5,6,14.3c1.1,1.5,2.4,2.8,4.1,3.8c0.6,0.5,1.3,1,2,1.4
			c0.7,0.4,0.8,0.6,1.6,1.1c0.3,0.2,1.1,0.6,1.3-0.3C71.8,74.4,71.5,73.7,71.2,73"/>
		<path class="st13" d="M31.2,36.7c0-0.2-0.1-0.4-0.3-0.5c-1.3-1.1-2.8-1.9-4.4-2.6c-1.7-0.8-3.5-1.3-5.3-1.2
			c-2.3-0.2-4.6,0.2-6.9,0.8c-3.4,0.7-6.9,1.9-9.9,2.7c-1.9,0.9,0.9,1.8,1.7,2.3c1.9,0.9,3.1,1.5,5,2.3c1.9,0.8,4,1.3,6,1.8
			c2.7,0.8,5.4,1.5,8.2,1.5c1.8,0.2,3.6-0.2,5.1-1.2c0.5-0.3,1-0.6,1.4-1.1c0.4-0.6,0.6-1.4,0.7-2.1C32.6,38.3,32.1,37.4,31.2,36.7"
			/>
		<path class="st13" d="M19.2,45.8c-0.5-0.3-1.1-0.4-1.7-0.6c-1.2-0.3-2.3-0.5-3.5-0.5c-0.2,0-0.3,0-0.5,0c-0.2,0-0.4,0-0.6-0.1
			c-2.2-0.1-4.5,0.4-6.6,1.1c-0.7,0.3-2.5,0.8-3,1.1c-0.3,0.1-0.6,0.3-0.6,0.6c0.1,0.9,1.3,0.7,1.9,0.9c1,0.1,2.3,0.4,3.6,0.7
			c2.5,0.5,5.1,0.8,7.7,0.4c1.1,0,2.2-0.3,2.8-0.6c0.6-0.3,1.2-0.4,1.7-0.8C22,46.9,20.6,46.1,19.2,45.8 M11.2,48.4
			C11.2,48.4,11.2,48.4,11.2,48.4c1.4,0.1,2.9,0.1,4.4,0c0.7-0.1,1.4-0.2,2.2-0.3c-0.2,0.1-0.5,0.1-0.8,0.2
			C15,48.5,13.4,48.7,11.2,48.4"/>
		<path class="st13" d="M42.7,71.5c-1.4-2.2-2.5,2-3,3c0,0.1-0.1,0.1-0.1,0.2c-0.8,1.5-1.5,2.9-2,4.5c-0.5,2.1-0.7,4.4,0,6.4
			c0.1,0.4,0.4,0.8,1,0.5c0.4-0.6,0.7-1.3,1-1.9c1-2.1,1.6-3.5,2.3-5.4c0.4-1.1,0.8-2.2,0.9-3.3C43,73.9,43,72.7,42.7,71.5"/>
		<path class="st13" d="M66.2,77.8c-0.4-0.7-0.8-1.3-1.3-1.9c-0.2-0.4-0.8-1-0.6-0.8c-0.2-0.3-0.4-0.6-0.7-0.8
			c-0.1-0.1-0.2-0.1-0.3-0.2c-0.2-0.3-0.4-0.6-0.8-0.8c-0.4-0.3-1-0.1-1,0.4c0,0,0,0,0,0.1c-0.2,0.4-0.3,0.8-0.3,1.1
			c0,1.3,0,2.5,0.2,3.8c0.2,1,0.5,1.4,0.7,2c0.3,0.9,1.7,3.9,2.7,5c0.1,0.1,0.2,0.1,0.3,0.2c0,0,0,0,0,0c0.4,0.4,1.1,0.2,1.2-0.4
			c0.2-1.1,0.3-2.1,0.3-3.2C66.8,80.8,66.9,79.2,66.2,77.8"/>
		<path class="st13" d="M9.9,53.9C9.9,53.9,9.9,53.9,9.9,53.9c-0.1,0-0.1,0-0.2,0c-1.6,0.4-3.2,0.7-4.5,1.7c-2.2,2-2.8,3.8-4.2,6.3
			c-0.1,0.2-0.2,0.3-0.2,0.5c0,0.3,0.3,0.6,0.6,0.5c0.3-0.1,0.5-0.3,0.8-0.4c0.8-0.3,1-0.4,2.1-0.7c1.7-0.5,3-1.6,4.1-3.1
			c1.1-1.4,1.8-2.5,2.1-4.1C10.7,54.3,10.4,53.8,9.9,53.9"/>
		<path class="st13" d="M1,61.9C1,61.9,1,61.9,1,61.9C0.9,62.1,0.9,62,1,61.9"/>
		<polyline class="st13" points="1,61.9 1,61.9 1,61.9 1,61.9 		"/>
		<path class="st13" d="M38.7,26c-0.2-6.2-7.8-10.4-12.6-12.6c-1.6-0.8-3.3-1.5-5-2.3c-1.2-0.5-2-1.1-3.4-1.5
			c-0.3-0.1-0.6-0.3-1-0.2c-0.6,0.1-0.6,0.8-0.2,1.2c0.7,0.9,1.4,2.3,2.1,3.7c1.3,2.8,2.3,6.2,4.3,9.1c0.7,1.3,1.8,2.3,2.8,3.4
			c1.1,1.4,3.2,3.1,4.5,3.5c1.9,0.9,4,2.1,6.2,1.5c1.3-0.6,2.3-1.7,2.7-3.1C39.2,27.9,39,26.9,38.7,26 M31.3,17.3
			c1.4,0.9,2.7,1.9,3.7,2.9C33.8,19.2,32.6,18.3,31.3,17.3 M37,23.2c-0.2-0.2-0.4-0.5-0.5-0.7c-0.3-0.6-0.6-1.2-1-1.7
			C36.1,21.5,36.6,22.3,37,23.2"/>
		<path class="st13" d="M21.4,28.4c0-0.8-0.3-1.6-0.7-2.3c-1.1-3.6-3.3-4.4-7.1-6.3c-1.2-0.6-3.6-1.7-5.2-2.4
			c-0.5-0.2-1.1-0.4-1.6-0.5c-0.2-0.1-0.5-0.1-0.7,0c-0.7,0.5,0.2,1.2,0.6,1.5c0.6,0.5,1.1,0.9,1.8,1.5c2.8,2.9,5.4,6.7,8.1,8.9
			c0.6,0.4,1.4,0.7,2.2,0.9c0.1,0.1,0.3,0.2,0.5,0.2c0.6,0.2,1.3-0.1,1.6-0.6C21.1,29.1,21.3,28.8,21.4,28.4"/>
		<path class="st13" d="M94.4,66.5c-0.3-1.2-2.3-2.8-3.3-4.1c-2.8-4.2-7.7-8-11.4-11.2c-2.6-1.7-4.7-4.5-8.3-5
			c-0.7-0.1-1.5-0.1-2.2,0.1c-0.4,0.1-0.9,0.2-1.2,0.5c-0.4,0.4-0.5,1-0.4,1.5c0,0.2,0.2,0.4,0.3,0.6c0.8,2.6,2,5.1,3.7,7.3
			c1.4,1.5,3.1,2.7,4.8,3.8c4.3,3.1,9.1,4.3,14.2,6.1C91.4,66.3,94.6,68.2,94.4,66.5"/>
		<path class="st13" d="M84.3,76c-1-2.8-2.9-6.2-4.7-8.1c-0.9-1.2-1.9-2.3-3.2-3.1c-0.6-0.5-1.5-0.9-2.3-1.1
			c-0.4,0.1-0.5,0.3-0.5,0.6c-0.1,0.1-0.2,0.2-0.2,0.4c0.9,3.3,2.6,6.3,5.1,8.7c1.1,1.2,3.3,2.2,4.3,2.7c0.3,0.1,0.6,0.4,1,0.5
			C84.1,76.6,84.4,76.3,84.3,76"/>
		<path class="st13" d="M89.6,49.4c-1.9-1.5-3.8-3-5.8-4.4c-1-0.7-2.2-0.9-3.4-1.3c-0.8-0.1-3-0.7-2.9,0.6c0.4,0.8,1.1,1.5,1.8,2.1
			c2.1,2.2,4.7,4.2,7.9,4.4c1,0.1,2,0.3,3.1,0.4c0.1,0-0.1,0-0.1,0c0.2,0,0.4,0,0.5-0.1C91.3,50.3,90,49.7,89.6,49.4"/>
		<path class="st13" d="M97.1,33.3c-2.3-0.5-4-0.6-6.2-0.8C86.8,32,83.4,31,79.2,31c-3.1,0.1-6.3,0.4-9.2,1.5
			c-1.5,0.7-2.7,1.7-4.1,2.7c-0.1,0.1-0.1,0.2-0.1,0.3c0,0.1,0,0.2,0.1,0.3c-0.3,0.3-0.5,0.7-0.5,1.1c0,0.6,0.4,1.1,0.5,1.7
			c0.3,0.7,0.7,1.4,1.3,1.8c0.6,0.4,1.3,0.5,2,0.6c2,0.2,3.2,0,5.2-0.2c3.2-0.5,6.3-1.3,9.4-2c3.5-0.9,6.9-2.2,10.4-3.1
			c1.3-0.4,3-0.5,4.1-1.2C99.1,33.5,97.7,33.4,97.1,33.3"/>
		<path class="st13" d="M82.6,9.3c-0.1,0-0.2,0.1-0.4,0.2c-0.1,0-0.2,0.1-0.3,0.1c-0.2,0.1-0.4,0.1-0.6,0.2c-0.2-0.1-0.4,0-0.6,0.1
			c-0.3,0.2-0.7,0.3-1,0.5c-2.6,1.1-5,2.5-7.5,3.7c-1.6,0.9-3.3,1.7-4.8,2.7c-0.7,0.5-1.3,1-2,1.5c-3.9,2.7-7.2,6.4-5.5,10.6
			c0.2,0.3,0.3,0.7,0.6,0.8c0,0,0,0,0,0c0.2,0.3,0.4,0.7,0.7,0.8c2.2,0.6,4.4-0.9,6.2-2.9c0,0,0.1-0.1,0.1-0.1
			c1.7-1.2,3.1-2.6,4.4-4.1c2.3-2.9,4.6-5.8,6.9-8.6c1.2-1.6,3.3-4.1,3.8-4.6v0c0,0,0.1,0,0.1-0.1C83.4,10,83.1,9.3,82.6,9.3"/>
		<path class="st13" d="M57.4,4.2c0,0,0-0.1,0-0.1c0.1-0.5-0.6-0.8-1-0.5c-0.1,0.1-0.1,0.3-0.2,0.5c0,0,0,0,0,0l0,0c0,0,0,0,0-0.1
			c0,0,0-0.1,0-0.1c0,0,0,0,0,0c0,0,0,0,0,0c0,0,0,0.1-0.1,0.1c-0.1,0-0.3,0-0.6,0.1c-0.5,0.6-0.5,0.7-1.1,1.2
			c-3.7,3.1-7.4,7.7-9.4,11.7c-0.6,1.2-0.8,2.6-0.5,3.9c0.3,0.8,0.7,1.6,1.1,2.4c0.1,0.4,0.2,0.8,0.6,1.2c0,0,0.1,0,0.1,0.1
			c0.1,0.2,0.2,0.3,0.4,0.4c0.1,0,0.1,0,0.2,0c2.5,1.6,4.9-0.4,6.2-2.7c0.8-1.4,1.6-4.2,1.9-5.8c0.5-1.8,0.9-3.6,1.1-5.5
			c0.8-2.1,0.8-4.4,1.2-6.6c0,0,0,0,0-0.1C57.4,4.3,57.4,4.3,57.4,4.2C57.4,4.2,57.4,4.2,57.4,4.2"/>
		<path class="st13" d="M60.8,18.5C60.7,18.5,60.7,18.5,60.8,18.5C60.7,18.5,60.7,18.5,60.8,18.5C60.7,18.5,60.7,18.5,60.8,18.5"/>
		<path class="st13" d="M67.7,7.9c-0.3,0-1.2,0.7-1.1,0.6c-1.6,1-3.3,2-4.6,3.4c-1.3,1.8-2.1,4-2.7,6.1c0,0.3,0.3,0.4,0.5,0.4
			c0.2,0.2,0.6,0.3,0.8,0.1c0.1,0,0.1-0.1,0.2-0.1c0,0,0,0,0.1,0c0.1-0.1,0.2-0.1,0.3-0.2c0.6-0.3,1-0.8,1.4-1.2
			c1-0.9,1.5-1.5,2.3-2.5c1.2-1.7,2.1-3.8,2.9-5.3c0.1-0.2,0.3-0.4,0.3-0.6C68.3,8.2,68.1,7.9,67.7,7.9"/>
		<path class="st13" d="M60.8,18.5C60.8,18.5,60.8,18.5,60.8,18.5C60.8,18.4,60.8,18.5,60.8,18.5"/>
		<path class="st13" d="M41.2,15.5c0.1-0.2,0.2-0.4,0.2-0.7c0-0.2,0-0.5,0-0.7c0.2-2.1,0.2-4.3-0.1-6.4c-0.8-2.4-2.6-4.9-3.9-6.4
			c-0.9-0.5-1.3,0.4-1.1,1.2c0.1,0.7,0.1,0.8,0.2,1.8c0.2,1.6,0.2,3.2,0.1,4.7c0.1,1.3,0.3,1.9,0.4,3c0.3,1.5,0.9,3.2,2.3,4
			c0.5,0.3,1.1,0.2,1.6-0.1C41,15.8,41.2,15.7,41.2,15.5"/>
		<path class="st6" d="M48.1,19.6L48.1,19.6C48.1,19.6,48,19.6,48.1,19.6"/>
		<g>
			<path class="st6" d="M74.2,39.4c-0.5-1.6-0.9-3.2-1.7-4.7c-0.9-1.8-2-2.6-3-4.2c-0.4-0.6-1-1.1-1.4-1.7c-0.6-0.9-1.3-1.7-2.2-2.4
				c-1-0.8-1.9-1.5-3-2.2c-0.9-0.6-1.9-1-2.8-1.6c-2.2-1.3-5.2-2.1-8-2.8c-0.6-0.1-1.6-0.1-1.7-0.1c-1-0.2-1.5-0.1-2.2-0.2
				c0.1,0,0.1,0,0,0c-0.1,0-0.2,0-0.2,0c-0.3,0-0.5,0-0.8,0c-0.1,0-0.4-0.1-0.5-0.1c-0.1,0-0.3,0-0.4,0c-0.1,0-0.1,0-0.2,0
				c-1,0-1.2,0.3-2.3,0.5c-0.2,0.1-0.6,0.2-0.9,0.3c-2.1,0.4-4.1,0.9-5.9,2.1c-1.3,0.9-2.2,2-3.3,3.1c-3.6,3.5-5.9,7.3-7.3,12
				c-0.8,3.4-1.1,7,0,10.4c0.5,1.9,1.3,3.8,2.7,5.3c1.7,1.3,2.8,2.4,4.6,3.9c1,0.8,2.1,1.4,3.2,2c0.8,0.5,1.5,1,2.4,1.3
				c1.8,0.6,3.7,1.1,5.6,1.2c1.9-0.1,3,0,4.8-0.3c4.3-0.6,8.4-1.9,12.4-3.5c2.2-0.7,4.7-2.6,6.8-4.1c2.7-2.4,4.1-5.8,5.2-9.2
				C74.5,42.9,74.4,41.1,74.2,39.4"/>
			<path class="st13" d="M66.1,39.2c-0.4-3.2-1.3-6.6-4-8.7c-1.6-1.3-2.9-1.4-4.5-2.6c-1.6-1.2-3.4-2.2-5.3-2.8
				c-2.4-1-5.1-1.1-7.7-0.5c-2,0.1-3.7,1.4-5.3,2.4c-1.3,0.8-2.4,1-3.8,2c-1.7,1.5-3.2,3.3-4.2,5.4c-0.7,1.7-1,3.5-1.1,5.2
				c0.1,0.4,0.7,0.3,0.7-0.1c0.2-1.9,0.4-3.3,1.2-5.1c0.6-1.2,1.9-2.7,2.5-3.4c1.4-1.7,2.8-2,4.7-3c1-0.6,2.8-1.7,3.5-1.9
				c1.4-0.4,2.6-0.4,4.2-0.7c0.4-0.1,3,0.3,3.4,0.4c1.3,0.4,3.3,1.1,4.1,1.5c1.2,0.6,2.2,1.5,3.4,2.2c1,0.7,2,0.9,2.7,1.4
				c0.9,0.5,2.1,1.7,2.6,2.5c1.5,2.7,1.9,6,1.8,9.2c0.1,3-1.2,5.3-3.1,7.2c-0.4,0.3-0.7,0.7-1.1,1c-0.2,0.1-0.3,0.3-0.5,0.4
				c0,0,0,0,0,0c-1.1,0.7-2.4,1-3.5,1.7c-0.6,0.3-0.7,0.3-1.4,0.4c-1.2,0.3-1.5,0.5-3,0.9c-1.5,0.5-1.5,0.9-2.8,0.8
				c-1.1,0-2.2-0.4-3.3-0.5c-1.3-0.2-2.5-0.3-3.3-0.6c-1.4-0.6-2.1-0.8-3-1.9c-0.8-1.5-1.6-3.8-2.1-6c-0.3-2.1-0.4-5.8,0.6-7.7
				c1.2-2.3,3.3-3.7,5.5-4.3c1.5-0.2,2.4-0.8,3.7-1c0.6,0.1,3.2,0.2,3.8,0.4c0.2,0.1,1,0.6,1.2,0.9c0.5,0.6,1.9,1.6,2.2,1.8
				c0.5,0.3,0.7,1.2,1.1,1.9c0.6,1.3,0.7,3.2,0.3,5.1c-0.1,0.8-0.7,1.9-1.5,3c-0.4,0.5-1.9,1.7-2.5,2c-0.8,0.4-1.5,0.3-2.7,0.4
				c-0.7,0.1-0.7,0.1-1.5,0c-1.3-0.2-2.6-0.8-3-1.2c-1.2-1.2-1.6-3.8-1.1-5c1-1.6,2.4-2.6,4.1-2.4c0.8,0.1,1.7,1.2,1.4,2.6
				c-0.1,0.8-0.6,1.3-1.2,1.5c0,0,0,0-0.1,0c0,0-0.1,0-0.1,0c0,0,0,0,0,0c-0.1,0-0.3,0-0.3,0c-0.6,0.3-0.2,1.1,0.4,1
				c2.4-0.3,3-3.8,1.5-5.3c-1.1-1.2-2.5-0.9-3.7-0.5c-1.5,0.8-2.9,2.2-3.1,3.9c-0.3,1.8,0.3,3.8,1.6,5.1c1.5,1.1,3.6,1.7,5.5,1.3
				c0.5,0,2-0.1,2.9-0.6c1.2-0.7,2.3-1.6,3.1-2.7c1.9-2.7,2.3-6.6,0.6-9.6c-0.5-1.6-2.2-2.1-3-3.1c-0.6-0.6-1.2-1.1-2-1.3
				c-1.1-0.2-2.2-0.2-3.3-0.3c-1.5-0.2-2.4,0.6-3.6,0.8c-2.9,0.5-5.7,2.3-7.1,4.9c-0.9,1.8-1.1,3.8-1.1,5.7c0.2,2.4,0.5,5,1.6,7.6
				c0.3,0.5,0.5,1.2,0.8,1.7c0.5,0.8,1.3,1.4,2.2,1.9c2,1.1,4.4,1.1,6.6,1.5c1.2,0.3,2.2,0.3,3.1,0.1c0.7-0.2,1.7-0.8,1.9-0.8
				c1.3-0.3,2.1-0.8,3.6-1c1.4-0.6,2.7-1.3,4.1-1.9c2-1.3,3.7-3.2,4.8-5.3C66.4,44.7,66.2,41.8,66.1,39.2"/>
		</g>
	</g>
</g>
</svg>
