<?xml version="1.0" encoding="utf-8"?>
<!-- Generator: Adobe Illustrator 27.0.0, SVG Export Plug-In . SVG Version: 6.00 Build 0)  -->
<svg version="1.1" xmlns="http://www.w3.org/2000/svg" xmlns:xlink="http://www.w3.org/1999/xlink" x="0px" y="0px"
	 viewBox="0 0 136.3 142.2" style="enable-background:new 0 0 136.3 142.2;" xml:space="preserve">
<style type="text/css">
	.st0{fill:#FFFFFF;}
	.st1{fill:#8CA2CF;}
	.st2{clip-path:url(#SVGID_00000101795670941562062020000004702183899958565517_);}
	.st3{fill:#627EB5;}
	.st4{fill:#8CA05C;}
	.st5{fill:#677724;}
	.st6{fill:#E0A955;}
	.st7{fill:#BBD7FF;}
	.st8{fill:#3C5987;}
	.st9{clip-path:url(#SVGID_00000127022567536705349730000014521744950507926417_);}
	.st10{fill:#669CD3;}
	.st11{clip-path:url(#SVGID_00000170967837779890725900000003128045668990612905_);}
	.st12{fill:#92C4FC;}
	.st13{fill:#FAF4D2;}
	.st14{fill:#FCCB7C;}
	.st15{clip-path:url(#SVGID_00000005968048079573354720000016754469033008866986_);}
	.st16{clip-path:url(#SVGID_00000020398752830171672650000008350559622442301886_);}
	.st17{fill:#C5CAF0;}
	.st18{clip-path:url(#SVGID_00000031188867362927371240000008267290639599677623_);}
	.st19{clip-path:url(#SVGID_00000065768253645358802550000001947421852754692272_);}
	.st20{clip-path:url(#SVGID_00000126306599948689828540000013235226569017815945_);}
	.st21{clip-path:url(#SVGID_00000147939494382214577690000003889937101336478341_);}
	.st22{fill:#F9CC3D;}
	.st23{fill:#FFEAAE;}
	.st24{fill:#FFECB8;}
	.st25{fill:#D3AA37;}
	.st26{fill:#FFE08A;}
	.st27{clip-path:url(#SVGID_00000164489273547394842990000005212571515695948685_);}
	.st28{clip-path:url(#SVGID_00000120520685214034766200000017336202916332573092_);}
	.st29{clip-path:url(#SVGID_00000134228092545940615610000008985599924312887215_);}
	.st30{clip-path:url(#SVGID_00000170274121817797625670000009319654416134182559_);}
	.st31{clip-path:url(#SVGID_00000145764493436192424860000014056568069155657865_);}
	.st32{clip-path:url(#SVGID_00000038393952781134432350000012082405031756420517_);}
	.st33{clip-path:url(#SVGID_00000147939190756851620070000001510553740884072618_);}
	.st34{clip-path:url(#SVGID_00000069357058828431015750000004141406592204668821_);}
	.st35{clip-path:url(#SVGID_00000004524124437327551810000000661810875949997238_);}
	.st36{opacity:0.82;}
	.st37{fill:#BCACAA;}
</style>
<g id="BACKGROUND">
</g>
<g id="OBJECTS">
	<g>
		<path class="st17" d="M26.3,83.8c-0.2-0.5-0.7-0.3-1,0c-0.3,0.2-1,0.7-1.7,0.9c-0.3,0.2-1.4-0.1-2.4-0.5c-0.3-0.1-0.5-0.5-1-0.3
			c-0.4,0.3-0.4,1.1-0.8,1.5c-0.7,1-2.1,2.3-3.4,2.6c-1.2,0.3-2.7,0.1-3.9-0.3c-0.5-0.2-0.8,0.6-0.3,0.8c3.1,1.1,5.7,0.5,7.8-2
			c0.4-0.5,0.8-1,1-1.6c1.4,0.7,2.8,1.2,4.1,0.3c0.4-0.2,0.8-0.5,1.2-0.8C26.2,84.3,26.4,84,26.3,83.8"/>
		<path class="st17" d="M19.8,92.1c-0.6-0.3-1.1,0.6-1.6,0.9c-0.8,0.7-2.2,1-3.1,0.7c-0.2,0-0.6-0.2-0.6-0.2
			c-0.2-0.1-0.4-0.3-0.7-0.3c-0.5,0.1-0.6,0.5-1,0.8c-0.5,0.5-0.9,0.6-1.7,0.7c-0.6,0.1-2-0.2-2.4-0.4c-0.2-0.1-0.5-0.4-0.7-0.3
			c-0.3,0.1-0.4,0.5-0.1,0.7c1.7,1,4.3,1.3,5.7-0.3c0.1-0.1,0.2-0.2,0.3-0.4c0.7,0.5,2.1,0.8,3.1,0.5c1.2-0.2,2.1-1,3-1.7
			C20,92.6,20,92.2,19.8,92.1"/>
		<path class="st8" d="M134.5,89.2c0.1-7.9-0.2-15.8-1.5-23.4c-0.2-3.6-1.3-6.9-2.5-10.3c0-0.1-0.1-0.2-0.1-0.3
			c0.1,0.4,0.1,0.7,0-0.1c-0.1-0.2-0.1-0.3-0.2-0.5c0.1,0.1,0.1,0.3,0.1,0.4c0,0,0,0,0-0.1c-0.9-3.6-2.1-7.2-3.9-10.4
			c-4.1-6.3-7.8-13.3-13.8-18c-5.2-3.6-6.2-3.5-11.5-6.1c-0.7-0.3-4-2.2-7.4-3.4c-6.3-1.5-12.6-3.3-19.2-3
			c-7.3,0.8-14.6,1.7-21.7,3.9c-5.6,1.9-10.8,4.7-16,7.5c-3.2,1.9-5.9,4.5-8.8,6.9c-3.5,2.8-6.8,5.9-9.8,9.2
			C14.3,45.9,12.7,52,12,57.7c-0.3,2.6,0.4,5.1,1,7.6c3.5,14.4-8.6,29.6-9.5,33c-1.3,4.6-1.8,9.5-0.4,15.5c0.5,2,1.3,4,2.3,5.9
			c1.2,2,2.8,3.8,4.2,5.6c1.5,2.1,3.5,3.8,5.4,5.6c0,0,0,0,0,0c1.5,1.6,3.5,2.8,5.4,4c2.1,1.5,4.3,2.4,6.7,3.1
			c4.9,1.9,8.2,2.4,10.6,3c2.2,0.4,4.6,0.3,6.9,0c2.9-0.1,5.8-0.8,8.7-1.3c4.7-0.5,4.3-0.5,9.4-1.4c1.1-0.2,2.1-0.4,3.2-0.7
			c2.7,0.4,5.4,1,8.1,1.4c1.7,0.4,3.4,0.7,5.2,0.7c6.8-0.2,13.8-0.9,20.2-3.5c3.9-1.5,7.4-3.7,10.9-6c4.6-3,9.2-6.5,12.5-11
			c2.4-2.9,4.1-6.3,5.8-9.6c1.3-2.6,2.7-5.2,3.5-8c0.5-2,0.9-4.1,1.4-6.2c0.1-0.5,0.4-1.5,0.5-1.9C134.5,92.1,134.4,90.6,134.5,89.2
			z"/>
		<g>
			<g>
				<path class="st14" d="M45.6,1.2c-0.4,0.1-0.9,0.2-1.3,0.3c-3.4,0.9-6.7,2.3-9.6,4.3c-2.5,1.7-4.7,3.7-6.6,6
					c-2.8,3.4-5,7.2-6.2,11.5c-2.1,7.1-1.7,14.1,1.1,21c1.3,3.2,3.2,6.1,5.5,8.6c4.7,5.1,10.4,8.3,17.2,9.5c6.1,1.1,12,0.4,17.7-2
					c1.7-0.7,3.3-1.6,4.8-2.6c0.1,0,0.1,0,0.2-0.1c-0.3,1.4-6.2,6.6-9.9,8.7c-3.9,2.3-8.1,3.7-12.6,4.4c-4.5,0.7-8.9,0.5-13.3-0.6
					C13,65.5,1.8,45.8,6.7,27.1C11.6,8.4,29.6-1.3,45.6,1.2z"/>
				<path class="st22" d="M26.4,70.6c-0.1,0-0.3-0.1-0.5-0.2c-1.2-0.5-2.4-1.1-3.5-1.8c-6-3.9-10.7-9-13.9-15.4
					c-0.2-0.3-0.3-0.6-0.4-0.9c0-0.1,0-0.2,0.1-0.3c0.1-0.1,0.2,0,0.3,0.1c0.1,0.2,0.2,0.4,0.3,0.6c1.6,2.9,3.3,5.7,5.4,8.1
					c3,3.4,6.5,6.2,10.5,8.4c0.6,0.3,1.2,0.5,1.8,0.8c0.1,0.1,0.3,0.2,0.2,0.3C26.7,70.7,26.6,70.7,26.4,70.6z"/>
				<path class="st22" d="M8.3,58.8c0.3,0.1,0.4,0.3,0.6,0.5c2.3,2.7,4.8,5.1,7.7,7.1c0.6,0.4,1.2,0.8,1.8,1.2
					c0.2,0.2,0.6,0.4,0.4,0.7c-0.2,0.3-0.5,0.1-0.8,0c-1.7-1.1-3.2-2.3-4.7-3.6c-1.7-1.6-3.3-3.3-4.7-5.1c-0.1-0.2-0.2-0.3-0.3-0.5
					C8,58.9,8.1,58.8,8.3,58.8z"/>
				<path class="st22" d="M5.8,26c0.2,0.2,0,0.3,0,0.5c-1.2,2.3-1.7,4.7-1.7,7.1c0,1.1-0.1,2.3,0.1,3.4c0,0.2,0,0.4,0,0.6
					c0,0.1,0,0.3-0.3,0.3c-0.3,0-0.4-0.1-0.4-0.3c-0.1-0.2-0.2-0.4-0.2-0.6c-0.1-3.4,0.1-6.8,1.8-10.2C5.3,26.3,5.4,26.3,5.8,26z"/>
				<path class="st22" d="M24.6,71.5c-0.8-0.1-1.6-0.5-2.2-1c-0.1-0.1-0.2-0.1-0.1-0.3c0.1-0.1,0.2-0.1,0.3-0.1
					c0.1,0,0.2,0.1,0.3,0.1c0.6,0.3,1.2,0.5,1.8,0.7c0.2,0,0.3,0.1,0.3,0.3C24.9,71.5,24.8,71.5,24.6,71.5z"/>
				<path class="st22" d="M7.4,22.6c-0.3,0.7-0.5,1.3-0.8,2c0,0-0.1,0.1-0.1,0.1c-0.1,0-0.1-0.1-0.1-0.1c0.2-0.7,0.4-1.4,0.9-2
					C7.3,22.6,7.3,22.6,7.4,22.6z"/>
			</g>
			<g>
				<path class="st6" d="M36.9,2.3C33.1,4.1,29.3,6,25.5,7.9c-1.7,0.8-3.3,1.6-4.8,2.7c-1.3,1-2.3,2.2-3,3.6c-1.5,2.8-2.1,6-3.1,9
					c-0.6,1.7-1.4,3.3-2.3,4.9c-0.9,1.7-1.5,3.5-1.9,5.5C9.2,40.3,9.7,48,13.9,53.7c2.2,3,5.1,5.3,8,7.5c2.8,2.2,5.8,4.3,9.1,5.7
					c1.7,0.7,3.5,1.2,5.3,1.4c2,0.3,4,0.2,6-0.2c2-0.3,4-0.9,6-1.3c2-0.5,4.1-1,6.1-1.5c1-0.2,2-0.5,3.1-0.7
					c0.3-0.1,0.2-0.6-0.1-0.5c-4,1-8.1,1.9-12.1,2.8c-1.9,0.5-3.9,0.9-5.9,0.9c-1.9,0.1-3.9-0.2-5.7-0.7c-3.4-1-6.5-2.8-9.3-4.9
					c-1.4-1.1-2.8-2.2-4.2-3.3c-1.4-1.1-2.8-2.3-4-3.6c-2.4-2.6-4.1-5.6-4.9-9c-0.8-3.3-0.9-6.8-0.6-10.2c0.2-1.9,0.5-3.8,1.2-5.5
					c0.7-1.8,1.7-3.4,2.5-5.1c1.3-2.9,1.8-6,2.9-9c0.5-1.4,1.2-2.8,2.2-4c1.1-1.3,2.6-2.3,4.2-3.1c1.7-0.9,3.5-1.8,5.3-2.7
					c1.8-0.9,3.7-1.8,5.5-2.8c0.9-0.4,1.8-0.9,2.7-1.4C37.2,2.5,37.1,2.2,36.9,2.3L36.9,2.3z"/>
			</g>
			<g>
				<path class="st6" d="M17.6,41c-0.2,0.5-0.2,1-0.2,1.5c0,0.4,0.1,0.8,0.4,1.1c0.6,0.6,1.3-0.1,1.5-0.7c0.2-0.4,0.2-0.9,0.2-1.4
					c0-0.5,0-1,0-1.6c-0.1-0.9-0.2-1.9-0.7-2.7c-0.3-0.6-0.9-1.2-1.7-1.1c-0.8,0.1-1.1,0.9-1.3,1.6c-0.5,1.7-0.6,3.6-0.3,5.4
					c0.2,1.8,0.9,3.6,1.8,5.1c1,1.7,2.4,3.1,3.9,4.4c1.6,1.5,3.3,2.9,4.9,4.3c0.8,0.7,1.7,1.5,2.5,2.2c0.7,0.6,1.4,1.2,2.2,1.7
					c0.8,0.5,1.7,0.7,2.6,0.6c0.5,0,1-0.1,1.5,0c0.5,0.1,0.9,0.4,1.3,0.7c0.7,0.6,1.5,1.1,2.3,1.5c0.8,0.4,1.7,0.6,2.7,0.6
					c0.5,0,0.9,0,1.4,0c0.4,0,0.4-0.7,0-0.6c-1.7,0.2-3.4-0.2-4.8-1.1c-0.7-0.4-1.3-1.1-2-1.4c-0.8-0.4-1.7-0.3-2.6-0.3
					c-1.8,0-3.1-1.2-4.3-2.3c-1.5-1.3-3-2.6-4.5-3.9c-2.7-2.3-5.6-4.6-7.1-7.9c-0.7-1.5-1.1-3.1-1.2-4.7c-0.1-0.8,0-1.7,0-2.5
					c0.1-0.7,0.2-1.6,0.5-2.2c0.2-0.3,0.4-0.7,0.8-0.7c0.4,0,0.7,0.3,0.9,0.6c0.5,0.8,0.7,1.8,0.7,2.7c0,0.5,0,1,0,1.6
					c0,0.5-0.1,1-0.3,1.4c-0.1,0.1-0.2,0.3-0.4,0.3c-0.2,0-0.3-0.4-0.3-0.5c-0.1-0.5-0.1-1.1,0.1-1.6C18.1,40.8,17.7,40.7,17.6,41
					L17.6,41z"/>
			</g>
			<g>
				<path class="st23" d="M23.7,45.7C23.7,45.7,23.7,45.7,23.7,45.7C23.7,45.7,23.7,45.7,23.7,45.7L23.7,45.7z"/>
			</g>
			<g>
				<path class="st24" d="M29.1,10.4c-1.7,1.6-3.1,3.4-4.3,5.4c-1.2,2-2.1,4.1-2.8,6.3c-0.2,0.6-0.3,1.2-0.5,1.9
					c-0.1,0.3-0.1,0.7-0.2,1c-0.1,0.3-0.1,0.7-0.1,1c0,0.2,0.4,0.4,0.5,0.1c0.2-0.5,0.3-1.1,0.4-1.6c0.1-0.6,0.3-1.1,0.4-1.7
					c0.3-1.1,0.7-2.1,1.1-3.2c0.9-2.1,2-4.1,3.3-6c0.8-1,1.6-2.1,2.4-3C29.5,10.5,29.2,10.3,29.1,10.4L29.1,10.4z"/>
			</g>
			<g>
				<path class="st24" d="M39.4,60.9c5,1.7,10.4,2.4,15.7,1.8c1.5-0.2,2.9-0.4,4.4-0.8c0.4-0.1,0.2-0.7-0.2-0.6
					c-5.1,1.1-10.4,1.2-15.5,0.1c-1.4-0.3-2.8-0.7-4.2-1.1C39.2,60.2,39,60.8,39.4,60.9L39.4,60.9z"/>
			</g>
			<g>
				<path class="st24" d="M26.2,4.2c0.5-0.1,0.9-0.4,1.4-0.6C28,3.4,28.5,3.2,28.9,3c0.9-0.3,1.9-0.6,2.9-0.9c2-0.5,4-0.8,6-0.9
					c1.1-0.1,2.3-0.1,3.4,0c0.3,0,0.3-0.5,0-0.5c-4.1-0.3-8.2,0.4-12.1,1.7c-0.5,0.2-1.1,0.4-1.6,0.6c-0.5,0.2-1.1,0.4-1.6,0.7
					C25.9,3.9,25.9,4.2,26.2,4.2L26.2,4.2z"/>
			</g>
			<g>
				<path class="st25" d="M13,21.8C13,21.8,13,21.8,13,21.8C12.9,21.8,12.9,21.8,13,21.8L13,21.8z"/>
			</g>
			<path class="st25" d="M9.5,23.5c0.1-0.3-0.3-0.4-0.4-0.2c-0.3,0.4-0.5,0.8-0.7,1.2c-0.2,0.4-0.3,0.8-0.4,1.2
				c-0.2,0.9-0.4,1.8-0.4,2.7c0,0.3,0.2,0.5,0.5,0.5c0.3,0,0.4-0.2,0.5-0.5c0.1-0.8,0.2-1.6,0.4-2.5c0.1-0.4,0.2-0.8,0.3-1.2
				C9.3,24.3,9.3,23.9,9.5,23.5z"/>
			<path class="st25" d="M10,27.4c0-0.1,0-0.1,0-0.2c0,0,0,0,0,0c0,0,0,0,0,0c0-0.1-0.1-0.3-0.2-0.3c-0.1,0-0.3,0-0.4,0.1
				c0,0-0.1,0.1,0,0c0,0.1-0.1,0.1-0.1,0.2c0,0.1,0,0.1-0.1,0.2c0,0,0,0,0,0c0-0.1,0-0.1,0,0c0,0,0,0,0,0.1c0,0.1,0,0.1,0,0.2
				c0,0.1-0.1,0.2-0.1,0.4c0,0.2-0.1,0.4,0,0.6C9.2,29,9.5,29,9.7,28.8c0.1-0.1,0.1-0.2,0.1-0.3c0-0.1,0-0.1,0-0.2
				c0-0.1,0-0.2,0-0.2c0-0.2,0-0.3,0-0.5c0,0,0,0.1,0,0.1C9.9,27.7,10,27.6,10,27.4C10,27.4,10,27.4,10,27.4z"/>
			<path class="st25" d="M20.8,62.8c-0.4-0.2-0.8-0.4-1.2-0.7c-0.2-0.1-0.4-0.2-0.6-0.4c-0.2-0.1-0.3-0.3-0.5-0.4
				c-0.1-0.1-0.4-0.1-0.5,0c-0.1,0.1-0.1,0.3,0,0.5c0.6,0.8,1.4,1.4,2.3,1.8c0.2,0.1,0.5,0.1,0.7-0.2C21.1,63.2,21.1,62.9,20.8,62.8
				z"/>
			<path class="st25" d="M13,54c0-0.1,0-0.1-0.1-0.2c-0.1-0.2-0.2-0.5-0.4-0.7c-0.3-0.5-0.6-0.9-1-1.3c-0.1-0.1-0.4-0.2-0.5-0.1
				c-0.2,0.1-0.3,0.2-0.3,0.4c0,0.9,0.5,1.6,1.1,2.2c0.1,0.1,0.2,0.2,0.3,0.4c0.1,0.1,0.1,0.1,0.2,0.1c0,0,0,0,0.1,0.1
				c0.2,0.1,0.4,0.2,0.6,0c0.2-0.1,0.3-0.4,0.1-0.6C13.1,54.2,13.1,54.1,13,54z"/>
			<path class="st25" d="M39.5,65.2c-0.8-0.4-1.7-0.6-2.5-0.8c-0.2,0-0.4,0.1-0.4,0.3c-0.1,0.2,0,0.4,0.1,0.5
				c0.2,0.2,0.5,0.4,0.8,0.5c0.2,0.1,0.3,0.1,0.5,0.1c0,0,0,0,0.1,0c0,0,0.1,0,0.1,0c0.4,0.1,0.8,0.1,1.2,0.1c0.2,0,0.4-0.1,0.4-0.3
				C39.7,65.5,39.7,65.3,39.5,65.2z"/>
			<path class="st26" d="M17.3,11.8c0,0,0-0.1,0-0.1c-0.1-0.1-0.3-0.2-0.4-0.1c-0.1,0.1-0.2,0.1-0.2,0.2c0,0,0,0-0.1,0c0,0,0,0,0,0
				c-0.1,0-0.2,0.1-0.2,0.2c0,0,0,0,0,0c0,0-0.1,0.1-0.1,0.1c-0.1,0.1-0.1,0.1-0.2,0.2c-0.3,0.3-0.5,0.7-0.7,1.1
				c-0.1,0.2-0.1,0.4,0.1,0.5c0.2,0.1,0.4,0.1,0.5,0c0.6-0.5,1.1-1,1.5-1.7C17.4,12.2,17.4,12,17.3,11.8
				C17.3,11.9,17.3,11.9,17.3,11.8z"/>
			<path class="st25" d="M11.9,34.3C11.9,34.3,11.9,34.3,11.9,34.3C12,34.3,12,34.3,11.9,34.3z"/>
			<path class="st25" d="M11.5,36.6c0.2,0,0.3-0.1,0.4-0.3c0.1-0.3,0.2-0.6,0.2-1c0-0.1,0-0.3,0-0.4c0-0.1,0-0.2,0-0.3
				c0-0.1-0.1-0.2-0.1-0.2c0,0-0.1-0.1-0.2-0.1c0,0,0,0,0,0c-0.1,0-0.1,0-0.2,0c-0.1,0-0.1,0,0,0c0,0-0.1,0-0.1,0.1
				c-0.1,0-0.2,0.1-0.2,0.2c-0.2,0.5-0.3,1.1-0.2,1.7C11.2,36.5,11.4,36.6,11.5,36.6z"/>
			<path class="st25" d="M12,37.6C12,37.6,12,37.6,12,37.6c-0.1,0.6-0.2,1.1-0.1,1.7c0,0.2,0.2,0.3,0.4,0.3c0.1,0,0.1,0,0.2-0.1
				c0.1,0,0.2-0.1,0.2-0.2c0-0.3,0.1-0.6,0.1-0.9c0-0.3,0-0.5,0-0.8c0-0.1,0-0.2-0.1-0.3c-0.1-0.1-0.2-0.1-0.3-0.1
				C12.1,37.2,12,37.4,12,37.6z"/>
		</g>
		<path class="st6" d="M46,69.3C46.1,69.2,46,69.2,46,69.3"/>
		<path class="st4" d="M4.8,118.4C4.8,118.4,4.8,118.4,4.8,118.4"/>
		<g>
			<defs>
				<path id="SVGID_00000052064641818450332800000009440822616129065352_" d="M132.3,101.6c0.5-2,0.9-4.1,1.4-6.2
					c0.1-0.5,0.4-1.5,0.5-1.9c0.3-1.4,0.3-2.8,0.4-4.3c0.1-7.9-0.2-15.8-1.5-23.4c-0.2-3.6-1.3-6.9-2.5-10.3c0-0.1-0.1-0.2-0.1-0.3
					c0.1,0.4,0.1,0.7,0-0.1c-0.1-0.2-0.1-0.3-0.2-0.5c0.1,0.1,0.1,0.3,0.1,0.4c0,0,0,0,0-0.1c-0.9-3.6-2.1-7.2-3.9-10.4
					c-4.1-6.3-7.8-13.3-13.8-18c-5.2-3.6-6.2-3.5-11.5-6.1c-0.7-0.3-4-2.2-7.4-3.4c-6.3-1.5-12.6-3.3-19.2-3
					c-7.3,0.8-14.6,1.7-21.7,3.9c-5.6,1.9-10.8,4.7-16,7.5c-3.2,1.9-5.9,4.5-8.8,6.9c-3.5,2.8-6.8,5.9-9.8,9.2
					C14.3,45.9,12.7,52,12,57.7c-0.3,2.6,0.4,5.1,1,7.6c3.5,14.4-8.6,29.6-9.5,33c-1.3,4.6-1.8,9.5-0.4,15.5c0.5,2,1.3,4,2.3,5.9
					c1.2,2,2.8,3.8,4.2,5.6c1.5,2.1,3.5,3.8,5.4,5.6c0,0,0,0,0,0c1.5,1.6,3.5,2.8,5.4,4c2.1,1.5,4.3,2.4,6.7,3.1
					c4.9,1.9,8.2,2.4,10.6,3c2.2,0.4,4.6,0.3,6.9,0c2.9-0.1,5.8-0.8,8.7-1.3c4.7-0.5,4.3-0.5,9.4-1.4c1.1-0.2,2.1-0.4,3.2-0.7
					c2.7,0.4,5.4,1,8.1,1.4c1.7,0.4,3.4,0.7,5.2,0.7c6.8-0.2,13.8-0.9,20.2-3.5c3.9-1.5,7.4-3.7,10.9-6c4.6-3,9.2-6.5,12.5-11
					c2.4-2.9,4.1-6.3,5.8-9.6C130,106.9,131.4,104.4,132.3,101.6"/>
			</defs>
			<clipPath id="SVGID_00000070114524152312298110000014153142291976263303_">
				<use xlink:href="#SVGID_00000052064641818450332800000009440822616129065352_"  style="overflow:visible;"/>
			</clipPath>
			<g style="clip-path:url(#SVGID_00000070114524152312298110000014153142291976263303_);">
				<path class="st4" d="M130.2,113.5c-2.9,0.5-4.3,0.8-6.6,0.7c-1.5,0.1-4,0.1-6.1-0.3c-5.6-1.2-12.3-3.8-18.2-6.3
					c-4.7-1.6-9.2-4-14-5.4c-5.3-1.7-10.9-2.3-16.3-3.5c-4.6-1.1-9.2-1.4-13.9-1.5c-0.6-0.1-1.3-0.2-2-0.2c-0.4,0-0.8-0.1-1.2-0.1
					c-0.4,0-0.8-0.1-1.1-0.1c-1.8-0.2-3.5-0.5-5.3-0.3c-1.2,0.1-2.5,0.2-3.7,0.4c-2.2,0.2-4.5,0.5-6.7,0.9c-0.9,0.2-1.9,0.4-2.8,0.6
					c-1.8,0.3-3.5,0.6-5.3,1c-5.7,1.4-12.2,5.8-14,6.9c-0.3,0.2-0.7,0.4-1,0.6c-1.9,1.5-4.2,2.8-6.1,4.5c-0.8,0.5-1.5,0.9-2,1.6
					c-0.9,0.6-1.3,1.8-1.2,2.9c0.4,1.5,0.5,2.3,1.4,3.8c0.4,1.3,1,2.1,1.4,2.7c1,2.3,2.2,3.7,3.7,5.9c0.9,1.6,3.7,4.5,5.7,6.1
					c3.6,2.4,7.4,4,11.6,5.7c3.3,1.2,6.7,1.7,10.1,2.1c1.6,0.2,3.3,0.6,4.9,0.7c1.5,0,2.3-0.2,3.5-0.2c2,0,4,0.2,5.9,0.4
					c2.4,0,4.9,0,7.3-0.1c2.4,0,5.4-1.1,8.3-1.4c3.3-0.5,7-1,9.7-1.1c4.3,0.6,8.6,1.4,13,1.6c4.8,0.3,9.7-0.4,14.3-1.9
					c4.5-1.1,8.9-2.6,12.9-5.1c3.8-2.7,7.1-6.2,9.9-10c1.9-2.7,3.7-5.5,5.1-8.5C132.9,114.3,132.8,112.8,130.2,113.5"/>
				<g>
					<path class="st5" d="M131.6,116.5c-0.6-0.1-1.1,0.2-1.7,0.4c-1.8,0.8-3.8,2.3-5.1,2.5c-4.2,1.7-8.8,1.5-13.3,0.5
						c-3.2-0.8-6.1-2.2-9.1-3.3c-4.7-1.6-8.1-3.3-12.6-5.1c-9.1-2.3-18.5-3.5-27.9-3.8c-9.1,0.4-18.3,1.5-27,4.1
						c-5.3,1.5-10.3,3.8-15.4,5.7c-4,1.7-7.7,4-11.3,6.5c-0.5,0.3-1,0.7-1.5,1c-0.1,0.1-0.2,0.2-0.2,0.3c0,0.4,0.5,0.6,0.8,0.4
						c3.2-2.3,6-4.1,9.4-5.9c3.2-1.6,6.6-2.7,9.8-4.1c8.9-3.6,19.6-5.9,29.1-6.4c6.2-0.7,12.7-0.1,19.3,0.7c5.1,0.9,10,1.5,14.5,2.8
						c1.7,0.5,2.5,1.2,4.2,1.8c1.9,0.7,2.9,1.1,4.7,1.9c3.3,1.2,6.6,2.5,9.8,3.8c6.2,2.1,12.7,2.3,18.2-0.2c2-0.8,3.3-2.1,5.2-2.5
						C132.3,117.5,132.2,116.7,131.6,116.5"/>
					<path class="st5" d="M131.1,119c-0.8-0.2-1.4,0.6-2.1,0.9c-0.6,0.4-1.9,0.8-1.9,0.8c-5.7,1.7-10.8,2.6-16.9,1.8
						c-4.1-0.7-8.2-1.6-12.4-3.2c-3.3-1.2-6.7-2-10-3.1c-7.2-2.2-14.8-3.2-22.3-2.8c-6.7,0.3-13.3,1.3-19.7,3
						c-4,1.2-7.9,2.8-11.8,4.3c-2.6,1.1-5,2.5-7.6,3.7c-2,1-4.2,1.7-6.1,3c-2.4,1.7-4.9,3.3-7,5.3c-0.3,0.4,0.4,0.9,0.8,0.6
						c2.6-2.3,5.6-4.4,8.2-5.9c2.7-1.2,5.4-2.4,8-3.7c4.9-2.5,10.2-4.2,15-5.8c8.1-2.3,16.7-3.3,24.7-3.1c9.3,0,16.8,2.7,25.9,5.3
						c3.4,1.4,6.9,2.2,10.5,3.1c6,1.5,11.3,1.2,17.1,0c1.8-0.3,2.7-0.8,4.2-1.2c0.9-0.1,2.4-1.1,3.6-1.8c0.2-0.1,0.3-0.2,0.4-0.4
						C131.7,119.6,131.5,119.2,131.1,119"/>
					<path class="st5" d="M128.7,123.3c-0.7-0.1-1.3,0.4-1.9,0.6c-1.2,0.5-2.4,1.1-3.2,1.3c-4.1,1.7-8.6,1.6-13.9,1.3
						c-5.9-0.3-11.2-1.7-16.8-2.9c-4.1-0.9-8.2-2.2-12.4-2.9c-5.9-1.4-12.1-1.5-18.1-1.1c-5.7,0-12.8,2.5-18.5,4.7
						c-2.6,1.2-5.3,2.2-7.9,3.4c-4.7,2.6-9,5.8-12.7,9.6c-0.2,0.3-0.6,0.5-0.7,0.9c0,0.4,0.5,0.7,0.8,0.4c3.7-3.9,8.3-7.3,12.8-9.8
						c3.1-1.4,6.2-2.7,9.3-3.9c3.8-1.3,6.9-2.6,10.8-3.4c4.5-0.9,8.1-1,12.7-0.9c7.1,0,13.6,1.7,20.1,3.5c6.2,1.5,12.5,3,18.4,3.7
						c5.3,0.3,11.3,0.7,15.8-1c1.1-0.3,2.6-0.9,4.1-1.6c0.5-0.4,1.4-0.4,1.7-1C129.2,123.8,129,123.4,128.7,123.3"/>
					<path class="st5" d="M126.2,127.9c-0.4,0-0.7,0.3-1,0.4c-1.1,0.5-2.1,0.8-3.1,1.1c-2.1,0.7-4,0.7-5.5,0.8
						c-3,0.2-4.6,0.4-7.7,0.3c-2.5-0.2-5,0.1-7.5-0.1c-5.2-0.7-9.8-1.7-14.6-2.8c-8-1.4-16.1-3.7-24.2-2.5c-6.4,1-12.5,3.4-18.2,6.4
						c-4,2-8.1,4.1-11.4,7.2c-0.7,0.8-1.8,1.4-2.3,2.3c0,0.4,0.5,0.7,0.8,0.4c3.8-3.8,7.8-6.3,12.7-8.6c6.9-3.5,14.5-6.5,21.9-6.8
						c9.2,0.1,17.1,2.4,25.6,4.1c4.4,0.8,8.7,2.1,13.2,1.8c4.8,0.1,8.8,0,12.8-0.4c1.5,0,4.4-0.5,6.4-1.3c0.2-0.1,1-0.3,1.2-0.4
						c0.5-0.3,1.2-0.4,1.5-1C127,128.5,126.7,128,126.2,127.9"/>
				</g>
				<path class="st5" d="M134.4,107.4c-1.4,0.4-1.8,0.3-3.2,0.4c-5.7,1.3-11.1,0.9-17.2,0.9c-3.9-0.4-8.1-1.1-11.3-2
					c-2.4-0.9-4.8-1.8-7.6-2.9c-4-1.6-8.1-2.9-12.2-4.3c-2-0.7-3.3-1.5-5.6-2.2c-6.4-1.6-12.9-2.9-19.4-3.7
					c-3.3-0.4-6.6-1.1-9.9-1.3C45.5,92,42,92.4,40,92.5c-8.6-0.2-17.1,1.9-24.5,6.1c-3.5,2.2-6.8,3.5-9.9,6.2
					c-1.6,1.4-2.9,3.1-4.2,4.7c-0.1,0.1-0.3,0.1-0.3,0.2c-0.1,0.1-0.2,0.1-0.3,0.2c-0.2,0.5-0.3,1.2-0.4,1.7c0,1.3,0.4,2.6,0.8,3.8
					c0,0.5,0.5,2.1,1.1,3c0.5,1.1,0.9,2.2,2,2.9c0.4,0.3,1.1,0.3,1.3-0.1c0,0,0.1,0,0.1-0.1c0,0,0.1,0,0.1-0.1
					c0.9-1.3,2.4-2.9,3.6-4c2.1-1.6,4.4-2.9,6.9-4.5c6.2-3.8,12.4-5.4,19.6-7.4c5.3-1.5,12.3-3,17.1-3.4c6.5,0,13-0.2,19.4,1.3
					c5.7,1.1,12.4,3,18.5,4.8c2.1,0.7,4.2,1.5,6.3,2.3c2.4,0.8,4.9,1.4,7.3,2.1c3.6,1.5,7.5,2.1,11.3,2.2c1.3,0.1,2.5,0.5,3.7,0.6
					c1.2,0,2.5,0,3.8,0c2.9,0,5.8-0.3,8.5-1.5c1-0.6,2.4-0.7,3.2-1.6c0.3-0.5,0.2-1,0.4-1.5c0.4-0.9,0.7-1.7,0.8-2.7
					C136.1,106.5,135.1,107.3,134.4,107.4"/>
				<g>
					<path class="st6" d="M120,133.8c-1.1-0.1-1.9,0.5-3,0.7c-2,0.6-4.7,1.4-6.5,1.5c-4.5,0.2-7.7,0.6-12.4-0.2
						c-3.5-0.7-8.5-2.8-12.6-4c-6.3-1.7-12.1-2.6-18.8-2.8c-3.2,0.2-6.3,0.8-9.4,1.5c-0.2,0.1-0.4,0.1-0.6,0.2
						c-0.2,0-0.4,0.1-0.6,0.1c-3.9,1.1-8.3,2.5-11.7,4.7c-1.6,0.9-3.9,2.3-5.9,3.9c-1.5,1.1-4.4,3.4-2.4,4c1.4-0.1,1.7,0.2,3.6,0.4
						c2.7,0.1,5.3,0.4,7.9,0.4c1.5,0.2,3.1-0.2,4.1-0.2c1.3,0,2.7,0.1,4,0.2c1.6,0,3.3-0.2,4.9-0.1c4.3,0,8.5,0.3,12.8,0.3
						c6.3,0.5,13.6,1.5,19.2,1.2c2.1,0,4.2,0.1,6.2-0.1c2.1-0.3,4.1-0.9,6.2-1.4c4.1-1.1,7.6-1.7,10.9-4.5
						C117.1,138.8,121.9,134.7,120,133.8"/>
					<g>
						<path class="st14" d="M44.7,139.2c-0.1-0.1-0.4-0.2-0.5-0.1c-1,0.5-2,0.9-3,1.4c-0.3,0.3,0.1,0.9,0.5,0.7c1-0.5,2-0.9,3-1.4
							C44.9,139.6,44.8,139.3,44.7,139.2"/>
						<path class="st14" d="M60.6,132.6c-0.7,0.1-2.8,0.2-4,0.6c-1.7,0.7-3.4,1.4-5,2.3c-0.3,0.3,0.1,0.9,0.5,0.7
							c1.8-0.8,3.9-1.9,5.4-2.3c1.1-0.3,2.3-0.2,3.5-0.5C61.6,133.1,61.2,132.3,60.6,132.6"/>
						<path class="st14" d="M56.9,137.8c-0.3-0.1-0.5,0.1-0.8,0.1c-1.4,0.6-3,1-4.3,1.8c-0.3,0.3,0.1,0.9,0.5,0.7
							c1.5-0.6,3.3-1.4,4.5-1.7C57.3,138.6,57.3,137.9,56.9,137.8"/>
						<path class="st14" d="M66.6,135.8c-1.2,0.1-2.4,0.2-3.6,0.3c-0.4,0.1-0.8,0-1.1,0.3c-0.3,0.3,0.1,0.9,0.5,0.8
							c1.4-0.2,2.7-0.3,4.1-0.4c0.2,0,0.4-0.1,0.5-0.2C67.4,136.2,67,135.7,66.6,135.8"/>
						<path class="st14" d="M74.6,132.3c-0.2-0.3-0.7-0.3-1-0.4c-1.7-0.3-3.5-0.3-5.3-0.2c-0.5,0.1-0.4,1,0.1,1
							c1.8-0.1,4.2-0.1,5.5,0.3C74.4,133.2,74.9,132.7,74.6,132.3"/>
						<path class="st14" d="M67.5,140.4c-0.3-0.3-0.8-0.1-1.3-0.1c-1.2,0.1-2.4,0.1-3.6,0.4c-0.5,0.3-0.2,1,0.4,0.9
							c1.5-0.2,2.9-0.3,4-0.3C67.5,141.3,67.8,140.8,67.5,140.4"/>
						<path class="st14" d="M79.6,140.7c-0.5-0.3-1.3-0.2-1.9-0.3c-1.2-0.1-2.5-0.3-3.8-0.3c-0.5,0.1-0.4,0.9,0.1,0.9
							c1.7,0.1,3.4,0.3,5.1,0.5C79.6,141.5,79.9,141,79.6,140.7"/>
						<path class="st14" d="M77.3,136.9c-1.1-0.1-2.2-0.1-3.2-0.2c-0.8-0.2-1.1,0.9-0.2,1.1c1.4,0,2.9,0.1,4.3,0.2
							c0.3,0,0.6-0.2,0.6-0.5C78.7,136.8,77.8,136.9,77.3,136.9"/>
						<path class="st14" d="M87.7,134.3c-1.1-0.2-2.1-0.5-3.2-0.7c-0.5-0.1-1.1-0.4-1.7-0.3c-0.4,0.2-0.4,0.8,0.1,1
							c1.5,0.4,3.1,0.7,4.6,1.1c0.3,0.1,0.6,0,0.7-0.3C88.3,134.7,88.1,134.3,87.7,134.3"/>
						<path class="st14" d="M90.4,138.7c-1-0.2-2.1-0.3-3.1-0.5c-0.5,0-1.1-0.3-1.6,0c-0.4,0.3-0.1,0.9,0.3,0.9
							c1.5,0.2,2.9,0.4,4.4,0.6c0.1,0,0.3,0,0.4-0.1C91.1,139.3,90.9,138.7,90.4,138.7"/>
						<path class="st14" d="M98.1,138c0-0.2-0.3-0.4-0.5-0.4c-1.3-0.2-2.6-0.3-3.8-0.6c-0.8-0.1-0.8,1.1-0.1,1.1
							c1.3,0.2,2.6,0.3,3.8,0.5C97.9,138.7,98.2,138.3,98.1,138"/>
						<path class="st14" d="M102.5,141.4c-0.3-0.8-1.5-0.2-2.2-0.3c-1.2,0-2.4,0.1-3.6,0.1c-0.2,0-0.4,0.2-0.4,0.4
							c-0.1,0.4,0.3,0.7,0.6,0.6c1.3-0.1,3.3-0.1,5-0.2C102,142,102.5,141.9,102.5,141.4"/>
						<path class="st14" d="M109.9,138.3c-0.1-0.1-0.3-0.2-0.5-0.2c-1.4,0-2.8,0.1-4.1,0.1c-0.8-0.1-0.9,1.1-0.1,1.1
							c0.9,0,1.8-0.1,2.7-0.1c-0.2,0,1.4,0,1.8-0.1C110.1,139.1,110.2,138.6,109.9,138.3"/>
						<path class="st14" d="M117.2,135.7c-1.4,0.8-2.8,1.5-4.3,2.2c-0.4,0.2-0.3,0.7,0.1,0.8c0.6,0.1,1.2-0.5,1.7-0.7
							c1-0.5,2.1-1,3-1.6C118.1,136.1,117.6,135.5,117.2,135.7"/>
					</g>
				</g>
			</g>
		</g>
		<g>
			<path class="st3" d="M133.3,75.8c-0.5-2.4-2.1-4-3.7-5.4c-3.1-2.9-5.6-4.9-9.1-7.2c-3.6-2.5-8.9-3.3-10.7-5.7
				c-0.1-0.6-0.4-2.7-0.6-3.9c-0.1-1.8-0.4-3.6-1.4-5c-0.9-1.4-2.5-2-3.9-2.4c-2-0.7-4-1.2-6.1-1c-2.3-0.1-4.2,0.3-4.3-0.5
				C93.1,44,93,41.4,91.9,40c-2.4-3.6-7.4-7-11-2.9c-0.4,0.3-0.9,0.9-1.4,1.6c-1.8-0.7-4.5-1.4-6.8-1.2c-2.7,1.1-6.2,3.2-7.3,5.7
				c-0.6,1.1-1.6,3.1-2.1,3.9c-0.7-0.6-1.7-0.7-2.5-1.1c-1.1-0.3-2.1-0.8-3.2-0.8c-4.7-0.2-9.3,2.6-12.4,6.7
				c-0.5,0.7-1.6,2.8-1.6,3.1c0,0,0,0,0,0c-0.1,0-0.2,0-0.3,0c-0.2,0-1.1-0.2-1.4-0.2c-6.1-1.9-12.6,2.4-17.4,6.9
				c-4.6,5.5-5.7,14.1-0.1,18.7c2.3,2.2,5.3,3.1,8,4.3c5.6,2.4,11.9,2.3,17.9,2.5c4.6,0.2,10.4,0.6,15.8,0.2
				c4.9-0.6,9.8-0.8,14.1-0.3c4.1,0.4,7.2,0.3,11.3,0.6c3.9,0,6.8,0,10.6,0.7c4.4,0.7,9.5,2.1,13.2,2.3c6.1,0.3,15.8-1.1,18.2-9
				C134.2,79.8,133.8,77.8,133.3,75.8"/>
			<g>
				<path class="st0" d="M30,67.5c-0.4-0.1-2.7,0.2-3.4,1.4c-0.6,0.8-0.8,1.8-1,2.8c0,0.4-0.2,1,0.1,1.3c0.3,0.3,0.8,0.1,0.8-0.3
					c-0.1-1.3,0.4-2.9,1-3.5c0.4-0.5,1.4-0.7,2-0.7c0.3,0,0.6,0.1,0.8-0.1C30.9,68.1,30.6,67.3,30,67.5"/>
				<path class="st0" d="M49.6,57.8c-1.1-0.2-2.5-0.3-3.5,0.4c-1,1-1.7,2.2-2.4,3.5c-0.1,0.2,0,0.4,0.1,0.5c0.2,0.2,0.7,0.1,0.8-0.2
					c0.8-1.5,2-3.5,3.1-3.4c0.7-0.1,1.4,0.3,2,0C49.9,58.4,49.9,58,49.6,57.8"/>
				<path class="st0" d="M60.4,50.4c-0.5-0.2-1.1-0.5-1.7-0.4c-1.4,0.2-2.7,0.9-3.8,1.8c-0.1,0.1-0.2,0.3-0.1,0.5
					c0.1,0.3,0.5,0.4,0.7,0.2c1-0.8,2.6-1.7,3.6-1.6c0.1,0,0.5,0.2,0.6,0.2c0.4,0.1,0.7,0.5,1.1,0.3C61.5,51,60.9,50.5,60.4,50.4"/>
				<path class="st0" d="M43.7,78.8c-0.3-0.2-0.6,0-0.9-0.1c-2.6-0.9-2.6-3.1-0.3-5.4c0.2-0.2,0.7-0.4,0.7-0.7
					c0-0.4-0.5-0.7-0.8-0.4c-1.5,1.2-3,3.2-2.4,5.2c0.5,1.4,2.1,2.6,3.6,2.4C44,79.6,44,79,43.7,78.8"/>
				<path class="st0" d="M61,64.3c-1.1-0.1-2,0.4-3,0.8c-0.6,0.3-1.3,0.5-1.7,1.1c-1.2,2-0.8,4.4,1.2,5.6c0.3,0.1,0.6,0.3,1,0.3
					c0.4,0,0.6-0.4,0.4-0.8c-0.2-0.3-0.5-0.3-0.8-0.4c0,0-0.1,0-0.1,0c0,0-0.1,0-0.1-0.1c-1.6-0.9-1.5-3.1-0.8-4.2
					c0.7-0.7,2.7-1.3,3.3-1.4c0.3,0,0.6,0.1,0.8-0.1C61.6,64.8,61.4,64.3,61,64.3"/>
				<path class="st0" d="M77.2,52.2c-1.7-1.6-4.8-1.8-6.3,0.2c-0.5,0.6-0.7,1.4-1.1,2.1c-0.1,0.5-0.5,1.1-0.4,1.6
					c0.2,0.4,0.8,0.3,0.9-0.1c0.7-2.6,1.6-4.2,3.7-4.1c1,0,1.1,0.2,2,0.7c0.3,0.1,0.5,0.4,0.8,0.3C77.2,52.9,77.4,52.5,77.2,52.2"/>
				<path class="st0" d="M90.5,45.7c-0.6-1.1-1.9-2.1-3.2-2.1c-1.1,0.1-2.1,0.4-3.1,0.8c-0.3,0.2-0.7,0.3-0.8,0.6
					c-0.2,0.4,0.3,0.8,0.7,0.6c1.2-0.7,3.5-1.2,4.1-0.8c0.9,0.4,1,0.8,1.6,1.5C90.1,46.5,90.5,46.1,90.5,45.7"/>
				<path class="st0" d="M77.4,78c-1.5-0.2-3.4-0.9-3.8-1.7c-0.4-0.7,0-2.4,0.5-2.9c1.1-1.1,2.6-1.5,4.2-2c0.5-0.3,0.1-1-0.4-0.9
					c-1.9,0.5-4.2,1.2-5.1,3.1c-1.5,3.4,1,5,4,5.5c0.4,0,0.9,0.3,1.3,0C78.7,78.5,78.1,78,77.4,78"/>
				<path class="st0" d="M55.3,82.3c-0.1-0.1-0.8-0.2-0.9-0.2c-0.2,0-0.6-0.2-0.7-0.2c0,0-0.1,0-0.1,0c0,0,0,0,0,0
					c0,0,0-0.1-0.1-0.1c-0.2-0.7-0.1-1.3,0.2-1.9c0.1-0.1,0.2-0.2,0.2-0.3c0.1-0.1,0.1-0.2,0.2-0.3c0.2-0.3,0.5-0.6,0.5-1
					c-0.1-0.5-0.8-0.6-1-0.2c-1.1,1.4-2.3,4.4,0,5.2c0.6,0.1,1.6,0.5,1.9-0.1C55.6,82.8,55.5,82.5,55.3,82.3"/>
				<path class="st0" d="M101.1,53.7c-1.1-0.2-2.1,0-3.2,0.3c-1.1,0.3-2.3,0.8-2.9,1.8c-1,1.4-0.8,3.5,0.7,4.3
					c0.4,0.2,1.2,0.8,1.5,0.1c0.1-0.3,0-0.6-0.3-0.6c-0.1,0-0.4-0.2-0.5-0.2c-1.7-0.9-1.2-3.3,0.8-4.1c1.2-0.5,2.6-1,3.9-0.7
					C101.6,54.7,101.7,53.8,101.1,53.7"/>
				<path class="st0" d="M97.2,77.3c-0.1-0.1-0.6-0.1-0.8-0.2c-1.9-0.4-2.5-2.1-1.9-3.1c0.9-1.3,1.8-2,2.9-3.2
					c0.3-0.5-0.4-1-0.8-0.6c-1.2,1.3-3,2.5-3.3,4.3c-0.3,2.1,1.8,3.9,3.8,3.7C97.4,78.1,97.5,77.5,97.2,77.3"/>
				<path class="st0" d="M112.6,79.4c-0.7-0.4-0.8-0.2-1.4-0.4c-2-0.5-2.8-1.4-2.9-2.7c0,0,0,0,0-0.1c0-0.1,0-0.1,0.1-0.2
					c-0.2,0.1,1.1-1.7,1-1.4c0.3-0.4,1.2-1.1,1.2-1.1c0.2-0.1,0.5-0.2,0.6-0.5c0.2-0.5-0.4-1-0.8-0.7c-1.5,0.7-2.8,2.2-3.2,3.8
					c-0.1,1.2,0.5,2.4,1.4,3.1c1.1,0.7,2.4,1.2,3.7,1.2C112.7,80.3,112.9,79.7,112.6,79.4"/>
				<path class="st0" d="M126.2,80.3c-3.2,0-4.8-1.5-3.6-3c1.1-1,1.1-1,2.3-1.4c0.8-0.1,0.5-1.4-0.2-1.2c-4.9,1.2-5.3,6.1,0,6.8
					c0.6,0,1.3,0.3,1.8-0.1C127,81.1,126.8,80.3,126.2,80.3"/>
			</g>
		</g>
		<g>
			<g>
				<path class="st1" d="M130.4,55.2c0,0,0-0.1,0-0.1C130.4,55.1,130.4,55.1,130.4,55.2C130.4,55.1,130.4,55.1,130.4,55.2"/>
				<path class="st17" d="M120.1,42c-0.8-0.2-2.3,0.4-2.9,0.3c-1.6-0.1-3-0.2-3.6-1c-0.3-0.5-0.5-1.4-0.8-1.9
					c-0.4-0.4-1.3,0.2-1.7,0.3c-1.1,0.4-1.8,0.2-2.9-0.5c-0.4-0.2-0.7-0.6-0.8-0.8c-0.2-0.8-0.2-2.1-0.1-2.8
					c0.1-0.3,0.3-0.5,0.1-0.8c-0.1-0.3-0.6-0.3-0.7,0c-0.3,0.6-0.3,1.3-0.3,2c0,0.8,0,1.6,0.4,2.2c0.6,0.8,1.6,1.3,2.6,1.5
					c1,0.2,1.9-0.1,2.7-0.5c0.2,0.9,0.6,1.9,1.4,2.3c1.6,0.7,3.5,0.8,5.2,0.5C119.5,42.9,120.9,42.8,120.1,42"/>
				<path class="st17" d="M129.3,57.4c-2-0.4-3.7-0.3-3.8-2.1c0,0,0,0,0,0c0,0,0-0.1,0-0.1c0-0.5,0.4-1.2,0-1.6
					c-0.3-0.2-0.8-0.1-1.1-0.2c-0.4,0-1-0.3-1.2-0.8c-0.4-0.8-0.4-1.8-0.4-2.8c-0.1-0.4-0.8-0.4-0.8,0.1c-0.1,1.2,0,2.6,0.7,3.6
					c0.5,0.6,1.3,0.8,2.1,0.9c0,0,0,0,0,0.1c-0.3,1.3,0.1,2.8,1.4,3.3c0.9,0.4,1.9,0.6,2.9,0.7c0.2,0,0.4-0.1,0.5-0.3
					C129.5,57.8,129.5,57.5,129.3,57.4"/>
				<path class="st17" d="M97.1,93.7c-0.2-0.1-0.4,0-0.6,0.2c-0.8,0.6-1,0.8-1.9,1.2c-1.3,0.7-4-0.3-5-1.9c-0.5-1.1-1.6,0.7-2.2,0.8
					c-1.1,0.5-2.7,1.1-3.7,1c-0.8-0.2-1.3-0.8-1.9-1.3c-0.4-0.4-0.9-0.8-1-1.4c-0.2-0.5-0.9-0.1-0.7,0.3c0.2,0.8,0.9,1.3,1.5,1.8
					c0.4,0.3,1,1,1.6,1.2c0.7,0.3,1.5,0.1,2.2-0.1c1.2-0.3,2.4-0.7,3.3-1.5c0.1-0.1,0.2-0.2,0.4-0.3c1.1,1.5,3.1,2.5,5,2.3
					c1.1-0.2,2.1-0.9,3-1.6c0,0,0,0,0,0l0,0c0.1-0.1,0.2-0.1,0.2-0.3C97.5,94,97.4,93.7,97.1,93.7"/>
				<path class="st17" d="M115.6,101.7c-1.4,0.4-3.2,0.9-3.9,0.7c-1.1-0.5-2.3-1.4-2.5-2.7c-0.3-0.6-0.8-0.2-1.1,0.1
					c-0.4,0.4-0.8,0.7-1.1,0.9c-1.1,0.6-3.5,0.8-4.1,0.4c-1.1-0.6-1.8-1.2-2.6-2c-0.4-0.2-0.9,0.3-0.5,0.7c1,1.1,2.4,2.4,4,2.4
					c1.4,0,2.8-0.2,4-0.9c0.3-0.2,0.5-0.4,0.8-0.7c0.1,0.3,0.3,0.6,0.4,0.8c0.8,0.9,1.8,1.9,3.1,2c1.1,0,2.1-0.3,3.1-0.6
					c0.3-0.1,0.7-0.1,0.9-0.4C116.3,102.2,116,101.7,115.6,101.7"/>
				<path class="st17" d="M116.9,94.8c-1.5,0.7-3.1,0.3-4.5-1.2c-0.1-0.1-0.3-0.5-0.6-0.5c-0.2,0-0.8,0.6-1.1,0.8
					c-0.2,0.1-0.5,0.3-0.9,0.3c-0.1,0-0.1,0-0.1,0c-0.1,0-0.2,0-0.3,0c-1-0.3-1.8-0.9-2.5-1.7c0,0-0.2-0.6-0.5-0.7
					c-0.4-0.1-0.7,0.3-0.5,0.6c0.7,1.3,2.1,2.3,3.6,2.6c0.9,0.1,1.7-0.4,2.3-1c1.1,1.3,2.8,2.3,4.6,1.8c0.5-0.1,1.2-0.3,1.5-0.7
					C118,94.6,117.3,94.5,116.9,94.8"/>
				<path class="st17" d="M129.8,100.5c-0.3-0.2-0.6,0-1,0c-0.5,0.1-0.6,0.1-0.7,0c0,0,0,0,0,0c-0.1-0.1-0.1-0.1-0.2-0.2
					c-0.4-0.4-0.9-0.2-1.3,0.1c-0.2,0.1-1.1,0.5-1.2,0.6c-0.7,0.3-1.9-1.1-2.1-2.3c0-0.8-1.2-0.9-1.1,0c0.4,1.5,1.4,3.4,3.1,3.4
					c0.7-0.1,1.4-0.5,2.1-0.8c0,0,0,0,0,0c0.1,0.1,0.2,0.2,0.3,0.2c0.6,0.3,1.3,0.1,2,0C130,101.4,130.1,100.7,129.8,100.5"/>
				<path class="st17" d="M94.3,23.5c-0.5-0.1-0.7,0.5-1,0.8c-0.5,0.8-1.3,1.6-1.7,1.5c-0.8,0-1.7-0.4-2.2-0.8
					c-0.2-0.2-0.4-0.4-0.6-0.5c-0.5,0-0.5,0.6-0.5,0.6c-0.2,0.4-0.8,1.1-1.3,1.3c-0.6,0.3-1.9-0.1-2.6-0.8c-0.1-0.1-0.2-0.6-0.5-0.7
					c-0.3-0.1-0.7,0.3-0.5,0.6c0.6,1.3,2.3,2.1,3.7,1.7c0.8-0.2,1.4-0.9,1.8-1.6c0.9,0.7,2,1.1,3.1,0.9c0.9-0.3,1.5-1.2,2.1-2
					C94.4,24.4,94.9,23.8,94.3,23.5"/>
			</g>
			<g>
				<path class="st17" d="M24.5,86.3c-1.6,0.9-6.5,4.2-6.8,0.4c0-0.2-0.4-0.3-0.5-0.1c-0.8,2.6-3.4,4.8-6.2,4.2
					c-0.2,0-0.2,0.2,0,0.3c1.8,0.4,3.6-0.1,4.9-1.4c0.3-0.3,0.7-0.7,0.9-1.1c0.1-0.2,0.2-0.4,0.4-0.6c0,0,0.1-0.1,0.1-0.1
					c0.1,0.2,0.2,0.5,0.3,0.6c1.7,1.6,6.1-0.1,7.3-1.8C25.1,86.5,24.8,86.1,24.5,86.3z"/>
				<path class="st17" d="M12.2,95.8c-0.5,1.4-2.4,1.2-3.3,0.3c-0.2-0.2-0.4,0-0.4,0.2c0.1,1.2-0.3,4.2-2.1,3.2
					c-0.2-0.1-0.3,0.2-0.2,0.3c1.9,1.3,2.6-1.3,2.8-2.9c1.2,0.8,3.1,0.7,3.7-0.8C12.9,95.7,12.3,95.4,12.2,95.8z"/>
				<path class="st17" d="M37.1,89.4c-1.4,0.9-3.5,1.7-4.6-0.1c-0.1-0.2-0.4-0.1-0.5,0c-0.7,1.2-2.5,2.5-3.8,0.9
					c-0.2-0.2-0.5,0-0.3,0.2c0.5,0.7,1.1,1,2,1c0.5,0,2.6-1.1,2.4-1.4c1.1,1.9,3.8,0.7,5.2-0.1C37.8,89.7,37.5,89.2,37.1,89.4z"/>
			</g>
		</g>
	</g>
</g>
</svg>
