<?xml version="1.0" encoding="utf-8"?>
<!-- Generator: Adobe Illustrator 27.0.0, SVG Export Plug-In . SVG Version: 6.00 Build 0)  -->
<svg version="1.1" xmlns="http://www.w3.org/2000/svg" xmlns:xlink="http://www.w3.org/1999/xlink" x="0px" y="0px"
	 viewBox="0 0 154.9 136.5" style="enable-background:new 0 0 154.9 136.5;" xml:space="preserve">
<style type="text/css">
	.st0{fill:#FFFFFF;}
	.st1{fill:#8CA2CF;}
	.st2{clip-path:url(#SVGID_00000038385932007869876280000006729106328598869930_);}
	.st3{fill:#627EB5;}
	.st4{fill:#8CA05C;}
	.st5{fill:#677724;}
	.st6{fill:#E0A955;}
	.st7{fill:#BBD7FF;}
	.st8{fill:#3C5987;}
	.st9{clip-path:url(#SVGID_00000023964467573347277530000008757748218188031161_);}
	.st10{fill:#669CD3;}
	.st11{clip-path:url(#SVGID_00000023267924726945694350000008206343600823161267_);}
	.st12{fill:#92C4FC;}
	.st13{fill:#FAF4D2;}
	.st14{fill:#FCCB7C;}
	.st15{clip-path:url(#SVGID_00000133492146384192492970000003644681285873395073_);}
	.st16{clip-path:url(#SVGID_00000040549223751814460730000009017813747537842104_);}
	.st17{fill:#C5CAF0;}
	.st18{clip-path:url(#SVGID_00000055675120998925469400000003521384214903338625_);}
	.st19{clip-path:url(#SVGID_00000165942923512985067550000000507151996046997380_);}
	.st20{clip-path:url(#SVGID_00000089550246909688897330000000318296626059779986_);}
	.st21{clip-path:url(#SVGID_00000105418289380140023190000015585240634880184977_);}
	.st22{fill:#F9CC3D;}
	.st23{fill:#FFEAAE;}
	.st24{fill:#FFECB8;}
	.st25{fill:#D3AA37;}
	.st26{fill:#FFE08A;}
	.st27{clip-path:url(#SVGID_00000000207001121434283450000011889708635129584819_);}
	.st28{clip-path:url(#SVGID_00000010285030780820809400000002130264218363552174_);}
	.st29{clip-path:url(#SVGID_00000056401254830831956690000001733561747413679538_);}
	.st30{clip-path:url(#SVGID_00000047761955585677903330000004147458717140517803_);}
	.st31{clip-path:url(#SVGID_00000056413342839149468770000009325692539485027484_);}
	.st32{clip-path:url(#SVGID_00000013184770820878576990000013578153470303993506_);}
	.st33{clip-path:url(#SVGID_00000143591056998115704880000012483006692988161470_);}
	.st34{clip-path:url(#SVGID_00000152952429727175776510000000647958563380461490_);}
	.st35{clip-path:url(#SVGID_00000054263061552758075030000009899956133435752328_);}
	.st36{opacity:0.82;}
	.st37{fill:#BCACAA;}
</style>
<g id="BACKGROUND">
</g>
<g id="OBJECTS">
	<g>
		<g>
			<path class="st8" d="M139.7,68.3c-0.2-2.6-1-5.1-1.6-7.7c-0.5-2.1-0.9-4.2-1.5-6.3c-1-4.1-2.5-8.1-4.3-11.9
				c-1.4-3.7-3.6-7-6.1-9.9c-2.9-3.6-6.2-6.8-9.8-9.6c-2.2-1.5-4.5-2.8-6.7-4.2C90,6.3,63.5-1.9,40.8,22.3c-2.9,3.1-6,6.1-8.9,9.2
				c-2.3,2.7-4.8,5.3-6.8,8.2c-2.1,3.7-4,7.5-6.1,11.2c-1.1,2-2.3,3.9-3.3,6.1c-1.1,2.7-1.9,5.6-2.9,8.4C11.4,69.1,10.6,73,9.9,77
				C9.2,80.8,8.3,84.7,8,88.6c-0.9,6.7-1,13.5-0.5,20.2c0,2.4,0.1,4.8,0.4,7.2c0.1,2.1,0.2,3.5,1.9,6.8c1.9,3.4,4.8,6.1,7.8,8.5
				c2,1.1,1.7,0.9,2.3,1.3c1.8,1,3.8,1.7,5.8,2.3c2,0.7,4,1.4,6.1,1.7c3.3-0.1,6.6-0.8,9.9-1.4c5-1.3,9.9-3.3,14.9-4.9
				c3-0.7,4.9-0.6,9.6-0.9c3.1-0.2,8.3,0.5,8.6,0.6c7.7,1.7,10.9,2.7,18.3,3.1c5.2,0.4,10.7,0.1,15.7-1.7c4-1.5,7.6-3.9,11.1-6.4
				c3.5-3,6.2-7,8.4-11.1c3-5,5.2-10.3,6.9-15.8c1.4-4.5,3-8.9,3.4-13.6c0.4-3.2,1.1-6.4,1.3-9.6C140.2,72.7,139.8,70.5,139.7,68.3"
				/>
			<g>
				<defs>
					<path id="SVGID_00000165214684395345676610000017985324510229849219_" d="M139.7,68.3c-0.2-2.6-1-5.1-1.6-7.7
						c-0.5-2.1-0.9-4.2-1.5-6.3c-1-4.1-2.5-8.1-4.3-11.9c-1.4-3.7-3.6-7-6.1-9.9c-2.9-3.6-6.2-6.8-9.8-9.6c-2.2-1.5-4.5-2.8-6.7-4.2
						C90,6.3,63.5-1.9,40.8,22.3c-2.9,3.1-6,6.1-8.9,9.2c-2.3,2.7-4.8,5.3-6.8,8.2c-2.1,3.7-4,7.5-6.1,11.2c-1.1,2-2.3,3.9-3.3,6.1
						c-1.1,2.7-1.9,5.6-2.9,8.4C11.4,69.1,10.6,73,9.9,77C9.2,80.8,8.3,84.7,8,88.6c-0.9,6.7-1,13.5-0.5,20.2c0,2.4,0.1,4.8,0.4,7.2
						c0.1,2.1,0.2,3.5,1.9,6.8c1.9,3.4,4.8,6.1,7.8,8.5c2,1.1,1.7,0.9,2.3,1.3c1.8,1,3.8,1.7,5.8,2.3c2,0.7,4,1.4,6.1,1.7
						c3.3-0.1,6.6-0.8,9.9-1.4c5-1.3,9.9-3.3,14.9-4.9c3-0.7,4.9-0.6,9.6-0.9c3.1-0.2,8.3,0.5,8.6,0.6c7.7,1.7,10.9,2.7,18.3,3.1
						c5.2,0.4,10.7,0.1,15.7-1.7c4-1.5,7.6-3.9,11.1-6.4c3.5-3,6.2-7,8.4-11.1c3-5,5.2-10.3,6.9-15.8c1.4-4.5,3-8.9,3.4-13.6
						c0.4-3.2,1.1-6.4,1.3-9.6C140.2,72.7,139.8,70.5,139.7,68.3"/>
				</defs>
				<clipPath id="SVGID_00000001665823943549833910000008393383993865527224_">
					<use xlink:href="#SVGID_00000165214684395345676610000017985324510229849219_"  style="overflow:visible;"/>
				</clipPath>
				<g style="clip-path:url(#SVGID_00000001665823943549833910000008393383993865527224_);">
					<path class="st3" d="M136.8,50.4c-0.8-5.7-4.2-10.4-8.8-14.9c-1.9-1.9-3.4-4.1-5.5-5.9c-1.6-1.4-2.8-3-4.3-4.5
						c-1.9-1.8-3.3-2.6-5.2-4.4c-3.3-3.2-7.9-5.5-12.7-7.5c-2.3-0.9-4.8-1.6-7.2-2.4c-2.1-0.3-4.4-0.6-6.6-0.3
						c-0.4,0.1-0.3-0.1-1,0.1c-0.1,0-0.2,0.1-0.2,0.1c-4.8,0.1-9.7,0.6-14,2.2c-4.6,2-7.3,5.6-7.8,9.2c0,0.2,0,0.4-0.1,0.5
						c-1-0.2-2-0.4-3.1-0.4c-8.7,0.2-16.1,2.1-23,6c-2.8,1.9-5.8,3.9-6.2,6.7c-0.6,1.8-0.2,3.5,0.9,5.1c-3.6,0.2-6.9,1.4-10.1,2.6
						c-6.4,2.3-12.7,5.2-16.8,9.3c-2.5,3.3,2,6,6.6,6.3c8.9,0.8,17.9-0.1,26.8-0.8c-2.1,2.3-4.5,5.2-2.2,7.8
						c7.1,7.2,26.6,4.5,35.9,0.2c2.1-0.9,4-1.9,6-2.9c0.3,1.1,1.2,2.1,2.4,3c1.4,1.2,3.3,2.1,5.5,2.3c9.3,1.2,21.4-1.8,28.9-7.1
						c0.1,0.4,0.2,0.9,0.5,1.3c0.8,1.4,2.6,2.6,4.8,2.9c2.4,0.5,4.8,0.2,7.1-0.4c4.2-1,8.4-2.8,10.7-5.5
						C139.9,56.1,137.2,52.4,136.8,50.4"/>
					<g>
						<g>
							<path class="st4" d="M40.2,125.9c-0.7-3.1-2.2-7-3.4-10.6c-0.9-2.6-2.1-5.1-3.5-7.5c-1.2-2.2-2.7-4.4-5.2-5.6
								c-2-0.7-4.5-0.3-6.1,1c-3.8,3.2-4.1,8.1-4.8,12.4c-0.3,3.3,0.7,6.6,0.6,9.9c0.4,3.9,0.7,7.9,1.8,11.6
								c0.1,0.1,0.1,0.1,0.2,0.1c0.2,0.7,1.5,0.6,1.8-0.2c0.1-0.1,0.2-0.3,0.3-0.4c0,0,0,0,0,0c0.1-0.1,0.1-0.1,0.2-0.2
								c0.5-0.3,1.3-0.6,1.8-0.8c0.5-0.1,0.9-0.1,1.9-0.3c0.3,0,0.6-0.1,0.9-0.2c1.1-0.2,2.8-0.8,3.2-0.8c2.4-0.1,4.8-0.5,7.3-0.5
								c1.3,0,2.5,0.2,3.8-0.1c0,0,0,0,0.1,0c0.3-0.1,0.6-0.2,0.7-0.5C42,130.9,40.4,127.8,40.2,125.9 M98.5,128
								c-0.5-1.6-1-4.1-1.3-5.4c-0.2-2.3-0.5-4.6-0.9-6.9c-0.9-2.7-2.1-5.3-3.3-7.9c-1-1.6-2.5-3-4.1-4.2c-1.6-1.3-3.7-2.1-5.9-1.9
								c-2.4,0.1-4.6,1.3-6.3,2.7c-3.5,2.6-5.1,6.4-6.2,10.1c-1.5,4.4-2.7,8.9-4,13.3c-0.1,0.6-0.5,1.3-0.4,2
								c-0.2,0.1-0.3,0.3-0.4,0.5c-0.3,0.6,0.4,1.2,1.1,1c0.1,0,0.4-0.2,0.5-0.3c0.1,0,0.1,0,0.2-0.1c1.7-0.3,4.5-0.2,6.8-0.1
								c3.1,0.3,6.1,0,9.2-0.1c4.6,0.1,9.1,0.2,13.7-0.2c0.7-0.1,1.5-0.4,1.7-1C98.8,129,98.6,128.5,98.5,128"/>
							<path class="st5" d="M66.9,128.6c-0.8-7.6-2.1-14.1-3.9-21.5c-1.1-3.6-2.4-7.2-4.6-10.4c-0.8-1.5-2-2.7-3.7-3.4
								c-2.3-0.8-5.1-0.4-7.2,0.6c-2.4,1.6-3.2,4.3-4.2,6.6c-2.6,8.4-2.5,16.7-2.2,25.9c0.2,2,0.1,4.1,0.3,6.1
								c-0.4,0.4-0.2,1.1,0.4,1.2c0.2,0.1,0.9-0.2,1.2-0.3c1.1-0.3,1.3-0.3,2.6-0.8c0.4-0.1,4.3-0.9,4.6-0.9c2.4-0.4,3.5-0.9,5.9-1
								c2.8,0.2,6.3,0,8.3,0.2C67.1,131.5,67.1,130.7,66.9,128.6"/>
							<path class="st6" d="M33,134.2c-0.3-1.3-0.6-2.3-0.8-3.3c-0.8-3.3-1.9-7.3-2.9-11.1c-0.7-2.1-1.5-4.4-1.7-6.2
								c-0.1-0.7-0.6-1.8-0.6-2.1c-0.1-0.3,0-0.8-0.8-0.8c-0.5,0.1-0.6,0.5-0.5,0.8c0.1,1,0.3,1.2,0.4,2c0.3,1.3,0.3,2.6,0.4,3.8
								c0.5,2.3,1.1,4.8,1.5,6.8c0.5,3.5,0.8,7.1,1.2,10.6c0,0.2,0,0.5,0.2,0.7c0.2,0.2,0.4,0.1,0.6,0c0.1,0,0.2,0.1,0.4,0
								c0.1,0,0.2,0,0.2-0.1c0,0,0.1,0,0.1,0c0.2-0.1,1.1-0.2,0.7-0.2c0.2-0.2,1.2,0.2,1.6-0.4C33.1,134.9,32.9,133.8,33,134.2"/>
							<path class="st6" d="M54.3,129.2c-0.5-4.2-0.4-8.5-0.9-12.8c-0.4-3-1.1-5.9-1.4-8.9c-0.1-0.8-0.2-1.6-0.2-2
								c-0.1-0.3,0.1-0.8-0.3-1c-0.4-0.2-0.9,0-0.9,0.4c-0.3,6.1,0,12.7,0,19.3c0.1,2.4,0.2,4.9,0.5,7.3c0.1,0.2,0.4,0.3,0.7,0.2
								c0.5,0.4,0.7,0,1.4,0.1C55.2,132.1,54.7,131.2,54.3,129.2"/>
							<path class="st6" d="M82.8,110.6c0-0.2,0-0.5,0-0.8c0,0,0-0.1,0-0.1h0c0-0.3-0.2-0.5-0.6-0.5c-0.5,0.1-0.6,0.5-0.6,0.9
								c0,0.1,0,0.1,0,0.2c0,0.1,0,0.3,0,0.4c-0.5,4.5-1.7,10.2-2.4,15.2c-0.1,1.6-0.8,3.3-0.6,4.8c0.1,0.1,0.2,0.2,0.3,0.2
								c0.1,0.2,0.3,0.3,0.5,0.3c0.1,0,0.5,0.1,0.6,0.1c0.8,0.1,1.6,0.1,2.4,0.1c-0.1,0,1.2,0.3,1.3-0.4c0-2.5,0-4.6,0.2-6.8
								C83.7,119.7,83.2,115.1,82.8,110.6"/>
						</g>
						<g>
							<path class="st5" d="M146.7,125.4c-1.6,0.9-4,1.5-6.3,2c-4.4,1.5-9.7,1-14.8,1c-9.1,0.4-17.6-2.4-26.8-4
								c-9.4-2-18.1-2.6-27.5-2.2c-3.4,0.2-6.8,0.3-10.1,1c-1.4,0.2-2.9,0.2-4.3,0.6c-1.5,0.5-3.2,0.7-4.7,1.1
								c-2.1,0.6-4.2,1.6-6.3,2.1c-2.8,0.6-7.4,0.9-11.1,1c-1.9,0.3-2.8,0.6-4.9,0.7c-3.6,0-7.8-0.7-11.7-1.7
								c-1.8-0.5-3.1-1-5.1-1.8c-0.2-0.1-0.4-0.1-0.6,0c-0.1,0-0.2,0.1-0.3,0.2c-0.4,0.1-0.7,0.6-0.5,1c0,0.1,0.1,0.2,0.1,0.2
								c0,0,0,0.1,0.1,0.1c0.4,1,0.6,1.7,1,2.2c2,3.6,5.6,5.9,9,8.1c3,1.8,6.3,3.1,9.6,4.4c1.8,0.8,3.4,1.9,5.3,2.5
								c3,0.6,6.1,0.6,9.1,0.7c2.9,0.1,5.6-0.6,8.4-1.2c3.8-0.6,7.4-2,11.1-2.8c2.1-0.9,4.2-1.6,6.5-2.1c3.7-0.8,6.9-1.6,10.2-2
								c3.9-0.5,7.9,0,11.9,0.1c5.1-0.1,9.6,0.6,15,1.3c6.2,0.8,12.5,1.3,18.8,1.5c3.6,0,7.1-1.2,10-3.1c2.6-1.3,4.9-3,6.6-5.1
								C145.1,130,149.5,125.5,146.7,125.4"/>
							<g>
								<path class="st4" d="M140.7,129.9c-0.4-0.1-0.7,0.1-1.1,0.2c-1.1,0.4-2.3,0.7-3.5,0.9c-2.9,0.8-5.4,1-8.7,1.5
									c-8.5,0.4-16.8,0.7-24.6-1.5c-4.7-1.2-8.3-2.8-13.1-4.2c-3.7-1.1-7.5-1.7-11.3-1.9c-3.8-0.3-7.6,0.4-11.4,0.4
									c-4.3,0.7-8.3,1.6-12.6,3c-2,0.5-3.9,1.1-5.7,2c-2,0.7-3.9,1.4-6,1.9c-2.2,0.6-4.5,0.7-6.8,1c-1.8,0.3-3.6,0.4-5.5,0.3
									c-1.8,0.1-3.6,0-5.3-0.5c-2.3-0.8-4.6-1.8-6.6-3.2c-0.4-0.4-1.1,0.3-0.6,0.7c3.1,2,6.7,3.7,10.6,3.9c2.8,0.1,5.6,0,8.4-0.5
									c2.3-0.2,4.3-0.4,6.5-1.1c3.3-0.7,6.2-2,9.3-3.1c2.9-0.8,6-1.8,8.5-2.2c2.7-0.6,4.7-1.1,7.4-1.2c3.5-0.1,8.2-0.7,11-0.3
									c7.6,0.6,14,3.3,20.9,5.5c6.7,2.3,12.8,2.5,19.9,2.6c5.7-0.1,11.4-0.5,16.9-1.9c1.1-0.2,2.2-0.6,3.4-0.9
									c0.3-0.1,0.6-0.2,0.7-0.5C141.4,130.6,141.2,130,140.7,129.9"/>
								<path class="st4" d="M86.9,130.6c-0.5-0.3-0.3-0.1-0.8-0.2c-3.3-0.6-6-0.6-9.4-0.4c-2.6,0-5.3-0.2-7.9,0.4
									c-3.1,0.7-6.3,1.3-9.3,2.2c-3.3,1.4-6.8,2.5-10.2,3.7c-3.4,1.1-6.7,1.3-10.5,1.8c-0.8,0.2-1.7,0-2.4,0.4
									c-0.3,0.3,0,0.9,0.4,0.9c4.3-0.5,8.8-0.8,13-2.1c2.4-0.9,4.9-1.7,7.4-2.6c1.8-0.8,3.7-1.5,5.7-1.8c4.6-1.2,8.6-2.1,13.4-1.7
									c3.7-0.2,6-0.2,9.4,0.4c0.3,0,0.7,0.2,1,0C87.2,131.4,87.3,130.8,86.9,130.6"/>
								<path class="st4" d="M73.4,134.3c-2.3,0-4.6,0.6-6.9,0.8c-2.5,0.5-5,1.1-7.4,1.8c-3.7,1.3-7.6,2.3-11.1,4
									c-0.8,0.4-2.2,0.8-2.7,1.5c-0.1,0.5,0.5,0.8,0.9,0.6c7.3-3.7,16.6-6.4,25-7.3c0.8-0.2,1.8,0,2.5-0.4
									C73.9,134.9,73.8,134.4,73.4,134.3"/>
								<path class="st4" d="M133.4,135.6c-0.4-0.2-0.8,0.1-1.3,0.1c0,0,0,0-0.1,0c-1.8,0.2-3.6,0.5-5.4,0.5c-2.3,0-4.6,0.3-6.9,0.2
									c-3.7-0.4-8.7-0.7-13-1.7c-4.1-0.7-8.3-1.4-12.5-1.5c-0.3,0-0.6-0.1-0.8,0.2c-0.3,0.3,0,0.9,0.4,0.9
									c7.1,0,14.4,2.2,21.8,2.8c1.4,0.1,3.5,0.4,5.3,0.5c1.8,0,3.7-0.2,5.5-0.2c1.4,0,2.9-0.1,4.3-0.2c0.9,0,1.7-0.1,2.6-0.3
									C133.8,136.6,133.9,135.8,133.4,135.6"/>
							</g>
						</g>
					</g>
				</g>
			</g>
		</g>
		<g>
			<path class="st3" d="M22.2,95.6c-1.5-0.3-2.4,0.1-3.8,0.4c-1.6,0.6-3.4,2.3-4.1,3.3c-1.4,1.5-1.4,3.5-1.6,5.3
				c-0.3,3.7,0.2,7.3,0.7,11c0.2,1.4-0.7,2.7-1.6,3.7c-0.3,0.5-0.8,0.8-1.2,1.2c-0.2,0.3,0.2,0.7,0.5,0.5c1.7-1.2,3.4-3.5,3-5.6
				c-0.4-2.9-0.7-5.8-0.7-8.7c0.1-1.7,0.1-3.5,0.6-5.4c0.6-1.2,1.9-2.8,3.4-3.8c1.2-0.9,3-1.1,3.9-1.1c1.2,0.1,1.7,1,1.9,1.9
				c0.1,1.5,0,2.1-1.1,3.1c-1,1-1.9,1.5-3.2,1.7c-0.3,0-0.5-0.2-0.6-0.5c-0.2-0.8,0.2-0.8,0.1-1.3c-0.5-0.8-1.1,0.1-1.1,0.8
				c0,2.1,1.6,2,3.3,1.3c1.3-0.6,2.5-1.7,3.2-2.8C24.7,98.9,24.4,96.2,22.2,95.6"/>
			<path class="st3" d="M16.2,90.8c-0.2,0-0.4,0.2-0.6,0.3c-2.8,1.3-4.4,3.3-5.5,5.9c-1.8,3.9-1.8,8.2-1,12.3
				c0.2,0.6,0.1,1.3,0.4,1.8c0.2,0.2,0.7,0,0.7-0.3c-0.8-4.4-1.2-9.2,0.5-12.9c1.2-2.8,2.5-4.7,5.2-6.1c0.3-0.2,0.8-0.3,0.9-0.7
				C16.7,91.1,16.5,90.8,16.2,90.8"/>
			<path class="st3" d="M130,82.2c-0.6-0.7-1.5-1.2-2.5-1.5c-0.9,0-1.6,0.6-2.1,1.2c-1.2,1.6-1.6,3.1-1.9,5
				c-0.1,0.8-0.2,1.7,0.3,2.5c1.2,1.3,2.5,1,3.5-0.7c0.3-0.5,0.4-1,0.4-1.5c0-0.2,0.1-0.4,0-0.6c-0.4-0.5-0.9,0-0.9,0.5
				c-0.1,1.5-1.3,2.5-1.7,2.2c-0.4-0.3-0.6-0.2-0.7-0.8c-0.3-1.3,0.6-4.9,1.6-6c0.4-0.7,1.4-1.1,1.3-1.1c0.4,0.1,1.2,0.5,1.7,0.9
				c1.3,1.5,1.6,3.2,1.4,5.1c-0.2,2.6-0.7,5.2-1.4,7.7c-1.6,5-3,10-5.8,14.6c-0.9,1.4-1.7,2.8-2.7,4.2c-0.2,0.4,0.4,0.7,0.6,0.3
				c3.4-4.7,5.8-9.9,7.4-15.3c1.2-3.4,2.3-6.8,2.6-10.3C131.5,86.5,131.4,84.1,130,82.2"/>
			<path class="st3" d="M120.5,91.8c-0.2-0.4-0.8-0.2-0.8,0.2c0.6,3.6,0.8,7.1,0.2,10.5c-0.1,1.1-0.4,3-1,2.5
				c-0.4-0.2-0.4-1-0.3-1.8c0-0.5,0.7-1,1.3-1.5c0.1-0.1,0.1-0.4-0.1-0.5c-0.3-0.3-0.6,0.1-0.8,0.2c-0.5,0.3-0.9,0.8-1.1,1.3
				c-0.2,0.8-0.3,1.8,0.2,2.5c0.8,0.9,2,0.5,2.2-0.6c0.6-2.4,0.8-5.6,0.7-8.1C120.9,95,120.8,93.4,120.5,91.8"/>
			<path class="st3" d="M135,81.8c-0.2-0.8-0.1-1.6-0.5-2.3c-0.3-0.2-0.7,0-0.7,0.3c0.4,2.4,0.8,4.8,0.8,7.2
				c-0.4,2.7-1.1,5.3-1.6,7.9c-0.3,2.1-1.3,4-1.9,5.9c-1.5,5.1-3.4,9.9-6.5,14.5c-0.3,0.5-0.8,1-1,1.5c0,0.3,0.4,0.4,0.6,0.3
				c0.3-0.3,0.5-0.7,0.7-1c3.2-4.7,5.3-9.9,6.9-15.1c0.6-2,1.6-3.9,1.9-6c0.5-2.6,1.3-5.2,1.7-7.8C135.5,85.4,135.2,83.6,135,81.8"
				/>
		</g>
		<g>
			<path class="st7" d="M34.1,88.7c-0.2-0.3-0.8-0.2-0.9,0.2c-0.5,1.5-0.9,2.6-1.5,4c-0.2,0.4,0.3,0.9,0.7,0.6
				c0.3-0.2,1-2.5,1.5-3.8C34.1,89.3,34.4,89,34.1,88.7"/>
			<path class="st7" d="M42.9,85.8c-0.4,1.1-0.9,3-1.2,3.7c-0.1,0.2-0.2,0.4-0.1,0.7c0.1,0.3,0.5,0.4,0.7,0.2
				c0.4-0.5,0.5-1.2,0.7-1.8c0.2-0.9,0.7-1.8,0.8-2.7C43.7,85.3,42.9,85.4,42.9,85.8"/>
			<path class="st7" d="M39.2,97.2c-0.2-0.3-0.8-0.2-0.9,0.2c-0.6,1.8-1,3.3-1.7,4.9c-0.7,0.6,0.3,1.3,0.9,0.4
				c0.6-1.4,1.1-2.9,1.5-4.4C39.1,97.9,39.4,97.5,39.2,97.2"/>
			<path class="st7" d="M53.3,86.2c-0.2-0.3-0.8-0.2-0.8,0.2c-0.3,1.1-0.9,2.1-1,3.2c0.1,0.3,0.6,0.4,0.8,0.2c0.4-0.9,0.6-1.9,1-2.8
				C53.2,86.7,53.4,86.4,53.3,86.2"/>
			<path class="st7" d="M48.4,95.3c-0.5,1.5-1.2,3.2-1.6,4.2c-0.1,0.2,0,0.6,0.3,0.6c0.2,0,0.5-0.1,0.5-0.3c0.6-1.4,1.1-2.8,1.6-4.2
				C49.7,95,48.6,94.6,48.4,95.3"/>
			<path class="st7" d="M61.6,87.3c-0.4,1.2-0.8,2.3-1.2,3.5c-0.1,0.2,0.2,0.5,0.5,0.5c0.3,0,0.4-0.2,0.4-0.4
				c0.4-1.1,0.8-2.3,1.2-3.4C62.6,87,61.7,86.8,61.6,87.3"/>
			<path class="st7" d="M56.9,97.7c-0.7,2.4-2,4.7-2.7,7.3c0.1,0.3,0.7,0.4,0.9,0c0.9-2.4,2.1-4.9,2.8-7.4
				C57.7,97.3,57,97.3,56.9,97.7"/>
			<path class="st7" d="M70.8,88.3c-0.2,0.9-0.5,1.8-0.8,2.7c-0.1,0.2,0.2,0.5,0.5,0.5c0.4-0.1,0.4-0.2,0.4-0.4
				c0.3-0.9,0.7-1.8,0.8-2.8C71.6,87.9,70.9,87.9,70.8,88.3"/>
			<path class="st7" d="M67.7,97.2c-0.2-0.3-0.9-0.2-0.9,0.2c-0.6,1.8-1.5,3.9-2.3,6c0,0.2,0.2,0.4,0.4,0.5c0.8,0.1,0.9-1.4,1.2-1.9
				c0.5-1.4,1.1-2.8,1.6-4.2C67.8,97.5,67.8,97.3,67.7,97.2"/>
			<path class="st7" d="M48.3,104.4c-0.8,1.6-1.4,3.3-2,5c-0.2,0.3,0.2,0.7,0.6,0.6c0.9-1.1,1.5-3.7,2.3-5.2
				C49.5,104.2,48.6,103.9,48.3,104.4"/>
			<path class="st7" d="M40.7,106.1c-0.5,1.3-1,2.6-1.5,4c-0.2,0.4,0.3,0.8,0.7,0.5c0.7-1.3,1.1-2.9,1.7-4.3
				C41.6,105.9,40.9,105.7,40.7,106.1"/>
			<path class="st7" d="M29.6,100.6c-0.5,1.4-1.1,2.9-1.8,4.4c-0.1,0.4-0.8,1.1-0.1,1.3c0.3,0.1,0.5-0.2,0.6-0.4
				c0.8-1.6,1.5-3.3,2.1-5C30.8,100.4,29.9,99.9,29.6,100.6"/>
			<path class="st7" d="M31.6,109.1c-0.8,1.7-1.5,3.5-2.4,5.2c-0.1,0.5-1.1,1.4-0.3,1.7c0.4,0.1,0.5-0.3,0.7-0.5
				c0.8-1.5,1.5-3.1,2.2-4.7c0.2-0.5,0.6-1.1,0.6-1.6C32.4,108.8,31.8,108.8,31.6,109.1"/>
			<path class="st7" d="M50.2,111.8c-0.8,1.6-1.9,3.9-2.4,5.2c-0.1,0.1-0.1,0.3-0.1,0.4c0.5,0.6,1-0.2,1.1-0.6
				c0.7-1.6,1.5-3.2,2.2-4.8C51.1,111.6,50.4,111.4,50.2,111.8"/>
			<path class="st7" d="M60.2,108.1c-0.7,1.9-1.2,3.4-2,5.3c0,0,0,0.1,0,0.1c0,0,0,0,0-0.1c-0.1,0.1-0.1,0.2,0,0.3
				c0.1,0.2,0.4,0.3,0.6,0.3c0.2-0.1,0.3-0.3,0.4-0.4c0.7-1.8,1.4-3.5,2-5.3C61.2,107.7,60.3,107.6,60.2,108.1"/>
			<path class="st7" d="M63.4,113.4C63.4,113.4,63.4,113.4,63.4,113.4"/>
			<path class="st7" d="M80.3,88.1c-0.3,1-0.7,2-1,3c-0.1,0.4,0.4,0.6,0.7,0.4c0.3-0.3,0.3-0.8,0.5-1.2c0.2-0.7,0.6-1.5,0.7-2.2
				C81.2,87.7,80.4,87.7,80.3,88.1"/>
			<path class="st7" d="M74.4,96.8c-0.5,1.7-1.3,4.2-1.8,5.5c-0.2,0.2-0.1,1,0.7,0.7c1-1.9,1.4-4,2.1-6
				C75.5,96.5,74.5,96.3,74.4,96.8"/>
			<path class="st7" d="M73.4,109.5c-0.5,1.9-1.3,4.1-1.8,5.6c0,0.1,0,0,0,0c-0.1,0.1-0.1,0.2,0,0.3c0.1,0.3,0.5,0.4,0.7,0.2
				c1-1.8,1.5-4,2-5.9C74.5,109.2,73.5,109,73.4,109.5"/>
			<path class="st7" d="M81.6,106.9c-0.4,1.6-0.8,3.8-1.3,5c-0.2,0.6-0.9,1.6,0.3,1.5c0.2-0.1,0.3-0.2,0.4-0.4c0.8-1.9,1.2-4,1.6-6
				C82.7,106.4,81.7,106.3,81.6,106.9"/>
			<path class="st7" d="M83.7,97.5c-0.2,0.9-0.6,1.9-0.7,2.8c0,0.2,0.2,0.3,0.4,0.3c0.2,0,0.5-0.1,0.5-0.3c0.3-0.9,0.5-1.8,0.8-2.7
				C84.8,97.1,83.8,96.9,83.7,97.5"/>
			<path class="st7" d="M90.2,87.1c-0.2,1.2-0.6,2.4-0.7,3.5c0.1,0.3,0.6,0.4,0.8,0.2c0.4-1.2,0.7-2.5,0.9-3.7
				C91,86.6,90.2,86.6,90.2,87.1"/>
			<path class="st7" d="M100.8,84.6c-0.2-0.3-0.8-0.2-0.8,0.2c-0.4,1.3-0.8,2.6-1.2,3.9c0,0.1,0,0.2,0.1,0.3
				c0.2,0.3,0.8,0.2,0.8-0.2c0.3-1,0.6-2,0.9-2.9C100.6,85.4,101,85,100.8,84.6"/>
			<path class="st7" d="M96.6,97.1c-0.3-0.4-1-0.2-1.1,0.2c-0.1,1.7-0.4,3.3-0.7,4.9c0,0.2-0.1,0.5-0.1,0.7c0.1,0.4,0.6,0.5,0.9,0.3
				c0.6-0.7,0.5-2,0.7-2.8C96.3,99.5,96.8,98.1,96.6,97.1"/>
			<path class="st7" d="M93.8,111c-0.3-0.3-0.9-0.2-1,0.2c-0.1,1-0.2,2-0.4,3c-0.1,0.3-0.1,0.7,0.4,0.8c0.5,0.1,0.7-0.4,0.7-0.7
				c0.1-0.6,0.2-1.2,0.3-1.9C93.8,111.9,94.1,111.4,93.8,111"/>
			<path class="st7" d="M109.2,110.9c-0.3-0.4-0.9-0.2-1,0.2c-0.2,1.7-0.2,3.4-0.5,5.1c0,0.5-0.4,1.4,0.5,1.4c0.2,0,0.4-0.2,0.5-0.4
				c0.3-1.6,0.4-3.2,0.5-4.9C109.1,111.9,109.4,111.4,109.2,110.9"/>
			<path class="st7" d="M105.6,97.6c-0.2-0.3-0.8-0.2-0.8,0.2c-0.1,1-0.2,2.1-0.4,3.1c0,0.2,0,0.3,0.2,0.4c0.7,0.3,0.8-0.5,0.8-0.9
				c0.1-0.6,0.2-1.1,0.2-1.7C105.5,98.3,105.7,97.9,105.6,97.6"/>
			<path class="st7" d="M108.7,85.7c-0.2-0.3-0.8-0.2-0.9,0.2c-0.1,1.5-0.3,3.1-0.6,4.6c-0.1,0.3,0.2,0.5,0.5,0.5
				c0.2,0,0.4-0.2,0.4-0.4c0.2-1.3,0.4-2.5,0.6-3.8C108.7,86.4,108.9,86,108.7,85.7"/>
			<path class="st7" d="M112.1,102.5c-0.2,1.2-0.2,2.4-0.3,3.6c-0.1,0.2,0.1,0.5,0.4,0.5c0.4,0.1,0.7-0.3,0.6-0.6
				c0.1-1,0.1-2.1,0.2-3.1C113.5,102.2,112.5,101.7,112.1,102.5"/>
			<path class="st7" d="M117.9,114.9c-0.3-0.3-0.9,0-0.8,0.4c0,1.2,0,2.5,0.1,3.7c0,0.2,0.2,0.3,0.3,0.4c0.3,0.1,0.7-0.2,0.6-0.5
				c0-0.8,0-1.7,0-2.5C118,115.9,118.3,115.3,117.9,114.9"/>
			<path class="st7" d="M115.2,85.1c-0.2-0.3-0.8-0.2-0.9,0.2c-0.2,2.2-0.3,4.5-0.6,6.7c0.1,0.6-0.7,2,0.3,2.1
				c0.6-0.1,0.4-0.7,0.5-1.1c0.3-1.9,0.4-3.8,0.6-5.7C115.1,86.6,115.4,85.8,115.2,85.1"/>
			<path class="st7" d="M91.7,116.7c-0.4,1.6-0.9,3.8-1.3,5c-0.2,0.4,0.3,0.7,0.7,0.5c0.2-0.1,0.3-0.4,0.3-0.6
				c0.4-1.6,0.8-3.2,1.2-4.8C92.7,116.4,91.8,116.2,91.7,116.7"/>
			<path class="st7" d="M100.7,120c0,1-0.4,2-0.2,2.9c1.3,1,1-2.1,1.2-2.8C101.9,119.6,100.8,119.4,100.7,120"/>
			<path class="st7" d="M111.3,120.3c-0.3-0.4-1-0.2-1.1,0.2c-0.1,1.4-0.2,3.6-0.3,4.2c-0.2,0.4,0,0.9,0.5,0.8
				c0.3,0,0.5-0.3,0.5-0.5c0.2-1.1,0.2-2.2,0.3-3.3C111.3,121.2,111.5,120.7,111.3,120.3"/>
			<path class="st7" d="M82.5,117.3c-0.2,1.1-0.3,2.3-0.6,3.5c-0.1,0.2,0.1,0.5,0.4,0.5c0.5,0.1,0.6-0.3,0.6-0.7
				c0.2-1,0.3-2.1,0.5-3.2C83.6,116.9,82.6,116.7,82.5,117.3"/>
			<path class="st7" d="M32.8,120.5c-0.3,1.2-0.6,2.5-1,3.7c-0.1,0.3,0.2,0.5,0.5,0.5c0.2,0,0.4-0.2,0.4-0.4c0.3-1.2,0.6-2.5,1-3.7
				C33.9,120.1,32.9,119.9,32.8,120.5"/>
			<path class="st7" d="M42.3,115.2c-0.4,1.8-0.7,3.7-1.1,5.5c0,0.3-0.2,0.6-0.1,0.8c0.1,0.3,0.5,0.5,0.8,0.3
				c0.3-0.2,0.2-0.5,0.3-0.8c0.4-1.8,0.7-3.7,1.1-5.5C43.6,114.9,42.5,114.5,42.3,115.2"/>
			<path class="st7" d="M60.8,117.6c-0.3-0.2-0.8-0.1-0.9,0.3c-0.4,1.2-0.9,2.4-1.3,3.6c0,0.2,0,0.4,0.2,0.5
				c0.5,0.3,0.8-0.2,0.8-0.4c0.3-0.9,0.7-2,0.9-2.3C60.7,118.6,61.3,118,60.8,117.6"/>
			<path class="st7" d="M22.9,109.2c-0.3,1.8-0.6,3.7-1,5.5c-0.1,0.3,0.4,0.7,0.7,0.4c0.8-1.8,0.8-3.9,1.2-5.8
				C23.9,108.8,23,108.7,22.9,109.2"/>
			<path class="st7" d="M24.4,121.2c-0.5,1.7-1,3.5-1.5,5.2c-0.1,0.3,0.2,0.7,0.6,0.7c0.3,0,0.5-0.2,0.5-0.4
				c0.5-1.8,1.1-3.5,1.5-5.2C25.7,120.8,24.5,120.6,24.4,121.2"/>
			<path class="st7" d="M71.1,116.1c-0.4,1.7-1,3.3-1.4,5c-0.1,0.4,0.4,0.7,0.8,0.5c0.7-1.4,1.1-3.7,1.6-5.3
				C72.3,115.7,71.3,115.5,71.1,116.1"/>
			<path class="st7" d="M68.3,106.1c-0.5,1.7-0.9,3.4-1.3,5.1c-0.1,0.4,0.4,0.7,0.8,0.5c0.8-1.7,0.9-3.6,1.6-5.4
				C69.5,105.7,68.5,105.5,68.3,106.1"/>
		</g>
		<g>
			<g>
				<g>
					<path class="st3" d="M122,66.6c-0.9-4.6-6.1-7-10.5-8.4c-0.2-0.1-0.3-0.1-0.5-0.2c0,0,0.1,0,0.1-0.1c1.6-1.2,4-2.5,4.1-4.6
						c-0.7-2.7-3-5-5.6-6.5c-2.3-1.2-4.9-1.7-7.5-2c-1.5-0.1-4,0-5.2-0.1c0,0,0,0,0,0c0.1-0.8,0.8-2.2,1-3.5
						c0.5-1.8-0.4-3.4-1.7-4.8c-0.8-0.7-1.4-1.5-2.3-2.1c-1.6-0.9-3.6-1.1-5.5-0.8c-1.4,0.3-2.8,0.8-4.1,1.3
						c1.4-1.9,0.8-4.6-1.2-6.2c-2-1.5-4.5-2.6-7-3.5c-3.3-0.7-7.1,0.4-9.4,2.6c-0.1,0.1-0.2,0.2-0.2,0.3c-2.4-0.2-4.9,0-7.1,0.2
						c-5.3,0.7-9.5,5.4-9.5,10.2c-0.3-0.1-0.6-0.2-1.1-0.4c-5.9-1.9-19.1,2.2-22.3,7.1c-1.1,1.5-2,3.3-1.7,5.1
						c-5-1.3-12.8,1.8-16.7,4.4c-4.2,3-8.1,9.2-6.6,14.1c1.7,4.4,7.3,6.4,12.1,5.7c2.5-0.3,5.1-0.6,7.5-1.2c0.7-0.3,1.4-0.6,2-0.9
						c-1.4,5.3,4.6,8.9,10.2,9c1.8,0,3.5-0.7,5.3-1.2c2.8-0.9,6.7-2.4,8.8-3.6c3.7,12,17.7,9,26,2.7c0.8-0.7,1.7-1.4,2.5-2.1
						c0,0.1,0.1,0.1,0.1,0.2c1.2,1.8,2.7,3.5,4.8,4.3c3.1,1.1,7.2,1.2,9.7,0.2c4.3-1.2,10.1-3.6,9.9-8.4c0,0,0-0.1,0-0.1
						c0.4,0.2,0.8,0.5,1.3,0.7c2.7,1.8,6.3,1.4,9.5,1.3C116.7,74.9,122.8,72.3,122,66.6"/>
					<g>
						<path class="st7" d="M14.4,66.5c-0.5-0.2-1.2,0.1-1.7,0.2c-0.8,0.2-1.3,0.4-1.9,0.4c-0.9,0-2.1-1.1-2.2-1.7
							C8,64,10.2,62,11.2,60.8c0.2-0.3,0.7-0.5,0.8-0.9c0-0.4-0.5-0.6-0.7-0.4c-0.9,0.8-1.7,1.8-2.5,2.8c-0.6,0.8-1.3,1.6-1.2,2.7
							c0.2,1.5,1.5,2.9,3.1,3.1c0.9,0.1,1.8-0.3,2.2-0.4c0.5-0.2,1.2-0.1,1.6-0.4C14.7,67,14.7,66.7,14.4,66.5"/>
						<path class="st7" d="M40,43.9c-1.4,0.2-2.7,0.8-4,1.3c-0.8,0.3-1.7,0.8-2,1.5c-0.4,0.7-0.7,1.5-0.6,2.3
							c0.3,1.3,1.2,2.6,2.7,2.8c0.4,0,0.8,0.1,1.2,0c0.4-0.1,0.5-0.5,0.2-0.8c-0.4-0.3-1-0.1-1.4-0.2c-0.7-0.1-1.4-0.9-1.7-1.7
							c-0.2-0.6,0-0.9,0.4-1.8c0.3-1,3.3-1.9,4.9-2.3c0.3-0.1,0.6,0,0.8-0.3C40.7,44.3,40.4,43.9,40,43.9"/>
						<path class="st7" d="M31.1,62.1c-0.3,0-0.6,0.2-0.9,0.3c-0.1,0-0.1,0-0.2,0.1c-1.5,0.5-3.4,0.3-4.2-0.1
							c-1.3-0.8-2-2.1-1.4-3.4c0.6-1.2,2.2-2.7,3.3-3.4c0.8-0.2,0.7-1.2-0.2-1c-1,0.4-1.8,1.2-2.5,1.9c-1,0.9-1.9,2-1.9,3.4
							c0.2,3.4,3.6,4.4,6.7,3.7c0.6-0.2,1.5-0.2,1.8-0.7C31.7,62.5,31.4,62.1,31.1,62.1"/>
						<path class="st7" d="M38.5,72.9c-0.5,0-0.9,0.4-1.4,0.6c-1.1,0.4-2,0.9-2.5,0.8c-1,0-1.8-0.8-2-1.4c0.2-0.7,1.4-3.3,2.6-4.5
							c0.7-0.5,0.1-1.4-0.6-0.8c-1.2,1.1-1.9,2.6-2.6,4.1c-0.2,0.5-0.6,1.1-0.4,1.6c0.5,1.2,1.7,2.2,3.1,2.1c1,0,2-0.6,2.9-0.9
							c0.5-0.2,1.1-0.3,1.4-0.8C39.2,73.3,38.9,72.9,38.5,72.9"/>
						<path class="st7" d="M64.2,77c-0.2-0.2-0.4-0.2-0.6-0.1c-0.6,0.3-1.2,0.6-1.7,0.9c-1.3,0.8-4.1,1-4.5,0.6
							c-0.3-0.3-0.2-2.5,0.2-3.5c0.5-0.7-0.4-1.4-0.9-0.7c-0.5,1.5-1,3.3-0.2,4.7c0.4,0.5,1.2,0.6,1.9,0.7c1-0.1,2.1-0.2,3.1-0.5
							c0.9-0.4,1.7-0.9,2.6-1.3C64.4,77.7,64.5,77.3,64.2,77"/>
					</g>
				</g>
				<g>
					<path class="st7" d="M52,48c0.2-0.1,0.6-0.1,1-0.1 M154,64.6c-1.9-2.4-4.2-4.8-7.2-6.3c-0.3-0.2-0.6-0.3-0.9-0.4
						c0-0.5,0.6-0.9,1.7-1.8c2.3-1.9,3.2-4.9,2.5-7.7c-1.4-3.1-4.5-5.5-7.5-7.6c-2.4-1.4-5.4-2.1-8.1-2.7c-1.3-0.2-3.6-0.4-4.3-0.5
						c0,0,0,0,0,0c-0.5-0.8,1-3.3,1.2-5.4c0.4-2.5-0.6-5-2.6-6.9c-1.2-0.9-2.8-1.6-4.4-2.1c-1.7-0.6-4.3-0.7-5.6-0.7
						c0,0,0-0.1,0.1-0.4c0.5-1.2,0.8-3.8,0.1-5.6c-0.5-0.9-1.2-1.8-2-2.6c-1.6-1.7-4.2-2.3-6.6-2.7c-1.9-0.2-3.8,0.4-5.3,1.2
						c-1.1,0.7-2.9,1.9-3.2,2.8c-2.3-0.6-4.7-0.9-7.1-0.8c-1.5,0.3-2.7,1.3-3.9,2c-2.8,2-6.9,4.6-5,8.2c0.1,0.1,0.1,0.2,0.2,0.3
						c-0.4,0-0.9,0.1-1.3,0.2c-2.2,0.2-4.3,1.1-6.1,2.2c-2.2,1.2-4.4,2.5-6.2,4.1C70.9,33,70,35.2,71,37.2c0.2,0.4,0.4,0.8,0.7,1.2
						c-0.1,0-0.2,0-0.3,0c-0.2,0-0.3,0-0.5,0.1c-1.4-0.5-2.8-0.8-4.2-1c-1-0.1-3.9-1.3-6.5,1.4c-1.7,1.3-1.9,4.1-2.1,6.1
						c-0.9,0.6-1.8,1.2-2.8,1.7c0,0,0,0,0,0c-0.1,0-0.2,0-0.3-0.1c-2.2-0.4-4.4,0-6.2,1.4c-1.7,1.3-3.4,2.8-4.4,4.7
						c-2,3.2-1.3,4.7,0.6,7.7c1.2,1.9,2.3,2.9,4.1,4.3c0.7,0.8,2,1.7,3.4,2.2c2,1,4,2.1,6.2,2.5c4.2,0.6,8,0.9,12.2,0.1
						c2.7-0.4,5.3,0.1,8.2,1c3.7,1,8.4,2.9,12.5,4.5c3.6,1.1,7.4,1.9,11.1,2.6c2.9,0.4,5.3,0.2,8,0.2c2.5-0.1,4.9-0.6,7.3-1
						c1.6-0.3,2.6-0.7,4-0.6c2.4,0.1,4.7,0.9,7.1,1.1c3.3,0.4,6.2,0.7,9.7-0.3c1.1-0.4,2.2-0.7,3.3-1.1c0.5-0.1,0.9-0.1,1.4-0.2
						c2.7-0.4,5.5-1,7.8-2.3C154.7,71.7,156,67.8,154,64.6"/>
					<g>
						<path class="st7" d="M64.4,38.5C64.4,38.5,64.4,38.5,64.4,38.5C64.4,38.5,64.4,38.5,64.4,38.5C64.3,38.6,64.1,38.7,64.4,38.5"
							/>
						<path class="st3" d="M55.7,54.9c0.3-0.2,0.8-0.2,1-0.5c0.3-0.3,0-1-0.5-0.9c-2,0.7-6.7,3.1-5.4,5.8c0.4,0.9,1.1,1.4,1.9,1.9
							c0.5,0.3,0.8,0.5,1.6,0.5c0.2,0,0.5,0.3,1,0.1c0.3-0.1,0.4-0.6,0.2-0.9c-0.3-0.3-0.8-0.3-1.2-0.4c-0.9,0-2.6-1.1-2.7-2.2
							C51.6,57.4,53.8,55.9,55.7,54.9"/>
						<path class="st3" d="M74.9,43.7c-2.2-0.6-5.5-0.2-6.8,2.1c-0.8,2,1,3.2,2.5,4c0.6,0.2,0.6,0.6,1.3,0.5
							c0.3-0.1,0.4-0.6,0.2-0.8c-0.2-0.2-0.5-0.3-0.8-0.5c-0.4-0.2-1.4-0.8-2-1.4c-0.1-0.1-0.1-0.1-0.2-0.2c0,0,0,0,0,0c0,0,0,0,0,0
							c-0.5-1.1,0.1-2,1.7-2.6c0.6-0.2,2.7-0.6,3.3-0.3c0.3,0,0.6,0.2,0.9,0.1C75.3,44.3,75.2,43.8,74.9,43.7"/>
						<path class="st3" d="M94.3,31.1c-2.1-0.3-4.6-0.9-6.5,0.5c-1.1,0.8-2.1,2.1-2.6,3.4c-0.3,1.1,0,2.4,0.7,3.3
							c0.8,0.8,1.8,1.3,2.8,1.7c0.3,0.1,0.6,0.2,0.8,0c0.6-0.8-0.6-1-1.1-1.2c-0.4-0.1-1.5-0.9-1.6-1c-1.4-1.7-0.5-3.4,1.1-5
							c1.3-1.3,3.3-1,5.6-0.7c0.3,0,0.7,0.2,1,0C94.9,31.7,94.8,31.2,94.3,31.1"/>
						<path class="st3" d="M108.6,21c-1.2-0.6-2.3-1.3-3.6-1.6c-1-0.2-2.2-0.1-3.2,0.3c-0.5,0.2-1,0.5-1.1,1
							c-0.2,1.8-0.3,4.1,0.7,5.6c0.3,0.4,0.9-0.1,0.7-0.5c-0.8-1.3-0.6-4.6-0.4-5c0.6-0.5,2.5-0.7,3.4-0.4c1.2,0.3,2.2,1.2,3.3,1.6
							C109,22,109.1,21.2,108.6,21"/>
						<path class="st3" d="M117.4,31.7c-2.8-0.3-6.2,0.4-7.8,3.1c-0.7,1.7,0,3.7,1.6,4.5c1.2,0.8,2.6,1.1,3.9,1.6
							c0.3,0.2,0.7,0.2,0.9,0c0.7-1-0.9-1.3-1.5-1.4c-1.4-0.4-2.3-0.7-3.3-1.5c-1.9-1.5-0.7-4,2.3-5c0.9-0.3,2.6-0.5,3.8-0.3
							C117.9,32.7,118,31.7,117.4,31.7"/>
						<path class="st3" d="M98.4,49.1c1.1-0.6,2.2-0.7,3.6-1c0.4-0.2,0.2-1-0.3-0.9c-1.4,0.2-3,0.4-4.1,1.4
							c-2.1,2.5-0.7,4.1,1.7,5.3c1.6,0.5,1.5-1.1,0.4-0.9c-1-0.3-2.3-1.6-2.3-2.1C97.6,50.2,98.2,49.2,98.4,49.1"/>
						<path class="st3" d="M86.7,55.4c-0.2-0.2-0.5-0.1-0.7-0.1c-2.4-0.3-3.4-1.7-2.3-3.2c1.1-1.1,2.2-1.5,3.7-2.2
							c0.3-0.3-0.1-0.9-0.5-0.7c-1.5,0.7-3.4,1.4-4.2,3c-1,2.3,0.8,3.8,2.9,4.1c0.4,0.1,0.9,0.2,1.2,0C86.9,56,86.9,55.6,86.7,55.4"
							/>
						<path class="st3" d="M74.1,63.9c-0.2-0.2-0.5-0.2-0.7-0.2c-0.1,0-0.2,0-0.3-0.1c-4-1.1-3.1-3.3,0-5.8c0.5-0.5,0.8-0.4,1.3-1.1
							c0.2-0.4-0.3-0.9-0.7-0.6c-1.6,1.1-3.7,2.7-4.3,4.7c-0.5,2.3,1.9,3.7,3.8,4C73.9,65,74.5,64.5,74.1,63.9"/>
						<path class="st3" d="M101.3,60.9c-2.6,0.5-8,2.3-8,5.6c0.4,2.2,2.8,3.2,4.7,3.3c0.5,0,1,0.1,1.4-0.1c0.3-0.2,0.2-0.6,0-0.8
							c-0.4-0.2-0.8,0-1.3-0.1c-1.8,0-3.7-1.1-3.9-2.5c-0.1-0.5,0.6-1.4,1.6-2.1c1.3-1,3.5-1.9,5.2-2.2c0.2-0.1,0.5-0.1,0.7-0.3
							C102,61.4,101.7,60.8,101.3,60.9"/>
						<path class="st3" d="M117.7,56.1c-0.6-0.2-0.6,0-1.1-0.1c-3.2,0.1-4.2-1.9-2-3.9c1.1-1.1,2.2-2.2,3.4-2.9
							c0.5-0.3,0.2-1.1-0.4-0.9c-1.3,0.7-2.3,1.7-3.4,2.7c-0.8,0.8-1.6,1.6-1.7,2.7c-0.2,2.4,2.4,3.3,4.3,3.2c0.5,0,0.5,0.1,0.9-0.1
							C118,56.8,118,56.3,117.7,56.1"/>
						<path class="st3" d="M140.3,50.4c-0.6-0.3-0.6,0-1.3,0.1c-2,0.3-4.2,0.7-5.5-0.6c-0.3-0.3-0.7-0.9-0.3-1.6
							c0.6-1.3,1.8-2.5,3.2-3.7c0.5-0.4-0.1-1.1-0.6-0.7c-6.6,5.1-3.5,9.1,3.7,7.7c0.3-0.1,0.7-0.1,1-0.4
							C140.6,50.9,140.6,50.5,140.3,50.4"/>
						<path class="st3" d="M141.7,64.8c-0.6-0.3-1.3,0.1-2,0.2c-0.9,0.3-2.3,0.8-3,0.8c-0.9-0.1-1.6-0.7-1.8-1.7
							c0.1-1.1,0.4-3,1.2-4.5c0.2-0.6-0.7-0.9-0.9-0.3c-0.8,1.5-1.2,3.3-1.3,5c0.1,1.3,1,2.4,2.3,2.7c1.5,0.3,2.9-0.6,4.4-0.9
							c0.3-0.1,0.7-0.1,1-0.2C142,65.6,142,65,141.7,64.8"/>
						<path class="st3" d="M119.2,70.5c-0.5-0.2-0.5,0-1.3,0c-0.7,0-2.4,0.3-2.8,0.2c-0.8-0.3-1.4-0.8-1.5-1.5
							c-0.1-1,0.9-3.2,1.7-4.4c0.4-0.5-0.4-1-0.7-0.5c-0.9,1.6-2,3.4-1.9,5.2c0.1,1,1,1.6,1.8,2c1.3,0.4,3.1-0.2,3.7-0.1
							c0.3,0,0.6,0,0.9-0.1C119.5,71.2,119.5,70.7,119.2,70.5"/>
						<path class="st3" d="M126.1,61c-0.1-0.1-0.6-0.1-0.7-0.1c-0.6-0.2-1.1-0.6-1.2-0.9c-0.1-0.5,0.6-2.8,1.3-3.7
							c0.2-0.3,0.6-0.6,0.6-1c-0.1-0.4-0.6-0.5-0.8-0.2c-1.1,1.3-3.1,4.9-1.2,6.2c0.5,0.4,1.4,0.8,2,0.5
							C126.4,61.5,126.4,61.2,126.1,61"/>
						<path class="st3" d="M133.1,71.9c-1.1,0.7-2,1.3-2.5,0.9c0,0,0,0,0,0c-0.2-0.3,0-1.9,0.1-2.2c0-0.4,0.3-0.7,0.2-1.1
							c-0.1-0.4-0.7-0.3-0.8,0c-0.3,1.2-0.8,2.7-0.2,3.9c0.8,1,2.8,0,3.2-0.4c0.2-0.2,0.5-0.2,0.6-0.5
							C133.9,72.1,133.5,71.8,133.1,71.9"/>
						<path class="st3" d="M150.5,68.8c0-0.3-0.3-0.5-0.6-0.4c-0.4,0.1-0.6,0.6-0.8,0.9c-1.3,2.3-3.6,2.1-5.2,0.5
							c-0.5-0.4-1.1,0.5-0.6,0.8c1.2,1.3,4.4,2.2,5.9,0.1c0.4-0.5,0.7-1,1.1-1.4C150.5,69.2,150.6,69,150.5,68.8"/>
					</g>
				</g>
			</g>
			<g>
				<path class="st7" d="M84.2,8.9c-0.9-0.6-1.9-1.3-3-1.6c0.4-0.4,0.6-0.9,0.7-1.4c0.6-2.9-2.3-4.8-5-5.4c-1.5-0.3-2.3-0.3-4-0.2
					c-2,0-3.8,1.1-5.1,2.5C67.6,3,67.5,3,67.4,3.1c0-0.1-0.1-0.2-0.2-0.3c-0.9-0.7-2.1-0.9-3.2-1c-1.6-0.2-3.3-0.2-4.8,0.4
					c-2,0.8-2.7,2.9-2.4,4.8c0,0-0.1,0-0.1,0c-1.1-0.4-2.3-0.3-3.5-0.3c-1.5,0.1-3,0.1-4.4,0.6c-2.9,0.7-7,2.6-6.6,5.8
					c0,0.2,0.1,0.4,0.1,0.6c-0.2,0-0.5,0-0.7,0c-2.5,0-4.2,0.5-6.5,1.1c-2.7,0.8-5.3,1.9-7,4c-2.5,3.2-2.5,7.3,2.4,8.3
					c3.6,0.6,7.2-0.6,10.3-2.2c0.6-0.3,1-0.6,1.3-1c0.7,1.9,3.1,3.5,5.1,3.7c2.9,0,5.5-2,7.8-3.5c0.2,0.5,0.3,1.1,0.7,1.6
					c0.8,1.1,2.1,2,3.4,2.3c2.7,0.4,5.2-1.3,7-2.9c0.6-0.6,1-1.3,1.2-2.1c1,1.3,2.8,1.8,4.7,1.2c2.8-0.7,6.5-1.8,7.1-4.8
					c0.1-1.1-0.1-2-0.7-2.9c0.4,0,0.9,0,1.3,0c1.7-0.3,3.4-0.9,4.6-2c0.7-0.8,1.3-1.8,1.6-2.9C85.9,10.5,85.2,9.5,84.2,8.9"/>
				<g>
					<path class="st3" d="M34.6,22.3c-0.6,0.2-2.2,0.3-2.2,0.1c-0.7-0.4-0.4-1.3,0.1-1.6c0.9-0.7,1.6-1.3,2.4-1.7
						c0.4-0.3,0-0.9-0.5-0.7c-0.9,0.4-1.6,1-2.3,1.5c-0.4,0.3-0.8,0.7-1,1.2c-0.3,0.8,0.1,1.9,1.1,2.2c0.7,0.2,1.5,0.1,2.2,0
						c0.3-0.1,0.8-0.1,1-0.4C35.6,22.3,35,22.1,34.6,22.3"/>
					<path class="st3" d="M53.3,9.3c-1.3,0.1-2.5,0.5-3.6,0.9c-0.8,0.3-1.6,0.7-2.1,1.5c-0.5,0.6-0.2,1.5,0.5,1.9
						c0.6,0.4,1.4,0.4,2.2,0.4c0.1,0,1.1,0.1,1.6-0.1c0.5-0.3,0.2-1-0.4-0.8c-2.4,0.2-4.6-0.3-2.1-1.8c0.9-0.4,2.7-1,3.9-1.1
						C54,10.1,53.9,9.2,53.3,9.3"/>
					<path class="st3" d="M49.5,22.4c-0.3-0.1-0.6,0.1-0.8,0.1c-0.1,0-0.3,0.1-0.4,0.1c-2,0.5-2.6-0.6-1.9-1.5
						c0.8-0.8,2-1.4,3.2-1.9c0.6-0.2,0.2-1-0.3-0.8c-1.5,0.6-3.4,1.3-4,2.8c-0.6,2.2,1.9,2.8,3.7,2.1c0.2-0.1,0.5-0.1,0.7-0.3
						C49.9,22.9,49.8,22.5,49.5,22.4"/>
					<path class="st3" d="M65.3,20.3c-1.2,0.4-3.5,1.3-3.9,1.5c-0.6,0-0.7,0-1-0.7c-0.1-0.6-0.2-1,0.1-1.5c0.6-1,1.8-2.3,3-3
						c0.5-0.3,0-1-0.5-0.7c-1.2,0.7-2.1,1.7-2.9,2.7c-0.8,0.9-0.9,2.1-0.4,3.2c1,2,3.2,0.2,4.8-0.3c0.5-0.3,1.2-0.2,1.6-0.7
						C66.3,20.3,65.7,20,65.3,20.3"/>
					<path class="st3" d="M67.5,6.8c-1.2-0.4-2.5-0.4-3.7-0.4c-0.9,0-1.8,0.2-2.4,0.8c-1.6,1.6,0.4,3,2.2,3.1c0.5,0,1.1,0.4,1.6,0.2
						c0.5-0.5-0.2-0.8-0.7-0.8c-1.3-0.2-2.3-0.3-2.7-1c-0.2-0.3,0-1,0.9-1.3c1.3-0.3,3.1-0.3,4.8,0.2C67.9,7.7,68.1,6.9,67.5,6.8"/>
					<path class="st3" d="M76.8,11.8c-0.9,0.2-1.6,0.4-2.2,0.1c-1.9-0.7-0.3-1.6,1.3-3.1c0.3-0.3,0.5-0.5,0.9-0.7
						C77,8,77.2,7.9,77.2,7.7c0.1-0.3-0.4-0.6-0.6-0.4c-1.1,0.7-2.1,1.7-3,2.6c-0.4,0.5-0.9,1.1-0.6,1.8c0.7,1.1,2.4,1.4,3.6,1
						C77.2,12.6,77.4,12,76.8,11.8"/>
					<path class="st3" d="M74.5,20.3c-0.7,0.2-0.8,0.3-1.1,0.2c-0.3,0-0.3-0.9,0-1.7c0.1-0.3,0.4-0.5,0.3-0.8
						c-0.1-0.3-0.7-0.4-0.8,0c-1,1.7-0.9,4.3,1.9,3.1C75.3,20.9,75,20.1,74.5,20.3"/>
					<path class="st3" d="M75.9,2.5c-1.1-0.1-2.2,0.1-3.3,0.4C72,3.1,71.3,3.4,71.2,4c-0.2,0.4-0.1,1,0.3,1.3c0.4,0.3,1-0.3,0.7-0.6
						c0,0,0-0.1,0-0.1c0,0,0,0,0-0.1c0-0.1,0-0.2,0.1-0.3c0,0,0-0.1,0-0.1c0.3-0.4,2.3-0.8,3-0.7c0.3,0,0.6,0.1,0.9,0
						C76.4,3.1,76.3,2.6,75.9,2.5"/>
				</g>
			</g>
		</g>
	</g>
</g>
</svg>
