<?xml version="1.0" encoding="utf-8"?>
<!-- Generator: Adobe Illustrator 27.0.0, SVG Export Plug-In . SVG Version: 6.00 Build 0)  -->
<svg version="1.1" xmlns="http://www.w3.org/2000/svg" xmlns:xlink="http://www.w3.org/1999/xlink" x="0px" y="0px"
	 viewBox="0 0 136.3 128.3" style="enable-background:new 0 0 136.3 128.3;" xml:space="preserve">
<style type="text/css">
	.st0{fill:#FFFFFF;}
	.st1{fill:#8CA2CF;}
	.st2{clip-path:url(#SVGID_00000013191346943265220510000000092003140901350549_);}
	.st3{fill:#627EB5;}
	.st4{fill:#8CA05C;}
	.st5{fill:#677724;}
	.st6{fill:#E0A955;}
	.st7{fill:#BBD7FF;}
	.st8{fill:#3C5987;}
	.st9{clip-path:url(#SVGID_00000013182039211365576230000001010466127661628830_);}
	.st10{fill:#669CD3;}
	.st11{clip-path:url(#SVGID_00000163779738181467052830000005229921390057714326_);}
	.st12{fill:#92C4FC;}
	.st13{fill:#FAF4D2;}
	.st14{fill:#FCCB7C;}
	.st15{clip-path:url(#SVGID_00000183208798934694984320000006563337694100848021_);}
	.st16{clip-path:url(#SVGID_00000041981476861046234250000014553237931117796486_);}
	.st17{fill:#C5CAF0;}
	.st18{clip-path:url(#SVGID_00000135661912421716401940000011285609940125958541_);}
	.st19{clip-path:url(#SVGID_00000114040146645562332920000007493233395325253766_);}
	.st20{clip-path:url(#SVGID_00000026140120684399205450000003294072704117544332_);}
	.st21{clip-path:url(#SVGID_00000159432629552594937420000016487315715554918026_);}
	.st22{fill:#F9CC3D;}
	.st23{fill:#FFEAAE;}
	.st24{fill:#FFECB8;}
	.st25{fill:#D3AA37;}
	.st26{fill:#FFE08A;}
	.st27{clip-path:url(#SVGID_00000070109086420747839440000003895884098727663767_);}
	.st28{clip-path:url(#SVGID_00000038391129582790333580000003718308940063351683_);}
	.st29{clip-path:url(#SVGID_00000010287633977315997110000017958353450900856764_);}
	.st30{clip-path:url(#SVGID_00000123421973383604514780000001188691086016233395_);}
	.st31{clip-path:url(#SVGID_00000155837153887914928210000006944914814815869073_);}
	.st32{clip-path:url(#SVGID_00000014609768943983803360000003307044706609468572_);}
	.st33{clip-path:url(#SVGID_00000057846483124047917690000000290814849086214281_);}
	.st34{clip-path:url(#SVGID_00000084510444959533109290000006441286596875199160_);}
	.st35{clip-path:url(#SVGID_00000155863417086733260630000012497141882496976005_);}
	.st36{opacity:0.82;}
	.st37{fill:#BCACAA;}
</style>
<g id="BACKGROUND">
</g>
<g id="OBJECTS">
	<g>
		<path class="st17" d="M26.3,69.8c-0.2-0.5-0.7-0.3-1,0c-0.3,0.2-1,0.7-1.7,0.9c-0.3,0.2-1.4-0.1-2.4-0.5c-0.3-0.1-0.5-0.5-1-0.3
			c-0.4,0.3-0.4,1.1-0.8,1.5c-0.7,1-2.1,2.3-3.4,2.6c-1.2,0.3-2.7,0.1-3.9-0.3c-0.5-0.2-0.8,0.6-0.3,0.8c3.1,1.1,5.7,0.5,7.8-2
			c0.4-0.5,0.8-1,1-1.6c1.4,0.7,2.8,1.2,4.1,0.3c0.4-0.2,0.8-0.5,1.2-0.8C26.2,70.3,26.4,70.1,26.3,69.8"/>
		<path class="st17" d="M19.8,78.1c-0.6-0.3-1.1,0.6-1.6,0.9c-0.8,0.7-2.2,1-3.1,0.7c-0.2,0-0.6-0.2-0.6-0.2
			c-0.2-0.1-0.4-0.3-0.7-0.3c-0.5,0.1-0.6,0.5-1,0.8c-0.5,0.5-0.9,0.6-1.7,0.7c-0.6,0.1-2-0.2-2.4-0.4C8.4,80.2,8.1,80,7.9,80
			c-0.3,0.1-0.4,0.5-0.1,0.7c1.7,1,4.3,1.3,5.7-0.3c0.1-0.1,0.2-0.2,0.3-0.4c0.7,0.5,2.1,0.8,3.1,0.5c1.2-0.2,2.1-1,3-1.7
			C20,78.6,20,78.3,19.8,78.1"/>
		<path class="st1" d="M134.5,75.3c0.1-7.9-0.2-15.8-1.5-23.4c-0.2-3.6-1.3-6.9-2.5-10.3c0-0.1-0.1-0.2-0.1-0.3
			c0.1,0.4,0.1,0.7,0-0.1c-0.1-0.2-0.1-0.3-0.2-0.5c0.1,0.1,0.1,0.3,0.1,0.4c0,0,0,0,0-0.1c-0.9-3.6-2.1-7.2-3.9-10.4
			c-4.1-6.3-7.8-13.3-13.8-18c-5.2-3.6-6.2-3.5-11.5-6.1c-0.7-0.3-4-2.2-7.4-3.4c-6.3-1.5-12.6-3.3-19.2-3C67.3,0.8,59.9,1.8,52.8,4
			c-5.6,1.9-10.8,4.7-16,7.5c-3.2,1.9-5.9,4.5-8.8,6.9c-3.5,2.8-6.8,5.9-9.8,9.2C14.3,32,12.7,38.1,12,43.7c-0.3,2.6,0.4,5.1,1,7.6
			c3.5,14.4-8.6,29.6-9.5,33c-1.3,4.6-1.8,9.5-0.4,15.5c0.5,2,1.3,4,2.3,5.9c1.2,2,2.8,3.8,4.2,5.6c1.5,2.1,3.5,3.8,5.4,5.6
			c0,0,0,0,0,0c1.5,1.6,3.5,2.8,5.4,4c2.1,1.5,4.3,2.4,6.7,3.1c4.9,1.9,8.2,2.4,10.6,3c2.2,0.4,4.6,0.3,6.9,0
			c2.9-0.1,5.8-0.8,8.7-1.3c4.7-0.5,4.3-0.5,9.4-1.4c1.1-0.2,2.1-0.4,3.2-0.7c2.7,0.4,5.4,1,8.1,1.4c1.7,0.4,3.4,0.7,5.2,0.7
			c6.8-0.2,13.8-0.9,20.2-3.5c3.9-1.5,7.4-3.7,10.9-6c4.6-3,9.2-6.5,12.5-11c2.4-2.9,4.1-6.3,5.8-9.6c1.3-2.6,2.7-5.2,3.5-8
			c0.5-2,0.9-4.1,1.4-6.2c0.1-0.5,0.4-1.5,0.5-1.9C134.5,78.1,134.4,76.7,134.5,75.3z"/>
		<path class="st6" d="M46,55.3C46.1,55.2,46,55.3,46,55.3"/>
		<path class="st4" d="M4.8,104.4C4.8,104.4,4.8,104.4,4.8,104.4"/>
		<g>
			<defs>
				<path id="SVGID_00000157266927571572783550000010751943591663662224_" d="M132.3,87.6c0.5-2,0.9-4.1,1.4-6.2
					c0.1-0.5,0.4-1.5,0.5-1.9c0.3-1.4,0.3-2.8,0.4-4.3c0.1-7.9-0.2-15.8-1.5-23.4c-0.2-3.6-1.3-6.9-2.5-10.3c0-0.1-0.1-0.2-0.1-0.3
					c0.1,0.4,0.1,0.7,0-0.1c-0.1-0.2-0.1-0.3-0.2-0.5c0.1,0.1,0.1,0.3,0.1,0.4c0,0,0,0,0-0.1c-0.9-3.6-2.1-7.2-3.9-10.4
					c-4.1-6.3-7.8-13.3-13.8-18c-5.2-3.6-6.2-3.5-11.5-6.1c-0.7-0.3-4-2.2-7.4-3.4c-6.3-1.5-12.6-3.3-19.2-3
					C67.3,0.8,59.9,1.8,52.8,4c-5.6,1.9-10.8,4.7-16,7.5c-3.2,1.9-5.9,4.5-8.8,6.9c-3.5,2.8-6.8,5.9-9.8,9.2
					C14.3,32,12.7,38.1,12,43.7c-0.3,2.6,0.4,5.1,1,7.6c3.5,14.4-8.6,29.6-9.5,33c-1.3,4.6-1.8,9.5-0.4,15.5c0.5,2,1.3,4,2.3,5.9
					c1.2,2,2.8,3.8,4.2,5.6c1.5,2.1,3.5,3.8,5.4,5.6c0,0,0,0,0,0c1.5,1.6,3.5,2.8,5.4,4c2.1,1.5,4.3,2.4,6.7,3.1
					c4.9,1.9,8.2,2.4,10.6,3c2.2,0.4,4.6,0.3,6.9,0c2.9-0.1,5.8-0.8,8.7-1.3c4.7-0.5,4.3-0.5,9.4-1.4c1.1-0.2,2.1-0.4,3.2-0.7
					c2.7,0.4,5.4,1,8.1,1.4c1.7,0.4,3.4,0.7,5.2,0.7c6.8-0.2,13.8-0.9,20.2-3.5c3.9-1.5,7.4-3.7,10.9-6c4.6-3,9.2-6.5,12.5-11
					c2.4-2.9,4.1-6.3,5.8-9.6C130,93,131.4,90.4,132.3,87.6"/>
			</defs>
			<clipPath id="SVGID_00000020368904933279997590000016564268851008941192_">
				<use xlink:href="#SVGID_00000157266927571572783550000010751943591663662224_"  style="overflow:visible;"/>
			</clipPath>
			<g style="clip-path:url(#SVGID_00000020368904933279997590000016564268851008941192_);">
				<path class="st4" d="M130.2,99.6c-2.9,0.5-4.3,0.8-6.6,0.7c-1.5,0.1-4,0.1-6.1-0.3c-5.6-1.2-12.3-3.8-18.2-6.3
					c-4.7-1.6-9.2-4-14-5.4C80,86.6,74.5,86,69.1,84.8c-4.6-1.1-9.2-1.4-13.9-1.5c-0.6-0.1-1.3-0.2-2-0.2c-0.4,0-0.8-0.1-1.2-0.1
					c-0.4,0-0.8-0.1-1.1-0.1c-1.8-0.2-3.5-0.5-5.3-0.3c-1.2,0.1-2.5,0.2-3.7,0.4c-2.2,0.2-4.5,0.5-6.7,0.9c-0.9,0.2-1.9,0.4-2.8,0.6
					c-1.8,0.3-3.5,0.6-5.3,1c-5.7,1.4-12.2,5.8-14,6.9c-0.3,0.2-0.7,0.4-1,0.6c-1.9,1.5-4.2,2.8-6.1,4.5c-0.8,0.5-1.5,0.9-2,1.6
					c-0.9,0.6-1.3,1.8-1.2,2.9c0.4,1.5,0.5,2.3,1.4,3.8c0.4,1.3,1,2.1,1.4,2.7c1,2.3,2.2,3.7,3.7,5.9c0.9,1.6,3.7,4.5,5.7,6.1
					c3.6,2.4,7.4,4,11.6,5.7c3.3,1.2,6.7,1.7,10.1,2.1c1.6,0.2,3.3,0.6,4.9,0.7c1.5,0,2.3-0.2,3.5-0.2c2,0,4,0.2,5.9,0.4
					c2.4,0,4.9,0,7.3-0.1c2.4,0,5.4-1.1,8.3-1.4c3.3-0.5,7-1,9.7-1.1c4.3,0.6,8.6,1.4,13,1.6c4.8,0.3,9.7-0.4,14.3-1.9
					c4.5-1.1,8.9-2.6,12.9-5.1c3.8-2.7,7.1-6.2,9.9-10c1.9-2.7,3.7-5.5,5.1-8.5C132.9,100.4,132.8,98.8,130.2,99.6"/>
				<g>
					<path class="st5" d="M131.6,102.6c-0.6-0.1-1.1,0.2-1.7,0.4c-1.8,0.8-3.8,2.3-5.1,2.5c-4.2,1.7-8.8,1.5-13.3,0.5
						c-3.2-0.8-6.1-2.2-9.1-3.3c-4.7-1.6-8.1-3.3-12.6-5.1c-9.1-2.3-18.5-3.5-27.9-3.8c-9.1,0.4-18.3,1.5-27,4.1
						c-5.3,1.5-10.3,3.8-15.4,5.7c-4,1.7-7.7,4-11.3,6.5c-0.5,0.3-1,0.7-1.5,1c-0.1,0.1-0.2,0.2-0.2,0.3c0,0.4,0.5,0.6,0.8,0.4
						c3.2-2.3,6-4.1,9.4-5.9c3.2-1.6,6.6-2.7,9.8-4.1c8.9-3.6,19.6-5.9,29.1-6.4c6.2-0.7,12.7-0.1,19.3,0.7c5.1,0.9,10,1.5,14.5,2.8
						c1.7,0.5,2.5,1.2,4.2,1.8c1.9,0.7,2.9,1.1,4.7,1.9c3.3,1.2,6.6,2.5,9.8,3.8c6.2,2.1,12.7,2.3,18.2-0.2c2-0.8,3.3-2.1,5.2-2.5
						C132.3,103.6,132.2,102.8,131.6,102.6"/>
					<path class="st5" d="M131.1,105.1c-0.8-0.2-1.4,0.6-2.1,0.9c-0.6,0.4-1.9,0.8-1.9,0.8c-5.7,1.7-10.8,2.6-16.9,1.8
						c-4.1-0.7-8.2-1.6-12.4-3.2c-3.3-1.2-6.7-2-10-3.1c-7.2-2.2-14.8-3.2-22.3-2.8c-6.7,0.3-13.3,1.3-19.7,3
						c-4,1.2-7.9,2.8-11.8,4.3c-2.6,1.1-5,2.5-7.6,3.7c-2,1-4.2,1.7-6.1,3c-2.4,1.7-4.9,3.3-7,5.3c-0.3,0.4,0.4,0.9,0.8,0.6
						c2.6-2.3,5.6-4.4,8.2-5.9c2.7-1.2,5.4-2.4,8-3.7c4.9-2.5,10.2-4.2,15-5.8c8.1-2.3,16.7-3.3,24.7-3.1c9.3,0,16.8,2.7,25.9,5.3
						c3.4,1.4,6.9,2.2,10.5,3.1c6,1.5,11.3,1.2,17.1,0c1.8-0.3,2.7-0.8,4.2-1.2c0.9-0.1,2.4-1.1,3.6-1.8c0.2-0.1,0.3-0.2,0.4-0.4
						C131.7,105.6,131.5,105.2,131.1,105.1"/>
					<path class="st5" d="M128.7,109.4c-0.7-0.1-1.3,0.4-1.9,0.6c-1.2,0.5-2.4,1.1-3.2,1.3c-4.1,1.7-8.6,1.6-13.9,1.3
						c-5.9-0.3-11.2-1.7-16.8-2.9c-4.1-0.9-8.2-2.2-12.4-2.9c-5.9-1.4-12.1-1.5-18.1-1.1c-5.7,0-12.8,2.5-18.5,4.7
						c-2.6,1.2-5.3,2.2-7.9,3.4c-4.7,2.6-9,5.8-12.7,9.6c-0.2,0.3-0.6,0.5-0.7,0.9c0,0.4,0.5,0.7,0.8,0.4c3.7-3.9,8.3-7.3,12.8-9.8
						c3.1-1.4,6.2-2.7,9.3-3.9c3.8-1.3,6.9-2.6,10.8-3.4c4.5-0.9,8.1-1,12.7-0.9c7.1,0,13.6,1.7,20.1,3.5c6.2,1.5,12.5,3,18.4,3.7
						c5.3,0.3,11.3,0.7,15.8-1c1.1-0.3,2.6-0.9,4.1-1.6c0.5-0.4,1.4-0.4,1.7-1C129.2,109.9,129,109.5,128.7,109.4"/>
					<path class="st5" d="M126.2,114c-0.4,0-0.7,0.3-1,0.4c-1.1,0.5-2.1,0.8-3.1,1.1c-2.1,0.7-4,0.7-5.5,0.8c-3,0.2-4.6,0.4-7.7,0.3
						c-2.5-0.2-5,0.1-7.5-0.1c-5.2-0.7-9.8-1.7-14.6-2.8c-8-1.4-16.1-3.7-24.2-2.5c-6.4,1-12.5,3.4-18.2,6.4c-4,2-8.1,4.1-11.4,7.2
						c-0.7,0.8-1.8,1.4-2.3,2.3c0,0.4,0.5,0.7,0.8,0.4c3.8-3.8,7.8-6.3,12.7-8.6c6.9-3.5,14.5-6.5,21.9-6.8
						c9.2,0.1,17.1,2.4,25.6,4.1c4.4,0.8,8.7,2.1,13.2,1.8c4.8,0.1,8.8,0,12.8-0.4c1.5,0,4.4-0.5,6.4-1.3c0.2-0.1,1-0.3,1.2-0.4
						c0.5-0.3,1.2-0.4,1.5-1C127,114.5,126.7,114,126.2,114"/>
				</g>
				<path class="st5" d="M134.4,93.4c-1.4,0.4-1.8,0.3-3.2,0.4c-5.7,1.3-11.1,0.9-17.2,0.9c-3.9-0.4-8.1-1.1-11.3-2
					c-2.4-0.9-4.8-1.8-7.6-2.9c-4-1.6-8.1-2.9-12.2-4.3c-2-0.7-3.3-1.5-5.6-2.2c-6.4-1.6-12.9-2.9-19.4-3.7
					c-3.3-0.4-6.6-1.1-9.9-1.3C45.5,78,42,78.5,40,78.6c-8.6-0.2-17.1,1.9-24.5,6.1c-3.5,2.2-6.8,3.5-9.9,6.2
					c-1.6,1.4-2.9,3.1-4.2,4.7c-0.1,0.1-0.3,0.1-0.3,0.2C1,95.8,0.9,95.9,0.8,96c-0.2,0.5-0.3,1.2-0.4,1.7c0,1.3,0.4,2.6,0.8,3.8
					c0,0.5,0.5,2.1,1.1,3c0.5,1.1,0.9,2.2,2,2.9c0.4,0.3,1.1,0.3,1.3-0.1c0,0,0.1,0,0.1-0.1c0,0,0.1,0,0.1-0.1
					c0.9-1.3,2.4-2.9,3.6-4c2.1-1.6,4.4-2.9,6.9-4.5c6.2-3.8,12.4-5.4,19.6-7.4c5.3-1.5,12.3-3,17.1-3.4c6.5,0,13-0.2,19.4,1.3
					c5.7,1.1,12.4,3,18.5,4.8c2.1,0.7,4.2,1.5,6.3,2.3c2.4,0.8,4.9,1.4,7.3,2.1c3.6,1.5,7.5,2.1,11.3,2.2c1.3,0.1,2.5,0.5,3.7,0.6
					c1.2,0,2.5,0,3.8,0c2.9,0,5.8-0.3,8.5-1.5c1-0.6,2.4-0.7,3.2-1.6c0.3-0.5,0.2-1,0.4-1.5c0.4-0.9,0.7-1.7,0.8-2.7
					C136.1,92.6,135.1,93.4,134.4,93.4"/>
				<g>
					<path class="st6" d="M120,119.8c-1.1-0.1-1.9,0.5-3,0.7c-2,0.6-4.7,1.4-6.5,1.5c-4.5,0.2-7.7,0.6-12.4-0.2
						c-3.5-0.7-8.5-2.8-12.6-4c-6.3-1.7-12.1-2.6-18.8-2.8c-3.2,0.2-6.3,0.8-9.4,1.5c-0.2,0.1-0.4,0.1-0.6,0.2
						c-0.2,0-0.4,0.1-0.6,0.1c-3.9,1.1-8.3,2.5-11.7,4.7c-1.6,0.9-3.9,2.3-5.9,3.9c-1.5,1.1-4.4,3.4-2.4,4c1.4-0.1,1.7,0.2,3.6,0.4
						c2.7,0.1,5.3,0.4,7.9,0.4c1.5,0.2,3.1-0.2,4.1-0.2c1.3,0,2.7,0.1,4,0.2c1.6,0,3.3-0.2,4.9-0.1c4.3,0,8.5,0.3,12.8,0.3
						c6.3,0.5,13.6,1.5,19.2,1.2c2.1,0,4.2,0.1,6.2-0.1c2.1-0.3,4.1-0.9,6.2-1.4c4.1-1.1,7.6-1.7,10.9-4.5
						C117.1,124.9,121.9,120.8,120,119.8"/>
					<g>
						<path class="st14" d="M44.7,125.2c-0.1-0.1-0.4-0.2-0.5-0.1c-1,0.5-2,0.9-3,1.4c-0.3,0.3,0.1,0.9,0.5,0.7c1-0.5,2-0.9,3-1.4
							C44.9,125.6,44.8,125.4,44.7,125.2"/>
						<path class="st14" d="M60.6,118.7c-0.7,0.1-2.8,0.2-4,0.6c-1.7,0.7-3.4,1.4-5,2.3c-0.3,0.3,0.1,0.9,0.5,0.7
							c1.8-0.8,3.9-1.9,5.4-2.3c1.1-0.3,2.3-0.2,3.5-0.5C61.6,119.2,61.2,118.4,60.6,118.7"/>
						<path class="st14" d="M56.9,123.8c-0.3-0.1-0.5,0.1-0.8,0.1c-1.4,0.6-3,1-4.3,1.8c-0.3,0.3,0.1,0.9,0.5,0.7
							c1.5-0.6,3.3-1.4,4.5-1.7C57.3,124.6,57.3,124,56.9,123.8"/>
						<path class="st14" d="M66.6,121.9c-1.2,0.1-2.4,0.2-3.6,0.3c-0.4,0.1-0.8,0-1.1,0.3c-0.3,0.3,0.1,0.9,0.5,0.8
							c1.4-0.2,2.7-0.3,4.1-0.4c0.2,0,0.4-0.1,0.5-0.2C67.4,122.3,67,121.8,66.6,121.9"/>
						<path class="st14" d="M74.6,118.4c-0.2-0.3-0.7-0.3-1-0.4c-1.7-0.3-3.5-0.3-5.3-0.2c-0.5,0.1-0.4,1,0.1,1
							c1.8-0.1,4.2-0.1,5.5,0.3C74.4,119.3,74.9,118.8,74.6,118.4"/>
						<path class="st14" d="M67.5,126.5c-0.3-0.3-0.8-0.1-1.3-0.1c-1.2,0.1-2.4,0.1-3.6,0.4c-0.5,0.3-0.2,1,0.4,0.9
							c1.5-0.2,2.9-0.3,4-0.3C67.5,127.4,67.8,126.8,67.5,126.5"/>
						<path class="st14" d="M79.6,126.7c-0.5-0.3-1.3-0.2-1.9-0.3c-1.2-0.1-2.5-0.3-3.8-0.3c-0.5,0.1-0.4,0.9,0.1,0.9
							c1.7,0.1,3.4,0.3,5.1,0.5C79.6,127.6,79.9,127,79.6,126.7"/>
						<path class="st14" d="M77.3,122.9c-1.1-0.1-2.2-0.1-3.2-0.2c-0.8-0.2-1.1,0.9-0.2,1.1c1.4,0,2.9,0.1,4.3,0.2
							c0.3,0,0.6-0.2,0.6-0.5C78.7,122.8,77.8,123,77.3,122.9"/>
						<path class="st14" d="M87.7,120.4c-1.1-0.2-2.1-0.5-3.2-0.7c-0.5-0.1-1.1-0.4-1.7-0.3c-0.4,0.2-0.4,0.8,0.1,1
							c1.5,0.4,3.1,0.7,4.6,1.1c0.3,0.1,0.6,0,0.7-0.3C88.3,120.7,88.1,120.4,87.7,120.4"/>
						<path class="st14" d="M90.4,124.8c-1-0.2-2.1-0.3-3.1-0.5c-0.5,0-1.1-0.3-1.6,0c-0.4,0.3-0.1,0.9,0.3,0.9
							c1.5,0.2,2.9,0.4,4.4,0.6c0.1,0,0.3,0,0.4-0.1C91.1,125.4,90.9,124.8,90.4,124.8"/>
						<path class="st14" d="M98.1,124.1c0-0.2-0.3-0.4-0.5-0.4c-1.3-0.2-2.6-0.3-3.8-0.6c-0.8-0.1-0.8,1.1-0.1,1.1
							c1.3,0.2,2.6,0.3,3.8,0.5C97.9,124.7,98.2,124.4,98.1,124.1"/>
						<path class="st14" d="M102.5,127.4c-0.3-0.8-1.5-0.2-2.2-0.3c-1.2,0-2.4,0.1-3.6,0.1c-0.2,0-0.4,0.2-0.4,0.4
							c-0.1,0.4,0.3,0.7,0.6,0.6c1.3-0.1,3.3-0.1,5-0.2C102,128.1,102.5,128,102.5,127.4"/>
						<path class="st14" d="M109.9,124.4c-0.1-0.1-0.3-0.2-0.5-0.2c-1.4,0-2.8,0.1-4.1,0.1c-0.8-0.1-0.9,1.1-0.1,1.1
							c0.9,0,1.8-0.1,2.7-0.1c-0.2,0,1.4,0,1.8-0.1C110.1,125.1,110.2,124.6,109.9,124.4"/>
						<path class="st14" d="M117.2,121.7c-1.4,0.8-2.8,1.5-4.3,2.2c-0.4,0.2-0.3,0.7,0.1,0.8c0.6,0.1,1.2-0.5,1.7-0.7
							c1-0.5,2.1-1,3-1.6C118.1,122.1,117.6,121.5,117.2,121.7"/>
					</g>
				</g>
			</g>
		</g>
		<g>
			<g>
				<path class="st1" d="M130.4,41.2c0,0,0-0.1,0-0.1C130.4,41.1,130.4,41.1,130.4,41.2C130.4,41.2,130.4,41.2,130.4,41.2"/>
				<path class="st17" d="M120.1,28c-0.8-0.2-2.3,0.4-2.9,0.3c-1.6-0.1-3-0.2-3.6-1c-0.3-0.5-0.5-1.4-0.8-1.9
					c-0.4-0.4-1.3,0.2-1.7,0.3c-1.1,0.4-1.8,0.2-2.9-0.5c-0.4-0.2-0.7-0.6-0.8-0.8c-0.2-0.8-0.2-2.1-0.1-2.8
					c0.1-0.3,0.3-0.5,0.1-0.8c-0.1-0.3-0.6-0.3-0.7,0c-0.3,0.6-0.3,1.3-0.3,2c0,0.8,0,1.6,0.4,2.2c0.6,0.8,1.6,1.3,2.6,1.5
					c1,0.2,1.9-0.1,2.7-0.5c0.2,0.9,0.6,1.9,1.4,2.3c1.6,0.7,3.5,0.8,5.2,0.5C119.5,29,120.9,28.9,120.1,28"/>
				<path class="st17" d="M129.3,43.4c-2-0.4-3.7-0.3-3.8-2.1c0,0,0,0,0,0c0,0,0-0.1,0-0.1c0-0.5,0.4-1.2,0-1.6
					c-0.3-0.2-0.8-0.1-1.1-0.2c-0.4,0-1-0.3-1.2-0.8c-0.4-0.8-0.4-1.8-0.4-2.8c-0.1-0.4-0.8-0.4-0.8,0.1c-0.1,1.2,0,2.6,0.7,3.6
					c0.5,0.6,1.3,0.8,2.1,0.9c0,0,0,0,0,0.1c-0.3,1.3,0.1,2.8,1.4,3.3c0.9,0.4,1.9,0.6,2.9,0.7c0.2,0,0.4-0.1,0.5-0.3
					C129.5,43.9,129.5,43.6,129.3,43.4"/>
				<path class="st17" d="M97.1,79.7c-0.2-0.1-0.4,0-0.6,0.2c-0.8,0.6-1,0.8-1.9,1.2c-1.3,0.7-4-0.3-5-1.9c-0.5-1.1-1.6,0.7-2.2,0.8
					c-1.1,0.5-2.7,1.1-3.7,1c-0.8-0.2-1.3-0.8-1.9-1.3c-0.4-0.4-0.9-0.8-1-1.4c-0.2-0.5-0.9-0.1-0.7,0.3c0.2,0.8,0.9,1.3,1.5,1.8
					c0.4,0.3,1,1,1.6,1.2c0.7,0.3,1.5,0.1,2.2-0.1c1.2-0.3,2.4-0.7,3.3-1.5c0.1-0.1,0.2-0.2,0.4-0.3c1.1,1.5,3.1,2.5,5,2.3
					c1.1-0.2,2.1-0.9,3-1.6c0,0,0,0,0,0l0,0c0.1-0.1,0.2-0.1,0.2-0.3C97.5,80.1,97.4,79.8,97.1,79.7"/>
				<path class="st17" d="M115.6,87.8c-1.4,0.4-3.2,0.9-3.9,0.7c-1.1-0.5-2.3-1.4-2.5-2.7c-0.3-0.6-0.8-0.2-1.1,0.1
					c-0.4,0.4-0.8,0.7-1.1,0.9c-1.1,0.6-3.5,0.8-4.1,0.4c-1.1-0.6-1.8-1.2-2.6-2c-0.4-0.2-0.9,0.3-0.5,0.7c1,1.1,2.4,2.4,4,2.4
					c1.4,0,2.8-0.2,4-0.9c0.3-0.2,0.5-0.4,0.8-0.7c0.1,0.3,0.3,0.6,0.4,0.8c0.8,0.9,1.8,1.9,3.1,2c1.1,0,2.1-0.3,3.1-0.6
					c0.3-0.1,0.7-0.1,0.9-0.4C116.3,88.2,116,87.7,115.6,87.8"/>
				<path class="st17" d="M116.9,80.9c-1.5,0.7-3.1,0.3-4.5-1.2c-0.1-0.1-0.3-0.5-0.6-0.5c-0.2,0-0.8,0.6-1.1,0.8
					c-0.2,0.1-0.5,0.3-0.9,0.3c-0.1,0-0.1,0-0.1,0c-0.1,0-0.2,0-0.3,0c-1-0.3-1.8-0.9-2.5-1.7c0,0-0.2-0.6-0.5-0.7
					c-0.4-0.1-0.7,0.3-0.5,0.6c0.7,1.3,2.1,2.3,3.6,2.6c0.9,0.1,1.7-0.4,2.3-1c1.1,1.3,2.8,2.3,4.6,1.8c0.5-0.1,1.2-0.3,1.5-0.7
					C118,80.6,117.3,80.5,116.9,80.9"/>
				<path class="st17" d="M129.8,86.5c-0.3-0.2-0.6,0-1,0c-0.5,0.1-0.6,0.1-0.7,0c0,0,0,0,0,0c-0.1-0.1-0.1-0.1-0.2-0.2
					c-0.4-0.4-0.9-0.2-1.3,0.1c-0.2,0.1-1.1,0.5-1.2,0.6c-0.7,0.3-1.9-1.1-2.1-2.3c0-0.8-1.2-0.9-1.1,0c0.4,1.5,1.4,3.4,3.1,3.4
					c0.7-0.1,1.4-0.5,2.1-0.8c0,0,0,0,0,0c0.1,0.1,0.2,0.2,0.3,0.2c0.6,0.3,1.3,0.1,2,0C130,87.4,130.1,86.8,129.8,86.5"/>
				<path class="st17" d="M94.3,9.6c-0.5-0.1-0.7,0.5-1,0.8c-0.5,0.8-1.3,1.6-1.7,1.5c-0.8,0-1.7-0.4-2.2-0.8
					c-0.2-0.2-0.4-0.4-0.6-0.5c-0.5,0-0.5,0.6-0.5,0.6c-0.2,0.4-0.8,1.1-1.3,1.3c-0.6,0.3-1.9-0.1-2.6-0.8c-0.1-0.1-0.2-0.6-0.5-0.7
					c-0.3-0.1-0.7,0.3-0.5,0.6c0.6,1.3,2.3,2.1,3.7,1.7c0.8-0.2,1.4-0.9,1.8-1.6c0.9,0.7,2,1.1,3.1,0.9c0.9-0.3,1.5-1.2,2.1-2
					C94.4,10.4,94.9,9.9,94.3,9.6"/>
			</g>
			<g>
				<path class="st17" d="M24.5,72.4c-1.6,0.9-6.5,4.2-6.8,0.4c0-0.2-0.4-0.3-0.5-0.1c-0.8,2.6-3.4,4.8-6.2,4.2
					c-0.2,0-0.2,0.2,0,0.3c1.8,0.4,3.6-0.1,4.9-1.4c0.3-0.3,0.7-0.7,0.9-1.1c0.1-0.2,0.2-0.4,0.4-0.6c0,0,0.1-0.1,0.1-0.1
					c0.1,0.2,0.2,0.5,0.3,0.6c1.7,1.6,6.1-0.1,7.3-1.8C25.1,72.5,24.8,72.2,24.5,72.4z"/>
				<path class="st17" d="M12.2,81.8c-0.5,1.4-2.4,1.2-3.3,0.3c-0.2-0.2-0.4,0-0.4,0.2c0.1,1.2-0.3,4.2-2.1,3.2
					c-0.2-0.1-0.3,0.2-0.2,0.3c1.9,1.3,2.6-1.3,2.8-2.9c1.2,0.8,3.1,0.7,3.7-0.8C12.9,81.7,12.3,81.5,12.2,81.8z"/>
				<path class="st17" d="M37.1,75.4c-1.4,0.9-3.5,1.7-4.6-0.1c-0.1-0.2-0.4-0.1-0.5,0c-0.7,1.2-2.5,2.5-3.8,0.9
					c-0.2-0.2-0.5,0-0.3,0.2c0.5,0.7,1.1,1,2,1c0.5,0,2.6-1.1,2.4-1.4c1.1,1.9,3.8,0.7,5.2-0.1C37.8,75.7,37.5,75.2,37.1,75.4z"/>
			</g>
		</g>
		<g>
			<path class="st7" d="M77.6,23.2c-0.6-1.2-1.3-2.5-2.3-3.4c0.7-0.4,1.3-1,1.7-1.8c2.6-4,0.6-7.8-2-9.7c-1.5-1-2.5-1.3-4.4-1.9
				c-2.3-0.7-5.1,0.1-7.4,1.6c-0.4,0.3-0.5,0.3-0.7,0.4c0-0.1,0-0.3,0-0.4c-0.5-1.4-1.7-2.1-2.9-2.7c-1.7-0.8-3.6-1.5-5.7-1.2
				c-2.8,0.3-5,3.1-5.9,5.9c0,0-0.1-0.1-0.1-0.1c-1-1.1-2.4-1.4-3.8-1.8c-1.7-0.4-3.5-1-5.3-0.8C35,7,29,8.2,27.3,13.1
				c-0.1,0.3-0.2,0.7-0.3,1c-0.3-0.1-0.5-0.2-0.8-0.3c-2.9-0.9-5.1-0.8-8.1-0.9C14.7,13,10.9,13.6,7.6,16c-5,3.7-7.7,9.5-2.8,12.8
				c3.6,2.2,8.5,1.9,13.1,0.7c0.8-0.2,1.5-0.5,2.2-0.9c-0.5,3,1.1,6.2,3.3,7.2c3.3,1.2,7.5-0.8,11.1-2.1c-0.2,0.8-0.4,1.7-0.3,2.5
				c0.2,1.9,1,3.6,2.3,4.7c2.8,1.6,6.7,0.2,9.8-1.4c1.1-0.6,1.9-1.5,2.8-2.5c0.3,2.3,1.9,3.7,4.5,3.5c3.6,0,8.6-0.1,11.3-4.2
				c0.8-1.5,1.2-3,1.1-4.4c0.5,0.2,1,0.4,1.5,0.5c2.1,0.2,4.4,0,6.5-1.2c1.4-0.9,2.7-2.2,3.7-3.5C78.4,26.2,78.2,24.5,77.6,23.2"/>
			<g>
				<path class="st3" d="M12.6,23.4C11.8,23.6,10,23,10,22.7c-0.5-0.8,0.4-2,1.2-2.3c1.4-0.7,2.7-1.2,3.9-1.5c0.6-0.3,0.6-1.2,0-1.2
					c-1.2,0.2-2.4,0.8-3.6,1.3c-0.7,0.3-1.4,0.6-1.9,1.3c-0.9,1.1-1.1,2.7-0.2,3.5c0.7,0.6,1.6,0.7,2.5,0.8c0.4,0,1,0.1,1.4-0.2
					C13.8,23.8,13.2,23.3,12.6,23.4"/>
				<path class="st3" d="M42.5,11.8c-1.5-0.3-3.1-0.3-4.7-0.1c-1.1,0.1-2.3,0.4-3.3,1.3c-1,0.7-1.3,2.1-0.7,2.9
					c0.5,0.8,1.3,1.2,2.2,1.5c0.2,0,1.2,0.6,1.9,0.5c0.8-0.2,0.8-1.3,0.1-1.3c-2.9-0.7-4.9-2.2-1.1-3.4c1.2-0.2,3.7-0.5,5.2-0.1
					C42.7,13.3,43.2,12,42.5,11.8"/>
				<path class="st3" d="M29.4,29.3c-0.2-0.3-0.7-0.1-1-0.1c-0.1,0-0.4,0-0.5,0c-2.6-0.1-2.6-1.9-1.1-2.9c1.5-0.9,3.2-1.3,4.9-1.5
					c0.7,0,0.9-1.3,0.2-1.3c-2.1,0.3-4.7,0.6-6.5,2.5c-2.2,2.9,0.2,4.7,2.7,4.5c0.3,0,0.7,0,1-0.1C29.5,30.2,29.7,29.5,29.4,29.3"/>
				<path class="st3" d="M48.6,32.3c-1.6,0-4.7,0.5-5.4,0.7c-0.7-0.2-0.8-0.3-0.7-1.4c0.2-0.9,0.4-1.5,1.2-2.2
					c1.4-1.2,3.6-2.6,5.5-3.2c0.7-0.2,0.6-1.4-0.1-1.1c-1.8,0.5-3.5,1.6-5.1,2.7c-1.5,1-2.5,2.7-2.6,4.4c-0.2,3.2,3.5,1.5,5.6,1.4
					c0.7-0.2,1.5,0.1,2.2-0.3C49.7,32.8,49.2,32.1,48.6,32.3"/>
				<path class="st3" d="M60.1,13.8c-1.1-1-2.5-1.5-4-2c-1-0.3-2.1-0.4-3.2,0.2c-2.8,1.7-1.5,4.5,0.4,5.3c0.6,0.2,1,0.9,1.7,0.8
					c0.9-0.5,0.4-1.2-0.2-1.4c-1.3-0.8-2.3-1.4-2.4-2.4c-0.1-0.5,0.7-1.5,1.8-1.5c1.7,0.1,3.7,0.7,5.2,2.1
					C60,15.2,60.7,14.1,60.1,13.8"/>
				<path class="st3" d="M67.3,24.5c-1.2-0.1-2.1,0-2.6-0.6c-1.6-1.8,0.7-2.4,3.5-4c0.5-0.3,0.9-0.5,1.6-0.7
					c0.2-0.1,0.5-0.1,0.7-0.4c0.3-0.4,0-1-0.5-0.8c-1.7,0.6-3.4,1.6-5.1,2.6c-0.8,0.5-1.8,1.3-1.8,2.3c0,1.9,1.7,2.9,3.4,2.8
					C67.2,25.8,67.9,25,67.3,24.5"/>
				<path class="st3" d="M58.9,35.9c-0.9,0-1.1,0.1-1.4-0.1c-0.3-0.1,0.3-1.4,1.2-2.5c0.3-0.3,0.8-0.6,0.8-1.1
					c0.1-0.5-0.5-0.8-0.9-0.4c-2.2,2.1-3.9,5.9,0.1,5.2C59.5,37,59.6,35.8,58.9,35.9"/>
				<path class="st3" d="M72.5,10.8c-1.2-0.6-2.6-0.8-4-0.7c-0.8,0-1.7,0.2-2.3,1c-0.5,0.5-0.8,1.3-0.5,1.9c0.3,0.6,1.3,0,1.2-0.7
					c0-0.1,0-0.1,0-0.1c0,0,0-0.1,0-0.1c0.1-0.1,0.2-0.3,0.3-0.4c0,0,0.1-0.1,0.1-0.1c0.6-0.4,3.1-0.2,3.9,0.1
					c0.3,0.1,0.6,0.4,1,0.3C72.7,11.9,72.9,11.1,72.5,10.8"/>
			</g>
		</g>
		<g>
			<path class="st17" d="M133.5,58.8c-0.5-2.8-2-4.6-3.6-6.3c-3.1-3.3-5.5-5.7-9.1-8.3c-3.5-2.9-8.9-3.8-10.6-6.5
				c-0.1-0.7-0.4-3.2-0.6-4.6c-0.1-2.1-0.4-4.3-1.4-5.9c-0.9-1.6-2.4-2.3-3.9-2.8c-2-0.8-4-1.4-6.1-1.1c-2.3,0-4.3,0.4-4.3-0.5
				c-0.3-0.8-0.3-3.8-1.4-5.5c-2.4-4.2-7.3-8.2-11-3.2c-0.4,0.4-0.9,1.1-1.5,1.9c-1.8-0.7-4.5-1.5-6.8-1.3c-2.7,1.4-6.2,3.8-7.4,6.8
				c-0.6,1.3-1.7,3.7-2.1,4.6c-0.7-0.7-1.7-0.9-2.5-1.2c-1-0.4-2.1-0.9-3.2-0.9c-4.7-0.2-9.3,3.1-12.5,8c-0.6,0.9-1.6,3.3-1.7,3.7
				c0,0,0,0,0,0c-0.1,0-0.2,0-0.3,0c-0.2,0-1.1-0.2-1.4-0.3c-6.1-2.1-12.6,3-17.5,8.3c-4.7,6.5-5.8,16.6-0.3,21.9
				c2.3,2.5,5.3,3.5,8,5c5.6,2.7,11.8,2.6,17.9,2.7c4.6,0.2,10.4,0.6,15.8,0c4.9-0.8,9.8-1,14.1-0.5c4.1,0.4,7.2,0.2,11.3,0.6
				c3.9,0,6.8-0.1,10.6,0.7c4.4,0.7,9.5,2.3,13.2,2.6c6.1,0.3,15.8-1.5,18.3-10.8C134.4,63.5,134,61.1,133.5,58.8"/>
			<g>
				<path class="st0" d="M30.2,50.3c-0.4-0.1-2.7,0.2-3.4,1.7c-0.6,1-0.8,2.1-1,3.3c0,0.5-0.2,1.1,0.1,1.6c0.3,0.4,0.8,0.1,0.8-0.3
					c0-1.5,0.5-3.4,1.1-4.1c0.5-0.6,1.4-0.8,2-0.9c0.3,0,0.6,0.1,0.8-0.1C31.2,51.1,30.8,50.1,30.2,50.3"/>
				<path class="st0" d="M50,38.8c-1.1-0.3-2.5-0.4-3.5,0.5c-1,1.2-1.8,2.6-2.4,4.1c-0.1,0.2,0,0.5,0.1,0.6c0.2,0.3,0.7,0.1,0.8-0.2
					c0.8-1.7,2-4.2,3.1-4c0.7-0.1,1.4,0.3,2-0.1C50.2,39.4,50.2,39,50,38.8"/>
				<path class="st0" d="M60.9,29.9c-0.5-0.3-1.1-0.6-1.7-0.5c-1.4,0.3-2.7,1.1-3.8,2.2c-0.1,0.1-0.2,0.4-0.1,0.6
					c0.1,0.4,0.5,0.5,0.7,0.2c1-1,2.6-2,3.7-1.9c0.1,0,0.5,0.2,0.6,0.2c0.4,0.1,0.7,0.6,1.1,0.3C61.9,30.7,61.4,30.1,60.9,29.9"/>
				<path class="st0" d="M43.8,63.5c-0.3-0.2-0.6,0-0.9-0.1c-2.6-1-2.5-3.7-0.3-6.4c0.2-0.3,0.7-0.4,0.7-0.9c0-0.5-0.5-0.8-0.8-0.4
					c-1.5,1.4-3,3.8-2.5,6.1c0.5,1.7,2.1,3,3.6,2.8C44.1,64.4,44.1,63.7,43.8,63.5"/>
				<path class="st0" d="M61.3,46.2c-1.1-0.1-2,0.5-3,1c-0.6,0.3-1.3,0.7-1.7,1.3c-1.2,2.4-0.8,5.2,1.2,6.6c0.3,0.2,0.6,0.4,1,0.4
					c0.4,0,0.6-0.5,0.5-0.9c-0.1-0.4-0.5-0.4-0.8-0.5c0,0-0.1,0-0.1-0.1c0,0-0.1,0-0.1-0.1c-1.6-1-1.5-3.6-0.8-4.9
					c0.7-0.8,2.7-1.6,3.3-1.7c0.3,0,0.6,0.1,0.8-0.2C61.9,46.8,61.7,46.2,61.3,46.2"/>
				<path class="st0" d="M77.7,31.8c-1.7-1.9-4.7-2-6.3,0.3c-0.5,0.7-0.7,1.7-1.1,2.5c-0.1,0.6-0.5,1.3-0.4,1.9
					c0.2,0.4,0.8,0.4,0.9-0.1c0.8-3.1,1.7-4.9,3.7-4.9c1,0,1.1,0.2,2,0.8c0.3,0.1,0.5,0.4,0.8,0.3C77.6,32.7,77.8,32.2,77.7,31.8"/>
				<path class="st0" d="M91,24c-0.6-1.3-1.9-2.4-3.2-2.4c-1.1,0.1-2.1,0.5-3.1,0.9c-0.3,0.2-0.7,0.3-0.9,0.7
					c-0.2,0.5,0.3,1,0.7,0.7c1.3-0.9,3.5-1.5,4.1-1c0.9,0.5,0.9,0.9,1.6,1.7C90.6,24.9,91.1,24.5,91,24"/>
				<path class="st0" d="M77.6,62.1c-1.5-0.2-3.4-1-3.8-2c-0.4-0.8,0-2.8,0.6-3.4c1.2-1.3,2.6-1.8,4.2-2.4c0.5-0.3,0.2-1.2-0.4-1.1
					c-1.9,0.6-4.2,1.5-5.2,3.6c-1.5,4,0.9,5.9,4,6.4c0.4,0,0.9,0.3,1.3,0C78.8,62.6,78.2,62,77.6,62.1"/>
				<path class="st0" d="M55.4,67.4c-0.1-0.1-0.8-0.2-0.9-0.2c-0.2,0-0.6-0.2-0.7-0.2c0,0-0.1,0-0.1-0.1c0,0,0,0,0,0
					c0-0.1,0-0.1-0.1-0.1c-0.2-0.8,0-1.5,0.3-2.2c0.1-0.1,0.2-0.2,0.2-0.4c0.1-0.1,0.1-0.3,0.2-0.4c0.2-0.4,0.5-0.7,0.5-1.2
					c-0.1-0.6-0.8-0.7-1-0.2c-1.1,1.6-2.3,5.2,0,6.1c0.6,0.1,1.5,0.6,1.9-0.1C55.7,68,55.6,67.6,55.4,67.4"/>
				<path class="st0" d="M101.6,33.3c-1.1-0.3-2.2,0-3.2,0.4c-1.1,0.4-2.3,0.9-3,2.1c-1,1.6-0.9,4.1,0.7,5.1
					c0.4,0.2,1.2,0.9,1.5,0.1c0.1-0.3,0-0.6-0.3-0.7c-0.1,0-0.4-0.2-0.5-0.3c-1.7-1-1.1-3.9,0.8-4.8c1.2-0.6,2.6-1.2,3.9-0.8
					C102.1,34.4,102.1,33.4,101.6,33.3"/>
				<path class="st0" d="M97.3,61c-0.1-0.1-0.6-0.2-0.8-0.2c-1.9-0.4-2.5-2.4-1.9-3.6c0.9-1.5,1.8-2.3,2.9-3.8
					c0.3-0.5-0.4-1.1-0.8-0.7c-1.2,1.6-3,2.9-3.4,5.1c-0.4,2.5,1.7,4.5,3.7,4.3C97.6,61.9,97.7,61.2,97.3,61"/>
				<path class="st0" d="M112.7,63.3c-0.6-0.5-0.8-0.2-1.4-0.5c-2-0.5-2.8-1.6-2.8-3.2c0,0,0,0,0-0.1c0-0.1,0-0.2,0.1-0.2
					c-0.2,0.1,1.1-2,1-1.7c0.3-0.5,1.2-1.3,1.2-1.3c0.2-0.1,0.5-0.2,0.6-0.6c0.2-0.6-0.4-1.1-0.8-0.8c-1.5,0.9-2.8,2.6-3.3,4.5
					c-0.1,1.4,0.4,2.8,1.4,3.7c1.1,0.8,2.4,1.4,3.7,1.4C112.9,64.4,113,63.7,112.7,63.3"/>
				<path class="st0" d="M126.3,64.1c-3.2,0-4.8-1.8-3.5-3.4c1.1-1.1,1.1-1.2,2.4-1.7c0.8-0.2,0.6-1.6-0.2-1.4
					c-4.9,1.5-5.4,7.2-0.1,8c0.6,0,1.3,0.3,1.8-0.1C127.2,65.1,126.9,64.2,126.3,64.1"/>
			</g>
		</g>
	</g>
</g>
</svg>
