<?xml version="1.0" encoding="utf-8"?>
<!-- Generator: Adobe Illustrator 27.0.0, SVG Export Plug-In . SVG Version: 6.00 Build 0)  -->
<svg version="1.1" xmlns="http://www.w3.org/2000/svg" xmlns:xlink="http://www.w3.org/1999/xlink" x="0px" y="0px"
	 viewBox="0 0 154.9 136.5" style="enable-background:new 0 0 154.9 136.5;" xml:space="preserve">
<style type="text/css">
	.st0{fill:#FFFFFF;}
	.st1{fill:#8CA2CF;}
	.st2{clip-path:url(#SVGID_00000075862932566875073860000017575863410636035230_);}
	.st3{fill:#627EB5;}
	.st4{fill:#8CA05C;}
	.st5{fill:#677724;}
	.st6{fill:#E0A955;}
	.st7{fill:#BBD7FF;}
	.st8{fill:#3C5987;}
	.st9{clip-path:url(#SVGID_00000132049516401560672420000018361289309707426218_);}
	.st10{fill:#669CD3;}
	.st11{clip-path:url(#SVGID_00000047741579130957017940000001230321140909556415_);}
	.st12{fill:#92C4FC;}
	.st13{fill:#FAF4D2;}
	.st14{fill:#FCCB7C;}
	.st15{clip-path:url(#SVGID_00000158713817943574829290000011181749655444613760_);}
	.st16{clip-path:url(#SVGID_00000019660006123678476800000011555154225097026731_);}
	.st17{fill:#C5CAF0;}
	.st18{clip-path:url(#SVGID_00000097466348110758496010000000048232459489020050_);}
	.st19{clip-path:url(#SVGID_00000073707580839411430710000011749349551094277271_);}
	.st20{clip-path:url(#SVGID_00000106107723566665890640000002948810439416556707_);}
	.st21{clip-path:url(#SVGID_00000139264606046134834330000009734120356458178719_);}
	.st22{fill:#F9CC3D;}
	.st23{fill:#FFEAAE;}
	.st24{fill:#FFECB8;}
	.st25{fill:#D3AA37;}
	.st26{fill:#FFE08A;}
	.st27{clip-path:url(#SVGID_00000077290725498628203800000016271266630578399142_);}
	.st28{clip-path:url(#SVGID_00000134942323445366327490000009012721870654390680_);}
	.st29{clip-path:url(#SVGID_00000005258537296872177540000011628075402840487614_);}
	.st30{clip-path:url(#SVGID_00000021100870166872003520000012348628435998717590_);}
	.st31{clip-path:url(#SVGID_00000000219252642778635800000002450354865123357328_);}
	.st32{clip-path:url(#SVGID_00000058561395910768332900000011892133250381258929_);}
	.st33{clip-path:url(#SVGID_00000044159803695091556900000009114660227591420328_);}
	.st34{clip-path:url(#SVGID_00000114041330184355826500000010524052596328883334_);}
	.st35{clip-path:url(#SVGID_00000116924560400856192030000012455703274557557433_);}
	.st36{opacity:0.82;}
	.st37{fill:#BCACAA;}
</style>
<g id="BACKGROUND">
</g>
<g id="OBJECTS">
	<g>
		<g>
			<path class="st8" d="M141.4,72.4c-0.2-2.5-0.9-4.9-1.4-7.3c-0.5-2-0.8-4-1.3-6c-0.9-3.9-2.2-7.7-3.8-11.4
				c-1.3-3.5-3.2-6.6-5.4-9.5c-2.6-3.4-5.5-6.5-8.7-9.1c-1.9-1.5-4-2.6-6-4C97.3,13.4,73.7,5.6,53.6,28.6c-2.6,3-5.3,5.8-7.9,8.8
				c-2,2.6-4.2,5-6.1,7.8c-1.9,3.5-3.5,7.2-5.5,10.6c-1,1.9-2.1,3.8-2.9,5.8c-1,2.6-1.7,5.4-2.6,8c-1.2,3.6-1.9,7.3-2.6,11
				c-0.6,3.7-1.4,7.3-1.7,11.1c-0.8,6.4-0.8,12.8-0.4,19.2c0,2.3,0.1,4.6,0.4,6.9c0.1,2,0.2,3.3,1.7,6.5c1.7,3.3,4.3,5.8,6.9,8.1
				c1.8,1.1,1.5,0.8,2.1,1.2c1.6,1,3.4,1.6,5.1,2.2c1.8,0.6,3.6,1.4,5.4,1.6c2.9-0.1,5.9-0.8,8.8-1.3c4.5-1.2,8.8-3.1,13.2-4.6
				c2.7-0.6,4.4-0.5,8.6-0.8c2.8-0.2,7.3,0.5,7.6,0.6c6.8,1.6,9.7,2.6,16.3,3c4.7,0.3,9.5,0.1,14-1.6c3.5-1.4,6.8-3.7,9.8-6.1
				c3.1-2.9,5.5-6.6,7.5-10.6c2.6-4.7,4.6-9.8,6.1-15.1c1.2-4.3,2.7-8.4,3-12.9c0.3-3,0.9-6,1.1-9.1
				C141.8,76.6,141.5,74.5,141.4,72.4"/>
			<g>
				<defs>
					<path id="SVGID_00000159444179457466762710000004148841652427874735_" d="M141.4,72.4c-0.2-2.5-0.9-4.9-1.4-7.3
						c-0.5-2-0.8-4-1.3-6c-0.9-3.9-2.2-7.7-3.8-11.4c-1.3-3.5-3.2-6.6-5.4-9.5c-2.6-3.4-5.5-6.5-8.7-9.1c-1.9-1.5-4-2.6-6-4
						C97.3,13.4,73.7,5.6,53.6,28.6c-2.6,3-5.3,5.8-7.9,8.8c-2,2.6-4.2,5-6.1,7.8c-1.9,3.5-3.5,7.2-5.5,10.6c-1,1.9-2.1,3.8-2.9,5.8
						c-1,2.6-1.7,5.4-2.6,8c-1.2,3.6-1.9,7.3-2.6,11c-0.6,3.7-1.4,7.3-1.7,11.1c-0.8,6.4-0.8,12.8-0.4,19.2c0,2.3,0.1,4.6,0.4,6.9
						c0.1,2,0.2,3.3,1.7,6.5c1.7,3.3,4.3,5.8,6.9,8.1c1.8,1.1,1.5,0.8,2.1,1.2c1.6,1,3.4,1.6,5.1,2.2c1.8,0.6,3.6,1.4,5.4,1.6
						c2.9-0.1,5.9-0.8,8.8-1.3c4.5-1.2,8.8-3.1,13.2-4.6c2.7-0.6,4.4-0.5,8.6-0.8c2.8-0.2,7.3,0.5,7.6,0.6c6.8,1.6,9.7,2.6,16.3,3
						c4.7,0.3,9.5,0.1,14-1.6c3.5-1.4,6.8-3.7,9.8-6.1c3.1-2.9,5.5-6.6,7.5-10.6c2.6-4.7,4.6-9.8,6.1-15.1c1.2-4.3,2.7-8.4,3-12.9
						c0.3-3,0.9-6,1.1-9.1C141.8,76.6,141.5,74.5,141.4,72.4"/>
				</defs>
				<clipPath id="SVGID_00000121267779845800168130000006247729158961021582_">
					<use xlink:href="#SVGID_00000159444179457466762710000004148841652427874735_"  style="overflow:visible;"/>
				</clipPath>
				<g style="clip-path:url(#SVGID_00000121267779845800168130000006247729158961021582_);">
					<path class="st3" d="M138.8,55.4c-0.7-5.5-3.8-9.9-7.8-14.2c-1.7-1.8-3-3.9-4.9-5.6c-1.4-1.4-2.5-2.9-3.9-4.3
						c-1.7-1.7-2.9-2.5-4.7-4.1c-2.9-3-7-5.2-11.2-7.1c-2.1-0.9-4.3-1.6-6.4-2.3c-1.9-0.3-3.9-0.5-5.9-0.3c-0.3,0.1-0.2-0.1-0.9,0.1
						c-0.1,0-0.1,0.1-0.2,0.1c-4.3,0.1-8.7,0.6-12.4,2.1c-4.1,1.9-6.5,5.3-6.9,8.8c0,0.2,0,0.3,0,0.4c-0.9-0.2-1.8-0.4-2.7-0.4
						c-7.8,0.2-14.3,2-20.4,5.7C48,36,45.4,38,45,40.6c-0.5,1.7-0.2,3.3,0.8,4.9c-3.2,0.2-6.2,1.3-9,2.5c-5.7,2.2-11.3,4.9-14.9,8.8
						c-2.2,3.2,1.8,5.7,5.8,6c7.9,0.7,15.9-0.1,23.8-0.7c-1.9,2.2-4,5-1.9,7.4c6.3,6.8,23.6,4.2,31.9,0.2c1.9-0.8,3.6-1.8,5.3-2.8
						c0.3,1.1,1.1,2,2.1,2.8c1.2,1.2,2.9,2,4.9,2.2c8.3,1.1,19-1.7,25.6-6.7c0,0.4,0.2,0.8,0.4,1.2c0.7,1.4,2.3,2.4,4.3,2.8
						c2.1,0.5,4.2,0.2,6.3-0.4c3.8-0.9,7.4-2.7,9.5-5.3C141.6,60.8,139.2,57.2,138.8,55.4"/>
					<g>
						<g>
							<path class="st4" d="M53,127.2c-0.6-2.9-1.9-6.7-3-10.1c-0.8-2.4-1.8-4.8-3.1-7.1c-1-2.1-2.4-4.2-4.6-5.3
								c-1.8-0.7-4-0.3-5.4,1c-3.3,3.1-3.6,7.7-4.2,11.8c-0.3,3.2,0.6,6.3,0.5,9.5c0.4,3.7,0.6,7.5,1.6,11.1c0,0.1,0.1,0.1,0.2,0.1
								c0.2,0.7,1.3,0.6,1.6-0.2c0.1-0.1,0.2-0.3,0.2-0.4c0,0,0,0,0,0c0.1-0.1,0.1-0.1,0.1-0.1c0.4-0.3,1.2-0.6,1.6-0.8
								c0.5-0.1,0.8-0.1,1.7-0.3c0.3,0,0.5-0.1,0.8-0.2c1-0.2,2.5-0.8,2.8-0.8c2.2-0.1,4.3-0.5,6.4-0.4c1.1,0,2.3,0.1,3.4-0.1
								c0,0,0,0,0.1,0c0.3-0.1,0.6-0.2,0.7-0.5C54.6,132,53.2,129,53,127.2 M104.8,129.3c-0.4-1.5-0.9-3.9-1.2-5.2
								c-0.2-2.2-0.4-4.4-0.8-6.5c-0.8-2.5-1.8-5.1-2.9-7.5c-0.8-1.6-2.2-2.8-3.6-4c-1.4-1.2-3.3-2-5.3-1.8
								c-2.2,0.1-4.1,1.2-5.6,2.6c-3.1,2.4-4.5,6.1-5.5,9.6c-1.3,4.2-2.4,8.4-3.5,12.7c-0.1,0.6-0.5,1.3-0.4,1.9
								c-0.2,0.1-0.3,0.3-0.4,0.4c-0.3,0.5,0.4,1.1,1,0.9c0.1,0,0.3-0.2,0.4-0.3c0.1,0,0.1,0,0.1-0.1c1.5-0.3,4-0.2,6.1-0.1
								c2.7,0.2,5.4,0,8.1-0.1c4,0.1,8.1,0.2,12.1-0.2c0.6-0.1,1.4-0.4,1.5-1C105.1,130.1,104.9,129.7,104.8,129.3"/>
							<path class="st5" d="M76.7,129.8c-0.8-7.2-1.8-13.4-3.5-20.5c-1-3.4-2.1-6.8-4.1-9.9c-0.7-1.4-1.8-2.6-3.3-3.2
								c-2-0.8-4.5-0.4-6.4,0.6c-2.1,1.5-2.9,4.1-3.7,6.3c-2.3,8-2.2,15.9-1.9,24.6c0.1,1.9,0.1,3.9,0.3,5.8
								c-0.4,0.4-0.2,1.1,0.4,1.2c0.2,0.1,0.8-0.2,1-0.3c0.9-0.3,1.2-0.3,2.3-0.8c0.3-0.1,3.8-0.9,4.1-0.9c2.1-0.4,3.1-0.9,5.3-1
								c2.5,0.2,5.6,0,7.4,0.2C77,132.6,77,131.8,76.7,129.8"/>
							<path class="st6" d="M46.6,135.1c-0.2-1.2-0.5-2.1-0.7-3.1c-0.7-3.1-1.7-7-2.6-10.6c-0.6-2-1.3-4.1-1.5-5.9
								c-0.1-0.7-0.5-1.8-0.6-2c-0.1-0.3,0-0.8-0.7-0.8c-0.4,0.1-0.5,0.5-0.5,0.8c0.1,0.9,0.2,1.1,0.3,1.9c0.2,1.2,0.2,2.4,0.4,3.7
								c0.5,2.2,0.9,4.6,1.3,6.5c0.4,3.4,0.8,6.7,1,10.1c0,0.2,0,0.5,0.2,0.7c0.2,0.1,0.4,0.1,0.6,0c0.1,0,0.2,0.1,0.3,0
								c0.1,0,0.2,0,0.2-0.1c0,0,0.1,0,0.1,0c0.2-0.1,0.9-0.2,0.7-0.2c0.2-0.2,1.1,0.2,1.5-0.3C46.8,135.8,46.6,134.7,46.6,135.1"/>
							<path class="st6" d="M65.6,130.3c-0.4-4-0.3-8.1-0.8-12.2c-0.3-2.8-1-5.6-1.3-8.5c-0.1-0.7-0.2-1.5-0.2-1.9
								c-0.1-0.3,0.1-0.8-0.3-1c-0.3-0.2-0.8,0-0.8,0.4c-0.3,5.8,0,12.1,0,18.4c0.1,2.3,0.2,4.7,0.4,7c0.1,0.2,0.4,0.3,0.6,0.2
								c0.5,0.3,0.6,0,1.2,0.1C66.4,133.1,65.9,132.2,65.6,130.3"/>
							<path class="st6" d="M90.9,112.7c0-0.2,0-0.5,0-0.7c0,0,0-0.1,0-0.1h0c0-0.2-0.2-0.4-0.5-0.4c-0.5,0.1-0.5,0.4-0.5,0.8
								c0,0.1,0,0.1,0,0.2c0,0.1,0,0.2,0,0.3c-0.4,4.3-1.5,9.8-2.1,14.5c-0.1,1.5-0.7,3.1-0.6,4.6c0.1,0.1,0.1,0.1,0.2,0.2
								c0.1,0.2,0.3,0.3,0.5,0.3c0.1,0,0.5,0.1,0.6,0.1c0.7,0.1,1.4,0.1,2.1,0.1c-0.1,0,1,0.3,1.1-0.4c0-2.4,0-4.3,0.2-6.4
								C91.7,121.3,91.3,117,90.9,112.7"/>
						</g>
						<g>
							<path class="st5" d="M147.6,126.7c-1.4,0.8-3.5,1.4-5.6,1.9c-3.9,1.4-8.6,0.9-13.2,0.9c-8.1,0.4-15.6-2.3-23.8-3.8
								c-8.3-1.9-16.1-2.5-24.4-2.1c-3,0.2-6,0.3-9,0.9c-1.3,0.2-2.6,0.2-3.8,0.6c-1.4,0.4-2.8,0.6-4.2,1c-1.9,0.6-3.7,1.5-5.6,2
								c-2.5,0.6-6.6,0.8-9.8,0.9c-1.7,0.2-2.5,0.5-4.3,0.7c-3.2,0-6.9-0.6-10.4-1.6c-1.6-0.5-2.7-1-4.6-1.7c-0.2-0.1-0.4-0.1-0.6,0
								c-0.1,0-0.2,0.1-0.2,0.1c-0.4,0.1-0.6,0.6-0.5,0.9c0,0.1,0.1,0.2,0.1,0.2c0,0,0,0,0,0.1c0.3,0.9,0.6,1.6,0.8,2.1
								c1.7,3.4,5,5.6,8,7.7c2.7,1.7,5.6,2.9,8.5,4.2c1.6,0.7,3,1.8,4.7,2.4c2.6,0.6,5.4,0.5,8.1,0.7c2.5,0.1,5-0.6,7.5-1.2
								c3.4-0.6,6.6-1.9,9.9-2.7c1.9-0.8,3.7-1.6,5.7-2c3.3-0.8,6.1-1.5,9.1-1.9c3.5-0.4,7,0,10.5,0.1c4.5-0.1,8.6,0.6,13.3,1.2
								c5.5,0.7,11.1,1.3,16.7,1.4c3.2,0,6.3-1.1,8.8-2.9c2.3-1.2,4.3-2.8,5.9-4.9C146.2,131.1,150.1,126.8,147.6,126.7"/>
							<g>
								<path class="st4" d="M142.3,131c-0.3-0.1-0.7,0.1-1,0.2c-1,0.3-2.1,0.6-3.1,0.8c-2.6,0.8-4.8,1-7.7,1.4
									c-7.6,0.4-14.9,0.7-21.9-1.5c-4.2-1.1-7.4-2.7-11.6-3.9c-3.3-1-6.7-1.6-10.1-1.8c-3.4-0.3-6.8,0.4-10.1,0.4
									c-3.8,0.7-7.4,1.5-11.2,2.8c-1.8,0.5-3.5,1.1-5.1,1.9c-1.7,0.7-3.5,1.3-5.3,1.8c-1.9,0.6-4,0.7-6.1,1
									c-1.6,0.3-3.2,0.4-4.8,0.3c-1.6,0.1-3.2,0-4.7-0.5c-2.1-0.7-4.1-1.7-5.9-3c-0.4-0.4-1,0.3-0.6,0.6c2.7,1.9,6,3.6,9.4,3.7
									c2.5,0.1,5,0,7.5-0.4c2.1-0.2,3.9-0.4,5.8-1c2.9-0.7,5.5-1.9,8.2-2.9c2.6-0.8,5.3-1.7,7.5-2.1c2.4-0.6,4.2-1.1,6.6-1.1
									c3.1-0.1,7.3-0.6,9.8-0.2c6.8,0.5,12.4,3.1,18.5,5.3c6,2.2,11.4,2.4,17.7,2.5c5.1-0.1,10.2-0.5,15-1.8c1-0.2,2-0.6,3-0.8
									c0.3-0.1,0.5-0.2,0.7-0.4C143,131.7,142.7,131.1,142.3,131"/>
								<path class="st4" d="M94.6,131.7c-0.4-0.3-0.3-0.1-0.7-0.2c-2.9-0.6-5.3-0.6-8.4-0.4c-2.3,0-4.7-0.2-7,0.3
									c-2.8,0.6-5.6,1.3-8.3,2.1c-2.9,1.3-6,2.4-9,3.5c-3.1,1.1-5.9,1.3-9.3,1.7c-0.7,0.1-1.5,0-2.1,0.3c-0.3,0.3,0,0.9,0.4,0.8
									c3.9-0.4,7.8-0.7,11.5-2c2.2-0.9,4.4-1.6,6.6-2.5c1.6-0.8,3.3-1.4,5.1-1.7c4.1-1.1,7.6-2,11.9-1.6c3.3-0.2,5.3-0.2,8.3,0.4
									c0.3,0,0.6,0.2,0.9,0C94.8,132.4,94.8,131.9,94.6,131.7"/>
								<path class="st4" d="M82.6,135.2c-2,0-4.1,0.5-6.2,0.7c-2.2,0.5-4.4,1.1-6.6,1.7c-3.3,1.2-6.7,2.2-9.9,3.8
									c-0.7,0.4-2,0.7-2.4,1.4c-0.1,0.4,0.4,0.8,0.8,0.5c6.5-3.5,14.8-6.1,22.2-6.9c0.7-0.2,1.6,0,2.2-0.4
									C83,135.8,82.9,135.3,82.6,135.2"/>
								<path class="st4" d="M135.8,136.4c-0.4-0.2-0.7,0.1-1.1,0.1c0,0,0,0-0.1,0c-1.6,0.2-3.2,0.5-4.8,0.5c-2.1,0-4.1,0.3-6.2,0.2
									c-3.3-0.4-7.7-0.7-11.6-1.6c-3.7-0.7-7.4-1.4-11.1-1.4c-0.3,0-0.5-0.1-0.7,0.2c-0.3,0.3,0,0.9,0.4,0.8
									c6.3,0,12.8,2.1,19.4,2.6c1.3,0.1,3.1,0.4,4.7,0.4c1.6,0,3.2-0.2,4.9-0.2c1.3,0,2.5-0.1,3.8-0.2c0.8,0,1.5-0.1,2.3-0.3
									C136.2,137.4,136.3,136.6,135.8,136.4"/>
							</g>
						</g>
					</g>
				</g>
			</g>
		</g>
		<g>
			<path class="st3" d="M37.1,98.4c-1.3-0.3-2.1,0.1-3.4,0.4c-1.4,0.6-3,2.2-3.6,3.1c-1.2,1.4-1.2,3.3-1.4,5.1
				c-0.3,3.5,0.2,7,0.7,10.4c0.1,1.4-0.6,2.5-1.4,3.5c-0.3,0.5-0.7,0.8-1.1,1.1c-0.2,0.2,0.2,0.6,0.4,0.4c1.5-1.1,3-3.4,2.7-5.3
				c-0.4-2.7-0.6-5.5-0.7-8.3c0.1-1.6,0.1-3.3,0.6-5.1c0.6-1.2,1.7-2.6,3.1-3.6c1.1-0.8,2.6-1.1,3.4-1.1c1,0.1,1.5,0.9,1.7,1.8
				c0.1,1.5,0,2-1,3c-0.9,1-1.7,1.4-2.8,1.6c-0.3,0-0.5-0.1-0.5-0.5c-0.2-0.7,0.2-0.7,0.1-1.2c-0.4-0.7-1,0.1-0.9,0.8
				c0,2,1.4,1.9,2.9,1.2c1.1-0.6,2.2-1.6,2.8-2.7C39.3,101.5,39,99,37.1,98.4"/>
			<path class="st3" d="M31.8,93.9c-0.2,0-0.4,0.2-0.6,0.3c-2.5,1.3-3.9,3.2-4.8,5.6c-1.6,3.7-1.6,7.8-0.9,11.7
				c0.1,0.6,0.1,1.2,0.3,1.7c0.2,0.2,0.6,0,0.6-0.3c-0.8-4.1-1.1-8.7,0.4-12.2c1-2.7,2.2-4.5,4.6-5.8c0.3-0.2,0.7-0.3,0.8-0.6
				C32.2,94.1,32,93.8,31.8,93.9"/>
			<path class="st3" d="M132.8,85.6c-0.5-0.7-1.4-1.1-2.2-1.4c-0.8,0-1.4,0.6-1.8,1.2c-1,1.5-1.4,2.9-1.7,4.8
				c-0.1,0.8-0.2,1.7,0.3,2.4c1.1,1.2,2.2,0.9,3.1-0.6c0.2-0.4,0.3-0.9,0.4-1.4c0-0.2,0.1-0.4,0-0.6c-0.4-0.5-0.8,0-0.8,0.5
				c-0.1,1.4-1.2,2.4-1.5,2.1c-0.4-0.3-0.5-0.2-0.6-0.8c-0.3-1.2,0.6-4.6,1.4-5.7c0.4-0.7,1.2-1.1,1.2-1c0.4,0.1,1.1,0.4,1.5,0.8
				c1.2,1.5,1.4,3,1.3,4.9c-0.2,2.5-0.6,4.9-1.3,7.3c-1.5,4.7-2.7,9.5-5.1,13.9c-0.8,1.3-1.5,2.7-2.4,4c-0.2,0.4,0.4,0.7,0.6,0.3
				c3-4.4,5.1-9.4,6.5-14.6c1-3.2,2-6.4,2.3-9.8C134.2,89.7,134.1,87.4,132.8,85.6"/>
			<path class="st3" d="M124.4,94.7c-0.1-0.3-0.7-0.2-0.7,0.2c0.5,3.5,0.7,6.7,0.2,10c-0.1,1.1-0.4,2.8-0.9,2.4
				c-0.4-0.2-0.3-1-0.3-1.7c0-0.5,0.6-1,1.1-1.4c0.1-0.1,0.1-0.3-0.1-0.5c-0.3-0.2-0.5,0.1-0.7,0.2c-0.4,0.3-0.8,0.7-1,1.2
				c-0.1,0.8-0.3,1.7,0.2,2.4c0.7,0.9,1.7,0.4,2-0.6c0.6-2.3,0.7-5.3,0.6-7.7C124.7,97.8,124.6,96.2,124.4,94.7"/>
			<path class="st3" d="M137.3,85.3c-0.2-0.7-0.1-1.5-0.4-2.2c-0.2-0.2-0.6,0-0.6,0.3c0.3,2.3,0.7,4.6,0.7,6.9c-0.3,2.5-1,5-1.5,7.5
				c-0.2,2-1.1,3.8-1.7,5.7c-1.3,4.8-3.1,9.4-5.8,13.8c-0.3,0.5-0.7,0.9-0.9,1.4c0,0.2,0.3,0.4,0.5,0.3c0.3-0.3,0.4-0.6,0.6-0.9
				c2.8-4.4,4.7-9.4,6.1-14.4c0.5-1.9,1.4-3.7,1.7-5.7c0.5-2.5,1.1-5,1.5-7.5C137.7,88.7,137.4,87,137.3,85.3"/>
		</g>
		<g>
			<path class="st7" d="M47.7,91.8c-0.2-0.3-0.7-0.2-0.8,0.2c-0.5,1.5-0.8,2.5-1.3,3.8c-0.2,0.4,0.3,0.8,0.6,0.6
				c0.3-0.2,0.9-2.4,1.4-3.6C47.6,92.4,47.9,92.1,47.7,91.8"/>
			<path class="st7" d="M55.4,89.1c-0.3,1-0.8,2.8-1.1,3.5c-0.1,0.2-0.2,0.4-0.1,0.6c0.1,0.2,0.4,0.3,0.7,0.2
				c0.4-0.5,0.4-1.2,0.7-1.7c0.2-0.9,0.6-1.7,0.7-2.6C56.2,88.6,55.5,88.6,55.4,89.1"/>
			<path class="st7" d="M52.2,99.9c-0.2-0.3-0.8-0.2-0.8,0.2c-0.5,1.7-0.9,3.1-1.5,4.6c-0.7,0.6,0.3,1.3,0.8,0.4
				c0.6-1.4,1-2.8,1.4-4.2C52.1,100.6,52.4,100.2,52.2,99.9"/>
			<path class="st7" d="M64.7,89.4c-0.2-0.3-0.7-0.2-0.7,0.2c-0.3,1-0.8,2-0.9,3.1c0,0.3,0.5,0.4,0.7,0.2c0.4-0.9,0.6-1.8,0.9-2.7
				C64.7,89.9,64.8,89.6,64.7,89.4"/>
			<path class="st7" d="M60.4,98.1c-0.5,1.4-1,3-1.4,4c-0.1,0.2,0,0.5,0.3,0.6c0.2,0,0.4-0.1,0.5-0.3c0.5-1.3,0.9-2.7,1.4-4
				C61.5,97.8,60.5,97.4,60.4,98.1"/>
			<path class="st7" d="M72.1,90.5c-0.3,1.1-0.7,2.2-1,3.3c-0.1,0.2,0.2,0.5,0.4,0.4c0.2,0,0.3-0.2,0.4-0.4c0.4-1.1,0.7-2.1,1-3.2
				C73,90.2,72.2,90,72.1,90.5"/>
			<path class="st7" d="M67.9,100.4c-0.7,2.3-1.8,4.5-2.4,7c0.1,0.3,0.6,0.3,0.8,0c0.8-2.3,1.8-4.6,2.4-7
				C68.6,100,68,100,67.9,100.4"/>
			<path class="st7" d="M80.2,91.4c-0.2,0.9-0.5,1.7-0.7,2.6c-0.1,0.2,0.2,0.5,0.4,0.4c0.4-0.1,0.3-0.2,0.4-0.4
				c0.3-0.9,0.7-1.7,0.7-2.6C81,91,80.3,91,80.2,91.4"/>
			<path class="st7" d="M77.5,99.9c-0.2-0.3-0.8-0.2-0.8,0.2c-0.5,1.7-1.3,3.7-2,5.7c0,0.2,0.2,0.4,0.4,0.5c0.7,0.1,0.8-1.3,1.1-1.8
				c0.5-1.3,1-2.7,1.4-4C77.5,100.2,77.6,100,77.5,99.9"/>
			<path class="st7" d="M60.3,106.7c-0.7,1.6-1.2,3.1-1.8,4.7c-0.2,0.3,0.2,0.7,0.5,0.5c0.8-1,1.3-3.6,2-4.9
				C61.3,106.6,60.5,106.2,60.3,106.7"/>
			<path class="st7" d="M53.5,108.4c-0.4,1.3-0.9,2.5-1.3,3.8c-0.2,0.3,0.3,0.7,0.6,0.5c0.7-1.3,1-2.7,1.5-4.1
				C54.4,108.2,53.7,108,53.5,108.4"/>
			<path class="st7" d="M43.7,103.1c-0.4,1.3-1,2.8-1.6,4.2c-0.1,0.4-0.7,1.1-0.1,1.3c0.3,0.1,0.4-0.2,0.5-0.4
				c0.7-1.5,1.3-3.1,1.8-4.7C44.7,103,43.9,102.5,43.7,103.1"/>
			<path class="st7" d="M45.5,111.2c-0.7,1.7-1.3,3.4-2.2,5c-0.1,0.5-1,1.3-0.2,1.6c0.4,0.1,0.5-0.3,0.6-0.5c0.7-1.5,1.4-3,2-4.5
				c0.1-0.5,0.6-1,0.5-1.5C46.1,110.9,45.6,110.9,45.5,111.2"/>
			<path class="st7" d="M61.9,113.8c-0.8,1.5-1.7,3.7-2.2,4.9c-0.1,0.1-0.1,0.3,0,0.4c0.5,0.6,0.9-0.2,1-0.6c0.6-1.5,1.3-3,2-4.5
				C62.8,113.6,62.1,113.4,61.9,113.8"/>
			<path class="st7" d="M70.8,110.3c-0.6,1.8-1.1,3.2-1.8,5.1c0,0,0,0.1,0,0.1c0,0,0,0,0-0.1c0,0.1-0.1,0.2,0,0.3
				c0.1,0.2,0.3,0.3,0.5,0.2c0.2-0.1,0.3-0.2,0.3-0.4c0.6-1.7,1.2-3.4,1.8-5.1C71.8,109.9,70.9,109.8,70.8,110.3"/>
			<path class="st7" d="M73.7,115.3C73.7,115.3,73.7,115.3,73.7,115.3"/>
			<path class="st7" d="M88.7,91.3c-0.3,0.9-0.6,1.9-0.9,2.8c-0.1,0.3,0.4,0.6,0.6,0.4c0.3-0.3,0.3-0.8,0.5-1.1
				c0.2-0.7,0.5-1.4,0.6-2.1C89.4,90.8,88.7,90.8,88.7,91.3"/>
			<path class="st7" d="M83.4,99.6c-0.4,1.6-1.2,4-1.6,5.2c-0.2,0.2-0.1,0.9,0.6,0.6c0.9-1.8,1.2-3.8,1.8-5.7
				C84.4,99.2,83.5,99,83.4,99.6"/>
			<path class="st7" d="M82.6,111.6c-0.4,1.8-1.1,3.9-1.6,5.3c0,0.1,0,0,0,0c0,0.1-0.1,0.2,0,0.3c0.1,0.2,0.4,0.3,0.6,0.2
				c0.9-1.7,1.3-3.8,1.8-5.6C83.5,111.3,82.7,111.1,82.6,111.6"/>
			<path class="st7" d="M89.8,109.1c-0.3,1.6-0.7,3.7-1.2,4.8c-0.2,0.6-0.8,1.5,0.2,1.5c0.2-0.1,0.3-0.2,0.3-0.4
				c0.7-1.8,1.1-3.8,1.5-5.7C90.8,108.7,89.9,108.5,89.8,109.1"/>
			<path class="st7" d="M91.7,100.1c-0.2,0.9-0.5,1.8-0.6,2.7c0,0.2,0.2,0.3,0.3,0.3c0.2,0,0.4-0.1,0.5-0.3c0.2-0.8,0.5-1.7,0.7-2.5
				C92.7,99.8,91.8,99.6,91.7,100.1"/>
			<path class="st7" d="M97.4,90.3c-0.2,1.1-0.5,2.2-0.7,3.4c0.1,0.3,0.5,0.4,0.7,0.2c0.4-1.1,0.6-2.4,0.8-3.6
				C98.2,89.8,97.5,89.8,97.4,90.3"/>
			<path class="st7" d="M106.9,87.9c-0.2-0.3-0.7-0.2-0.7,0.2c-0.4,1.2-0.7,2.5-1.1,3.7c0,0.1,0,0.2,0.1,0.3
				c0.2,0.3,0.7,0.2,0.7-0.2c0.3-0.9,0.5-1.9,0.8-2.8C106.7,88.7,107.1,88.3,106.9,87.9"/>
			<path class="st7" d="M103.1,99.8c-0.3-0.4-0.9-0.2-1,0.2c-0.1,1.6-0.4,3.1-0.6,4.7c0,0.2-0.1,0.5-0.1,0.7
				c0.1,0.3,0.5,0.5,0.8,0.3c0.5-0.6,0.4-1.9,0.6-2.7C102.9,102.1,103.3,100.7,103.1,99.8"/>
			<path class="st7" d="M100.7,113c-0.2-0.3-0.8-0.2-0.9,0.2c-0.1,1-0.2,1.9-0.3,2.9c-0.1,0.3-0.1,0.7,0.3,0.8
				c0.4,0.1,0.6-0.3,0.6-0.7c0.1-0.6,0.1-1.2,0.2-1.8C100.7,113.9,100.9,113.4,100.7,113"/>
			<path class="st7" d="M114.3,113c-0.2-0.3-0.8-0.2-0.9,0.2c-0.1,1.6-0.2,3.3-0.4,4.9c0,0.5-0.4,1.3,0.4,1.3c0.2,0,0.4-0.2,0.4-0.4
				c0.2-1.5,0.3-3.1,0.5-4.6C114.3,113.9,114.5,113.4,114.3,113"/>
			<path class="st7" d="M111.1,100.3c-0.2-0.3-0.7-0.2-0.7,0.2c-0.1,1-0.2,2-0.4,2.9c0,0.1,0,0.3,0.2,0.4c0.6,0.3,0.7-0.5,0.7-0.9
				c0.1-0.5,0.2-1.1,0.2-1.6C111.1,101,111.3,100.6,111.1,100.3"/>
			<path class="st7" d="M113.9,88.9c-0.2-0.3-0.7-0.2-0.8,0.2c-0.1,1.5-0.3,2.9-0.5,4.4c-0.1,0.3,0.2,0.5,0.4,0.5
				c0.2,0,0.4-0.2,0.4-0.4c0.2-1.2,0.4-2.4,0.5-3.6C113.9,89.6,114.1,89.3,113.9,88.9"/>
			<path class="st7" d="M116.9,104.9c-0.1,1.1-0.2,2.3-0.3,3.5c-0.1,0.2,0.1,0.5,0.4,0.5c0.4,0.1,0.6-0.3,0.6-0.6c0.1-1,0.1-2,0.2-3
				C118.1,104.7,117.2,104.2,116.9,104.9"/>
			<path class="st7" d="M122.1,116.8c-0.3-0.3-0.8,0-0.8,0.4c0,1.2,0,2.3,0.1,3.5c0,0.2,0.1,0.3,0.3,0.4c0.3,0.1,0.6-0.2,0.6-0.5
				c0-0.8,0-1.6,0-2.4C122.1,117.7,122.4,117.1,122.1,116.8"/>
			<path class="st7" d="M119.7,88.4c-0.2-0.3-0.7-0.2-0.8,0.2c-0.2,2.1-0.3,4.3-0.5,6.4c0,0.5-0.6,1.9,0.3,2c0.5-0.1,0.4-0.7,0.5-1
				c0.2-1.8,0.4-3.6,0.5-5.5C119.6,89.8,119.9,89,119.7,88.4"/>
			<path class="st7" d="M98.8,118.5c-0.4,1.5-0.8,3.6-1.2,4.8c-0.2,0.3,0.3,0.7,0.6,0.5c0.2-0.1,0.2-0.3,0.3-0.5
				c0.4-1.5,0.7-3.1,1.1-4.6C99.7,118.1,98.9,118,98.8,118.5"/>
			<path class="st7" d="M106.8,121.6c0,0.9-0.4,1.9-0.2,2.8c1.1,1,0.9-2,1.1-2.6C107.8,121.2,106.9,121,106.8,121.6"/>
			<path class="st7" d="M116.2,121.9c-0.2-0.4-0.9-0.2-0.9,0.2c-0.1,1.4-0.2,3.5-0.3,4c-0.1,0.4,0,0.8,0.5,0.8
				c0.3,0,0.4-0.3,0.5-0.5c0.1-1,0.2-2.1,0.2-3.1C116.2,122.8,116.4,122.3,116.2,121.9"/>
			<path class="st7" d="M90.6,119c-0.2,1.1-0.3,2.2-0.5,3.3c-0.1,0.2,0.1,0.5,0.4,0.5c0.4,0.1,0.6-0.3,0.6-0.6c0.2-1,0.3-2,0.5-3
				C91.6,118.7,90.7,118.5,90.6,119"/>
			<path class="st7" d="M46.5,122c-0.3,1.2-0.6,2.4-0.8,3.6c-0.1,0.3,0.2,0.5,0.5,0.5c0.2,0,0.4-0.2,0.4-0.3
				c0.3-1.2,0.6-2.4,0.9-3.6C47.5,121.7,46.6,121.5,46.5,122"/>
			<path class="st7" d="M54.9,117c-0.3,1.8-0.6,3.5-1,5.3c0,0.3-0.2,0.5-0.1,0.8c0,0.3,0.4,0.4,0.7,0.3c0.2-0.2,0.2-0.5,0.3-0.7
				c0.4-1.7,0.6-3.5,1-5.2C56.1,116.7,55.1,116.3,54.9,117"/>
			<path class="st7" d="M71.4,119.3c-0.3-0.2-0.7-0.1-0.8,0.3c-0.4,1.1-0.8,2.3-1.1,3.4c0,0.2,0,0.4,0.2,0.4
				c0.5,0.2,0.7-0.2,0.7-0.4c0.3-0.8,0.7-1.9,0.8-2.2C71.2,120.3,71.8,119.7,71.4,119.3"/>
			<path class="st7" d="M37.7,111.3c-0.2,1.8-0.6,3.5-0.9,5.2c-0.1,0.3,0.3,0.6,0.6,0.4c0.7-1.7,0.7-3.7,1.1-5.5
				C38.6,110.9,37.8,110.8,37.7,111.3"/>
			<path class="st7" d="M39,122.8c-0.4,1.7-0.9,3.3-1.4,5c-0.1,0.3,0.2,0.7,0.6,0.6c0.2,0,0.4-0.2,0.5-0.4c0.4-1.7,1-3.3,1.4-5
				C40.2,122.3,39.1,122.1,39,122.8"/>
			<path class="st7" d="M80.5,117.9c-0.4,1.6-0.8,3.2-1.2,4.8c-0.1,0.4,0.4,0.7,0.7,0.5c0.6-1.3,0.9-3.6,1.4-5.1
				C81.6,117.5,80.6,117.3,80.5,117.9"/>
			<path class="st7" d="M78.1,108.4c-0.5,1.6-0.8,3.2-1.2,4.8c-0.1,0.4,0.4,0.7,0.7,0.5c0.7-1.6,0.8-3.5,1.4-5.1
				C79.1,108,78.2,107.8,78.1,108.4"/>
		</g>
		<g>
			<g>
				<g>
					<path class="st3" d="M125.7,70.8c-0.8-4.3-5.4-6.7-9.4-8c-0.2-0.1-0.3-0.1-0.4-0.2c0,0,0.1,0,0.1-0.1c1.4-1.1,3.5-2.4,3.7-4.3
						c-0.6-2.6-2.7-4.8-4.9-6.2c-2-1.1-4.4-1.6-6.7-1.9c-1.4-0.1-3.6,0-4.6-0.1c0,0,0,0,0,0c0.1-0.7,0.7-2.1,0.9-3.4
						c0.5-1.7-0.3-3.3-1.5-4.5c-0.7-0.7-1.3-1.5-2.1-2c-1.4-0.9-3.2-1.1-4.9-0.8c-1.3,0.3-2.5,0.8-3.6,1.3c1.2-1.9,0.7-4.4-1.1-5.9
						c-1.8-1.5-4-2.5-6.2-3.4c-3-0.7-6.3,0.4-8.4,2.5c-0.1,0.1-0.1,0.2-0.2,0.2c-2.1-0.2-4.4,0-6.3,0.2c-4.7,0.7-8.4,5.1-8.4,9.7
						c-0.3-0.1-0.6-0.2-1-0.4c-5.3-1.8-17,2.1-19.8,6.8c-0.9,1.4-1.8,3.2-1.5,4.8c-4.4-1.2-11.4,1.7-14.8,4.2
						c-3.8,2.9-7.2,8.7-5.9,13.4c1.5,4.2,6.5,6.1,10.8,5.4c2.2-0.3,4.5-0.6,6.7-1.1c0.6-0.3,1.2-0.6,1.8-0.8c-1.3,5.1,4.1,8.5,9,8.6
						c1.6,0,3.1-0.7,4.7-1.1c2.5-0.9,6-2.2,7.9-3.5c3.3,11.5,15.7,8.6,23.1,2.6c0.7-0.7,1.5-1.3,2.2-2c0,0.1,0.1,0.1,0.1,0.2
						c1,1.7,2.4,3.3,4.3,4.1c2.8,1.1,6.4,1.2,8.6,0.2c3.9-1.2,9-3.4,8.8-8c0,0,0,0,0-0.1c0.4,0.2,0.7,0.4,1.1,0.7
						c2.4,1.7,5.6,1.4,8.4,1.2C121,78.7,126.4,76.2,125.7,70.8"/>
					<g>
						<path class="st8" d="M30.2,70.7c-0.5-0.2-1.1,0.1-1.5,0.2c-0.7,0.2-1.1,0.4-1.6,0.4c-0.8,0-1.8-1-1.9-1.6
							c-0.6-1.3,1.3-3.2,2.3-4.4c0.2-0.3,0.6-0.5,0.7-0.8c0-0.3-0.4-0.6-0.7-0.3c-0.8,0.8-1.5,1.7-2.2,2.6c-0.5,0.7-1.1,1.6-1,2.5
							c0.1,1.5,1.3,2.7,2.8,2.9c0.8,0.1,1.6-0.3,2-0.4c0.5-0.2,1.1-0.1,1.5-0.4C30.5,71.1,30.4,70.8,30.2,70.7"/>
						<path class="st8" d="M52.9,49.2c-1.2,0.2-2.4,0.7-3.5,1.2c-0.7,0.3-1.5,0.7-1.8,1.5c-0.3,0.7-0.7,1.4-0.5,2.1
							c0.3,1.2,1.1,2.5,2.4,2.6c0.4,0,0.7,0.1,1.1,0c0.3-0.1,0.4-0.5,0.2-0.7c-0.3-0.3-0.9-0.1-1.3-0.2c-0.6-0.1-1.3-0.8-1.5-1.7
							c-0.1-0.6,0-0.9,0.3-1.7c0.3-1,2.9-1.8,4.3-2.2c0.2-0.1,0.5,0,0.7-0.3C53.6,49.6,53.3,49.1,52.9,49.2"/>
						<path class="st8" d="M45,66.5c-0.3,0-0.6,0.2-0.8,0.2c0,0-0.1,0-0.2,0.1c-1.3,0.5-3,0.3-3.7-0.1c-1.2-0.8-1.8-2-1.3-3.2
							c0.5-1.2,1.9-2.6,2.9-3.2c0.7-0.2,0.7-1.2-0.1-1c-0.9,0.4-1.6,1.1-2.2,1.8c-0.9,0.9-1.7,1.9-1.7,3.2c0.1,3.2,3.2,4.2,5.9,3.5
							c0.5-0.2,1.3-0.2,1.6-0.7C45.5,66.9,45.3,66.5,45,66.5"/>
						<path class="st8" d="M51.6,76.8c-0.5,0-0.8,0.4-1.3,0.5c-0.9,0.4-1.8,0.8-2.2,0.8c-0.9,0-1.6-0.7-1.8-1.4
							c0.2-0.7,1.2-3.2,2.3-4.3c0.7-0.5,0.1-1.4-0.5-0.8c-1.1,1.1-1.7,2.5-2.3,3.9c-0.2,0.5-0.5,1-0.3,1.5c0.4,1.1,1.5,2.1,2.8,2
							c0.9,0,1.7-0.5,2.6-0.9c0.4-0.2,1-0.3,1.2-0.8C52.1,77.2,51.9,76.8,51.6,76.8"/>
						<path class="st8" d="M74.4,80.7c-0.1-0.2-0.4-0.2-0.6-0.1c-0.5,0.2-1,0.5-1.5,0.8c-1.2,0.8-3.7,1-4,0.6
							c-0.3-0.3-0.2-2.4,0.2-3.3c0.4-0.7-0.3-1.3-0.8-0.6c-0.4,1.4-0.9,3.1-0.2,4.5c0.4,0.5,1.1,0.6,1.6,0.6
							c0.9-0.1,1.9-0.2,2.8-0.5c0.8-0.3,1.5-0.9,2.3-1.2C74.5,81.3,74.6,81,74.4,80.7"/>
					</g>
				</g>
				<g>
					<path class="st7" d="M63.5,53.1c0.2-0.1,0.5-0.1,0.9-0.1 M154.1,68.9c-1.7-2.3-3.8-4.5-6.4-6c-0.3-0.1-0.5-0.3-0.8-0.4
						c0-0.5,0.5-0.9,1.5-1.7c2.1-1.8,2.8-4.7,2.2-7.3c-1.3-2.9-4-5.3-6.6-7.2c-2.1-1.4-4.8-2-7.2-2.6c-1.2-0.2-3.2-0.3-3.8-0.5
						c0,0,0,0,0,0c-0.5-0.7,0.9-3.1,1-5.1c0.4-2.3-0.6-4.8-2.3-6.6c-1.1-0.9-2.5-1.5-3.9-2c-1.5-0.6-3.8-0.7-5-0.7
						c0,0,0-0.1,0.1-0.3c0.4-1.1,0.7-3.7,0.1-5.3c-0.4-0.9-1.1-1.7-1.8-2.5c-1.5-1.6-3.7-2.2-5.9-2.5c-1.7-0.2-3.4,0.4-4.7,1.2
						c-1,0.7-2.6,1.8-2.8,2.7c-2-0.6-4.2-0.9-6.3-0.8c-1.4,0.3-2.4,1.3-3.5,1.9c-2.5,1.9-6.1,4.4-4.5,7.8c0.1,0.1,0.1,0.2,0.2,0.3
						c-0.4,0-0.8,0.1-1.2,0.2c-2,0.2-3.8,1-5.4,2.1c-2,1.1-3.9,2.4-5.5,3.9c-1.4,1.4-2.1,3.5-1.3,5.3c0.1,0.4,0.4,0.8,0.6,1.2
						c-0.1,0-0.2,0-0.3,0c-0.1,0-0.3,0-0.4,0c-1.2-0.4-2.5-0.7-3.7-1c-0.9-0.1-3.4-1.2-5.8,1.3c-1.5,1.2-1.7,3.9-1.8,5.8
						c-0.8,0.6-1.6,1.2-2.5,1.6c0,0,0,0,0,0c-0.1,0-0.2,0-0.3-0.1c-1.9-0.3-3.9,0-5.5,1.3c-1.5,1.2-3,2.7-3.9,4.5
						c-1.8,3-1.2,4.5,0.5,7.3c1.1,1.8,2,2.8,3.6,4.1c0.6,0.7,1.8,1.6,3,2.1c1.8,0.9,3.5,2,5.5,2.4c3.7,0.6,7.1,0.8,10.8,0.1
						c2.4-0.4,4.7,0.1,7.3,0.9c3.3,0.9,7.4,2.8,11.1,4.2c3.2,1,6.5,1.8,9.9,2.4c2.6,0.3,4.7,0.2,7.1,0.2c2.2-0.1,4.4-0.6,6.5-0.9
						c1.5-0.3,2.3-0.7,3.5-0.6c2.2,0.1,4.2,0.8,6.3,1c2.9,0.4,5.5,0.7,8.6-0.3c1-0.3,1.9-0.7,2.9-1.1c0.4-0.1,0.8-0.1,1.2-0.2
						c2.4-0.4,4.9-1,6.9-2.2C154.7,75.6,155.8,71.9,154.1,68.9"/>
					<g>
						<path class="st7" d="M74.6,44C74.5,44,74.5,44,74.6,44C74.5,44,74.5,44,74.6,44C74.5,44.1,74.3,44.3,74.6,44"/>
						<path class="st3" d="M66.8,59.7c0.3-0.2,0.7-0.2,0.9-0.4c0.3-0.3,0-0.9-0.4-0.8c-1.8,0.7-5.9,2.9-4.8,5.5
							c0.3,0.8,1,1.4,1.7,1.8c0.4,0.3,0.7,0.4,1.4,0.4c0.2,0,0.5,0.3,0.9,0.1c0.3-0.1,0.4-0.6,0.2-0.8c-0.3-0.3-0.7-0.3-1.1-0.4
							c-0.8,0-2.3-1-2.4-2.1C63.2,62,65.1,60.6,66.8,59.7"/>
						<path class="st3" d="M83.9,48.9c-2-0.6-4.9-0.2-6,2c-0.7,1.9,0.9,3,2.2,3.8c0.5,0.2,0.5,0.6,1.1,0.4c0.3-0.1,0.3-0.5,0.2-0.8
							c-0.2-0.2-0.5-0.3-0.7-0.4c-0.3-0.2-1.2-0.8-1.7-1.3c0-0.1-0.1-0.1-0.1-0.2c0,0,0,0,0,0c0,0,0,0,0,0c-0.5-1,0.1-1.9,1.5-2.5
							c0.6-0.2,2.4-0.5,2.9-0.3c0.3,0,0.5,0.2,0.8,0.1C84.2,49.6,84.2,49.1,83.9,48.9"/>
						<path class="st3" d="M101.1,37c-1.9-0.3-4.1-0.8-5.8,0.4c-1,0.8-1.8,2-2.3,3.2c-0.2,1.1,0,2.3,0.6,3.1
							c0.7,0.8,1.6,1.3,2.5,1.6c0.2,0.1,0.5,0.2,0.7,0c0.5-0.7-0.5-1-1-1.1c-0.3-0.1-1.4-0.8-1.5-0.9c-1.3-1.6-0.5-3.2,1-4.7
							c1.2-1.2,2.9-1,4.9-0.7c0.3,0,0.6,0.2,0.9,0C101.7,37.6,101.5,37.1,101.1,37"/>
						<path class="st3" d="M113.8,27.4c-1-0.5-2-1.3-3.2-1.5c-0.9-0.2-1.9-0.1-2.8,0.2c-0.4,0.1-0.9,0.5-1,1
							c-0.2,1.7-0.2,3.9,0.6,5.4c0.3,0.3,0.8-0.1,0.6-0.5c-0.7-1.2-0.6-4.4-0.4-4.8c0.5-0.5,2.3-0.7,3-0.3c1.1,0.3,1.9,1.1,3,1.5
							C114.1,28.3,114.2,27.6,113.8,27.4"/>
						<path class="st3" d="M121.6,37.6c-2.5-0.3-5.5,0.4-6.9,3c-0.7,1.6,0,3.5,1.4,4.2c1.1,0.8,2.3,1,3.5,1.5c0.2,0.2,0.6,0.2,0.8,0
							c0.6-0.9-0.8-1.2-1.4-1.4c-1.2-0.4-2-0.7-2.9-1.4c-1.6-1.4-0.6-3.8,2-4.7c0.8-0.3,2.3-0.5,3.4-0.3
							C122.1,38.5,122.2,37.6,121.6,37.6"/>
						<path class="st3" d="M104.8,54.1c1-0.6,2-0.7,3.2-1c0.4-0.2,0.1-0.9-0.3-0.8c-1.2,0.2-2.6,0.4-3.6,1.3c-1.8,2.4-0.6,3.9,1.5,5
							c1.4,0.5,1.3-1.1,0.4-0.9c-0.9-0.3-2.1-1.5-2-2C104,55.1,104.6,54.2,104.8,54.1"/>
						<path class="st3" d="M94.3,60.2c-0.2-0.1-0.4,0-0.6-0.1c-2.1-0.3-3-1.6-2-3.1c0.9-1,2-1.4,3.3-2.1c0.3-0.3-0.1-0.9-0.4-0.7
							c-1.4,0.7-3,1.3-3.8,2.8c-0.9,2.2,0.8,3.6,2.6,3.9c0.4,0.1,0.8,0.2,1.1,0C94.6,60.7,94.5,60.3,94.3,60.2"/>
						<path class="st3" d="M83.2,68.2C83,68,82.8,68,82.6,68c-0.1,0-0.2,0-0.2-0.1c-3.6-1-2.7-3.1,0-5.5c0.4-0.5,0.7-0.4,1.2-1
							c0.2-0.4-0.3-0.8-0.6-0.6c-1.5,1-3.3,2.5-3.8,4.4c-0.5,2.2,1.7,3.6,3.4,3.8C83,69.2,83.6,68.8,83.2,68.2"/>
						<path class="st3" d="M107.3,65.4c-2.3,0.5-7.1,2.2-7.1,5.3c0.3,2.1,2.5,3.1,4.2,3.2c0.4,0,0.9,0.1,1.2-0.1
							c0.2-0.2,0.2-0.6,0-0.8c-0.3-0.2-0.7,0-1.1-0.1c-1.6,0-3.3-1-3.5-2.4c-0.1-0.4,0.5-1.4,1.4-2c1.2-0.9,3.1-1.8,4.7-2.1
							c0.2-0.1,0.5-0.1,0.6-0.3C108,65.8,107.7,65.3,107.3,65.4"/>
						<path class="st3" d="M121.9,60.8c-0.5-0.2-0.5,0-1-0.1c-2.8,0.1-3.7-1.8-1.8-3.7c1-1.1,2-2.1,3-2.7c0.5-0.2,0.1-1.1-0.3-0.8
							c-1.1,0.6-2.1,1.6-3,2.6c-0.7,0.7-1.4,1.6-1.5,2.6c-0.2,2.3,2.1,3.2,3.8,3.1c0.5,0,0.5,0.1,0.8-0.1
							C122.1,61.4,122.1,60.9,121.9,60.8"/>
						<path class="st3" d="M142,55.3c-0.5-0.3-0.5,0-1.2,0.1c-1.8,0.3-3.7,0.6-4.9-0.6c-0.3-0.3-0.6-0.8-0.3-1.5
							c0.5-1.3,1.6-2.4,2.8-3.5c0.4-0.4-0.1-1.1-0.5-0.7c-5.9,4.8-3.1,8.6,3.3,7.3c0.3-0.1,0.7-0.1,0.9-0.4
							C142.2,55.9,142.2,55.5,142,55.3"/>
						<path class="st3" d="M143.2,69c-0.5-0.3-1.2,0.1-1.8,0.2c-0.8,0.3-2.1,0.7-2.6,0.8c-0.8,0-1.4-0.7-1.6-1.6
							c0.1-1.1,0.3-2.9,1.1-4.3c0.2-0.6-0.6-0.9-0.8-0.3c-0.7,1.4-1,3.1-1.1,4.7c0.1,1.2,0.9,2.3,2,2.6c1.3,0.3,2.6-0.6,3.9-0.8
							c0.3-0.1,0.6,0,0.9-0.2C143.5,69.8,143.5,69.3,143.2,69"/>
						<path class="st3" d="M123.2,74.5c-0.5-0.2-0.4,0-1.2,0c-0.6,0-2.1,0.3-2.5,0.2c-0.7-0.3-1.3-0.7-1.3-1.4c-0.1-1,0.8-3,1.5-4.2
							c0.3-0.5-0.4-1-0.7-0.5c-0.8,1.5-1.8,3.2-1.7,5c0.1,1,0.9,1.6,1.6,1.9c1.1,0.3,2.7-0.2,3.3-0.1c0.3,0,0.6,0,0.8-0.1
							C123.5,75.2,123.5,74.7,123.2,74.5"/>
						<path class="st3" d="M129.4,65.4c-0.1-0.1-0.5-0.1-0.6-0.1c-0.5-0.2-1-0.6-1.1-0.9c-0.1-0.4,0.5-2.7,1.1-3.6
							c0.2-0.3,0.6-0.6,0.5-1c0-0.4-0.5-0.5-0.7-0.2c-0.9,1.3-2.7,4.7-1.1,5.9c0.5,0.4,1.2,0.8,1.8,0.5
							C129.6,66,129.6,65.6,129.4,65.4"/>
						<path class="st3" d="M135.6,75.9c-0.9,0.7-1.8,1.2-2.2,0.8c0,0,0,0,0,0c-0.2-0.3,0-1.8,0.1-2.1c0-0.3,0.3-0.7,0.2-1
							c-0.1-0.3-0.6-0.3-0.7,0c-0.3,1.1-0.7,2.6-0.1,3.7c0.7,1,2.5,0,2.8-0.4c0.2-0.2,0.5-0.2,0.6-0.5
							C136.2,76.1,135.9,75.7,135.6,75.9"/>
						<path class="st3" d="M151,72.9c0-0.3-0.3-0.4-0.5-0.4c-0.4,0.1-0.5,0.6-0.8,0.9c-1.2,2.2-3.2,2-4.6,0.5
							c-0.4-0.4-1,0.4-0.5,0.8c1.1,1.2,3.9,2.1,5.2,0.1c0.3-0.4,0.6-0.9,1-1.4C151,73.3,151.1,73.1,151,72.9"/>
					</g>
				</g>
			</g>
			<g>
				<path class="st7" d="M92.1,15.8c-0.8-0.6-1.7-1.2-2.6-1.5c0.3-0.4,0.5-0.8,0.6-1.3c0.5-2.8-2-4.6-4.5-5.2
					c-1.3-0.3-2.1-0.2-3.6-0.2c-1.8,0-3.4,1-4.5,2.4c-0.2,0.2-0.3,0.3-0.4,0.4c0-0.1-0.1-0.2-0.1-0.2c-0.8-0.7-1.8-0.9-2.9-1
					C72.8,9,71.3,9,69.9,9.5c-1.8,0.7-2.4,2.8-2.2,4.5c0,0-0.1,0-0.1,0c-1-0.4-2.1-0.3-3.1-0.3c-1.3,0.1-2.7,0.1-3.9,0.6
					c-2.6,0.6-6.3,2.4-5.9,5.6c0,0.2,0.1,0.4,0.1,0.6c-0.2,0-0.4,0-0.6,0c-2.2,0-3.7,0.5-5.8,1.1c-2.4,0.7-4.7,1.8-6.2,3.8
					c-2.2,3.1-2.2,6.9,2.1,7.9c3.2,0.5,6.4-0.6,9.1-2.1c0.5-0.3,0.9-0.6,1.2-0.9c0.6,1.8,2.7,3.3,4.5,3.5c2.6,0,4.9-1.9,6.9-3.3
					c0.1,0.5,0.3,1.1,0.6,1.5c0.7,1,1.8,1.9,3.1,2.2c2.4,0.4,4.6-1.2,6.2-2.7c0.5-0.5,0.8-1.2,1.1-2c0.9,1.3,2.4,1.7,4.2,1.1
					c2.5-0.7,5.8-1.7,6.3-4.6c0.1-1-0.1-1.9-0.6-2.7c0.4,0,0.8,0,1.2,0c1.5-0.3,3-0.9,4.1-1.9c0.7-0.8,1.1-1.8,1.4-2.7
					C93.7,17.4,93,16.5,92.1,15.8"/>
				<g>
					<path class="st3" d="M48.1,28.7c-0.5,0.2-2,0.3-2,0.1c-0.6-0.4-0.4-1.2,0.1-1.6c0.8-0.7,1.4-1.2,2.2-1.6c0.3-0.3,0-0.8-0.4-0.7
						c-0.8,0.3-1.4,0.9-2,1.4c-0.4,0.3-0.8,0.6-0.9,1.1c-0.3,0.8,0.1,1.8,0.9,2.1c0.6,0.2,1.3,0.1,2,0c0.3-0.1,0.7-0.1,0.9-0.4
						C49,28.7,48.4,28.4,48.1,28.7"/>
					<path class="st3" d="M64.7,16.2c-1.1,0.1-2.2,0.4-3.2,0.9c-0.7,0.3-1.4,0.7-1.8,1.4c-0.4,0.6-0.2,1.4,0.4,1.8
						c0.6,0.4,1.3,0.4,1.9,0.4c0.1,0,1,0.1,1.5-0.1c0.5-0.2,0.1-0.9-0.3-0.8c-2.2,0.2-4.1-0.3-1.8-1.7c0.8-0.4,2.4-1,3.5-1.1
						C65.3,17,65.2,16.2,64.7,16.2"/>
					<path class="st3" d="M61.3,28.7c-0.3-0.1-0.5,0.1-0.7,0.1c-0.1,0-0.3,0.1-0.3,0.1c-1.8,0.5-2.3-0.6-1.7-1.5
						c0.7-0.8,1.7-1.4,2.9-1.8c0.5-0.2,0.2-0.9-0.3-0.8c-1.4,0.6-3,1.3-3.6,2.7c-0.6,2.1,1.7,2.6,3.2,2c0.2-0.1,0.5-0.1,0.6-0.3
						C61.7,29.2,61.6,28.8,61.3,28.7"/>
					<path class="st3" d="M75.3,26.7c-1.1,0.3-3.1,1.2-3.4,1.4c-0.6,0-0.7,0-0.9-0.7c-0.1-0.6-0.2-0.9,0.1-1.5
						c0.6-1,1.6-2.2,2.7-2.9c0.4-0.3,0-0.9-0.4-0.6c-1,0.6-1.9,1.6-2.6,2.6c-0.7,0.9-0.8,2-0.4,3c0.9,1.9,2.9,0.1,4.2-0.3
						c0.4-0.2,1.1-0.2,1.4-0.6C76.2,26.8,75.7,26.5,75.3,26.7"/>
					<path class="st3" d="M77.3,13.9c-1.1-0.4-2.2-0.4-3.3-0.3c-0.8,0-1.6,0.2-2.1,0.7c-1.4,1.5,0.4,2.8,1.9,3c0.5,0,1,0.3,1.4,0.2
						c0.5-0.5-0.1-0.8-0.6-0.8c-1.1-0.2-2-0.3-2.4-0.9c-0.2-0.3,0-1,0.8-1.2c1.2-0.3,2.7-0.3,4.2,0.2C77.7,14.8,77.8,14,77.3,13.9"
						/>
					<path class="st3" d="M85.6,18.6c-0.8,0.2-1.4,0.4-2,0.1c-1.7-0.7-0.3-1.5,1.1-3c0.3-0.3,0.5-0.4,0.8-0.7
						c0.1-0.1,0.3-0.2,0.3-0.4c0.1-0.3-0.3-0.6-0.6-0.4c-1,0.7-1.8,1.6-2.7,2.5c-0.4,0.4-0.8,1.1-0.5,1.7c0.6,1.1,2.1,1.3,3.2,0.9
						C85.9,19.4,86.1,18.8,85.6,18.6"/>
					<path class="st3" d="M83.5,26.7c-0.6,0.2-0.7,0.3-1,0.2c-0.2,0-0.3-0.9,0-1.6c0.1-0.3,0.3-0.5,0.2-0.8c-0.1-0.3-0.6-0.3-0.7,0
						c-0.9,1.6-0.8,4.1,1.7,2.9C84.2,27.3,83.9,26.5,83.5,26.7"/>
					<path class="st3" d="M84.8,9.8c-1-0.1-2,0.1-2.9,0.4c-0.5,0.2-1.1,0.4-1.2,1c-0.1,0.4-0.1,0.9,0.3,1.2c0.4,0.3,0.9-0.2,0.6-0.6
						c0,0,0-0.1,0-0.1c0,0,0,0,0-0.1c0-0.1,0-0.2,0.1-0.3c0,0,0-0.1,0-0.1c0.3-0.4,2.1-0.7,2.7-0.7c0.3,0,0.5,0.1,0.8,0
						C85.2,10.4,85.1,9.9,84.8,9.8"/>
				</g>
			</g>
		</g>
	</g>
	<g>
		<g>
			<path class="st14" d="M46.1,1.8c-0.4,0.1-0.9,0.2-1.3,0.3c-3.4,0.9-6.7,2.3-9.6,4.3c-2.5,1.7-4.7,3.7-6.6,6
				c-2.8,3.4-5,7.2-6.2,11.5c-2.1,7.1-1.7,14.1,1.1,21c1.3,3.2,3.2,6.1,5.5,8.6c4.7,5.1,10.4,8.3,17.2,9.5c6.1,1.1,12,0.4,17.7-2
				c1.7-0.7,3.3-1.6,4.8-2.6c0.1,0,0.1,0,0.2-0.1c-0.3,1.4-6.2,6.6-9.9,8.7c-3.9,2.3-8.1,3.7-12.6,4.4c-4.5,0.7-8.9,0.5-13.3-0.6
				c-19.7-4.7-30.8-24.5-26-43.2C12,9,30.1-0.7,46.1,1.8z"/>
			<path class="st22" d="M26.8,71.2c-0.1,0-0.3-0.1-0.5-0.2c-1.2-0.5-2.4-1.1-3.5-1.8c-6-3.9-10.7-9-13.9-15.4
				c-0.2-0.3-0.3-0.6-0.4-0.9c0-0.1,0-0.2,0.1-0.3c0.1-0.1,0.2,0,0.3,0.1c0.1,0.2,0.2,0.4,0.3,0.6c1.6,2.9,3.3,5.7,5.4,8.1
				c3,3.4,6.5,6.2,10.5,8.4c0.6,0.3,1.2,0.5,1.8,0.8c0.1,0.1,0.3,0.2,0.2,0.3C27.2,71.3,27,71.3,26.8,71.2z"/>
			<path class="st22" d="M8.8,59.4c0.3,0.1,0.4,0.3,0.6,0.5c2.3,2.7,4.8,5.1,7.7,7.1c0.6,0.4,1.2,0.8,1.8,1.2
				c0.2,0.2,0.6,0.4,0.4,0.7c-0.2,0.3-0.5,0.1-0.8,0c-1.7-1.1-3.2-2.3-4.7-3.6c-1.7-1.6-3.3-3.3-4.7-5.1c-0.1-0.2-0.2-0.3-0.3-0.5
				C8.5,59.5,8.5,59.4,8.8,59.4z"/>
			<path class="st22" d="M6.3,26.6c0.2,0.2,0,0.3,0,0.5c-1.2,2.3-1.7,4.7-1.7,7.1c0,1.1-0.1,2.3,0.1,3.4c0,0.2,0,0.4,0,0.6
				c0,0.1,0,0.3-0.3,0.3c-0.3,0-0.4-0.1-0.4-0.3c-0.1-0.2-0.2-0.4-0.2-0.6c-0.1-3.4,0.1-6.8,1.8-10.2C5.8,26.9,5.8,26.9,6.3,26.6z"
				/>
			<path class="st22" d="M25.1,72.1c-0.8-0.1-1.6-0.5-2.2-1c-0.1-0.1-0.2-0.1-0.1-0.3c0.1-0.1,0.2-0.1,0.3-0.1
				c0.1,0,0.2,0.1,0.3,0.1c0.6,0.3,1.2,0.5,1.8,0.7c0.2,0,0.3,0.1,0.3,0.3C25.4,72.1,25.2,72.1,25.1,72.1z"/>
			<path class="st22" d="M7.8,23.2c-0.3,0.7-0.5,1.3-0.8,2c0,0-0.1,0.1-0.1,0.1c-0.1,0-0.1-0.1-0.1-0.1c0.2-0.7,0.4-1.4,0.9-2
				C7.7,23.2,7.8,23.2,7.8,23.2z"/>
		</g>
		<g>
			<path class="st6" d="M37.4,2.9c-3.8,1.8-7.6,3.7-11.4,5.5c-1.7,0.8-3.3,1.6-4.8,2.7c-1.3,1-2.3,2.2-3,3.6c-1.5,2.8-2.1,6-3.1,9
				c-0.6,1.7-1.4,3.3-2.3,4.9c-0.9,1.7-1.5,3.5-1.9,5.5c-1.3,6.8-0.8,14.4,3.5,20.1c2.2,3,5.1,5.3,8,7.5c2.8,2.2,5.8,4.3,9.1,5.7
				c1.7,0.7,3.5,1.2,5.3,1.4c2,0.3,4,0.2,6-0.2c2-0.3,4-0.9,6-1.3c2-0.5,4.1-1,6.1-1.5c1-0.2,2-0.5,3.1-0.7c0.3-0.1,0.2-0.6-0.1-0.5
				c-4,1-8.1,1.9-12.1,2.8c-1.9,0.5-3.9,0.9-5.9,0.9c-1.9,0.1-3.9-0.2-5.7-0.7c-3.4-1-6.5-2.8-9.3-4.9c-1.4-1.1-2.8-2.2-4.2-3.3
				c-1.4-1.1-2.8-2.3-4-3.6c-2.4-2.6-4.1-5.6-4.9-9c-0.8-3.3-0.9-6.8-0.6-10.2c0.2-1.9,0.5-3.8,1.2-5.5c0.7-1.8,1.7-3.4,2.5-5.1
				c1.3-2.9,1.8-6,2.9-9c0.5-1.4,1.2-2.8,2.2-4c1.1-1.3,2.6-2.3,4.2-3.1c1.7-0.9,3.5-1.8,5.3-2.7c1.8-0.9,3.7-1.8,5.5-2.8
				c0.9-0.4,1.8-0.9,2.7-1.4C37.7,3.1,37.5,2.8,37.4,2.9L37.4,2.9z"/>
		</g>
		<g>
			<path class="st6" d="M18.1,41.6c-0.2,0.5-0.2,1-0.2,1.5c0,0.4,0.1,0.8,0.4,1.1c0.6,0.6,1.3-0.1,1.5-0.7c0.2-0.4,0.2-0.9,0.2-1.4
				c0-0.5,0-1,0-1.6c-0.1-0.9-0.2-1.9-0.7-2.7c-0.3-0.6-0.9-1.2-1.7-1.1c-0.8,0.1-1.1,0.9-1.3,1.6c-0.5,1.7-0.6,3.6-0.3,5.4
				c0.2,1.8,0.9,3.6,1.8,5.1c1,1.7,2.4,3.1,3.9,4.4c1.6,1.5,3.3,2.9,4.9,4.3c0.8,0.7,1.7,1.5,2.5,2.2c0.7,0.6,1.4,1.2,2.2,1.7
				c0.8,0.5,1.7,0.7,2.6,0.6c0.5,0,1-0.1,1.5,0c0.5,0.1,0.9,0.4,1.3,0.7c0.7,0.6,1.5,1.1,2.3,1.5c0.8,0.4,1.7,0.6,2.7,0.6
				c0.5,0,0.9,0,1.4,0c0.4,0,0.4-0.7,0-0.6c-1.7,0.2-3.4-0.2-4.8-1.1c-0.7-0.4-1.3-1.1-2-1.4c-0.8-0.4-1.7-0.3-2.6-0.3
				c-1.8,0-3.1-1.2-4.3-2.3c-1.5-1.3-3-2.6-4.5-3.9c-2.7-2.3-5.6-4.6-7.1-7.9c-0.7-1.5-1.1-3.1-1.2-4.7c-0.1-0.8,0-1.7,0-2.5
				c0.1-0.7,0.2-1.6,0.5-2.2c0.2-0.3,0.4-0.7,0.8-0.7c0.4,0,0.7,0.3,0.9,0.6c0.5,0.8,0.7,1.8,0.7,2.7c0,0.5,0,1,0,1.6
				c0,0.5-0.1,1-0.3,1.4c-0.1,0.1-0.2,0.3-0.4,0.3c-0.2,0-0.3-0.4-0.3-0.5c-0.1-0.5-0.1-1.1,0.1-1.6C18.6,41.4,18.2,41.3,18.1,41.6
				L18.1,41.6z"/>
		</g>
		<g>
			<path class="st23" d="M24.2,46.3C24.2,46.3,24.2,46.3,24.2,46.3C24.2,46.3,24.2,46.3,24.2,46.3L24.2,46.3z"/>
		</g>
		<g>
			<path class="st24" d="M29.5,11c-1.7,1.6-3.1,3.4-4.3,5.4c-1.2,2-2.1,4.1-2.8,6.3c-0.2,0.6-0.3,1.2-0.5,1.9
				c-0.1,0.3-0.1,0.7-0.2,1c-0.1,0.3-0.1,0.7-0.1,1c0,0.2,0.4,0.4,0.5,0.1c0.2-0.5,0.3-1.1,0.4-1.6c0.1-0.6,0.3-1.1,0.4-1.7
				c0.3-1.1,0.7-2.1,1.1-3.2c0.9-2.1,2-4.1,3.3-6c0.8-1,1.6-2.1,2.4-3C29.9,11.1,29.7,10.9,29.5,11L29.5,11z"/>
		</g>
		<g>
			<path class="st24" d="M39.8,61.5c5,1.7,10.4,2.4,15.7,1.8c1.5-0.2,2.9-0.4,4.4-0.8c0.4-0.1,0.2-0.7-0.2-0.6
				c-5.1,1.1-10.4,1.2-15.5,0.1c-1.4-0.3-2.8-0.7-4.2-1.1C39.6,60.8,39.5,61.4,39.8,61.5L39.8,61.5z"/>
		</g>
		<g>
			<path class="st24" d="M26.6,4.8c0.5-0.1,0.9-0.4,1.4-0.6c0.5-0.2,0.9-0.4,1.4-0.5c0.9-0.3,1.9-0.6,2.9-0.9c2-0.5,4-0.8,6-0.9
				c1.1-0.1,2.3-0.1,3.4,0c0.3,0,0.3-0.5,0-0.5c-4.1-0.3-8.2,0.4-12.1,1.7c-0.5,0.2-1.1,0.4-1.6,0.6c-0.5,0.2-1.1,0.4-1.6,0.7
				C26.3,4.5,26.4,4.8,26.6,4.8L26.6,4.8z"/>
		</g>
		<g>
			<path class="st25" d="M13.4,22.4C13.5,22.4,13.5,22.4,13.4,22.4C13.4,22.4,13.4,22.4,13.4,22.4L13.4,22.4z"/>
		</g>
		<path class="st25" d="M9.9,24.1c0.1-0.3-0.3-0.4-0.4-0.2c-0.3,0.4-0.5,0.8-0.7,1.2c-0.2,0.4-0.3,0.8-0.4,1.2
			c-0.2,0.9-0.4,1.8-0.4,2.7c0,0.3,0.2,0.5,0.5,0.5c0.3,0,0.4-0.2,0.5-0.5C9,28.2,9,27.4,9.2,26.5c0.1-0.4,0.2-0.8,0.3-1.2
			C9.7,24.9,9.8,24.5,9.9,24.1z"/>
		<path class="st25" d="M10.4,28c0-0.1,0-0.1,0-0.2c0,0,0,0,0,0c0,0,0,0,0,0c0-0.1-0.1-0.3-0.2-0.3c-0.1,0-0.3,0-0.4,0.1
			c0,0-0.1,0.1,0,0c0,0.1-0.1,0.1-0.1,0.2c0,0.1,0,0.1-0.1,0.2c0,0,0,0,0,0c0-0.1,0-0.1,0,0c0,0,0,0,0,0.1c0,0.1,0,0.1,0,0.2
			c0,0.1-0.1,0.2-0.1,0.4c0,0.2-0.1,0.4,0,0.6c0.1,0.2,0.5,0.3,0.7,0.1c0.1-0.1,0.1-0.2,0.1-0.3c0-0.1,0-0.1,0-0.2
			c0-0.1,0-0.2,0-0.2c0-0.2,0-0.3,0-0.5c0,0,0,0.1,0,0.1C10.4,28.3,10.4,28.2,10.4,28C10.4,28,10.4,28,10.4,28z"/>
		<path class="st25" d="M21.3,63.4c-0.4-0.2-0.8-0.4-1.2-0.7c-0.2-0.1-0.4-0.2-0.6-0.4c-0.2-0.1-0.3-0.3-0.5-0.4
			c-0.1-0.1-0.4-0.1-0.5,0c-0.1,0.1-0.1,0.3,0,0.5c0.6,0.8,1.4,1.4,2.3,1.8c0.2,0.1,0.5,0.1,0.7-0.2C21.6,63.8,21.5,63.5,21.3,63.4z
			"/>
		<path class="st25" d="M13.4,54.6c0-0.1,0-0.1-0.1-0.2c-0.1-0.2-0.2-0.5-0.4-0.7c-0.3-0.5-0.6-0.9-1-1.3c-0.1-0.1-0.4-0.2-0.5-0.1
			c-0.2,0.1-0.3,0.2-0.3,0.4c0,0.9,0.5,1.6,1.1,2.2c0.1,0.1,0.2,0.2,0.3,0.4c0.1,0.1,0.1,0.1,0.2,0.1c0,0,0,0,0.1,0.1
			c0.2,0.1,0.4,0.2,0.6,0c0.2-0.1,0.3-0.4,0.1-0.6C13.6,54.8,13.5,54.7,13.4,54.6z"/>
		<path class="st25" d="M39.9,65.8c-0.8-0.4-1.7-0.6-2.5-0.8c-0.2,0-0.4,0.1-0.4,0.3c-0.1,0.2,0,0.4,0.1,0.5
			c0.2,0.2,0.5,0.4,0.8,0.5c0.2,0.1,0.3,0.1,0.5,0.1c0,0,0,0,0.1,0c0,0,0.1,0,0.1,0c0.4,0.1,0.8,0.1,1.2,0.1c0.2,0,0.4-0.1,0.4-0.3
			C40.2,66.1,40.1,65.9,39.9,65.8z"/>
		<path class="st26" d="M17.7,12.4c0,0,0-0.1,0-0.1c-0.1-0.1-0.3-0.2-0.4-0.1c-0.1,0.1-0.2,0.1-0.2,0.2c0,0,0,0-0.1,0c0,0,0,0,0,0
			c-0.1,0-0.2,0.1-0.2,0.2c0,0,0,0,0,0c0,0-0.1,0.1-0.1,0.1c-0.1,0.1-0.1,0.1-0.2,0.2c-0.3,0.3-0.5,0.7-0.7,1.1
			c-0.1,0.2-0.1,0.4,0.1,0.5c0.2,0.1,0.4,0.1,0.5,0c0.6-0.5,1.1-1,1.5-1.7C17.9,12.8,17.8,12.6,17.7,12.4
			C17.7,12.5,17.7,12.5,17.7,12.4z"/>
		<path class="st25" d="M12.4,34.9C12.4,34.9,12.4,34.9,12.4,34.9C12.4,34.9,12.4,34.9,12.4,34.9z"/>
		<path class="st25" d="M12,37.2c0.2,0,0.3-0.1,0.4-0.3c0.1-0.3,0.2-0.6,0.2-1c0-0.1,0-0.3,0-0.4c0-0.1,0-0.2,0-0.3
			c0-0.1-0.1-0.2-0.1-0.2c0,0-0.1-0.1-0.2-0.1c0,0,0,0,0,0c-0.1,0-0.1,0-0.2,0c-0.1,0-0.1,0,0,0c0,0-0.1,0-0.1,0.1
			c-0.1,0-0.2,0.1-0.2,0.2c-0.2,0.5-0.3,1.1-0.2,1.7C11.6,37.1,11.8,37.2,12,37.2z"/>
		<path class="st25" d="M12.4,38.2C12.4,38.2,12.4,38.2,12.4,38.2c-0.1,0.6-0.2,1.1-0.1,1.7c0,0.2,0.2,0.3,0.4,0.3
			c0.1,0,0.1,0,0.2-0.1c0.1,0,0.2-0.1,0.2-0.2c0-0.3,0.1-0.6,0.1-0.9c0-0.3,0-0.5,0-0.8c0-0.1,0-0.2-0.1-0.3
			c-0.1-0.1-0.2-0.1-0.3-0.1C12.6,37.8,12.4,38,12.4,38.2z"/>
	</g>
</g>
</svg>
