<?xml version="1.0" encoding="utf-8"?>
<!-- Generator: Adobe Illustrator 27.0.0, SVG Export Plug-In . SVG Version: 6.00 Build 0)  -->
<svg version="1.1" xmlns="http://www.w3.org/2000/svg" xmlns:xlink="http://www.w3.org/1999/xlink" x="0px" y="0px"
	 viewBox="0 0 144.8 147.6" style="enable-background:new 0 0 144.8 147.6;" xml:space="preserve">
<style type="text/css">
	.st0{fill:#FFFFFF;}
	.st1{fill:#8CA2CF;}
	.st2{clip-path:url(#SVGID_00000052083174452620701900000000109350302289383834_);}
	.st3{fill:#627EB5;}
	.st4{fill:#8CA05C;}
	.st5{fill:#677724;}
	.st6{fill:#E0A955;}
	.st7{fill:#BBD7FF;}
	.st8{fill:#3C5987;}
	.st9{clip-path:url(#SVGID_00000106830046945686098410000002756965884148003243_);}
	.st10{fill:#669CD3;}
	.st11{clip-path:url(#SVGID_00000078730213715929333680000013812302601689949616_);}
	.st12{fill:#92C4FC;}
	.st13{fill:#FAF4D2;}
	.st14{fill:#FCCB7C;}
	.st15{clip-path:url(#SVGID_00000153686303352898734920000013645984880425488310_);}
	.st16{clip-path:url(#SVGID_00000097463013737722763630000000036578841899204267_);}
	.st17{fill:#C5CAF0;}
	.st18{clip-path:url(#SVGID_00000130621019869664320830000018220232339055492535_);}
	.st19{clip-path:url(#SVGID_00000089565904427411896490000000167309256075306916_);}
	.st20{clip-path:url(#SVGID_00000103976107818258859500000004650867101582895534_);}
	.st21{clip-path:url(#SVGID_00000134933305507322942050000006397566635566385851_);}
	.st22{fill:#F9CC3D;}
	.st23{fill:#FFEAAE;}
	.st24{fill:#FFECB8;}
	.st25{fill:#D3AA37;}
	.st26{fill:#FFE08A;}
	.st27{clip-path:url(#SVGID_00000168101745897873330840000007987947778168625085_);}
	.st28{clip-path:url(#SVGID_00000136404825711909649150000004911837276291667359_);}
	.st29{clip-path:url(#SVGID_00000096774926678084204390000015175065096909990310_);}
	.st30{clip-path:url(#SVGID_00000028302464793686341580000005148428062176656811_);}
	.st31{clip-path:url(#SVGID_00000072255469541524293950000000768056224357073578_);}
	.st32{clip-path:url(#SVGID_00000015331773100945493830000012462559646666870198_);}
	.st33{clip-path:url(#SVGID_00000183968128101795394800000017307689186467630760_);}
	.st34{clip-path:url(#SVGID_00000065041380603515159990000015694972475993321380_);}
	.st35{clip-path:url(#SVGID_00000078759921939491345960000017579021869533989800_);}
	.st36{opacity:0.82;}
	.st37{fill:#BCACAA;}
</style>
<g id="BACKGROUND">
</g>
<g id="OBJECTS">
	<g>
		<path class="st1" d="M127.7,73.2c-0.1-1.6-0.2-4.9-1.2-9.5c-0.8-3.2-1.4-6.5-2.4-9.7c-1.5-3.3-1.1-2.4-2.4-5.1
			c-0.3-0.9-1.2-2.9-3.2-5.4c-2.5-2.8-4.8-5.9-7.7-8.4c-3.9-3.2-7.2-5.9-9.5-7.4c-4.9-2.7-8.8-4.9-12.1-5.9c-4.2-1-6.2-1.3-8.6-1.6
			c0,0,0.1,0,0.1,0c0,0-0.1,0-0.1,0c-0.1,0-0.2,0-0.3,0c-0.9,0-0.2,0,0.2,0c-0.4-0.1-0.7-0.1-1.1-0.2c-0.7-0.1-1.4-0.3-2.1-0.4
			c0.1,0,0.1,0,0,0c-0.3,0-0.5-0.1-0.8-0.1c0.1,0,0.2,0,0.4,0c-6.3-1.1-8.2-1.9-14.6-1.1c0,0-0.2,0-0.5,0c-2.7,0.1-5.3,1.1-7.9,1.7
			c-2.7,0.6-2.1,0.2-5.9,1c-4.1,1.3-4.4,1.4-8.7,3.6c-1.4,0.5-2.6,1.3-3.9,2c-1.6,0.9-3.3,1.7-4.7,2.8c-3.8,2.8-7.6,5.7-11,8.9
			c-3.3,3.5-6.2,7.3-9,11.1c-3.5,4.8-6.6,9.9-8.1,15.6c-1.6,4.9-2,10.1-2,15.2c0,3.4,0.1,7.7,0.4,8.6C0.9,89.3,1,89.5,1,89.6
			c0.1,2,0.7,4,1.2,5.9c0.5,1.7,1,3.4,1.6,5.1c0.1,0.6,0.2,1.2,0.3,1.8c1.7,6.1,2.6,5.6,3.6,9.7c0.1,0.2,0.1,0.4,0.1,0.7
			c0,0.5,0.1,1.5,0.1,1.9c0.1,2.6-0.2,5.2-0.4,7.8c-0.4,2.2-0.6,4.3-0.5,6.5c0,2.1,0.1,4.2,1,6.1c2.1,5.5,8.3,7.9,13.8,9.2
			c4,1,8.2,0.5,12.2,0.5c5.8-0.4,11.8-0.2,17.3-2.1c4.1-1.3,3.6-1.7,7.1-1.6c0.3,0,0.6,0,0.8,0c0.4,0.1,0.8,0.2,1.3,0.3
			c0.6,0.3,1.2,0.6,1.8,0.9c1.5,0.8,2.9,1.9,4.5,2.6c2.5,1.1,5.3,1.7,8.1,2c2.9,0.6,5.8,1.2,8.7,0.6c1.8-0.2,3.5-1,5.2-1.6
			c1.2-0.4,2.4-0.7,3.6-1.2c3.4-1.2,4.9-1.7,9.1-4.4c1.4-0.8,2.6-1.9,3.7-3.1c1.9-1.5,3.6-3.3,5-5.3c0.3-0.3,2.9-3.7,4.6-6.3
			c1.8-2.7,1.3-1.8,3.6-4.6c1.2-1.7,2.3-3.4,3-5.3c1.8-5.2,3.1-10.5,4.6-15.7c0.6-3.2,1-6.3,1.2-9.5c0.4-2.7,0.5-2.7,0.8-6.7
			C128,80.3,128.3,76.7,127.7,73.2"/>
		<g>
			<defs>
				<path id="SVGID_00000002365491514588905550000008417791201626696088_" d="M127.7,73.2c-0.1-1.6-0.2-4.9-1.2-9.5
					c-0.8-3.2-1.4-6.5-2.4-9.7c-1.5-3.3-1.1-2.4-2.4-5.1c-0.3-0.9-1.2-2.9-3.2-5.4c-2.5-2.8-4.8-5.9-7.7-8.4
					c-3.9-3.2-7.2-5.9-9.5-7.4c-4.9-2.7-8.8-4.9-12.1-5.9c-4.2-1-6.2-1.3-8.6-1.6c0,0,0.1,0,0.1,0c0,0-0.1,0-0.1,0
					c-0.1,0-0.2,0-0.3,0c-0.9,0-0.2,0,0.2,0c-0.4-0.1-0.7-0.1-1.1-0.2c-0.7-0.1-1.4-0.3-2.1-0.4c0.1,0,0.1,0,0,0
					c-0.3,0-0.5-0.1-0.8-0.1c0.1,0,0.2,0,0.4,0c-6.3-1.1-8.2-1.9-14.6-1.1c0,0-0.2,0-0.5,0c-2.7,0.1-5.3,1.1-7.9,1.7
					c-2.7,0.6-2.1,0.2-5.9,1c-4.1,1.3-4.4,1.4-8.7,3.6c-1.4,0.5-2.6,1.3-3.9,2c-1.6,0.9-3.3,1.7-4.7,2.8c-3.8,2.8-7.6,5.7-11,8.9
					c-3.3,3.5-6.2,7.3-9,11.1c-3.5,4.8-6.6,9.9-8.1,15.6c-1.6,4.9-2,10.1-2,15.2c0,3.4,0.1,7.7,0.4,8.6C0.9,89.3,1,89.5,1,89.6
					c0.1,2,0.7,4,1.2,5.9c0.5,1.7,1,3.4,1.6,5.1c0.1,0.6,0.2,1.2,0.3,1.8c1.7,6.1,2.6,5.6,3.6,9.7c0.1,0.2,0.1,0.4,0.1,0.7
					c0,0.5,0.1,1.5,0.1,1.9c0.1,2.6-0.2,5.2-0.4,7.8c-0.4,2.2-0.6,4.3-0.5,6.5c0,2.1,0.1,4.2,1,6.1c2.1,5.5,8.3,7.9,13.8,9.2
					c4,1,8.2,0.5,12.2,0.5c5.8-0.4,11.8-0.2,17.3-2.1c4.1-1.3,3.6-1.7,7.1-1.6c0.3,0,0.6,0,0.8,0c0.4,0.1,0.8,0.2,1.3,0.3
					c0.6,0.3,1.2,0.6,1.8,0.9c1.5,0.8,2.9,1.9,4.5,2.6c2.5,1.1,5.3,1.7,8.1,2c2.9,0.6,5.8,1.2,8.7,0.6c1.8-0.2,3.5-1,5.2-1.6
					c1.2-0.4,2.4-0.7,3.6-1.2c3.4-1.2,4.9-1.7,9.1-4.4c1.4-0.8,2.6-1.9,3.7-3.1c1.9-1.5,3.6-3.3,5-5.3c0.3-0.3,2.9-3.7,4.6-6.3
					c1.8-2.7,1.3-1.8,3.6-4.6c1.2-1.7,2.3-3.4,3-5.3c1.8-5.2,3.1-10.5,4.6-15.7c0.6-3.2,1-6.3,1.2-9.5c0.4-2.7,0.5-2.7,0.8-6.7
					C128,80.3,128.3,76.7,127.7,73.2"/>
			</defs>
			<clipPath id="SVGID_00000136409042731762573380000011647297023204589501_">
				<use xlink:href="#SVGID_00000002365491514588905550000008417791201626696088_"  style="overflow:visible;"/>
			</clipPath>
			<g style="clip-path:url(#SVGID_00000136409042731762573380000011647297023204589501_);">
				<path class="st5" d="M122.6,122.1c-0.1-0.6,0-0.7-0.2-1.2l0,0c0-0.2-0.1-0.5-0.3-0.6c0-0.1,0-0.2,0-0.2c0-0.2,0-0.4-0.1-0.6
					c0.1-0.3,0-0.7-0.1-1c-0.1-0.3,0-0.2-0.4-0.6c0,0-0.1,0-0.1,0c0-0.1-0.1-0.1-0.1-0.2c-0.3-0.4-0.3-0.2-0.6-0.7
					c-0.3-0.4-0.9-0.8-1.4-1.1c0,0-0.1-0.1-0.2-0.2c-0.6-0.5-0.6-0.4-1-0.7c-0.9-0.4-1-0.4-1.5-0.8c-2.1-1.1-4.5-1.7-6.9-2.1
					c-2-0.4-3.9-1-6-1.1c-3.8-0.5-6.7-0.9-10.7-1.1c-5.2,0-11.4,0.5-15.9,1.2c-3.5,0.2-6.7,1.3-10.1,2c-5.1,0.9-9.9,2.7-14.6,4.6
					c-5.6,1.9-11.7,4.1-17.4,7c-3,1.5-6.1,2.7-8.8,3.8c-2.8,1-5.1,2.1-7.9,1.9c-2.4-0.1-5.5-1.1-8.2-1.9c-0.1,0-0.3-0.1-0.4-0.1
					c-0.4-0.2-0.5-0.3-1-0.8c-0.7-0.6-0.5-0.7-1.3-1.3c-0.5-0.3-1.3,0-1.3,0.6c-0.2,1,0,1.9-0.1,2.9c-0.1,0.4-0.1,0.9,0,1.3
					c-0.1,1.9,0,3.8,1.1,5.5c1,1.7,2.5,3,4.2,4.2c1.1,0.9,2.5,1.4,3.8,2c0.5,0.4,1.1,0.8,1.7,1.2c4.3,2.2,8.6,2.3,13.3,2.6
					c2.8,0,5.7,0.5,8.5,0.3c5.3-0.5,10.3-2,15.3-3.5c2.1-0.5,3.4-0.8,5-0.4c2.1,0.6,5,2.3,7.3,3.8c1.9,1.3,4,2.2,6.2,3.2
					c1.5,0.6,3.2,0.6,4.7,1c5.6,1,11.5-0.1,16.8-1.8c2.6-0.8,4.7-2.4,7-3.6c2.7-1.5,5.1-3.2,7.7-5.3c3.8-2.8,5.7-5.8,8.3-9
					c1.3-2.1,2.4-3.1,4.2-4.7C122.2,125.1,122.7,123.6,122.6,122.1"/>
				<g>
					<path class="st4" d="M112.7,121.9c-5.4-5.4-15.6-7-23.4-6.9c-10.5-0.4-20.6,2.9-30.8,6c-5.5,2.2-9.2,3.9-13.5,5.3
						c-2.2,1-3.8,1.5-6.1,2.6c-3.3,1.5-6.1,2.9-9.4,4c-3.5,1.4-8.8,3.1-12.4,1.7c-1.7-0.9-3.3-1.5-4.5-2.6c-0.2-0.2-0.6-0.2-0.8,0
						c-0.2,0.2-0.2,0.5,0,0.7c2.9,2.2,6.2,3.9,10.1,3.3c2.6-0.2,5.4-1.1,7.7-2c2.3-0.8,4.9-1.8,7.4-2.9c4.5-2.1,7.9-3.2,12.2-4.8
						c1.9-0.7,3.7-1.4,5.8-2.3c1.8-0.7,2.8-1.4,4.5-1.8c6.7-2.1,13.4-4.1,20.4-5.2c4.1-0.6,10.1-0.8,15.4-0.3
						c4.2,0.5,9.3,1.6,13.3,3.9c1.5,1,3.4,2.1,3.6,3.9c0.7,2.5-1.6,5.5-4.2,7.9c-4.3,3.9-11.5,4.9-16.3,2.4
						c-2.9-1.4-3.8-3.3-1.8-5.8c0.2-0.5,2.6-2.4,2.6-2.2c2.6-0.8,4.8-1.3,6.3-0.5c1.9,1.1,1.1,2.5-1.8,3.8c0,0,0,0-0.1,0
						c-0.1,0-0.4,0-0.5,0.1c-0.5,0.1-0.6,0.8-0.2,1.1c1.1,0.6,2.2-0.4,3.1-0.9c2.8-1.6,2.7-4.5-0.5-5.5c-2.3-0.7-4.9,0.1-7.1,0.8
						c-2.2,1.4-4.5,3.7-4.3,6.3c0.8,3.6,5.3,5,8.7,5.5c4.7,0.3,8.6-0.7,12.2-3.3C111.8,131,115.9,126.1,112.7,121.9"/>
					<path class="st4" d="M83.3,122.4c-5.3,0.8-10.5,2-15.7,3.2c-3.6,0.7-7.1,1.6-10.4,3c-4.9,1.9-9.6,4.2-14.1,6.6
						c-1.8,1-4,1.8-5.2,3.3c-0.6,1,0.3,2,1.3,2.4c0.9,0.4,2,0.4,3.1,0.3c1.4-0.1,2.9-0.1,4.3-0.4c2.2-0.5,4.7-1,6.3-2.6
						c1.7-1.3,0.3-3.3-1.6-3.4c-1.4-0.3-5.4,1.5-3.2,2.8c0.5,0.3,1.5,0.4,1.5-0.4c-0.1-0.4-0.3-0.5-0.5-0.6c0.5-0.3,1.3-0.8,2-0.6
						c0.4,0.1,0.5,0,1,0.6c0,0,0.1,0.1,0.1,0.1c0,0,0,0,0,0c0,0.1,0,0.1,0,0.2c0,0,0,0.1,0,0.1c-0.1,0.2-0.5,0.6-1,1
						c0,0,0,0-0.1,0.1c-0.1,0.1-0.7,0.3-0.3,0.2c-2.3,1-4.6,1.6-7.1,1.6c-2.4,0.2-4.3,0.1-4.5-0.8c0,0,0,0,0,0c0,0,0,0,0,0
						c0,0,0,0,0,0c0,0,0,0,0,0c0,0,0-0.1,0-0.1c0,0,0,0,0,0.1l0,0c0,0,0,0,0,0c0,0,0,0,0,0c0,0,0,0,0,0c0,0,0,0,0,0
						c0.1-0.1,0.1-0.1,0.1-0.2c0.7-0.7,1.3-0.9,1.8-1.3c5.4-3,10.9-5.9,16.7-8.2c7.4-2.9,16.5-4.4,24.8-6c0.4-0.1,1,0,1.2-0.3
						C84,122.7,83.7,122.3,83.3,122.4"/>
					<path class="st4" d="M39.1,139.2C39.1,139.2,39.1,139.1,39.1,139.2C39.1,139.1,39.1,139.2,39.1,139.2L39.1,139.2z"/>
					<path class="st4" d="M87,140.6c-0.6-2.6-3.3-4.1-5.6-5.5c-2.5-1.4-5.1-3.1-8.1-3.4c-1.6-0.2-4.1-0.6-6.3-0.1
						c-2.2,0.4-4.2,1.4-6.1,2.3c-0.1,0.1-0.3,0.2-0.3,0.3c-0.2,0.5,0.5,0.9,1,0.6c3-1.6,6.6-2.8,9.4-2.3c3.3,0.2,5.3,1,8.2,2.8
						c2.9,1.7,5.6,2.9,6.3,5.4c0.2,0-0.2,1.6-0.3,1.9c-0.7,1.1-1.3,1.7-2.7,2.3c-0.8,0.4-3.1,0.4-5,0.2c-0.7-0.1-3.5-1.1-4.4-1.4
						c-1.1-0.3-1.2-0.2-2.1-0.7c-1.8-0.9-3.4-1.9-3.3-2.4c0-0.4,0.5-1.4,1.7-1.8c0.7-0.2,2.9-0.4,4.4,0.2c0,0,0.2,0.1,0.4,0.2
						c0.3,0.2,0.8,0.5,0.7,0.4c0.1,0,0.1,0.1,0.1,0.1c0,0,0.1,0.1,0.1,0.1c0,0,0.1,0.1,0.1,0.1c0,0,0,0.1,0,0.1c0,0.6,0,0.7-0.1,0.9
						c0,0,0,0,0,0c0,0,0,0,0,0c-0.1,0-0.2,0-0.3,0.1c-0.3,0-0.6,0-0.9,0c-0.7-0.3-1.6,0.5-0.9,1.1c0.4,0.3,0.9,0.3,1.4,0.3
						c0.7,0,1.5-0.1,1.9-0.7c0.4-0.7,0.5-1.5,0.2-2.2c-0.2-0.6-0.8-0.9-1.4-1.3c-2.1-1.2-5.2-1.4-7.4-0.3c-1.5,1-2.5,2.9-0.9,4.2
						c0.7,0.7,1.6,1,2.5,1.6c0.9,0.5,1.7,1,2.7,1.2c1.1,0.3,2.8,1,4.5,1.5c1.3,0.3,2.6,0.3,4,0.3C84.2,146.7,87.5,143.7,87,140.6"/>
					<path class="st4" d="M30.3,141.8c-0.5-1.5-2.4-2.1-3.9-2.7c-3.5-0.5-7.3-0.2-10.8,0.6c-0.4,0.3-0.1,0.9,0.4,0.8
						c2.1-0.5,3.9-0.6,6.3-0.7c2,0,3.4-0.1,4.8,0.6c2.2,0.9,2.5,1.9,1.4,2.7c-0.2,0.1-0.9,0.1-1.8,0.2c-0.5,0-0.9,0-1.2,0
						c0.1-0.1,0.2-0.2,0.5-0.4c0,0,0.1,0,0.1-0.1c0.2-0.1,0.4-0.2,0.4-0.5c-0.1-1.3-1.9-0.3-2.3,0.3c-0.8,1,0.1,1.7,1.3,1.7
						c1.5-0.1,2.2,0,3.5-0.4C29.9,143.6,30.5,142.6,30.3,141.8"/>
					<path class="st4" d="M117.9,123.4c-0.3-1.1-0.5-1.2-1.2-2.3c-0.1-0.4-1.1-2.1-2.4-3c-2.4-1.7-4.4-2.5-6.5-3.3
						c-1.4-0.5-3.4-1.4-5.8-1.7c-5.6-0.4-10.6-1-16-0.4c-6.5,0.3-12.1,0.9-18.3,2.9c-3.4,0.9-6.9,1.7-10.3,2.8
						c-1.8,0.7-3.1,1.5-4.9,2c-4.5,1.4-8.4,2.9-12.7,4.4c-3,1.4-6.1,2.7-8.9,4.5c-0.3,0.3,0.2,0.9,0.6,0.6c6.7-4,13.2-5.9,20.6-8.4
						c2-0.5,4.4-1.8,5.9-2.3c4.7-1.4,9.5-2.6,14.3-3.8c4.5-1.1,7.5-1.2,12.2-1.4c2.1-0.1,4.2-0.4,6.3-0.4c0.8,0.2,3.6,0.1,5,0.3
						c3,0.4,5.2,0.2,7.9,1c3.2,1.2,5.1,1.8,8.7,3.9c0.9,0.6,2.2,1.8,2.5,2.8c0.1,0.4,0.8,1.2,1,1.8c0.2,0.3,0.1,0.1,0.2,0.4
						c0,0.1-0.1,0.3,0,0.4C116.7,125.1,118.2,124.3,117.9,123.4"/>
					<path class="st4" d="M105.9,125.6c-0.3-0.8-0.9-1.2-1.2-1.6c-0.6-0.6-1.3-1.2-2.1-1.6c-3.1-1.8-6.8-2.3-10.3-2.8
						c-4-0.5-8-0.5-12.3,0c-3.7,0.6-7.3,1.5-10.9,2.5c-1.9,0.6-4.1,0.9-5.9,1.9c-0.2,0.4,0.2,0.8,0.6,0.7c9.1-2.9,18.4-5.4,27.5-4.2
						c2.3,0.2,6.3,0.9,8.4,1.7c1.4,0.7,2.5,1.2,3.4,2c0.1,0.2,1.5,1.5,1.4,1.6c0.5,1.1,0.6,1.8,0.3,2.6c0,0.1,0,0.2,0,0.3
						c-0.1,0.2-0.1,0.5,0.1,0.7c0.3,0.4,1.2,0.3,1.3-0.2c0.2-0.5,0.1-0.5,0.2-0.7C106.5,127.5,106.3,126.5,105.9,125.6"/>
					<path class="st4" d="M51.7,128.7c-5,1.8-9.8,3.2-14.8,5.3c-1.6,0.6-3.1,1.2-4.7,1.9c-0.1,0.1-0.2,0.2-0.3,0.3
						c-0.1,0.4,0.4,0.8,0.8,0.6c6.8-3,13.1-5,19.5-7.2C52.8,129.2,52.3,128.5,51.7,128.7"/>
					<path class="st4" d="M25.6,131c-1.8,0.8-4.7,0.9-7.4,0.8c-0.6,0-0.7-0.2-1.7-0.1c-0.5,0.2-0.4,0.9,0.2,1
						c2.5,0.3,6.4,0.3,9.3-0.7c0.5-0.3,1.5-0.3,1.7-0.9C27.6,130,26.2,130.7,25.6,131"/>
					<path class="st4" d="M83.6,132.1c-0.1-0.1-0.2-0.2-0.2-0.2c-2-1.6-4.3-2.7-6.8-3.6c-0.8-0.2-1.5-0.7-2.3-0.7
						c-0.7,0.1-0.8,1.1-0.1,1.2c3.1,1.1,5.8,2.2,8.4,4.2l0,0c0,0,0,0,0,0c0,0,0.1,0,0.1,0.1c0.1,0.1,0.2,0.1,0.1,0.1
						C83.4,133.2,84,132.6,83.6,132.1"/>
					<path class="st4" d="M83.6,132.1C83.6,132.1,83.6,132,83.6,132.1C83.5,132,83.6,132.1,83.6,132.1"/>
					<path class="st4" d="M83.6,132.1C83.6,132.1,83.6,132.1,83.6,132.1C83.6,132.1,83.6,132.1,83.6,132.1
						C83.6,132.1,83.6,132.1,83.6,132.1"/>
					<path class="st4" d="M93.7,144C93.7,144,93.7,144,93.7,144c0-0.1,0-0.1,0-0.2c0-1.6-1.9-3.7-3.3-5.3c-0.6-0.5-0.6-1-1.5-1.5
						c-0.6-0.2-1.1,0.5-0.8,0.9c1.5,1.9,4.3,4.7,4.2,6c-0.1,0.8,1.1,1.2,1.4,0.4C93.7,144.2,93.7,144.1,93.7,144"/>
					<path class="st4" d="M114.7,130.4c-0.7,0.1-0.5,0.2-0.8,0.5c-2.1,2.2-4,4.5-6.4,6.4c-0.9,0.4-2.5,1.7-3.5,2.2
						c-1.3,0.5-4,1.3-6,1.6c-0.8,0.2-0.4,1.2,0.3,1c2.5-0.5,6.2-1.2,7.6-2.5c3.5-1.8,6.4-5.2,9.4-8.2
						C115.7,131.1,115.4,130.4,114.7,130.4"/>
					<path class="st4" d="M63.4,136.4c-0.5-0.1-0.9,0.2-1.4,0.4c-1.6,0.7-3,1.8-4.5,2.7c-0.5,0.4-1.3,0.8-1.5,1.3
						c0,0.4,0.6,0.6,0.9,0.3c1.4-1.1,4.1-2.8,5.6-3.5c0.4-0.2,0.9-0.2,1.1-0.5C64,136.9,63.8,136.5,63.4,136.4"/>
					<path class="st4" d="M94.6,146.5c-0.3-0.1-0.6,0.1-0.9,0.2c-1,0.5-2.3,0.6-3.8,1c-1.4,0.3-2.5,0.8-3.6,0.8
						c-2.3,0.3-4.6-0.1-6.9-0.1c-0.5,0.2-0.4,0.9,0.2,0.9c3.3,0.2,6.7,0.6,9.8-0.5c2-0.6,4.3-0.8,5.4-1.5
						C95.2,147.1,95,146.6,94.6,146.5"/>
					<path class="st4" d="M11.4,137.6c-1.1-0.9-1.7-2.4-2-4.5c-0.1-0.7-0.2-1.3-0.2-2.3c0-0.2-0.1-0.3-0.2-0.4
						c-0.4-0.4-1.2-0.1-1.1,0.4c0.1,2.8,0.5,6,3.1,8c0.3,0.2,0.7,0.6,1.2,0.4C13.1,138.8,11.9,138,11.4,137.6"/>
				</g>
			</g>
			<g style="clip-path:url(#SVGID_00000136409042731762573380000011647297023204589501_);">
				<g>
					<path class="st5" d="M114.9,116.1C114.9,116.1,114.9,116.1,114.9,116.1C114.9,116.1,114.9,116.1,114.9,116.1"/>
					<path class="st3" d="M21,89.1c-1,1.9-3.6,5.6-4.2,7c0.2,0.5,0.8,0.2,1-0.2c1.4-2.1,2.7-4.3,4-6.4C22.1,89.1,21.3,88.7,21,89.1"
						/>
					<path class="st3" d="M24.2,94.2c-1.2,1.8-2.4,3.7-3.5,5.5c-0.1,0.2,0.1,0.4,0.4,0.5c0.3,0.1,0.6-0.1,0.7-0.4
						c0.4-0.4,0.6-1,0.9-1.5c0.6-1.2,2.1-2.9,2.4-4.1C25,93.9,24.4,93.9,24.2,94.2"/>
					<path class="st3" d="M24.5,104.1c-0.9,1.6-1.9,3.2-2.9,4.8c-0.1,0.3-0.5,0.6-0.4,1c0.1,0.3,0.4,0.4,0.7,0.4
						c0.3-0.1,0.4-0.3,0.5-0.5c1-1.7,2.1-3.4,3.1-5.2C25.9,104.1,24.9,103.5,24.5,104.1"/>
					<path class="st3" d="M13.4,101.3c-1,1.9-2,3.7-3,5.5c-0.1,0.3-0.4,0.5-0.3,0.8c0.1,0.3,0.4,0.4,0.7,0.4
						c0.5-0.2,0.6-0.8,0.9-1.2c0.9-1.7,1.8-3.3,2.7-5C14.8,101.3,13.8,100.8,13.4,101.3"/>
					<path class="st3" d="M17.9,104.7c-0.9,1.5-1.8,3-2.8,4.4c-0.2,0.3-0.4,0.5-0.5,0.8c-0.1,0.4,0.4,0.7,0.8,0.6
						c1.4-1.2,2.5-3.8,3.6-5.3C19.4,104.6,18.3,104,17.9,104.7"/>
					<path class="st3" d="M16.9,115.3c-0.8,1.7-1.7,3.5-2.7,5.1c-0.3,0.4,0.3,1,0.8,0.7c1.2-1.7,2-3.7,2.9-5.5
						C18.1,115.1,17.2,114.8,16.9,115.3"/>
					<path class="st3" d="M22.8,116.9c-1,1.7-1.9,3.4-2.7,5.1c-0.3,0.5,0.3,1.1,0.9,0.8c1.1-1.6,1.9-3.6,2.9-5.3
						C24.3,116.8,23.2,116.3,22.8,116.9"/>
					<path class="st3" d="M31.5,103.7c-0.9,1.7-1.7,3.3-2.6,5c-0.2,0.3,0,0.7,0.4,0.8c0.3,0.1,0.6,0,0.7-0.2
						c0.7-1.2,1.3-2.5,1.9-3.7c0.2-0.6,0.8-1.1,0.7-1.7C32.5,103.4,31.7,103.3,31.5,103.7"/>
					<path class="st3" d="M43.4,93.4c-0.9,1.8-1.9,3.6-2.9,5.3c-0.3,0.4,0.3,1,0.8,0.7c1.3-1.8,2.2-3.8,3.2-5.7
						C44.6,93.2,43.7,92.9,43.4,93.4"/>
					<path class="st3" d="M35.2,110.9c-1,1.8-1.9,3.5-2.9,5.3c-0.3,0.4,0.2,0.9,0.6,0.7c0.2-0.1,0.4-0.2,0.4-0.4
						c1-1.7,1.9-3.4,2.8-5.1C36.7,110.8,35.6,110.3,35.2,110.9"/>
					<path class="st3" d="M44,103.5c-0.4,0.8-1,1.6-1.3,2.5c-0.1,0.3,0.2,0.5,0.4,0.6c0.3,0.1,0.6-0.1,0.7-0.3
						c0.4-0.8,1-1.6,1.4-2.4C45.2,103.3,44.3,103,44,103.5"/>
					<path class="st3" d="M52.3,99.7c-0.6,1.2-1.3,2.3-1.9,3.5c0,0.2,0.1,0.4,0.3,0.5c0.3,0.1,0.7,0,0.8-0.2
						c0.6-1.1,1.2-2.2,1.9-3.3C53.7,99.7,52.7,99.1,52.3,99.7"/>
					<path class="st3" d="M44.5,111.9c-0.7,1.3-1.4,2.6-2.1,3.8c-0.2,0.3-0.1,0.7,0.4,0.8c0.3,0.1,0.6-0.1,0.7-0.3
						c0.7-1.2,1.4-2.3,2-3.5C46.1,112,45.2,111.1,44.5,111.9"/>
					<path class="st3" d="M59.8,101.7c-1,2-2.1,3.9-3.2,5.8c-0.3,0.4,0.1,0.9,0.7,0.8c0.6-0.3,0.7-1,1-1.5c0.9-1.5,1.7-3.1,2.6-4.6
						C61.3,101.6,60.2,101.1,59.8,101.7"/>
					<path class="st3" d="M67.5,100.6c-0.5,0.8-1.1,1.5-1.4,2.3c-0.1,0.2,0.1,0.5,0.3,0.6c0.6,0.3,0.9-0.2,1.1-0.6
						c0.4-0.6,0.9-1.2,1.2-1.9C68.8,100.4,67.8,100.1,67.5,100.6"/>
					<path class="st3" d="M64.2,106.5c-0.7,1.2-1.5,2.3-2.1,3.5c0,0.1,0,0.3,0.1,0.4c0.7,0.7,1.2-0.2,1.5-0.7
						c0.6-0.9,1.1-1.7,1.6-2.6C65.8,106.4,64.6,105.8,64.2,106.5"/>
					<path class="st3" d="M74.8,101c-0.8,1.5-1.8,3-2.7,4.5c-0.1,0.2-0.1,0.5,0,0.6c0.4,0.5,1.1,0.1,1.3-0.4
						c0.6-0.9,1.1-1.9,1.7-2.8c0.2-0.6,0.9-1.2,0.9-1.8C75.9,100.6,75.1,100.5,74.8,101"/>
					<path class="st3" d="M82.5,100.5c-1.2,1.9-2.4,3.9-3.7,5.8c-0.4,0.4,0.2,1.1,0.8,0.9c0.7-0.3,0.8-1,1.2-1.5
						c1-1.5,1.9-3.1,2.9-4.6C84.1,100.5,82.9,99.9,82.5,100.5"/>
					<path class="st3" d="M93.1,100.5c-0.1-0.5-0.9-0.6-1.2-0.1c-0.6,1.2-1.3,2.3-2,3.4c-0.1,0.2-0.1,0.4,0,0.6
						c0.4,0.5,1.1,0.1,1.2-0.4c0.5-0.9,1.1-1.7,1.6-2.6C92.9,101.1,93.2,100.8,93.1,100.5"/>
					<path class="st3" d="M97.7,102.3c-0.7,1.2-1.5,2.3-2.2,3.4c-0.3,0.4,0.1,0.9,0.6,0.8c0.4-0.2,0.6-0.6,0.9-0.9
						c0.7-1,1.4-1.9,1.9-2.9C99,102,98,101.8,97.7,102.3"/>
					<path class="st3" d="M116.3,92.6c-0.3,0.6-1,1.1-1,1.7c0.1,0.4,0.8,0.5,1,0.1c0.3-0.5,0.8-1,1-1.6
						C117.4,92.4,116.6,92.2,116.3,92.6"/>
					<path class="st3" d="M106.9,102.7c-0.8,1.3-1.7,2.6-2.5,3.9c-0.1,0.1-0.1,0.3-0.1,0.5c0.3,0.8,1.4,0.5,1.6-0.2
						c0.8-1.1,1.5-2.2,2.2-3.4C108.8,102.8,107.6,101.9,106.9,102.7"/>
					<path class="st7" d="M7.4,91.5c-0.2,0.9-0.7,1.8-0.9,2.7c0,0.2,0.2,0.3,0.3,0.3c0.2,0.1,0.5-0.1,0.6-0.3
						c0.3-0.9,0.7-1.7,0.9-2.6C8.5,91.2,7.6,91,7.4,91.5"/>
					<path class="st7" d="M16.2,83.7c-0.9,2-2.3,4.4-3.3,6.3c-0.1,0.3,0.3,0.5,0.6,0.4c0.2-0.1,0.3-0.3,0.4-0.5c1-1.9,2.3-4.2,3-5.8
						C17.2,83.6,16.5,83.2,16.2,83.7"/>
					<path class="st7" d="M10.6,95.6c-1.1,1.5-2,3.2-2.8,4.8c-0.2,0.5,0.6,0.8,1,0.5c0.8-1.4,1.6-3.2,2.8-4.8
						C11.9,95.6,11,95.1,10.6,95.6"/>
					<path class="st7" d="M114.4,98.9c-0.5,0.9-1.1,1.9-1.5,2.8c-0.1,0.4,0.4,0.6,0.8,0.4c0.7-0.9,1.2-2,1.7-3
						C115.5,98.7,114.7,98.5,114.4,98.9"/>
					<path class="st7" d="M113.7,105.9c-0.7,1.2-1.3,2.4-1.9,3.7c-0.1,0.2,0.1,0.5,0.4,0.5c0.2,0.1,0.5,0,0.6-0.2
						c0.5-0.8,0.9-1.7,1.4-2.6c0.2-0.4,0.6-0.8,0.5-1.3C114.6,105.6,113.9,105.5,113.7,105.9"/>
					<path class="st7" d="M121.6,93.2c-1.1,2.2-2.2,4.4-3.3,6.6c-0.2,0.3,0,0.6,0.3,0.7c0.2,0.1,0.5,0,0.6-0.2
						c0.8-1.5,1.5-3.1,2.3-4.6c0.3-0.8,1-1.6,1.1-2.4C122.5,92.9,121.8,92.8,121.6,93.2"/>
					<path class="st7" d="M120.4,104.4c-0.5,1-1.1,2.1-1.6,3.1c-0.1,0.6-1,1.4-0.4,1.9c0.3,0.3,0.9,0.1,1-0.3
						c0.6-1.2,0.9-1.8,1.5-3.1c0.2-0.5,0.7-1,0.6-1.5C121.5,104,120.7,104,120.4,104.4"/>
					<path class="st7" d="M27.4,86.8c-0.2-0.4-1-0.3-1.1,0.1c-0.4,0.8-0.8,1.6-1.3,2.7c0,0.1,0,0.3,0.1,0.4c0.7,0.7,1.2-0.4,1.4-0.9
						C26.8,88.4,27.6,87.4,27.4,86.8"/>
					<path class="st7" d="M27.6,116.6c-0.7,1.6-1.3,3.3-2,4.9c-0.1,0.4,0.4,0.8,0.8,0.5c1-1.6,1.4-3.5,2.3-5.2
						C28.9,116.2,27.8,116,27.6,116.6"/>
					<path class="st7" d="M37.3,100c-0.3,1.3-0.8,2.5-1.2,3.7c-0.2,0.4-0.5,1.1,0.3,1.2c0.6,0,0.6-0.6,0.8-0.9
						c0.5-1.2,1-2.5,1.2-3.7C38.6,99.7,37.5,99.4,37.3,100"/>
					<path class="st7" d="M52.6,107.4c-0.2-0.4-1-0.3-1.1,0.1c-0.6,1.6-1.1,3.1-1.6,4.7c-0.1,0.2,0,0.4,0.2,0.5c0.5,0.3,1-0.1,1-0.5
						c0.2-0.8,0.5-1.6,0.8-2.3C52.1,109.1,52.9,108,52.6,107.4"/>
					<path class="st7" d="M47.7,92.8c-0.6,1.4-1.1,2.9-1.7,4.3c-0.1,0.3,0.2,0.7,0.6,0.7c0.3,0,0.5-0.2,0.6-0.4
						c0.6-1.4,1.1-2.9,1.7-4.3C49.1,92.5,47.9,92.2,47.7,92.8"/>
					<path class="st7" d="M38.6,113.4c-0.6,1.3-1.7,3.5-2,4.4c-0.2,0.2-0.1,0.6,0.2,0.7c0.5,0.3,0.9-0.2,1-0.6
						c0.4-1,0.8-1.9,1.3-2.9c0.2-0.6,0.5-0.8,0.6-1.5C39.5,113.1,38.9,113,38.6,113.4"/>
					<path class="st7" d="M101.9,102.4c-0.4,0.9-1.3,2.5-1.8,3.7c-0.1,0.2,0.1,0.5,0.4,0.5c0.2,0.1,0.5,0,0.6-0.2
						c0.6-1.3,1.3-2.5,1.9-3.8C103.2,102.1,102.1,101.8,101.9,102.4"/>
					<path class="st7" d="M12.7,112.9c-0.2-0.4-1-0.3-1.1,0.1c-0.6,1.6-1.1,3.1-1.8,4.7c-0.3,0.4-0.3,1.1,0.6,1
						c0.4-0.1,0.5-0.4,0.6-0.7c0.6-1.4,1-2.9,1.6-4.3C12.6,113.5,12.9,113.2,12.7,112.9"/>
					<path class="st7" d="M25.9,108.8c-0.5-0.1-0.7,0.3-0.9,0.7c-0.4,1-0.9,2-1.3,3.1c-0.2,0.6,0.9,0.9,1.1,0.3
						c0.4-1.1,0.9-2.2,1.4-3.4C26.4,109.1,26.2,108.8,25.9,108.8"/>
					<path class="st7" d="M56.7,99.6c-0.4,0.8-0.8,1.6-1.2,2.4c-0.1,0.2,0,0.4,0.2,0.5c1.1,0.6,1.3-1.5,2-2.4
						C58.1,99.5,57.1,99,56.7,99.6"/>
					<path class="st3" d="M109.1,90.5C109.2,90.4,109.2,90.4,109.1,90.5"/>
					<polygon class="st3" points="109.1,90.5 109.1,90.5 109.1,90.5 					"/>
				</g>
				<g>
					<g>
						<path class="st8" d="M127.3,57.3c-0.5-3.9-2.9-7.4-5.3-10.7c-1.2-1.7-2.2-3.6-3.6-5.2c-2-2.1-4.2-4.1-6.2-6.2
							c-5.7-5.4-13.6-8.3-20.8-12c-3.2-1.5-6.2-3.3-9.6-4.3c-4.5-1.4-9.2-2.1-13.9-2.1c-3.3,0-13.5-2.2-31.2,8
							c-15.9,9.2-17.6,14.4-24.5,22c-1,1.1-1.9,2.2-2.7,3.3c-2,2.8-3.9,5.7-5.5,8.6C3.4,59.9,3,61,2.5,62.2
							c-0.1,0.1-0.1,0.3-0.2,0.4c-1.1,2.9-2.1,5.9-2.9,8.9c-0.4,3.3-0.5,6.7,0.5,10c0.1,2,1.5,3.7,3.2,4.9c2.7,1.8,6.8,0.6,9.1-1.3
							c3.6-3.2,6.6-6.8,9.1-10.8c0,3,1,6,3.2,8.3c2.1,2,4.7,4.1,7.8,4.7c4.9,0.5,8.7-4.1,11.4-7.1c2.2-2.5,4.2-5.1,5.1-8.2
							c0.4-1.5,0.9-3,1.4-4.5c0.7,4.9,2.1,9.9,8,11.4c7.1,1.4,14.4-2.4,17.4-8c2-3.6,1.1-7.6,1.4-11.4c0-0.2,0-0.4,0.1-0.6
							c1.3,4.6,3.3,9.3,7,12.8c4,3.6,10,6,14.3,1.3c2.3-2.6,3.2-5.9,3.9-9.1c1,2.6,2.9,4.9,5.3,6.7c1.6,1.1,3.1,2.4,5,3
							c2.8,0.7,5.9,1,8.7,0.1c1.2-0.6,2-1.5,2.8-2.4c1.3-1.4,2.5-3,2.9-4.7C127.4,63.7,127.1,60.3,127.3,57.3"/>
						<g>
							<path class="st3" d="M12.9,76.2c-0.3-0.5-0.9-0.3-1.2,0.1c-0.1,0.1-0.6,0.5-0.8,0.6c-1.5,0.8-2.6,1.5-3.8,1.4
								c0,0-0.1,0-0.1,0c-0.3-0.1-1-0.4-1.1-0.5c-0.8-0.6-1.1-1-1.1-1.2c-0.1-1.9,0.2-3.4,0.6-5.1c0-0.5-0.9-0.6-1.1-0.1
								c-0.4,1.1-0.5,2.3-0.7,3.5c-0.1,0.8-0.2,1.6,0.2,2.3c0.7,1.2,2.2,2.2,3.8,2C8.4,79.2,9,79,9.6,78.7c0.9-0.4,1.8-0.8,2.5-1.4
								C12.4,76.9,13.1,76.7,12.9,76.2"/>
							<path class="st3" d="M9.9,65.7c-0.2,0-0.5-0.1-0.7-0.1c-2.5-0.7-1.4-4.7,0-7.8c0.2-0.6-0.9-0.9-1.1-0.3C7.3,59,7,60.5,6.6,62
								c-0.2,1.2-0.3,2.5,0.6,3.5c0.6,0.7,1.8,1.4,2.9,1.2C10.5,66.5,10.4,65.9,9.9,65.7"/>
							<path class="st3" d="M32.1,81.3c-0.1,0-0.2,0-0.3-0.1c-0.4-0.2-1.4-1.1-2.1-1.8c-0.6-0.6-1.1-1.2-1.7-2.2
								c-0.1-0.1-0.2-0.2-0.4-0.3c-0.6-0.2-1.1,0.4-0.8,0.9c0.6,1.1,4.2,5.7,5.7,4.4C32.7,81.9,32.5,81.4,32.1,81.3"/>
							<path class="st3" d="M20,42.5c0.2-0.2,0.6-0.4,0.6-0.8c0-0.5-0.7-0.8-1.1-0.4c-1.1,0.9-1.6,2.2-2.2,3.4
								c-0.4,0.8-0.4,2.1,0.5,2.5c0.8,0.2,1.1-0.6,0.6-1.1c0,0,0,0,0,0c0-0.1,0-0.1-0.1-0.2C18.3,45,19.3,43.2,20,42.5"/>
							<path class="st3" d="M31.5,30c-1.6,1.1-3.3,2.1-4.4,3.6c-0.3,0.5-0.7,1.2-0.4,1.8c0.2,0.7,1.4,0.8,1.5,0
								c0-0.1-0.1-0.3-0.2-0.4c0-1.2,2.5-2.8,4.2-4C32.9,30.6,32.2,29.6,31.5,30"/>
							<path class="st3" d="M61.5,26c-1.6,0.3-2.5,0.7-3.6,0.3c-0.8-0.1-1.6-2.3-1.4-3.3c0-0.3,0.3-0.4,0.4-0.9
								c0.1-0.5-0.8-0.8-1.1-0.3c-0.6,0.7-0.6,1.5-0.5,2.3c0.1,1,0.5,2.1,1.4,2.8c1.4,1,3.4,0.5,5,0.1C62.7,26.9,62.3,25.8,61.5,26"
								/>
							<path class="st3" d="M48.1,25.2c-0.2,0-0.4-0.1-0.9-0.4c-0.1-0.1-0.3-0.3-0.5-0.4c-0.2-0.2-0.5-0.7-0.4-0.6c0,0,0,0,0,0
								c0-0.2,0.1-0.3,0.1-0.5c-0.1-0.6-1.2-0.7-1.3-0.1c-0.7,1.5,2.3,3.8,3.9,3C49.5,25.7,48.8,25.1,48.1,25.2"/>
							<path class="st3" d="M77,22.5c-0.8,0-1.4,0.3-1.8,0.2c-1.9,0.1-3,0.2-3.4-0.5c-0.3-0.5-0.3-0.9-0.4-1.6
								c-0.2-0.5-1.2-0.4-1.2,0.2c-0.1,1.3,0.7,2.8,2.3,3c1.5,0.1,3.2,0.1,4.7-0.4C77.6,23.2,77.5,22.6,77,22.5"/>
							<path class="st3" d="M94.8,29.9c-0.4,0.1-0.6,0.1-1.3-0.1c-0.3,0-2.3-2-2.4-2.3c-0.2-0.3-0.2-0.7-0.5-0.9
								c-0.5-0.3-1.1,0.2-0.9,0.6c0.2,0.8,0.9,1.5,1.5,2.2c0.9,1,2.3,2,3.8,1.7c0.5-0.1,1.3-0.1,1.4-0.6
								C96.3,29.5,95.4,29.7,94.8,29.9"/>
						</g>
					</g>
					<g>
						<path class="st3" d="M136.9,67.6c-0.5-1.1-1.6-1.9-2.9-2.3c-0.3-0.1-0.6-0.2-0.9-0.3c0-2.6-0.3-5.2-1.5-7.5
							c-1.5-2.8-4.5-5-7.6-6.4c-3.1-1.1-6.4-0.6-9.5,0.4c-0.3,0.1-0.7,0.2-1,0.3c0.4-0.5,0.9-1.1,1.2-1.7c0.8-1.1,1.1-2.4,1-3.7
							c0-1.9,0-3.8-0.3-5.7c-0.8-1.9-2.4-3.5-4.5-4.6c-2.2-0.9-4.6-1.6-7-1.9c-3.1,0.2-6.2,1.1-8.8,2.4c-1.8,0.9-3.6,1.8-5.2,3
							c0.2-1,0.3-2.7,0.1-3.8c-0.5-2-1.6-4-3.3-5.4c-3.7-2.4-8.6-4.1-13.3-3c-2.5,0.7-4.8,1.7-6.9,3c-2.6,1.9-5.3,4.5-7.2,6.5
							c0-0.2,0-0.5,0-0.5c0-5.9-6.6-8.4-12.8-6.8c-7.1,1.8-13.6,5.7-16.8,11.4c-0.7,1.3-1.1,2.9-1.2,4.4c-0.5,0.3-1,0.5-1.5,0.8
							c-3.9,2.3-6.8,5.5-9.4,8.8c-2.3,2.4-2.9,5.6-2.2,8.6c0.3,1,0.6,2.1,1.3,3c0.9,1,2.2,1.7,3.5,2.2c4.8,1.7,9.4-0.9,13.2-3.6
							c-0.5,1.4-0.8,2.8-1,4.2c-0.3,2.5-0.9,5.6,2,7.2c3.9,2.8,9.7,1.5,13.9-0.1c0.8-0.2,1.9-0.7,3-1.2c-1,2.3-1.6,4.7-1.8,7.1
							c-0.3,2.1-0.4,4.4,0.7,6.3c0.7,1,1.3,2.2,2.4,2.9c1.9,1.2,4,2.3,6.4,2.7c3.4,0.4,6.6-1,9.4-2.3c4-1.7,6.9-4.6,9.2-7.8
							c-0.2,1.3-0.3,2.6-0.1,3.9c0.5,4.3,4.5,9,10.2,7.6c1.6-0.5,3.3-0.8,4.6-1.6c2.3-1.4,3.9-3.5,5.3-5.5c0.3-0.5,0.7-1.1,1-1.6
							c-0.1,3.5,0.7,7.2,4.6,8.4c2.8,0.7,5.6-0.6,7.6-2.2c1.9-1.5,3.3-3.3,4.1-5.4c0.5,0.4,1.1,0.7,1.8,1c0.8,0.4,1.6,0.7,2.5,0.9
							c1.9,0.7,3.8,0.8,5.7-0.3c0,0,0.1,0,0.1-0.1c1.9-0.4,3.8-1.2,4.9-2.5c1.5-1.6,2.1-3.7,2.1-5.8c0.8-0.5,1.5-1.1,2.3-1.6
							c2.6-1.7,3.8-4.7,4.1-7.5C138.2,70.5,137.5,69,136.9,67.6"/>
						<g>
							<path class="st8" d="M29,53.8c0.4-0.4-0.2-1-0.7-0.7c-1.5,0.8-3.2,1.6-4,3c-0.9,1.2-0.8,4,1.6,4.6c0.5,0.1,0.9-0.4,0.6-0.8
								c-0.2-0.2-0.5-0.3-0.8-0.5c0,0,0,0-0.1-0.1c-1.1-0.8-0.8-2.7,0.5-3.7C26.8,54.9,27.8,54.5,29,53.8"/>
							<path class="st8" d="M44.2,37.3c-1.1-0.2-1.6-0.3-2.8,0.2c-1.1,0.3-1.9,1-2.6,1.8c-0.7,1.1-1,2.4-1,3.7c0,0.3,0,0.6,0.4,0.7
								c0.3,0.1,0.8-0.1,0.7-0.4c-0.2-2.2,0.8-4.3,2.7-4.8c1-0.3,0.9-0.4,1.6-0.3c0.3,0,0.7,0.2,1.1,0.1
								C44.8,38,44.7,37.4,44.2,37.3"/>
							<path class="st8" d="M75.5,47.8c-1.5,0.4-2.6,1.3-3.9,2c-0.6,0.4-1.3,0.9-1.5,1.6c-0.8,2-0.3,4.8,2.6,5.2
								c0.5,0,0.8-0.7,0.4-1c-0.3-0.2-0.7-0.2-1.3-0.6c-0.8-0.4-1.1-3.1-0.1-3.8c1.1-0.8,2.8-2,4.2-2.4
								C76.6,48.6,76.3,47.6,75.5,47.8"/>
							<path class="st8" d="M80.4,37.3c-0.3-0.5-1.6-1.2-2.7-1.4c-0.8-0.1-1.6,0.1-2.4,0.4c-1.3,0.5-2.3,1.4-3.2,2.4
								c-0.2,0.1-0.2,0.4-0.1,0.6c0.1,0.3,0.7,0.4,1,0.2c0.9-0.9,1.5-1.6,2.5-2c0.2-0.2,1.7-0.4,1.9-0.4c0.6,0.1,1.1,0.4,1.8,0.8
								C79.6,38.1,80.5,38,80.4,37.3"/>
							<path class="st8" d="M102.1,41.7c-2.7,0-5.7,0.9-6.8,3.2c-0.4,0.6-0.5,1.3-0.5,2c0,0.3,0.1,0.6,0.4,0.8c0.4,0.2,0.9,0,1-0.4
								c0.1-0.5-0.1-0.3,0-0.8c0-0.6,0.6-1.8,1.7-2.5c0.3-0.3,3-1.1,3.9-1C102.8,43.1,103.2,41.8,102.1,41.7"/>
							<path class="st8" d="M86,50.3c-1.4,1.7-3.1,4.1-2.1,6.3c0.2,0.4,0.7,1,1.2,0.8c1-0.3,0.3-1.1,0.1-1.2c0,0,0,0,0-0.1
								c-0.1-0.2-0.2-0.4-0.2-0.7c0-1.5,0.9-2.9,2.2-4.6C87.7,50.2,86.5,49.6,86,50.3"/>
							<path class="st8" d="M107.8,66.3c-0.4-1.8-1.8-3.2-4.1-3.4c-1.3,0-2.5,0.5-3.6,0.9c-0.4,0.2-1,0.4-0.9,0.9
								c0,0.4,0.6,0.6,1,0.4c2.1-1,4.1-1.5,5.3-0.3c0.7,0.3,1.2,2.4,1.2,3.1c0,0.6,0.9,0.9,1.3,0.4
								C108.3,67.7,107.8,66.9,107.8,66.3"/>
							<path class="st8" d="M108.2,54.4c-0.9-0.8-2.2-0.8-3.4-0.8c-1.1,0-2.3,0-3.3,0.4c-1.1,0.2-0.8,1.5,0.2,1.1
								c1.5-0.6,4.8-0.7,5.8,0.2c0.3,0.2,0.1,0.2,0.5,0.4C109,55.7,109,54.8,108.2,54.4"/>
							<path class="st8" d="M124.3,57.4c-1.2,0.2-2.3,0.9-3.3,1.5c-0.8,0.5-1.7,1-2.2,1.8c-0.6,1.1-0.3,2.5,0.6,3.5
								c0.3,0.3,0.4,0.7,0.8,0.8c0.4,0.1,0.9-0.2,0.9-0.6c-0.1-0.5-0.6-0.8-0.8-1.3c-0.5-0.9-0.6-1.3,0-2.1c0.2-0.3,2.9-2,3.6-2.3
								c0.4-0.1,0.9-0.1,1.1-0.5C125.4,57.9,124.9,57.3,124.3,57.4"/>
							<path class="st8" d="M126.5,78.2c-1.2-0.8-2.9-0.9-4.3-0.7c-1.1,0.3-2,1.1-2.7,1.9c-0.6,0.8-1.3,1.6-1.3,2.5
								c0,0.6,1.1,0.6,1.2,0.1c0.2-1.1,1.5-2.5,2.1-2.9c0.7-0.6,1.7-0.5,2.2-0.5c1.5,0.1,1.5,0.5,2.5,0.8
								C127.1,79.3,127.2,78.4,126.5,78.2"/>
							<path class="st8" d="M131.6,70.1c-0.6-0.6-2.4-1.2-3.8-0.9c-1,0.1-2,0.3-2.8,0.9c-0.5,0.5,0.3,1.3,0.9,0.9
								c1.5-0.8,3.8-0.8,4.7,0c0.5,0.3,0.8,0.7,1.3,0.9c0.4,0.2,1-0.1,0.9-0.5C132.7,70.7,132,70.5,131.6,70.1"/>
						</g>
					</g>
					<g>
						<path class="st14" d="M65.9,64.2c-2.6-0.5-5.3,0.2-8,0.1c-3,0.1-6.5-0.3-10,0.2c2.6-2.4,5.4-4.3,8.3-7.3
							c3.7-3.9,7.6-7.7,11.8-11.2c1-0.8,1.2-2.1-0.2-2.5c-3.3-1.1-14-1.2-14.5-1c-0.7,0.3-11.1,15-16.3,21.4
							c-2.5,2.8-5.3,5.6-7.3,8.8c-0.4,2.6,3.4,0.8,13.4,1.1c1,0,2.9-0.1,4.4-0.3C47,74.1,36,88.7,31.1,98c0,0.8,1,1.3,1.8,1
							c0.9-0.4,1.5-1.2,2.2-1.9c2.3-2.3,4.9-4.4,7.3-6.6c4.9-4.7,9.5-9.6,14.3-14.3c2.5-2.4,5.2-4.7,7.6-7.3
							C65.2,67.7,68.2,65.5,65.9,64.2"/>
						<path class="st6" d="M57.2,66.8c-0.8,0.2-1.6,0.5-2.5,0.6c-0.8,0.1-3.1,0.3-4,0.4c-3.4,0.5-7.2,0.6-11.1,1.4
							c-0.7,0.2-2,0.6-2.9,0.8c3-3.4,5.5-6.1,8.5-9.3c2.5-3,4.1-5.2,6.7-7.9c1.9-2.3,4.4-5,6.1-7.9c0.1-0.5-0.7-0.8-1-0.3
							c-4,5.9-8.8,10.3-12.8,15.4c-1.5,1.5-3.3,3.6-4.9,5.3c-1.2,1.2-2.2,2.4-3.2,3.6c-0.2,0.3-0.8,0.8-1.1,1.4
							c-0.1,1.4,2,0.7,2.9,0.5c1.4-0.4,2.9-0.8,4-0.8c3-0.3,6.8-0.7,9.4-1c1.3-0.2,2.5-0.2,3.8-0.4c0.8-0.2,1.7-0.5,2.5-0.7
							c-2.1,3.9-5.9,7.9-9.2,11.3c-3.8,3.7-7.9,7.6-10.6,11c-0.2,0.3-1.6,1.5-1.7,2.1c0,0.5,0.8,0.8,1.2,0.4c2.2-2.3,4-4.9,6.7-7.6
							c4.4-4.4,8.9-8.6,12.6-13.5c1.1-1.3,1.8-2.8,2.6-4.2C59.7,66.4,57.8,66.6,57.2,66.8"/>
					</g>
					<g>
						<path class="st8" d="M112,85.9c-0.8-0.7-1.7-1.5-2.7-1.9c0.6-0.5,1.2-1,1.5-1.7c1.2-3-1.6-5.9-4.3-7.5
							c-3.3-1.9-6.8-2.5-10.2-1.5c0.3-0.9,0.8-1.9,0.6-2.8c-0.3-1.9-1.7-3.6-3.5-4.8c-2.5-1.8-5.4-3.7-8.6-1.9
							c-0.7,0.4-1.2,1-1.6,1.6c-2.2-0.5-4.6-0.3-6.8,0.2c-2.9,0.7-4.7,3.5-4.3,6.1c0.1,0.5,0.1,1,0.1,1.6c-0.5-0.2-1-0.3-1.6-0.2
							c-1.3,0.1-2.5,0.5-3.7,0.8c-1.4,0.4-2.8,0.8-3.9,1.6c-1.2,0.9-2.2,1.9-2.9,3.2c-0.5,0.8-1,1.7-0.8,2.6
							c0.1,0.8,0.2,1.6,0.6,2.3c0,0.1,0.1,0.1,0.2,0.2c-0.3,0.1-0.6,0.1-1,0.2c-1.6,0.3-3,1-4.2,1.9c-1,0.9-1.9,1.9-2.3,3.1
							c-0.4,1.1-0.4,2.4-0.1,3.6c0.3,2.5,2.5,4.5,5.2,5c2.7,0.3,5.4-0.6,7.7-1.7c1.1-0.6,2.3-1.2,3.4-1.9c0.2,1.6,1.3,3.2,2.8,4.1
							c2.7,1.6,6.2,0.9,8.5-1c1-0.8,1.9-1.6,2.7-2.4c0,0.1,0,0.1,0.1,0.2c0.4,1.2,1.2,2.3,2.3,3c1.3,0.8,2.9,1.1,4.4,1.1
							c2.5-0.4,4.8-1.5,6.8-3c0.1-0.1,0.7-0.4,1.3-0.9c0.2,0.6,0.5,1.1,0.9,1.5c0.3,0.2,0.5,0.7,1.2,1.1c0.8,0.4,1.6,1,2.6,1.2
							c3.1,0.2,6.2-1.1,8.5-2.7c0.8-0.5,1.3-1.1,1.7-1.9c0.6-1.1,1.3-2.2,1.5-3.4C114.4,89,113.4,87.2,112,85.9"/>
						<g>
							<path class="st7" d="M61,87.5c-1.3,1.2-3,3.5-1.7,5.1c0.3,0.4,0.9,0.8,1.5,0.7c0.4-0.1,0.5-0.5,0.4-0.8
								c-0.3-0.3-0.7-0.3-0.8-0.5c0,0-0.1-0.1-0.1-0.1c-0.1-0.1-0.1-0.2-0.2-0.2c0,0,0,0,0,0c0,0,0,0,0,0c0,0,0-0.1,0-0.1
								c-0.1-0.9,0.7-2.2,1.3-2.9c0.2-0.3,0.6-0.4,0.7-0.8C62,87.5,61.3,87.2,61,87.5"/>
							<path class="st7" d="M73.3,77.7c-1.2,0.7-2,1.8-2.6,2.9c-0.4,0.8-0.8,1.9-0.3,2.7c0.5,1,1.9,1.5,3.1,1.4
								c0.4-0.1,0.5-0.7,0.1-0.9c-0.5-0.2-0.5,0-0.9-0.1c-2.5-0.4-1.1-3,0.6-4.8c0.3-0.4,0.5-0.2,0.9-0.7
								C74.2,77.8,73.7,77.4,73.3,77.7"/>
							<path class="st7" d="M81.5,90.4c-0.7,0-1.3,0.6-1.9,0.9c-2,1.2-2.8-0.2-2.8-2.5c0-0.7-1.3-0.7-1.3,0c0,1.2,0.2,2.6,1.2,3.5
								c0.8,0.6,2.1,0.6,3,0.1c0.6-0.4,1.9-0.9,2.2-1.4C82,90.8,81.8,90.5,81.5,90.4"/>
							<path class="st7" d="M88.3,69.2c-2.7,0-5.9,1-7.4,3.1c-0.4,1.3,1.1,2.7,2.2,3.5c0.4,0.3,1,0.2,1.1-0.3c0.1-0.8-1-0.9-1.5-1.7
								c0.2,0.3-0.4-0.5-0.6-0.8c0,0-0.1-0.2-0.1-0.2c0,0,0,0,0,0c0.4-0.9,2.5-2,4.6-2.4c0.3-0.1,1.1,0,1.8-0.1
								C89.2,70.1,89,69.1,88.3,69.2"/>
							<path class="st7" d="M91.3,83.6c-0.2-0.2-0.6-0.2-0.8-0.1c-0.6,0.2-0.7,0.3-1.5,0.5c-2.5,0.5-3-1.3-1.6-4.2
								c0.3-0.8-1.1-1.1-1.4-0.3c-0.6,1.3-1.2,2.8-0.6,4.2c1,2.2,4.2,1.8,6,0.7C91.6,84.2,91.5,83.8,91.3,83.6"/>
							<path class="st7" d="M96.4,91.4c-0.7,0.6-0.6,0.7-1.4,1.1c-0.9,0.4-0.8,0.4-1.4,0.2c-0.4-0.3-0.6-1-0.8-1.9
								c-0.2-0.8-1.6-0.4-1.3,0.3c0.2,1.2,0.7,2.7,2.2,3c1.4,0.2,3.1-0.9,3.7-2C97.5,91.5,96.9,91.1,96.4,91.4"/>
							<path class="st7" d="M109.1,89.8c-0.2-0.3-0.6-0.3-1-0.2c-0.4,0.2-0.4,0.7-0.7,1.1c-0.1,0.1-0.2,0.3-0.3,0.4
								c0,0-0.1,0-0.1,0.1c0,0,0,0-0.1,0c-0.2,0.2-1,0.2-1.4,0.1c-0.2,0-0.4-0.1-0.6-0.2c0,0-0.1,0-0.1,0c-0.7-0.9-2-0.2-1.3,0.6
								c1,1.1,3.2,1.2,4.5,0.3c0.4-0.4,0.4-0.3,0.8-1c0-0.1,0.2-0.4,0.3-0.6C109.3,90.3,109.3,90,109.1,89.8"/>
							<path class="st7" d="M103.7,80c-0.4,0-0.8,0.4-1.2,0.5c-0.7,0.3-0.9,0.4-1.6,0.4c-0.2,0-0.6-0.7-1-2.3
								c-0.1-0.3,0.1-0.6-0.1-1.2c-0.2-0.6-1.3-0.4-1.3,0.2c-0.1,0.9,0.2,1.8,0.5,2.7c0.2,0.6,0.5,1.4,1.3,1.6c1,0.3,2-0.1,2.9-0.5
								c0.4-0.2,0.9-0.3,1-0.7C104.4,80.4,104.1,80,103.7,80"/>
						</g>
					</g>
				</g>
			</g>
		</g>
	</g>
	<g>
		<g>
			<path class="st14" d="M121.3,2.3c-0.4,0.1-0.9,0.2-1.3,0.3c-3.4,0.9-6.7,2.3-9.6,4.3c-2.5,1.7-4.7,3.7-6.6,6
				c-2.8,3.4-5,7.2-6.2,11.5c-2.1,7.1-1.7,14.1,1.1,21c1.3,3.2,3.2,6.1,5.5,8.6c4.7,5.1,10.4,8.3,17.2,9.5c6.1,1.1,12,0.4,17.7-2
				c1.7-0.7,3.3-1.6,4.8-2.6c0.1,0,0.1,0,0.2-0.1c-0.3,1.4-6.2,6.6-9.9,8.7c-3.9,2.3-8.1,3.7-12.6,4.4c-4.5,0.7-8.9,0.5-13.3-0.6
				c-19.7-4.7-30.8-24.5-26-43.2C87.3,9.5,105.3-0.3,121.3,2.3z"/>
			<path class="st22" d="M102.1,71.7c-0.1,0-0.3-0.1-0.5-0.2c-1.2-0.5-2.4-1.1-3.5-1.8c-6-3.9-10.7-9-13.9-15.4
				c-0.2-0.3-0.3-0.6-0.4-0.9c0-0.1,0-0.2,0.1-0.3c0.1-0.1,0.2,0,0.3,0.1c0.1,0.2,0.2,0.4,0.3,0.6c1.6,2.9,3.3,5.7,5.4,8.1
				c3,3.4,6.5,6.2,10.5,8.4c0.6,0.3,1.2,0.5,1.8,0.8c0.1,0.1,0.3,0.2,0.2,0.3C102.4,71.7,102.3,71.7,102.1,71.7z"/>
			<path class="st22" d="M84,59.8c0.3,0.1,0.4,0.3,0.6,0.5c2.3,2.7,4.8,5.1,7.7,7.1c0.6,0.4,1.2,0.8,1.8,1.2
				c0.2,0.2,0.6,0.4,0.4,0.7c-0.2,0.3-0.5,0.1-0.8,0c-1.7-1.1-3.2-2.3-4.7-3.6c-1.7-1.6-3.3-3.3-4.7-5.1c-0.1-0.2-0.2-0.3-0.3-0.5
				C83.7,60,83.8,59.8,84,59.8z"/>
			<path class="st22" d="M81.5,27.1c0.2,0.2,0,0.3,0,0.5c-1.2,2.3-1.7,4.7-1.7,7.1c0,1.1-0.1,2.3,0.1,3.4c0,0.2,0,0.4,0,0.6
				c0,0.1,0,0.3-0.3,0.3c-0.3,0-0.4-0.1-0.4-0.3c-0.1-0.2-0.2-0.4-0.2-0.6c-0.1-3.4,0.1-6.8,1.8-10.2C81,27.4,81.1,27.4,81.5,27.1z"
				/>
			<path class="st22" d="M100.3,72.5c-0.8-0.1-1.6-0.5-2.2-1c-0.1-0.1-0.2-0.1-0.1-0.3c0.1-0.1,0.2-0.1,0.3-0.1
				c0.1,0,0.2,0.1,0.3,0.1c0.6,0.3,1.2,0.5,1.8,0.7c0.2,0,0.3,0.1,0.3,0.3C100.6,72.5,100.5,72.5,100.3,72.5z"/>
			<path class="st22" d="M83.1,23.7c-0.3,0.7-0.5,1.3-0.8,2c0,0-0.1,0.1-0.1,0.1c-0.1,0-0.1-0.1-0.1-0.1c0.2-0.7,0.4-1.4,0.9-2
				C83,23.6,83,23.6,83.1,23.7z"/>
		</g>
		<g>
			<path class="st6" d="M112.6,3.4c-3.8,1.8-7.6,3.7-11.4,5.5c-1.7,0.8-3.3,1.6-4.8,2.7c-1.3,1-2.3,2.2-3,3.6c-1.5,2.8-2.1,6-3.1,9
				c-0.6,1.7-1.4,3.3-2.3,4.9c-0.9,1.7-1.5,3.5-1.9,5.5c-1.3,6.8-0.8,14.4,3.5,20.1c2.2,3,5.1,5.3,8,7.5c2.8,2.2,5.8,4.3,9.1,5.7
				c1.7,0.7,3.5,1.2,5.3,1.4c2,0.3,4,0.2,6-0.2c2-0.3,4-0.9,6-1.3c2-0.5,4.1-1,6.1-1.5c1-0.2,2-0.5,3.1-0.7c0.3-0.1,0.2-0.6-0.1-0.5
				c-4,1-8.1,1.9-12.1,2.8C119,68.5,117,69,115,69c-1.9,0.1-3.9-0.2-5.7-0.7c-3.4-1-6.5-2.8-9.3-4.9c-1.4-1.1-2.8-2.2-4.2-3.3
				c-1.4-1.1-2.8-2.3-4-3.6c-2.4-2.6-4.1-5.6-4.9-9c-0.8-3.3-0.9-6.8-0.6-10.2c0.2-1.9,0.5-3.8,1.2-5.5c0.7-1.8,1.7-3.4,2.5-5.1
				c1.3-2.9,1.8-6,2.9-9c0.5-1.4,1.2-2.8,2.2-4c1.1-1.3,2.6-2.3,4.2-3.1c1.7-0.9,3.5-1.8,5.3-2.7c1.8-0.9,3.7-1.8,5.5-2.8
				c0.9-0.4,1.8-0.9,2.7-1.4C112.9,3.5,112.8,3.3,112.6,3.4L112.6,3.4z"/>
		</g>
		<g>
			<path class="st6" d="M93.3,42c-0.2,0.5-0.2,1-0.2,1.5c0,0.4,0.1,0.8,0.4,1.1c0.6,0.6,1.3-0.1,1.5-0.7c0.2-0.4,0.2-0.9,0.2-1.4
				c0-0.5,0-1,0-1.6C95.1,40,95,39,94.6,38.2c-0.3-0.6-0.9-1.2-1.7-1.1c-0.8,0.1-1.1,0.9-1.3,1.6c-0.5,1.7-0.6,3.6-0.3,5.4
				c0.2,1.8,0.9,3.6,1.8,5.1c1,1.7,2.4,3.1,3.9,4.4c1.6,1.5,3.3,2.9,4.9,4.3c0.8,0.7,1.7,1.5,2.5,2.2c0.7,0.6,1.4,1.2,2.2,1.7
				c0.8,0.5,1.7,0.7,2.6,0.6c0.5,0,1-0.1,1.5,0c0.5,0.1,0.9,0.4,1.3,0.7c0.7,0.6,1.5,1.1,2.3,1.5c0.8,0.4,1.7,0.6,2.7,0.6
				c0.5,0,0.9,0,1.4,0c0.4,0,0.4-0.7,0-0.6c-1.7,0.2-3.4-0.2-4.8-1.1c-0.7-0.4-1.3-1.1-2-1.4c-0.8-0.4-1.7-0.3-2.6-0.3
				c-1.8,0-3.1-1.2-4.3-2.3c-1.5-1.3-3-2.6-4.5-3.9c-2.7-2.3-5.6-4.6-7.1-7.9c-0.7-1.5-1.1-3.1-1.2-4.7c-0.1-0.8,0-1.7,0-2.5
				c0.1-0.7,0.2-1.6,0.5-2.2c0.2-0.3,0.4-0.7,0.8-0.7c0.4,0,0.7,0.3,0.9,0.6c0.5,0.8,0.7,1.8,0.7,2.7c0,0.5,0,1,0,1.6
				c0,0.5-0.1,1-0.3,1.4c-0.1,0.1-0.2,0.3-0.4,0.3c-0.2,0-0.3-0.4-0.3-0.5c-0.1-0.5-0.1-1.1,0.1-1.6C93.8,41.9,93.4,41.8,93.3,42
				L93.3,42z"/>
		</g>
		<g>
			<path class="st23" d="M99.4,46.8C99.4,46.8,99.4,46.8,99.4,46.8C99.4,46.8,99.4,46.8,99.4,46.8L99.4,46.8z"/>
		</g>
		<g>
			<path class="st24" d="M104.8,11.5c-1.7,1.6-3.1,3.4-4.3,5.4c-1.2,2-2.1,4.1-2.8,6.3c-0.2,0.6-0.3,1.2-0.5,1.9
				c-0.1,0.3-0.1,0.7-0.2,1c-0.1,0.3-0.1,0.7-0.1,1c0,0.2,0.4,0.4,0.5,0.1c0.2-0.5,0.3-1.1,0.4-1.6c0.1-0.6,0.3-1.1,0.4-1.7
				c0.3-1.1,0.7-2.1,1.1-3.2c0.9-2.1,2-4.1,3.3-6c0.8-1,1.6-2.1,2.4-3C105.2,11.6,104.9,11.3,104.8,11.5L104.8,11.5z"/>
		</g>
		<g>
			<path class="st24" d="M115.1,61.9c5,1.7,10.4,2.4,15.7,1.8c1.5-0.2,2.9-0.4,4.4-0.8c0.4-0.1,0.2-0.7-0.2-0.6
				c-5.1,1.1-10.4,1.2-15.5,0.1c-1.4-0.3-2.8-0.7-4.2-1.1C114.9,61.3,114.7,61.8,115.1,61.9L115.1,61.9z"/>
		</g>
		<g>
			<path class="st24" d="M101.8,5.2c0.5-0.1,0.9-0.4,1.4-0.6c0.5-0.2,0.9-0.4,1.4-0.5c0.9-0.3,1.9-0.6,2.9-0.9c2-0.5,4-0.8,6-0.9
				c1.1-0.1,2.3-0.1,3.4,0c0.3,0,0.3-0.5,0-0.5c-4.1-0.3-8.2,0.4-12.1,1.7c-0.5,0.2-1.1,0.4-1.6,0.6c-0.5,0.2-1.1,0.4-1.6,0.7
				C101.6,5,101.6,5.3,101.8,5.2L101.8,5.2z"/>
		</g>
		<g>
			<path class="st25" d="M88.7,22.9C88.7,22.9,88.7,22.8,88.7,22.9C88.6,22.8,88.6,22.9,88.7,22.9L88.7,22.9z"/>
		</g>
		<path class="st25" d="M85.1,24.6c0.1-0.3-0.3-0.4-0.4-0.2c-0.3,0.4-0.5,0.8-0.7,1.2c-0.2,0.4-0.3,0.8-0.4,1.2
			c-0.2,0.9-0.4,1.8-0.4,2.7c0,0.3,0.2,0.5,0.5,0.5c0.3,0,0.4-0.2,0.5-0.5c0.1-0.8,0.2-1.6,0.4-2.5c0.1-0.4,0.2-0.8,0.3-1.2
			C85,25.4,85,25,85.1,24.6z"/>
		<path class="st25" d="M85.7,28.4c0-0.1,0-0.1,0-0.2c0,0,0,0,0,0c0,0,0,0,0,0c0-0.1-0.1-0.3-0.2-0.3c-0.1,0-0.3,0-0.4,0.1
			c0,0-0.1,0.1,0,0c0,0.1-0.1,0.1-0.1,0.2c0,0.1,0,0.1-0.1,0.2c0,0,0,0,0,0c0-0.1,0-0.1,0,0c0,0,0,0,0,0.1c0,0.1,0,0.1,0,0.2
			c0,0.1-0.1,0.2-0.1,0.4c0,0.2-0.1,0.4,0,0.6c0.1,0.2,0.5,0.3,0.7,0.1c0.1-0.1,0.1-0.2,0.1-0.3c0-0.1,0-0.1,0-0.2
			c0-0.1,0-0.2,0-0.2c0-0.2,0-0.3,0-0.5c0,0,0,0.1,0,0.1C85.6,28.7,85.6,28.6,85.7,28.4C85.7,28.5,85.7,28.5,85.7,28.4z"/>
		<path class="st25" d="M96.5,63.8c-0.4-0.2-0.8-0.4-1.2-0.7c-0.2-0.1-0.4-0.2-0.6-0.4c-0.2-0.1-0.3-0.3-0.5-0.4
			c-0.1-0.1-0.4-0.1-0.5,0c-0.1,0.1-0.1,0.3,0,0.5c0.6,0.8,1.4,1.4,2.3,1.8c0.2,0.1,0.5,0.1,0.7-0.2C96.8,64.3,96.8,63.9,96.5,63.8z
			"/>
		<path class="st25" d="M88.7,55c0-0.1,0-0.1-0.1-0.2c-0.1-0.2-0.2-0.5-0.4-0.7c-0.3-0.5-0.6-0.9-1-1.3c-0.1-0.1-0.4-0.2-0.5-0.1
			c-0.2,0.1-0.3,0.2-0.3,0.4c0,0.9,0.5,1.6,1.1,2.2c0.1,0.1,0.2,0.2,0.3,0.4c0.1,0.1,0.1,0.1,0.2,0.1c0,0,0,0,0.1,0.1
			c0.2,0.1,0.4,0.2,0.6,0c0.2-0.1,0.3-0.4,0.1-0.6C88.8,55.2,88.8,55.1,88.7,55z"/>
		<path class="st25" d="M115.2,66.3c-0.8-0.4-1.7-0.6-2.5-0.8c-0.2,0-0.4,0.1-0.4,0.3c-0.1,0.2,0,0.4,0.1,0.5
			c0.2,0.2,0.5,0.4,0.8,0.5c0.2,0.1,0.3,0.1,0.5,0.1c0,0,0,0,0.1,0c0,0,0.1,0,0.1,0c0.4,0.1,0.8,0.1,1.2,0.1c0.2,0,0.4-0.1,0.4-0.3
			C115.4,66.6,115.4,66.4,115.2,66.3z"/>
		<path class="st26" d="M93,12.9c0,0,0-0.1,0-0.1c-0.1-0.1-0.3-0.2-0.4-0.1c-0.1,0.1-0.2,0.1-0.2,0.2c0,0,0,0-0.1,0c0,0,0,0,0,0
			c-0.1,0-0.2,0.1-0.2,0.2c0,0,0,0,0,0c0,0-0.1,0.1-0.1,0.1c-0.1,0.1-0.1,0.1-0.2,0.2c-0.3,0.3-0.5,0.7-0.7,1.1
			c-0.1,0.2-0.1,0.4,0.1,0.5c0.2,0.1,0.4,0.1,0.5,0c0.6-0.5,1.1-1,1.5-1.7C93.1,13.2,93.1,13,93,12.9C93,12.9,93,12.9,93,12.9z"/>
		<path class="st25" d="M87.6,35.3C87.6,35.3,87.6,35.3,87.6,35.3C87.7,35.4,87.7,35.4,87.6,35.3z"/>
		<path class="st25" d="M87.2,37.6c0.2,0,0.3-0.1,0.4-0.3c0.1-0.3,0.2-0.6,0.2-1c0-0.1,0-0.3,0-0.4c0-0.1,0-0.2,0-0.3
			c0-0.1-0.1-0.2-0.1-0.2c0,0-0.1-0.1-0.2-0.1c0,0,0,0,0,0c-0.1,0-0.1,0-0.2,0c-0.1,0-0.1,0,0,0c0,0-0.1,0-0.1,0.1
			c-0.1,0-0.2,0.1-0.2,0.2c-0.2,0.5-0.3,1.1-0.2,1.7C86.9,37.5,87.1,37.7,87.2,37.6z"/>
		<path class="st25" d="M87.7,38.6C87.7,38.6,87.7,38.6,87.7,38.6c-0.1,0.6-0.2,1.1-0.1,1.7c0,0.2,0.2,0.3,0.4,0.3
			c0.1,0,0.1,0,0.2-0.1c0.1,0,0.2-0.1,0.2-0.2c0-0.3,0.1-0.6,0.1-0.9c0-0.3,0-0.5,0-0.8c0-0.1,0-0.2-0.1-0.3
			c-0.1-0.1-0.2-0.1-0.3-0.1C87.8,38.3,87.7,38.4,87.7,38.6z"/>
	</g>
</g>
</svg>
