<?xml version="1.0" encoding="utf-8"?>
<!-- Generator: Adobe Illustrator 27.0.0, SVG Export Plug-In . SVG Version: 6.00 Build 0)  -->
<svg version="1.1" xmlns="http://www.w3.org/2000/svg" xmlns:xlink="http://www.w3.org/1999/xlink" x="0px" y="0px"
	 viewBox="0 0 136.5 131.1" style="enable-background:new 0 0 136.5 131.1;" xml:space="preserve">
<style type="text/css">
	.st0{fill:#FFFFFF;}
	.st1{fill:#8CA2CF;}
	.st2{clip-path:url(#SVGID_00000129903797932209832480000003903665325656954791_);}
	.st3{fill:#627EB5;}
	.st4{fill:#8CA05C;}
	.st5{fill:#677724;}
	.st6{fill:#E0A955;}
	.st7{fill:#BBD7FF;}
	.st8{fill:#3C5987;}
	.st9{clip-path:url(#SVGID_00000124159970368871092410000007312691723160636590_);}
	.st10{fill:#669CD3;}
	.st11{clip-path:url(#SVGID_00000003799402395590030990000005717374954757396922_);}
	.st12{fill:#92C4FC;}
	.st13{fill:#FAF4D2;}
	.st14{fill:#FCCB7C;}
	.st15{clip-path:url(#SVGID_00000129166140183574141900000007957836582184067482_);}
	.st16{clip-path:url(#SVGID_00000074411717359464750470000010828250901031753618_);}
	.st17{fill:#C5CAF0;}
	.st18{clip-path:url(#SVGID_00000104676326953950659860000007995261689321816979_);}
	.st19{clip-path:url(#SVGID_00000008113470506514802760000001008975764548094628_);}
	.st20{clip-path:url(#SVGID_00000118383919953257117660000001514032903447578044_);}
	.st21{clip-path:url(#SVGID_00000034785339437285042830000013839890702456108175_);}
	.st22{fill:#F9CC3D;}
	.st23{fill:#FFEAAE;}
	.st24{fill:#FFECB8;}
	.st25{fill:#D3AA37;}
	.st26{fill:#FFE08A;}
	.st27{clip-path:url(#SVGID_00000096756824571313729440000015464727823780572817_);}
	.st28{clip-path:url(#SVGID_00000082354519183182873850000010183815675626014616_);}
	.st29{clip-path:url(#SVGID_00000078732724592801608710000011939267558040396686_);}
	.st30{clip-path:url(#SVGID_00000106123988700650709070000016315032552634950298_);}
	.st31{clip-path:url(#SVGID_00000120530625458922174870000004751615385875972531_);}
	.st32{clip-path:url(#SVGID_00000082350883261738907260000011933207738161224591_);}
	.st33{clip-path:url(#SVGID_00000148640474354355733330000009584425110048399551_);}
	.st34{clip-path:url(#SVGID_00000005950484955284017090000004827596506720729274_);}
	.st35{clip-path:url(#SVGID_00000109741186622996294200000017496557001647900351_);}
	.st36{opacity:0.82;}
	.st37{fill:#BCACAA;}
</style>
<g id="BACKGROUND">
</g>
<g id="OBJECTS">
	<g>
		<g>
			<path class="st1" d="M122.9,67.1c-0.2-2.5-0.9-4.9-1.4-7.3c-0.5-2-0.8-4-1.3-6c-0.9-3.9-2.2-7.7-3.8-11.4
				c-1.3-3.5-3.2-6.6-5.4-9.5c-2.6-3.4-5.5-6.5-8.7-9.1c-1.9-1.5-4-2.6-6-4C78.8,8.1,55.3,0.3,35.1,23.2c-2.6,3-5.3,5.8-7.9,8.8
				c-2,2.6-4.2,5-6.1,7.8c-1.9,3.5-3.5,7.2-5.5,10.6c-1,1.9-2.1,3.8-2.9,5.8c-1,2.6-1.7,5.4-2.6,8c-1.2,3.6-1.9,7.3-2.6,11
				C7.1,78.9,6.3,82.6,6,86.3c-0.8,6.4-0.8,12.8-0.4,19.2c0,2.3,0.1,4.6,0.4,6.9c0.1,2,0.2,3.3,1.7,6.5c1.7,3.3,4.3,5.8,6.9,8.1
				c1.8,1.1,1.5,0.8,2.1,1.2c1.6,1,3.4,1.6,5.1,2.2c1.8,0.6,3.6,1.4,5.4,1.6c2.9-0.1,5.9-0.8,8.8-1.3c4.5-1.2,8.8-3.1,13.2-4.6
				c2.7-0.6,4.4-0.5,8.6-0.8c2.8-0.2,7.3,0.5,7.6,0.6c6.8,1.6,9.7,2.6,16.3,3c4.7,0.3,9.5,0.1,14-1.6c3.5-1.4,6.8-3.7,9.8-6.1
				c3.1-2.9,5.5-6.6,7.5-10.6c2.6-4.7,4.6-9.8,6.1-15.1c1.2-4.3,2.7-8.4,3-12.9c0.3-3,0.9-6,1.1-9.1
				C123.4,71.2,123.1,69.1,122.9,67.1"/>
			<g>
				<defs>
					<path id="SVGID_1_" d="M122.9,67.1c-0.2-2.5-0.9-4.9-1.4-7.3c-0.5-2-0.8-4-1.3-6c-0.9-3.9-2.2-7.7-3.8-11.4
						c-1.3-3.5-3.2-6.6-5.4-9.5c-2.6-3.4-5.5-6.5-8.7-9.1c-1.9-1.5-4-2.6-6-4C78.8,8.1,55.3,0.3,35.1,23.2c-2.6,3-5.3,5.8-7.9,8.8
						c-2,2.6-4.2,5-6.1,7.8c-1.9,3.5-3.5,7.2-5.5,10.6c-1,1.9-2.1,3.8-2.9,5.8c-1,2.6-1.7,5.4-2.6,8c-1.2,3.6-1.9,7.3-2.6,11
						C7.1,78.9,6.3,82.6,6,86.3c-0.8,6.4-0.8,12.8-0.4,19.2c0,2.3,0.1,4.6,0.4,6.9c0.1,2,0.2,3.3,1.7,6.5c1.7,3.3,4.3,5.8,6.9,8.1
						c1.8,1.1,1.5,0.8,2.1,1.2c1.6,1,3.4,1.6,5.1,2.2c1.8,0.6,3.6,1.4,5.4,1.6c2.9-0.1,5.9-0.8,8.8-1.3c4.5-1.2,8.8-3.1,13.2-4.6
						c2.7-0.6,4.4-0.5,8.6-0.8c2.8-0.2,7.3,0.5,7.6,0.6c6.8,1.6,9.7,2.6,16.3,3c4.7,0.3,9.5,0.1,14-1.6c3.5-1.4,6.8-3.7,9.8-6.1
						c3.1-2.9,5.5-6.6,7.5-10.6c2.6-4.7,4.6-9.8,6.1-15.1c1.2-4.3,2.7-8.4,3-12.9c0.3-3,0.9-6,1.1-9.1
						C123.4,71.2,123.1,69.1,122.9,67.1"/>
				</defs>
				<clipPath id="SVGID_00000098204219458411953940000013582315072419148185_">
					<use xlink:href="#SVGID_1_"  style="overflow:visible;"/>
				</clipPath>
				<g style="clip-path:url(#SVGID_00000098204219458411953940000013582315072419148185_);">
					<path class="st3" d="M120.4,50c-0.7-5.5-3.8-9.9-7.8-14.2c-1.7-1.8-3-3.9-4.9-5.6c-1.4-1.4-2.5-2.9-3.9-4.3
						c-1.7-1.7-2.9-2.5-4.7-4.1c-2.9-3-7-5.2-11.2-7.1c-2.1-0.9-4.3-1.6-6.4-2.3c-1.9-0.3-3.9-0.5-5.9-0.3c-0.3,0.1-0.2-0.1-0.9,0.1
						c-0.1,0-0.1,0.1-0.2,0.1c-4.3,0.1-8.7,0.6-12.4,2.1c-4.1,1.9-6.5,5.3-6.9,8.8c0,0.2,0,0.3,0,0.4c-0.9-0.2-1.8-0.4-2.7-0.4
						c-7.8,0.2-14.3,2-20.4,5.7c-2.5,1.8-5.1,3.7-5.5,6.4c-0.5,1.7-0.2,3.3,0.8,4.9c-3.2,0.2-6.2,1.3-9,2.5
						c-5.7,2.2-11.3,4.9-14.9,8.8c-2.2,3.2,1.8,5.7,5.8,6c7.9,0.7,15.9-0.1,23.8-0.7c-1.9,2.2-4,5-1.9,7.4
						c6.3,6.8,23.6,4.2,31.9,0.2c1.9-0.8,3.6-1.8,5.3-2.8c0.3,1.1,1.1,2,2.1,2.8c1.2,1.2,2.9,2,4.9,2.2c8.3,1.1,19-1.7,25.6-6.7
						c0,0.4,0.2,0.8,0.4,1.2c0.7,1.4,2.3,2.4,4.3,2.8c2.1,0.5,4.2,0.2,6.3-0.4c3.8-0.9,7.4-2.7,9.5-5.3
						C123.1,55.4,120.8,51.9,120.4,50"/>
					<g>
						<g>
							<path class="st4" d="M34.6,121.9c-0.6-2.9-1.9-6.7-3-10.1c-0.8-2.4-1.8-4.8-3.1-7.1c-1-2.1-2.4-4.2-4.6-5.3
								c-1.8-0.7-4-0.3-5.4,1c-3.3,3.1-3.6,7.7-4.2,11.8c-0.3,3.2,0.6,6.3,0.5,9.5c0.4,3.7,0.6,7.5,1.6,11.1c0,0.1,0.1,0.1,0.2,0.1
								c0.2,0.7,1.3,0.6,1.6-0.2c0.1-0.1,0.2-0.3,0.2-0.4c0,0,0,0,0,0c0.1-0.1,0.1-0.1,0.1-0.1c0.4-0.3,1.2-0.6,1.6-0.8
								c0.5-0.1,0.8-0.1,1.7-0.3c0.3,0,0.5-0.1,0.8-0.2c1-0.2,2.5-0.8,2.8-0.8c2.2-0.1,4.3-0.5,6.4-0.4c1.1,0,2.3,0.1,3.4-0.1
								c0,0,0,0,0.1,0c0.3-0.1,0.6-0.2,0.7-0.5C36.2,126.6,34.8,123.6,34.6,121.9 M86.4,123.9c-0.4-1.5-0.9-3.9-1.2-5.2
								c-0.2-2.2-0.4-4.4-0.8-6.5c-0.8-2.5-1.8-5.1-2.9-7.5c-0.8-1.6-2.2-2.8-3.6-4c-1.4-1.2-3.3-2-5.3-1.8
								c-2.2,0.1-4.1,1.2-5.6,2.6c-3.1,2.4-4.5,6.1-5.5,9.6c-1.3,4.2-2.4,8.4-3.5,12.7c-0.1,0.6-0.5,1.3-0.4,1.9
								c-0.2,0.1-0.3,0.3-0.4,0.4c-0.3,0.5,0.4,1.1,1,0.9c0.1,0,0.3-0.2,0.4-0.3c0.1,0,0.1,0,0.1-0.1c1.5-0.3,4-0.2,6.1-0.1
								c2.7,0.2,5.4,0,8.1-0.1c4,0.1,8.1,0.2,12.1-0.2c0.6-0.1,1.4-0.4,1.5-1C86.7,124.8,86.5,124.3,86.4,123.9"/>
							<path class="st5" d="M58.3,124.4c-0.8-7.2-1.8-13.4-3.5-20.5c-1-3.4-2.1-6.8-4.1-9.9c-0.7-1.4-1.8-2.6-3.3-3.2
								c-2-0.8-4.5-0.4-6.4,0.6c-2.1,1.5-2.9,4.1-3.7,6.3c-2.3,8-2.2,15.9-1.9,24.6c0.1,1.9,0.1,3.9,0.3,5.8
								c-0.4,0.4-0.2,1.1,0.4,1.2c0.2,0.1,0.8-0.2,1-0.3c0.9-0.3,1.2-0.3,2.3-0.8c0.3-0.1,3.8-0.9,4.1-0.9c2.1-0.4,3.1-0.9,5.3-1
								c2.5,0.2,5.6,0,7.4,0.2C58.5,127.2,58.5,126.4,58.3,124.4"/>
							<path class="st6" d="M28.2,129.7c-0.2-1.2-0.5-2.1-0.7-3.1c-0.7-3.1-1.7-7-2.6-10.6c-0.6-2-1.3-4.1-1.5-5.9
								c-0.1-0.7-0.5-1.8-0.6-2c-0.1-0.3,0-0.8-0.7-0.8c-0.4,0.1-0.5,0.5-0.5,0.8c0.1,0.9,0.2,1.1,0.3,1.9c0.2,1.2,0.2,2.4,0.4,3.7
								c0.5,2.2,0.9,4.6,1.3,6.5c0.4,3.4,0.8,6.7,1,10.1c0,0.2,0,0.5,0.2,0.7c0.2,0.1,0.4,0.1,0.6,0c0.1,0,0.2,0.1,0.3,0
								c0.1,0,0.2,0,0.2-0.1c0,0,0.1,0,0.1,0c0.2-0.1,0.9-0.2,0.7-0.2c0.2-0.2,1.1,0.2,1.5-0.3C28.4,130.4,28.1,129.3,28.2,129.7"/>
							<path class="st6" d="M47.2,124.9c-0.4-4-0.3-8.1-0.8-12.2c-0.3-2.8-1-5.6-1.3-8.5c-0.1-0.7-0.2-1.5-0.2-1.9
								c-0.1-0.3,0.1-0.8-0.3-1c-0.3-0.2-0.8,0-0.8,0.4c-0.3,5.8,0,12.1,0,18.4c0.1,2.3,0.2,4.7,0.4,7c0.1,0.2,0.4,0.3,0.6,0.2
								c0.5,0.3,0.6,0,1.2,0.1C48,127.7,47.5,126.8,47.2,124.9"/>
							<path class="st6" d="M72.4,107.3c0-0.2,0-0.5,0-0.7c0,0,0-0.1,0-0.1h0c0-0.2-0.2-0.4-0.5-0.4c-0.5,0.1-0.5,0.4-0.5,0.8
								c0,0.1,0,0.1,0,0.2c0,0.1,0,0.2,0,0.3c-0.4,4.3-1.5,9.8-2.1,14.5c-0.1,1.5-0.7,3.1-0.6,4.6c0.1,0.1,0.1,0.1,0.2,0.2
								c0.1,0.2,0.3,0.3,0.5,0.3c0.1,0,0.5,0.1,0.6,0.1c0.7,0.1,1.4,0.1,2.1,0.1c-0.1,0,1,0.3,1.1-0.4c0-2.4,0-4.3,0.2-6.4
								C73.3,115.9,72.8,111.6,72.4,107.3"/>
						</g>
						<g>
							<path class="st5" d="M129.2,121.3c-1.4,0.8-3.5,1.4-5.6,1.9c-3.9,1.4-8.6,0.9-13.2,0.9c-8.1,0.4-15.6-2.3-23.8-3.8
								c-8.3-1.9-16.1-2.5-24.4-2.1c-3,0.2-6,0.3-9,0.9c-1.3,0.2-2.6,0.2-3.8,0.6c-1.4,0.4-2.8,0.6-4.2,1c-1.9,0.6-3.7,1.5-5.6,2
								c-2.5,0.6-6.6,0.8-9.8,0.9c-1.7,0.2-2.5,0.5-4.3,0.7c-3.2,0-6.9-0.6-10.4-1.6c-1.6-0.5-2.7-1-4.6-1.7c-0.2-0.1-0.4-0.1-0.6,0
								c-0.1,0-0.2,0.1-0.2,0.1c-0.4,0.1-0.6,0.6-0.5,0.9c0,0.1,0.1,0.2,0.1,0.2c0,0,0,0,0,0.1c0.3,0.9,0.6,1.6,0.8,2.1
								c1.7,3.4,5,5.6,8,7.7c2.7,1.7,5.6,2.9,8.5,4.2c1.6,0.7,3,1.8,4.7,2.4c2.6,0.6,5.4,0.5,8.1,0.7c2.5,0.1,5-0.6,7.5-1.2
								c3.4-0.6,6.6-1.9,9.9-2.7c1.9-0.8,3.7-1.6,5.7-2c3.3-0.8,6.1-1.5,9.1-1.9c3.5-0.4,7,0,10.5,0.1c4.5-0.1,8.6,0.6,13.3,1.2
								c5.5,0.7,11.1,1.3,16.7,1.4c3.2,0,6.3-1.1,8.8-2.9c2.3-1.2,4.3-2.8,5.9-4.9C127.8,125.8,131.7,121.4,129.2,121.3"/>
							<g>
								<path class="st4" d="M123.8,125.7c-0.3-0.1-0.7,0.1-1,0.2c-1,0.3-2.1,0.6-3.1,0.8c-2.6,0.8-4.8,1-7.7,1.4
									c-7.6,0.4-14.9,0.7-21.9-1.5c-4.2-1.1-7.4-2.7-11.6-3.9c-3.3-1-6.7-1.6-10.1-1.8c-3.4-0.3-6.8,0.4-10.1,0.4
									c-3.8,0.7-7.4,1.5-11.2,2.8c-1.8,0.5-3.5,1.1-5.1,1.9c-1.7,0.7-3.5,1.3-5.3,1.8c-1.9,0.6-4,0.7-6.1,1
									c-1.6,0.3-3.2,0.4-4.8,0.3c-1.6,0.1-3.2,0-4.7-0.5c-2.1-0.7-4.1-1.7-5.9-3c-0.4-0.4-1,0.3-0.6,0.6c2.7,1.9,6,3.6,9.4,3.7
									c2.5,0.1,5,0,7.5-0.4c2.1-0.2,3.9-0.4,5.8-1c2.9-0.7,5.5-1.9,8.2-2.9c2.6-0.8,5.3-1.7,7.5-2.1c2.4-0.6,4.2-1.1,6.6-1.1
									c3.1-0.1,7.3-0.6,9.8-0.2c6.8,0.5,12.4,3.1,18.5,5.3c6,2.2,11.4,2.4,17.7,2.5c5.1-0.1,10.2-0.5,15-1.8c1-0.2,2-0.6,3-0.8
									c0.3-0.1,0.5-0.2,0.7-0.4C124.5,126.3,124.3,125.8,123.8,125.7"/>
								<path class="st4" d="M76.1,126.3c-0.4-0.3-0.3-0.1-0.7-0.2c-2.9-0.6-5.3-0.6-8.4-0.4c-2.3,0-4.7-0.2-7,0.3
									c-2.8,0.6-5.6,1.3-8.3,2.1c-2.9,1.3-6,2.4-9,3.5c-3.1,1.1-5.9,1.3-9.3,1.7c-0.7,0.1-1.5,0-2.1,0.3c-0.3,0.3,0,0.9,0.4,0.8
									c3.9-0.4,7.8-0.7,11.5-2c2.2-0.9,4.4-1.6,6.6-2.5c1.6-0.8,3.3-1.4,5.1-1.7c4.1-1.1,7.6-2,11.9-1.6c3.3-0.2,5.3-0.2,8.3,0.4
									c0.3,0,0.6,0.2,0.9,0C76.3,127.1,76.4,126.5,76.1,126.3"/>
								<path class="st4" d="M64.1,129.8c-2,0-4.1,0.5-6.2,0.7c-2.2,0.5-4.4,1.1-6.6,1.7c-3.3,1.2-6.7,2.2-9.9,3.8
									c-0.7,0.4-2,0.7-2.4,1.4c-0.1,0.4,0.4,0.8,0.8,0.5c6.5-3.5,14.8-6.1,22.2-6.9c0.7-0.2,1.6,0,2.2-0.4
									C64.6,130.4,64.5,129.9,64.1,129.8"/>
								<path class="st4" d="M117.4,131c-0.4-0.2-0.7,0.1-1.1,0.1c0,0,0,0-0.1,0c-1.6,0.2-3.2,0.5-4.8,0.5c-2.1,0-4.1,0.3-6.2,0.2
									c-3.3-0.4-7.7-0.7-11.6-1.6c-3.7-0.7-7.4-1.4-11.1-1.4c-0.3,0-0.5-0.1-0.7,0.2c-0.3,0.3,0,0.9,0.4,0.8
									c6.3,0,12.8,2.1,19.4,2.6c1.3,0.1,3.1,0.4,4.7,0.4c1.6,0,3.2-0.2,4.9-0.2c1.3,0,2.5-0.1,3.8-0.2c0.8,0,1.5-0.1,2.3-0.3
									C117.8,132,117.8,131.2,117.4,131"/>
							</g>
						</g>
					</g>
				</g>
			</g>
		</g>
		<g>
			<path class="st7" d="M18.7,93c-1.3-0.3-2.1,0.1-3.4,0.4c-1.4,0.6-3,2.2-3.6,3.1c-1.2,1.4-1.2,3.3-1.4,5.1
				c-0.3,3.5,0.2,7,0.7,10.4c0.1,1.4-0.6,2.5-1.4,3.5c-0.3,0.5-0.7,0.8-1.1,1.1c-0.2,0.2,0.2,0.6,0.4,0.4c1.5-1.1,3-3.4,2.7-5.3
				c-0.4-2.7-0.6-5.5-0.7-8.3c0.1-1.6,0.1-3.3,0.6-5.1c0.6-1.2,1.7-2.6,3.1-3.6c1.1-0.8,2.6-1.1,3.4-1.1c1,0.1,1.5,0.9,1.7,1.8
				c0.1,1.5,0,2-1,3c-0.9,1-1.7,1.4-2.8,1.6c-0.3,0-0.5-0.1-0.5-0.5c-0.2-0.7,0.2-0.7,0.1-1.2c-0.4-0.7-1,0.1-0.9,0.8
				c0,2,1.4,1.9,2.9,1.2c1.1-0.6,2.2-1.6,2.8-2.7C20.9,96.1,20.6,93.6,18.7,93"/>
			<path class="st7" d="M13.3,88.5c-0.2,0-0.4,0.2-0.6,0.3c-2.5,1.3-3.9,3.2-4.8,5.6c-1.6,3.7-1.6,7.8-0.9,11.7
				c0.1,0.6,0.1,1.2,0.3,1.7c0.2,0.2,0.6,0,0.6-0.3c-0.8-4.1-1.1-8.7,0.4-12.2c1-2.7,2.2-4.5,4.6-5.8c0.3-0.2,0.7-0.3,0.8-0.6
				C13.8,88.7,13.6,88.5,13.3,88.5"/>
			<path class="st7" d="M114.3,80.2c-0.5-0.7-1.4-1.1-2.2-1.4c-0.8,0-1.4,0.6-1.8,1.2c-1,1.5-1.4,2.9-1.7,4.8
				c-0.1,0.8-0.2,1.7,0.3,2.4c1.1,1.2,2.2,0.9,3.1-0.6c0.2-0.4,0.3-0.9,0.4-1.4c0-0.2,0.1-0.4,0-0.6c-0.4-0.5-0.8,0-0.8,0.5
				c-0.1,1.4-1.2,2.4-1.5,2.1c-0.4-0.3-0.5-0.2-0.6-0.8c-0.3-1.2,0.6-4.6,1.4-5.7c0.4-0.7,1.2-1.1,1.2-1c0.4,0.1,1.1,0.4,1.5,0.8
				c1.2,1.5,1.4,3,1.3,4.9c-0.2,2.5-0.6,4.9-1.3,7.3c-1.5,4.7-2.7,9.5-5.1,13.9c-0.8,1.3-1.5,2.7-2.4,4c-0.2,0.4,0.4,0.7,0.6,0.3
				c3-4.4,5.1-9.4,6.5-14.6c1-3.2,2-6.4,2.3-9.8C115.7,84.3,115.6,82.1,114.3,80.2"/>
			<path class="st7" d="M105.9,89.4c-0.1-0.3-0.7-0.2-0.7,0.2c0.5,3.5,0.7,6.7,0.2,10c-0.1,1.1-0.4,2.8-0.9,2.4
				c-0.4-0.2-0.3-1-0.3-1.7c0-0.5,0.6-1,1.1-1.4c0.1-0.1,0.1-0.3-0.1-0.5c-0.3-0.2-0.5,0.1-0.7,0.2c-0.4,0.3-0.8,0.7-1,1.2
				c-0.1,0.8-0.3,1.7,0.2,2.4c0.7,0.9,1.7,0.4,2-0.6c0.6-2.3,0.7-5.3,0.6-7.7C106.3,92.4,106.2,90.9,105.9,89.4"/>
			<path class="st7" d="M118.8,79.9c-0.2-0.7-0.1-1.5-0.4-2.2c-0.2-0.2-0.6,0-0.6,0.3c0.3,2.3,0.7,4.6,0.7,6.9c-0.3,2.5-1,5-1.5,7.5
				c-0.2,2-1.1,3.8-1.7,5.7c-1.3,4.8-3.1,9.4-5.8,13.8c-0.3,0.5-0.7,0.9-0.9,1.4c0,0.2,0.3,0.4,0.5,0.3c0.3-0.3,0.4-0.6,0.6-0.9
				c2.8-4.4,4.7-9.4,6.1-14.4c0.5-1.9,1.4-3.7,1.7-5.7c0.5-2.5,1.1-5,1.5-7.5C119.3,83.3,119,81.6,118.8,79.9"/>
		</g>
		<g>
			<path class="st8" d="M29.2,86.5c-0.2-0.3-0.7-0.2-0.8,0.2c-0.5,1.5-0.8,2.5-1.3,3.8c-0.2,0.4,0.3,0.8,0.6,0.6
				c0.3-0.2,0.9-2.4,1.4-3.6C29.2,87,29.4,86.7,29.2,86.5"/>
			<path class="st8" d="M37,83.7c-0.3,1-0.8,2.8-1.1,3.5c-0.1,0.2-0.2,0.4-0.1,0.6c0.1,0.2,0.4,0.3,0.7,0.2c0.4-0.5,0.4-1.2,0.7-1.7
				c0.2-0.9,0.6-1.7,0.7-2.6C37.7,83.2,37,83.3,37,83.7"/>
			<path class="st8" d="M33.7,94.5c-0.2-0.3-0.8-0.2-0.8,0.2c-0.5,1.7-0.9,3.1-1.5,4.6c-0.7,0.6,0.3,1.3,0.8,0.4
				c0.6-1.4,1-2.8,1.4-4.2C33.7,95.2,33.9,94.8,33.7,94.5"/>
			<path class="st8" d="M46.2,84c-0.2-0.3-0.7-0.2-0.7,0.2c-0.3,1-0.8,2-0.9,3.1c0,0.3,0.5,0.4,0.7,0.2c0.4-0.9,0.6-1.8,0.9-2.7
				C46.2,84.5,46.4,84.3,46.2,84"/>
			<path class="st8" d="M41.9,92.7c-0.5,1.4-1,3-1.4,4c-0.1,0.2,0,0.5,0.3,0.6c0.2,0,0.4-0.1,0.5-0.3c0.5-1.3,0.9-2.7,1.4-4
				C43,92.4,42.1,92.1,41.9,92.7"/>
			<path class="st8" d="M53.6,85.1c-0.3,1.1-0.7,2.2-1,3.3c-0.1,0.2,0.2,0.5,0.4,0.4c0.2,0,0.3-0.2,0.4-0.4c0.4-1.1,0.7-2.1,1-3.2
				C54.5,84.8,53.7,84.6,53.6,85.1"/>
			<path class="st8" d="M49.5,95c-0.7,2.3-1.8,4.5-2.4,7c0.1,0.3,0.6,0.3,0.8,0c0.8-2.3,1.8-4.6,2.4-7C50.2,94.6,49.5,94.6,49.5,95"
				/>
			<path class="st8" d="M61.8,86.1c-0.2,0.9-0.5,1.7-0.7,2.6c-0.1,0.2,0.2,0.5,0.4,0.4c0.4-0.1,0.3-0.2,0.4-0.4
				c0.3-0.9,0.7-1.7,0.7-2.6C62.5,85.6,61.9,85.6,61.8,86.1"/>
			<path class="st8" d="M59,94.5c-0.2-0.3-0.8-0.2-0.8,0.2c-0.5,1.7-1.3,3.7-2,5.7c0,0.2,0.2,0.4,0.4,0.5c0.7,0.1,0.8-1.3,1.1-1.8
				c0.5-1.3,1-2.7,1.4-4C59.1,94.9,59.1,94.7,59,94.5"/>
			<path class="st8" d="M41.9,101.3c-0.7,1.6-1.2,3.1-1.8,4.7c-0.2,0.3,0.2,0.7,0.5,0.5c0.8-1,1.3-3.6,2-4.9
				C42.8,101.2,42.1,100.9,41.9,101.3"/>
			<path class="st8" d="M35.1,103c-0.4,1.3-0.9,2.5-1.3,3.8c-0.2,0.3,0.3,0.7,0.6,0.5c0.7-1.3,1-2.7,1.5-4.1
				C35.9,102.8,35.2,102.6,35.1,103"/>
			<path class="st8" d="M25.2,97.7c-0.4,1.3-1,2.8-1.6,4.2c-0.1,0.4-0.7,1.1-0.1,1.3c0.3,0.1,0.4-0.2,0.5-0.4
				c0.7-1.5,1.3-3.1,1.8-4.7C26.3,97.6,25.5,97.1,25.2,97.7"/>
			<path class="st8" d="M27,105.8c-0.7,1.7-1.3,3.4-2.2,5c-0.1,0.5-1,1.3-0.2,1.6c0.4,0.1,0.5-0.3,0.6-0.5c0.7-1.5,1.4-3,2-4.5
				c0.1-0.5,0.6-1,0.5-1.5C27.7,105.6,27.2,105.5,27,105.8"/>
			<path class="st8" d="M43.5,108.4c-0.8,1.5-1.7,3.7-2.2,4.9c-0.1,0.1-0.1,0.3,0,0.4c0.5,0.6,0.9-0.2,1-0.6c0.6-1.5,1.3-3,2-4.5
				C44.3,108.2,43.7,108,43.5,108.4"/>
			<path class="st8" d="M52.4,104.9c-0.6,1.8-1.1,3.2-1.8,5.1c0,0,0,0.1,0,0.1c0,0,0,0,0-0.1c0,0.1-0.1,0.2,0,0.3
				c0.1,0.2,0.3,0.3,0.5,0.2c0.2-0.1,0.3-0.2,0.3-0.4c0.6-1.7,1.2-3.4,1.8-5.1C53.3,104.5,52.5,104.4,52.4,104.9"/>
			<path class="st8" d="M55.2,109.9C55.2,109.9,55.2,109.9,55.2,109.9"/>
			<path class="st8" d="M70.2,85.9c-0.3,0.9-0.6,1.9-0.9,2.8c-0.1,0.3,0.4,0.6,0.6,0.4c0.3-0.3,0.3-0.8,0.5-1.1
				c0.2-0.7,0.5-1.4,0.6-2.1C71,85.4,70.3,85.5,70.2,85.9"/>
			<path class="st8" d="M65,94.2c-0.4,1.6-1.2,4-1.6,5.2c-0.2,0.2-0.1,0.9,0.6,0.6c0.9-1.8,1.2-3.8,1.8-5.7
				C65.9,93.8,65.1,93.7,65,94.2"/>
			<path class="st8" d="M64.1,106.3c-0.4,1.8-1.1,3.9-1.6,5.3c0,0.1,0,0,0,0c0,0.1-0.1,0.2,0,0.3c0.1,0.2,0.4,0.3,0.6,0.2
				c0.9-1.7,1.3-3.8,1.8-5.6C65.1,105.9,64.2,105.7,64.1,106.3"/>
			<path class="st8" d="M71.4,103.7c-0.3,1.6-0.7,3.7-1.2,4.8c-0.2,0.6-0.8,1.5,0.2,1.5c0.2-0.1,0.3-0.2,0.3-0.4
				c0.7-1.8,1.1-3.8,1.5-5.7C72.4,103.3,71.5,103.2,71.4,103.7"/>
			<path class="st8" d="M73.3,94.8c-0.2,0.9-0.5,1.8-0.6,2.7c0,0.2,0.2,0.3,0.3,0.3c0.2,0,0.4-0.1,0.5-0.3c0.2-0.8,0.5-1.7,0.7-2.5
				C74.2,94.4,73.4,94.3,73.3,94.8"/>
			<path class="st8" d="M79,84.9c-0.2,1.1-0.5,2.2-0.7,3.4c0.1,0.3,0.5,0.4,0.7,0.2c0.4-1.1,0.6-2.4,0.8-3.6
				C79.8,84.4,79.1,84.5,79,84.9"/>
			<path class="st8" d="M88.4,82.5c-0.2-0.3-0.7-0.2-0.7,0.2c-0.4,1.2-0.7,2.5-1.1,3.7c0,0.1,0,0.2,0.1,0.3c0.2,0.3,0.7,0.2,0.7-0.2
				c0.3-0.9,0.5-1.9,0.8-2.8C88.3,83.3,88.6,82.9,88.4,82.5"/>
			<path class="st8" d="M84.7,94.4c-0.3-0.4-0.9-0.2-1,0.2c-0.1,1.6-0.4,3.1-0.6,4.7c0,0.2-0.1,0.5-0.1,0.7c0.1,0.3,0.5,0.5,0.8,0.3
				c0.5-0.6,0.4-1.9,0.6-2.7C84.5,96.7,84.9,95.4,84.7,94.4"/>
			<path class="st8" d="M82.2,107.6c-0.2-0.3-0.8-0.2-0.9,0.2c-0.1,1-0.2,1.9-0.3,2.9c-0.1,0.3-0.1,0.7,0.3,0.8
				c0.4,0.1,0.6-0.3,0.6-0.7c0.1-0.6,0.1-1.2,0.2-1.8C82.2,108.5,82.4,108,82.2,107.6"/>
			<path class="st8" d="M95.8,107.6c-0.2-0.3-0.8-0.2-0.9,0.2c-0.1,1.6-0.2,3.3-0.4,4.9c0,0.5-0.4,1.3,0.4,1.3
				c0.2,0,0.4-0.2,0.4-0.4c0.2-1.5,0.3-3.1,0.5-4.6C95.8,108.5,96,108,95.8,107.6"/>
			<path class="st8" d="M92.6,94.9c-0.2-0.3-0.7-0.2-0.7,0.2c-0.1,1-0.2,2-0.4,2.9c0,0.1,0,0.3,0.2,0.4c0.6,0.3,0.7-0.5,0.7-0.9
				c0.1-0.5,0.2-1.1,0.2-1.6C92.6,95.6,92.8,95.2,92.6,94.9"/>
			<path class="st8" d="M95.4,83.6c-0.2-0.3-0.7-0.2-0.8,0.2c-0.1,1.5-0.3,2.9-0.5,4.4c-0.1,0.3,0.2,0.5,0.4,0.5
				c0.2,0,0.4-0.2,0.4-0.4c0.2-1.2,0.4-2.4,0.5-3.6C95.4,84.3,95.6,83.9,95.4,83.6"/>
			<path class="st8" d="M98.5,99.6c-0.1,1.1-0.2,2.3-0.3,3.5c-0.1,0.2,0.1,0.5,0.4,0.5c0.4,0.1,0.6-0.3,0.6-0.6c0.1-1,0.1-2,0.2-3
				C99.7,99.3,98.8,98.8,98.5,99.6"/>
			<path class="st8" d="M103.6,111.4c-0.3-0.3-0.8,0-0.8,0.4c0,1.2,0,2.3,0.1,3.5c0,0.2,0.1,0.3,0.3,0.4c0.3,0.1,0.6-0.2,0.6-0.5
				c0-0.8,0-1.6,0-2.4C103.7,112.3,103.9,111.8,103.6,111.4"/>
			<path class="st8" d="M101.2,83c-0.2-0.3-0.7-0.2-0.8,0.2c-0.2,2.1-0.3,4.3-0.5,6.4c0,0.5-0.6,1.9,0.3,2c0.5-0.1,0.4-0.7,0.5-1
				c0.2-1.8,0.4-3.6,0.5-5.5C101.1,84.4,101.4,83.7,101.2,83"/>
			<path class="st8" d="M80.3,113.1c-0.4,1.5-0.8,3.6-1.2,4.8c-0.2,0.3,0.3,0.7,0.6,0.5c0.2-0.1,0.2-0.3,0.3-0.5
				c0.4-1.5,0.7-3.1,1.1-4.6C81.2,112.8,80.4,112.6,80.3,113.1"/>
			<path class="st8" d="M88.3,116.2c0,0.9-0.4,1.9-0.2,2.8c1.1,1,0.9-2,1.1-2.6C89.4,115.8,88.4,115.7,88.3,116.2"/>
			<path class="st8" d="M97.8,116.5c-0.2-0.4-0.9-0.2-0.9,0.2c-0.1,1.4-0.2,3.5-0.3,4c-0.1,0.4,0,0.8,0.5,0.8c0.3,0,0.4-0.3,0.5-0.5
				c0.1-1,0.2-2.1,0.2-3.1C97.7,117.4,98,116.9,97.8,116.5"/>
			<path class="st8" d="M72.2,113.7c-0.2,1.1-0.3,2.2-0.5,3.3c-0.1,0.2,0.1,0.5,0.4,0.5c0.4,0.1,0.6-0.3,0.6-0.6c0.2-1,0.3-2,0.5-3
				C73.2,113.3,72.3,113.1,72.2,113.7"/>
			<path class="st8" d="M28,116.6c-0.3,1.2-0.6,2.4-0.8,3.6c-0.1,0.3,0.2,0.5,0.5,0.5c0.2,0,0.4-0.2,0.4-0.3
				c0.3-1.2,0.6-2.4,0.9-3.6C29,116.3,28.1,116.1,28,116.6"/>
			<path class="st8" d="M36.5,111.6c-0.3,1.8-0.6,3.5-1,5.3c0,0.3-0.2,0.5-0.1,0.8c0,0.3,0.4,0.4,0.7,0.3c0.2-0.2,0.2-0.5,0.3-0.7
				c0.4-1.7,0.6-3.5,1-5.2C37.6,111.4,36.7,110.9,36.5,111.6"/>
			<path class="st8" d="M52.9,113.9c-0.3-0.2-0.7-0.1-0.8,0.3c-0.4,1.1-0.8,2.3-1.1,3.4c0,0.2,0,0.4,0.2,0.4
				c0.5,0.2,0.7-0.2,0.7-0.4c0.3-0.8,0.7-1.9,0.8-2.2C52.8,114.9,53.4,114.3,52.9,113.9"/>
			<path class="st8" d="M19.3,105.9c-0.2,1.8-0.6,3.5-0.9,5.2c-0.1,0.3,0.3,0.6,0.6,0.4c0.7-1.7,0.7-3.7,1.1-5.5
				C20.2,105.6,19.4,105.4,19.3,105.9"/>
			<path class="st8" d="M20.6,117.4c-0.4,1.7-0.9,3.3-1.4,5c-0.1,0.3,0.2,0.7,0.6,0.6c0.2,0,0.4-0.2,0.5-0.4c0.4-1.7,1-3.3,1.4-5
				C21.8,116.9,20.7,116.7,20.6,117.4"/>
			<path class="st8" d="M62.1,112.5c-0.4,1.6-0.8,3.2-1.2,4.8c-0.1,0.4,0.4,0.7,0.7,0.5c0.6-1.3,0.9-3.6,1.4-5.1
				C63.1,112.1,62.2,111.9,62.1,112.5"/>
			<path class="st8" d="M59.6,103c-0.5,1.6-0.8,3.2-1.2,4.8c-0.1,0.4,0.4,0.7,0.7,0.5c0.7-1.6,0.8-3.5,1.4-5.1
				C60.6,102.6,59.7,102.4,59.6,103"/>
		</g>
		<g>
			<g>
				<g>
					<path class="st8" d="M107.2,65.4c-0.8-4.3-5.4-6.7-9.4-8c-0.2-0.1-0.3-0.1-0.4-0.2c0,0,0.1,0,0.1-0.1c1.4-1.1,3.5-2.4,3.7-4.3
						c-0.6-2.6-2.7-4.8-4.9-6.2c-2-1.1-4.4-1.6-6.7-1.9c-1.4-0.1-3.6,0-4.6-0.1c0,0,0,0,0,0c0.1-0.7,0.7-2.1,0.9-3.4
						c0.5-1.7-0.3-3.3-1.5-4.5c-0.7-0.7-1.3-1.5-2.1-2c-1.4-0.9-3.2-1.1-4.9-0.8c-1.3,0.3-2.5,0.8-3.6,1.3c1.2-1.9,0.7-4.4-1.1-5.9
						c-1.8-1.5-4-2.5-6.2-3.4c-3-0.7-6.3,0.4-8.4,2.5c-0.1,0.1-0.1,0.2-0.2,0.2c-2.1-0.2-4.4,0-6.3,0.2c-4.7,0.7-8.4,5.1-8.4,9.7
						c-0.3-0.1-0.6-0.2-1-0.4c-5.3-1.8-17,2.1-19.8,6.8c-0.9,1.4-1.8,3.2-1.5,4.8C16.5,48.6,9.5,51.5,6.2,54
						c-3.8,2.9-7.2,8.7-5.9,13.4c1.5,4.2,6.5,6.1,10.8,5.4c2.2-0.3,4.5-0.6,6.7-1.1c0.6-0.3,1.2-0.6,1.8-0.8c-1.3,5.1,4.1,8.5,9,8.6
						c1.6,0,3.1-0.7,4.7-1.1c2.5-0.9,6-2.2,7.9-3.5c3.3,11.5,15.7,8.6,23.1,2.6c0.7-0.7,1.5-1.3,2.2-2c0,0.1,0.1,0.1,0.1,0.2
						c1,1.7,2.4,3.3,4.3,4.1c2.8,1.1,6.4,1.2,8.6,0.2c3.9-1.2,9-3.4,8.8-8c0,0,0,0,0-0.1c0.4,0.2,0.7,0.4,1.1,0.7
						c2.4,1.7,5.6,1.4,8.4,1.2C102.5,73.3,107.9,70.8,107.2,65.4"/>
					<g>
						<path class="st3" d="M11.8,65.3c-0.5-0.2-1.1,0.1-1.5,0.2c-0.7,0.2-1.1,0.4-1.6,0.4c-0.8,0-1.8-1-1.9-1.6
							c-0.6-1.3,1.3-3.2,2.3-4.4c0.2-0.3,0.6-0.5,0.7-0.8c0-0.3-0.4-0.6-0.7-0.3c-0.8,0.8-1.5,1.7-2.2,2.6c-0.5,0.7-1.1,1.6-1,2.5
							c0.1,1.5,1.3,2.7,2.8,2.9c0.8,0.1,1.6-0.3,2-0.4c0.5-0.2,1.1-0.1,1.5-0.4C12,65.8,12,65.5,11.8,65.3"/>
						<path class="st3" d="M34.5,43.8c-1.2,0.2-2.4,0.7-3.5,1.2c-0.7,0.3-1.5,0.7-1.8,1.5c-0.3,0.7-0.7,1.4-0.5,2.1
							c0.3,1.2,1.1,2.5,2.4,2.6c0.4,0,0.7,0.1,1.1,0c0.3-0.1,0.4-0.5,0.2-0.7c-0.3-0.3-0.9-0.1-1.3-0.2c-0.6-0.1-1.3-0.8-1.5-1.7
							c-0.1-0.6,0-0.9,0.3-1.7c0.3-1,2.9-1.8,4.3-2.2c0.2-0.1,0.5,0,0.7-0.3C35.1,44.2,34.8,43.8,34.5,43.8"/>
						<path class="st3" d="M26.5,61.1c-0.3,0-0.6,0.2-0.8,0.2c0,0-0.1,0-0.2,0.1c-1.3,0.5-3,0.3-3.7-0.1c-1.2-0.8-1.8-2-1.3-3.2
							c0.5-1.2,1.9-2.6,2.9-3.2c0.7-0.2,0.7-1.2-0.1-1c-0.9,0.4-1.6,1.1-2.2,1.8c-0.9,0.9-1.7,1.9-1.7,3.2c0.1,3.2,3.2,4.2,5.9,3.5
							c0.5-0.2,1.3-0.2,1.6-0.7C27.1,61.5,26.8,61.2,26.5,61.1"/>
						<path class="st3" d="M33.2,71.4c-0.5,0-0.8,0.4-1.3,0.5c-0.9,0.4-1.8,0.8-2.2,0.8c-0.9,0-1.6-0.7-1.8-1.4
							c0.2-0.7,1.2-3.2,2.3-4.3c0.7-0.5,0.1-1.4-0.5-0.8c-1.1,1.1-1.7,2.5-2.3,3.9c-0.2,0.5-0.5,1-0.3,1.5c0.4,1.1,1.5,2.1,2.8,2
							c0.9,0,1.7-0.5,2.6-0.9c0.4-0.2,1-0.3,1.2-0.8C33.7,71.8,33.5,71.4,33.2,71.4"/>
						<path class="st3" d="M56,75.3c-0.1-0.2-0.4-0.2-0.6-0.1c-0.5,0.2-1,0.5-1.5,0.8c-1.2,0.8-3.7,1-4,0.6
							c-0.3-0.3-0.2-2.4,0.2-3.3c0.4-0.7-0.3-1.3-0.8-0.6c-0.4,1.4-0.9,3.1-0.2,4.5c0.4,0.5,1.1,0.6,1.6,0.6
							c0.9-0.1,1.9-0.2,2.8-0.5c0.8-0.3,1.5-0.9,2.3-1.2C56.1,76,56.2,75.6,56,75.3"/>
					</g>
				</g>
				<g>
					<path class="st7" d="M45.1,47.7c0.2-0.1,0.5-0.1,0.9-0.1 M135.6,63.5c-1.7-2.3-3.8-4.5-6.4-6c-0.3-0.1-0.5-0.3-0.8-0.4
						c0-0.5,0.5-0.9,1.5-1.7c2.1-1.8,2.8-4.7,2.2-7.3c-1.3-2.9-4-5.3-6.6-7.2c-2.1-1.4-4.8-2-7.2-2.6c-1.2-0.2-3.2-0.3-3.8-0.5
						c0,0,0,0,0,0c-0.5-0.7,0.9-3.1,1-5.1c0.4-2.3-0.6-4.8-2.3-6.6c-1.1-0.9-2.5-1.5-3.9-2c-1.5-0.6-3.8-0.7-5-0.7
						c0,0,0-0.1,0.1-0.3c0.4-1.1,0.7-3.7,0.1-5.3c-0.4-0.9-1.1-1.7-1.8-2.5c-1.5-1.6-3.7-2.2-5.9-2.5c-1.7-0.2-3.4,0.4-4.7,1.2
						c-1,0.7-2.6,1.8-2.8,2.7c-2-0.6-4.2-0.9-6.3-0.8c-1.4,0.3-2.4,1.3-3.5,1.9c-2.5,1.9-6.1,4.4-4.5,7.8c0.1,0.1,0.1,0.2,0.2,0.3
						c-0.4,0-0.8,0.1-1.2,0.2c-2,0.2-3.8,1-5.4,2.1c-2,1.1-3.9,2.4-5.5,3.9c-1.4,1.4-2.1,3.5-1.3,5.3c0.1,0.4,0.4,0.8,0.6,1.2
						c-0.1,0-0.2,0-0.3,0c-0.1,0-0.3,0-0.4,0c-1.2-0.4-2.5-0.7-3.7-1c-0.9-0.1-3.4-1.2-5.8,1.3c-1.5,1.2-1.7,3.9-1.8,5.8
						c-0.8,0.6-1.6,1.2-2.5,1.6c0,0,0,0,0,0c-0.1,0-0.2,0-0.3-0.1c-1.9-0.3-3.9,0-5.5,1.3c-1.5,1.2-3,2.7-3.9,4.5
						c-1.8,3-1.2,4.5,0.5,7.3c1.1,1.8,2,2.8,3.6,4.1c0.6,0.7,1.8,1.6,3,2.1c1.8,0.9,3.5,2,5.5,2.4c3.7,0.6,7.1,0.8,10.8,0.1
						c2.4-0.4,4.7,0.1,7.3,0.9c3.3,0.9,7.4,2.8,11.1,4.2c3.2,1,6.5,1.8,9.9,2.4c2.6,0.3,4.7,0.2,7.1,0.2c2.2-0.1,4.4-0.6,6.5-0.9
						c1.5-0.3,2.3-0.7,3.5-0.6c2.2,0.1,4.2,0.8,6.3,1c2.9,0.4,5.5,0.7,8.6-0.3c1-0.3,1.9-0.7,2.9-1.1c0.4-0.1,0.8-0.1,1.2-0.2
						c2.4-0.4,4.9-1,6.9-2.2C136.3,70.2,137.4,66.5,135.6,63.5"/>
					<g>
						<path class="st7" d="M56.1,38.7C56.1,38.7,56.1,38.7,56.1,38.7C56.1,38.7,56.1,38.7,56.1,38.7C56,38.8,55.9,38.9,56.1,38.7"/>
						<path class="st3" d="M48.4,54.3c0.3-0.2,0.7-0.2,0.9-0.4c0.3-0.3,0-0.9-0.4-0.8c-1.8,0.7-5.9,2.9-4.8,5.5
							c0.3,0.8,1,1.4,1.7,1.8c0.4,0.3,0.7,0.4,1.4,0.4c0.2,0,0.5,0.3,0.9,0.1c0.3-0.1,0.4-0.6,0.2-0.8c-0.3-0.3-0.7-0.3-1.1-0.4
							c-0.8,0-2.3-1-2.4-2.1C44.7,56.7,46.7,55.2,48.4,54.3"/>
						<path class="st3" d="M65.4,43.6c-2-0.6-4.9-0.2-6,2c-0.7,1.9,0.9,3,2.2,3.8c0.5,0.2,0.5,0.6,1.1,0.4c0.3-0.1,0.3-0.5,0.2-0.8
							c-0.2-0.2-0.5-0.3-0.7-0.4c-0.3-0.2-1.2-0.8-1.7-1.3c0-0.1-0.1-0.1-0.1-0.2c0,0,0,0,0,0c0,0,0,0,0,0c-0.5-1,0.1-1.9,1.5-2.5
							c0.6-0.2,2.4-0.5,2.9-0.3c0.3,0,0.5,0.2,0.8,0.1C65.7,44.2,65.7,43.7,65.4,43.6"/>
						<path class="st3" d="M82.7,31.7c-1.9-0.3-4.1-0.8-5.8,0.4c-1,0.8-1.8,2-2.3,3.2c-0.2,1.1,0,2.3,0.6,3.1
							c0.7,0.8,1.6,1.3,2.5,1.6c0.2,0.1,0.5,0.2,0.7,0c0.5-0.7-0.5-1-1-1.1c-0.3-0.1-1.4-0.8-1.5-0.9c-1.3-1.6-0.5-3.2,1-4.7
							c1.2-1.2,2.9-1,4.9-0.7c0.3,0,0.6,0.2,0.9,0C83.2,32.2,83.1,31.7,82.7,31.7"/>
						<path class="st3" d="M95.4,22c-1-0.5-2-1.3-3.2-1.5c-0.9-0.2-1.9-0.1-2.8,0.2c-0.4,0.1-0.9,0.5-1,1c-0.2,1.7-0.2,3.9,0.6,5.4
							c0.3,0.3,0.8-0.1,0.6-0.5c-0.7-1.2-0.6-4.4-0.4-4.8c0.5-0.5,2.3-0.7,3-0.3c1.1,0.3,1.9,1.1,3,1.5C95.7,23,95.8,22.2,95.4,22"
							/>
						<path class="st3" d="M103.2,32.2c-2.5-0.3-5.5,0.4-6.9,3c-0.7,1.6,0,3.5,1.4,4.2c1.1,0.8,2.3,1,3.5,1.5c0.2,0.2,0.6,0.2,0.8,0
							c0.6-0.9-0.8-1.2-1.4-1.4c-1.2-0.4-2-0.7-2.9-1.4c-1.6-1.4-0.6-3.8,2-4.7c0.8-0.3,2.3-0.5,3.4-0.3
							C103.6,33.1,103.7,32.2,103.2,32.2"/>
						<path class="st3" d="M86.3,48.7c1-0.6,2-0.7,3.2-1c0.4-0.2,0.1-0.9-0.3-0.8c-1.2,0.2-2.6,0.4-3.6,1.3c-1.8,2.4-0.6,3.9,1.5,5
							c1.4,0.5,1.3-1.1,0.4-0.9c-0.9-0.3-2.1-1.5-2-2C85.5,49.8,86.1,48.8,86.3,48.7"/>
						<path class="st3" d="M75.9,54.8c-0.2-0.1-0.4,0-0.6-0.1c-2.1-0.3-3-1.6-2-3.1c0.9-1,2-1.4,3.3-2.1c0.3-0.3-0.1-0.9-0.4-0.7
							c-1.4,0.7-3,1.3-3.8,2.8c-0.9,2.2,0.8,3.6,2.6,3.9c0.4,0.1,0.8,0.2,1.1,0C76.1,55.3,76.1,55,75.9,54.8"/>
						<path class="st3" d="M64.8,62.8c-0.2-0.2-0.4-0.2-0.6-0.2c-0.1,0-0.2,0-0.2-0.1c-3.6-1-2.7-3.1,0-5.5c0.4-0.5,0.7-0.4,1.2-1
							c0.2-0.4-0.3-0.8-0.6-0.6c-1.5,1-3.3,2.5-3.8,4.4c-0.5,2.2,1.7,3.6,3.4,3.8C64.5,63.9,65.1,63.4,64.8,62.8"/>
						<path class="st3" d="M88.9,60c-2.3,0.5-7.1,2.2-7.1,5.3c0.3,2.1,2.5,3.1,4.2,3.2c0.4,0,0.9,0.1,1.2-0.1c0.2-0.2,0.2-0.6,0-0.8
							c-0.3-0.2-0.7,0-1.1-0.1c-1.6,0-3.3-1-3.5-2.4c-0.1-0.4,0.5-1.4,1.4-2c1.2-0.9,3.1-1.8,4.7-2.1c0.2-0.1,0.5-0.1,0.6-0.3
							C89.5,60.4,89.2,59.9,88.9,60"/>
						<path class="st3" d="M103.4,55.4c-0.5-0.2-0.5,0-1-0.1c-2.8,0.1-3.7-1.8-1.8-3.7c1-1.1,2-2.1,3-2.7c0.5-0.2,0.1-1.1-0.3-0.8
							c-1.1,0.6-2.1,1.6-3,2.6c-0.7,0.7-1.4,1.6-1.5,2.6c-0.2,2.3,2.1,3.2,3.8,3.1c0.5,0,0.5,0.1,0.8-0.1
							C103.7,56.1,103.7,55.6,103.4,55.4"/>
						<path class="st3" d="M123.5,50c-0.5-0.3-0.5,0-1.2,0.1c-1.8,0.3-3.7,0.6-4.9-0.6c-0.3-0.3-0.6-0.8-0.3-1.5
							c0.5-1.3,1.6-2.4,2.8-3.5c0.4-0.4-0.1-1.1-0.5-0.7c-5.9,4.8-3.1,8.6,3.3,7.3c0.3-0.1,0.7-0.1,0.9-0.4
							C123.8,50.5,123.7,50.1,123.5,50"/>
						<path class="st3" d="M124.7,63.7c-0.5-0.3-1.2,0.1-1.8,0.2c-0.8,0.3-2.1,0.7-2.6,0.8c-0.8,0-1.4-0.7-1.6-1.6
							c0.1-1.1,0.3-2.9,1.1-4.3c0.2-0.6-0.6-0.9-0.8-0.3c-0.7,1.4-1,3.1-1.1,4.7c0.1,1.2,0.9,2.3,2,2.6c1.3,0.3,2.6-0.6,3.9-0.8
							c0.3-0.1,0.6,0,0.9-0.2C125,64.5,125,63.9,124.7,63.7"/>
						<path class="st3" d="M104.8,69.2c-0.5-0.2-0.4,0-1.2,0c-0.6,0-2.1,0.3-2.5,0.2c-0.7-0.3-1.3-0.7-1.3-1.4c-0.1-1,0.8-3,1.5-4.2
							c0.3-0.5-0.4-1-0.7-0.5c-0.8,1.5-1.8,3.2-1.7,5c0.1,1,0.9,1.6,1.6,1.9c1.1,0.3,2.7-0.2,3.3-0.1c0.3,0,0.6,0,0.8-0.1
							C105,69.8,105,69.3,104.8,69.2"/>
						<path class="st3" d="M110.9,60.1c-0.1-0.1-0.5-0.1-0.6-0.1c-0.5-0.2-1-0.6-1.1-0.9c-0.1-0.4,0.5-2.7,1.1-3.6
							c0.2-0.3,0.6-0.6,0.5-1c0-0.4-0.5-0.5-0.7-0.2c-0.9,1.3-2.7,4.7-1.1,5.9c0.5,0.4,1.2,0.8,1.8,0.5
							C111.1,60.6,111.1,60.2,110.9,60.1"/>
						<path class="st3" d="M117.1,70.5c-0.9,0.7-1.8,1.2-2.2,0.8c0,0,0,0,0,0c-0.2-0.3,0-1.8,0.1-2.1c0-0.3,0.3-0.7,0.2-1
							c-0.1-0.3-0.6-0.3-0.7,0c-0.3,1.1-0.7,2.6-0.1,3.7c0.7,1,2.5,0,2.8-0.4c0.2-0.2,0.5-0.2,0.6-0.5
							C117.8,70.7,117.4,70.3,117.1,70.5"/>
						<path class="st3" d="M132.6,67.5c0-0.3-0.3-0.4-0.5-0.4c-0.4,0.1-0.5,0.6-0.8,0.9c-1.2,2.2-3.2,2-4.6,0.5
							c-0.4-0.4-1,0.4-0.5,0.8c1.1,1.2,3.9,2.1,5.2,0.1c0.3-0.4,0.6-0.9,1-1.4C132.5,67.9,132.6,67.7,132.6,67.5"/>
					</g>
				</g>
			</g>
			<g>
				<path class="st7" d="M73.7,10.5C72.9,9.9,72,9.3,71.1,9c0.3-0.4,0.5-0.8,0.6-1.3c0.5-2.8-2-4.6-4.5-5.2
					c-1.3-0.3-2.1-0.2-3.6-0.2c-1.8,0-3.4,1-4.5,2.4c-0.2,0.2-0.3,0.3-0.4,0.4c0-0.1-0.1-0.2-0.1-0.2c-0.8-0.7-1.8-0.9-2.9-1
					c-1.4-0.2-2.9-0.2-4.3,0.4c-1.8,0.7-2.4,2.8-2.2,4.5c0,0-0.1,0-0.1,0c-1-0.4-2.1-0.3-3.1-0.3c-1.3,0.1-2.7,0.1-3.9,0.6
					c-2.6,0.6-6.3,2.4-5.9,5.6c0,0.2,0.1,0.4,0.1,0.6c-0.2,0-0.4,0-0.6,0c-2.2,0-3.7,0.5-5.8,1.1c-2.4,0.7-4.7,1.8-6.2,3.8
					c-2.2,3.1-2.2,6.9,2.1,7.9c3.2,0.5,6.4-0.6,9.1-2.1c0.5-0.3,0.9-0.6,1.2-0.9c0.6,1.8,2.7,3.3,4.5,3.5c2.6,0,4.9-1.9,6.9-3.3
					c0.1,0.5,0.3,1.1,0.6,1.5c0.7,1,1.8,1.9,3.1,2.2c2.4,0.4,4.6-1.2,6.2-2.7c0.5-0.5,0.8-1.2,1.1-2c0.9,1.3,2.4,1.7,4.2,1.1
					c2.5-0.7,5.8-1.7,6.3-4.6c0.1-1-0.1-1.9-0.6-2.7c0.4,0,0.8,0,1.2,0c1.5-0.3,3-0.9,4.1-1.9c0.7-0.8,1.1-1.8,1.4-2.7
					C75.2,12,74.6,11.1,73.7,10.5"/>
				<g>
					<path class="st3" d="M29.6,23.3c-0.5,0.2-2,0.3-2,0.1c-0.6-0.4-0.4-1.2,0.1-1.6c0.8-0.7,1.4-1.2,2.2-1.6c0.3-0.3,0-0.8-0.4-0.7
						c-0.8,0.3-1.4,0.9-2,1.4c-0.4,0.3-0.8,0.6-0.9,1.1c-0.3,0.8,0.1,1.8,0.9,2.1c0.6,0.2,1.3,0.1,2,0c0.3-0.1,0.7-0.1,0.9-0.4
						C30.6,23.3,30,23.1,29.6,23.3"/>
					<path class="st3" d="M46.2,10.8c-1.1,0.1-2.2,0.4-3.2,0.9c-0.7,0.3-1.4,0.7-1.8,1.4c-0.4,0.6-0.2,1.4,0.4,1.8
						c0.6,0.4,1.3,0.4,1.9,0.4c0.1,0,1,0.1,1.5-0.1c0.5-0.2,0.1-0.9-0.3-0.8c-2.2,0.2-4.1-0.3-1.8-1.7c0.8-0.4,2.4-1,3.5-1.1
						C46.9,11.7,46.8,10.8,46.2,10.8"/>
					<path class="st3" d="M42.9,23.3c-0.3-0.1-0.5,0.1-0.7,0.1c-0.1,0-0.3,0.1-0.3,0.1C40,24,39.5,23,40.1,22.1
						c0.7-0.8,1.7-1.4,2.9-1.8c0.5-0.2,0.2-0.9-0.3-0.8c-1.4,0.6-3,1.3-3.6,2.7c-0.6,2.1,1.7,2.6,3.2,2c0.2-0.1,0.5-0.1,0.6-0.3
						C43.2,23.8,43.2,23.4,42.9,23.3"/>
					<path class="st3" d="M56.9,21.3c-1.1,0.3-3.1,1.2-3.4,1.4c-0.6,0-0.7,0-0.9-0.7c-0.1-0.6-0.2-0.9,0.1-1.5
						c0.6-1,1.6-2.2,2.7-2.9c0.4-0.3,0-0.9-0.4-0.6c-1,0.6-1.9,1.6-2.6,2.6c-0.7,0.9-0.8,2-0.4,3c0.9,1.9,2.9,0.1,4.2-0.3
						c0.4-0.2,1.1-0.2,1.4-0.6C57.8,21.4,57.2,21.1,56.9,21.3"/>
					<path class="st3" d="M58.9,8.5c-1.1-0.4-2.2-0.4-3.3-0.3c-0.8,0-1.6,0.2-2.1,0.7c-1.4,1.5,0.4,2.8,1.9,3c0.5,0,1,0.3,1.4,0.2
						c0.5-0.5-0.1-0.8-0.6-0.8c-1.1-0.2-2-0.3-2.4-0.9c-0.2-0.3,0-1,0.8-1.2c1.2-0.3,2.7-0.3,4.2,0.2C59.2,9.4,59.4,8.6,58.9,8.5"/>
					<path class="st3" d="M67.1,13.2c-0.8,0.2-1.4,0.4-2,0.1c-1.7-0.7-0.3-1.5,1.1-3c0.3-0.3,0.5-0.4,0.8-0.7
						c0.1-0.1,0.3-0.2,0.3-0.4C67.6,9,67.2,8.8,66.9,9c-1,0.7-1.8,1.6-2.7,2.5c-0.4,0.4-0.8,1.1-0.5,1.7c0.6,1.1,2.1,1.3,3.2,0.9
						C67.5,14,67.7,13.4,67.1,13.2"/>
					<path class="st3" d="M65,21.3c-0.6,0.2-0.7,0.3-1,0.2c-0.2,0-0.3-0.9,0-1.6c0.1-0.3,0.3-0.5,0.2-0.8c-0.1-0.3-0.6-0.3-0.7,0
						c-0.9,1.6-0.8,4.1,1.7,2.9C65.8,21.9,65.5,21.2,65,21.3"/>
					<path class="st3" d="M66.3,4.4c-1-0.1-2,0.1-2.9,0.4c-0.5,0.2-1.1,0.4-1.2,1C62,6.2,62,6.7,62.4,7c0.4,0.3,0.9-0.2,0.6-0.6
						c0,0,0-0.1,0-0.1c0,0,0,0,0-0.1c0-0.1,0-0.2,0.1-0.3c0,0,0-0.1,0-0.1c0.3-0.4,2.1-0.7,2.7-0.7c0.3,0,0.5,0.1,0.8,0
						C66.8,5,66.7,4.5,66.3,4.4"/>
				</g>
			</g>
		</g>
	</g>
</g>
</svg>
