<?xml version="1.0" encoding="utf-8"?>
<!-- Generator: Adobe Illustrator 27.0.0, SVG Export Plug-In . SVG Version: 6.00 Build 0)  -->
<svg version="1.1" xmlns="http://www.w3.org/2000/svg" xmlns:xlink="http://www.w3.org/1999/xlink" x="0px" y="0px"
	 viewBox="0 0 154.9 136.5" style="enable-background:new 0 0 154.9 136.5;" xml:space="preserve">
<style type="text/css">
	.st0{fill:#FFFFFF;}
	.st1{fill:#3C5987;}
	.st2{clip-path:url(#SVGID_00000026137247519158649030000005212743082290617230_);}
	.st3{fill:#8CA2CF;}
	.st4{fill:#BBD7FF;}
	.st5{fill:#627EB5;}
	.st6{clip-path:url(#SVGID_00000137840750749827043340000012718289607784035510_);}
	.st7{fill:#8CA05C;}
	.st8{fill:#677724;}
	.st9{fill:#E0A955;}
	.st10{fill:#669CD3;}
	.st11{clip-path:url(#SVGID_00000165225664280111605780000008391510621148785066_);}
	.st12{fill:#92C4FC;}
	.st13{fill:#FAF4D2;}
	.st14{fill:#FCCB7C;}
	.st15{clip-path:url(#SVGID_00000142874996684339370400000004001879150342102179_);}
	.st16{clip-path:url(#SVGID_00000073720040022352946790000008833281126393275278_);}
	.st17{fill:#C5CAF0;}
	.st18{clip-path:url(#SVGID_00000144321912622779612270000008262823476167478705_);}
	.st19{clip-path:url(#SVGID_00000142159422252870581690000004100931487769799054_);}
	.st20{clip-path:url(#SVGID_00000057137918249714099610000000905101089525362832_);}
	.st21{clip-path:url(#SVGID_00000033367631352099270170000014005542085459238838_);}
	.st22{fill:#F9CC3D;}
	.st23{fill:#FFEAAE;}
	.st24{fill:#FFECB8;}
	.st25{fill:#D3AA37;}
	.st26{fill:#FFE08A;}
	.st27{clip-path:url(#SVGID_00000075874646529299456150000000295190815889170825_);}
	.st28{clip-path:url(#SVGID_00000113327892008080628550000004367215230155947698_);}
	.st29{clip-path:url(#SVGID_00000065787372530923813590000010126289126797712306_);}
	.st30{clip-path:url(#SVGID_00000118396350913832859210000002427167515026567850_);}
	.st31{clip-path:url(#SVGID_00000027580131932672591360000012654735780856501949_);}
	.st32{clip-path:url(#SVGID_00000101802350461624025890000003368514536165419438_);}
	.st33{clip-path:url(#SVGID_00000100348379143279651730000018400198803231709622_);}
	.st34{clip-path:url(#SVGID_00000034786681407808875220000006798384985989772713_);}
	.st35{clip-path:url(#SVGID_00000009563843848856742070000008000241964761797799_);}
</style>
<g id="BACKGROUND">
</g>
<g id="OBJECTS">
	<g>
		<g>
			<path class="st1" d="M140.6,68.6c-0.2-2.7-0.9-5.2-1.5-7.7c-0.5-2.1-0.8-4.2-1.4-6.3c-0.9-4.2-2.3-8.2-4-12
				c-1.3-3.7-3.4-7-5.7-10c-2.7-3.6-5.8-6.9-9.2-9.6c-2-1.5-4.2-2.8-6.3-4.2C93.9,6.1,68.9-2.1,47.6,22.2c-2.8,3.1-5.7,6.1-8.4,9.3
				c-2.1,2.7-4.5,5.3-6.4,8.2c-2,3.7-3.7,7.6-5.8,11.3c-1,2-2.2,4-3.1,6.1c-1.1,2.8-1.8,5.7-2.7,8.5c-1.3,3.8-2,7.7-2.7,11.7
				c-0.7,3.9-1.5,7.8-1.8,11.7c-0.8,6.7-0.9,13.6-0.4,20.3c0,2.4,0.1,4.9,0.4,7.3c0.1,2.1,0.2,3.5,1.8,6.9c1.8,3.5,4.5,6.1,7.3,8.6
				c1.9,1.1,1.6,0.9,2.2,1.3c1.7,1,3.6,1.7,5.4,2.3c1.9,0.7,3.8,1.5,5.8,1.7c3.1-0.1,6.2-0.8,9.3-1.4c4.7-1.3,9.3-3.3,14-4.9
				c2.8-0.7,4.6-0.6,9.1-0.9c2.9-0.2,7.8,0.5,8.1,0.6c7.2,1.7,10.2,2.7,17.2,3.2c4.9,0.4,10.1,0.1,14.8-1.7
				c3.7-1.5,7.2-3.9,10.4-6.5c3.3-3.1,5.8-7,7.9-11.2c2.8-5,4.9-10.4,6.5-16c1.3-4.5,2.8-8.9,3.2-13.7c0.4-3.2,1-6.4,1.2-9.6
				C141,73,140.7,70.8,140.6,68.6"/>
			<g>
				<defs>
					<path id="SVGID_1_" d="M140.6,68.6c-0.2-2.7-0.9-5.2-1.5-7.7c-0.5-2.1-0.8-4.2-1.4-6.3c-0.9-4.2-2.3-8.2-4-12
						c-1.3-3.7-3.4-7-5.7-10c-2.7-3.6-5.8-6.9-9.2-9.6c-2-1.5-4.2-2.8-6.3-4.2C93.9,6.1,68.9-2.1,47.6,22.2
						c-2.8,3.1-5.7,6.1-8.4,9.3c-2.1,2.7-4.5,5.3-6.4,8.2c-2,3.7-3.7,7.6-5.8,11.3c-1,2-2.2,4-3.1,6.1c-1.1,2.8-1.8,5.7-2.7,8.5
						c-1.3,3.8-2,7.7-2.7,11.7c-0.7,3.9-1.5,7.8-1.8,11.7c-0.8,6.7-0.9,13.6-0.4,20.3c0,2.4,0.1,4.9,0.4,7.3
						c0.1,2.1,0.2,3.5,1.8,6.9c1.8,3.5,4.5,6.1,7.3,8.6c1.9,1.1,1.6,0.9,2.2,1.3c1.7,1,3.6,1.7,5.4,2.3c1.9,0.7,3.8,1.5,5.8,1.7
						c3.1-0.1,6.2-0.8,9.3-1.4c4.7-1.3,9.3-3.3,14-4.9c2.8-0.7,4.6-0.6,9.1-0.9c2.9-0.2,7.8,0.5,8.1,0.6c7.2,1.7,10.2,2.7,17.2,3.2
						c4.9,0.4,10.1,0.1,14.8-1.7c3.7-1.5,7.2-3.9,10.4-6.5c3.3-3.1,5.8-7,7.9-11.2c2.8-5,4.9-10.4,6.5-16c1.3-4.5,2.8-8.9,3.2-13.7
						c0.4-3.2,1-6.4,1.2-9.6C141,73,140.7,70.8,140.6,68.6"/>
				</defs>
				<use xlink:href="#SVGID_1_"  style="overflow:visible;fill:#3C5987;"/>
				<clipPath id="SVGID_00000116218053119531429380000015459820937020347792_">
					<use xlink:href="#SVGID_1_"  style="overflow:visible;"/>
				</clipPath>
				<g style="clip-path:url(#SVGID_00000116218053119531429380000015459820937020347792_);">
					<path class="st1" d="M137.9,50.5c-0.8-5.8-4-10.5-8.3-15c-1.8-2-3.2-4.1-5.2-6c-1.5-1.4-2.6-3.1-4.1-4.5
						c-1.8-1.8-3.1-2.7-4.9-4.4c-3.1-3.2-7.4-5.5-11.9-7.5c-2.2-0.9-4.5-1.7-6.8-2.4c-2-0.4-4.1-0.6-6.2-0.3
						c-0.4,0.1-0.3-0.1-0.9,0.1c-0.1,0-0.1,0.1-0.2,0.1c-4.5,0.1-9.2,0.6-13.2,2.2c-4.3,2-6.9,5.7-7.3,9.3c0,0.2,0,0.4-0.1,0.5
						c-1-0.2-1.9-0.4-2.9-0.4c-8.2,0.2-15.2,2.1-21.6,6c-2.6,1.9-5.4,4-5.8,6.7c-0.6,1.8-0.2,3.5,0.8,5.1c-3.4,0.2-6.5,1.4-9.5,2.6
						C23.9,45,17.9,47.9,14,52c-2.3,3.3,1.9,6.1,6.2,6.3c8.3,0.8,16.9-0.1,25.2-0.8c-2,2.3-4.2,5.3-2,7.8c6.7,7.2,25,4.5,33.8,0.2
						c2-0.9,3.8-1.9,5.6-3c0.3,1.1,1.1,2.2,2.3,3c1.3,1.2,3.1,2.1,5.2,2.3c8.8,1.2,20.1-1.8,27.1-7.1c0.1,0.4,0.2,0.9,0.4,1.3
						c0.8,1.4,2.5,2.6,4.5,2.9c2.2,0.5,4.5,0.2,6.6-0.4c4-1,7.9-2.9,10-5.6C140.8,56.3,138.3,52.5,137.9,50.5"/>
					<g>
						<g>
							<path class="st1" d="M47.1,126.7c-0.6-3.1-2-7.1-3.2-10.7c-0.9-2.6-2-5.1-3.3-7.5c-1.1-2.2-2.5-4.4-4.8-5.6
								c-1.9-0.7-4.3-0.3-5.7,1c-3.5,3.2-3.8,8.2-4.5,12.4c-0.3,3.3,0.6,6.7,0.6,10c0.4,3.9,0.7,7.9,1.7,11.7c0,0.1,0.1,0.1,0.2,0.1
								c0.2,0.7,1.4,0.6,1.7-0.2c0.1-0.1,0.2-0.3,0.2-0.4c0,0,0,0,0,0c0.1-0.1,0.1-0.1,0.2-0.2c0.5-0.3,1.3-0.6,1.7-0.8
								c0.5-0.1,0.9-0.1,1.8-0.3c0.3,0,0.6-0.1,0.8-0.2c1.1-0.2,2.7-0.8,3-0.8c2.3-0.1,4.5-0.5,6.8-0.5c1.2,0,2.4,0.2,3.6-0.1
								c0,0,0,0,0.1,0c0.3-0.1,0.6-0.2,0.7-0.5C48.7,131.7,47.2,128.5,47.1,126.7 M101.9,128.8c-0.5-1.6-0.9-4.1-1.3-5.5
								c-0.2-2.3-0.5-4.6-0.9-6.9c-0.9-2.7-1.9-5.4-3.1-7.9c-0.9-1.7-2.4-3-3.8-4.3c-1.5-1.3-3.4-2.1-5.6-1.9
								c-2.3,0.1-4.3,1.3-6,2.7c-3.3,2.6-4.8,6.5-5.9,10.2c-1.4,4.4-2.6,8.9-3.7,13.4c-0.1,0.6-0.5,1.3-0.4,2
								c-0.2,0.1-0.3,0.3-0.4,0.5c-0.3,0.6,0.4,1.2,1,1c0.1,0,0.4-0.2,0.5-0.3c0.1,0,0.1,0,0.1-0.1c1.6-0.3,4.2-0.2,6.4-0.1
								c2.9,0.3,5.7,0,8.6-0.1c4.3,0.1,8.6,0.2,12.8-0.2c0.7-0.1,1.4-0.4,1.6-1C102.2,129.7,102,129.2,101.9,128.8"/>
							<path class="st1" d="M72.1,129.4c-0.8-7.7-1.9-14.2-3.7-21.7c-1-3.6-2.3-7.2-4.3-10.5c-0.7-1.5-1.9-2.7-3.5-3.4
								c-2.1-0.8-4.8-0.4-6.8,0.6c-2.3,1.6-3,4.3-3.9,6.7c-2.5,8.5-2.3,16.8-2.1,26.1c0.1,2.1,0.1,4.1,0.3,6.2
								c-0.4,0.4-0.2,1.2,0.4,1.3c0.2,0.1,0.9-0.2,1.1-0.3c1-0.3,1.2-0.3,2.4-0.8c0.4-0.1,4-0.9,4.3-0.9c2.2-0.4,3.3-0.9,5.6-1
								c2.6,0.2,5.9,0,7.8,0.2C72.4,132.3,72.4,131.5,72.1,129.4"/>
							<path class="st1" d="M40.3,135c-0.3-1.3-0.5-2.3-0.8-3.3c-0.7-3.3-1.8-7.4-2.7-11.2c-0.6-2.1-1.4-4.4-1.6-6.2
								c-0.1-0.7-0.5-1.9-0.6-2.1c-0.1-0.3,0-0.8-0.8-0.8c-0.4,0.1-0.5,0.5-0.5,0.8c0.1,1,0.2,1.2,0.4,2.1c0.2,1.3,0.3,2.6,0.4,3.9
								c0.5,2.3,1,4.9,1.4,6.9c0.5,3.6,0.8,7.1,1.1,10.7c0,0.2,0,0.5,0.2,0.7c0.2,0.2,0.4,0.1,0.6,0c0.1,0,0.2,0.1,0.4,0
								c0.1,0,0.2-0.1,0.2-0.1c0,0,0.1,0,0.1-0.1c0.2-0.1,1-0.2,0.7-0.2c0.2-0.2,1.1,0.2,1.5-0.4C40.4,135.7,40.2,134.5,40.3,135"/>
							<path class="st1" d="M60.3,129.9c-0.5-4.3-0.4-8.6-0.8-12.9c-0.3-3-1-6-1.3-9c-0.1-0.8-0.2-1.6-0.2-2.1
								c-0.1-0.3,0.1-0.8-0.3-1c-0.3-0.2-0.9,0-0.9,0.4c-0.3,6.1,0,12.8,0,19.5c0.1,2.5,0.2,4.9,0.4,7.4c0.1,0.2,0.4,0.3,0.6,0.2
								c0.5,0.4,0.6,0,1.3,0.1C61.2,132.9,60.7,131.9,60.3,129.9"/>
							<path class="st1" d="M87.1,111.2c0-0.2,0-0.5,0-0.8c0,0,0-0.1,0-0.1h0c0-0.3-0.2-0.5-0.5-0.5c-0.5,0.1-0.5,0.5-0.5,0.9
								c0,0.1,0,0.1,0,0.2c0,0.1,0,0.3,0,0.4c-0.4,4.5-1.6,10.3-2.3,15.3c-0.1,1.6-0.7,3.3-0.6,4.8c0.1,0.1,0.2,0.2,0.3,0.2
								c0.1,0.2,0.3,0.3,0.5,0.3c0.1,0,0.5,0.1,0.6,0.1c0.7,0.1,1.5,0.1,2.2,0.1c-0.1,0,1.1,0.3,1.2-0.4c0-2.5,0-4.6,0.2-6.8
								C88,120.3,87.5,115.8,87.1,111.2"/>
						</g>
						<g>
							<path class="st1" d="M147.2,126.1c-1.5,0.9-3.7,1.5-5.9,2c-4.2,1.5-9.1,1-13.9,1c-8.5,0.4-16.6-2.5-25.2-4.1
								c-8.8-2-17.1-2.6-25.8-2.3c-3.2,0.2-6.4,0.3-9.5,1c-1.3,0.2-2.7,0.2-4,0.6c-1.5,0.5-3,0.7-4.4,1.1c-2,0.6-3.9,1.6-6,2.1
								c-2.7,0.6-7,0.9-10.4,1c-1.8,0.3-2.7,0.6-4.6,0.8c-3.3,0-7.3-0.7-11-1.7c-1.7-0.5-2.9-1-4.8-1.8c-0.2-0.1-0.4-0.1-0.6,0
								c-0.1,0-0.2,0.1-0.3,0.2c-0.4,0.1-0.7,0.6-0.5,1c0,0.1,0.1,0.2,0.1,0.2c0,0,0,0.1,0,0.1c0.3,1,0.6,1.7,0.9,2.2
								c1.9,3.6,5.3,5.9,8.5,8.2c2.8,1.8,6,3.1,9,4.5c1.7,0.8,3.2,1.9,5,2.5c2.8,0.6,5.7,0.6,8.6,0.7c2.7,0.1,5.3-0.7,7.9-1.2
								c3.6-0.6,6.9-2,10.5-2.8c2-0.9,4-1.7,6.1-2.1c3.5-0.8,6.4-1.6,9.6-2c3.7-0.5,7.4,0,11.2,0.1c4.8-0.1,9.1,0.6,14.1,1.3
								c5.9,0.8,11.7,1.3,17.6,1.5c3.4,0,6.6-1.2,9.4-3.1c2.4-1.3,4.6-3,6.2-5.2C145.7,130.8,149.9,126.2,147.2,126.1"/>
							<g>
								<path class="st1" d="M141.5,130.7c-0.4-0.1-0.7,0.1-1.1,0.2c-1.1,0.4-2.2,0.7-3.3,0.9c-2.7,0.8-5.1,1.1-8.2,1.5
									c-8,0.4-15.8,0.7-23.1-1.6c-4.4-1.2-7.8-2.9-12.3-4.2c-3.4-1.1-7-1.7-10.7-2c-3.6-0.3-7.1,0.4-10.7,0.4
									c-4,0.7-7.8,1.6-11.9,3c-1.9,0.5-3.7,1.1-5.4,2c-1.8,0.7-3.7,1.4-5.6,1.9c-2,0.6-4.2,0.7-6.4,1c-1.7,0.3-3.4,0.4-5.1,0.3
									c-1.7,0.1-3.4,0-5-0.5c-2.2-0.8-4.4-1.8-6.2-3.2c-0.4-0.4-1.1,0.3-0.6,0.7c2.9,2,6.3,3.8,9.9,4c2.6,0.1,5.3,0,7.9-0.5
									c2.2-0.2,4.1-0.4,6.1-1.1c3.1-0.7,5.8-2.1,8.7-3.1c2.7-0.8,5.6-1.8,8-2.2c2.5-0.6,4.4-1.1,7-1.2c3.3-0.1,7.7-0.7,10.4-0.3
									c7.2,0.6,13.1,3.3,19.6,5.6c6.3,2.3,12.1,2.5,18.7,2.6c5.4-0.1,10.7-0.5,15.9-2c1.1-0.2,2.1-0.6,3.2-0.9
									c0.3-0.1,0.6-0.2,0.7-0.5C142.2,131.3,142,130.8,141.5,130.7"/>
								<path class="st1" d="M91,131.3c-0.5-0.3-0.3-0.1-0.8-0.2c-3.1-0.6-5.6-0.6-8.8-0.4c-2.5,0-5-0.2-7.4,0.4
									c-2.9,0.7-5.9,1.4-8.8,2.2c-3.1,1.4-6.4,2.5-9.5,3.7c-3.2,1.1-6.3,1.3-9.9,1.8c-0.7,0.2-1.6,0-2.3,0.4
									c-0.3,0.3,0,0.9,0.4,0.9c4.1-0.5,8.3-0.8,12.2-2.1c2.3-0.9,4.6-1.7,7-2.6c1.7-0.8,3.5-1.5,5.4-1.8c4.3-1.2,8-2.1,12.6-1.7
									c3.5-0.2,5.6-0.2,8.8,0.4c0.3,0,0.6,0.2,0.9,0C91.2,132.2,91.3,131.6,91,131.3"/>
								<path class="st1" d="M78.3,135c-2.2,0-4.4,0.6-6.5,0.8c-2.3,0.5-4.7,1.1-7,1.8c-3.5,1.3-7.1,2.3-10.4,4.1
									c-0.8,0.4-2.1,0.8-2.5,1.5c-0.1,0.5,0.4,0.8,0.8,0.6c6.8-3.7,15.6-6.5,23.5-7.3c0.8-0.2,1.7,0,2.3-0.4
									C78.8,135.7,78.7,135.2,78.3,135"/>
								<path class="st1" d="M134.7,136.3c-0.4-0.2-0.8,0.1-1.2,0.2c0,0,0,0-0.1,0c-1.7,0.2-3.4,0.5-5.1,0.5c-2.2,0-4.3,0.3-6.5,0.2
									c-3.5-0.4-8.2-0.8-12.2-1.7c-3.9-0.7-7.8-1.5-11.8-1.5c-0.3,0-0.6-0.1-0.8,0.2c-0.3,0.3,0,0.9,0.4,0.9
									c6.7,0,13.5,2.2,20.5,2.8c1.3,0.1,3.3,0.4,5,0.5c1.7,0,3.4-0.2,5.2-0.2c1.3,0,2.7-0.1,4-0.2c0.8,0,1.6-0.1,2.4-0.3
									C135.1,137.4,135.2,136.6,134.7,136.3"/>
							</g>
						</g>
					</g>
				</g>
			</g>
		</g>
		<g>
			<path class="st3" d="M30.2,96.1c-1.4-0.3-2.3,0.1-3.6,0.4c-1.5,0.6-3.2,2.3-3.8,3.3c-1.3,1.5-1.3,3.5-1.5,5.4
				c-0.3,3.7,0.2,7.4,0.7,11c0.1,1.5-0.6,2.7-1.5,3.7c-0.3,0.5-0.7,0.9-1.2,1.2c-0.2,0.3,0.2,0.7,0.4,0.5c1.6-1.2,3.2-3.6,2.8-5.6
				c-0.4-2.9-0.6-5.8-0.7-8.8c0.1-1.7,0.1-3.5,0.6-5.4c0.6-1.2,1.8-2.8,3.2-3.8c1.2-0.9,2.8-1.1,3.6-1.1c1.1,0.1,1.6,1,1.8,1.9
				c0.1,1.6,0,2.1-1.1,3.1c-1,1-1.8,1.5-3,1.7c-0.3,0-0.5-0.2-0.5-0.5c-0.2-0.8,0.2-0.8,0.1-1.3c-0.5-0.8-1,0.1-1,0.8
				c0,2.2,1.5,2,3.1,1.3c1.2-0.6,2.3-1.7,3-2.8C32.5,99.4,32.2,96.7,30.2,96.1"/>
			<path class="st3" d="M24.5,91.3c-0.2,0-0.4,0.2-0.6,0.3c-2.6,1.4-4.1,3.3-5.1,6c-1.7,3.9-1.7,8.3-1,12.4c0.1,0.6,0.1,1.3,0.4,1.8
				c0.2,0.2,0.6,0,0.6-0.3c-0.8-4.4-1.1-9.2,0.4-13c1.1-2.8,2.3-4.8,4.8-6.1c0.3-0.2,0.7-0.3,0.8-0.7C25,91.5,24.8,91.3,24.5,91.3"
				/>
			<path class="st3" d="M131.5,82.6c-0.6-0.7-1.4-1.2-2.3-1.5c-0.8,0-1.5,0.7-2,1.2c-1.1,1.6-1.5,3.1-1.8,5.1
				c-0.1,0.8-0.2,1.8,0.3,2.5c1.1,1.3,2.3,1,3.3-0.7c0.3-0.5,0.3-1,0.4-1.5c0-0.2,0.1-0.4,0-0.6c-0.4-0.5-0.9,0-0.8,0.5
				c-0.1,1.5-1.2,2.5-1.6,2.2c-0.4-0.3-0.5-0.2-0.7-0.8c-0.3-1.3,0.6-4.9,1.5-6c0.4-0.7,1.3-1.1,1.2-1.1c0.4,0.1,1.2,0.5,1.6,0.9
				c1.2,1.5,1.5,3.2,1.4,5.2c-0.2,2.6-0.6,5.2-1.4,7.7c-1.6,5-2.9,10.1-5.4,14.7c-0.8,1.4-1.6,2.9-2.5,4.2c-0.2,0.4,0.4,0.7,0.6,0.3
				c3.2-4.7,5.4-10,6.9-15.4c1.1-3.4,2.1-6.8,2.4-10.4C132.9,86.9,132.8,84.5,131.5,82.6"/>
			<path class="st3" d="M122.6,92.2c-0.2-0.4-0.8-0.2-0.7,0.2c0.5,3.7,0.8,7.1,0.2,10.6c-0.1,1.1-0.4,3-1,2.6
				c-0.4-0.2-0.4-1-0.3-1.8c0-0.5,0.6-1.1,1.2-1.5c0.1-0.1,0.1-0.4-0.1-0.5c-0.3-0.3-0.6,0.1-0.8,0.2c-0.4,0.4-0.8,0.8-1,1.3
				c-0.1,0.8-0.3,1.8,0.2,2.6c0.7,0.9,1.8,0.5,2.1-0.6c0.6-2.5,0.8-5.6,0.7-8.2C123,95.5,122.8,93.8,122.6,92.2"/>
			<path class="st3" d="M136.2,82.2c-0.2-0.8-0.1-1.6-0.4-2.3c-0.2-0.2-0.7,0-0.6,0.3c0.3,2.4,0.8,4.8,0.7,7.3
				c-0.4,2.7-1.1,5.3-1.6,8c-0.3,2.1-1.2,4-1.7,6c-1.4,5.1-3.2,10-6.1,14.6c-0.3,0.5-0.8,1-0.9,1.5c0,0.3,0.3,0.4,0.6,0.3
				c0.3-0.3,0.4-0.7,0.7-1c3-4.7,5-9.9,6.5-15.3c0.6-2,1.5-4,1.8-6.1c0.5-2.6,1.2-5.2,1.6-7.9C136.7,85.8,136.4,84,136.2,82.2"/>
		</g>
		<g>
			<path class="st4" d="M41.4,89.2c-0.2-0.3-0.8-0.2-0.8,0.2c-0.5,1.5-0.9,2.6-1.4,4c-0.2,0.4,0.3,0.9,0.7,0.6
				c0.3-0.2,0.9-2.5,1.4-3.8C41.3,89.8,41.6,89.4,41.4,89.2"/>
			<path class="st4" d="M49.6,86.2c-0.4,1.1-0.9,3-1.1,3.7c-0.1,0.2-0.2,0.4-0.1,0.7c0.1,0.3,0.5,0.4,0.7,0.2
				c0.4-0.5,0.5-1.2,0.7-1.8c0.2-0.9,0.6-1.8,0.8-2.7C50.4,85.8,49.6,85.8,49.6,86.2"/>
			<path class="st4" d="M46.1,97.7c-0.2-0.3-0.8-0.2-0.9,0.2c-0.5,1.9-1,3.3-1.6,4.9c-0.7,0.6,0.3,1.3,0.9,0.4
				c0.6-1.4,1-2.9,1.5-4.4C46,98.4,46.3,98,46.1,97.7"/>
			<path class="st4" d="M59.3,86.6c-0.2-0.3-0.7-0.2-0.8,0.2c-0.3,1.1-0.8,2.1-1,3.2c0.1,0.3,0.5,0.4,0.8,0.2
				c0.4-0.9,0.6-1.9,0.9-2.8C59.3,87.1,59.5,86.8,59.3,86.6"/>
			<path class="st4" d="M54.8,95.8c-0.5,1.5-1.1,3.2-1.5,4.2c-0.1,0.2,0,0.6,0.3,0.6c0.2,0,0.4-0.1,0.5-0.3c0.5-1.4,1-2.8,1.5-4.2
				C56,95.5,55,95.1,54.8,95.8"/>
			<path class="st4" d="M67.2,87.7c-0.4,1.2-0.7,2.4-1.1,3.5c-0.1,0.2,0.2,0.5,0.4,0.5c0.2,0,0.4-0.2,0.4-0.4
				c0.4-1.1,0.7-2.3,1.1-3.4C68.2,87.4,67.3,87.2,67.2,87.7"/>
			<path class="st4" d="M62.8,98.2c-0.7,2.4-1.9,4.8-2.6,7.4c0.1,0.3,0.7,0.4,0.8,0c0.9-2.5,1.9-4.9,2.6-7.4
				C63.5,97.8,62.8,97.8,62.8,98.2"/>
			<path class="st4" d="M75.8,88.7c-0.2,0.9-0.5,1.8-0.8,2.7c-0.1,0.3,0.2,0.5,0.4,0.5c0.4-0.1,0.3-0.3,0.4-0.4
				c0.3-0.9,0.7-1.8,0.8-2.8C76.6,88.3,75.9,88.3,75.8,88.7"/>
			<path class="st4" d="M72.9,97.7c-0.2-0.3-0.8-0.2-0.9,0.2c-0.6,1.8-1.4,4-2.1,6.1c0,0.2,0.2,0.4,0.4,0.5c0.8,0.1,0.8-1.4,1.2-1.9
				c0.5-1.4,1-2.8,1.5-4.3C73,98,73,97.8,72.9,97.7"/>
			<path class="st4" d="M54.7,104.9c-0.7,1.6-1.3,3.3-1.9,5c-0.2,0.3,0.2,0.7,0.5,0.6c0.8-1.1,1.4-3.8,2.2-5.2
				C55.8,104.8,55,104.4,54.7,104.9"/>
			<path class="st4" d="M47.6,106.7c-0.5,1.3-0.9,2.7-1.4,4c-0.2,0.4,0.3,0.8,0.6,0.5c0.7-1.3,1.1-2.9,1.6-4.3
				C48.4,106.4,47.7,106.3,47.6,106.7"/>
			<path class="st4" d="M37.1,101.1c-0.5,1.4-1,2.9-1.7,4.5c-0.1,0.4-0.8,1.1-0.1,1.3c0.3,0.1,0.5-0.2,0.5-0.4c0.8-1.6,1.4-3.3,2-5
				C38.2,100.9,37.4,100.4,37.1,101.1"/>
			<path class="st4" d="M39,109.7c-0.8,1.8-1.4,3.6-2.3,5.3c-0.1,0.5-1.1,1.4-0.2,1.7c0.4,0.1,0.5-0.3,0.6-0.6
				c0.8-1.6,1.4-3.2,2.1-4.8c0.2-0.5,0.6-1.1,0.6-1.6C39.7,109.4,39.2,109.4,39,109.7"/>
			<path class="st4" d="M56.5,112.4c-0.8,1.6-1.8,3.9-2.3,5.2c-0.1,0.1-0.1,0.3,0,0.4c0.5,0.6,0.9-0.2,1-0.6
				c0.6-1.6,1.4-3.2,2.1-4.8C57.3,112.2,56.7,112,56.5,112.4"/>
			<path class="st4" d="M65.9,108.7c-0.6,1.9-1.2,3.4-1.9,5.4c0,0,0,0.1,0,0.1c0,0,0-0.1,0-0.1c-0.1,0.1-0.1,0.2,0,0.3
				c0.1,0.2,0.4,0.3,0.6,0.3c0.2-0.1,0.3-0.3,0.3-0.4c0.7-1.8,1.3-3.6,1.9-5.3C66.9,108.3,66,108.1,65.9,108.7"/>
			<path class="st4" d="M68.9,114C68.9,114,68.9,114,68.9,114"/>
			<path class="st4" d="M84.8,88.6c-0.3,1-0.6,2-0.9,3c-0.1,0.4,0.4,0.6,0.7,0.4c0.3-0.3,0.3-0.8,0.5-1.2c0.2-0.7,0.6-1.5,0.6-2.2
				C85.6,88.1,84.8,88.1,84.8,88.6"/>
			<path class="st4" d="M79.2,97.3c-0.5,1.7-1.2,4.2-1.6,5.5c-0.2,0.2-0.1,1,0.6,0.7c0.9-1.9,1.3-4,1.9-6
				C80.2,97,79.3,96.8,79.2,97.3"/>
			<path class="st4" d="M78.3,110.1c-0.4,1.9-1.2,4.1-1.7,5.6c0,0.1,0,0,0-0.1c-0.1,0.1-0.1,0.2,0,0.3c0.1,0.3,0.4,0.4,0.7,0.2
				c0.9-1.8,1.4-4,1.9-5.9C79.3,109.7,78.4,109.6,78.3,110.1"/>
			<path class="st4" d="M86,107.4c-0.3,1.7-0.8,3.9-1.2,5.1c-0.2,0.6-0.9,1.6,0.3,1.5c0.2-0.1,0.3-0.2,0.4-0.4c0.8-1.9,1.1-4,1.5-6
				C87,107,86.1,106.8,86,107.4"/>
			<path class="st4" d="M88,98c-0.2,1-0.6,1.9-0.7,2.9c0,0.2,0.2,0.3,0.3,0.3c0.2,0,0.5-0.1,0.5-0.3c0.2-0.9,0.5-1.8,0.7-2.7
				C89,97.6,88.1,97.4,88,98"/>
			<path class="st4" d="M94.1,87.5c-0.2,1.2-0.6,2.4-0.7,3.6c0.1,0.3,0.6,0.5,0.8,0.2c0.4-1.2,0.6-2.5,0.8-3.8
				C94.9,87,94.1,87,94.1,87.5"/>
			<path class="st4" d="M104,85c-0.2-0.3-0.7-0.2-0.8,0.2c-0.4,1.3-0.8,2.6-1.2,3.9c0,0.1,0,0.2,0.1,0.3c0.2,0.3,0.7,0.2,0.8-0.2
				c0.3-1,0.6-2,0.9-3C103.9,85.8,104.3,85.4,104,85"/>
			<path class="st4" d="M100.1,97.6c-0.3-0.4-0.9-0.2-1,0.2c-0.1,1.7-0.4,3.3-0.7,5c0,0.2-0.1,0.5-0.1,0.7c0.1,0.4,0.5,0.5,0.8,0.3
				c0.5-0.7,0.4-2,0.7-2.8C99.9,100,100.3,98.6,100.1,97.6"/>
			<path class="st4" d="M97.5,111.6c-0.2-0.3-0.9-0.2-0.9,0.2c-0.1,1-0.2,2-0.3,3c-0.1,0.3-0.1,0.7,0.3,0.8c0.4,0.1,0.6-0.4,0.7-0.7
				c0.1-0.6,0.2-1.3,0.2-1.9C97.5,112.5,97.7,112,97.5,111.6"/>
			<path class="st4" d="M111.9,111.5c-0.2-0.4-0.9-0.2-0.9,0.2c-0.1,1.7-0.2,3.5-0.5,5.2c0,0.5-0.4,1.4,0.4,1.4
				c0.2,0,0.4-0.2,0.5-0.4c0.3-1.6,0.4-3.3,0.5-4.9C111.9,112.5,112.1,112,111.9,111.5"/>
			<path class="st4" d="M108.5,98.1c-0.2-0.3-0.7-0.2-0.8,0.2c-0.1,1-0.2,2.1-0.4,3.1c0,0.2,0,0.3,0.2,0.4c0.6,0.3,0.7-0.5,0.8-0.9
				c0.1-0.6,0.2-1.1,0.2-1.7C108.5,98.8,108.7,98.4,108.5,98.1"/>
			<path class="st4" d="M111.5,86.1c-0.2-0.3-0.8-0.2-0.8,0.2c-0.1,1.5-0.3,3.1-0.6,4.6c-0.1,0.3,0.2,0.5,0.5,0.5
				c0.2,0,0.4-0.2,0.4-0.4c0.2-1.3,0.4-2.5,0.5-3.8C111.5,86.8,111.7,86.4,111.5,86.1"/>
			<path class="st4" d="M114.7,103c-0.2,1.2-0.2,2.4-0.3,3.7c-0.1,0.2,0.1,0.5,0.4,0.5c0.4,0.1,0.6-0.3,0.6-0.6
				c0.1-1.1,0.1-2.1,0.2-3.1C115.9,102.7,115,102.2,114.7,103"/>
			<path class="st4" d="M120.1,115.6c-0.3-0.3-0.8,0-0.8,0.4c0,1.2,0,2.5,0.1,3.7c0,0.2,0.1,0.3,0.3,0.4c0.3,0.1,0.7-0.2,0.6-0.5
				c0-0.8,0-1.7,0-2.6C120.2,116.6,120.5,116,120.1,115.6"/>
			<path class="st4" d="M117.6,85.5c-0.2-0.3-0.8-0.2-0.8,0.2c-0.2,2.3-0.3,4.5-0.6,6.8c0,0.6-0.7,2,0.3,2.1
				c0.6-0.1,0.4-0.7,0.5-1.1c0.3-1.9,0.4-3.8,0.5-5.8C117.5,87,117.8,86.2,117.6,85.5"/>
			<path class="st4" d="M95.5,117.4c-0.4,1.6-0.8,3.8-1.3,5.1c-0.2,0.4,0.3,0.8,0.6,0.5c0.2-0.1,0.2-0.4,0.3-0.6
				c0.4-1.6,0.8-3.2,1.2-4.8C96.4,117,95.6,116.9,95.5,117.4"/>
			<path class="st4" d="M104,120.7c0,1-0.4,2-0.2,3c1.2,1,1-2.1,1.2-2.8C105,120.2,104.1,120.1,104,120.7"/>
			<path class="st4" d="M113.9,121c-0.3-0.4-0.9-0.2-1,0.2c-0.1,1.4-0.2,3.7-0.3,4.3c-0.2,0.4,0,0.9,0.5,0.8c0.3,0,0.5-0.3,0.5-0.5
				c0.1-1.1,0.2-2.2,0.3-3.3C113.9,121.9,114.1,121.4,113.9,121"/>
			<path class="st4" d="M86.8,118c-0.2,1.2-0.3,2.3-0.5,3.5c-0.1,0.2,0.1,0.5,0.4,0.5c0.4,0.1,0.6-0.3,0.6-0.7
				c0.2-1.1,0.3-2.1,0.5-3.2C87.9,117.6,86.9,117.4,86.8,118"/>
			<path class="st4" d="M40.1,121.1c-0.3,1.2-0.6,2.5-0.9,3.8c-0.1,0.3,0.2,0.5,0.5,0.5c0.2,0,0.4-0.2,0.4-0.4
				c0.3-1.3,0.6-2.5,0.9-3.8C41.1,120.7,40.2,120.6,40.1,121.1"/>
			<path class="st4" d="M49,115.8c-0.4,1.9-0.6,3.7-1,5.6c0,0.3-0.2,0.6-0.1,0.8c0,0.3,0.5,0.5,0.7,0.3c0.2-0.2,0.2-0.5,0.3-0.8
				c0.4-1.8,0.7-3.7,1-5.5C50.2,115.5,49.3,115.1,49,115.8"/>
			<path class="st4" d="M66.5,118.2c-0.3-0.2-0.8-0.1-0.8,0.3c-0.4,1.2-0.8,2.4-1.2,3.6c0,0.2,0,0.4,0.2,0.5
				c0.5,0.3,0.8-0.2,0.8-0.4c0.3-0.9,0.7-2,0.8-2.4C66.3,119.3,66.9,118.7,66.5,118.2"/>
			<path class="st4" d="M30.8,109.7c-0.3,1.9-0.6,3.7-1,5.5c-0.1,0.4,0.3,0.7,0.7,0.4c0.7-1.8,0.8-3.9,1.1-5.8
				C31.8,109.4,30.9,109.2,30.8,109.7"/>
			<path class="st4" d="M32.2,121.9c-0.4,1.8-1,3.5-1.4,5.3c-0.1,0.3,0.2,0.7,0.6,0.7c0.2,0,0.5-0.2,0.5-0.4c0.5-1.8,1-3.5,1.4-5.3
				C33.5,121.4,32.3,121.2,32.2,121.9"/>
			<path class="st4" d="M76.2,116.7c-0.4,1.7-0.9,3.3-1.3,5c-0.1,0.4,0.4,0.7,0.8,0.5c0.7-1.4,1-3.8,1.5-5.4
				C77.3,116.3,76.3,116.1,76.2,116.7"/>
			<path class="st4" d="M73.5,106.7c-0.5,1.7-0.9,3.4-1.3,5.1c-0.1,0.4,0.4,0.7,0.7,0.5c0.7-1.7,0.8-3.7,1.5-5.4
				C74.6,106.3,73.6,106.1,73.5,106.7"/>
		</g>
		<g>
			<g>
				<g>
					<path class="st5" d="M124,66.9c-0.9-4.6-5.8-7-9.9-8.5c-0.2-0.1-0.3-0.1-0.4-0.2c0,0,0.1,0,0.1-0.1c1.5-1.2,3.7-2.5,3.9-4.6
						c-0.6-2.8-2.8-5.1-5.2-6.6c-2.1-1.2-4.6-1.7-7-2c-1.4-0.1-3.8,0-4.9-0.1c0,0,0,0,0,0c0.1-0.8,0.8-2.3,0.9-3.6
						c0.5-1.8-0.4-3.5-1.6-4.8c-0.7-0.7-1.3-1.5-2.2-2.1c-1.5-0.9-3.4-1.1-5.2-0.9c-1.3,0.3-2.6,0.8-3.9,1.4c1.3-2,0.8-4.6-1.1-6.2
						c-1.9-1.5-4.3-2.6-6.5-3.6c-3.1-0.7-6.7,0.4-8.9,2.6c-0.1,0.1-0.1,0.2-0.2,0.3c-2.2-0.2-4.6-0.1-6.7,0.2
						c-5,0.7-8.9,5.4-8.9,10.3c-0.3-0.1-0.6-0.2-1-0.4c-5.6-1.9-18,2.2-21,7.2c-1,1.5-1.9,3.3-1.6,5.1c-4.7-1.3-12.1,1.8-15.7,4.4
						c-4,3-7.6,9.2-6.2,14.2c1.6,4.4,6.9,6.4,11.4,5.7c2.4-0.3,4.8-0.6,7.1-1.2c0.6-0.3,1.3-0.6,1.9-0.9c-1.4,5.4,4.3,9,9.5,9.1
						c1.7,0,3.3-0.8,5-1.2c2.6-0.9,6.3-2.4,8.3-3.7C57.5,89,70.6,86,78.4,79.6c0.8-0.7,1.6-1.4,2.4-2.1c0,0.1,0.1,0.1,0.1,0.2
						c1.1,1.8,2.5,3.5,4.5,4.3c2.9,1.1,6.8,1.2,9.1,0.2c4.1-1.2,9.5-3.6,9.3-8.5c0,0,0-0.1,0-0.1c0.4,0.2,0.8,0.5,1.2,0.7
						c2.6,1.8,5.9,1.5,8.9,1.3C119,75.2,124.7,72.6,124,66.9"/>
					<g>
						<path class="st4" d="M22.9,66.8c-0.5-0.2-1.1,0.1-1.6,0.2c-0.8,0.2-1.2,0.5-1.7,0.4c-0.8,0-1.9-1.1-2.1-1.7
							c-0.7-1.4,1.4-3.4,2.4-4.7c0.2-0.3,0.6-0.5,0.7-0.9c0-0.4-0.4-0.6-0.7-0.4c-0.9,0.8-1.6,1.8-2.4,2.8c-0.6,0.8-1.2,1.7-1.1,2.7
							c0.2,1.5,1.4,2.9,3,3.1c0.8,0.1,1.7-0.3,2.1-0.4c0.5-0.2,1.1-0.1,1.5-0.4C23.1,67.3,23.1,66.9,22.9,66.8"/>
						<path class="st4" d="M46.9,44c-1.3,0.2-2.5,0.8-3.7,1.3c-0.8,0.3-1.6,0.8-1.9,1.5c-0.3,0.7-0.7,1.5-0.6,2.3
							c0.3,1.3,1.1,2.6,2.6,2.8c0.4,0,0.8,0.1,1.1,0c0.3-0.1,0.5-0.5,0.2-0.8c-0.3-0.3-0.9-0.1-1.4-0.3c-0.7-0.1-1.3-0.9-1.6-1.8
							c-0.2-0.6,0-0.9,0.4-1.8c0.3-1,3.1-1.9,4.6-2.3c0.2-0.1,0.6,0,0.7-0.3C47.6,44.4,47.3,44,46.9,44"/>
						<path class="st4" d="M38.5,62.3c-0.3,0-0.6,0.2-0.9,0.3c0,0-0.1,0-0.2,0.1c-1.4,0.5-3.2,0.3-3.9-0.1c-1.3-0.8-1.9-2.2-1.3-3.4
							c0.5-1.2,2-2.7,3.1-3.4c0.8-0.2,0.7-1.2-0.1-1c-0.9,0.4-1.6,1.2-2.3,1.9c-0.9,0.9-1.8,2.1-1.8,3.4c0.2,3.4,3.4,4.4,6.3,3.7
							c0.5-0.2,1.4-0.2,1.7-0.7C39.1,62.7,38.8,62.4,38.5,62.3"/>
						<path class="st4" d="M45.5,73.2c-0.5,0-0.9,0.5-1.4,0.6c-1,0.4-1.9,0.9-2.4,0.8c-1,0-1.6-0.8-1.9-1.5c0.2-0.7,1.3-3.4,2.4-4.5
							c0.7-0.5,0.1-1.4-0.6-0.8c-1.1,1.1-1.8,2.7-2.5,4.1c-0.2,0.5-0.5,1.1-0.3,1.6c0.4,1.2,1.6,2.2,2.9,2.1c1,0,1.8-0.6,2.7-0.9
							c0.4-0.2,1.1-0.3,1.3-0.8C46.1,73.6,45.9,73.3,45.5,73.2"/>
						<path class="st4" d="M69.7,77.4c-0.1-0.2-0.4-0.2-0.6-0.1c-0.6,0.3-1.1,0.6-1.6,0.9c-1.3,0.8-3.9,1-4.2,0.6
							c-0.3-0.3-0.2-2.6,0.2-3.5c0.4-0.7-0.4-1.4-0.8-0.7c-0.5,1.5-0.9,3.3-0.2,4.7c0.4,0.5,1.1,0.6,1.7,0.7c1-0.1,2-0.2,2.9-0.5
							c0.8-0.4,1.6-0.9,2.4-1.3C69.8,78,69.9,77.6,69.7,77.4"/>
					</g>
				</g>
				<g>
					<path class="st4" d="M58.2,48.1c0.2-0.1,0.6-0.1,1-0.1 M154,64.9c-1.8-2.4-4-4.8-6.8-6.3c-0.3-0.2-0.6-0.3-0.8-0.4
						c0-0.5,0.6-0.9,1.6-1.8c2.2-1.9,3-5,2.3-7.7c-1.3-3.1-4.2-5.6-7-7.7c-2.3-1.4-5-2.1-7.6-2.7c-1.2-0.2-3.4-0.4-4-0.5
						c0,0,0,0,0,0c-0.5-0.8,0.9-3.3,1.1-5.4c0.4-2.5-0.6-5.1-2.5-7c-1.2-0.9-2.7-1.6-4.1-2.1c-1.6-0.6-4-0.7-5.2-0.7
						c0,0,0-0.1,0.1-0.4c0.4-1.2,0.8-3.9,0.1-5.6c-0.4-0.9-1.1-1.8-1.9-2.6c-1.5-1.7-3.9-2.4-6.2-2.7c-1.8-0.2-3.5,0.4-5,1.2
						c-1,0.7-2.7,2-3,2.9c-2.2-0.6-4.4-0.9-6.6-0.8c-1.4,0.3-2.5,1.3-3.7,2c-2.6,2-6.5,4.7-4.7,8.3c0.1,0.1,0.1,0.2,0.2,0.3
						c-0.4,0-0.8,0.1-1.2,0.2c-2.1,0.3-4,1.1-5.7,2.2c-2.1,1.2-4.2,2.5-5.9,4.2c-1.5,1.5-2.3,3.7-1.4,5.6c0.2,0.4,0.4,0.9,0.7,1.2
						c-0.1,0-0.2,0-0.3,0c-0.2,0-0.3,0-0.5,0.1c-1.3-0.5-2.6-0.8-4-1c-0.9-0.1-3.6-1.3-6.1,1.4c-1.6,1.3-1.8,4.2-2,6.2
						c-0.8,0.6-1.7,1.2-2.6,1.7c0,0,0,0,0,0c-0.1,0-0.2,0-0.3-0.1c-2-0.4-4.1,0-5.8,1.4C53.5,49.5,52,51,51,52.9
						c-1.9,3.2-1.2,4.8,0.5,7.8c1.1,1.9,2.1,2.9,3.8,4.4c0.7,0.8,1.9,1.7,3.2,2.2c1.9,1,3.7,2.1,5.8,2.5c3.9,0.6,7.5,0.9,11.5,0.1
						c2.5-0.4,4.9,0.1,7.7,1c3.5,1,7.9,3,11.8,4.5c3.4,1.1,6.9,1.9,10.5,2.6c2.8,0.4,5,0.2,7.5,0.2c2.3-0.1,4.6-0.6,6.9-1
						c1.5-0.3,2.5-0.7,3.8-0.6c2.3,0.1,4.5,0.9,6.7,1.1c3.1,0.4,5.8,0.7,9.1-0.3c1-0.4,2.1-0.7,3.1-1.1c0.4-0.1,0.9-0.1,1.3-0.2
						c2.6-0.4,5.1-1,7.3-2.3C154.7,72,155.9,68,154,64.9"/>
					<g>
						<path class="st4" d="M69.8,38.5C69.8,38.5,69.8,38.5,69.8,38.5C69.8,38.5,69.8,38.5,69.8,38.5C69.7,38.7,69.6,38.8,69.8,38.5"
							/>
						<path class="st5" d="M61.6,55.1c0.3-0.2,0.7-0.2,1-0.5c0.3-0.3,0-1-0.4-0.9c-1.9,0.7-6.3,3.1-5.1,5.9c0.4,0.9,1.1,1.5,1.8,1.9
							c0.4,0.3,0.8,0.5,1.5,0.5c0.2,0,0.5,0.3,1,0.1c0.3-0.1,0.4-0.6,0.2-0.9c-0.3-0.3-0.8-0.3-1.2-0.4c-0.9,0-2.4-1.1-2.5-2.2
							C57.8,57.6,59.8,56.1,61.6,55.1"/>
						<path class="st5" d="M79.7,43.7c-2.1-0.6-5.1-0.2-6.4,2.1c-0.7,2,1,3.2,2.3,4c0.6,0.2,0.6,0.6,1.2,0.5
							c0.3-0.1,0.4-0.6,0.2-0.8c-0.2-0.2-0.5-0.3-0.8-0.5c-0.4-0.2-1.3-0.8-1.8-1.4c-0.1-0.1-0.1-0.1-0.1-0.2c0,0,0,0,0,0
							c0,0,0,0,0,0c-0.5-1.1,0.1-2.1,1.6-2.6c0.6-0.2,2.6-0.6,3.1-0.3c0.3,0,0.6,0.2,0.9,0.1C80,44.4,80,43.9,79.7,43.7"/>
						<path class="st5" d="M98,31.1c-2-0.3-4.3-0.9-6.1,0.5c-1.1,0.8-1.9,2.1-2.4,3.4c-0.3,1.1,0,2.4,0.7,3.3
							c0.7,0.8,1.7,1.3,2.7,1.7c0.2,0.1,0.6,0.2,0.8,0c0.5-0.8-0.5-1-1-1.2c-0.4-0.1-1.5-0.9-1.5-1c-1.4-1.7-0.5-3.4,1-5
							c1.2-1.3,3.1-1,5.2-0.7c0.3,0,0.7,0.2,0.9,0C98.5,31.8,98.4,31.2,98,31.1"/>
						<path class="st5" d="M111.4,20.9c-1.1-0.6-2.1-1.3-3.4-1.6c-1-0.2-2-0.1-3,0.3c-0.5,0.2-0.9,0.5-1,1c-0.2,1.8-0.3,4.1,0.6,5.7
							c0.3,0.4,0.9-0.1,0.7-0.6c-0.7-1.3-0.6-4.6-0.4-5c0.6-0.5,2.4-0.7,3.2-0.4c1.1,0.3,2.1,1.2,3.1,1.6
							C111.7,21.9,111.9,21.1,111.4,20.9"/>
						<path class="st5" d="M119.7,31.7c-2.7-0.3-5.8,0.4-7.3,3.1c-0.7,1.7,0,3.7,1.5,4.5c1.1,0.8,2.4,1.1,3.7,1.6
							c0.3,0.2,0.6,0.2,0.8,0c0.6-1-0.8-1.3-1.4-1.5c-1.3-0.4-2.2-0.7-3.1-1.5c-1.7-1.5-0.6-4.1,2.1-5c0.8-0.3,2.4-0.5,3.6-0.3
							C120.1,32.7,120.2,31.7,119.7,31.7"/>
						<path class="st5" d="M101.8,49.2c1-0.6,2.1-0.7,3.4-1c0.4-0.2,0.1-1-0.3-0.9c-1.3,0.3-2.8,0.4-3.8,1.4c-2,2.5-0.6,4.1,1.6,5.3
							c1.5,0.5,1.4-1.1,0.4-0.9c-0.9-0.3-2.2-1.6-2.2-2.1C101,50.3,101.6,49.3,101.8,49.2"/>
						<path class="st5" d="M90.8,55.6c-0.2-0.2-0.5-0.1-0.7-0.1c-2.2-0.3-3.2-1.7-2.2-3.2c1-1.1,2.1-1.5,3.4-2.2
							c0.3-0.3-0.1-1-0.5-0.7c-1.4,0.7-3.2,1.4-4,3c-0.9,2.3,0.8,3.8,2.7,4.1c0.4,0.1,0.8,0.2,1.2,0C91,56.2,91,55.8,90.8,55.6"/>
						<path class="st5" d="M79,64.2c-0.2-0.2-0.4-0.2-0.7-0.2c-0.1,0-0.2,0-0.3-0.1c-3.8-1.1-2.9-3.3,0-5.9c0.4-0.5,0.8-0.4,1.3-1.1
							c0.2-0.4-0.3-0.9-0.6-0.7c-1.5,1.1-3.5,2.7-4.1,4.7c-0.5,2.3,1.8,3.8,3.6,4C78.7,65.2,79.4,64.8,79,64.2"/>
						<path class="st5" d="M104.5,61.2c-2.4,0.5-7.5,2.3-7.5,5.6c0.4,2.2,2.6,3.3,4.5,3.4c0.4,0,0.9,0.1,1.3-0.1
							c0.2-0.2,0.2-0.6,0-0.8c-0.3-0.2-0.8,0-1.2-0.1c-1.7,0-3.5-1.1-3.7-2.5c-0.1-0.5,0.5-1.4,1.5-2.2c1.3-1,3.3-1.9,4.9-2.2
							c0.2-0.1,0.5-0.1,0.6-0.3C105.2,61.6,104.9,61.1,104.5,61.2"/>
						<path class="st5" d="M119.9,56.3c-0.6-0.2-0.6,0-1.1-0.1c-3,0.1-3.9-1.9-1.9-3.9c1.1-1.2,2.1-2.3,3.2-2.9
							c0.5-0.3,0.1-1.1-0.4-0.9c-1.2,0.7-2.2,1.7-3.2,2.8c-0.7,0.8-1.5,1.6-1.6,2.8c-0.2,2.4,2.2,3.3,4,3.2c0.5,0,0.5,0.1,0.8-0.1
							C120.2,57,120.2,56.5,119.9,56.3"/>
						<path class="st5" d="M141.2,50.5c-0.5-0.3-0.6,0-1.2,0.1c-1.9,0.3-3.9,0.7-5.2-0.6c-0.3-0.3-0.6-0.9-0.3-1.6
							c0.5-1.3,1.7-2.5,3-3.7c0.4-0.4-0.1-1.1-0.6-0.7c-6.2,5.1-3.3,9.1,3.5,7.7c0.3-0.1,0.7-0.1,0.9-0.4
							C141.5,51.1,141.4,50.7,141.2,50.5"/>
						<path class="st5" d="M142.5,65c-0.6-0.3-1.3,0.1-1.9,0.2c-0.9,0.3-2.2,0.8-2.8,0.8c-0.8-0.1-1.5-0.7-1.7-1.7
							c0.1-1.1,0.4-3,1.1-4.6c0.2-0.6-0.6-0.9-0.8-0.3c-0.7,1.5-1.1,3.3-1.2,5c0.1,1.3,1,2.4,2.1,2.7c1.4,0.3,2.8-0.6,4.1-0.9
							c0.3-0.1,0.6-0.1,0.9-0.2C142.8,65.9,142.8,65.3,142.5,65"/>
						<path class="st5" d="M121.4,70.8c-0.5-0.2-0.5,0-1.2,0c-0.7,0-2.2,0.3-2.6,0.2c-0.8-0.3-1.3-0.8-1.4-1.5
							c-0.1-1,0.9-3.2,1.6-4.4c0.3-0.5-0.4-1.1-0.7-0.5c-0.9,1.6-1.9,3.4-1.8,5.3c0.1,1,0.9,1.6,1.7,2c1.2,0.4,2.9-0.2,3.4-0.1
							c0.3,0,0.6,0,0.8-0.1C121.6,71.5,121.6,71,121.4,70.8"/>
						<path class="st5" d="M127.9,61.2c-0.1-0.1-0.5-0.1-0.6-0.1c-0.5-0.2-1-0.6-1.2-0.9c-0.1-0.5,0.6-2.8,1.2-3.8
							c0.2-0.3,0.6-0.6,0.6-1c0-0.4-0.6-0.5-0.8-0.2c-1,1.4-2.9,5-1.1,6.2c0.5,0.4,1.3,0.9,1.9,0.5
							C128.1,61.8,128.1,61.4,127.9,61.2"/>
						<path class="st5" d="M134.4,72.2c-1,0.7-1.9,1.3-2.4,0.9c0,0,0,0,0,0c-0.2-0.3,0-1.9,0.1-2.2c0-0.4,0.3-0.7,0.2-1.1
							c-0.1-0.4-0.6-0.3-0.8,0c-0.3,1.2-0.8,2.8-0.1,3.9c0.8,1.1,2.6,0,3-0.4c0.2-0.2,0.5-0.2,0.6-0.5
							C135.1,72.5,134.8,72.1,134.4,72.2"/>
						<path class="st5" d="M150.8,69.1c0-0.3-0.3-0.5-0.5-0.4c-0.4,0.1-0.5,0.6-0.8,0.9c-1.3,2.4-3.4,2.1-4.9,0.6
							c-0.5-0.4-1,0.5-0.5,0.8c1.1,1.3,4.1,2.2,5.6,0.1c0.4-0.5,0.7-1,1-1.4C150.7,69.5,150.9,69.3,150.8,69.1"/>
					</g>
				</g>
			</g>
			<g>
				<path class="st4" d="M88.4,8.7c-0.8-0.6-1.8-1.3-2.8-1.6c0.3-0.4,0.6-0.9,0.6-1.4c0.5-2.9-2.2-4.8-4.7-5.5C80.1,0,79.4,0,77.8,0
					c-1.9,0-3.6,1.1-4.8,2.5c-0.2,0.2-0.3,0.3-0.4,0.4c0-0.1-0.1-0.2-0.1-0.3c-0.8-0.7-1.9-0.9-3-1c-1.5-0.2-3.1-0.2-4.5,0.4
					c-1.9,0.8-2.5,2.9-2.3,4.8c0,0-0.1,0-0.1,0c-1-0.4-2.2-0.3-3.3-0.3c-1.4,0.1-2.8,0.1-4.1,0.6c-2.7,0.7-6.6,2.6-6.2,5.9
					c0,0.2,0.1,0.4,0.1,0.7c-0.2,0-0.4,0-0.6,0c-2.4,0-3.9,0.5-6.1,1.1c-2.5,0.8-5,1.9-6.6,4.1c-2.3,3.3-2.4,7.3,2.3,8.3
					c3.3,0.6,6.8-0.6,9.7-2.3c0.5-0.3,0.9-0.6,1.3-1c0.7,1.9,2.9,3.5,4.8,3.7c2.7,0,5.2-2,7.3-3.5c0.1,0.6,0.3,1.1,0.6,1.6
					c0.8,1.1,1.9,2,3.2,2.3c2.5,0.4,4.8-1.3,6.6-2.9c0.6-0.6,0.9-1.3,1.2-2.1c1,1.3,2.6,1.8,4.4,1.2c2.6-0.7,6.2-1.8,6.7-4.8
					c0.1-1.1-0.1-2-0.6-2.9c0.4,0,0.8,0,1.3,0c1.6-0.3,3.2-0.9,4.3-2.1c0.7-0.8,1.2-1.9,1.5-2.9C90.1,10.4,89.4,9.4,88.4,8.7"/>
				<g>
					<path class="st5" d="M41.8,22.3c-0.6,0.2-2.1,0.3-2.1,0.1c-0.7-0.4-0.4-1.3,0.1-1.7c0.8-0.7,1.5-1.3,2.3-1.7
						c0.3-0.3,0-0.9-0.4-0.7c-0.8,0.4-1.5,1-2.1,1.5c-0.4,0.3-0.8,0.7-0.9,1.2c-0.3,0.8,0.1,1.9,1,2.2c0.7,0.2,1.4,0.1,2.1,0
						c0.3-0.1,0.7-0.1,0.9-0.4C42.8,22.3,42.2,22,41.8,22.3"/>
					<path class="st5" d="M59.4,9.1C58.2,9.2,57.1,9.6,56,10c-0.8,0.3-1.5,0.7-1.9,1.5c-0.5,0.6-0.2,1.5,0.4,1.9
						c0.6,0.4,1.4,0.4,2.1,0.4c0.1,0,1,0.1,1.5-0.1c0.5-0.3,0.1-1-0.4-0.8c-2.3,0.2-4.3-0.3-1.9-1.8c0.8-0.4,2.5-1,3.7-1.1
						C60.1,10,60,9,59.4,9.1"/>
					<path class="st5" d="M55.8,22.3c-0.3-0.1-0.5,0.1-0.8,0.1c-0.1,0-0.3,0.1-0.4,0.1c-1.9,0.5-2.5-0.6-1.8-1.6
						c0.8-0.9,1.8-1.4,3-1.9c0.5-0.2,0.2-1-0.3-0.8c-1.4,0.6-3.2,1.3-3.8,2.9c-0.6,2.2,1.8,2.8,3.4,2.2c0.2-0.1,0.5-0.1,0.7-0.3
						C56.2,22.9,56.1,22.4,55.8,22.3"/>
					<path class="st5" d="M70.7,20.2c-1.1,0.4-3.2,1.3-3.6,1.5c-0.6,0-0.7,0-0.9-0.7c-0.1-0.6-0.2-1,0.1-1.5c0.6-1,1.7-2.3,2.9-3
						c0.4-0.3,0-1-0.5-0.7c-1.1,0.7-2,1.7-2.8,2.7c-0.7,0.9-0.9,2.2-0.4,3.2c1,2,3,0.2,4.5-0.3c0.5-0.3,1.1-0.2,1.5-0.7
						C71.6,20.3,71,20,70.7,20.2"/>
					<path class="st5" d="M72.8,6.6c-1.1-0.4-2.3-0.4-3.5-0.4c-0.8,0.1-1.7,0.2-2.3,0.8c-1.5,1.6,0.4,3,2.1,3.1c0.5,0,1,0.4,1.5,0.2
						c0.5-0.5-0.2-0.8-0.6-0.8c-1.2-0.2-2.1-0.3-2.5-1c-0.2-0.3,0-1,0.8-1.3C69.4,7,71,7,72.6,7.4C73.1,7.5,73.3,6.7,72.8,6.6"/>
					<path class="st5" d="M81.5,11.6c-0.9,0.2-1.5,0.4-2.1,0.1c-1.8-0.7-0.3-1.6,1.2-3.1c0.3-0.3,0.5-0.5,0.9-0.7
						c0.1-0.1,0.3-0.2,0.4-0.4c0.1-0.3-0.3-0.6-0.6-0.4c-1.1,0.7-1.9,1.7-2.8,2.6c-0.4,0.5-0.9,1.2-0.5,1.8c0.7,1.2,2.2,1.4,3.4,1
						C81.8,12.4,82.1,11.8,81.5,11.6"/>
					<path class="st5" d="M79.3,20.2c-0.6,0.2-0.8,0.3-1,0.2c-0.3,0-0.3-0.9,0-1.7c0.1-0.3,0.3-0.5,0.2-0.8c-0.1-0.3-0.6-0.4-0.8,0
						c-0.9,1.7-0.8,4.3,1.8,3.1C80.1,20.8,79.8,20,79.3,20.2"/>
					<path class="st5" d="M80.6,2.3c-1.1-0.1-2.1,0.1-3.1,0.4c-0.6,0.2-1.2,0.5-1.3,1.1c-0.2,0.4-0.1,1,0.3,1.3
						c0.4,0.3,0.9-0.3,0.6-0.6c0,0,0-0.1,0-0.1c0,0,0,0,0-0.1c0-0.1,0-0.2,0.1-0.3c0,0,0-0.1,0-0.1c0.3-0.4,2.2-0.8,2.9-0.7
						c0.3,0,0.6,0.1,0.8,0C81.1,2.9,81,2.4,80.6,2.3"/>
				</g>
			</g>
		</g>
	</g>
</g>
</svg>
