<?xml version="1.0" encoding="utf-8"?>
<!-- Generator: Adobe Illustrator 27.0.0, SVG Export Plug-In . SVG Version: 6.00 Build 0)  -->
<svg version="1.1" xmlns="http://www.w3.org/2000/svg" xmlns:xlink="http://www.w3.org/1999/xlink" x="0px" y="0px"
	 viewBox="0 0 144.8 147.6" style="enable-background:new 0 0 144.8 147.6;" xml:space="preserve">
<style type="text/css">
	.st0{fill:#FFFFFF;}
	.st1{fill:#8CA2CF;}
	.st2{clip-path:url(#SVGID_00000063593628501861055140000011704030840355943866_);}
	.st3{fill:#627EB5;}
	.st4{fill:#8CA05C;}
	.st5{fill:#677724;}
	.st6{fill:#E0A955;}
	.st7{fill:#BBD7FF;}
	.st8{fill:#3C5987;}
	.st9{fill:#669CD3;}
	.st10{clip-path:url(#SVGID_00000119079358298861743560000001902613503346856099_);}
	.st11{fill:#92C4FC;}
	.st12{fill:#FAF4D2;}
	.st13{fill:#FCCB7C;}
	.st14{clip-path:url(#SVGID_00000023274603840478086140000007264536772166367406_);}
	.st15{clip-path:url(#SVGID_00000099630803408266280280000002179484581151799699_);}
	.st16{fill:#C5CAF0;}
	.st17{clip-path:url(#SVGID_00000070830481745310778670000006280921250793070998_);}
	.st18{clip-path:url(#SVGID_00000102513412475594882680000005821887437983657398_);}
	.st19{clip-path:url(#SVGID_00000029751078170431228510000011696394354233481356_);}
	.st20{clip-path:url(#SVGID_00000140709649165279317030000017233633716220693643_);}
	.st21{clip-path:url(#SVGID_00000026844895411699969710000015802917370998536344_);}
</style>
<g id="BACKGROUND">
</g>
<g id="OBJECTS">
	<g>
		<g>
			<path class="st6" d="M119.9,5.2c0.1,0.3,0,0.6,0,0.9c-0.2,1.7-0.3,3.1-0.5,4.8c-0.4,2.4-1,4.8-1.5,7.2c-0.7,2.3-1.9,4.4-2.9,6.5
				c-0.1,0.1-0.1,0.2-0.2,0.3c0,0.3-0.4,0.5-0.7,0.3c-0.6-0.8-0.7-0.5-1.9-1c-0.9-0.4,0.3-2.8,0.6-3.5c0.6-1.3,1.1-2.7,1.6-4.1
				c1.4-3.7,3-7.4,4.7-11C119.1,5.3,119.5,4.8,119.9,5.2"/>
			<path class="st6" d="M108.2,0.9c1.1,6.9,2.1,14.4-0.6,21.1c0,0.1-0.1,0.2-0.1,0.3c0,0.3-0.2,0.5-0.5,0.5
				c-0.7-0.2-0.9-0.3-1.7-0.4c-0.6-0.1-1.2,0-1.7-0.4c-0.4-0.3-0.3-0.9-0.3-1.4c0-1.6,0.3-3.1,0.6-4.7c0.6-3,1.2-5.9,1.9-8.9
				c0.5-2,1.1-4.1,1.4-6.2C107.3,0,108.1-0.1,108.2,0.9"/>
			<path class="st6" d="M94.6,2.7c2,6.3,4.9,12.6,4.6,19.3c0,0.1,0,0.1,0,0.2c0.1,0.1,0.1,0.2,0.1,0.4c0,0.1-0.1,0.2-0.2,0.2
				c0,0.1-0.1,0.1-0.1,0.2c-0.1,0.1-0.3,0.1-0.4,0c-0.1,0-0.3,0-0.4,0c-0.6,0-1.2,0.2-1.8,0.3c-0.8,0.1-1.7,0.8-2.1-0.3
				c-0.4-1.8-0.5-3.7-0.6-5.5c-0.5-5-0.3-10,0-15.1C93.9,1.9,94.5,2.1,94.6,2.7"/>
			<path class="st6" d="M80.7,3.8c1.8,3.1,4,5.9,5.9,8.9c1.5,2.7,2.4,5.6,3.7,8.4c0.6,1.5,1.1,3.2,1.4,4.8c0,0.1,0,0.1,0,0.2
				c0,0,0,0,0,0c0,0.1,0,0.2-0.1,0.3c-0.1,0.1-0.2,0.1-0.3,0.1c-0.9,0.5-1.7,1.6-2.6,2.8c-0.7,1-1.4,1.2-1.7-0.2
				c-0.9-2.2-1.9-4.4-2.7-6.6c-1.2-3.5-2.2-7.1-3.1-10.6c-0.5-2.5-0.9-5.3-1.4-7.4C79.7,3.8,80.2,3,80.7,3.8"/>
			<path class="st6" d="M63.3,19.3c0.2-0.3,0.6-0.1,0.8,0.1c0.6,0.4,1.2,0.9,1.5,1.1c1.7,0.9,3.5,1.6,5.1,2.5
				c1.1,0.6,1.7,1.1,2.9,1.7c1.3,0.6,2.3,1.5,3.5,2.3c0.5,0.3,2,1.2,2.8,1.6c1.8,0.9,3.8,1.6,5.7,2.5c0.3,0.1,0.7,0.3,1,0.5
				c0,0,0,0,0,0c0.1,0,0.1,0.1,0.2,0.1c0.2,0,0.5,0.2,0.3,0.4c-0.8,1.4-1.5,2.8-2.2,4.2c-0.2,0.5-0.4,1.3-1.1,1.2
				c-0.4-0.1-0.6-0.4-0.9-0.6c-0.6-0.4-1.1-0.7-1.8-1.1c-3.5-2.1-7.1-4.3-10-7.2c-2.8-2.9-4.8-6-7.7-8.5c0,0,0,0,0,0
				c0,0-0.1,0-0.1-0.1C63.1,19.7,63.1,19.5,63.3,19.3"/>
			<path class="st6" d="M115.9,27.6c1.6-2,3.2-4,5.1-5.7c2.2-1.7,4.1-3.6,6.5-5c0.7-0.3,4.8-3.3,4.7-1.6c0,0.2-0.2,0.3-0.4,0.5
				c-1.1,0.9-2,1.8-3,3c-2.1,2.6-4.4,4.9-6.2,7.7c-1,1.3-2.3,2.4-3.4,3.6c-0.3,0.3-0.5,0.7-1,0.8c-0.7-0.1-0.9-0.8-1.2-1.4
				c-0.1-0.2-0.7-0.9-1-1.4C116,28.2,115.7,27.9,115.9,27.6"/>
			<path class="st6" d="M119.6,34C119.6,34,119.6,34,119.6,34c0.1-0.1,0.1-0.2,0.2-0.2c0,0,0,0,0,0c1.2-1.2,2.7-2.1,4.1-3.1
				c1-0.6,1.9-1.4,3-1.8c2.2-0.9,4.4-1.5,6.6-2.3c0.8-0.2,1.6-0.5,2.4-0.6c1.4,0,2.4,0,3.6-0.1c1.1,0,1,0.6,0.1,1
				c-2,0.9-4.2,1.6-6.2,2.6c-1.1,0.6-3,1.7-4.3,2.3c-2.7,1.3-5.6,3-8.3,4.9c-0.5,0-0.6-0.7-0.9-1.2c-0.1-0.3-0.3-0.8-0.4-1.1
				C119.5,34.2,119.5,34.1,119.6,34"/>
			<path class="st6" d="M121.5,40c2.8-1.4,5.8-2.4,8.9-2.7c2.5-0.3,5.1,0,7.6,0.1c2.2,0.1,4.7,0.7,6.3,1.3c0.2,0,0.4,0.2,0.4,0.4
				c0,0.6-1.1,0.3-1.1,0.4c-1,0-1.6,0.2-2.5,0.4c-4.2,0.9-8.2,2.5-12.4,3.5c-1.6,0.4-2.7,0.7-4.4,0.9c-0.5,0-1.1,0-1.6,0.2
				c0.2,0-0.6,0.1-0.7,0.1c-0.3,0-0.7,0.2-1,0c-0.4-0.4,0-1,0.1-1.5c0.2-1,0.2-1.7,0.3-2.5C121.4,40.5,121.3,40.1,121.5,40"/>
			<path class="st6" d="M120.2,47.5c0.3-0.2,0.6-0.1,0.9,0c0.6,0.1,1.2,0.2,1.8,0.3c2.4,0.4,5.2-0.4,7.5,0c2.5,0.3,5,0.7,7.6,0.9
				c0.4,0,1.8,0.1,2.8,0.4c0.6,0.2,3.7,0.6,2.2,1.5c-1.2,0.4-2.6,0.3-3.8,0.6c-4.9,0.9-9.9,1.4-14.9,1.5c-1.3,0-2.6,0.2-3.9,0
				c-0.5-0.1-1.3,0-2-0.3c-0.1-0.1-0.2-0.2-0.2-0.3c-0.1-0.1-0.2-0.2-0.1-0.4C118.8,50.4,119.4,48.6,120.2,47.5"/>
			<path class="st6" d="M112.3,57.1c1.3-1.1,2.7-2.2,3.7-3.2c0.2-0.3,0.5-0.8,0.9-0.7c0.5,0.3,0.4,0.5,0.8,0.8
				c0.4,0.4,1.3,0.8,2.1,1c5.4,1.9,10.2,5.1,15.1,8c1.2,0.7,2.5,1.1,3.5,2c0.3,0.3,0.1,0.8-0.3,0.8c-1.4,0-2.7-0.5-4-1
				c-1.6-0.7-3.5-0.7-5.4-1.4c-1.2-0.4-2.5-1.1-3.4-1.4c-1.2-0.4-2.4-0.4-3.6-0.8c-1.4-0.3-2.6-1-3.9-1.5c-0.5-0.2-1.4-0.5-2.2-0.8
				c-1-0.4-1.7-0.5-2.5-0.9c-0.5-0.3-0.2-0.2-0.6-0.5c0,0-0.1-0.1-0.1-0.1C112.2,57.6,112.1,57.3,112.3,57.1"/>
			<path class="st6" d="M69,41.2c2-0.2,4.9-0.3,6.5-0.7c1.1-0.2,2.1-0.7,3.2-0.8c1.2-0.2,2.4-0.1,3.6,0c0.9,0.2,1.2,0.3,1.7,0.1
				c0.3-0.1,0.1,0,0.5-0.1c0,0,0,0,0,0c0,0,0,0,0,0c0,0,0,0,0,0c0.1,0,0.1-0.1,0.2-0.1c0,0,0,0,0,0c0.3-0.2,0.6,0.1,0.6,0.4
				c-0.4,1.4-0.7,2.9-0.6,4.2c0,0.1,0.1,0.3,0.1,0.3c0.1,0.3,0.1,0.4,0.2,0.5c0,0.4-0.4,0.7-0.7,0.5c-1.3-0.8-2.9-0.7-4.5-1.1
				c-1.3-0.3-2.4-0.8-3.6-1.1c-2.4-0.4-4.5-0.7-6.7-0.8c-0.6-0.1-1.3,0-1.7-0.5C67.4,41.2,68.5,41.1,69,41.2"/>
		</g>
		<path class="st13" d="M88,28.9c0.5-0.7,1-1.5,1.6-2.2c0.8-0.7,1.6-1.4,2.5-2c2.6-1.9,5.8-3.4,9.1-3.5c2.5,0.2,4.9,0.3,7.2,0.6
			c4.9,1.6,9.6,4.3,12.1,9c2.6,3.6,2.9,8.3,2.2,12.6c-0.3,1.1-0.7,2.1-1,3c-0.1,0.7-0.3,1.4-0.4,2.1c-0.2,0.4-0.2,1-0.5,1.2
			c0,0-0.1,0-0.1,0c-0.6,1.6-1.4,3.2-2.6,4.4c-0.9,0.9-2,1.6-3,2.2c-0.2,0.2-0.4,0.3-0.7,0.5c-3.1,2.3-6.9,3.9-10.8,3.3
			c-1.4-0.3-1.8-0.2-3.1-0.4c-1.5-0.3-2.9-0.9-4.3-1.6c-2.8-1.5-5.6-3.1-7.7-5.5c-1.3-1.9-2.5-4-3.4-6.2c-0.6-1.8-1-3.7-1.2-5.7
			c-0.2-1.5-0.2-3,0.2-4.5c0.4-1.2,0.9-2.4,1.4-3.5C86.3,31.3,87.1,30.4,88,28.9"/>
		<path class="st6" d="M93.1,28.4c1.3-1.4,3-2.2,4.8-2.9c1.5-0.6,3.1-0.5,4.6-0.4c1,0.1,2,0.1,3.2,0.3c1.1,0.4,2.2,0.5,3.2,0.8
			c1.5,0.8,3.1,1.6,4.4,2.7c1,1,1.7,2.2,2.5,3.4c1,1.5,2,3,2.8,4.6c0.9,2.4,0.9,5,0.6,7.6c-0.4,2-1.4,3.9-2.1,5.8
			c-0.2,0.4-0.7,0.1-0.6-0.3c0.7-1.5,1.5-3.5,1.9-4.8c0.3-1.2,0.3-2.1,0.3-3.4c0.3-3.5-1.3-6.2-3.3-9c-0.9-1.2-1.6-2.6-2.6-3.4
			c-1.2-1-2.5-1.6-3.9-2.5c-0.9-0.4-2.3-0.5-3.5-0.9c-1.3-0.3-2.9-0.2-3.9-0.3c-1.7-0.1-3,0.1-4.6,0.9c-1.4,0.5-2.4,1.2-3.3,2.1
			c-2,1.9-3.5,3.9-4.4,6.6C88.6,37,88,38.2,87.8,40c-0.2,1.8,0,3.4,0.5,5.1c0.6,2,1.9,3.1,3.3,4.6c1,0.9,1.9,1.8,3,2.7
			c0.6,0.3,2,1.2,2.9,1.7c1.7,0.8,3.8,1.3,5.8,1.1c0.9-0.1,2.1,0.1,2.7-0.1c0.3-0.1,0.5-0.1,0.7-0.3c1.5-0.9,2.8-1.7,3.8-3
			c1-1.2,1.6-3.1,2.4-4.7c1-2.2,1.6-4.6,1.3-7c-0.1-0.6-0.6-2.1-0.9-2.7c-0.6-1-1.2-1.5-2-2.4c-1.3-1.3-2.8-2-4.6-2.7
			c-1.2-0.5-2.7-1.2-3.6-1.2c-0.7,0-1.3,0.1-2,0.2c-0.7,0-1,0.1-1.6,0.4c-2.2,1.1-4.6,3.1-5.4,5.7c-0.7,1.6-0.5,3.5,0.1,5.2
			c0.8,2.2,2.4,4.3,4.5,5.1c1.3,0.5,2.6,1,3.6,0.9c2-0.2,3.5-0.8,4.6-2.4c0.4-0.7,1.2-2.1,1.4-3.1c0.1-0.5-0.1-1.1-0.2-1.7
			c-0.5-2.5-3.5-4.7-5.6-4.4c-0.9,0.4-1.8,0.7-2.2,1.7c-0.5,1.2-0.9,2.5-0.1,3.1c0.3,0.3,0.7,0.4,1.2,0.6c0.2,0,0.5,0.1,0.4,0.4
			c-0.1,0.3-0.4,0.3-0.7,0.2c-0.4-0.1-0.7-0.3-1-0.5c-1.6-1-0.8-3.6,0.2-4.8c0.7-0.6,1.2-0.8,2-1.2c0.9-0.3,1.8,0,2.6,0.4
			c2.4,0.9,4,3.4,4.1,6c0,1-0.4,1.8-0.9,2.7c-0.5,1-1.2,2-2.2,2.7c-1.2,0.7-2.6,1.2-4,1c-1.5-0.1-3.7-0.9-5.2-2
			c-2.4-1.9-3.7-4.9-3.7-7.9c0.1-1.9,1-3.6,2.2-5c1.2-1.5,2.8-2.6,4.6-3.4c0.5-0.2,1.1-0.2,1.6-0.2c0.7-0.1,1.3-0.2,2-0.1
			c1.9,0.3,3.5,1.3,5.3,2c2.7,1.3,5.2,3.7,5.9,6.6c0.3,1,0.4,2,0.2,3.1c0,1.1-0.3,2.2-0.7,3.3c-0.3,1.1-0.8,2.1-1.3,3.1
			c-0.5,1.3-1.1,2.6-2,3.7c-0.9,1.1-2,1.9-3.2,2.6c-0.6,0.4-1.2,0.8-2,0.9c-2,0-4.1,0.3-6.1-0.3c-1.4-0.3-2.6-0.9-3.8-1.6
			c-1.1-0.6-2-1.2-2.9-2.1c-1.8-1.7-3.6-3.3-4.7-5.3c-0.6-1.3-0.8-2.7-1-3.9c-0.3-2.7,0.6-5.2,1.6-7.6
			C89.6,32.4,91.2,30.2,93.1,28.4"/>
	</g>
	<g>
		<path class="st1" d="M118.1,73.2c-0.1-1.6-0.2-4.9-1.1-9.5c-0.8-3.2-1.3-6.5-2.3-9.7c-1.4-3.3-1.1-2.4-2.2-5.1
			c-0.3-0.9-1.1-2.9-3-5.4c-2.4-2.8-4.4-5.9-7.1-8.4c-3.6-3.2-6.6-5.9-8.8-7.4c-4.5-2.7-8.1-4.9-11.2-5.9c-3.9-1-5.7-1.3-8-1.6
			c0,0,0.1,0,0.1,0c0,0-0.1,0-0.1,0c-0.1,0-0.2,0-0.3,0c-0.8,0-0.2,0,0.2,0c-0.3-0.1-0.7-0.1-1-0.2c-0.6-0.1-1.3-0.3-1.9-0.4
			c0.1,0,0.1,0,0,0c-0.3,0-0.5-0.1-0.8-0.1c0.1,0,0.2,0,0.4,0c-5.8-1.1-7.5-1.9-13.5-1.1c0,0-0.2,0-0.4,0c-2.5,0.1-4.9,1.1-7.3,1.7
			c-2.5,0.6-1.9,0.2-5.4,1c-3.8,1.3-4.1,1.4-8.1,3.6c-1.3,0.5-2.4,1.3-3.6,2c-1.5,0.9-3,1.7-4.4,2.8c-3.5,2.8-7.1,5.7-10.2,8.9
			c-3.1,3.5-5.8,7.3-8.3,11.1c-3.2,4.8-6.1,9.9-7.5,15.6c-1.5,4.9-1.8,10.1-1.9,15.2c0,3.4,0.1,7.7,0.3,8.6c0.1,0.3,0.1,0.5,0.1,0.6
			c0.1,2,0.6,4,1.1,5.9c0.5,1.7,0.9,3.4,1.5,5.1c0.1,0.6,0.2,1.2,0.3,1.8c1.6,6.1,2.4,5.6,3.3,9.7c0,0.2,0.1,0.4,0.1,0.7
			c0,0.5,0.1,1.5,0,1.9c0,2.6-0.2,5.2-0.4,7.8c-0.4,2.2-0.5,4.3-0.5,6.5c0,2.1,0.1,4.2,0.9,6.1c2,5.5,7.7,7.9,12.7,9.2
			c3.7,1,7.5,0.5,11.3,0.5c5.4-0.4,10.9-0.2,16-2.1c3.8-1.3,3.4-1.7,6.5-1.6c0.3,0,0.5,0,0.7,0c0.4,0.1,0.8,0.2,1.2,0.3
			c0.6,0.3,1.1,0.6,1.7,0.9c1.4,0.8,2.7,1.9,4.1,2.6c2.4,1.1,4.9,1.7,7.5,2c2.6,0.6,5.3,1.2,8,0.6c1.7-0.2,3.2-1,4.8-1.6
			c1.1-0.4,2.3-0.7,3.3-1.2c3.2-1.2,4.5-1.7,8.4-4.4c1.3-0.8,2.4-1.9,3.4-3.1c1.8-1.5,3.3-3.3,4.6-5.3c0.3-0.3,2.7-3.7,4.3-6.3
			c1.7-2.7,1.2-1.8,3.3-4.6c1.1-1.7,2.1-3.4,2.8-5.3c1.7-5.2,2.9-10.5,4.3-15.7c0.5-3.2,0.9-6.3,1.1-9.5c0.4-2.7,0.5-2.7,0.7-6.7
			C118.3,80.3,118.6,76.7,118.1,73.2"/>
		<g>
			<defs>
				<path id="SVGID_00000090271626569272232640000005970113581054344088_" d="M118.1,73.2c-0.1-1.6-0.2-4.9-1.1-9.5
					c-0.8-3.2-1.3-6.5-2.3-9.7c-1.4-3.3-1.1-2.4-2.2-5.1c-0.3-0.9-1.1-2.9-3-5.4c-2.4-2.8-4.4-5.9-7.1-8.4c-3.6-3.2-6.6-5.9-8.8-7.4
					c-4.5-2.7-8.1-4.9-11.2-5.9c-3.9-1-5.7-1.3-8-1.6c0,0,0.1,0,0.1,0c0,0-0.1,0-0.1,0c-0.1,0-0.2,0-0.3,0c-0.8,0-0.2,0,0.2,0
					c-0.3-0.1-0.7-0.1-1-0.2c-0.6-0.1-1.3-0.3-1.9-0.4c0.1,0,0.1,0,0,0c-0.3,0-0.5-0.1-0.8-0.1c0.1,0,0.2,0,0.4,0
					c-5.8-1.1-7.5-1.9-13.5-1.1c0,0-0.2,0-0.4,0c-2.5,0.1-4.9,1.1-7.3,1.7c-2.5,0.6-1.9,0.2-5.4,1c-3.8,1.3-4.1,1.4-8.1,3.6
					c-1.3,0.5-2.4,1.3-3.6,2c-1.5,0.9-3,1.7-4.4,2.8c-3.5,2.8-7.1,5.7-10.2,8.9c-3.1,3.5-5.8,7.3-8.3,11.1
					c-3.2,4.8-6.1,9.9-7.5,15.6c-1.5,4.9-1.8,10.1-1.9,15.2c0,3.4,0.1,7.7,0.3,8.6c0.1,0.3,0.1,0.5,0.1,0.6c0.1,2,0.6,4,1.1,5.9
					c0.5,1.7,0.9,3.4,1.5,5.1c0.1,0.6,0.2,1.2,0.3,1.8c1.6,6.1,2.4,5.6,3.3,9.7c0,0.2,0.1,0.4,0.1,0.7c0,0.5,0.1,1.5,0,1.9
					c0,2.6-0.2,5.2-0.4,7.8c-0.4,2.2-0.5,4.3-0.5,6.5c0,2.1,0.1,4.2,0.9,6.1c2,5.5,7.7,7.9,12.7,9.2c3.7,1,7.5,0.5,11.3,0.5
					c5.4-0.4,10.9-0.2,16-2.1c3.8-1.3,3.4-1.7,6.5-1.6c0.3,0,0.5,0,0.7,0c0.4,0.1,0.8,0.2,1.2,0.3c0.6,0.3,1.1,0.6,1.7,0.9
					c1.4,0.8,2.7,1.9,4.1,2.6c2.4,1.1,4.9,1.7,7.5,2c2.6,0.6,5.3,1.2,8,0.6c1.7-0.2,3.2-1,4.8-1.6c1.1-0.4,2.3-0.7,3.3-1.2
					c3.2-1.2,4.5-1.7,8.4-4.4c1.3-0.8,2.4-1.9,3.4-3.1c1.8-1.5,3.3-3.3,4.6-5.3c0.3-0.3,2.7-3.7,4.3-6.3c1.7-2.7,1.2-1.8,3.3-4.6
					c1.1-1.7,2.1-3.4,2.8-5.3c1.7-5.2,2.9-10.5,4.3-15.7c0.5-3.2,0.9-6.3,1.1-9.5c0.4-2.7,0.5-2.7,0.7-6.7
					C118.3,80.3,118.6,76.7,118.1,73.2"/>
			</defs>
			<clipPath id="SVGID_00000044147149115410455000000007022924984463139753_">
				<use xlink:href="#SVGID_00000090271626569272232640000005970113581054344088_"  style="overflow:visible;"/>
			</clipPath>
			<g style="clip-path:url(#SVGID_00000044147149115410455000000007022924984463139753_);">
				<path class="st5" d="M113.4,122.1c-0.1-0.6,0-0.7-0.2-1.2l0,0c0-0.2-0.1-0.5-0.2-0.6c0-0.1,0-0.2,0-0.2c0-0.2,0-0.4-0.1-0.6
					c0.1-0.3,0-0.7-0.1-1c-0.1-0.3,0-0.2-0.4-0.6c0,0-0.1,0-0.1,0c0-0.1-0.1-0.1-0.1-0.2c-0.3-0.4-0.3-0.2-0.6-0.7
					c-0.3-0.4-0.8-0.8-1.3-1.1c0,0-0.1-0.1-0.2-0.2c-0.5-0.5-0.6-0.4-0.9-0.7c-0.8-0.4-0.9-0.4-1.4-0.8c-2-1.1-4.1-1.7-6.4-2.1
					c-1.8-0.4-3.6-1-5.5-1.1c-3.5-0.5-6.2-0.9-9.9-1.1c-4.8,0-10.6,0.5-14.7,1.2c-3.2,0.2-6.2,1.3-9.3,2c-4.7,0.9-9.1,2.7-13.5,4.6
					c-5.1,1.9-10.9,4.1-16.1,7c-2.8,1.5-5.6,2.7-8.1,3.8c-2.6,1-4.7,2.1-7.3,1.9c-2.2-0.1-5.1-1.1-7.6-1.9c-0.1,0-0.2-0.1-0.4-0.1
					c-0.3-0.2-0.5-0.3-1-0.8c-0.6-0.6-0.5-0.7-1.2-1.3c-0.5-0.3-1.2,0-1.2,0.6c-0.2,1,0,1.9-0.1,2.9c-0.1,0.4-0.1,0.9,0,1.3
					c-0.1,1.9,0,3.8,1,5.5c0.9,1.7,2.4,3,3.8,4.2c1,0.9,2.3,1.4,3.5,2c0.5,0.4,1,0.8,1.6,1.2c4,2.2,7.9,2.3,12.3,2.6
					c2.6,0,5.2,0.5,7.8,0.3c4.9-0.5,9.5-2,14.1-3.5c1.9-0.5,3.2-0.8,4.6-0.4c1.9,0.6,4.7,2.3,6.7,3.8c1.7,1.3,3.7,2.2,5.7,3.2
					c1.4,0.6,2.9,0.6,4.4,1c5.2,1,10.6-0.1,15.5-1.8c2.4-0.8,4.3-2.4,6.4-3.6c2.5-1.5,4.7-3.2,7.1-5.3c3.5-2.8,5.2-5.8,7.6-9
					c1.2-2.1,2.2-3.1,3.9-4.7C113,125.1,113.4,123.6,113.4,122.1"/>
				<g>
					<path class="st4" d="M104.3,121.9c-5-5.4-14.4-7-21.7-6.9c-9.7-0.4-19.1,2.9-28.5,6c-5.1,2.2-8.5,3.9-12.4,5.3
						c-2,1-3.5,1.5-5.6,2.6c-3,1.5-5.7,2.9-8.7,4c-3.2,1.4-8.2,3.1-11.5,1.7c-1.6-0.9-3.1-1.5-4.2-2.6c-0.2-0.2-0.5-0.2-0.7,0
						c-0.2,0.2-0.2,0.5,0,0.7c2.7,2.2,5.7,3.9,9.3,3.3c2.4-0.2,5-1.1,7.1-2c2.1-0.8,4.5-1.8,6.8-2.9c4.2-2.1,7.3-3.2,11.3-4.8
						c1.7-0.7,3.4-1.4,5.4-2.3c1.7-0.7,2.6-1.4,4.1-1.8c6.2-2.1,12.4-4.1,18.9-5.2c3.8-0.6,9.3-0.8,14.2-0.3
						c3.9,0.5,8.6,1.6,12.3,3.9c1.4,1,3.1,2.1,3.3,3.9c0.6,2.5-1.5,5.5-3.9,7.9c-4,3.9-10.6,4.9-15.1,2.4c-2.7-1.4-3.5-3.3-1.7-5.8
						c0.2-0.5,2.4-2.4,2.4-2.2c2.4-0.8,4.4-1.3,5.8-0.5c1.8,1.1,1,2.5-1.7,3.8c0,0,0,0-0.1,0c-0.1,0-0.4,0-0.5,0.1
						c-0.5,0.1-0.6,0.8-0.2,1.1c1,0.6,2.1-0.4,2.9-0.9c2.6-1.6,2.5-4.5-0.5-5.5c-2.2-0.7-4.5,0.1-6.5,0.8c-2.1,1.4-4.2,3.7-4,6.3
						c0.7,3.6,4.9,5,8.1,5.5c4.4,0.3,8-0.7,11.3-3.3C103.4,131,107.2,126.1,104.3,121.9"/>
					<path class="st4" d="M77.1,122.4c-4.9,0.8-9.7,2-14.6,3.2c-3.3,0.7-6.5,1.6-9.6,3c-4.5,1.9-8.9,4.2-13.1,6.6
						c-1.6,1-3.7,1.8-4.8,3.3c-0.5,1,0.3,2,1.2,2.4c0.9,0.4,1.9,0.4,2.8,0.3c1.3-0.1,2.7-0.1,4-0.4c2-0.5,4.4-1,5.8-2.6
						c1.5-1.3,0.3-3.3-1.5-3.4c-1.3-0.3-5,1.5-2.9,2.8c0.5,0.3,1.4,0.4,1.4-0.4c-0.1-0.4-0.2-0.5-0.4-0.6c0.4-0.3,1.2-0.8,1.9-0.6
						c0.3,0.1,0.4,0,1,0.6c0,0,0.1,0.1,0.1,0.1c0,0,0,0,0,0c0,0.1,0,0.1,0,0.2c0,0,0,0.1,0,0.1c-0.1,0.2-0.5,0.6-0.9,1
						c0,0,0,0-0.1,0.1c-0.1,0.1-0.6,0.3-0.3,0.2c-2.2,1-4.3,1.6-6.6,1.6c-2.2,0.2-4,0.1-4.2-0.8c0,0,0,0,0,0c0,0,0,0,0,0
						c0,0,0,0,0,0c0,0,0,0,0,0c0,0,0-0.1,0-0.1c0,0,0,0,0,0.1l0,0c0,0,0,0,0,0c0,0,0,0,0,0c0,0,0,0,0,0c0,0,0,0,0,0
						c0.1-0.1,0.1-0.1,0.1-0.2c0.6-0.7,1.2-0.9,1.7-1.3c5-3,10.1-5.9,15.5-8.2c6.8-2.9,15.3-4.4,22.9-6c0.4-0.1,0.9,0,1.1-0.3
						C77.7,122.7,77.4,122.3,77.1,122.4"/>
					<path class="st4" d="M36.2,139.2C36.2,139.2,36.2,139.1,36.2,139.2C36.2,139.1,36.2,139.2,36.2,139.2L36.2,139.2z"/>
					<path class="st4" d="M80.5,140.6c-0.5-2.6-3.1-4.1-5.2-5.5c-2.3-1.4-4.7-3.1-7.5-3.4c-1.5-0.2-3.8-0.6-5.8-0.1
						c-2,0.4-3.9,1.4-5.6,2.3c-0.1,0.1-0.2,0.2-0.3,0.3c-0.2,0.5,0.4,0.9,0.9,0.6c2.8-1.6,6.1-2.8,8.7-2.3c3,0.2,4.9,1,7.6,2.8
						c2.7,1.7,5.2,2.9,5.8,5.4c0.1,0-0.2,1.6-0.3,1.9c-0.7,1.1-1.2,1.7-2.5,2.3c-0.7,0.4-2.8,0.4-4.6,0.2c-0.7-0.1-3.2-1.1-4-1.4
						c-1-0.3-1.1-0.2-1.9-0.7c-1.6-0.9-3.1-1.9-3.1-2.4c0-0.4,0.5-1.4,1.6-1.8c0.6-0.2,2.7-0.4,4.1,0.2c0,0,0.2,0.1,0.4,0.2
						c0.3,0.2,0.7,0.5,0.6,0.4c0,0,0.1,0.1,0.1,0.1c0,0,0.1,0.1,0.1,0.1c0,0,0.1,0.1,0.1,0.1c0,0,0,0.1,0,0.1c0,0.6,0,0.7-0.1,0.9
						c0,0,0,0,0,0c0,0,0,0,0,0c-0.1,0-0.2,0-0.2,0.1c-0.3,0-0.5,0-0.8,0c-0.6-0.3-1.4,0.5-0.8,1.1c0.3,0.3,0.9,0.3,1.3,0.3
						c0.6,0,1.4-0.1,1.8-0.7c0.4-0.7,0.5-1.5,0.2-2.2c-0.2-0.6-0.8-0.9-1.3-1.3c-2-1.2-4.8-1.4-6.8-0.3c-1.4,1-2.3,2.9-0.9,4.2
						c0.6,0.7,1.5,1,2.3,1.6c0.8,0.5,1.5,1,2.5,1.2c1.1,0.3,2.6,1,4.1,1.5c1.2,0.3,2.4,0.3,3.7,0.3
						C77.9,146.7,80.9,143.7,80.5,140.6"/>
					<path class="st4" d="M28.1,141.8c-0.5-1.5-2.2-2.1-3.6-2.7c-3.3-0.5-6.8-0.2-9.9,0.6c-0.4,0.3-0.1,0.9,0.4,0.8
						c2-0.5,3.6-0.6,5.8-0.7c1.8,0,3.1-0.1,4.4,0.6c2.1,0.9,2.3,1.9,1.3,2.7c-0.2,0.1-0.8,0.1-1.7,0.2c-0.4,0-0.9,0-1.1,0
						c0.1-0.1,0.2-0.2,0.5-0.4c0,0,0.1,0,0.1-0.1c0.2-0.1,0.4-0.2,0.4-0.5c-0.1-1.3-1.8-0.3-2.1,0.3c-0.8,1,0.1,1.7,1.2,1.7
						c1.4-0.1,2,0,3.2-0.4C27.7,143.6,28.2,142.6,28.1,141.8"/>
					<path class="st4" d="M109,123.4c-0.3-1.1-0.5-1.2-1.1-2.3c-0.1-0.4-1-2.1-2.2-3c-2.2-1.7-4.1-2.5-6-3.3
						c-1.3-0.5-3.2-1.4-5.3-1.7c-5.2-0.4-9.8-1-14.8-0.4c-6,0.3-11.1,0.9-16.9,2.9c-3.2,0.9-6.4,1.7-9.5,2.8c-1.7,0.7-2.9,1.5-4.5,2
						c-4.1,1.4-7.8,2.9-11.7,4.4c-2.8,1.4-5.7,2.7-8.2,4.5c-0.3,0.3,0.2,0.9,0.6,0.6c6.2-4,12.2-5.9,19-8.4c1.9-0.5,4.1-1.8,5.5-2.3
						c4.4-1.4,8.8-2.6,13.2-3.8c4.2-1.1,6.9-1.2,11.3-1.4c1.9-0.1,3.9-0.4,5.8-0.4c0.7,0.2,3.3,0.1,4.6,0.3c2.7,0.4,4.8,0.2,7.3,1
						c2.9,1.2,4.8,1.8,8,3.9c0.8,0.6,2,1.8,2.3,2.8c0.1,0.4,0.7,1.2,0.9,1.8c0.2,0.3,0.1,0.1,0.1,0.4c0,0.1-0.1,0.3,0,0.4
						C107.9,125.1,109.3,124.3,109,123.4"/>
					<path class="st4" d="M97.9,125.6c-0.3-0.8-0.8-1.2-1.1-1.6c-0.6-0.6-1.2-1.2-2-1.6c-2.8-1.8-6.2-2.3-9.6-2.8
						c-3.7-0.5-7.4-0.5-11.4,0c-3.4,0.6-6.8,1.5-10.1,2.5c-1.8,0.6-3.8,0.9-5.4,1.9c-0.2,0.4,0.1,0.8,0.6,0.7
						c8.4-2.9,17-5.4,25.4-4.2c2.1,0.2,5.8,0.9,7.7,1.7c1.3,0.7,2.3,1.2,3.2,2c0.1,0.2,1.4,1.5,1.3,1.6c0.5,1.1,0.5,1.8,0.3,2.6
						c0,0.1,0,0.2,0,0.3c-0.1,0.2-0.1,0.5,0.1,0.7c0.3,0.4,1.1,0.3,1.2-0.2c0.2-0.5,0.1-0.5,0.2-0.7
						C98.5,127.5,98.3,126.5,97.9,125.6"/>
					<path class="st4" d="M47.8,128.7c-4.6,1.8-9,3.2-13.7,5.3c-1.5,0.6-2.9,1.2-4.3,1.9c-0.1,0.1-0.2,0.2-0.2,0.3
						c-0.1,0.4,0.4,0.8,0.8,0.6c6.3-3,12.1-5,18.1-7.2C48.9,129.2,48.4,128.5,47.8,128.7"/>
					<path class="st4" d="M23.7,131c-1.7,0.8-4.3,0.9-6.8,0.8c-0.5,0-0.6-0.2-1.5-0.1c-0.4,0.2-0.3,0.9,0.1,1
						c2.3,0.3,5.9,0.3,8.6-0.7c0.5-0.3,1.4-0.3,1.6-0.9C25.6,130,24.3,130.7,23.7,131"/>
					<path class="st4" d="M77.3,132.1c-0.1-0.1-0.1-0.2-0.2-0.2c-1.8-1.6-4-2.7-6.3-3.6c-0.7-0.2-1.4-0.7-2.1-0.7
						c-0.7,0.1-0.8,1.1-0.1,1.2c2.9,1.1,5.4,2.2,7.7,4.2l0,0c0,0,0,0,0,0c0,0,0.1,0,0.1,0.1c0.1,0.1,0.1,0.1,0.1,0.1
						C77.2,133.2,77.7,132.6,77.3,132.1"/>
					<path class="st4" d="M77.3,132.1C77.3,132.1,77.3,132,77.3,132.1C77.3,132,77.3,132.1,77.3,132.1"/>
					<path class="st4" d="M77.3,132.1C77.3,132.1,77.3,132.1,77.3,132.1C77.4,132.1,77.4,132.1,77.3,132.1
						C77.4,132.1,77.3,132.1,77.3,132.1"/>
					<path class="st4" d="M86.6,144C86.6,144,86.6,144,86.6,144c0-0.1,0-0.1,0-0.2c0-1.6-1.8-3.7-3-5.3c-0.6-0.5-0.6-1-1.4-1.5
						c-0.5-0.2-1.1,0.5-0.8,0.9c1.4,1.9,4,4.7,3.9,6c-0.1,0.8,1,1.2,1.3,0.4C86.7,144.2,86.7,144.1,86.6,144"/>
					<path class="st4" d="M106.1,130.4c-0.6,0.1-0.4,0.2-0.8,0.5c-1.9,2.2-3.7,4.5-5.9,6.4c-0.8,0.4-2.3,1.7-3.3,2.2
						c-1.2,0.5-3.7,1.3-5.6,1.6c-0.7,0.2-0.4,1.2,0.3,1c2.3-0.5,5.7-1.2,7-2.5c3.3-1.8,5.9-5.2,8.7-8.2
						C107,131.1,106.7,130.4,106.1,130.4"/>
					<path class="st4" d="M58.7,136.4c-0.4-0.1-0.9,0.2-1.3,0.4c-1.5,0.7-2.8,1.8-4.1,2.7c-0.4,0.4-1.2,0.8-1.4,1.3
						c0,0.4,0.6,0.6,0.9,0.3c1.3-1.1,3.8-2.8,5.2-3.5c0.3-0.2,0.8-0.2,1-0.5C59.2,136.9,59,136.5,58.7,136.4"/>
					<path class="st4" d="M87.5,146.5c-0.3-0.1-0.6,0.1-0.8,0.2c-0.9,0.5-2.2,0.6-3.5,1c-1.3,0.3-2.3,0.8-3.3,0.8
						c-2.1,0.3-4.3-0.1-6.4-0.1c-0.5,0.2-0.3,0.9,0.2,0.9c3,0.2,6.2,0.6,9.1-0.5c1.9-0.6,4-0.8,5-1.5
						C88,147.1,87.9,146.6,87.5,146.5"/>
					<path class="st4" d="M10.6,137.6c-1-0.9-1.6-2.4-1.9-4.5c-0.1-0.7-0.2-1.3-0.2-2.3c0-0.2-0.1-0.3-0.2-0.4
						c-0.4-0.4-1.1-0.1-1,0.4c0.1,2.8,0.5,6,2.8,8c0.3,0.2,0.6,0.6,1.1,0.4C12.1,138.8,11,138,10.6,137.6"/>
				</g>
			</g>
			<g style="clip-path:url(#SVGID_00000044147149115410455000000007022924984463139753_);">
				<g>
					<path class="st5" d="M106.3,116.1C106.3,116.1,106.3,116.1,106.3,116.1C106.3,116.1,106.3,116.1,106.3,116.1"/>
					<path class="st3" d="M19.5,89.1c-0.9,1.9-3.3,5.6-3.9,7c0.2,0.5,0.8,0.2,0.9-0.2c1.3-2.1,2.5-4.3,3.7-6.4
						C20.5,89.1,19.7,88.7,19.5,89.1"/>
					<path class="st3" d="M22.4,94.2c-1.1,1.8-2.2,3.7-3.2,5.5c0,0.2,0.1,0.4,0.3,0.5c0.3,0.1,0.5-0.1,0.6-0.4
						c0.4-0.4,0.6-1,0.8-1.5c0.6-1.2,2-2.9,2.3-4.1C23.2,93.9,22.6,93.9,22.4,94.2"/>
					<path class="st3" d="M22.7,104.1c-0.8,1.6-1.7,3.2-2.6,4.8c-0.1,0.3-0.4,0.6-0.4,1c0.1,0.3,0.4,0.4,0.7,0.4
						c0.2-0.1,0.4-0.3,0.4-0.5c1-1.7,1.9-3.4,2.8-5.2C24,104.1,23,103.5,22.7,104.1"/>
					<path class="st3" d="M12.4,101.3c-0.9,1.9-1.8,3.7-2.8,5.5c-0.1,0.3-0.4,0.5-0.3,0.8c0.1,0.3,0.4,0.4,0.6,0.4
						c0.5-0.2,0.6-0.8,0.8-1.2c0.9-1.7,1.7-3.3,2.5-5C13.7,101.3,12.8,100.8,12.4,101.3"/>
					<path class="st3" d="M16.6,104.7c-0.9,1.5-1.7,3-2.6,4.4c-0.1,0.3-0.4,0.5-0.5,0.8c-0.1,0.4,0.3,0.7,0.7,0.6
						c1.3-1.2,2.3-3.8,3.3-5.3C18,104.6,17,104,16.6,104.7"/>
					<path class="st3" d="M15.7,115.3c-0.8,1.7-1.6,3.5-2.5,5.1c-0.3,0.4,0.3,1,0.7,0.7c1.1-1.7,1.9-3.7,2.7-5.5
						C16.8,115.1,15.9,114.8,15.7,115.3"/>
					<path class="st3" d="M21.1,116.9c-0.9,1.7-1.7,3.4-2.5,5.1c-0.3,0.5,0.3,1.1,0.8,0.8c1.1-1.6,1.7-3.6,2.7-5.3
						C22.5,116.8,21.5,116.3,21.1,116.9"/>
					<path class="st3" d="M29.2,103.7c-0.8,1.7-1.6,3.3-2.4,5c-0.2,0.3,0,0.7,0.3,0.8c0.2,0.1,0.5,0,0.6-0.2
						c0.6-1.2,1.2-2.5,1.8-3.7c0.2-0.6,0.7-1.1,0.7-1.7C30.1,103.4,29.4,103.3,29.2,103.7"/>
					<path class="st3" d="M40.2,93.4c-0.9,1.8-1.8,3.6-2.7,5.3c-0.3,0.4,0.3,1,0.8,0.7c1.2-1.8,2.1-3.8,3-5.7
						C41.3,93.2,40.4,92.9,40.2,93.4"/>
					<path class="st3" d="M32.6,110.9c-0.9,1.8-1.8,3.5-2.7,5.3c-0.2,0.4,0.2,0.9,0.6,0.7c0.2-0.1,0.3-0.2,0.4-0.4
						c0.9-1.7,1.8-3.4,2.6-5.1C34,110.8,33,110.3,32.6,110.9"/>
					<path class="st3" d="M40.7,103.5c-0.4,0.8-0.9,1.6-1.2,2.5c-0.1,0.3,0.1,0.5,0.4,0.6c0.3,0.1,0.5-0.1,0.6-0.3
						c0.4-0.8,0.9-1.6,1.3-2.4C41.9,103.3,41,103,40.7,103.5"/>
					<path class="st3" d="M48.4,99.7c-0.6,1.2-1.2,2.3-1.7,3.5c0,0.2,0.1,0.4,0.2,0.5c0.3,0.1,0.6,0,0.7-0.2
						c0.6-1.1,1.2-2.2,1.7-3.3C49.7,99.7,48.7,99.1,48.4,99.7"/>
					<path class="st3" d="M41.2,111.9c-0.6,1.3-1.3,2.6-1.9,3.8c-0.2,0.3,0,0.7,0.3,0.8c0.3,0.1,0.6-0.1,0.7-0.3
						c0.7-1.2,1.3-2.3,1.8-3.5C42.7,112,41.8,111.1,41.2,111.9"/>
					<path class="st3" d="M55.3,101.7c-1,2-2,3.9-3,5.8c-0.3,0.4,0.1,0.9,0.6,0.8c0.6-0.3,0.6-1,1-1.5c0.8-1.5,1.6-3.1,2.4-4.6
						C56.7,101.6,55.7,101.1,55.3,101.7"/>
					<path class="st3" d="M62.4,100.6c-0.4,0.8-1,1.5-1.3,2.3c0,0.2,0.1,0.5,0.3,0.6c0.5,0.3,0.9-0.2,1.1-0.6
						c0.3-0.6,0.8-1.2,1.1-1.9C63.7,100.4,62.7,100.1,62.4,100.6"/>
					<path class="st3" d="M59.4,106.5c-0.6,1.2-1.4,2.3-2,3.5c0,0.1,0,0.3,0.1,0.4c0.6,0.7,1.2-0.2,1.4-0.7c0.5-0.9,1-1.7,1.5-2.6
						C60.9,106.4,59.8,105.8,59.4,106.5"/>
					<path class="st3" d="M69.2,101c-0.8,1.5-1.7,3-2.5,4.5c-0.1,0.2-0.1,0.5,0,0.6c0.4,0.5,1,0.1,1.2-0.4c0.5-0.9,1.1-1.9,1.6-2.8
						c0.2-0.6,0.8-1.2,0.8-1.8C70.2,100.6,69.4,100.5,69.2,101"/>
					<path class="st3" d="M76.3,100.5c-1.1,1.9-2.3,3.9-3.5,5.8c-0.3,0.4,0.1,1.1,0.7,0.9c0.6-0.3,0.8-1,1.2-1.5
						c0.9-1.5,1.8-3.1,2.7-4.6C77.8,100.5,76.7,99.9,76.3,100.5"/>
					<path class="st3" d="M86.1,100.5c-0.1-0.5-0.9-0.6-1.1-0.1c-0.5,1.2-1.2,2.3-1.8,3.4c-0.1,0.2-0.1,0.4,0,0.6
						c0.4,0.5,1,0.1,1.1-0.4c0.5-0.9,1-1.7,1.5-2.6C85.9,101.1,86.2,100.8,86.1,100.5"/>
					<path class="st3" d="M90.4,102.3c-0.7,1.2-1.3,2.3-2.1,3.4c-0.3,0.4,0.1,0.9,0.6,0.8c0.4-0.2,0.5-0.6,0.8-0.9
						c0.6-1,1.3-1.9,1.7-2.9C91.5,102,90.7,101.8,90.4,102.3"/>
					<path class="st3" d="M107.6,92.6c-0.3,0.6-0.9,1.1-0.9,1.7c0.1,0.4,0.7,0.5,0.9,0.1c0.3-0.5,0.7-1,0.9-1.6
						C108.6,92.4,107.8,92.2,107.6,92.6"/>
					<path class="st3" d="M98.9,102.7c-0.7,1.3-1.5,2.6-2.4,3.9c-0.1,0.1-0.1,0.3-0.1,0.5c0.3,0.8,1.3,0.5,1.5-0.2
						c0.7-1.1,1.4-2.2,2-3.4C100.7,102.8,99.6,101.9,98.9,102.7"/>
					<path class="st7" d="M6.9,91.5c-0.2,0.9-0.7,1.8-0.9,2.7c0,0.2,0.1,0.3,0.3,0.3c0.2,0.1,0.5-0.1,0.5-0.3
						c0.3-0.9,0.6-1.7,0.8-2.6C7.9,91.2,7.1,91,6.9,91.5"/>
					<path class="st7" d="M15,83.7c-0.9,2-2.1,4.4-3.1,6.3c-0.1,0.3,0.3,0.5,0.6,0.4c0.2-0.1,0.3-0.3,0.4-0.5
						c0.9-1.9,2.1-4.2,2.8-5.8C16,83.6,15.3,83.2,15,83.7"/>
					<path class="st7" d="M9.8,95.6c-1,1.5-1.8,3.2-2.5,4.8c-0.2,0.5,0.5,0.8,0.9,0.5c0.7-1.4,1.5-3.2,2.6-4.8
						C11.1,95.6,10.2,95.1,9.8,95.6"/>
					<path class="st7" d="M105.8,98.9c-0.5,0.9-1,1.9-1.4,2.8c-0.1,0.4,0.4,0.6,0.7,0.4c0.7-0.9,1.1-2,1.6-3
						C106.8,98.7,106,98.5,105.8,98.9"/>
					<path class="st7" d="M105.1,105.9c-0.6,1.2-1.2,2.4-1.8,3.7c-0.1,0.2,0.1,0.5,0.4,0.5c0.2,0.1,0.5,0,0.6-0.2
						c0.5-0.8,0.9-1.7,1.3-2.6c0.2-0.4,0.6-0.8,0.5-1.3C106,105.6,105.3,105.5,105.1,105.9"/>
					<path class="st7" d="M112.5,93.2c-1,2.2-2.1,4.4-3.1,6.6c-0.2,0.3,0,0.6,0.3,0.7c0.2,0.1,0.5,0,0.6-0.2
						c0.7-1.5,1.4-3.1,2.1-4.6c0.3-0.8,0.9-1.6,1-2.4C113.3,92.9,112.7,92.8,112.5,93.2"/>
					<path class="st7" d="M111.4,104.4c-0.5,1-1,2.1-1.5,3.1c-0.1,0.6-1,1.4-0.4,1.9c0.3,0.3,0.8,0.1,0.9-0.3
						c0.5-1.2,0.8-1.8,1.4-3.1c0.2-0.5,0.6-1,0.6-1.5C112.3,104,111.6,104,111.4,104.4"/>
					<path class="st7" d="M25.4,86.8c-0.2-0.4-0.9-0.3-1,0.1c-0.3,0.8-0.7,1.6-1.2,2.7c0,0.1,0,0.3,0.1,0.4c0.7,0.7,1.1-0.4,1.3-0.9
						C24.8,88.4,25.6,87.4,25.4,86.8"/>
					<path class="st7" d="M25.6,116.6c-0.7,1.6-1.2,3.3-1.8,4.9c-0.1,0.4,0.4,0.8,0.7,0.5c0.9-1.6,1.3-3.5,2.1-5.2
						C26.8,116.2,25.8,116,25.6,116.6"/>
					<path class="st7" d="M34.5,100c-0.3,1.3-0.7,2.5-1.1,3.7c-0.2,0.4-0.4,1.1,0.3,1.2c0.5,0,0.6-0.6,0.7-0.9
						c0.4-1.2,0.9-2.5,1.2-3.7C35.7,99.7,34.7,99.4,34.5,100"/>
					<path class="st7" d="M48.7,107.4c-0.2-0.4-0.9-0.3-1,0.1c-0.5,1.6-1.1,3.1-1.5,4.7c-0.1,0.2,0,0.4,0.2,0.5
						c0.4,0.3,0.9-0.1,0.9-0.5c0.2-0.8,0.5-1.6,0.7-2.3C48.2,109.1,48.9,108,48.7,107.4"/>
					<path class="st7" d="M44.1,92.8c-0.5,1.4-1,2.9-1.6,4.3c-0.1,0.3,0.2,0.7,0.5,0.7c0.2,0,0.5-0.2,0.5-0.4c0.6-1.4,1-2.9,1.6-4.3
						C45.4,92.5,44.3,92.2,44.1,92.8"/>
					<path class="st7" d="M35.7,113.4c-0.6,1.3-1.6,3.5-1.9,4.4c-0.1,0.2-0.1,0.6,0.2,0.7c0.5,0.3,0.8-0.2,0.9-0.6
						c0.4-1,0.8-1.9,1.2-2.9c0.2-0.6,0.5-0.8,0.5-1.5C36.6,113.1,36,113,35.7,113.4"/>
					<path class="st7" d="M94.3,102.4c-0.4,0.9-1.2,2.5-1.7,3.7c-0.1,0.2,0.1,0.5,0.4,0.5c0.2,0.1,0.5,0,0.6-0.2
						c0.6-1.3,1.2-2.5,1.7-3.8C95.5,102.1,94.5,101.8,94.3,102.4"/>
					<path class="st7" d="M11.8,112.9c-0.2-0.4-0.9-0.3-1,0.1c-0.6,1.6-1,3.1-1.6,4.7c-0.2,0.4-0.3,1.1,0.5,1
						c0.3-0.1,0.4-0.4,0.5-0.7c0.5-1.4,0.9-2.9,1.5-4.3C11.7,113.5,11.9,113.2,11.8,112.9"/>
					<path class="st7" d="M24,108.8c-0.5-0.1-0.7,0.3-0.8,0.7c-0.4,1-0.8,2-1.2,3.1c-0.2,0.6,0.9,0.9,1,0.3c0.4-1.1,0.9-2.2,1.3-3.4
						C24.4,109.1,24.2,108.8,24,108.8"/>
					<path class="st7" d="M52.4,99.6c-0.4,0.8-0.7,1.6-1.1,2.4c-0.1,0.2,0,0.4,0.2,0.5c1,0.6,1.2-1.5,1.8-2.4
						C53.8,99.5,52.8,99,52.4,99.6"/>
					<path class="st3" d="M100.9,90.5C101,90.4,101,90.4,100.9,90.5"/>
					<polygon class="st3" points="100.9,90.5 100.9,90.5 100.9,90.5 					"/>
				</g>
				<g>
					<g>
						<path class="st8" d="M117.7,57.3c-0.4-3.9-2.7-7.4-4.9-10.7c-1.1-1.7-2-3.6-3.3-5.2c-1.9-2.1-3.9-4.1-5.7-6.2
							c-5.3-5.4-12.6-8.3-19.2-12c-3-1.5-5.8-3.3-8.9-4.3c-4.1-1.4-8.5-2.1-12.9-2.1c-3.1,0-12.5-2.2-28.8,8
							c-14.7,9.2-16.3,14.4-22.6,22c-0.9,1.1-1.7,2.2-2.5,3.3c-1.8,2.8-3.6,5.7-5.1,8.6c-0.4,1.2-0.8,2.3-1.2,3.5
							c0,0.1-0.1,0.3-0.1,0.4c-1,2.9-1.9,5.9-2.7,8.9c-0.4,3.3-0.5,6.7,0.4,10c0.1,2,1.4,3.7,2.9,4.9c2.5,1.8,6.3,0.6,8.4-1.3
							c3.4-3.2,6.1-6.8,8.4-10.8c0,3,0.9,6,2.9,8.3c2,2,4.3,4.1,7.3,4.7c4.5,0.5,8-4.1,10.6-7.1c2.1-2.5,3.9-5.1,4.8-8.2
							c0.4-1.5,0.9-3,1.3-4.5c0.7,4.9,1.9,9.9,7.4,11.4c6.5,1.4,13.3-2.4,16.1-8c1.8-3.6,1-7.6,1.3-11.4c0-0.2,0-0.4,0.1-0.6
							c1.2,4.6,3.1,9.3,6.4,12.8c3.7,3.6,9.2,6,13.2,1.3c2.2-2.6,2.9-5.9,3.6-9.1c0.9,2.6,2.6,4.9,4.9,6.7c1.4,1.1,2.8,2.4,4.6,3
							c2.6,0.7,5.5,1,8,0.1c1.1-0.6,1.8-1.5,2.6-2.4c1.2-1.4,2.3-3,2.7-4.7C117.9,63.7,117.5,60.3,117.7,57.3"/>
						<g>
							<path class="st3" d="M12,76.2c-0.2-0.5-0.8-0.3-1.1,0.1c-0.1,0.1-0.6,0.5-0.7,0.6c-1.4,0.8-2.4,1.5-3.5,1.4c0,0-0.1,0-0.1,0
								c-0.3-0.1-0.9-0.4-1-0.5c-0.7-0.6-1-1-1-1.2c-0.1-1.9,0.2-3.4,0.6-5.1c0-0.5-0.9-0.6-1-0.1c-0.4,1.1-0.5,2.3-0.6,3.5
								c0,0.8-0.2,1.6,0.2,2.3c0.7,1.2,2,2.2,3.5,2c0.6-0.1,1.2-0.2,1.8-0.5c0.8-0.4,1.7-0.8,2.3-1.4C11.5,76.9,12.2,76.7,12,76.2"
								/>
							<path class="st3" d="M9.2,65.7c-0.2,0-0.5-0.1-0.7-0.1c-2.3-0.7-1.3-4.7,0-7.8c0.2-0.6-0.9-0.9-1-0.3c-0.7,1.4-1,2.9-1.3,4.4
								c-0.2,1.2-0.2,2.5,0.5,3.5c0.6,0.7,1.7,1.4,2.6,1.2C9.8,66.5,9.7,65.9,9.2,65.7"/>
							<path class="st3" d="M29.7,81.3c-0.1,0-0.2,0-0.3-0.1c-0.4-0.2-1.3-1.1-1.9-1.8c-0.6-0.6-1-1.2-1.6-2.2
								c-0.1-0.1-0.2-0.2-0.4-0.3c-0.5-0.2-1,0.4-0.7,0.9c0.6,1.1,3.9,5.7,5.2,4.4C30.3,81.9,30.1,81.4,29.7,81.3"/>
							<path class="st3" d="M18.5,42.5c0.2-0.2,0.5-0.4,0.5-0.8c0-0.5-0.7-0.8-1-0.4c-1,0.9-1.5,2.2-2,3.4c-0.3,0.8-0.4,2.1,0.5,2.5
								c0.7,0.2,1-0.6,0.6-1.1c0,0,0,0,0,0c0-0.1,0-0.1-0.1-0.2C17,45,17.9,43.2,18.5,42.5"/>
							<path class="st3" d="M29.2,30c-1.5,1.1-3.1,2.1-4.1,3.6c-0.3,0.5-0.6,1.2-0.4,1.8c0.2,0.7,1.3,0.8,1.4,0
								c0-0.1-0.1-0.3-0.2-0.4c0-1.2,2.3-2.8,3.9-4C30.5,30.6,29.8,29.6,29.2,30"/>
							<path class="st3" d="M56.9,26c-1.5,0.3-2.3,0.7-3.3,0.3c-0.7-0.1-1.5-2.3-1.3-3.3c0-0.3,0.2-0.4,0.4-0.9
								c0.1-0.5-0.7-0.8-1-0.3c-0.5,0.7-0.6,1.5-0.5,2.3c0.1,1,0.5,2.1,1.3,2.8c1.3,1,3.1,0.5,4.7,0.1C58,26.9,57.7,25.8,56.9,26"/>
							<path class="st3" d="M44.5,25.2c-0.2,0-0.4-0.1-0.9-0.4c-0.1-0.1-0.3-0.3-0.4-0.4c-0.2-0.2-0.4-0.7-0.4-0.6c0,0,0,0,0,0
								c0-0.2,0.1-0.3,0.1-0.5c0-0.6-1.1-0.7-1.2-0.1c-0.7,1.5,2.1,3.8,3.6,3C45.8,25.7,45.1,25.1,44.5,25.2"/>
							<path class="st3" d="M71.2,22.5c-0.7,0-1.3,0.3-1.7,0.2c-1.7,0.1-2.8,0.2-3.1-0.5c-0.3-0.5-0.3-0.9-0.3-1.6
								c-0.2-0.5-1.1-0.4-1.1,0.2c-0.1,1.3,0.6,2.8,2.1,3c1.4,0.1,3,0.1,4.3-0.4C71.8,23.2,71.7,22.6,71.2,22.5"/>
							<path class="st3" d="M87.7,29.9c-0.4,0.1-0.5,0.1-1.2-0.1c-0.3,0-2.1-2-2.3-2.3c-0.2-0.3-0.2-0.7-0.5-0.9
								c-0.4-0.3-1,0.2-0.9,0.6c0.2,0.8,0.8,1.5,1.4,2.2c0.9,1,2.1,2,3.5,1.7c0.4-0.1,1.2-0.1,1.3-0.6
								C89.1,29.5,88.2,29.7,87.7,29.9"/>
						</g>
					</g>
					<g>
						<path class="st3" d="M126.6,67.6c-0.5-1.1-1.5-1.9-2.6-2.3c-0.3-0.1-0.6-0.2-0.9-0.3c0-2.6-0.2-5.2-1.4-7.5
							c-1.4-2.8-4.1-5-7-6.4c-2.8-1.1-6-0.6-8.7,0.4c-0.3,0.1-0.6,0.2-0.9,0.3c0.4-0.5,0.8-1.1,1.1-1.7c0.8-1.1,1-2.4,0.9-3.7
							c0-1.9,0-3.8-0.3-5.7c-0.7-1.9-2.3-3.5-4.1-4.6c-2-0.9-4.3-1.6-6.5-1.9c-2.8,0.2-5.7,1.1-8.1,2.4c-1.7,0.9-3.3,1.8-4.8,3
							c0.1-1,0.3-2.7,0.1-3.8c-0.5-2-1.5-4-3.1-5.4c-3.4-2.4-7.9-4.1-12.3-3c-2.3,0.7-4.5,1.7-6.4,3c-2.4,1.9-4.9,4.5-6.7,6.5
							c0-0.2,0-0.5,0-0.5c0-5.9-6.1-8.4-11.9-6.8c-6.5,1.8-12.6,5.7-15.5,11.4c-0.7,1.3-1,2.9-1.1,4.4c-0.5,0.3-0.9,0.5-1.4,0.8
							c-3.6,2.3-6.3,5.5-8.7,8.8c-2.1,2.4-2.6,5.6-2,8.6c0.3,1,0.6,2.1,1.2,3c0.8,1,2,1.7,3.2,2.2c4.5,1.7,8.7-0.9,12.2-3.6
							c-0.5,1.4-0.8,2.8-1,4.2c-0.2,2.5-0.8,5.6,1.9,7.2c3.6,2.8,9,1.5,12.9-0.1c0.7-0.2,1.7-0.7,2.8-1.2c-0.9,2.3-1.5,4.7-1.7,7.1
							c-0.3,2.1-0.4,4.4,0.7,6.3c0.6,1,1.2,2.2,2.2,2.9c1.7,1.2,3.7,2.3,5.9,2.7c3.1,0.4,6.1-1,8.7-2.3c3.7-1.7,6.4-4.6,8.5-7.8
							c-0.2,1.3-0.3,2.6-0.1,3.9c0.5,4.3,4.1,9,9.4,7.6c1.5-0.5,3-0.8,4.3-1.6c2.2-1.4,3.6-3.5,4.9-5.5c0.3-0.5,0.6-1.1,0.9-1.6
							c-0.1,3.5,0.6,7.2,4.2,8.4c2.6,0.7,5.1-0.6,7-2.2c1.8-1.5,3-3.3,3.8-5.4c0.5,0.4,1,0.7,1.6,1c0.7,0.4,1.5,0.7,2.3,0.9
							c1.7,0.7,3.6,0.8,5.3-0.3c0,0,0.1,0,0.1-0.1c1.7-0.4,3.5-1.2,4.6-2.5c1.4-1.6,1.9-3.7,1.9-5.8c0.7-0.5,1.4-1.1,2.1-1.6
							c2.4-1.7,3.6-4.7,3.8-7.5C127.8,70.5,127.2,69,126.6,67.6"/>
						<g>
							<path class="st8" d="M26.8,53.8c0.4-0.4-0.2-1-0.7-0.7c-1.4,0.8-3,1.6-3.7,3c-0.8,1.2-0.7,4,1.5,4.6c0.4,0.1,0.8-0.4,0.6-0.8
								c-0.2-0.2-0.5-0.3-0.7-0.5c0,0,0,0-0.1-0.1c-1-0.8-0.8-2.7,0.5-3.7C24.8,54.9,25.8,54.5,26.8,53.8"/>
							<path class="st8" d="M40.9,37.3c-1-0.2-1.5-0.3-2.6,0.2c-1,0.3-1.8,1-2.4,1.8c-0.7,1.1-0.9,2.4-0.9,3.7c0,0.3,0,0.6,0.3,0.7
								c0.3,0.1,0.7-0.1,0.7-0.4c-0.2-2.2,0.7-4.3,2.5-4.8c0.9-0.3,0.9-0.4,1.5-0.3c0.3,0,0.7,0.2,1,0.1
								C41.5,38,41.4,37.4,40.9,37.3"/>
							<path class="st8" d="M69.8,47.8c-1.3,0.4-2.4,1.3-3.6,2c-0.6,0.4-1.2,0.9-1.4,1.6c-0.8,2-0.3,4.8,2.4,5.2
								c0.5,0,0.7-0.7,0.4-1c-0.2-0.2-0.7-0.2-1.2-0.6c-0.7-0.4-1-3.1-0.1-3.8c1-0.8,2.6-2,3.9-2.4C70.8,48.6,70.5,47.6,69.8,47.8"
								/>
							<path class="st8" d="M74.3,37.3c-0.3-0.5-1.5-1.2-2.5-1.4c-0.8-0.1-1.5,0.1-2.2,0.4c-1.2,0.5-2.1,1.4-3,2.4
								c-0.2,0.1-0.2,0.4-0.1,0.6c0.1,0.3,0.6,0.4,0.9,0.2c0.8-0.9,1.4-1.6,2.3-2c0.1-0.2,1.6-0.4,1.8-0.4c0.6,0.1,1,0.4,1.7,0.8
								C73.6,38.1,74.5,38,74.3,37.3"/>
							<path class="st8" d="M94.4,41.7c-2.5,0-5.2,0.9-6.3,3.2c-0.3,0.6-0.5,1.3-0.5,2c0,0.3,0.1,0.6,0.4,0.8c0.4,0.2,0.8,0,1-0.4
								c0.1-0.5-0.1-0.3,0-0.8c0-0.6,0.6-1.8,1.5-2.5c0.3-0.3,2.8-1.1,3.6-1C95.1,43.1,95.5,41.8,94.4,41.7"/>
							<path class="st8" d="M79.6,50.3c-1.3,1.7-2.8,4.1-2,6.3c0.2,0.4,0.6,1,1.2,0.8c0.9-0.3,0.3-1.1,0.1-1.2c0,0,0,0,0-0.1
								c-0.1-0.2-0.2-0.4-0.2-0.7c0-1.5,0.8-2.9,2-4.6C81.1,50.2,80,49.6,79.6,50.3"/>
							<path class="st8" d="M99.7,66.3c-0.4-1.8-1.6-3.2-3.8-3.4c-1.2,0-2.3,0.5-3.3,0.9c-0.4,0.2-1,0.4-0.9,0.9
								c0,0.4,0.6,0.6,0.9,0.4c1.9-1,3.8-1.5,4.9-0.3c0.6,0.3,1.1,2.4,1.1,3.1c0,0.6,0.9,0.9,1.2,0.4
								C100.1,67.7,99.7,66.9,99.7,66.3"/>
							<path class="st8" d="M100.1,54.4c-0.9-0.8-2.1-0.8-3.2-0.8c-1,0-2.1,0-3,0.4c-1,0.2-0.8,1.5,0.2,1.1c1.3-0.6,4.5-0.7,5.3,0.2
								c0.3,0.2,0,0.2,0.5,0.4C100.8,55.7,100.8,54.8,100.1,54.4"/>
							<path class="st8" d="M115,57.4c-1.1,0.2-2.1,0.9-3,1.5c-0.8,0.5-1.6,1-2,1.8c-0.6,1.1-0.2,2.5,0.5,3.5
								c0.2,0.3,0.4,0.7,0.8,0.8c0.4,0.1,0.8-0.2,0.8-0.6c-0.1-0.5-0.6-0.8-0.8-1.3c-0.5-0.9-0.6-1.3,0-2.1c0.2-0.3,2.7-2,3.4-2.3
								c0.4-0.1,0.8-0.1,1-0.5C116,57.9,115.5,57.3,115,57.4"/>
							<path class="st8" d="M117,78.2c-1.1-0.8-2.6-0.9-4-0.7c-1,0.3-1.8,1.1-2.5,1.9c-0.5,0.8-1.2,1.6-1.2,2.5c0,0.6,1,0.6,1.1,0.1
								c0.1-1.1,1.4-2.5,2-2.9c0.7-0.6,1.6-0.5,2.1-0.5c1.3,0.1,1.4,0.5,2.3,0.8C117.5,79.3,117.6,78.4,117,78.2"/>
							<path class="st8" d="M121.7,70.1c-0.5-0.6-2.2-1.2-3.5-0.9c-0.9,0.1-1.9,0.3-2.5,0.9c-0.5,0.5,0.3,1.3,0.9,0.9
								c1.4-0.8,3.5-0.8,4.3,0c0.4,0.3,0.8,0.7,1.2,0.9c0.4,0.2,0.9-0.1,0.9-0.5C122.8,70.7,122.1,70.5,121.7,70.1"/>
						</g>
					</g>
					<g>
						<path class="st13" d="M61,64.2c-2.4-0.5-4.9,0.2-7.4,0.1c-2.8,0.1-6-0.3-9.3,0.2c2.4-2.4,5-4.3,7.7-7.3
							c3.5-3.9,7.1-7.7,10.9-11.2c0.9-0.8,1.1-2.1-0.2-2.5c-3.1-1.1-12.9-1.2-13.4-1c-0.6,0.3-10.3,15-15.1,21.4
							c-2.3,2.8-4.9,5.6-6.8,8.8c-0.3,2.6,3.2,0.8,12.4,1.1c0.9,0,2.7-0.1,4.1-0.3c-0.4,0.5-10.5,15.1-15,24.5c0,0.8,0.9,1.3,1.6,1
							c0.9-0.4,1.4-1.2,2-1.9c2.1-2.3,4.6-4.4,6.8-6.6c4.5-4.7,8.8-9.6,13.2-14.3c2.3-2.4,4.8-4.7,7-7.3
							C60.4,67.7,63.1,65.5,61,64.2"/>
						<path class="st6" d="M52.9,66.8c-0.8,0.2-1.5,0.5-2.3,0.6c-0.8,0.1-2.9,0.3-3.7,0.4c-3.2,0.5-6.7,0.6-10.2,1.4
							c-0.6,0.2-1.9,0.6-2.6,0.8c2.7-3.4,5.1-6.1,7.9-9.3c2.3-3,3.8-5.2,6.2-7.9c1.8-2.3,4.1-5,5.7-7.9c0.1-0.5-0.7-0.8-0.9-0.3
							C49.2,50.5,44.7,54.8,41,60c-1.4,1.5-3.1,3.6-4.5,5.3c-1.1,1.2-2.1,2.4-3,3.6c-0.2,0.3-0.7,0.8-1,1.4
							c-0.1,1.4,1.9,0.7,2.7,0.5c1.3-0.4,2.7-0.8,3.7-0.8c2.8-0.3,6.3-0.7,8.6-1c1.2-0.2,2.4-0.2,3.5-0.4c0.8-0.2,1.5-0.5,2.3-0.7
							c-1.9,3.9-5.5,7.9-8.5,11.3c-3.5,3.7-7.3,7.6-9.8,11c-0.1,0.3-1.5,1.5-1.6,2.1c0,0.5,0.7,0.8,1.1,0.4c2-2.3,3.7-4.9,6.2-7.6
							c4-4.4,8.2-8.6,11.6-13.5c1-1.3,1.7-2.8,2.4-4.2C55.2,66.4,53.5,66.6,52.9,66.8"/>
					</g>
					<g>
						<path class="st8" d="M103.6,85.9c-0.7-0.7-1.5-1.5-2.5-1.9c0.6-0.5,1.1-1,1.4-1.7c1.2-3-1.4-5.9-4-7.5
							c-3.1-1.9-6.3-2.5-9.4-1.5c0.2-0.9,0.7-1.9,0.6-2.8c-0.3-1.9-1.5-3.6-3.2-4.8c-2.3-1.8-5-3.7-7.9-1.9c-0.6,0.4-1.1,1-1.5,1.6
							c-2-0.5-4.3-0.3-6.3,0.2c-2.7,0.7-4.3,3.5-4,6.1c0,0.5,0.1,1,0.1,1.6c-0.5-0.2-1-0.3-1.5-0.2c-1.2,0.1-2.3,0.5-3.4,0.8
							c-1.3,0.4-2.6,0.8-3.6,1.6c-1.1,0.9-2,1.9-2.7,3.2c-0.4,0.8-0.9,1.7-0.8,2.6c0.1,0.8,0.2,1.6,0.5,2.3c0,0.1,0.1,0.1,0.1,0.2
							c-0.3,0.1-0.6,0.1-0.9,0.2c-1.5,0.3-2.8,1-3.9,1.9c-0.9,0.9-1.8,1.9-2.2,3.1c-0.4,1.1-0.3,2.4-0.1,3.6c0.3,2.5,2.3,4.5,4.8,5
							c2.5,0.3,5-0.6,7.2-1.7c1-0.6,2.1-1.2,3.1-1.9c0.2,1.6,1.2,3.2,2.6,4.1c2.5,1.6,5.7,0.9,7.8-1c0.9-0.8,1.7-1.6,2.5-2.4
							c0,0.1,0,0.1,0.1,0.2c0.4,1.2,1.1,2.3,2.2,3c1.2,0.8,2.6,1.1,4,1.1c2.3-0.4,4.5-1.5,6.3-3c0.1-0.1,0.6-0.4,1.2-0.9
							c0.2,0.6,0.5,1.1,0.9,1.5c0.2,0.2,0.5,0.7,1.1,1.1c0.8,0.4,1.5,1,2.4,1.2c2.9,0.2,5.7-1.1,7.9-2.7c0.7-0.5,1.2-1.1,1.6-1.9
							c0.6-1.1,1.2-2.2,1.4-3.4C105.8,89,104.9,87.2,103.6,85.9"/>
						<g>
							<path class="st7" d="M56.4,87.5c-1.2,1.2-2.8,3.5-1.6,5.1c0.3,0.4,0.8,0.8,1.3,0.7c0.3-0.1,0.5-0.5,0.3-0.8
								c-0.3-0.3-0.7-0.3-0.7-0.5c0,0-0.1-0.1-0.1-0.1c-0.1-0.1-0.1-0.2-0.2-0.2c0,0,0,0,0,0c0,0,0,0,0,0c0,0,0-0.1,0-0.1
								c-0.1-0.9,0.7-2.2,1.2-2.9c0.2-0.3,0.6-0.4,0.6-0.8C57.3,87.5,56.7,87.2,56.4,87.5"/>
							<path class="st7" d="M67.8,77.7c-1.1,0.7-1.8,1.8-2.4,2.9c-0.3,0.8-0.7,1.9-0.3,2.7c0.5,1,1.8,1.5,2.9,1.4
								c0.4-0.1,0.4-0.7,0.1-0.9c-0.5-0.2-0.5,0-0.8-0.1c-2.3-0.4-1-3,0.6-4.8c0.3-0.4,0.5-0.2,0.8-0.7
								C68.7,77.8,68.2,77.4,67.8,77.7"/>
							<path class="st7" d="M75.4,90.4c-0.7,0-1.2,0.6-1.8,0.9c-1.8,1.2-2.6-0.2-2.6-2.5c0-0.7-1.2-0.7-1.2,0c0,1.2,0.2,2.6,1.2,3.5
								c0.8,0.6,1.9,0.6,2.8,0.1c0.5-0.4,1.7-0.9,2-1.4C75.9,90.8,75.7,90.5,75.4,90.4"/>
							<path class="st7" d="M81.7,69.2c-2.5,0-5.5,1-6.8,3.1c-0.4,1.3,1,2.7,2,3.5c0.3,0.3,0.9,0.2,1.1-0.3c0.1-0.8-0.9-0.9-1.4-1.7
								c0.2,0.3-0.4-0.5-0.5-0.8c0,0,0-0.2-0.1-0.2c0,0,0,0,0,0c0.3-0.9,2.3-2,4.2-2.4c0.2-0.1,1,0,1.7-0.1
								C82.5,70.1,82.3,69.1,81.7,69.2"/>
							<path class="st7" d="M84.5,83.6c-0.2-0.2-0.5-0.2-0.8-0.1c-0.6,0.2-0.6,0.3-1.4,0.5c-2.3,0.5-2.8-1.3-1.5-4.2
								c0.2-0.8-1-1.1-1.3-0.3c-0.5,1.3-1.1,2.8-0.6,4.2c0.9,2.2,3.9,1.8,5.6,0.7C84.7,84.2,84.7,83.8,84.5,83.6"/>
							<path class="st7" d="M89.2,91.4c-0.6,0.6-0.6,0.7-1.3,1.1c-0.8,0.4-0.8,0.4-1.3,0.2c-0.4-0.3-0.5-1-0.7-1.9
								c-0.2-0.8-1.5-0.4-1.2,0.3c0.2,1.2,0.6,2.7,2.1,3c1.3,0.2,2.9-0.9,3.4-2C90.2,91.5,89.6,91.1,89.2,91.4"/>
							<path class="st7" d="M100.9,89.8c-0.2-0.3-0.6-0.3-0.9-0.2c-0.4,0.2-0.4,0.7-0.7,1.1c-0.1,0.1-0.2,0.3-0.3,0.4
								c0,0-0.1,0-0.1,0.1c0,0,0,0-0.1,0c-0.2,0.2-0.9,0.2-1.3,0.1c-0.2,0-0.4-0.1-0.6-0.2c0,0,0,0-0.1,0c-0.6-0.9-1.9-0.2-1.2,0.6
								c1,1.1,3,1.2,4.1,0.3c0.4-0.4,0.4-0.3,0.7-1c0-0.1,0.2-0.4,0.3-0.6C101.1,90.3,101.1,90,100.9,89.8"/>
							<path class="st7" d="M95.9,80c-0.4,0-0.7,0.4-1.1,0.5c-0.6,0.3-0.8,0.4-1.4,0.4c-0.2,0-0.5-0.7-0.9-2.3
								c-0.1-0.3,0-0.6-0.1-1.2c-0.2-0.6-1.2-0.4-1.2,0.2c-0.1,0.9,0.2,1.8,0.5,2.7c0.2,0.6,0.5,1.4,1.2,1.6
								c0.9,0.3,1.9-0.1,2.7-0.5c0.3-0.2,0.8-0.3,1-0.7C96.6,80.4,96.3,80,95.9,80"/>
						</g>
					</g>
				</g>
			</g>
		</g>
	</g>
</g>
</svg>
