<?xml version="1.0" encoding="utf-8"?>
<!-- Generator: Adobe Illustrator 27.0.0, SVG Export Plug-In . SVG Version: 6.00 Build 0)  -->
<svg version="1.1" xmlns="http://www.w3.org/2000/svg" xmlns:xlink="http://www.w3.org/1999/xlink" x="0px" y="0px"
	 viewBox="0 0 83.9 90.2" style="enable-background:new 0 0 83.9 90.2;" xml:space="preserve">
<style type="text/css">
	.st0{fill:#FFFFFF;}
	.st1{fill:#8CA2CF;}
	.st2{clip-path:url(#SVGID_00000103983039768453336270000001083362260188066744_);}
	.st3{fill:#627EB5;}
	.st4{fill:#8CA05C;}
	.st5{fill:#677724;}
	.st6{fill:#E0A955;}
	.st7{fill:#BBD7FF;}
	.st8{fill:#3C5987;}
	.st9{clip-path:url(#SVGID_00000029034406467099095590000018161870743538801818_);}
	.st10{fill:#669CD3;}
	.st11{clip-path:url(#SVGID_00000102503674545189497880000000238059769257048234_);}
	.st12{fill:#92C4FC;}
	.st13{fill:#FAF4D2;}
	.st14{fill:#FCCB7C;}
	.st15{clip-path:url(#SVGID_00000060752347389297325050000006981431320768013468_);}
	.st16{clip-path:url(#SVGID_00000021117024791636929680000001798543372069564838_);}
	.st17{fill:#C5CAF0;}
	.st18{clip-path:url(#SVGID_00000114053849149326689770000011622176480996926901_);}
	.st19{clip-path:url(#SVGID_00000070812117383974322840000001373084604561679795_);}
	.st20{clip-path:url(#SVGID_00000027579806771210546980000016934417670591570564_);}
	.st21{clip-path:url(#SVGID_00000065060002015611948570000012090403862345300883_);}
	.st22{fill:#F9CC3D;}
	.st23{fill:#FFEAAE;}
	.st24{fill:#FFECB8;}
	.st25{fill:#D3AA37;}
	.st26{fill:#FFE08A;}
	.st27{clip-path:url(#SVGID_00000069360635315776437230000013508579213699160761_);}
	.st28{clip-path:url(#SVGID_00000134250632650175045530000010067026805516412330_);}
	.st29{clip-path:url(#SVGID_00000083808896834879947510000016344640077731569044_);}
	.st30{clip-path:url(#SVGID_00000065775480369699826820000006693593141126122397_);}
	.st31{clip-path:url(#SVGID_00000064325136968307084210000016099923255901702559_);}
	.st32{clip-path:url(#SVGID_00000162319534995231668640000011427096231808377013_);}
	.st33{clip-path:url(#SVGID_00000057135698676438633150000010921142609321123716_);}
	.st34{clip-path:url(#SVGID_00000127743190924686223700000012967899258418484111_);}
	.st35{clip-path:url(#SVGID_00000039834464663698441670000007917296817560790195_);}
	.st36{opacity:0.82;}
	.st37{fill:#BCACAA;}
</style>
<g id="BACKGROUND">
</g>
<g id="OBJECTS">
	<g class="st36">
		<path class="st37" d="M80.5,28.5c-0.1,0-0.3,0.1-0.4,0.1c0.5-1.4,1.2-2.9,1.8-4.4c0.4-2.1-2.4-3.1-3.3-1.3c-1,2.1-2.4,4.7-3.1,7.2
			c-4.2,1.4-8.4,2.7-12.2,4.3c-0.1-0.4-0.1-0.9-0.2-1.3c-0.8-2.6-2.3-4.6-4-6.4c1-1,2.1-2,3.1-2.9c0.1,0.1,0.1,0.2,0.2,0.3
			c1.9,1.4,7.6,3.4,8.5-0.1c-0.2-3.6-3-1.7-3.7-2c0,0-0.1,0-0.1,0c-0.9-0.2-1.8-0.6-2-0.7c0.6-0.6,1.3-1.2,1.9-1.7
			c1.5-2.6-1.4-4.4-3.2-2.6c-0.1-1.7,0-3.5,0.1-4.7c-0.1-2-2.9-2.2-3.3-0.2c-0.2,2.4-0.6,5.5-0.1,8.2c-1.3,1.3-2.7,2.6-4,3.9
			c-2-1.8-4.2-3.2-6.6-4.1c-3.1-1.3-6.3-2.6-9.7-2.3c0-2.4,0.1-4.8,0.2-7.3c0,0,0,0,0,0c1.8-0.2,3.3-1.3,4.9-2.2
			c0.8-0.4,1.5-1.2,1.3-2.3c-0.3-2.3-2.6-1.9-3.8-0.8c-1.4,0.7-1.8,1-2.3,1.2c0.1-1.7,0.1-3.5,0.2-5.2c-0.6-1.9-3.4-1.3-3.3,0.7
			c-0.1,0.8-0.1,1.7-0.2,2.5c-0.8-0.9-1.6-2.1-2-3.2c-1.1-2.2-4.3-0.2-3.1,2c1.1,2.2,2.7,4.8,4.8,6.2c-0.2,3.3-0.2,6.5-0.3,9.8
			c-0.2,0.4-0.4,0.8-0.4,1.2c-2.8,1.1-5.4,2.8-7.7,4.9c-1.9-2.9-3.7-5.8-5.5-8.8c0.1-0.1,0.2-0.1,0.3-0.2c0.5-0.8,1-1.8,1.3-2.8
			c0.3-1.5-1.4-2.8-2.6-1.9c-0.5,0.3-0.7,0.8-0.9,1.3c-0.6-1.1-1.2-2.1-1.8-3.1c-1-2.1-4-0.2-2.9,1.9c0.6,1.2,1.3,2.3,2,3.5
			c-2.2,0.8-4,0.9-5.6,1.9c-1.1,1.1-0.3,3.3,1.2,3.3c2-0.4,4.3-0.9,6.3-1.8c1.9,3.2,3.8,6.4,5.8,9.5c-1.3,1.5-2.4,3.1-3.4,4.9
			c-0.6-0.1-1.2-0.3-1.8-0.4c-4.3-1.1-8.6-2.2-13-3.3c-0.5-2.5-1.3-5-2.6-7c-1.3-1.2-3.2,0.7-2.3,2.2c0.5,0.8,1,2.3,1.4,3.9
			c0,0,0,0,0,0c-0.5-0.2-1.1-0.1-1.6,0.2C1,29.3,1.2,32,2.9,32.5c0.7,0.2,1.4,0.3,2,0.5c0,0.3,0,0.5,0,0.6c-0.2,1.5-1.1,2.5-1.9,4.8
			c-1,1.6,0.3,3.9,2,2.9c1.1-1.1,0.6-1.2,1.5-2.8c0.7-1.5,1.5-2.9,1.6-4.6c4.1,1,8.2,2.1,12.2,3.2c-1.1,2.9-1.9,6-2.1,9.1
			c-3.7,1.3-7.3,2.6-10.9,4c-1.7-1.5-3.7-3.1-5.5-3c-1.5,0.4-1.8,2.9-0.4,3.8c0.6,0.4,1,0.7,1.5,1c-0.1,0-0.2,0.1-0.3,0.1
			c-1.5,1.2-0.3,4,1.5,3.4c0.7-0.3,1.5-0.6,2.2-0.8c0.7,0.9,0.6,1.9,0.4,4.1c0,1.4-0.7,0.8-0.5,2.9C6.6,63.3,9,63.6,9.8,62
			c1.1-2.6,1.4-6.2,0.2-8.9c2.7-1,5.4-2,8.1-2.8c0.1,2.5,0.6,5.1,1.4,7.5c0,0,0,0.1,0.1,0.1c-0.8,0.7-1.6,1.4-2.4,2
			c-2.8,2.5-5.6,5-8.4,7.6C7,66.7,5,66.2,3.1,66.4c-2.8-0.1-2.7,4.5,0.1,3.9c0.7-0.2,1.6-0.1,2.6,0.2c-1.1,1.1-2.3,2.1-3.3,3.2
			C2.1,74,2,74.4,2,74.9c0,1.6,1.9,2.5,2.8,1.3c1.4-1.4,2.9-2.7,4.3-4c0.9,0.7,1.6,1.4,1.7,2.1c1.3,2.7,0.6,5.2,2.4,6.4
			c1.5,0.8,3-1.2,2.4-2.7c-0.4-1.8-0.9-3.6-1.6-5.3c-0.5-1.2-1.2-2.2-2.1-3.1c3.1-2.8,6.2-5.6,9.3-8.3c3.2,5.2,9.7,9.5,15.7,8.8
			c0.2,0,0.4,0,0.6,0c0.3,3.6,0.5,6.8,0.5,10.4c-1.9,0.9-3.8,2.2-5.1,3.4c-1.2,1.5,0.7,3.8,2.2,2.7c1-0.8,2-1.5,2.9-2
			c0,0.7,0,1.2,0,1.9c0.6,3.9,5,2.4,4.1-1.5c0-0.6,0-1.1,0-1.7c0.1,0,0.2,0,0.2,0c1,0.5,1.6,2.7,3.1,3.6c1.4,0.5,2.7-1.4,1.9-2.8
			C46.7,83.1,45.9,82,45,81c-0.9-0.9-1.8-1.3-2.9-1.4c-0.1-3.5-0.4-6.6-0.8-9.8c3-0.3,5.6-1.1,10.4-4.2c0.3-0.2,0.6-0.4,1-0.6
			c0.7,0.7,1.3,1.3,2,2c0.9,1,1.8,2.5,2.9,4.3c-1.6,1.1-3,2.4-4,3.9c-0.8,1.9,1.6,3.8,3,2.2c0.9-1,2-2,3.1-2.8
			c0.6,0.9,1.1,1.7,1.7,2.6c0.7,1,1.4,2.3,2.6,2.2c1.9,0.1,2.9-2.7,1.5-4.1c-0.3-0.4-0.8-1.1-1.3-1.9c0.1,0,0.1,0,0.2,0.1
			c0.5,0.3,0.7,0.5,0.8,0.6c0,0,0,0,0,0c0,0,0,0,0,0c0.1,0.1,0.1,0.1,0.2,0.1c0,0,0,0-0.1-0.1c1,1,2,2.1,3.1,1.4
			c3.7-2.5-2.3-6.4-4.7-6.5c-0.7,0-1.4,0.1-2.1,0.3c-1.3-2.1-2.7-4.2-3.9-5.6c-0.5-0.5-0.9-0.9-1.4-1.4c1.8-1.5,3.2-3.2,4.9-6.1
			c0.5-1.2,0.9-2.5,1.2-3.9c2.7,1.1,5.4,2.3,8,3.5c-0.2,1.1-0.3,2.3-0.4,3.4c0,0.9-0.2,1.9,0.5,2.6c1,1.2,3,0.3,2.9-1.3
			c0-1,0.1-2.1,0.2-3.1c1,0.5,1.9,0.9,2.9,1.5c2.7,0.6,3.8-4,1.3-5.1c-0.9-0.5-1.8-1-2.7-1.4c0.1-0.1,0.2-0.2,0.3-0.3
			c1-0.7,2.1-0.3,4.7,0.1c1.8,0.9,3.5-1.6,2.1-3.2c-1.3-1.1-3.2-0.7-4.8-1c-2.2-0.3-4.2,0.9-5.4,2.9c-2.8-1.3-5.7-2.5-8.5-3.6
			c0.4-3,0.5-6,0.3-9c3.7-1.5,7.6-2.7,11.4-3.9c0.2,1,0.6,2,1.5,2.9c1.5,1.3,4.5,3.5,6,1.5c1.4-2.1-0.7-3.5-2.4-3.9
			c-0.6-0.5-1.2-0.5-1.5-1.6c0.8-0.3,1.6-0.5,2.4-0.8C84.8,33,85,27.1,80.5,28.5 M34.9,25.7c0.5-0.2,1-0.4,1.5-0.6
			c0,4.4,0.2,8.7,0.3,13.1c-1.2-1.7-2.3-3.4-3.4-5.1c-0.9-1.4-1.8-2.8-2.7-4.2C32.2,27.4,33.7,26.2,34.9,25.7 M28.3,31.9
			c0.8,1.2,1.5,2.4,2.2,3.6c-1.2-0.5-2.4-1-3.7-1.5C27.3,33.3,27.8,32.6,28.3,31.9 M24.7,38.2c1.5,0.5,3.1,1,4.6,1.5
			c1.2,0.5,3,1.5,5,2.5c-3.3,0.6-7,1.4-11.3,2.5C23.2,42.6,23.8,40.5,24.7,38.2 M22.6,49c3.4-1,6.7-1.8,9.8-2.4c0,0,0,0,0,0
			c-3,2.7-6,5.4-9,8C23,52.8,22.7,51,22.6,49 M34.3,64.8c-4-0.8-7.2-3.3-9.2-6.8c4-3.5,8-7,11.9-10.5c0.2,5.8,0.3,11.5,0.3,17.3
			C36.3,64.8,35.3,64.8,34.3,64.8 M58.8,35.8c-3.5,0.9-7.1,1.7-10.6,2.7c-0.6,0.1-1.1,0.3-1.7,0.4c3-2.7,6-5.6,8.9-8.5
			C57,32.1,58.6,34.3,58.8,35.8 M40,24.1c0.4-0.1,0.8-0.2,1.3-0.3c0.1,0,0.1,0,0.1,0l0.1,0c0.7-0.1,1.5-0.2,2.1-0.4
			c3,0.8,6.6,2.5,9.2,4.4c-4.1,4-8.3,8-12.4,11.9C40.1,34.4,39.9,29.2,40,24.1 M45.3,63.4c-0.2,0.1-0.6,0.3-0.8,0.4
			c-1.2,0.4-2.3,0.6-3.4,0.8c0-4.8-0.1-9.5-0.3-14.2c1.9,2.5,3.7,5,5.3,7.5c0.9,1.2,1.9,2.4,2.9,3.5C47.4,62.3,46,63.1,45.3,63.4
			 M54,57.8c-0.3,0.3-0.7,0.6-1.3,1c-0.5-0.5-1.1-1-1.6-1.5c-2.6-3.4-5.9-7.5-9.1-11.8c0.2,0.1,0.5,0.2,0.7,0.2
			c5.6,1.7,10.6,3.3,15.3,5.1C57.1,54,55.8,56.7,54,57.8 M58.9,45.8c-3.4-1.1-6.9-2.2-10.5-3.3c3.6-1,7.2-1.8,10.8-2.7
			C59.2,41.7,59.1,43.8,58.9,45.8"/>
	</g>
</g>
</svg>
