<?xml version="1.0" encoding="utf-8"?>
<svg version="1.1" xmlns="http://www.w3.org/2000/svg" xmlns:xlink="http://www.w3.org/1999/xlink" x="0px" y="0px" viewBox="0 0 66.5 65.1" style="enable-background:new 0 0 66.5 65.1;" xml:space="preserve"><style type="text/css">.st0{fill:#FFFFFF;}.st1{fill:#8CA2CF;}.st2{clip-path:url(#SVGID_00000049183981940741078210000017155682779472300167_);}.st3{fill:#627EB5;}.st4{fill:#8CA05C;}.st5{fill:#677724;}.st6{fill:#E0A955;}.st7{fill:#BBD7FF;}.st8{fill:#3C5987;}.st9{clip-path:url(#SVGID_00000061448174039913716030000007703163739192559772_);}.st10{fill:#669CD3;}.st11{clip-path:url(#SVGID_00000173141539667313643360000015828426047729998213_);}.st12{fill:#92C4FC;}.st13{fill:#FAF4D2;}.st14{fill:#FCCB7C;}.st15{clip-path:url(#SVGID_00000129887507504713449760000016003907527571612074_);}.st16{clip-path:url(#SVGID_00000038393638078408097540000012240837700847086985_);}.st17{fill:#C5CAF0;}.st18{clip-path:url(#SVGID_00000133530087647548689660000015066741748386976940_);}.st19{clip-path:url(#SVGID_00000096046138348158724260000009471831579850757807_);}.st20{clip-path:url(#SVGID_00000065056442522098856810000008919161800716483975_);}.st21{clip-path:url(#SVGID_00000009560784000412979600000009121588812934159016_);}.st22{fill:#F9CC3D;}.st23{fill:#FFEAAE;}.st24{fill:#FFECB8;}.st25{fill:#D3AA37;}.st26{fill:#FFE08A;}.st27{clip-path:url(#SVGID_00000007387114806523102080000017898558895685476250_);}.st28{clip-path:url(#SVGID_00000156552707345086970890000010552641122593108131_);}.st29{clip-path:url(#SVGID_00000023239552135441430810000008383416957628814998_);}.st30{clip-path:url(#SVGID_00000132800208766959431110000008754619946849160591_);}.st31{clip-path:url(#SVGID_00000076589087649509245910000006880927696959933092_);}.st32{clip-path:url(#SVGID_00000127023366742157443520000003782986986024806557_);}.st33{clip-path:url(#SVGID_00000180326796112376503880000008006194559167634107_);}.st34{clip-path:url(#SVGID_00000112618346325983351820000012258662506617268354_);}.st35{clip-path:url(#SVGID_00000106861161384375536610000003747815481702714012_);}</style><g ></g><g ><g><path class="st17" d="M11.9,35.7c-0.1-0.2-0.4-0.2-0.5,0c-0.2,0.1-0.5,0.3-0.8,0.5c-0.1,0.1-0.7,0-1.2-0.2c-0.2,0-0.2-0.2-0.5-0.1c-0.2,0.2-0.2,0.5-0.4,0.7c-0.4,0.5-1,1.1-1.6,1.3c-0.6,0.2-1.3,0-1.9-0.2c-0.3-0.1-0.4,0.3-0.1,0.4c1.5,0.5,2.8,0.3,3.8-1c0.2-0.2,0.4-0.5,0.5-0.8c0.7,0.3,1.4,0.6,2,0.2c0.2-0.1,0.4-0.2,0.6-0.4C11.8,35.9,11.9,35.8,11.9,35.7"/><path class="st17" d="M8.7,39.8c-0.3-0.1-0.5,0.3-0.8,0.4c-0.4,0.3-1.1,0.5-1.5,0.4c-0.1,0-0.3-0.1-0.3-0.1c-0.1-0.1-0.2-0.2-0.3-0.2c-0.3,0-0.3,0.3-0.5,0.4C5,40.9,4.8,41,4.4,41c-0.3,0-1-0.1-1.2-0.2c-0.1,0-0.2-0.2-0.4-0.2c-0.2,0-0.2,0.3-0.1,0.3c0.8,0.5,2.1,0.6,2.8-0.2c0.1-0.1,0.1-0.1,0.2-0.2c0.3,0.2,1,0.4,1.5,0.2c0.6-0.1,1-0.5,1.5-0.8C8.8,40,8.8,39.8,8.7,39.8"/><path class="st1" d="M64.8,38.4c0-3.9-0.1-7.7-0.7-11.5c-0.1-1.8-0.7-3.4-1.2-5c0-0.1,0-0.1-0.1-0.2c0,0.2,0.1,0.3,0,0c0-0.1-0.1-0.2-0.1-0.2c0,0.1,0,0.1,0.1,0.2c0,0,0,0,0,0c-0.5-1.8-1-3.5-1.9-5.1c-2-3.1-3.8-6.5-6.7-8.8c-2.6-1.8-3-1.7-5.6-3c-0.3-0.2-1.9-1.1-3.6-1.7c-3.1-0.7-6.2-1.6-9.4-1.5c-3.6,0.4-7.2,0.9-10.6,1.9c-2.7,0.9-5.3,2.3-7.9,3.7c-1.6,0.9-2.9,2.2-4.3,3.4C11,11.9,9.4,13.4,7.9,15c-1.9,2.2-2.7,5.2-3,7.9c-0.1,1.3,0.2,2.5,0.5,3.7c1.7,7-4.2,14.5-4.7,16.2c-0.6,2.2-0.9,4.6-0.2,7.6c0.3,1,0.7,2,1.1,2.9c0.6,1,1.4,1.8,2.1,2.7c0.8,1,1.7,1.9,2.6,2.7c0,0,0,0,0,0C7.1,59.6,8,60.2,9,60.7c1,0.7,2.1,1.2,3.3,1.5c2.4,0.9,4,1.2,5.2,1.5c1.1,0.2,2.2,0.1,3.4,0c1.4,0,2.8-0.4,4.3-0.6c2.3-0.3,2.1-0.2,4.6-0.7c0.5-0.1,1-0.2,1.6-0.3c1.3,0.2,2.7,0.5,4,0.7c0.8,0.2,1.7,0.4,2.5,0.4c3.3-0.1,6.7-0.4,9.9-1.7c1.9-0.7,3.6-1.8,5.3-2.9c2.3-1.5,4.5-3.2,6.1-5.4c1.2-1.4,2-3.1,2.9-4.7c0.6-1.3,1.3-2.5,1.7-3.9c0.3-1,0.4-2,0.7-3c0.1-0.3,0.2-0.7,0.2-0.9C64.8,39.8,64.8,39.1,64.8,38.4z"/><path class="st6" d="M21.5,28.6C21.5,28.6,21.5,28.6,21.5,28.6"/><line class="st4" x1="1.3" y1="52.6" x2="1.3" y2="52.6"/><g><defs><path id="_2" d="M63.7,44.4c0.3-1,0.4-2,0.7-3c0.1-0.3,0.2-0.7,0.2-0.9c0.2-0.7,0.1-1.4,0.2-2.1c0-3.9-0.1-7.7-0.7-11.5c-0.1-1.8-0.7-3.4-1.2-5c0-0.1,0-0.1-0.1-0.2c0,0.2,0.1,0.3,0,0c0-0.1-0.1-0.2-0.1-0.2c0,0.1,0,0.1,0.1,0.2c0,0,0,0,0,0c-0.5-1.8-1-3.5-1.9-5.1c-2-3.1-3.8-6.5-6.7-8.8c-2.6-1.8-3-1.7-5.6-3c-0.3-0.2-1.9-1.1-3.6-1.7c-3.1-0.7-6.2-1.6-9.4-1.5c-3.6,0.4-7.2,0.9-10.6,1.9c-2.7,0.9-5.3,2.3-7.9,3.7c-1.6,0.9-2.9,2.2-4.3,3.4C11,11.9,9.4,13.4,7.9,15c-1.9,2.2-2.7,5.2-3,7.9c-0.1,1.3,0.2,2.5,0.5,3.7c1.7,7-4.2,14.5-4.7,16.2c-0.6,2.2-0.9,4.6-0.2,7.6c0.3,1,0.7,2,1.1,2.9c0.6,1,1.4,1.8,2.1,2.7c0.8,1,1.7,1.9,2.6,2.7c0,0,0,0,0,0C7.1,59.6,8,60.2,9,60.7c1,0.7,2.1,1.2,3.3,1.5c2.4,0.9,4,1.2,5.2,1.5c1.1,0.2,2.2,0.1,3.4,0c1.4,0,2.8-0.4,4.3-0.6c2.3-0.3,2.1-0.2,4.6-0.7c0.5-0.1,1-0.2,1.6-0.3c1.3,0.2,2.7,0.5,4,0.7c0.8,0.2,1.7,0.4,2.5,0.4c3.3-0.1,6.7-0.4,9.9-1.7c1.9-0.7,3.6-1.8,5.3-2.9c2.3-1.5,4.5-3.2,6.1-5.4c1.2-1.4,2-3.1,2.9-4.7C62.6,47,63.3,45.8,63.7,44.4"/></defs><clipPath id="_3"><use xlink:href="#_2" style="overflow:visible;"/></clipPath><g style="clip-path:url(#_3);"><path class="st4" d="M62.8,50.3c-1.4,0.3-2.1,0.4-3.2,0.3c-0.7,0-2,0-3-0.1c-2.7-0.6-6-1.9-8.9-3.1c-2.3-0.8-4.5-2-6.9-2.6c-2.6-0.8-5.3-1.1-8-1.7c-2.2-0.5-4.5-0.7-6.8-0.7c-0.3,0-0.6-0.1-1-0.1c-0.2,0-0.4,0-0.6-0.1c-0.2,0-0.4,0-0.6-0.1c-0.9-0.1-1.7-0.2-2.6-0.1c-0.6,0-1.2,0.1-1.8,0.2c-1.1,0.1-2.2,0.2-3.3,0.4c-0.5,0.1-0.9,0.2-1.4,0.3c-0.9,0.1-1.7,0.3-2.6,0.5c-2.8,0.7-6,2.9-6.9,3.4c-0.2,0.1-0.3,0.2-0.5,0.3c-0.9,0.7-2.1,1.4-3,2.2c-0.4,0.2-0.8,0.5-1,0.8c-0.5,0.3-0.6,0.9-0.6,1.4c0.2,0.7,0.3,1.1,0.7,1.9c0.2,0.6,0.5,1,0.7,1.3c0.5,1.1,1.1,1.8,1.8,2.9c0.5,0.8,1.8,2.2,2.8,3c1.8,1.2,3.6,2,5.7,2.8c1.6,0.6,3.3,0.8,4.9,1c0.8,0.1,1.6,0.3,2.4,0.3c0.7,0,1.1-0.1,1.7-0.1c1,0,1.9,0.1,2.9,0.2c1.2,0,2.4,0,3.6-0.1c1.2,0,2.6-0.5,4.1-0.7c1.6-0.2,3.4-0.5,4.8-0.5c2.1,0.3,4.2,0.7,6.4,0.8c2.4,0.1,4.7-0.2,7-0.9c2.2-0.5,4.4-1.3,6.3-2.5c1.9-1.3,3.5-3,4.9-4.9c0.9-1.3,1.8-2.7,2.5-4.1C64,50.7,64,49.9,62.8,50.3"/><g><path class="st5" d="M63.4,51.7c-0.3-0.1-0.6,0.1-0.8,0.2c-0.9,0.4-1.9,1.1-2.5,1.2c-2.1,0.8-4.3,0.7-6.5,0.2c-1.5-0.4-3-1.1-4.5-1.6c-2.3-0.8-4-1.6-6.1-2.5c-4.5-1.1-9.1-1.7-13.7-1.9c-4.5,0.2-9,0.8-13.2,2c-2.6,0.7-5,1.8-7.5,2.8c-2,0.8-3.8,2-5.5,3.2c-0.2,0.2-0.5,0.3-0.7,0.5c0,0-0.1,0.1-0.1,0.2c0,0.2,0.2,0.3,0.4,0.2c1.6-1.1,2.9-2,4.6-2.9c1.6-0.8,3.2-1.3,4.8-2c4.3-1.8,9.6-2.9,14.3-3.2c3-0.3,6.2,0,9.4,0.4c2.5,0.4,4.9,0.7,7.1,1.4c0.9,0.3,1.2,0.6,2.1,0.9c0.9,0.4,1.4,0.6,2.3,0.9c1.6,0.6,3.2,1.2,4.8,1.9c3.1,1,6.2,1.1,8.9-0.1c1-0.4,1.6-1,2.5-1.2C63.8,52.2,63.7,51.8,63.4,51.7"/><path class="st5" d="M63.2,53c-0.4-0.1-0.7,0.3-1,0.5c-0.3,0.2-0.9,0.4-0.9,0.4c-2.8,0.8-5.3,1.3-8.3,0.9c-2-0.3-4-0.8-6.1-1.5c-1.6-0.6-3.3-1-4.9-1.5c-3.5-1.1-7.2-1.5-10.9-1.4c-3.3,0.2-6.5,0.6-9.6,1.5c-2,0.6-3.9,1.4-5.8,2.1c-1.3,0.5-2.5,1.2-3.7,1.8c-1,0.5-2.1,0.8-3,1.5c-1.2,0.8-2.4,1.6-3.4,2.6c-0.1,0.2,0.2,0.5,0.4,0.3c1.3-1.1,2.7-2.2,4-2.9c1.3-0.6,2.6-1.2,3.9-1.8c2.4-1.2,5-2.1,7.3-2.9c4-1.1,8.2-1.6,12.1-1.5c4.5,0,8.2,1.3,12.7,2.6c1.7,0.7,3.4,1.1,5.1,1.5c2.9,0.7,5.5,0.6,8.4,0c0.9-0.1,1.3-0.4,2.1-0.6c0.4-0.1,1.2-0.5,1.7-0.9c0.1,0,0.1-0.1,0.2-0.2C63.5,53.2,63.4,53,63.2,53"/><path class="st5" d="M62,55.1c-0.3-0.1-0.6,0.2-0.9,0.3c-0.6,0.2-1.2,0.5-1.6,0.6c-2,0.8-4.2,0.8-6.8,0.7c-2.9-0.2-5.5-0.8-8.2-1.4c-2-0.4-4-1.1-6.1-1.4c-2.9-0.7-5.9-0.7-8.9-0.5c-2.8,0-6.2,1.2-9.1,2.3c-1.3,0.6-2.6,1.1-3.9,1.7c-2.3,1.3-4.4,2.8-6.2,4.7c-0.1,0.1-0.3,0.2-0.3,0.4c0,0.2,0.2,0.3,0.4,0.2c1.8-1.9,4.1-3.6,6.2-4.8c1.5-0.7,3-1.3,4.6-1.9c1.9-0.7,3.4-1.3,5.3-1.6c2.2-0.5,4-0.5,6.2-0.4c3.5,0,6.6,0.8,9.8,1.7c3,0.7,6.1,1.5,9,1.8c2.6,0.2,5.5,0.4,7.7-0.5c0.5-0.1,1.3-0.5,2-0.8c0.2-0.2,0.7-0.2,0.8-0.5C62.3,55.3,62.2,55.1,62,55.1"/><path class="st5" d="M60.8,57.3c-0.2,0-0.3,0.1-0.5,0.2c-0.5,0.2-1,0.4-1.5,0.5c-1,0.3-1.9,0.3-2.7,0.4c-1.4,0.1-2.3,0.2-3.8,0.2c-1.2-0.1-2.4,0.1-3.6-0.1c-2.6-0.3-4.8-0.8-7.1-1.4c-3.9-0.7-7.9-1.8-11.8-1.2c-3.1,0.5-6.1,1.7-8.9,3.1c-2,1-4,2-5.6,3.5c-0.4,0.4-0.9,0.7-1.1,1.1c0,0.2,0.2,0.3,0.4,0.2c1.8-1.9,3.8-3.1,6.2-4.2c3.4-1.7,7.1-3.2,10.7-3.3c4.5,0,8.4,1.2,12.5,2c2.1,0.4,4.3,1,6.5,0.9c2.3,0,4.3,0,6.3-0.2c0.7,0,2.1-0.2,3.1-0.6c0.1,0,0.5-0.1,0.6-0.2c0.3-0.1,0.6-0.2,0.7-0.5C61.2,57.6,61,57.3,60.8,57.3"/></g><path class="st5" d="M64.8,47.3c-0.7,0.2-0.9,0.2-1.5,0.2c-2.8,0.6-5.4,0.4-8.4,0.4c-1.9-0.2-4-0.6-5.5-1c-1.2-0.4-2.3-0.9-3.7-1.4c-2-0.8-4-1.4-6-2.1c-1-0.4-1.6-0.7-2.7-1.1c-3.1-0.8-6.3-1.4-9.5-1.8c-1.6-0.2-3.2-0.6-4.9-0.6c-1.3-0.1-3,0.1-4,0.1c-4.2-0.1-8.4,0.9-12,3c-1.7,1.1-3.3,1.7-4.8,3c-0.8,0.7-1.4,1.5-2.1,2.3c-0.1,0-0.1,0.1-0.1,0.1c-0.1,0-0.1,0.1-0.2,0.1c-0.1,0.3-0.1,0.6-0.2,0.8c0,0.6,0.2,1.3,0.4,1.9c0,0.2,0.2,1,0.5,1.5c0.2,0.5,0.5,1.1,1,1.4c0.2,0.1,0.5,0.1,0.6-0.1c0,0,0,0,0,0c0,0,0,0,0.1,0c0.5-0.6,1.2-1.4,1.8-2c1-0.8,2.1-1.4,3.4-2.2c3-1.9,6-2.7,9.6-3.6c2.6-0.7,6-1.5,8.4-1.7c3.2,0,6.4-0.1,9.5,0.6c2.8,0.5,6.1,1.5,9.1,2.4c1,0.3,2.1,0.7,3.1,1.1c1.2,0.4,2.4,0.7,3.6,1c1.8,0.7,3.6,1,5.5,1.1c0.6,0,1.2,0.2,1.8,0.3c0.6,0,1.2,0,1.8,0c1.4,0,2.9-0.1,4.2-0.7c0.5-0.3,1.2-0.4,1.6-0.8c0.1-0.2,0.1-0.5,0.2-0.7c0.2-0.4,0.4-0.9,0.4-1.3C65.6,46.8,65.1,47.2,64.8,47.3"/><g><path class="st6" d="M57.7,60.2c-0.5,0-0.9,0.3-1.5,0.3c-1,0.3-2.3,0.7-3.2,0.7c-2.2,0.1-3.7,0.3-6.1-0.1c-1.7-0.4-4.2-1.4-6.1-1.9c-3.1-0.8-5.9-1.3-9.2-1.4c-1.6,0.1-3.1,0.4-4.6,0.7c-0.1,0-0.2,0.1-0.3,0.1c-0.1,0-0.2,0-0.3,0.1c-1.9,0.5-4.1,1.2-5.7,2.3c-0.8,0.4-1.9,1.1-2.9,1.9c-0.8,0.5-2.2,1.7-1.2,2c0.7-0.1,0.8,0.1,1.8,0.2c1.3,0,2.6,0.2,3.9,0.2c0.7,0.1,1.5-0.1,2-0.1c0.7,0,1.3,0.1,1.9,0.1c0.8,0,1.6-0.1,2.4-0.1c2.1,0,4.2,0.2,6.3,0.1c3.1,0.3,6.6,0.8,9.4,0.6c1,0,2,0.1,3,0c1-0.2,2-0.4,3-0.7c2-0.5,3.7-0.8,5.3-2.2C56.3,62.6,58.7,60.6,57.7,60.2"/><g><path class="st14" d="M20.9,62.8c-0.1-0.1-0.2-0.1-0.3-0.1c-0.5,0.2-1,0.4-1.4,0.7c-0.2,0.2,0.1,0.4,0.3,0.3c0.5-0.3,1-0.4,1.4-0.7C21,63,20.9,62.9,20.9,62.8"/><path class="st14" d="M28.7,59.6c-0.4,0.1-1.4,0.1-1.9,0.3c-0.8,0.3-1.7,0.7-2.5,1.1c-0.2,0.2,0.1,0.4,0.3,0.3c0.9-0.4,1.9-0.9,2.7-1.1c0.6-0.1,1.1-0.1,1.7-0.3C29.2,59.9,28.9,59.5,28.7,59.6"/><path class="st14" d="M26.9,62.1c-0.1,0-0.3,0-0.4,0.1c-0.7,0.3-1.5,0.5-2.1,0.9c-0.2,0.2,0.1,0.4,0.3,0.3c0.7-0.3,1.6-0.7,2.2-0.8C27,62.5,27.1,62.2,26.9,62.1"/><path class="st14" d="M31.6,61.2c-0.6,0.1-1.2,0.1-1.7,0.2c-0.2,0-0.4,0-0.5,0.1c-0.1,0.2,0,0.4,0.3,0.4c0.7-0.1,1.3-0.1,2-0.2c0.1,0,0.2,0,0.2-0.1C32,61.4,31.8,61.1,31.6,61.2"/><path class="st14" d="M35.5,59.5c-0.1-0.2-0.3-0.2-0.5-0.2c-0.9-0.1-1.7-0.1-2.6-0.1c-0.3,0.1-0.2,0.5,0.1,0.5c0.9,0,2-0.1,2.7,0.1C35.4,59.9,35.6,59.7,35.5,59.5"/><path class="st14" d="M32,63.4c-0.2-0.2-0.4-0.1-0.6-0.1c-0.6,0.1-1.2,0-1.8,0.2c-0.2,0.1-0.1,0.5,0.2,0.5c0.7-0.1,1.4-0.1,2-0.2C32,63.9,32.2,63.6,32,63.4"/><path class="st14" d="M38,63.6c-0.3-0.2-0.6-0.1-0.9-0.2c-0.6,0-1.2-0.2-1.8-0.2c-0.3,0.1-0.2,0.5,0.1,0.5c0.8,0.1,1.7,0.2,2.5,0.2C38,64,38.1,63.7,38,63.6"/><path class="st14" d="M36.8,61.7c-0.5,0-1.1-0.1-1.6-0.1c-0.4-0.1-0.5,0.5-0.1,0.5c0.7,0,1.4,0.1,2.1,0.1c0.1,0,0.3-0.1,0.3-0.2C37.5,61.6,37.1,61.7,36.8,61.7"/><path class="st14" d="M41.9,60.4c-0.5-0.1-1-0.2-1.6-0.4c-0.3,0-0.6-0.2-0.8-0.1c-0.2,0.1-0.2,0.4,0,0.5c0.7,0.2,1.5,0.4,2.3,0.5c0.1,0,0.3,0,0.3-0.2C42.2,60.6,42.1,60.5,41.9,60.4"/><path class="st14" d="M43.3,62.6c-0.5-0.1-1-0.2-1.5-0.2c-0.3,0-0.6-0.2-0.8,0c-0.2,0.1-0.1,0.4,0.2,0.4c0.7,0.1,1.4,0.2,2.1,0.3c0.1,0,0.1,0,0.2-0.1C43.6,62.9,43.5,62.6,43.3,62.6"/><path class="st14" d="M44,64.5c-0.3-0.2-0.7,0-1-0.1c-0.8,0-1.6,0-2.4,0.1c-0.3,0.1-0.2,0.5,0.1,0.5c0.9-0.1,1.9-0.1,3-0.1C44,64.9,44.1,64.6,44,64.5"/><path class="st14" d="M47,62.3c0-0.1-0.1-0.2-0.2-0.2c-0.6-0.1-1.3-0.2-1.9-0.3c-0.4,0-0.4,0.5,0,0.5c0.6,0.1,1.3,0.2,1.9,0.2C46.9,62.6,47.1,62.4,47,62.3"/><path class="st14" d="M49.2,63.9c-0.2-0.4-0.8-0.1-1.1-0.2c-0.6,0-1.2,0-1.8,0.1c-0.1,0-0.2,0.1-0.2,0.2c0,0.2,0.1,0.3,0.3,0.3c0.6,0,1.6-0.1,2.5-0.1C48.9,64.2,49.2,64.2,49.2,63.9"/><path class="st14" d="M52.8,62.4c-0.1-0.1-0.2-0.1-0.3-0.1c-0.7,0-1.3,0-2,0.1c-0.4,0-0.4,0.5,0,0.6c0.4,0,0.9,0,1.3-0.1c-0.1,0,0.7,0,0.9,0C52.9,62.8,52.9,62.5,52.8,62.4"/><path class="st14" d="M56.3,61.1c-0.7,0.4-1.4,0.7-2.1,1.1c-0.2,0.1-0.2,0.4,0,0.4c0.3,0,0.6-0.2,0.9-0.3c0.5-0.3,1-0.5,1.5-0.8C56.8,61.3,56.6,61,56.3,61.1"/></g></g></g></g><g><g><path class="st1" d="M62.8,21.7C62.8,21.7,62.8,21.7,62.8,21.7C62.8,21.6,62.8,21.7,62.8,21.7C62.8,21.7,62.8,21.7,62.8,21.7"/><path class="st17" d="M57.8,15.2c-0.4-0.1-1.1,0.2-1.4,0.1c-0.8-0.1-1.5-0.1-1.8-0.5c-0.2-0.2-0.2-0.7-0.4-0.9c-0.2-0.2-0.6,0.1-0.8,0.2c-0.5,0.2-0.9,0.1-1.4-0.3c-0.2-0.1-0.4-0.3-0.4-0.4c-0.1-0.4-0.1-1,0-1.4c0-0.1,0.1-0.3,0.1-0.4c-0.1-0.2-0.3-0.1-0.4,0c-0.1,0.3-0.2,0.6-0.1,1c0,0.4,0,0.8,0.2,1.1c0.3,0.4,0.8,0.6,1.3,0.8c0.5,0.1,0.9,0,1.3-0.2c0.1,0.4,0.3,0.9,0.7,1.1c0.8,0.3,1.7,0.4,2.6,0.2C57.5,15.7,58.2,15.6,57.8,15.2"/><path class="st17" d="M62.3,22.8c-1-0.2-1.8-0.2-1.9-1c0,0,0,0,0,0c0,0,0,0,0-0.1c0-0.3,0.2-0.6,0-0.8c-0.2-0.1-0.4,0-0.6-0.1c-0.2,0-0.5-0.1-0.6-0.4C59,20,59,19.5,59.1,19c-0.1-0.2-0.4-0.2-0.4,0.1c-0.1,0.6,0,1.3,0.4,1.7c0.3,0.3,0.6,0.4,1,0.4c0,0,0,0,0,0c-0.2,0.6,0.1,1.4,0.7,1.6c0.4,0.2,0.9,0.3,1.4,0.3c0.1,0,0.2,0,0.2-0.1C62.4,23,62.4,22.9,62.3,22.8"/><path class="st17" d="M46.5,40.5c-0.1,0-0.2,0-0.3,0.1c-0.4,0.3-0.5,0.4-0.9,0.6c-0.6,0.3-1.9-0.2-2.4-0.9c-0.3-0.5-0.8,0.3-1.1,0.4c-0.6,0.3-1.3,0.5-1.8,0.5c-0.4-0.1-0.6-0.4-0.9-0.7c-0.2-0.2-0.4-0.4-0.5-0.7c-0.1-0.2-0.5-0.1-0.3,0.2c0.1,0.4,0.4,0.6,0.7,0.9c0.2,0.2,0.5,0.5,0.8,0.6c0.4,0.1,0.7,0,1.1,0c0.6-0.2,1.2-0.3,1.6-0.7c0,0,0.1-0.1,0.2-0.1c0.5,0.8,1.5,1.2,2.4,1.1c0.6-0.1,1-0.5,1.5-0.8c0,0,0,0,0,0l0,0c0.1,0,0.1-0.1,0.1-0.1C46.7,40.7,46.7,40.6,46.5,40.5"/><path class="st17" d="M55.6,44.5c-0.7,0.2-1.6,0.5-1.9,0.3c-0.6-0.2-1.1-0.7-1.2-1.3c-0.1-0.3-0.4-0.1-0.5,0.1c-0.2,0.2-0.4,0.3-0.6,0.4c-0.5,0.3-1.7,0.4-2,0.2c-0.6-0.3-0.9-0.6-1.3-1c-0.2-0.1-0.4,0.2-0.3,0.3c0.5,0.6,1.2,1.2,2,1.2c0.7,0,1.4-0.1,2-0.5c0.1-0.1,0.3-0.2,0.4-0.3c0.1,0.1,0.1,0.3,0.2,0.4c0.4,0.5,0.9,0.9,1.5,1c0.5,0,1-0.1,1.5-0.3c0.2-0.1,0.4,0,0.5-0.2C56,44.7,55.8,44.5,55.6,44.5"/><path class="st17" d="M56.2,41.1c-0.8,0.4-1.5,0.1-2.2-0.6c0,0-0.1-0.3-0.3-0.2c-0.1,0-0.4,0.3-0.6,0.4c-0.1,0.1-0.3,0.2-0.4,0.2c0,0,0,0-0.1,0c0,0-0.1,0-0.1,0c-0.5-0.1-0.9-0.5-1.2-0.8c0,0-0.1-0.3-0.2-0.3c-0.2-0.1-0.4,0.1-0.3,0.3c0.4,0.6,1,1.1,1.8,1.3c0.4,0,0.8-0.2,1.1-0.5c0.5,0.6,1.4,1.1,2.2,0.9c0.2-0.1,0.6-0.1,0.7-0.4C56.8,41,56.4,40.9,56.2,41.1"/><path class="st17" d="M62.5,43.9c-0.1-0.1-0.3,0-0.5,0c-0.2,0-0.3,0-0.3,0c0,0,0,0,0,0c0,0-0.1-0.1-0.1-0.1c-0.2-0.2-0.4-0.1-0.6,0c-0.1,0.1-0.5,0.2-0.6,0.3c-0.3,0.2-0.9-0.6-1-1.1c0-0.4-0.6-0.5-0.5,0c0.2,0.7,0.7,1.7,1.5,1.7c0.4-0.1,0.7-0.3,1-0.4c0,0,0,0,0,0c0,0,0.1,0.1,0.1,0.1c0.3,0.1,0.6,0,1,0C62.6,44.3,62.7,44,62.5,43.9"/><path class="st17" d="M45.1,6.2c-0.2-0.1-0.4,0.2-0.5,0.4C44.4,7,44,7.4,43.8,7.4c-0.4,0-0.8-0.2-1.1-0.4c-0.1-0.1-0.2-0.2-0.3-0.2c-0.2,0-0.2,0.3-0.2,0.3c-0.1,0.2-0.4,0.5-0.7,0.6c-0.3,0.1-0.9,0-1.3-0.4C40.2,7.3,40.2,7,40,7c-0.2-0.1-0.3,0.1-0.2,0.3c0.3,0.6,1.1,1,1.8,0.8C42,8,42.3,7.6,42.5,7.3c0.4,0.3,1,0.5,1.5,0.5c0.5-0.2,0.8-0.6,1-1C45.2,6.6,45.4,6.4,45.1,6.2"/></g><g><path class="st17" d="M11,36.9c-0.8,0.5-3.2,2.1-3.3,0.2c0-0.1-0.2-0.2-0.2,0c-0.4,1.3-1.6,2.3-3,2c-0.1,0-0.1,0.1,0,0.1c0.9,0.2,1.8-0.1,2.4-0.7c0.2-0.2,0.3-0.3,0.5-0.5c0.1-0.1,0.1-0.2,0.2-0.3c0,0,0,0,0,0c0,0.1,0.1,0.2,0.2,0.3c0.8,0.8,3-0.1,3.6-0.9C11.3,37,11.1,36.9,11,36.9z"/><path class="st17" d="M5,41.6c-0.3,0.7-1.2,0.6-1.6,0.2c-0.1-0.1-0.2,0-0.2,0.1c0,0.6-0.1,2-1,1.6c-0.1,0-0.2,0.1-0.1,0.1c0.9,0.6,1.3-0.6,1.4-1.4c0.6,0.4,1.5,0.3,1.8-0.4C5.3,41.5,5,41.4,5,41.6z"/><path class="st17" d="M17.2,38.4c-0.7,0.4-1.7,0.8-2.2,0c-0.1-0.1-0.2-0.1-0.2,0c-0.3,0.6-1.2,1.2-1.9,0.4c-0.1-0.1-0.2,0-0.2,0.1c0.3,0.4,0.5,0.5,1,0.5c0.2,0,1.3-0.5,1.2-0.7c0.5,0.9,1.9,0.3,2.5-0.1C17.5,38.6,17.3,38.3,17.2,38.4z"/></g></g><g><path class="st7" d="M37,12.9c-0.3-0.6-0.6-1.2-1.1-1.7c0.3-0.2,0.6-0.5,0.8-0.9c1.3-1.9,0.3-3.8-1-4.8c-0.7-0.5-1.2-0.6-2.1-0.9c-1.1-0.3-2.5,0-3.6,0.8c-0.2,0.1-0.3,0.2-0.4,0.2c0-0.1,0-0.1,0-0.2c-0.3-0.7-0.8-1-1.4-1.3c-0.8-0.4-1.8-0.7-2.8-0.6C24,3.6,22.9,5,22.4,6.4c0,0,0,0,0,0c-0.5-0.5-1.2-0.7-1.8-0.9C19.7,5.3,18.9,5,17.9,5c-1.8-0.1-4.7,0.5-5.6,2.9c-0.1,0.2-0.1,0.3-0.1,0.5c-0.1-0.1-0.2-0.1-0.4-0.1c-1.4-0.5-2.5-0.4-4-0.4c-1.7,0-3.6,0.3-5.2,1.5c-2.4,1.8-3.8,4.6-1.4,6.3c1.8,1.1,4.2,0.9,6.4,0.4c0.4-0.1,0.7-0.3,1.1-0.4c-0.2,1.5,0.6,3.1,1.6,3.5c1.6,0.6,3.7-0.4,5.4-1c-0.1,0.4-0.2,0.8-0.1,1.2c0.1,0.9,0.5,1.8,1.1,2.3c1.3,0.8,3.3,0.1,4.8-0.7c0.5-0.3,1-0.7,1.3-1.2c0.1,1.1,0.9,1.8,2.2,1.7c1.8,0,4.2,0,5.5-2c0.4-0.7,0.6-1.5,0.6-2.1c0.2,0.1,0.5,0.2,0.7,0.2c1,0.1,2.2,0,3.2-0.6c0.7-0.4,1.3-1.1,1.8-1.7C37.4,14.4,37.3,13.5,37,12.9"/><g><path class="st3" d="M5.2,13c-0.4,0.1-1.3-0.2-1.3-0.3c-0.3-0.4,0.2-1,0.6-1.1c0.7-0.3,1.3-0.6,1.9-0.7c0.3-0.1,0.3-0.6,0-0.6c-0.6,0.1-1.2,0.4-1.8,0.6c-0.3,0.2-0.7,0.3-0.9,0.6c-0.4,0.5-0.5,1.3-0.1,1.7c0.3,0.3,0.8,0.3,1.2,0.4c0.2,0,0.5,0.1,0.7-0.1C5.7,13.2,5.5,12.9,5.2,13"/><path class="st3" d="M19.8,7.3c-0.7-0.2-1.5-0.1-2.3,0c-0.6,0.1-1.1,0.2-1.6,0.6c-0.5,0.3-0.6,1-0.4,1.4c0.2,0.4,0.7,0.6,1.1,0.7c0.1,0,0.6,0.3,0.9,0.3c0.4-0.1,0.4-0.6,0.1-0.7C16.2,9.3,15.1,8.6,17,8c0.6-0.1,1.8-0.2,2.5,0C19.9,8,20.2,7.4,19.8,7.3"/><path class="st3" d="M13.4,15.8c-0.1-0.1-0.3-0.1-0.5-0.1c0,0-0.2,0-0.2,0c-1.3,0-1.3-0.9-0.5-1.4c0.7-0.4,1.5-0.6,2.4-0.7c0.4,0,0.5-0.7,0.1-0.6c-1,0.1-2.3,0.3-3.2,1.2c-1.1,1.4,0.1,2.3,1.3,2.2c0.2,0,0.3,0,0.5-0.1C13.4,16.3,13.5,16,13.4,15.8"/><path class="st3" d="M22.8,17.3c-0.8,0-2.3,0.3-2.6,0.3c-0.4-0.1-0.4-0.1-0.3-0.7c0.1-0.4,0.2-0.7,0.6-1.1c0.7-0.6,1.8-1.3,2.7-1.5c0.4-0.1,0.3-0.7-0.1-0.6c-0.9,0.3-1.7,0.8-2.5,1.3c-0.7,0.5-1.2,1.3-1.3,2.2C19.2,18.9,21,18,22,18c0.4-0.1,0.8,0.1,1.1-0.2C23.3,17.6,23.1,17.2,22.8,17.3"/><path class="st3" d="M28.4,8.3c-0.5-0.5-1.2-0.8-2-1c-0.5-0.1-1-0.2-1.6,0.1c-1.4,0.8-0.8,2.2,0.2,2.6c0.3,0.1,0.5,0.5,0.8,0.4c0.5-0.2,0.2-0.6-0.1-0.7c-0.6-0.4-1.1-0.7-1.2-1.2c0-0.3,0.3-0.7,0.9-0.7c0.8,0,1.8,0.4,2.6,1C28.4,9,28.7,8.4,28.4,8.3"/><path class="st3" d="M32,13.5c-0.6,0-1,0-1.3-0.3c-0.8-0.9,0.4-1.2,1.7-2c0.3-0.1,0.4-0.2,0.8-0.3c0.1,0,0.3-0.1,0.3-0.2c0.1-0.2,0-0.5-0.2-0.4c-0.9,0.3-1.7,0.8-2.5,1.3c-0.4,0.2-0.9,0.6-0.9,1.1c0,0.9,0.8,1.4,1.7,1.4C31.9,14.2,32.2,13.8,32,13.5"/><path class="st3" d="M27.8,19.1c-0.4,0-0.6,0.1-0.7,0c-0.2,0,0.1-0.7,0.6-1.2c0.1-0.2,0.4-0.3,0.4-0.5c0-0.3-0.2-0.4-0.4-0.2c-1.1,1-1.9,2.9,0,2.5C28.1,19.6,28.2,19,27.8,19.1"/><path class="st3" d="M34.5,6.8c-0.6-0.3-1.3-0.4-2-0.4c-0.4,0-0.8,0.1-1.1,0.5c-0.2,0.3-0.4,0.7-0.3,0.9c0.1,0.3,0.6,0,0.6-0.3c0,0,0-0.1,0-0.1c0,0,0,0,0,0c0-0.1,0.1-0.1,0.1-0.2c0,0,0,0,0.1-0.1c0.3-0.2,1.5-0.1,1.9,0.1c0.2,0.1,0.3,0.2,0.5,0.1C34.6,7.3,34.7,6.9,34.5,6.8"/></g></g><g><path class="st17" d="M64.4,30.3c-0.2-1.4-1-2.3-1.8-3.1c-1.5-1.6-2.7-2.8-4.4-4.1c-1.7-1.4-4.3-1.9-5.2-3.2c0-0.3-0.2-1.6-0.3-2.3c0-1-0.2-2.1-0.7-2.9c-0.5-0.8-1.2-1.1-1.9-1.4c-1-0.4-2-0.7-3-0.5c-1.1,0-2.1,0.2-2.1-0.3c-0.1-0.4-0.2-1.9-0.7-2.7c-1.2-2-3.6-4-5.4-1.6c-0.2,0.2-0.5,0.5-0.7,0.9C37.3,9,36,8.6,34.9,8.7c-1.3,0.7-3,1.9-3.6,3.3c-0.3,0.6-0.8,1.8-1,2.3c-0.4-0.3-0.8-0.4-1.2-0.6c-0.5-0.2-1-0.4-1.6-0.4c-2.3-0.1-4.6,1.5-6.1,3.9c-0.3,0.4-0.8,1.6-0.8,1.8c0,0,0,0,0,0c-0.1,0-0.1,0-0.2,0c-0.1,0-0.6-0.1-0.7-0.1c-3-1-6.2,1.5-8.6,4.1c-2.3,3.2-2.9,8.1-0.2,10.7c1.1,1.2,2.6,1.7,3.9,2.4c2.7,1.3,5.8,1.3,8.8,1.3c2.3,0.1,5.1,0.3,7.7,0c2.4-0.4,4.8-0.5,6.9-0.3c2,0.2,3.5,0.1,5.5,0.3c1.9,0,3.3-0.1,5.2,0.3c2.1,0.4,4.7,1.1,6.5,1.3c3,0.2,7.7-0.8,9-5.3C64.8,32.6,64.6,31.4,64.4,30.3"/><g><path class="st0" d="M13.8,26.1c-0.2,0-1.3,0.1-1.7,0.8c-0.3,0.5-0.4,1-0.5,1.6c0,0.2-0.1,0.5,0,0.8c0.1,0.2,0.4,0.1,0.4-0.2c0-0.7,0.2-1.6,0.5-2c0.2-0.3,0.7-0.4,1-0.4c0.1,0,0.3,0.1,0.4,0C14.2,26.5,14.1,26.1,13.8,26.1"/><path class="st0" d="M23.5,20.5c-0.6-0.1-1.2-0.2-1.7,0.2c-0.5,0.6-0.9,1.3-1.2,2c0,0.1,0,0.2,0.1,0.3c0.1,0.1,0.3,0.1,0.4-0.1c0.4-0.8,1-2,1.5-1.9c0.3-0.1,0.7,0.1,1,0C23.6,20.8,23.6,20.6,23.5,20.5"/><path class="st0" d="M28.8,16.2c-0.3-0.1-0.5-0.3-0.8-0.2c-0.7,0.1-1.3,0.5-1.9,1.1C26,17.1,26,17.2,26,17.3c0,0.2,0.2,0.2,0.4,0.1c0.5-0.5,1.3-1,1.8-0.9c0.1,0,0.2,0.1,0.3,0.1c0.2,0.1,0.3,0.3,0.5,0.2C29.3,16.5,29,16.2,28.8,16.2"/><path class="st0" d="M20.4,32.6c-0.1-0.1-0.3,0-0.4-0.1c-1.3-0.5-1.2-1.8-0.1-3.1c0.1-0.1,0.3-0.2,0.3-0.4c0-0.2-0.2-0.4-0.4-0.2c-0.7,0.7-1.5,1.8-1.2,3c0.2,0.8,1,1.5,1.8,1.4C20.6,33,20.6,32.7,20.4,32.6"/><path class="st0" d="M29,24.1c-0.5,0-1,0.3-1.5,0.5c-0.3,0.1-0.6,0.3-0.8,0.6c-0.6,1.2-0.4,2.6,0.6,3.2c0.1,0.1,0.3,0.2,0.5,0.2c0.2,0,0.3-0.3,0.2-0.4C27.9,28,27.7,28,27.6,28c0,0,0,0-0.1,0c0,0,0,0-0.1,0c-0.8-0.5-0.7-1.8-0.4-2.4c0.4-0.4,1.3-0.8,1.6-0.8c0.1,0,0.3,0,0.4-0.1C29.3,24.4,29.2,24.1,29,24.1"/><path class="st0" d="M37,17.1c-0.8-0.9-2.3-1-3.1,0.1c-0.2,0.4-0.4,0.8-0.5,1.2c-0.1,0.3-0.3,0.6-0.2,0.9c0.1,0.2,0.4,0.2,0.4,0c0.4-1.5,0.8-2.4,1.8-2.4c0.5,0,0.5,0.1,1,0.4c0.1,0.1,0.2,0.2,0.4,0.2C37,17.5,37.1,17.3,37,17.1"/><path class="st0" d="M43.5,13.3c-0.3-0.7-0.9-1.2-1.6-1.2c-0.5,0-1,0.2-1.5,0.5c-0.1,0.1-0.3,0.2-0.4,0.4c-0.1,0.2,0.2,0.5,0.3,0.4c0.6-0.4,1.7-0.7,2-0.5c0.4,0.2,0.5,0.4,0.8,0.8C43.3,13.7,43.6,13.5,43.5,13.3"/><path class="st0" d="M37,31.9c-0.7-0.1-1.7-0.5-1.9-1c-0.2-0.4,0-1.4,0.3-1.7c0.6-0.6,1.3-0.9,2-1.2c0.2-0.2,0.1-0.6-0.2-0.5c-0.9,0.3-2,0.7-2.5,1.8c-0.7,1.9,0.4,2.9,1.9,3.1c0.2,0,0.5,0.2,0.6,0C37.6,32.2,37.3,31.9,37,31.9"/><path class="st0" d="M26.1,34.5c-0.1-0.1-0.4-0.1-0.5-0.1c-0.1,0-0.3-0.1-0.3-0.1c0,0,0,0,0,0c0,0,0,0,0,0c0,0,0-0.1,0-0.1c-0.1-0.4,0-0.7,0.1-1.1c0.1,0,0.1-0.1,0.1-0.2c0-0.1,0.1-0.1,0.1-0.2c0.1-0.2,0.3-0.3,0.2-0.6c0-0.3-0.4-0.4-0.5-0.1c-0.5,0.8-1.1,2.6,0,3c0.3,0.1,0.8,0.3,0.9-0.1C26.3,34.8,26.2,34.6,26.1,34.5"/><path class="st0" d="M48.7,17.8c-0.5-0.1-1.1,0-1.6,0.2c-0.5,0.2-1.1,0.5-1.5,1c-0.5,0.8-0.4,2,0.3,2.5c0.2,0.1,0.6,0.4,0.7,0c0-0.1,0-0.3-0.1-0.4c0,0-0.2-0.1-0.3-0.1c-0.9-0.5-0.6-1.9,0.4-2.4c0.6-0.3,1.3-0.6,1.9-0.4C49,18.4,49,17.9,48.7,17.8"/><path class="st0" d="M46.6,31.4c0,0-0.3-0.1-0.4-0.1c-0.9-0.2-1.2-1.2-0.9-1.8c0.4-0.7,0.9-1.1,1.4-1.9c0.1-0.3-0.2-0.6-0.4-0.3c-0.6,0.8-1.5,1.4-1.7,2.5c-0.2,1.2,0.8,2.2,1.8,2.1C46.8,31.8,46.8,31.5,46.6,31.4"/><path class="st0" d="M54.2,32.5c-0.3-0.3-0.4-0.1-0.7-0.2c-1-0.3-1.4-0.8-1.4-1.6c0,0,0,0,0,0c0,0,0-0.1,0-0.1c-0.1,0.1,0.6-1,0.5-0.8c0.2-0.2,0.6-0.7,0.6-0.6c0.1-0.1,0.3-0.1,0.3-0.3c0.1-0.3-0.2-0.6-0.4-0.4c-0.7,0.4-1.4,1.3-1.6,2.2c-0.1,0.7,0.2,1.4,0.7,1.8c0.5,0.4,1.2,0.7,1.8,0.7C54.3,33,54.3,32.7,54.2,32.5"/><path class="st0" d="M60.8,32.9c-1.6,0-2.4-0.9-1.7-1.7c0.5-0.6,0.5-0.6,1.2-0.8c0.4-0.1,0.3-0.8-0.1-0.7c-2.4,0.7-2.6,3.5,0,3.9c0.3,0,0.6,0.2,0.9,0C61.3,33.4,61.1,32.9,60.8,32.9"/></g></g></g></g></svg>