<?xml version="1.0" encoding="utf-8"?>
<!-- Generator: Adobe Illustrator 27.0.0, SVG Export Plug-In . SVG Version: 6.00 Build 0)  -->
<svg version="1.1" xmlns="http://www.w3.org/2000/svg" xmlns:xlink="http://www.w3.org/1999/xlink" x="0px" y="0px"
	 viewBox="0 0 136.3 142.2" style="enable-background:new 0 0 136.3 142.2;" xml:space="preserve">
<style type="text/css">
	.st0{fill:#FFFFFF;}
	.st1{fill:#8CA2CF;}
	.st2{clip-path:url(#SVGID_00000052081940167426232680000016613437378427950214_);}
	.st3{fill:#627EB5;}
	.st4{fill:#8CA05C;}
	.st5{fill:#677724;}
	.st6{fill:#E0A955;}
	.st7{fill:#BBD7FF;}
	.st8{fill:#3C5987;}
	.st9{fill:#669CD3;}
	.st10{clip-path:url(#SVGID_00000168832219823965828540000018282803934052579218_);}
	.st11{fill:#92C4FC;}
	.st12{fill:#FAF4D2;}
	.st13{fill:#FCCB7C;}
	.st14{clip-path:url(#SVGID_00000068674181380087742940000007289315197588288907_);}
	.st15{clip-path:url(#SVGID_00000031168297779088148900000010131327677217005470_);}
	.st16{fill:#C5CAF0;}
	.st17{clip-path:url(#SVGID_00000098908172230877731490000011842187556411494036_);}
	.st18{clip-path:url(#SVGID_00000124856232719012097360000011935722288899274677_);}
	.st19{clip-path:url(#SVGID_00000073001509374993079800000013723654072710690734_);}
	.st20{clip-path:url(#SVGID_00000108288338113138967540000003770659605759365300_);}
	.st21{clip-path:url(#SVGID_00000052091606534739233940000004956504052200410012_);}
</style>
<g id="BACKGROUND">
</g>
<g id="OBJECTS">
	<g>
		<path class="st16" d="M26.3,83.8c-0.2-0.5-0.7-0.3-1,0c-0.3,0.2-1,0.7-1.7,0.9c-0.3,0.2-1.4-0.1-2.4-0.5c-0.3-0.1-0.5-0.5-1-0.3
			c-0.4,0.3-0.4,1.1-0.8,1.5c-0.7,1-2.1,2.3-3.4,2.6c-1.2,0.3-2.7,0.1-3.9-0.3c-0.5-0.2-0.8,0.6-0.3,0.8c3.1,1.1,5.7,0.5,7.8-2
			c0.4-0.5,0.8-1,1-1.6c1.4,0.7,2.8,1.2,4.1,0.3c0.4-0.2,0.8-0.5,1.2-0.8C26.2,84.3,26.4,84,26.3,83.8"/>
		<path class="st16" d="M19.8,92.1c-0.6-0.3-1.1,0.6-1.6,0.9c-0.8,0.7-2.2,1-3.1,0.7c-0.2,0-0.6-0.2-0.6-0.2
			c-0.2-0.1-0.4-0.3-0.7-0.3c-0.5,0.1-0.6,0.5-1,0.8c-0.5,0.5-0.9,0.6-1.7,0.7c-0.6,0.1-2-0.2-2.4-0.4c-0.2-0.1-0.5-0.4-0.7-0.3
			c-0.3,0.1-0.4,0.5-0.1,0.7c1.7,1,4.3,1.3,5.7-0.3c0.1-0.1,0.2-0.2,0.3-0.4c0.7,0.5,2.1,0.8,3.1,0.5c1.2-0.2,2.1-1,3-1.7
			C20,92.6,20,92.2,19.8,92.1"/>
		<path class="st1" d="M134.5,89.2c0.1-7.9-0.2-15.8-1.5-23.4c-0.2-3.6-1.3-6.9-2.5-10.3c0-0.1-0.1-0.2-0.1-0.3
			c0.1,0.4,0.1,0.7,0-0.1c-0.1-0.2-0.1-0.3-0.2-0.5c0.1,0.1,0.1,0.3,0.1,0.4c0,0,0,0,0-0.1c-0.9-3.6-2.1-7.2-3.9-10.4
			c-4.1-6.3-7.8-13.3-13.8-18c-5.2-3.6-6.2-3.5-11.5-6.1c-0.7-0.3-4-2.2-7.4-3.4c-6.3-1.5-12.6-3.3-19.2-3
			c-7.3,0.8-14.6,1.7-21.7,3.9c-5.6,1.9-10.8,4.7-16,7.5c-3.2,1.9-5.9,4.5-8.8,6.9c-3.5,2.8-6.8,5.9-9.8,9.2
			C14.3,45.9,12.7,52,12,57.7c-0.3,2.6,0.4,5.1,1,7.6c3.5,14.4-8.6,29.6-9.5,33c-1.3,4.6-1.8,9.5-0.4,15.5c0.5,2,1.3,4,2.3,5.9
			c1.2,2,2.8,3.8,4.2,5.6c1.5,2.1,3.5,3.8,5.4,5.6c0,0,0,0,0,0c1.5,1.6,3.5,2.8,5.4,4c2.1,1.5,4.3,2.4,6.7,3.1
			c4.9,1.9,8.2,2.4,10.6,3c2.2,0.4,4.6,0.3,6.9,0c2.9-0.1,5.8-0.8,8.7-1.3c4.7-0.5,4.3-0.5,9.4-1.4c1.1-0.2,2.1-0.4,3.2-0.7
			c2.7,0.4,5.4,1,8.1,1.4c1.7,0.4,3.4,0.7,5.2,0.7c6.8-0.2,13.8-0.9,20.2-3.5c3.9-1.5,7.4-3.7,10.9-6c4.6-3,9.2-6.5,12.5-11
			c2.4-2.9,4.1-6.3,5.8-9.6c1.3-2.6,2.7-5.2,3.5-8c0.5-2,0.9-4.1,1.4-6.2c0.1-0.5,0.4-1.5,0.5-1.9C134.5,92.1,134.4,90.6,134.5,89.2
			z"/>
		<path class="st6" d="M46,69.3C46.1,69.2,46,69.2,46,69.3"/>
		<path class="st4" d="M4.8,118.4C4.8,118.4,4.8,118.4,4.8,118.4"/>
		<g>
			<defs>
				<path id="SVGID_00000084493351984725767370000007882269512355730837_" d="M132.3,101.6c0.5-2,0.9-4.1,1.4-6.2
					c0.1-0.5,0.4-1.5,0.5-1.9c0.3-1.4,0.3-2.8,0.4-4.3c0.1-7.9-0.2-15.8-1.5-23.4c-0.2-3.6-1.3-6.9-2.5-10.3c0-0.1-0.1-0.2-0.1-0.3
					c0.1,0.4,0.1,0.7,0-0.1c-0.1-0.2-0.1-0.3-0.2-0.5c0.1,0.1,0.1,0.3,0.1,0.4c0,0,0,0,0-0.1c-0.9-3.6-2.1-7.2-3.9-10.4
					c-4.1-6.3-7.8-13.3-13.8-18c-5.2-3.6-6.2-3.5-11.5-6.1c-0.7-0.3-4-2.2-7.4-3.4c-6.3-1.5-12.6-3.3-19.2-3
					c-7.3,0.8-14.6,1.7-21.7,3.9c-5.6,1.9-10.8,4.7-16,7.5c-3.2,1.9-5.9,4.5-8.8,6.9c-3.5,2.8-6.8,5.9-9.8,9.2
					C14.3,45.9,12.7,52,12,57.7c-0.3,2.6,0.4,5.1,1,7.6c3.5,14.4-8.6,29.6-9.5,33c-1.3,4.6-1.8,9.5-0.4,15.5c0.5,2,1.3,4,2.3,5.9
					c1.2,2,2.8,3.8,4.2,5.6c1.5,2.1,3.5,3.8,5.4,5.6c0,0,0,0,0,0c1.5,1.6,3.5,2.8,5.4,4c2.1,1.5,4.3,2.4,6.7,3.1
					c4.9,1.9,8.2,2.4,10.6,3c2.2,0.4,4.6,0.3,6.9,0c2.9-0.1,5.8-0.8,8.7-1.3c4.7-0.5,4.3-0.5,9.4-1.4c1.1-0.2,2.1-0.4,3.2-0.7
					c2.7,0.4,5.4,1,8.1,1.4c1.7,0.4,3.4,0.7,5.2,0.7c6.8-0.2,13.8-0.9,20.2-3.5c3.9-1.5,7.4-3.7,10.9-6c4.6-3,9.2-6.5,12.5-11
					c2.4-2.9,4.1-6.3,5.8-9.6C130,106.9,131.4,104.4,132.3,101.6"/>
			</defs>
			<clipPath id="SVGID_00000000939716371012935030000006752478132006423741_">
				<use xlink:href="#SVGID_00000084493351984725767370000007882269512355730837_"  style="overflow:visible;"/>
			</clipPath>
			<g style="clip-path:url(#SVGID_00000000939716371012935030000006752478132006423741_);">
				<path class="st4" d="M130.2,113.5c-2.9,0.5-4.3,0.8-6.6,0.7c-1.5,0.1-4,0.1-6.1-0.3c-5.6-1.2-12.3-3.8-18.2-6.3
					c-4.7-1.6-9.2-4-14-5.4c-5.3-1.7-10.9-2.3-16.3-3.5c-4.6-1.1-9.2-1.4-13.9-1.5c-0.6-0.1-1.3-0.2-2-0.2c-0.4,0-0.8-0.1-1.2-0.1
					c-0.4,0-0.8-0.1-1.1-0.1c-1.8-0.2-3.5-0.5-5.3-0.3c-1.2,0.1-2.5,0.2-3.7,0.4c-2.2,0.2-4.5,0.5-6.7,0.9c-0.9,0.2-1.9,0.4-2.8,0.6
					c-1.8,0.3-3.5,0.6-5.3,1c-5.7,1.4-12.2,5.8-14,6.9c-0.3,0.2-0.7,0.4-1,0.6c-1.9,1.5-4.2,2.8-6.1,4.5c-0.8,0.5-1.5,0.9-2,1.6
					c-0.9,0.6-1.3,1.8-1.2,2.9c0.4,1.5,0.5,2.3,1.4,3.8c0.4,1.3,1,2.1,1.4,2.7c1,2.3,2.2,3.7,3.7,5.9c0.9,1.6,3.7,4.5,5.7,6.1
					c3.6,2.4,7.4,4,11.6,5.7c3.3,1.2,6.7,1.7,10.1,2.1c1.6,0.2,3.3,0.6,4.9,0.7c1.5,0,2.3-0.2,3.5-0.2c2,0,4,0.2,5.9,0.4
					c2.4,0,4.9,0,7.3-0.1c2.4,0,5.4-1.1,8.3-1.4c3.3-0.5,7-1,9.7-1.1c4.3,0.6,8.6,1.4,13,1.6c4.8,0.3,9.7-0.4,14.3-1.9
					c4.5-1.1,8.9-2.6,12.9-5.1c3.8-2.7,7.1-6.2,9.9-10c1.9-2.7,3.7-5.5,5.1-8.5C132.9,114.3,132.8,112.8,130.2,113.5"/>
				<g>
					<path class="st5" d="M131.6,116.5c-0.6-0.1-1.1,0.2-1.7,0.4c-1.8,0.8-3.8,2.3-5.1,2.5c-4.2,1.7-8.8,1.5-13.3,0.5
						c-3.2-0.8-6.1-2.2-9.1-3.3c-4.7-1.6-8.1-3.3-12.6-5.1c-9.1-2.3-18.5-3.5-27.9-3.8c-9.1,0.4-18.3,1.5-27,4.1
						c-5.3,1.5-10.3,3.8-15.4,5.7c-4,1.7-7.7,4-11.3,6.5c-0.5,0.3-1,0.7-1.5,1c-0.1,0.1-0.2,0.2-0.2,0.3c0,0.4,0.5,0.6,0.8,0.4
						c3.2-2.3,6-4.1,9.4-5.9c3.2-1.6,6.6-2.7,9.8-4.1c8.9-3.6,19.6-5.9,29.1-6.4c6.2-0.7,12.7-0.1,19.3,0.7c5.1,0.9,10,1.5,14.5,2.8
						c1.7,0.5,2.5,1.2,4.2,1.8c1.9,0.7,2.9,1.1,4.7,1.9c3.3,1.2,6.6,2.5,9.8,3.8c6.2,2.1,12.7,2.3,18.2-0.2c2-0.8,3.3-2.1,5.2-2.5
						C132.3,117.5,132.2,116.7,131.6,116.5"/>
					<path class="st5" d="M131.1,119c-0.8-0.2-1.4,0.6-2.1,0.9c-0.6,0.4-1.9,0.8-1.9,0.8c-5.7,1.7-10.8,2.6-16.9,1.8
						c-4.1-0.7-8.2-1.6-12.4-3.2c-3.3-1.2-6.7-2-10-3.1c-7.2-2.2-14.8-3.2-22.3-2.8c-6.7,0.3-13.3,1.3-19.7,3
						c-4,1.2-7.9,2.8-11.8,4.3c-2.6,1.1-5,2.5-7.6,3.7c-2,1-4.2,1.7-6.1,3c-2.4,1.7-4.9,3.3-7,5.3c-0.3,0.4,0.4,0.9,0.8,0.6
						c2.6-2.3,5.6-4.4,8.2-5.9c2.7-1.2,5.4-2.4,8-3.7c4.9-2.5,10.2-4.2,15-5.8c8.1-2.3,16.7-3.3,24.7-3.1c9.3,0,16.8,2.7,25.9,5.3
						c3.4,1.4,6.9,2.2,10.5,3.1c6,1.5,11.3,1.2,17.1,0c1.8-0.3,2.7-0.8,4.2-1.2c0.9-0.1,2.4-1.1,3.6-1.8c0.2-0.1,0.3-0.2,0.4-0.4
						C131.7,119.6,131.5,119.2,131.1,119"/>
					<path class="st5" d="M128.7,123.3c-0.7-0.1-1.3,0.4-1.9,0.6c-1.2,0.5-2.4,1.1-3.2,1.3c-4.1,1.7-8.6,1.6-13.9,1.3
						c-5.9-0.3-11.2-1.7-16.8-2.9c-4.1-0.9-8.2-2.2-12.4-2.9c-5.9-1.4-12.1-1.5-18.1-1.1c-5.7,0-12.8,2.5-18.5,4.7
						c-2.6,1.2-5.3,2.2-7.9,3.4c-4.7,2.6-9,5.8-12.7,9.6c-0.2,0.3-0.6,0.5-0.7,0.9c0,0.4,0.5,0.7,0.8,0.4c3.7-3.9,8.3-7.3,12.8-9.8
						c3.1-1.4,6.2-2.7,9.3-3.9c3.8-1.3,6.9-2.6,10.8-3.4c4.5-0.9,8.1-1,12.7-0.9c7.1,0,13.6,1.7,20.1,3.5c6.2,1.5,12.5,3,18.4,3.7
						c5.3,0.3,11.3,0.7,15.8-1c1.1-0.3,2.6-0.9,4.1-1.6c0.5-0.4,1.4-0.4,1.7-1C129.2,123.8,129,123.4,128.7,123.3"/>
					<path class="st5" d="M126.2,127.9c-0.4,0-0.7,0.3-1,0.4c-1.1,0.5-2.1,0.8-3.1,1.1c-2.1,0.7-4,0.7-5.5,0.8
						c-3,0.2-4.6,0.4-7.7,0.3c-2.5-0.2-5,0.1-7.5-0.1c-5.2-0.7-9.8-1.7-14.6-2.8c-8-1.4-16.1-3.7-24.2-2.5c-6.4,1-12.5,3.4-18.2,6.4
						c-4,2-8.1,4.1-11.4,7.2c-0.7,0.8-1.8,1.4-2.3,2.3c0,0.4,0.5,0.7,0.8,0.4c3.8-3.8,7.8-6.3,12.7-8.6c6.9-3.5,14.5-6.5,21.9-6.8
						c9.2,0.1,17.1,2.4,25.6,4.1c4.4,0.8,8.7,2.1,13.2,1.8c4.8,0.1,8.8,0,12.8-0.4c1.5,0,4.4-0.5,6.4-1.3c0.2-0.1,1-0.3,1.2-0.4
						c0.5-0.3,1.2-0.4,1.5-1C127,128.5,126.7,128,126.2,127.9"/>
				</g>
				<path class="st5" d="M134.4,107.4c-1.4,0.4-1.8,0.3-3.2,0.4c-5.7,1.3-11.1,0.9-17.2,0.9c-3.9-0.4-8.1-1.1-11.3-2
					c-2.4-0.9-4.8-1.8-7.6-2.9c-4-1.6-8.1-2.9-12.2-4.3c-2-0.7-3.3-1.5-5.6-2.2c-6.4-1.6-12.9-2.9-19.4-3.7
					c-3.3-0.4-6.6-1.1-9.9-1.3C45.5,92,42,92.4,40,92.5c-8.6-0.2-17.1,1.9-24.5,6.1c-3.5,2.2-6.8,3.5-9.9,6.2
					c-1.6,1.4-2.9,3.1-4.2,4.7c-0.1,0.1-0.3,0.1-0.3,0.2c-0.1,0.1-0.2,0.1-0.3,0.2c-0.2,0.5-0.3,1.2-0.4,1.7c0,1.3,0.4,2.6,0.8,3.8
					c0,0.5,0.5,2.1,1.1,3c0.5,1.1,0.9,2.2,2,2.9c0.4,0.3,1.1,0.3,1.3-0.1c0,0,0.1,0,0.1-0.1c0,0,0.1,0,0.1-0.1
					c0.9-1.3,2.4-2.9,3.6-4c2.1-1.6,4.4-2.9,6.9-4.5c6.2-3.8,12.4-5.4,19.6-7.4c5.3-1.5,12.3-3,17.1-3.4c6.5,0,13-0.2,19.4,1.3
					c5.7,1.1,12.4,3,18.5,4.8c2.1,0.7,4.2,1.5,6.3,2.3c2.4,0.8,4.9,1.4,7.3,2.1c3.6,1.5,7.5,2.1,11.3,2.2c1.3,0.1,2.5,0.5,3.7,0.6
					c1.2,0,2.5,0,3.8,0c2.9,0,5.8-0.3,8.5-1.5c1-0.6,2.4-0.7,3.2-1.6c0.3-0.5,0.2-1,0.4-1.5c0.4-0.9,0.7-1.7,0.8-2.7
					C136.1,106.5,135.1,107.3,134.4,107.4"/>
				<g>
					<path class="st6" d="M120,133.8c-1.1-0.1-1.9,0.5-3,0.7c-2,0.6-4.7,1.4-6.5,1.5c-4.5,0.2-7.7,0.6-12.4-0.2
						c-3.5-0.7-8.5-2.8-12.6-4c-6.3-1.7-12.1-2.6-18.8-2.8c-3.2,0.2-6.3,0.8-9.4,1.5c-0.2,0.1-0.4,0.1-0.6,0.2
						c-0.2,0-0.4,0.1-0.6,0.1c-3.9,1.1-8.3,2.5-11.7,4.7c-1.6,0.9-3.9,2.3-5.9,3.9c-1.5,1.1-4.4,3.4-2.4,4c1.4-0.1,1.7,0.2,3.6,0.4
						c2.7,0.1,5.3,0.4,7.9,0.4c1.5,0.2,3.1-0.2,4.1-0.2c1.3,0,2.7,0.1,4,0.2c1.6,0,3.3-0.2,4.9-0.1c4.3,0,8.5,0.3,12.8,0.3
						c6.3,0.5,13.6,1.5,19.2,1.2c2.1,0,4.2,0.1,6.2-0.1c2.1-0.3,4.1-0.9,6.2-1.4c4.1-1.1,7.6-1.7,10.9-4.5
						C117.1,138.8,121.9,134.7,120,133.8"/>
					<g>
						<path class="st13" d="M44.7,139.2c-0.1-0.1-0.4-0.2-0.5-0.1c-1,0.5-2,0.9-3,1.4c-0.3,0.3,0.1,0.9,0.5,0.7c1-0.5,2-0.9,3-1.4
							C44.9,139.6,44.8,139.3,44.7,139.2"/>
						<path class="st13" d="M60.6,132.6c-0.7,0.1-2.8,0.2-4,0.6c-1.7,0.7-3.4,1.4-5,2.3c-0.3,0.3,0.1,0.9,0.5,0.7
							c1.8-0.8,3.9-1.9,5.4-2.3c1.1-0.3,2.3-0.2,3.5-0.5C61.6,133.1,61.2,132.3,60.6,132.6"/>
						<path class="st13" d="M56.9,137.8c-0.3-0.1-0.5,0.1-0.8,0.1c-1.4,0.6-3,1-4.3,1.8c-0.3,0.3,0.1,0.9,0.5,0.7
							c1.5-0.6,3.3-1.4,4.5-1.7C57.3,138.6,57.3,137.9,56.9,137.8"/>
						<path class="st13" d="M66.6,135.8c-1.2,0.1-2.4,0.2-3.6,0.3c-0.4,0.1-0.8,0-1.1,0.3c-0.3,0.3,0.1,0.9,0.5,0.8
							c1.4-0.2,2.7-0.3,4.1-0.4c0.2,0,0.4-0.1,0.5-0.2C67.4,136.2,67,135.7,66.6,135.8"/>
						<path class="st13" d="M74.6,132.3c-0.2-0.3-0.7-0.3-1-0.4c-1.7-0.3-3.5-0.3-5.3-0.2c-0.5,0.1-0.4,1,0.1,1
							c1.8-0.1,4.2-0.1,5.5,0.3C74.4,133.2,74.9,132.7,74.6,132.3"/>
						<path class="st13" d="M67.5,140.4c-0.3-0.3-0.8-0.1-1.3-0.1c-1.2,0.1-2.4,0.1-3.6,0.4c-0.5,0.3-0.2,1,0.4,0.9
							c1.5-0.2,2.9-0.3,4-0.3C67.5,141.3,67.8,140.8,67.5,140.4"/>
						<path class="st13" d="M79.6,140.7c-0.5-0.3-1.3-0.2-1.9-0.3c-1.2-0.1-2.5-0.3-3.8-0.3c-0.5,0.1-0.4,0.9,0.1,0.9
							c1.7,0.1,3.4,0.3,5.1,0.5C79.6,141.5,79.9,141,79.6,140.7"/>
						<path class="st13" d="M77.3,136.9c-1.1-0.1-2.2-0.1-3.2-0.2c-0.8-0.2-1.1,0.9-0.2,1.1c1.4,0,2.9,0.1,4.3,0.2
							c0.3,0,0.6-0.2,0.6-0.5C78.7,136.8,77.8,136.9,77.3,136.9"/>
						<path class="st13" d="M87.7,134.3c-1.1-0.2-2.1-0.5-3.2-0.7c-0.5-0.1-1.1-0.4-1.7-0.3c-0.4,0.2-0.4,0.8,0.1,1
							c1.5,0.4,3.1,0.7,4.6,1.1c0.3,0.1,0.6,0,0.7-0.3C88.3,134.7,88.1,134.3,87.7,134.3"/>
						<path class="st13" d="M90.4,138.7c-1-0.2-2.1-0.3-3.1-0.5c-0.5,0-1.1-0.3-1.6,0c-0.4,0.3-0.1,0.9,0.3,0.9
							c1.5,0.2,2.9,0.4,4.4,0.6c0.1,0,0.3,0,0.4-0.1C91.1,139.3,90.9,138.7,90.4,138.7"/>
						<path class="st13" d="M98.1,138c0-0.2-0.3-0.4-0.5-0.4c-1.3-0.2-2.6-0.3-3.8-0.6c-0.8-0.1-0.8,1.1-0.1,1.1
							c1.3,0.2,2.6,0.3,3.8,0.5C97.9,138.7,98.2,138.3,98.1,138"/>
						<path class="st13" d="M102.5,141.4c-0.3-0.8-1.5-0.2-2.2-0.3c-1.2,0-2.4,0.1-3.6,0.1c-0.2,0-0.4,0.2-0.4,0.4
							c-0.1,0.4,0.3,0.7,0.6,0.6c1.3-0.1,3.3-0.1,5-0.2C102,142,102.5,141.9,102.5,141.4"/>
						<path class="st13" d="M109.9,138.3c-0.1-0.1-0.3-0.2-0.5-0.2c-1.4,0-2.8,0.1-4.1,0.1c-0.8-0.1-0.9,1.1-0.1,1.1
							c0.9,0,1.8-0.1,2.7-0.1c-0.2,0,1.4,0,1.8-0.1C110.1,139.1,110.2,138.6,109.9,138.3"/>
						<path class="st13" d="M117.2,135.7c-1.4,0.8-2.8,1.5-4.3,2.2c-0.4,0.2-0.3,0.7,0.1,0.8c0.6,0.1,1.2-0.5,1.7-0.7
							c1-0.5,2.1-1,3-1.6C118.1,136.1,117.6,135.5,117.2,135.7"/>
					</g>
				</g>
			</g>
		</g>
		<g>
			<g>
				<path class="st1" d="M130.4,55.2c0,0,0-0.1,0-0.1C130.4,55.1,130.4,55.1,130.4,55.2C130.4,55.1,130.4,55.1,130.4,55.2"/>
				<path class="st16" d="M120.1,42c-0.8-0.2-2.3,0.4-2.9,0.3c-1.6-0.1-3-0.2-3.6-1c-0.3-0.5-0.5-1.4-0.8-1.9
					c-0.4-0.4-1.3,0.2-1.7,0.3c-1.1,0.4-1.8,0.2-2.9-0.5c-0.4-0.2-0.7-0.6-0.8-0.8c-0.2-0.8-0.2-2.1-0.1-2.8
					c0.1-0.3,0.3-0.5,0.1-0.8c-0.1-0.3-0.6-0.3-0.7,0c-0.3,0.6-0.3,1.3-0.3,2c0,0.8,0,1.6,0.4,2.2c0.6,0.8,1.6,1.3,2.6,1.5
					c1,0.2,1.9-0.1,2.7-0.5c0.2,0.9,0.6,1.9,1.4,2.3c1.6,0.7,3.5,0.8,5.2,0.5C119.5,42.9,120.9,42.8,120.1,42"/>
				<path class="st16" d="M129.3,57.4c-2-0.4-3.7-0.3-3.8-2.1c0,0,0,0,0,0c0,0,0-0.1,0-0.1c0-0.5,0.4-1.2,0-1.6
					c-0.3-0.2-0.8-0.1-1.1-0.2c-0.4,0-1-0.3-1.2-0.8c-0.4-0.8-0.4-1.8-0.4-2.8c-0.1-0.4-0.8-0.4-0.8,0.1c-0.1,1.2,0,2.6,0.7,3.6
					c0.5,0.6,1.3,0.8,2.1,0.9c0,0,0,0,0,0.1c-0.3,1.3,0.1,2.8,1.4,3.3c0.9,0.4,1.9,0.6,2.9,0.7c0.2,0,0.4-0.1,0.5-0.3
					C129.5,57.8,129.5,57.5,129.3,57.4"/>
				<path class="st16" d="M97.1,93.7c-0.2-0.1-0.4,0-0.6,0.2c-0.8,0.6-1,0.8-1.9,1.2c-1.3,0.7-4-0.3-5-1.9c-0.5-1.1-1.6,0.7-2.2,0.8
					c-1.1,0.5-2.7,1.1-3.7,1c-0.8-0.2-1.3-0.8-1.9-1.3c-0.4-0.4-0.9-0.8-1-1.4c-0.2-0.5-0.9-0.1-0.7,0.3c0.2,0.8,0.9,1.3,1.5,1.8
					c0.4,0.3,1,1,1.6,1.2c0.7,0.3,1.5,0.1,2.2-0.1c1.2-0.3,2.4-0.7,3.3-1.5c0.1-0.1,0.2-0.2,0.4-0.3c1.1,1.5,3.1,2.5,5,2.3
					c1.1-0.2,2.1-0.9,3-1.6c0,0,0,0,0,0l0,0c0.1-0.1,0.2-0.1,0.2-0.3C97.5,94,97.4,93.7,97.1,93.7"/>
				<path class="st16" d="M115.6,101.7c-1.4,0.4-3.2,0.9-3.9,0.7c-1.1-0.5-2.3-1.4-2.5-2.7c-0.3-0.6-0.8-0.2-1.1,0.1
					c-0.4,0.4-0.8,0.7-1.1,0.9c-1.1,0.6-3.5,0.8-4.1,0.4c-1.1-0.6-1.8-1.2-2.6-2c-0.4-0.2-0.9,0.3-0.5,0.7c1,1.1,2.4,2.4,4,2.4
					c1.4,0,2.8-0.2,4-0.9c0.3-0.2,0.5-0.4,0.8-0.7c0.1,0.3,0.3,0.6,0.4,0.8c0.8,0.9,1.8,1.9,3.1,2c1.1,0,2.1-0.3,3.1-0.6
					c0.3-0.1,0.7-0.1,0.9-0.4C116.3,102.2,116,101.7,115.6,101.7"/>
				<path class="st16" d="M116.9,94.8c-1.5,0.7-3.1,0.3-4.5-1.2c-0.1-0.1-0.3-0.5-0.6-0.5c-0.2,0-0.8,0.6-1.1,0.8
					c-0.2,0.1-0.5,0.3-0.9,0.3c-0.1,0-0.1,0-0.1,0c-0.1,0-0.2,0-0.3,0c-1-0.3-1.8-0.9-2.5-1.7c0,0-0.2-0.6-0.5-0.7
					c-0.4-0.1-0.7,0.3-0.5,0.6c0.7,1.3,2.1,2.3,3.6,2.6c0.9,0.1,1.7-0.4,2.3-1c1.1,1.3,2.8,2.3,4.6,1.8c0.5-0.1,1.2-0.3,1.5-0.7
					C118,94.6,117.3,94.5,116.9,94.8"/>
				<path class="st16" d="M129.8,100.5c-0.3-0.2-0.6,0-1,0c-0.5,0.1-0.6,0.1-0.7,0c0,0,0,0,0,0c-0.1-0.1-0.1-0.1-0.2-0.2
					c-0.4-0.4-0.9-0.2-1.3,0.1c-0.2,0.1-1.1,0.5-1.2,0.6c-0.7,0.3-1.9-1.1-2.1-2.3c0-0.8-1.2-0.9-1.1,0c0.4,1.5,1.4,3.4,3.1,3.4
					c0.7-0.1,1.4-0.5,2.1-0.8c0,0,0,0,0,0c0.1,0.1,0.2,0.2,0.3,0.2c0.6,0.3,1.3,0.1,2,0C130,101.4,130.1,100.7,129.8,100.5"/>
				<path class="st16" d="M94.3,23.5c-0.5-0.1-0.7,0.5-1,0.8c-0.5,0.8-1.3,1.6-1.7,1.5c-0.8,0-1.7-0.4-2.2-0.8
					c-0.2-0.2-0.4-0.4-0.6-0.5c-0.5,0-0.5,0.6-0.5,0.6c-0.2,0.4-0.8,1.1-1.3,1.3c-0.6,0.3-1.9-0.1-2.6-0.8c-0.1-0.1-0.2-0.6-0.5-0.7
					c-0.3-0.1-0.7,0.3-0.5,0.6c0.6,1.3,2.3,2.1,3.7,1.7c0.8-0.2,1.4-0.9,1.8-1.6c0.9,0.7,2,1.1,3.1,0.9c0.9-0.3,1.5-1.2,2.1-2
					C94.4,24.4,94.9,23.8,94.3,23.5"/>
			</g>
			<g>
				<path class="st16" d="M24.5,86.3c-1.6,0.9-6.5,4.2-6.8,0.4c0-0.2-0.4-0.3-0.5-0.1c-0.8,2.6-3.4,4.8-6.2,4.2
					c-0.2,0-0.2,0.2,0,0.3c1.8,0.4,3.6-0.1,4.9-1.4c0.3-0.3,0.7-0.7,0.9-1.1c0.1-0.2,0.2-0.4,0.4-0.6c0,0,0.1-0.1,0.1-0.1
					c0.1,0.2,0.2,0.5,0.3,0.6c1.7,1.6,6.1-0.1,7.3-1.8C25.1,86.5,24.8,86.1,24.5,86.3z"/>
				<path class="st16" d="M12.2,95.8c-0.5,1.4-2.4,1.2-3.3,0.3c-0.2-0.2-0.4,0-0.4,0.2c0.1,1.2-0.3,4.2-2.1,3.2
					c-0.2-0.1-0.3,0.2-0.2,0.3c1.9,1.3,2.6-1.3,2.8-2.9c1.2,0.8,3.1,0.7,3.7-0.8C12.9,95.7,12.3,95.4,12.2,95.8z"/>
				<path class="st16" d="M37.1,89.4c-1.4,0.9-3.5,1.7-4.6-0.1c-0.1-0.2-0.4-0.1-0.5,0c-0.7,1.2-2.5,2.5-3.8,0.9
					c-0.2-0.2-0.5,0-0.3,0.2c0.5,0.7,1.1,1,2,1c0.5,0,2.6-1.1,2.4-1.4c1.1,1.9,3.8,0.7,5.2-0.1C37.8,89.7,37.5,89.2,37.1,89.4z"/>
			</g>
		</g>
		<g>
			<path class="st7" d="M77.6,37.1c-0.6-1.2-1.3-2.5-2.3-3.4c0.7-0.4,1.3-1,1.7-1.8c2.6-4,0.6-7.8-2-9.7c-1.5-1-2.5-1.3-4.4-1.9
				c-2.3-0.7-5.1,0.1-7.4,1.6c-0.4,0.3-0.5,0.3-0.7,0.4c0-0.1,0-0.3,0-0.4c-0.5-1.4-1.7-2.1-2.9-2.7c-1.7-0.8-3.6-1.5-5.7-1.2
				c-2.8,0.3-5,3.1-5.9,5.9c0,0-0.1-0.1-0.1-0.1c-1-1.1-2.4-1.4-3.8-1.8c-1.7-0.4-3.5-1-5.3-0.8C35,21,29,22.1,27.3,27
				c-0.1,0.3-0.2,0.7-0.3,1c-0.3-0.1-0.5-0.2-0.8-0.3c-2.9-0.9-5.1-0.8-8.1-0.9c-3.5,0.1-7.3,0.7-10.6,3.1c-5,3.7-7.7,9.5-2.8,12.8
				c3.6,2.2,8.5,1.9,13.1,0.7c0.8-0.2,1.5-0.5,2.2-0.9c-0.5,3,1.1,6.2,3.3,7.2c3.3,1.2,7.5-0.8,11.1-2.1c-0.2,0.8-0.4,1.7-0.3,2.5
				c0.2,1.9,1,3.6,2.3,4.7c2.8,1.6,6.7,0.2,9.8-1.4c1.1-0.6,1.9-1.5,2.8-2.5c0.3,2.3,1.9,3.7,4.5,3.5c3.6,0,8.6-0.1,11.3-4.2
				c0.8-1.5,1.2-3,1.1-4.4c0.5,0.2,1,0.4,1.5,0.5c2.1,0.2,4.4,0,6.5-1.2c1.4-0.9,2.7-2.2,3.7-3.5C78.4,40.2,78.2,38.4,77.6,37.1"/>
			<g>
				<path class="st3" d="M12.6,37.4c-0.9,0.1-2.7-0.5-2.6-0.7c-0.5-0.8,0.4-2,1.2-2.3c1.4-0.7,2.7-1.2,3.9-1.5
					c0.6-0.3,0.6-1.2,0-1.2c-1.2,0.2-2.4,0.8-3.6,1.3c-0.7,0.3-1.4,0.6-1.9,1.3c-0.9,1.1-1.1,2.7-0.2,3.5c0.7,0.6,1.6,0.7,2.5,0.8
					c0.4,0,1,0.1,1.4-0.2C13.8,37.8,13.2,37.2,12.6,37.4"/>
				<path class="st3" d="M42.5,25.8c-1.5-0.3-3.1-0.3-4.7-0.1c-1.1,0.1-2.3,0.4-3.3,1.3c-1,0.7-1.3,2.1-0.7,2.9
					c0.5,0.8,1.3,1.2,2.2,1.5c0.2,0,1.2,0.6,1.9,0.5c0.8-0.2,0.8-1.3,0.1-1.3c-2.9-0.7-4.9-2.2-1.1-3.4c1.2-0.2,3.7-0.5,5.2-0.1
					C42.7,27.3,43.2,25.9,42.5,25.8"/>
				<path class="st3" d="M29.4,43.2c-0.2-0.3-0.7-0.1-1-0.1c-0.1,0-0.4,0-0.5,0c-2.6-0.1-2.6-1.9-1.1-2.9c1.5-0.9,3.2-1.3,4.9-1.5
					c0.7,0,0.9-1.3,0.2-1.3c-2.1,0.3-4.7,0.6-6.5,2.5c-2.2,2.9,0.2,4.7,2.7,4.5c0.3,0,0.7,0,1-0.1C29.5,44.1,29.7,43.5,29.4,43.2"/>
				<path class="st3" d="M48.6,46.3c-1.6,0-4.7,0.5-5.4,0.7c-0.7-0.2-0.8-0.3-0.7-1.4c0.2-0.9,0.4-1.5,1.2-2.2
					c1.4-1.2,3.6-2.6,5.5-3.2c0.7-0.2,0.6-1.4-0.1-1.1c-1.8,0.5-3.5,1.6-5.1,2.7c-1.5,1-2.5,2.7-2.6,4.4c-0.2,3.2,3.5,1.5,5.6,1.4
					c0.7-0.2,1.5,0.1,2.2-0.3C49.7,46.7,49.2,46.1,48.6,46.3"/>
				<path class="st3" d="M60.1,27.7c-1.1-1-2.5-1.5-4-2c-1-0.3-2.1-0.4-3.2,0.2c-2.8,1.7-1.5,4.5,0.4,5.3c0.6,0.2,1,0.9,1.7,0.8
					c0.9-0.5,0.4-1.2-0.2-1.4c-1.3-0.8-2.3-1.4-2.4-2.4c-0.1-0.5,0.7-1.5,1.8-1.5c1.7,0.1,3.7,0.7,5.2,2.1
					C60,29.2,60.7,28.1,60.1,27.7"/>
				<path class="st3" d="M67.3,38.5c-1.2-0.1-2.1,0-2.6-0.6c-1.6-1.8,0.7-2.4,3.5-4c0.5-0.3,0.9-0.5,1.6-0.7
					c0.2-0.1,0.5-0.1,0.7-0.4c0.3-0.4,0-1-0.5-0.8c-1.7,0.6-3.4,1.6-5.1,2.6c-0.8,0.5-1.8,1.3-1.8,2.3c0,1.9,1.7,2.9,3.4,2.8
					C67.2,39.8,67.9,39,67.3,38.5"/>
				<path class="st3" d="M58.9,49.8c-0.9,0-1.1,0.1-1.4-0.1c-0.3-0.1,0.3-1.4,1.2-2.5c0.3-0.3,0.8-0.6,0.8-1.1
					c0.1-0.5-0.5-0.8-0.9-0.4c-2.2,2.1-3.9,5.9,0.1,5.2C59.5,51,59.6,49.8,58.9,49.8"/>
				<path class="st3" d="M72.5,24.8c-1.2-0.6-2.6-0.8-4-0.7c-0.8,0-1.7,0.2-2.3,1c-0.5,0.5-0.8,1.3-0.5,1.9c0.3,0.6,1.3,0,1.2-0.7
					c0-0.1,0-0.1,0-0.1c0,0,0-0.1,0-0.1c0.1-0.1,0.2-0.3,0.3-0.4c0,0,0.1-0.1,0.1-0.1c0.6-0.4,3.1-0.2,3.9,0.1
					c0.3,0.1,0.6,0.4,1,0.3C72.7,25.9,72.9,25,72.5,24.8"/>
			</g>
		</g>
		<g>
			<path class="st16" d="M133.5,72.8c-0.5-2.8-2-4.6-3.6-6.3c-3.1-3.3-5.5-5.7-9.1-8.3c-3.5-2.9-8.9-3.8-10.6-6.5
				c-0.1-0.7-0.4-3.2-0.6-4.6c-0.1-2.1-0.4-4.3-1.4-5.9c-0.9-1.6-2.4-2.3-3.9-2.8c-2-0.8-4-1.4-6.1-1.1c-2.3,0-4.3,0.4-4.3-0.5
				c-0.3-0.8-0.3-3.8-1.4-5.5c-2.4-4.2-7.3-8.2-11-3.2c-0.4,0.4-0.9,1.1-1.5,1.9c-1.8-0.7-4.5-1.5-6.8-1.3c-2.7,1.4-6.2,3.8-7.4,6.8
				c-0.6,1.3-1.7,3.7-2.1,4.6c-0.7-0.7-1.7-0.9-2.5-1.2c-1-0.4-2.1-0.9-3.2-0.9c-4.7-0.2-9.3,3.1-12.5,8c-0.6,0.9-1.6,3.3-1.7,3.7
				c0,0,0,0,0,0c-0.1,0-0.2,0-0.3,0c-0.2,0-1.1-0.2-1.4-0.3c-6.1-2.1-12.6,3-17.5,8.3c-4.7,6.5-5.8,16.6-0.3,21.9
				c2.3,2.5,5.3,3.5,8,5c5.6,2.7,11.8,2.6,17.9,2.7c4.6,0.2,10.4,0.6,15.8,0c4.9-0.8,9.8-1,14.1-0.5c4.1,0.4,7.2,0.2,11.3,0.6
				c3.9,0,6.8-0.1,10.6,0.7c4.4,0.7,9.5,2.3,13.2,2.6c6.1,0.3,15.8-1.5,18.3-10.8C134.4,77.4,134,75,133.5,72.8"/>
			<g>
				<path class="st0" d="M30.2,64.2c-0.4-0.1-2.7,0.2-3.4,1.7c-0.6,1-0.8,2.1-1,3.3c0,0.5-0.2,1.1,0.1,1.6c0.3,0.4,0.8,0.1,0.8-0.3
					c0-1.5,0.5-3.4,1.1-4.1c0.5-0.6,1.4-0.8,2-0.9c0.3,0,0.6,0.1,0.8-0.1C31.2,65,30.8,64.1,30.2,64.2"/>
				<path class="st0" d="M50,52.7c-1.1-0.3-2.5-0.4-3.5,0.5c-1,1.2-1.8,2.6-2.4,4.1c-0.1,0.2,0,0.5,0.1,0.6c0.2,0.3,0.7,0.1,0.8-0.2
					c0.8-1.7,2-4.2,3.1-4c0.7-0.1,1.4,0.3,2-0.1C50.2,53.4,50.2,52.9,50,52.7"/>
				<path class="st0" d="M60.9,43.8c-0.5-0.3-1.1-0.6-1.7-0.5c-1.4,0.3-2.7,1.1-3.8,2.2c-0.1,0.1-0.2,0.4-0.1,0.6
					c0.1,0.4,0.5,0.5,0.7,0.2c1-1,2.6-2,3.7-1.9c0.1,0,0.5,0.2,0.6,0.2c0.4,0.1,0.7,0.6,1.1,0.3C61.9,44.6,61.4,44,60.9,43.8"/>
				<path class="st0" d="M43.8,77.4c-0.3-0.2-0.6,0-0.9-0.1c-2.6-1-2.5-3.7-0.3-6.4c0.2-0.3,0.7-0.4,0.7-0.9c0-0.5-0.5-0.8-0.8-0.4
					c-1.5,1.4-3,3.8-2.5,6.1c0.5,1.7,2.1,3,3.6,2.8C44.1,78.3,44.1,77.6,43.8,77.4"/>
				<path class="st0" d="M61.3,60.1c-1.1-0.1-2,0.5-3,1c-0.6,0.3-1.3,0.7-1.7,1.3c-1.2,2.4-0.8,5.2,1.2,6.6c0.3,0.2,0.6,0.4,1,0.4
					c0.4,0,0.6-0.5,0.5-0.9c-0.1-0.4-0.5-0.4-0.8-0.5c0,0-0.1,0-0.1-0.1c0,0-0.1,0-0.1-0.1c-1.6-1-1.5-3.6-0.8-4.9
					c0.7-0.8,2.7-1.6,3.3-1.7c0.3,0,0.6,0.1,0.8-0.2C61.9,60.8,61.7,60.1,61.3,60.1"/>
				<path class="st0" d="M77.7,45.8c-1.7-1.9-4.7-2-6.3,0.3c-0.5,0.7-0.7,1.7-1.1,2.5c-0.1,0.6-0.5,1.3-0.4,1.9
					c0.2,0.4,0.8,0.4,0.9-0.1c0.8-3.1,1.7-4.9,3.7-4.9c1,0,1.1,0.2,2,0.8c0.3,0.1,0.5,0.4,0.8,0.3C77.6,46.6,77.8,46.1,77.7,45.8"/>
				<path class="st0" d="M91,37.9c-0.6-1.3-1.9-2.4-3.2-2.4c-1.1,0.1-2.1,0.5-3.1,0.9c-0.3,0.2-0.7,0.3-0.9,0.7
					c-0.2,0.5,0.3,1,0.7,0.7c1.3-0.9,3.5-1.5,4.1-1c0.9,0.5,0.9,0.9,1.6,1.7C90.6,38.9,91.1,38.4,91,37.9"/>
				<path class="st0" d="M77.6,76c-1.5-0.2-3.4-1-3.8-2c-0.4-0.8,0-2.8,0.6-3.4c1.2-1.3,2.6-1.8,4.2-2.4c0.5-0.3,0.2-1.2-0.4-1.1
					c-1.9,0.6-4.2,1.5-5.2,3.6c-1.5,4,0.9,5.9,4,6.4c0.4,0,0.9,0.3,1.3,0C78.8,76.6,78.2,76,77.6,76"/>
				<path class="st0" d="M55.4,81.4c-0.1-0.1-0.8-0.2-0.9-0.2c-0.2,0-0.6-0.2-0.7-0.2c0,0-0.1,0-0.1-0.1c0,0,0,0,0,0
					c0-0.1,0-0.1-0.1-0.1c-0.2-0.8,0-1.5,0.3-2.2c0.1-0.1,0.2-0.2,0.2-0.4c0.1-0.1,0.1-0.3,0.2-0.4c0.2-0.4,0.5-0.7,0.5-1.2
					c-0.1-0.6-0.8-0.7-1-0.2c-1.1,1.6-2.3,5.2,0,6.1c0.6,0.1,1.5,0.6,1.9-0.1C55.7,81.9,55.6,81.6,55.4,81.4"/>
				<path class="st0" d="M101.6,47.3c-1.1-0.3-2.2,0-3.2,0.4c-1.1,0.4-2.3,0.9-3,2.1c-1,1.6-0.9,4.1,0.7,5.1
					c0.4,0.2,1.2,0.9,1.5,0.1c0.1-0.3,0-0.6-0.3-0.7c-0.1,0-0.4-0.2-0.5-0.3c-1.7-1-1.1-3.9,0.8-4.8c1.2-0.6,2.6-1.2,3.9-0.8
					C102.1,48.3,102.1,47.3,101.6,47.3"/>
				<path class="st0" d="M97.3,74.9c-0.1-0.1-0.6-0.2-0.8-0.2c-1.9-0.4-2.5-2.4-1.9-3.6c0.9-1.5,1.8-2.3,2.9-3.8
					c0.3-0.5-0.4-1.1-0.8-0.7c-1.2,1.6-3,2.9-3.4,5.1c-0.4,2.5,1.7,4.5,3.7,4.3C97.6,75.9,97.7,75.2,97.3,74.9"/>
				<path class="st0" d="M112.7,77.2c-0.6-0.5-0.8-0.2-1.4-0.5c-2-0.5-2.8-1.6-2.8-3.2c0,0,0,0,0-0.1c0-0.1,0-0.2,0.1-0.2
					c-0.2,0.1,1.1-2,1-1.7c0.3-0.5,1.2-1.3,1.2-1.3c0.2-0.1,0.5-0.2,0.6-0.6c0.2-0.6-0.4-1.1-0.8-0.8c-1.5,0.9-2.8,2.6-3.3,4.5
					c-0.1,1.4,0.4,2.8,1.4,3.7c1.1,0.8,2.4,1.4,3.7,1.4C112.9,78.3,113,77.6,112.7,77.2"/>
				<path class="st0" d="M126.3,78.1c-3.2,0-4.8-1.8-3.5-3.4c1.1-1.1,1.1-1.2,2.4-1.7c0.8-0.2,0.6-1.6-0.2-1.4
					c-4.9,1.5-5.4,7.2-0.1,8c0.6,0,1.3,0.3,1.8-0.1C127.2,79,126.9,78.1,126.3,78.1"/>
			</g>
		</g>
	</g>
</g>
</svg>
