<?xml version="1.0" encoding="utf-8"?>
<svg version="1.1" xmlns="http://www.w3.org/2000/svg" xmlns:xlink="http://www.w3.org/1999/xlink" x="0px" y="0px" viewBox="0 0 70.2 67" style="enable-background:new 0 0 70.2 67;" xml:space="preserve"><style type="text/css">.st0{fill:#FFFFFF;}.st1{fill:#8CA2CF;}.st2{clip-path:url(#SVGID_00000109739898141373355550000007075836908964485820_);}.st3{fill:#627EB5;}.st4{fill:#8CA05C;}.st5{fill:#677724;}.st6{fill:#E0A955;}.st7{fill:#BBD7FF;}.st8{fill:#3C5987;}.st9{clip-path:url(#SVGID_00000122687705097203012190000017876504016454539426_);}.st10{fill:#669CD3;}.st11{clip-path:url(#SVGID_00000068658455993686140650000004527615641139452073_);}.st12{fill:#92C4FC;}.st13{fill:#FAF4D2;}.st14{fill:#FCCB7C;}.st15{clip-path:url(#SVGID_00000044178588619043587490000001160946141599488944_);}.st16{clip-path:url(#SVGID_00000001633634700453282560000007883992160689046957_);}.st17{fill:#C5CAF0;}.st18{clip-path:url(#SVGID_00000095336274747951207880000000042635868938583183_);}.st19{clip-path:url(#SVGID_00000115507197245353721720000015059022768071622576_);}.st20{clip-path:url(#SVGID_00000174568785575341954280000010511738843997578941_);}.st21{clip-path:url(#SVGID_00000026162915989728719360000013828839510051800766_);}.st22{fill:#F9CC3D;}.st23{fill:#FFEAAE;}.st24{fill:#FFECB8;}.st25{fill:#D3AA37;}.st26{fill:#FFE08A;}.st27{clip-path:url(#SVGID_00000003810419093239137140000011583972975434862777_);}.st28{clip-path:url(#SVGID_00000083062989011715057890000001179680870766287017_);}.st29{clip-path:url(#SVGID_00000149376652312455937320000013020350923465702289_);}.st30{clip-path:url(#SVGID_00000071536771880213934220000011412027958686986681_);}.st31{clip-path:url(#SVGID_00000017475415047217796470000009479541952867182485_);}.st32{clip-path:url(#SVGID_00000122709734689353762710000010423131888248423576_);}.st33{clip-path:url(#SVGID_00000138567939736232558250000012810370266589632941_);}.st34{clip-path:url(#SVGID_00000168093811622016372420000002866001986085060752_);}.st35{clip-path:url(#SVGID_00000022524831802540580630000013095912640155765384_);}</style><g ></g><g ><g><g><path class="st1" d="M63,33.2c-0.1-1.3-0.5-2.5-0.7-3.7c-0.2-1-0.4-2.1-0.7-3.1c-0.4-2-1.1-4-1.9-5.8c-0.7-1.8-1.6-3.4-2.8-4.9c-1.3-1.7-2.8-3.3-4.5-4.7c-1-0.7-2-1.4-3.1-2C40.3,3,28.2-1,17.9,10.8c-1.3,1.5-2.7,3-4.1,4.5c-1,1.3-2.2,2.6-3.1,4c-1,1.8-1.8,3.7-2.8,5.5c-0.5,1-1.1,1.9-1.5,3c-0.5,1.3-0.9,2.7-1.3,4.1c-0.6,1.8-1,3.7-1.3,5.7c-0.3,1.9-0.7,3.8-0.9,5.7c-0.4,3.3-0.4,6.6-0.2,9.8c0,1.2,0,2.4,0.2,3.5c0.1,1,0.1,1.7,0.9,3.3c0.9,1.7,2.2,3,3.6,4.1c0.9,0.6,0.8,0.4,1.1,0.6c0.8,0.5,1.7,0.8,2.6,1.1c0.9,0.3,1.8,0.7,2.8,0.8c1.5,0,3-0.4,4.5-0.7c2.3-0.6,4.5-1.6,6.8-2.4c1.4-0.3,2.2-0.3,4.4-0.4c1.4-0.1,3.8,0.2,3.9,0.3c3.5,0.8,5,1.3,8.4,1.5c2.4,0.2,4.9,0,7.2-0.8c1.8-0.7,3.5-1.9,5-3.1c1.6-1.5,2.8-3.4,3.8-5.4c1.3-2.4,2.4-5,3.1-7.7c0.6-2.2,1.4-4.3,1.5-6.6c0.2-1.6,0.5-3.1,0.6-4.7C63.2,35.4,63,34.3,63,33.2"/><g><defs><path id="_2" d="M63,33.2c-0.1-1.3-0.5-2.5-0.7-3.7c-0.2-1-0.4-2.1-0.7-3.1c-0.4-2-1.1-4-1.9-5.8c-0.7-1.8-1.6-3.4-2.8-4.9c-1.3-1.7-2.8-3.3-4.5-4.7c-1-0.7-2-1.4-3.1-2C40.3,3,28.2-1,17.9,10.8c-1.3,1.5-2.7,3-4.1,4.5c-1,1.3-2.2,2.6-3.1,4c-1,1.8-1.8,3.7-2.8,5.5c-0.5,1-1.1,1.9-1.5,3c-0.5,1.3-0.9,2.7-1.3,4.1c-0.6,1.8-1,3.7-1.3,5.7c-0.3,1.9-0.7,3.8-0.9,5.7c-0.4,3.3-0.4,6.6-0.2,9.8c0,1.2,0,2.4,0.2,3.5c0.1,1,0.1,1.7,0.9,3.3c0.9,1.7,2.2,3,3.6,4.1c0.9,0.6,0.8,0.4,1.1,0.6c0.8,0.5,1.7,0.8,2.6,1.1c0.9,0.3,1.8,0.7,2.8,0.8c1.5,0,3-0.4,4.5-0.7c2.3-0.6,4.5-1.6,6.8-2.4c1.4-0.3,2.2-0.3,4.4-0.4c1.4-0.1,3.8,0.2,3.9,0.3c3.5,0.8,5,1.3,8.4,1.5c2.4,0.2,4.9,0,7.2-0.8c1.8-0.7,3.5-1.9,5-3.1c1.6-1.5,2.8-3.4,3.8-5.4c1.3-2.4,2.4-5,3.1-7.7c0.6-2.2,1.4-4.3,1.5-6.6c0.2-1.6,0.5-3.1,0.6-4.7C63.2,35.4,63,34.3,63,33.2"/></defs><clipPath id="_3"><use xlink:href="#_2" style="overflow:visible;"/></clipPath><g style="clip-path:url(#_3);"><path class="st3" d="M61.7,24.5c-0.4-2.8-1.9-5.1-4-7.3c-0.9-0.9-1.5-2-2.5-2.9c-0.7-0.7-1.3-1.5-2-2.2c-0.9-0.9-1.5-1.3-2.4-2.1c-1.5-1.5-3.6-2.7-5.8-3.6c-1.1-0.4-2.2-0.8-3.3-1.2c-1-0.2-2-0.3-3-0.1c-0.2,0.1-0.1,0-0.5,0.1c0,0-0.1,0-0.1,0.1c-2.2,0.1-4.4,0.3-6.4,1.1c-2.1,1-3.3,2.7-3.6,4.5c0,0.1,0,0.2,0,0.2c-0.5-0.1-0.9-0.2-1.4-0.2c-4,0.1-7.3,1-10.5,2.9c-1.3,0.9-2.6,1.9-2.8,3.3c-0.3,0.9-0.1,1.7,0.4,2.5c-1.6,0.1-3.2,0.7-4.6,1.3c-2.9,1.1-5.8,2.5-7.7,4.5c-1.1,1.6,0.9,2.9,3,3.1c4,0.4,8.2-0.1,12.2-0.4c-1,1.1-2.1,2.5-1,3.8c3.2,3.5,12.1,2.2,16.4,0.1c1-0.4,1.8-0.9,2.7-1.4c0.1,0.5,0.6,1,1.1,1.4c0.6,0.6,1.5,1,2.5,1.1c4.2,0.6,9.8-0.9,13.1-3.5c0,0.2,0.1,0.4,0.2,0.6c0.4,0.7,1.2,1.2,2.2,1.4c1.1,0.2,2.2,0.1,3.2-0.2c1.9-0.5,3.8-1.4,4.9-2.7C63.1,27.3,61.9,25.5,61.7,24.5"/><g><g><path class="st4" d="M17.6,61.4c-0.3-1.5-1-3.4-1.5-5.2c-0.4-1.3-0.9-2.5-1.6-3.6c-0.5-1.1-1.2-2.1-2.3-2.7c-0.9-0.4-2.1-0.1-2.8,0.5c-1.7,1.6-1.9,4-2.2,6c-0.2,1.6,0.3,3.2,0.3,4.9c0.2,1.9,0.3,3.8,0.8,5.7c0,0,0,0,0.1,0.1c0.1,0.4,0.7,0.3,0.8-0.1c0,0,0.1-0.1,0.1-0.2c0,0,0,0,0,0c0,0,0.1-0.1,0.1-0.1c0.2-0.1,0.6-0.3,0.8-0.4c0.2-0.1,0.4-0.1,0.9-0.2c0.1,0,0.3-0.1,0.4-0.1c0.5-0.1,1.3-0.4,1.5-0.4c1.1,0,2.2-0.2,3.3-0.2c0.6,0,1.2,0.1,1.7,0c0,0,0,0,0,0c0.2,0,0.3-0.1,0.3-0.2C18.5,63.8,17.7,62.3,17.6,61.4 M44.2,62.4c-0.2-0.8-0.5-2-0.6-2.7c-0.1-1.1-0.2-2.2-0.4-3.4c-0.4-1.3-0.9-2.6-1.5-3.8c-0.4-0.8-1.1-1.5-1.9-2.1c-0.7-0.6-1.7-1-2.7-0.9c-1.1,0.1-2.1,0.6-2.9,1.3c-1.6,1.2-2.3,3.1-2.8,4.9c-0.7,2.2-1.2,4.3-1.8,6.5c0,0.3-0.2,0.6-0.2,1c-0.1,0.1-0.1,0.1-0.2,0.2c-0.1,0.3,0.2,0.6,0.5,0.5c0.1,0,0.2-0.1,0.2-0.1c0,0,0.1,0,0.1,0c0.8-0.2,2-0.1,3.1-0.1c1.4,0.1,2.8,0,4.2,0c2.1,0.1,4.2,0.1,6.2-0.1c0.3,0,0.7-0.2,0.8-0.5C44.4,62.9,44.3,62.6,44.2,62.4"/><path class="st5" d="M29.8,62.7c-0.4-3.7-0.9-6.9-1.8-10.5c-0.5-1.8-1.1-3.5-2.1-5.1c-0.4-0.7-0.9-1.3-1.7-1.7c-1-0.4-2.3-0.2-3.3,0.3c-1.1,0.8-1.5,2.1-1.9,3.2c-1.2,4.1-1.1,8.2-1,12.6c0.1,1,0.1,2,0.1,3c-0.2,0.2-0.1,0.6,0.2,0.6c0.1,0.1,0.4-0.1,0.5-0.2c0.5-0.2,0.6-0.2,1.2-0.4c0.2,0,2-0.4,2.1-0.5c1.1-0.2,1.6-0.5,2.7-0.5c1.3,0.1,2.9,0,3.8,0.1C29.9,64.1,29.9,63.7,29.8,62.7"/><path class="st6" d="M14.4,65.4c-0.1-0.6-0.3-1.1-0.4-1.6c-0.4-1.6-0.9-3.6-1.3-5.4c-0.3-1-0.7-2.1-0.8-3c-0.1-0.3-0.3-0.9-0.3-1c0-0.1,0-0.4-0.4-0.4C11,54,11,54.2,11,54.3c0,0.5,0.1,0.6,0.2,1c0.1,0.6,0.1,1.3,0.2,1.9c0.2,1.1,0.5,2.4,0.7,3.3c0.2,1.7,0.4,3.5,0.5,5.2c0,0.1,0,0.3,0.1,0.3c0.1,0.1,0.2,0.1,0.3,0c0.1,0,0.1,0,0.2,0c0,0,0.1,0,0.1,0c0,0,0,0,0.1,0c0.1,0,0.5-0.1,0.3-0.1c0.1-0.1,0.6,0.1,0.7-0.2C14.4,65.7,14.3,65.2,14.4,65.4"/><path class="st6" d="M24.1,62.9c-0.2-2.1-0.2-4.2-0.4-6.2c-0.2-1.5-0.5-2.9-0.6-4.3c0-0.4-0.1-0.8-0.1-1c0-0.2,0-0.4-0.1-0.5c-0.2-0.1-0.4,0-0.4,0.2c-0.1,3,0,6.2,0,9.4c0,1.2,0.1,2.4,0.2,3.6c0.1,0.1,0.2,0.1,0.3,0.1c0.2,0.2,0.3,0,0.6,0.1C24.5,64.4,24.2,63.9,24.1,62.9"/><path class="st6" d="M37,53.9c0-0.1,0-0.3,0-0.4c0,0,0,0,0,0h0c0-0.1-0.1-0.2-0.3-0.2c-0.2,0-0.3,0.2-0.3,0.4c0,0,0,0.1,0,0.1c0,0.1,0,0.1,0,0.2c-0.2,2.2-0.8,5-1.1,7.4c-0.1,0.8-0.3,1.6-0.3,2.3c0,0,0.1,0.1,0.1,0.1c0.1,0.1,0.1,0.1,0.2,0.2c0.1,0,0.2,0,0.3,0c0.4,0,0.7,0.1,1.1,0c0,0,0.5,0.1,0.6-0.2c0-1.2,0-2.2,0.1-3.3C37.5,58.3,37.2,56.1,37,53.9"/></g><g><path class="st5" d="M66.2,61.1c-0.7,0.4-1.8,0.7-2.9,1c-2,0.7-4.4,0.5-6.8,0.5c-4.1,0.2-8-1.2-12.2-2c-4.3-1-8.3-1.3-12.5-1.1c-1.5,0.1-3.1,0.2-4.6,0.5c-0.7,0.1-1.3,0.1-1.9,0.3c-0.7,0.2-1.4,0.3-2.2,0.5c-1,0.3-1.9,0.8-2.9,1c-1.3,0.3-3.4,0.4-5,0.5c-0.9,0.1-1.3,0.3-2.2,0.4c-1.6,0-3.5-0.3-5.3-0.8c-0.8-0.3-1.4-0.5-2.3-0.9c-0.1,0-0.2-0.1-0.3,0c-0.1,0-0.1,0-0.1,0.1c-0.2,0.1-0.3,0.3-0.2,0.5c0,0,0,0.1,0.1,0.1c0,0,0,0,0,0c0.2,0.5,0.3,0.8,0.4,1.1c0.9,1.7,2.6,2.9,4.1,4c1.4,0.9,2.9,1.5,4.4,2.2c0.8,0.4,1.6,0.9,2.4,1.2c1.3,0.3,2.8,0.3,4.1,0.3c1.3,0,2.6-0.3,3.8-0.6c1.7-0.3,3.4-1,5.1-1.4c1-0.4,1.9-0.8,2.9-1c1.7-0.4,3.1-0.8,4.6-1c1.8-0.2,3.6,0,5.4,0c2.3,0,4.4,0.3,6.8,0.6c2.8,0.4,5.7,0.6,8.5,0.7c1.6,0,3.2-0.6,4.5-1.5c1.2-0.6,2.2-1.4,3-2.5C65.5,63.4,67.5,61.1,66.2,61.1"/><g><path class="st4" d="M63.4,63.3c-0.2,0-0.3,0.1-0.5,0.1c-0.5,0.2-1.1,0.3-1.6,0.4c-1.3,0.4-2.5,0.5-4,0.7c-3.9,0.2-7.6,0.4-11.2-0.8c-2.1-0.6-3.8-1.4-6-2c-1.7-0.5-3.4-0.8-5.2-0.9c-1.7-0.1-3.5,0.2-5.2,0.2c-1.9,0.3-3.8,0.8-5.7,1.5c-0.9,0.2-1.8,0.5-2.6,1c-0.9,0.3-1.8,0.7-2.7,0.9c-1,0.3-2,0.4-3.1,0.5c-0.8,0.1-1.7,0.2-2.5,0.2c-0.8,0-1.6,0-2.4-0.3c-1.1-0.4-2.1-0.9-3-1.5c-0.2-0.2-0.5,0.1-0.3,0.3c1.4,1,3.1,1.8,4.8,1.9c1.3,0,2.6,0,3.8-0.2c1.1-0.1,2-0.2,3-0.5c1.5-0.4,2.8-1,4.2-1.5c1.3-0.4,2.7-0.9,3.9-1.1c1.2-0.3,2.1-0.6,3.4-0.6c1.6,0,3.8-0.3,5-0.1c3.5,0.3,6.4,1.6,9.5,2.7c3.1,1.1,5.8,1.2,9.1,1.3c2.6-0.1,5.2-0.2,7.7-0.9c0.5-0.1,1-0.3,1.5-0.4c0.1,0,0.3-0.1,0.3-0.2C63.8,63.6,63.6,63.4,63.4,63.3"/><path class="st4" d="M38.9,63.6c-0.2-0.1-0.2-0.1-0.4-0.1c-1.5-0.3-2.7-0.3-4.3-0.2c-1.2,0-2.4-0.1-3.6,0.2c-1.4,0.3-2.9,0.7-4.3,1.1c-1.5,0.7-3.1,1.2-4.6,1.8c-1.6,0.5-3,0.6-4.8,0.9c-0.4,0.1-0.8,0-1.1,0.2c-0.2,0.2,0,0.4,0.2,0.4c2-0.2,4-0.4,5.9-1c1.1-0.4,2.3-0.8,3.4-1.3c0.8-0.4,1.7-0.7,2.6-0.9c2.1-0.6,3.9-1,6.1-0.8c1.7-0.1,2.7-0.1,4.3,0.2c0.1,0,0.3,0.1,0.4,0C39.1,64,39.1,63.8,38.9,63.6"/><path class="st4" d="M32.8,65.4c-1,0-2.1,0.3-3.2,0.4c-1.1,0.2-2.3,0.5-3.4,0.9c-1.7,0.6-3.4,1.1-5.1,2c-0.4,0.2-1,0.4-1.2,0.7c-0.1,0.2,0.2,0.4,0.4,0.3c3.3-1.8,7.6-3.1,11.4-3.6c0.4-0.1,0.8,0,1.1-0.2C33,65.7,33,65.5,32.8,65.4"/><path class="st4" d="M60.1,66.1c-0.2-0.1-0.4,0-0.6,0.1c0,0,0,0,0,0c-0.8,0.1-1.6,0.3-2.5,0.3c-1.1,0-2.1,0.2-3.2,0.1c-1.7-0.2-3.9-0.4-5.9-0.8c-1.9-0.4-3.8-0.7-5.7-0.7c-0.1,0-0.3,0-0.4,0.1c-0.2,0.2,0,0.4,0.2,0.4c3.2,0,6.6,1.1,9.9,1.4c0.7,0,1.6,0.2,2.4,0.2c0.8,0,1.7-0.1,2.5-0.1c0.7,0,1.3-0.1,1.9-0.1c0.4,0,0.8,0,1.2-0.2C60.3,66.5,60.3,66.2,60.1,66.1"/></g></g></g></g></g></g><g><path class="st7" d="M9.5,46.5c-0.7-0.1-1.1,0-1.7,0.2c-0.7,0.3-1.6,1.1-1.8,1.6c-0.6,0.7-0.6,1.7-0.7,2.6c-0.1,1.8,0.1,3.6,0.3,5.4c0.1,0.7-0.3,1.3-0.7,1.8c-0.2,0.2-0.4,0.4-0.6,0.6c-0.1,0.1,0.1,0.3,0.2,0.2c0.8-0.6,1.5-1.7,1.4-2.7c-0.2-1.4-0.3-2.8-0.3-4.3c0-0.8,0.1-1.7,0.3-2.6c0.3-0.6,0.9-1.4,1.6-1.8c0.6-0.4,1.4-0.5,1.8-0.5c0.5,0,0.8,0.5,0.9,0.9c0,0.8,0,1-0.5,1.5C9,49.8,8.6,50.1,8,50.2c-0.2,0-0.2-0.1-0.3-0.2c-0.1-0.4,0.1-0.4,0.1-0.6c-0.2-0.4-0.5,0-0.5,0.4c0,1,0.7,1,1.5,0.6c0.6-0.3,1.1-0.8,1.4-1.4C10.6,48.1,10.4,46.9,9.5,46.5"/><path class="st7" d="M6.7,44.2c-0.1,0-0.2,0.1-0.3,0.2C5.2,45,4.4,46,4,47.3c-0.8,1.9-0.8,4-0.5,6c0.1,0.3,0,0.6,0.2,0.9c0.1,0.1,0.3,0,0.3-0.1c-0.4-2.1-0.5-4.5,0.2-6.3c0.5-1.4,1.1-2.3,2.3-3c0.1-0.1,0.4-0.2,0.4-0.3C7,44.4,6.9,44.2,6.7,44.2"/><path class="st7" d="M58.5,40c-0.3-0.4-0.7-0.6-1.1-0.7c-0.4,0-0.7,0.3-0.9,0.6c-0.5,0.8-0.7,1.5-0.9,2.5c-0.1,0.4-0.1,0.8,0.1,1.2c0.6,0.6,1.1,0.5,1.6-0.3c0.1-0.2,0.2-0.5,0.2-0.7c0-0.1,0.1-0.2,0-0.3c-0.2-0.2-0.4,0-0.4,0.2c0,0.7-0.6,1.2-0.8,1.1c-0.2-0.2-0.3-0.1-0.3-0.4c-0.2-0.6,0.3-2.4,0.7-2.9c0.2-0.3,0.6-0.6,0.6-0.5c0.2,0.1,0.6,0.2,0.8,0.4c0.6,0.7,0.7,1.6,0.7,2.5c-0.1,1.3-0.3,2.5-0.7,3.7c-0.8,2.4-1.4,4.9-2.6,7.1c-0.4,0.7-0.8,1.4-1.2,2c-0.1,0.2,0.2,0.3,0.3,0.2c1.6-2.3,2.6-4.8,3.4-7.5c0.5-1.6,1-3.3,1.2-5C59.3,42.1,59.2,40.9,58.5,40"/><path class="st7" d="M54.2,44.7c-0.1-0.2-0.4-0.1-0.3,0.1c0.3,1.8,0.4,3.5,0.1,5.1c0,0.5-0.2,1.5-0.5,1.2c-0.2-0.1-0.2-0.5-0.1-0.9c0-0.3,0.3-0.5,0.6-0.7c0.1-0.1,0-0.2,0-0.2c-0.1-0.1-0.3,0-0.4,0.1c-0.2,0.2-0.4,0.4-0.5,0.6c-0.1,0.4-0.1,0.9,0.1,1.2c0.4,0.4,0.9,0.2,1-0.3c0.3-1.2,0.4-2.7,0.3-4C54.4,46.3,54.4,45.5,54.2,44.7"/><path class="st7" d="M60.8,39.8c-0.1-0.4,0-0.8-0.2-1.1c-0.1-0.1-0.3,0-0.3,0.1c0.2,1.2,0.4,2.3,0.4,3.5c-0.2,1.3-0.5,2.6-0.8,3.9c-0.1,1-0.6,1.9-0.8,2.9c-0.7,2.5-1.6,4.8-3,7.1c-0.1,0.3-0.4,0.5-0.4,0.7c0,0.1,0.2,0.2,0.3,0.1c0.1-0.1,0.2-0.3,0.3-0.5c1.4-2.3,2.4-4.8,3.1-7.4c0.3-1,0.7-1.9,0.9-2.9c0.3-1.3,0.6-2.5,0.8-3.8C61.1,41.6,60.9,40.7,60.8,39.8"/></g><g><path class="st8" d="M14.9,43.2c-0.1-0.2-0.4-0.1-0.4,0.1c-0.2,0.7-0.4,1.3-0.7,1.9c-0.1,0.2,0.1,0.4,0.3,0.3c0.2-0.1,0.5-1.2,0.7-1.9C14.9,43.5,15,43.3,14.9,43.2"/><path class="st8" d="M18.9,41.8c-0.2,0.5-0.4,1.5-0.5,1.8c0,0.1-0.1,0.2-0.1,0.3c0,0.1,0.2,0.2,0.3,0.1c0.2-0.2,0.2-0.6,0.3-0.9c0.1-0.4,0.3-0.9,0.4-1.3C19.3,41.5,18.9,41.6,18.9,41.8"/><path class="st8" d="M17.2,47.3c-0.1-0.2-0.4-0.1-0.4,0.1c-0.3,0.9-0.5,1.6-0.8,2.4c-0.3,0.3,0.2,0.7,0.4,0.2c0.3-0.7,0.5-1.4,0.7-2.1C17.2,47.7,17.3,47.5,17.2,47.3"/><path class="st8" d="M23.6,42c-0.1-0.1-0.4-0.1-0.4,0.1c-0.1,0.5-0.4,1-0.5,1.6c0,0.2,0.3,0.2,0.4,0.1c0.2-0.4,0.3-0.9,0.5-1.4C23.6,42.2,23.7,42.1,23.6,42"/><path class="st8" d="M21.4,46.4c-0.2,0.7-0.5,1.6-0.7,2c-0.1,0.1,0,0.3,0.2,0.3c0.1,0,0.2,0,0.2-0.1c0.3-0.7,0.5-1.4,0.7-2C22,46.3,21.5,46.1,21.4,46.4"/><path class="st8" d="M27.4,42.5c-0.2,0.6-0.4,1.1-0.5,1.7c0,0.1,0.1,0.2,0.2,0.2c0.1,0,0.2-0.1,0.2-0.2c0.2-0.5,0.4-1.1,0.5-1.7C27.9,42.3,27.5,42.3,27.4,42.5"/><path class="st8" d="M25.3,47.6c-0.3,1.2-0.9,2.3-1.2,3.6c0.1,0.2,0.3,0.2,0.4,0c0.4-1.2,0.9-2.4,1.3-3.6C25.6,47.4,25.3,47.4,25.3,47.6"/><path class="st8" d="M31.6,43c-0.1,0.4-0.2,0.9-0.4,1.3c0,0.1,0.1,0.2,0.2,0.2c0.2,0,0.2-0.1,0.2-0.2c0.1-0.4,0.3-0.9,0.4-1.4C32,42.8,31.6,42.8,31.6,43"/><path class="st8" d="M30.2,47.3c-0.1-0.2-0.4-0.1-0.4,0.1c-0.3,0.9-0.7,1.9-1,2.9c0,0.1,0.1,0.2,0.2,0.2c0.4,0,0.4-0.7,0.6-0.9c0.2-0.7,0.5-1.4,0.7-2.1C30.2,47.5,30.2,47.4,30.2,47.3"/><path class="st8" d="M21.4,50.8c-0.3,0.8-0.6,1.6-0.9,2.4c-0.1,0.2,0.1,0.3,0.3,0.3c0.4-0.5,0.7-1.8,1-2.5C21.9,50.8,21.5,50.6,21.4,50.8"/><path class="st8" d="M17.9,51.7c-0.2,0.6-0.4,1.3-0.7,1.9c-0.1,0.2,0.1,0.4,0.3,0.3c0.3-0.6,0.5-1.4,0.8-2.1C18.3,51.6,18,51.5,17.9,51.7"/><path class="st8" d="M12.8,49c-0.2,0.7-0.5,1.4-0.8,2.2c-0.1,0.2-0.4,0.5,0,0.6c0.1,0,0.2-0.1,0.3-0.2c0.4-0.8,0.7-1.6,0.9-2.4C13.4,48.9,13,48.7,12.8,49"/><path class="st8" d="M13.8,53.1c-0.4,0.9-0.7,1.7-1.1,2.6c-0.1,0.2-0.5,0.7-0.1,0.8c0.2,0,0.2-0.1,0.3-0.3c0.4-0.8,0.7-1.5,1-2.3c0.1-0.3,0.3-0.5,0.3-0.8C14.1,53,13.8,53,13.8,53.1"/><path class="st8" d="M22.2,54.5c-0.4,0.8-0.9,1.9-1.1,2.5c-0.1,0.1-0.1,0.1,0,0.2c0.2,0.3,0.4-0.1,0.5-0.3c0.3-0.8,0.7-1.6,1-2.3C22.6,54.3,22.3,54.3,22.2,54.5"/><path class="st8" d="M26.8,52.7c-0.3,0.9-0.6,1.6-0.9,2.6c0,0,0,0,0,0c0,0,0,0,0,0c0,0,0,0.1,0,0.2c0,0.1,0.2,0.2,0.3,0.1c0.1,0,0.1-0.1,0.2-0.2c0.3-0.9,0.6-1.7,0.9-2.6C27.2,52.5,26.8,52.4,26.8,52.7"/><path class="st8" d="M28.2,55.2C28.2,55.2,28.2,55.2,28.2,55.2"/><path class="st8" d="M35.9,42.9c-0.2,0.5-0.3,1-0.4,1.4c0,0.2,0.2,0.3,0.3,0.2C36,44.4,36,44.2,36,44c0.1-0.4,0.3-0.7,0.3-1.1C36.3,42.7,36,42.7,35.9,42.9"/><path class="st8" d="M33.2,47.2c-0.2,0.8-0.6,2-0.8,2.7c-0.1,0.1,0,0.5,0.3,0.3c0.4-0.9,0.6-1.9,0.9-2.9C33.7,47,33.3,46.9,33.2,47.2"/><path class="st8" d="M32.8,53.4c-0.2,0.9-0.6,2-0.8,2.7c0,0,0,0,0,0c0,0,0,0.1,0,0.2c0,0.1,0.2,0.2,0.3,0.1c0.4-0.9,0.7-1.9,0.9-2.9C33.3,53.2,32.8,53.1,32.8,53.4"/><path class="st8" d="M36.5,52c-0.2,0.8-0.4,1.9-0.6,2.5c-0.1,0.3-0.4,0.8,0.1,0.7c0.1,0,0.1-0.1,0.2-0.2c0.4-0.9,0.5-1.9,0.7-2.9C37,51.8,36.6,51.8,36.5,52"/><path class="st8" d="M37.5,47.5c-0.1,0.5-0.3,0.9-0.3,1.4c0,0.1,0.1,0.1,0.2,0.2c0.1,0,0.2-0.1,0.2-0.2c0.1-0.4,0.2-0.9,0.3-1.3C38,47.3,37.5,47.2,37.5,47.5"/><path class="st8" d="M40.4,42.4c-0.1,0.6-0.3,1.2-0.3,1.7c0,0.2,0.3,0.2,0.4,0.1c0.2-0.6,0.3-1.2,0.4-1.8C40.8,42.2,40.5,42.2,40.4,42.4"/><path class="st8" d="M45.3,41.2c-0.1-0.1-0.4-0.1-0.4,0.1c-0.2,0.6-0.4,1.3-0.6,1.9c0,0.1,0,0.1,0,0.2c0.1,0.1,0.3,0.1,0.4-0.1c0.1-0.5,0.3-1,0.4-1.4C45.2,41.6,45.4,41.4,45.3,41.2"/><path class="st8" d="M43.3,47.3c-0.1-0.2-0.5-0.1-0.5,0.1c-0.1,0.8-0.2,1.6-0.3,2.4c0,0.1-0.1,0.2,0,0.4c0,0.2,0.3,0.3,0.4,0.2c0.3-0.3,0.2-1,0.3-1.4C43.2,48.4,43.4,47.8,43.3,47.3"/><path class="st8" d="M42.1,54.1c-0.1-0.2-0.4-0.1-0.4,0.1c0,0.5-0.1,1-0.2,1.5c-0.1,0.2,0,0.4,0.2,0.4c0.2,0,0.3-0.2,0.3-0.3c0.1-0.3,0.1-0.6,0.1-0.9C42.1,54.5,42.2,54.3,42.1,54.1"/><path class="st8" d="M49.1,54c-0.1-0.2-0.4-0.1-0.5,0.1c-0.1,0.8-0.1,1.7-0.2,2.5c0,0.2-0.2,0.7,0.2,0.7c0.1,0,0.2-0.1,0.2-0.2c0.1-0.8,0.2-1.6,0.2-2.4C49.1,54.5,49.2,54.3,49.1,54"/><path class="st8" d="M47.4,47.5c-0.1-0.1-0.4-0.1-0.4,0.1c0,0.5-0.1,1-0.2,1.5c0,0.1,0,0.2,0.1,0.2c0.3,0.2,0.3-0.2,0.4-0.4c0-0.3,0.1-0.5,0.1-0.8C47.4,47.9,47.5,47.7,47.4,47.5"/><path class="st8" d="M48.9,41.7c-0.1-0.2-0.4-0.1-0.4,0.1c0,0.7-0.2,1.5-0.3,2.2c0,0.1,0.1,0.3,0.2,0.2c0.1,0,0.2-0.1,0.2-0.2c0.1-0.6,0.2-1.2,0.3-1.8C48.9,42.1,48.9,41.9,48.9,41.7"/><path class="st8" d="M50.4,49.9c-0.1,0.6-0.1,1.2-0.1,1.8c0,0.1,0.1,0.2,0.2,0.3c0.2,0,0.3-0.1,0.3-0.3c0-0.5,0.1-1,0.1-1.5C51,49.8,50.6,49.5,50.4,49.9"/><path class="st8" d="M53,56c-0.2-0.1-0.4,0-0.4,0.2c0,0.6,0,1.2,0,1.8c0,0.1,0.1,0.2,0.2,0.2c0.2,0.1,0.3-0.1,0.3-0.2c0-0.4,0-0.8,0-1.2C53.1,56.5,53.2,56.2,53,56"/><path class="st8" d="M51.8,41.4c-0.1-0.1-0.4-0.1-0.4,0.1c-0.1,1.1-0.1,2.2-0.3,3.3c0,0.3-0.3,1,0.1,1c0.3,0,0.2-0.4,0.2-0.5c0.1-0.9,0.2-1.9,0.3-2.8C51.8,42.1,51.9,41.8,51.8,41.4"/><path class="st8" d="M41.1,56.9c-0.2,0.8-0.4,1.9-0.6,2.4c-0.1,0.2,0.1,0.4,0.3,0.2c0.1-0.1,0.1-0.2,0.1-0.3c0.2-0.8,0.4-1.6,0.6-2.3C41.6,56.7,41.2,56.6,41.1,56.9"/><path class="st8" d="M45.2,58.5c0,0.5-0.2,1-0.1,1.4c0.6,0.5,0.5-1,0.6-1.4C45.7,58.3,45.3,58.2,45.2,58.5"/><path class="st8" d="M50,58.6c-0.1-0.2-0.4-0.1-0.5,0.1c0,0.7-0.1,1.8-0.1,2.1c-0.1,0.2,0,0.4,0.2,0.4c0.1,0,0.2-0.1,0.2-0.3c0.1-0.5,0.1-1.1,0.1-1.6C50,59.1,50.2,58.8,50,58.6"/><path class="st8" d="M36.9,57.2c-0.1,0.6-0.1,1.1-0.3,1.7c0,0.1,0.1,0.2,0.2,0.3c0.2,0,0.3-0.2,0.3-0.3c0.1-0.5,0.1-1,0.2-1.5C37.4,57,37,56.9,36.9,57.2"/><path class="st8" d="M14.3,58.7c-0.2,0.6-0.3,1.2-0.4,1.8c0,0.1,0.1,0.3,0.2,0.2c0.1,0,0.2-0.1,0.2-0.2c0.1-0.6,0.3-1.2,0.4-1.8C14.8,58.5,14.3,58.4,14.3,58.7"/><path class="st8" d="M18.6,56.1c-0.2,0.9-0.3,1.8-0.5,2.7c0,0.1-0.1,0.3-0.1,0.4c0,0.2,0.2,0.2,0.4,0.1c0.1-0.1,0.1-0.2,0.1-0.4c0.2-0.9,0.3-1.8,0.5-2.7C19.2,56,18.7,55.8,18.6,56.1"/><path class="st8" d="M27.1,57.3c-0.1-0.1-0.4,0-0.4,0.1c-0.2,0.6-0.4,1.2-0.6,1.8c0,0.1,0,0.2,0.1,0.2c0.2,0.1,0.4-0.1,0.4-0.2c0.1-0.4,0.3-1,0.4-1.1C27,57.8,27.3,57.5,27.1,57.3"/><path class="st8" d="M9.8,53.2c-0.1,0.9-0.3,1.8-0.5,2.7c-0.1,0.2,0.2,0.3,0.3,0.2c0.3-0.9,0.4-1.9,0.6-2.8C10.2,53,9.8,52.9,9.8,53.2"/><path class="st8" d="M10.4,59.1c-0.2,0.9-0.5,1.7-0.7,2.5c0,0.2,0.1,0.3,0.3,0.3c0.1,0,0.2-0.1,0.2-0.2c0.2-0.9,0.5-1.7,0.7-2.6C11.1,58.8,10.5,58.7,10.4,59.1"/><path class="st8" d="M31.7,56.6c-0.2,0.8-0.4,1.6-0.6,2.4c-0.1,0.2,0.2,0.4,0.4,0.2c0.3-0.7,0.5-1.8,0.7-2.6C32.3,56.4,31.8,56.3,31.7,56.6"/><path class="st8" d="M30.5,51.7c-0.2,0.8-0.4,1.6-0.6,2.5c-0.1,0.2,0.2,0.4,0.4,0.2c0.4-0.8,0.4-1.8,0.7-2.6C31,51.5,30.5,51.4,30.5,51.7"/></g><g><g><g><path class="st8" d="M54.9,32.4c-0.4-2.2-2.8-3.4-4.8-4.1c-0.1,0-0.2-0.1-0.2-0.1c0,0,0,0,0,0c0.7-0.6,1.8-1.2,1.9-2.2c-0.3-1.3-1.4-2.4-2.5-3.2c-1-0.6-2.2-0.8-3.4-1c-0.7,0-1.8,0-2.4,0c0,0,0,0,0,0c0-0.4,0.4-1.1,0.4-1.7c0.2-0.9-0.2-1.7-0.8-2.3c-0.3-0.3-0.6-0.7-1.1-1c-0.7-0.5-1.7-0.5-2.5-0.4c-0.7,0.1-1.3,0.4-1.9,0.7c0.6-1,0.4-2.2-0.5-3c-0.9-0.7-2.1-1.3-3.2-1.7c-1.5-0.3-3.2,0.2-4.3,1.3c0,0-0.1,0.1-0.1,0.1c-1.1-0.1-2.2,0-3.2,0.1c-2.4,0.3-4.3,2.6-4.3,5c-0.1-0.1-0.3-0.1-0.5-0.2c-2.7-0.9-8.7,1.1-10.2,3.5c-0.5,0.7-0.9,1.6-0.8,2.5c-2.3-0.6-5.9,0.9-7.6,2.1c-1.9,1.5-3.7,4.5-3,6.9c0.8,2.1,3.3,3.1,5.5,2.8c1.2-0.1,2.3-0.3,3.4-0.6c0.3-0.1,0.6-0.3,0.9-0.4c-0.7,2.6,2.1,4.3,4.6,4.4c0.8,0,1.6-0.4,2.4-0.6c1.3-0.5,3.1-1.1,4-1.8c1.7,5.9,8.1,4.4,11.8,1.3c0.4-0.3,0.8-0.7,1.2-1c0,0,0,0.1,0.1,0.1c0.5,0.9,1.2,1.7,2.2,2.1c1.4,0.5,3.3,0.6,4.4,0.1c2-0.6,4.6-1.7,4.5-4.1c0,0,0,0,0,0c0.2,0.1,0.4,0.2,0.6,0.3c1.2,0.9,2.9,0.7,4.3,0.6C52.5,36.4,55.3,35.2,54.9,32.4"/><g><path class="st3" d="M5.9,32.4c-0.2-0.1-0.5,0.1-0.8,0.1c-0.4,0.1-0.6,0.2-0.8,0.2c-0.4,0-0.9-0.5-1-0.8C3,31.1,4,30.2,4.5,29.5c0.1-0.1,0.3-0.2,0.3-0.4c0-0.2-0.2-0.3-0.3-0.2c-0.4,0.4-0.8,0.9-1.1,1.3c-0.3,0.4-0.6,0.8-0.5,1.3c0.1,0.7,0.7,1.4,1.4,1.5c0.4,0.1,0.8-0.2,1-0.2c0.2-0.1,0.6,0,0.7-0.2C6.1,32.6,6,32.4,5.9,32.4"/><path class="st3" d="M17.6,21.3c-0.6,0.1-1.2,0.4-1.8,0.6c-0.4,0.2-0.8,0.4-0.9,0.7c-0.2,0.3-0.3,0.7-0.3,1.1c0.1,0.6,0.6,1.3,1.2,1.3c0.2,0,0.4,0.1,0.6,0c0.2,0,0.2-0.3,0.1-0.4c-0.2-0.2-0.4-0.1-0.7-0.1c-0.3,0-0.6-0.4-0.8-0.9c-0.1-0.3,0-0.4,0.2-0.9c0.2-0.5,1.5-0.9,2.2-1.1c0.1,0,0.3,0,0.3-0.1C17.9,21.5,17.8,21.3,17.6,21.3"/><path class="st3" d="M13.5,30.2c-0.1,0-0.3,0.1-0.4,0.1c0,0-0.1,0-0.1,0c-0.7,0.2-1.5,0.1-1.9,0c-0.6-0.4-0.9-1-0.6-1.7c0.3-0.6,1-1.3,1.5-1.6c0.4-0.1,0.3-0.6-0.1-0.5c-0.5,0.2-0.8,0.6-1.1,0.9c-0.5,0.5-0.9,1-0.9,1.7c0.1,1.6,1.6,2.1,3,1.8c0.3-0.1,0.7-0.1,0.8-0.4C13.8,30.4,13.7,30.2,13.5,30.2"/><path class="st3" d="M16.9,35.5c-0.2,0-0.4,0.2-0.7,0.3c-0.5,0.2-0.9,0.4-1.1,0.4c-0.5,0-0.8-0.4-0.9-0.7c0.1-0.4,0.6-1.6,1.2-2.2c0.3-0.2,0-0.7-0.3-0.4c-0.5,0.6-0.9,1.3-1.2,2c-0.1,0.2-0.3,0.5-0.2,0.8c0.2,0.6,0.8,1.1,1.4,1c0.5,0,0.9-0.3,1.3-0.4c0.2-0.1,0.5-0.2,0.6-0.4C17.2,35.7,17.1,35.5,16.9,35.5"/><path class="st3" d="M28.6,37.5c-0.1-0.1-0.2-0.1-0.3-0.1c-0.3,0.1-0.5,0.3-0.8,0.4c-0.6,0.4-1.9,0.5-2,0.3c-0.1-0.1-0.1-1.2,0.1-1.7c0.2-0.4-0.2-0.7-0.4-0.3c-0.2,0.7-0.4,1.6-0.1,2.3c0.2,0.3,0.5,0.3,0.8,0.3c0.5,0,1-0.1,1.4-0.2c0.4-0.2,0.8-0.4,1.2-0.6C28.7,37.8,28.7,37.6,28.6,37.5"/></g></g><g><path class="st7" d="M23,23.3c0.1,0,0.3,0,0.5,0 M69.5,31.4c-0.9-1.2-1.9-2.3-3.3-3.1c-0.1-0.1-0.3-0.1-0.4-0.2c0-0.3,0.3-0.4,0.8-0.9c1.1-0.9,1.5-2.4,1.1-3.7c-0.6-1.5-2-2.7-3.4-3.7c-1.1-0.7-2.4-1-3.7-1.3c-0.6-0.1-1.6-0.2-1.9-0.3c0,0,0,0,0,0c-0.2-0.4,0.4-1.6,0.5-2.6c0.2-1.2-0.3-2.5-1.2-3.4c-0.6-0.5-1.3-0.8-2-1c-0.8-0.3-1.9-0.3-2.5-0.3c0,0,0-0.1,0-0.2c0.2-0.6,0.4-1.9,0.1-2.7c-0.2-0.5-0.6-0.9-0.9-1.3c-0.7-0.8-1.9-1.1-3-1.3c-0.9-0.1-1.7,0.2-2.4,0.6c-0.5,0.4-1.3,0.9-1.5,1.4c-1-0.3-2.2-0.5-3.2-0.4c-0.7,0.2-1.2,0.6-1.8,1c-1.3,1-3.1,2.3-2.3,4c0,0.1,0.1,0.1,0.1,0.1c-0.2,0-0.4,0-0.6,0.1c-1,0.1-1.9,0.5-2.8,1.1c-1,0.6-2,1.2-2.8,2c-0.7,0.7-1.1,1.8-0.7,2.7c0.1,0.2,0.2,0.4,0.3,0.6c0,0-0.1,0-0.1,0c-0.1,0-0.1,0-0.2,0c-0.6-0.2-1.3-0.4-1.9-0.5c-0.5-0.1-1.8-0.6-3,0.7c-0.8,0.6-0.9,2-0.9,3c-0.4,0.3-0.8,0.6-1.3,0.8c0,0,0,0,0,0c-0.1,0-0.1,0-0.1,0c-1-0.2-2,0-2.8,0.7c-0.8,0.6-1.5,1.4-2,2.3c-0.9,1.6-0.6,2.3,0.3,3.8c0.5,0.9,1,1.4,1.9,2.1c0.3,0.4,0.9,0.8,1.5,1.1c0.9,0.5,1.8,1,2.8,1.2c1.9,0.3,3.6,0.4,5.6,0c1.2-0.2,2.4,0,3.7,0.5c1.7,0.5,3.8,1.4,5.7,2.2c1.7,0.5,3.4,0.9,5.1,1.3c1.3,0.2,2.4,0.1,3.6,0.1c1.1-0.1,2.2-0.3,3.3-0.5c0.7-0.2,1.2-0.4,1.8-0.3c1.1,0,2.2,0.4,3.3,0.5c1.5,0.2,2.8,0.3,4.4-0.2c0.5-0.2,1-0.4,1.5-0.5c0.2,0,0.4-0.1,0.6-0.1c1.2-0.2,2.5-0.5,3.6-1.1C69.8,34.9,70.4,33,69.5,31.4"/><g><path class="st7" d="M28.7,18.7C28.7,18.7,28.7,18.7,28.7,18.7C28.7,18.7,28.7,18.7,28.7,18.7C28.6,18.7,28.6,18.8,28.7,18.7"/><path class="st3" d="M24.7,26.7c0.1-0.1,0.3-0.1,0.5-0.2c0.2-0.2,0-0.5-0.2-0.4c-0.9,0.4-3,1.5-2.5,2.8c0.2,0.4,0.5,0.7,0.9,0.9c0.2,0.1,0.4,0.2,0.7,0.2c0.1,0,0.2,0.1,0.5,0.1c0.1-0.1,0.2-0.3,0.1-0.4c-0.1-0.1-0.4-0.1-0.6-0.2c-0.4,0-1.2-0.5-1.2-1.1C22.8,27.9,23.8,27.2,24.7,26.7"/><path class="st3" d="M33.5,21.2c-1-0.3-2.5-0.1-3.1,1c-0.3,1,0.5,1.6,1.1,2c0.3,0.1,0.3,0.3,0.6,0.2c0.1-0.1,0.2-0.3,0.1-0.4c-0.1-0.1-0.2-0.1-0.4-0.2c-0.2-0.1-0.6-0.4-0.9-0.7c0,0-0.1-0.1-0.1-0.1c0,0,0,0,0,0c0,0,0,0,0,0c-0.2-0.5,0-1,0.8-1.3c0.3-0.1,1.2-0.3,1.5-0.2c0.1,0,0.3,0.1,0.4,0.1C33.6,21.5,33.6,21.3,33.5,21.2"/><path class="st3" d="M42.3,15.1c-1-0.2-2.1-0.4-3,0.2c-0.5,0.4-0.9,1-1.2,1.7c-0.1,0.6,0,1.2,0.3,1.6c0.4,0.4,0.8,0.7,1.3,0.8c0.1,0.1,0.3,0.1,0.4,0c0.3-0.4-0.3-0.5-0.5-0.6c-0.2-0.1-0.7-0.4-0.7-0.5c-0.7-0.8-0.2-1.7,0.5-2.4c0.6-0.6,1.5-0.5,2.5-0.3c0.1,0,0.3,0.1,0.5,0C42.6,15.4,42.5,15.1,42.3,15.1"/><path class="st3" d="M48.8,10.1c-0.5-0.3-1-0.6-1.6-0.8c-0.5-0.1-1-0.1-1.4,0.1c-0.2,0.1-0.4,0.2-0.5,0.5c-0.1,0.9-0.1,2,0.3,2.8c0.2,0.2,0.4-0.1,0.3-0.3c-0.4-0.6-0.3-2.2-0.2-2.4c0.3-0.2,1.2-0.3,1.5-0.2c0.5,0.2,1,0.6,1.5,0.8C49,10.6,49,10.2,48.8,10.1"/><path class="st3" d="M52.8,15.4c-1.3-0.2-2.8,0.2-3.5,1.5c-0.3,0.8,0,1.8,0.7,2.2c0.5,0.4,1.2,0.5,1.8,0.8c0.1,0.1,0.3,0.1,0.4,0c0.3-0.5-0.4-0.6-0.7-0.7c-0.6-0.2-1-0.4-1.5-0.7c-0.8-0.7-0.3-2,1-2.4c0.4-0.1,1.2-0.2,1.8-0.2C53.1,15.8,53.1,15.4,52.8,15.4"/><path class="st3" d="M44.2,23.8c0.5-0.3,1-0.3,1.6-0.5c0.2-0.1,0.1-0.5-0.1-0.4c-0.6,0.1-1.4,0.2-1.9,0.7c-0.9,1.2-0.3,2,0.8,2.6c0.7,0.3,0.7-0.5,0.2-0.5c-0.5-0.2-1.1-0.8-1-1C43.8,24.4,44.1,23.9,44.2,23.8"/><path class="st3" d="M38.8,27c-0.1-0.1-0.2,0-0.3-0.1c-1.1-0.1-1.6-0.8-1-1.6c0.5-0.5,1-0.7,1.7-1.1c0.2-0.2,0-0.5-0.2-0.4c-0.7,0.3-1.5,0.7-1.9,1.5c-0.5,1.1,0.4,1.8,1.3,2c0.2,0,0.4,0.1,0.6,0C38.9,27.2,38.9,27,38.8,27"/><path class="st3" d="M33.1,31.1C33,31,32.9,31,32.8,31c0,0-0.1,0-0.1,0c-1.8-0.5-1.4-1.6,0-2.8c0.2-0.2,0.4-0.2,0.6-0.5c0.1-0.2-0.1-0.4-0.3-0.3c-0.7,0.5-1.7,1.3-2,2.3c-0.2,1.1,0.9,1.8,1.7,2C33,31.6,33.3,31.4,33.1,31.1"/><path class="st3" d="M45.5,29.6c-1.2,0.3-3.6,1.1-3.6,2.7c0.2,1.1,1.3,1.6,2.2,1.6c0.2,0,0.5,0.1,0.6-0.1c0.1-0.1,0.1-0.3,0-0.4c-0.2-0.1-0.4,0-0.6,0c-0.8,0-1.7-0.5-1.8-1.2c0-0.2,0.3-0.7,0.7-1c0.6-0.5,1.6-0.9,2.4-1.1c0.1,0,0.2,0,0.3-0.1C45.8,29.8,45.7,29.6,45.5,29.6"/><path class="st3" d="M53,27.3c-0.3-0.1-0.3,0-0.5,0c-1.5,0-1.9-0.9-0.9-1.9c0.5-0.6,1-1.1,1.5-1.4c0.2-0.1,0.1-0.6-0.2-0.4c-0.6,0.3-1.1,0.8-1.5,1.3c-0.3,0.4-0.7,0.8-0.8,1.3c-0.1,1.2,1.1,1.6,2,1.6c0.2,0,0.2,0,0.4-0.1C53.1,27.6,53.1,27.4,53,27.3"/><path class="st3" d="M63.3,24.5c-0.3-0.1-0.3,0-0.6,0.1c-0.9,0.2-1.9,0.3-2.5-0.3c-0.2-0.2-0.3-0.4-0.1-0.8c0.3-0.6,0.8-1.2,1.4-1.8c0.2-0.2-0.1-0.6-0.3-0.4c-3,2.5-1.6,4.4,1.7,3.7c0.1,0,0.3,0,0.4-0.2C63.4,24.8,63.4,24.6,63.3,24.5"/><path class="st3" d="M63.9,31.5c-0.3-0.1-0.6,0.1-0.9,0.1c-0.4,0.1-1.1,0.4-1.4,0.4c-0.4,0-0.7-0.3-0.8-0.8c0-0.6,0.2-1.5,0.5-2.2c0.1-0.3-0.3-0.5-0.4-0.2c-0.4,0.7-0.5,1.6-0.6,2.4c0.1,0.6,0.5,1.2,1,1.3c0.7,0.1,1.3-0.3,2-0.4c0.1,0,0.3,0,0.4-0.1C64,31.9,64,31.6,63.9,31.5"/><path class="st3" d="M53.7,34.3c-0.2-0.1-0.2,0-0.6,0c-0.3,0-1.1,0.2-1.3,0.1c-0.4-0.2-0.6-0.4-0.7-0.7c0-0.5,0.4-1.6,0.8-2.1c0.2-0.2-0.2-0.5-0.3-0.3c-0.4,0.8-0.9,1.6-0.9,2.6c0.1,0.5,0.5,0.8,0.8,1c0.6,0.2,1.4-0.1,1.7-0.1c0.1,0,0.3,0,0.4-0.1C53.8,34.6,53.8,34.4,53.7,34.3"/><path class="st3" d="M56.8,29.7c0,0-0.3-0.1-0.3-0.1c-0.3-0.1-0.5-0.3-0.6-0.4c-0.1-0.2,0.3-1.4,0.6-1.8c0.1-0.2,0.3-0.3,0.3-0.5c0-0.2-0.3-0.2-0.4-0.1c-0.5,0.7-1.4,2.4-0.5,3c0.2,0.2,0.6,0.4,0.9,0.3C56.9,29.9,56.9,29.7,56.8,29.7"/><path class="st3" d="M60,35c-0.5,0.4-0.9,0.6-1.2,0.4c0,0,0,0,0,0c-0.1-0.1,0-0.9,0-1.1c0-0.2,0.2-0.4,0.1-0.5c-0.1-0.2-0.3-0.2-0.4,0c-0.2,0.6-0.4,1.3-0.1,1.9c0.4,0.5,1.3,0,1.4-0.2c0.1-0.1,0.2-0.1,0.3-0.2C60.3,35.1,60.1,34.9,60,35"/><path class="st3" d="M67.9,33.5c0-0.1-0.1-0.2-0.3-0.2c-0.2,0.1-0.3,0.3-0.4,0.4c-0.6,1.1-1.6,1-2.4,0.3c-0.2-0.2-0.5,0.2-0.3,0.4c0.5,0.6,2,1.1,2.7,0.1c0.2-0.2,0.3-0.5,0.5-0.7C67.9,33.7,67.9,33.6,67.9,33.5"/></g></g></g><g><path class="st7" d="M37.7,4.2c-0.4-0.3-0.9-0.6-1.4-0.8c0.2-0.2,0.3-0.4,0.3-0.7c0.3-1.4-1-2.3-2.3-2.6C33.7,0,33.3,0,32.5,0c-0.9,0-1.8,0.5-2.3,1.2c-0.1,0.1-0.1,0.2-0.2,0.2c0,0,0-0.1-0.1-0.1c-0.4-0.3-0.9-0.4-1.5-0.5C27.8,0.7,27,0.7,26.3,1c-0.9,0.4-1.2,1.4-1.1,2.3c0,0,0,0,0,0c-0.5-0.2-1.1-0.2-1.6-0.1c-0.7,0.1-1.4,0.1-2,0.3c-1.3,0.3-3.2,1.3-3,2.9c0,0.1,0,0.2,0.1,0.3c-0.1,0-0.2,0-0.3,0c-1.2,0-1.9,0.3-3,0.6c-1.2,0.4-2.4,0.9-3.2,2c-1.1,1.6-1.1,3.5,1.1,4c1.6,0.3,3.3-0.3,4.7-1.1c0.3-0.1,0.4-0.3,0.6-0.5c0.3,0.9,1.4,1.7,2.3,1.8c1.3,0,2.5-1,3.5-1.7c0.1,0.3,0.1,0.5,0.3,0.8c0.4,0.5,0.9,1,1.6,1.1c1.2,0.2,2.3-0.6,3.2-1.4c0.3-0.3,0.4-0.6,0.6-1c0.5,0.6,1.3,0.9,2.1,0.6c1.3-0.4,3-0.9,3.3-2.3c0-0.5-0.1-1-0.3-1.4c0.2,0,0.4,0,0.6,0c0.8-0.1,1.5-0.4,2.1-1c0.3-0.4,0.6-0.9,0.7-1.4C38.5,5,38.1,4.5,37.7,4.2"/><g><path class="st3" d="M15.1,10.8c-0.3,0.1-1,0.1-1,0.1c-0.3-0.2-0.2-0.6,0-0.8c0.4-0.3,0.7-0.6,1.1-0.8c0.2-0.1,0-0.4-0.2-0.3c-0.4,0.2-0.7,0.5-1,0.7c-0.2,0.2-0.4,0.3-0.5,0.6c-0.1,0.4,0.1,0.9,0.5,1.1c0.3,0.1,0.7,0,1,0c0.2,0,0.4-0.1,0.4-0.2C15.6,10.8,15.3,10.7,15.1,10.8"/><path class="st3" d="M23.6,4.4C23,4.5,22.5,4.6,22,4.9C21.6,5,21.2,5.2,21,5.6c-0.2,0.3-0.1,0.7,0.2,0.9c0.3,0.2,0.7,0.2,1,0.2c0.1,0,0.5,0,0.7,0c0.2-0.1,0.1-0.5-0.2-0.4c-1.1,0.1-2.1-0.2-0.9-0.9c0.4-0.2,1.2-0.5,1.8-0.5C23.9,4.8,23.9,4.4,23.6,4.4"/><path class="st3" d="M21.9,10.8c-0.1-0.1-0.3,0-0.4,0.1c0,0-0.1,0-0.2,0c-0.9,0.2-1.2-0.3-0.9-0.8c0.4-0.4,0.9-0.7,1.5-0.9c0.3-0.1,0.1-0.5-0.1-0.4c-0.7,0.3-1.6,0.6-1.8,1.4c-0.3,1.1,0.9,1.4,1.7,1c0.1,0,0.2-0.1,0.3-0.1C22.1,11.1,22,10.9,21.9,10.8"/><path class="st3" d="M29.1,9.8c-0.6,0.2-1.6,0.6-1.8,0.7c-0.3,0-0.3,0-0.5-0.4c-0.1-0.3-0.1-0.5,0-0.8c0.3-0.5,0.8-1.1,1.4-1.5c0.2-0.1,0-0.5-0.2-0.3c-0.5,0.3-1,0.8-1.3,1.3c-0.4,0.4-0.4,1-0.2,1.6c0.5,1,1.5,0.1,2.2-0.1c0.2-0.1,0.6-0.1,0.7-0.3C29.5,9.8,29.3,9.7,29.1,9.8"/><path class="st3" d="M30.1,3.2C29.6,3,29,3,28.4,3c-0.4,0-0.8,0.1-1.1,0.4c-0.7,0.8,0.2,1.5,1,1.5c0.2,0,0.5,0.2,0.7,0.1c0.2-0.2-0.1-0.4-0.3-0.4c-0.6-0.1-1-0.2-1.2-0.5c-0.1-0.1,0-0.5,0.4-0.6c0.6-0.2,1.4-0.2,2.2,0.1C30.3,3.7,30.4,3.3,30.1,3.2"/><path class="st3" d="M34.3,5.6c-0.4,0.1-0.7,0.2-1,0.1c-0.9-0.4-0.1-0.8,0.6-1.5c0.1-0.1,0.2-0.2,0.4-0.4c0.1-0.1,0.2-0.1,0.2-0.2c0-0.2-0.2-0.3-0.3-0.2c-0.5,0.4-0.9,0.8-1.4,1.3c-0.2,0.2-0.4,0.6-0.3,0.9c0.3,0.6,1.1,0.7,1.6,0.5C34.5,6,34.6,5.7,34.3,5.6"/><path class="st3" d="M33.3,9.8c-0.3,0.1-0.4,0.1-0.5,0.1c-0.1,0-0.1-0.4,0-0.8c0-0.1,0.2-0.3,0.1-0.4c-0.1-0.2-0.3-0.2-0.4,0c-0.4,0.8-0.4,2.1,0.9,1.5C33.6,10.1,33.5,9.7,33.3,9.8"/><path class="st3" d="M33.9,1.1c-0.5-0.1-1,0-1.5,0.2c-0.3,0.1-0.6,0.2-0.6,0.5c-0.1,0.2-0.1,0.5,0.1,0.6c0.2,0.1,0.4-0.1,0.3-0.3c0,0,0,0,0,0c0,0,0,0,0,0c0,0,0-0.1,0-0.1c0,0,0,0,0,0c0.2-0.2,1.1-0.4,1.4-0.4c0.1,0,0.3,0.1,0.4,0C34.2,1.4,34.1,1.1,33.9,1.1"/></g></g></g></g></g></svg>