<?xml version="1.0" encoding="utf-8"?>
<!-- Generator: Adobe Illustrator 27.0.0, SVG Export Plug-In . SVG Version: 6.00 Build 0)  -->
<svg version="1.1" xmlns="http://www.w3.org/2000/svg" xmlns:xlink="http://www.w3.org/1999/xlink" x="0px" y="0px"
	 viewBox="0 0 71.6 64.8" style="enable-background:new 0 0 71.6 64.8;" xml:space="preserve">
<style type="text/css">
	.st0{fill:#FFFFFF;}
	.st1{fill:#8CA2CF;}
	.st2{clip-path:url(#SVGID_00000183934399438461335220000011369312837817213089_);}
	.st3{fill:#627EB5;}
	.st4{fill:#8CA05C;}
	.st5{fill:#677724;}
	.st6{fill:#E0A955;}
	.st7{fill:#BBD7FF;}
	.st8{fill:#3C5987;}
	.st9{clip-path:url(#SVGID_00000087395719438266292500000015842353544137772991_);}
	.st10{fill:#669CD3;}
	.st11{clip-path:url(#SVGID_00000085246523385782942380000015446264325442723762_);}
	.st12{fill:#92C4FC;}
	.st13{fill:#FAF4D2;}
	.st14{fill:#FCCB7C;}
	.st15{clip-path:url(#SVGID_00000052082681151771046710000009402178518388671653_);}
	.st16{clip-path:url(#SVGID_00000047762842984900010410000009226874109069978814_);}
	.st17{fill:#C5CAF0;}
	.st18{clip-path:url(#SVGID_00000080920528433313130550000005910071076488873620_);}
	.st19{clip-path:url(#SVGID_00000150787728063634736630000018341622784271892376_);}
	.st20{clip-path:url(#SVGID_00000140711179615360586350000004869676138955617676_);}
	.st21{clip-path:url(#SVGID_00000068659640350824365950000002603805741791004040_);}
	.st22{fill:#F9CC3D;}
	.st23{fill:#FFEAAE;}
	.st24{fill:#FFECB8;}
	.st25{fill:#D3AA37;}
	.st26{fill:#FFE08A;}
	.st27{clip-path:url(#SVGID_00000007409934619746287780000008898617914632912551_);}
	.st28{clip-path:url(#SVGID_00000154417706432958775250000002686813109709319613_);}
	.st29{clip-path:url(#SVGID_00000048461056642237115330000007223724370694371475_);}
	.st30{clip-path:url(#SVGID_00000106839616881347165800000015040313548137102782_);}
	.st31{clip-path:url(#SVGID_00000180360726105966359000000000375972277975589027_);}
	.st32{clip-path:url(#SVGID_00000098208877665210800650000017657507141734548892_);}
	.st33{clip-path:url(#SVGID_00000124856566054290500790000014160439680168120249_);}
	.st34{clip-path:url(#SVGID_00000140704471060545016480000007747318904859023754_);}
</style>
<g id="BACKGROUND">
</g>
<g id="OBJECTS">
	<g>
		<g>
			<path class="st1" d="M67.5,28.8c-0.1-0.7-0.1-2.3-0.7-4.5c-0.4-1.5-0.8-3.1-1.3-4.6c-0.8-1.6-0.6-1.1-1.2-2.4
				c-0.2-0.4-0.6-1.4-1.7-2.6c-1.3-1.3-2.5-2.8-4.1-4c-2.1-1.5-3.8-2.8-5-3.5c-2.6-1.3-4.7-2.3-6.4-2.8c-2.2-0.5-3.3-0.6-4.6-0.8
				c0,0,0,0,0.1,0c0,0,0,0-0.1,0c-0.1,0-0.1,0-0.2,0c-0.5,0-0.1,0,0.1,0c-0.2,0-0.4-0.1-0.6-0.1c-0.4-0.1-0.7-0.1-1.1-0.2
				c0,0,0,0,0,0c-0.1,0-0.3,0-0.4-0.1c0,0,0.1,0,0.2,0c-3.3-0.5-4.3-0.9-7.7-0.5c0,0-0.1,0-0.3,0c-1.4,0-2.8,0.5-4.2,0.8
				c-1.5,0.3-1.1,0.1-3.1,0.5c-2.2,0.6-2.3,0.7-4.6,1.7c-0.7,0.2-1.4,0.6-2,0.9C17.8,7.2,17,7.5,16.2,8c-2,1.3-4,2.7-5.8,4.2
				c-1.8,1.6-3.3,3.5-4.8,5.3c-1.8,2.3-3.5,4.7-4.3,7.4c-0.9,2.3-1,4.8-1.1,7.2c0,1.6,0,3.6,0.2,4.1c0,0.1,0,0.2,0.1,0.3
				c0.1,1,0.4,1.9,0.6,2.8c0.3,0.8,0.5,1.6,0.9,2.4c0.1,0.3,0.1,0.6,0.2,0.8C3,45.6,3.5,45.4,4,47.4c0,0.1,0,0.2,0.1,0.3
				c0,0.2,0.1,0.7,0,0.9c0,1.2-0.1,2.5-0.2,3.7c-0.2,1-0.3,2.1-0.3,3.1c0,1,0,2,0.5,2.9c1.1,2.6,4.4,3.8,7.3,4.4
				c2.1,0.5,4.3,0.2,6.5,0.2c3.1-0.2,6.2-0.1,9.2-1c2.2-0.6,1.9-0.8,3.7-0.8c0.2,0,0.3,0,0.4,0c0.2,0,0.4,0.1,0.7,0.2
				c0.3,0.1,0.6,0.3,1,0.4c0.8,0.4,1.5,0.9,2.4,1.3c1.3,0.5,2.8,0.8,4.3,1c1.5,0.3,3.1,0.6,4.6,0.3c1-0.1,1.8-0.5,2.8-0.8
				c0.6-0.2,1.3-0.3,1.9-0.6c1.8-0.6,2.6-0.8,4.8-2.1c0.8-0.4,1.4-0.9,2-1.5c1-0.7,1.9-1.6,2.6-2.5c0.2-0.1,1.6-1.7,2.4-3
				c1-1.3,0.7-0.9,1.9-2.2c0.6-0.8,1.2-1.6,1.6-2.5c1-2.5,1.6-5,2.4-7.5c0.3-1.5,0.5-3,0.7-4.5c0.2-1.3,0.3-1.3,0.4-3.2
				C67.6,32.2,67.7,30.5,67.5,28.8"/>
			<g>
				<defs>
					<path id="SVGID_00000116223592051501166970000014003232877193020042_" d="M67.5,28.8c-0.1-0.7-0.1-2.3-0.7-4.5
						c-0.4-1.5-0.8-3.1-1.3-4.6c-0.8-1.6-0.6-1.1-1.2-2.4c-0.2-0.4-0.6-1.4-1.7-2.6c-1.3-1.3-2.5-2.8-4.1-4c-2.1-1.5-3.8-2.8-5-3.5
						c-2.6-1.3-4.7-2.3-6.4-2.8c-2.2-0.5-3.3-0.6-4.6-0.8c0,0,0,0,0.1,0c0,0,0,0-0.1,0c-0.1,0-0.1,0-0.2,0c-0.5,0-0.1,0,0.1,0
						c-0.2,0-0.4-0.1-0.6-0.1c-0.4-0.1-0.7-0.1-1.1-0.2c0,0,0,0,0,0c-0.1,0-0.3,0-0.4-0.1c0,0,0.1,0,0.2,0c-3.3-0.5-4.3-0.9-7.7-0.5
						c0,0-0.1,0-0.3,0c-1.4,0-2.8,0.5-4.2,0.8c-1.5,0.3-1.1,0.1-3.1,0.5c-2.2,0.6-2.3,0.7-4.6,1.7c-0.7,0.2-1.4,0.6-2,0.9
						C17.8,7.2,17,7.5,16.2,8c-2,1.3-4,2.7-5.8,4.2c-1.8,1.6-3.3,3.5-4.8,5.3c-1.8,2.3-3.5,4.7-4.3,7.4c-0.9,2.3-1,4.8-1.1,7.2
						c0,1.6,0,3.6,0.2,4.1c0,0.1,0,0.2,0.1,0.3c0.1,1,0.4,1.9,0.6,2.8c0.3,0.8,0.5,1.6,0.9,2.4c0.1,0.3,0.1,0.6,0.2,0.8
						C3,45.6,3.5,45.4,4,47.4c0,0.1,0,0.2,0.1,0.3c0,0.2,0.1,0.7,0,0.9c0,1.2-0.1,2.5-0.2,3.7c-0.2,1-0.3,2.1-0.3,3.1
						c0,1,0,2,0.5,2.9c1.1,2.6,4.4,3.8,7.3,4.4c2.1,0.5,4.3,0.2,6.5,0.2c3.1-0.2,6.2-0.1,9.2-1c2.2-0.6,1.9-0.8,3.7-0.8
						c0.2,0,0.3,0,0.4,0c0.2,0,0.4,0.1,0.7,0.2c0.3,0.1,0.6,0.3,1,0.4c0.8,0.4,1.5,0.9,2.4,1.3c1.3,0.5,2.8,0.8,4.3,1
						c1.5,0.3,3.1,0.6,4.6,0.3c1-0.1,1.8-0.5,2.8-0.8c0.6-0.2,1.3-0.3,1.9-0.6c1.8-0.6,2.6-0.8,4.8-2.1c0.8-0.4,1.4-0.9,2-1.5
						c1-0.7,1.9-1.6,2.6-2.5c0.2-0.1,1.6-1.7,2.4-3c1-1.3,0.7-0.9,1.9-2.2c0.6-0.8,1.2-1.6,1.6-2.5c1-2.5,1.6-5,2.4-7.5
						c0.3-1.5,0.5-3,0.7-4.5c0.2-1.3,0.3-1.3,0.4-3.2C67.6,32.2,67.7,30.5,67.5,28.8"/>
				</defs>
				<clipPath id="SVGID_00000062183196723541102750000014771773593724362416_">
					<use xlink:href="#SVGID_00000116223592051501166970000014003232877193020042_"  style="overflow:visible;"/>
				</clipPath>
				<g style="clip-path:url(#SVGID_00000062183196723541102750000014771773593724362416_);">
					<path class="st5" d="M64.7,52.1c-0.1-0.3,0-0.3-0.1-0.6l0,0c0-0.1,0-0.2-0.1-0.3c0,0,0-0.1,0-0.1c0-0.1,0-0.2,0-0.3
						c0.1-0.2,0-0.3,0-0.5c-0.1-0.1,0-0.1-0.2-0.3c0,0,0,0,0,0c0,0,0-0.1-0.1-0.1c-0.2-0.2-0.2-0.1-0.3-0.4
						c-0.2-0.2-0.5-0.4-0.7-0.5c0,0,0,0-0.1-0.1c-0.3-0.3-0.3-0.2-0.5-0.3c-0.5-0.2-0.5-0.2-0.8-0.4c-1.1-0.5-2.4-0.8-3.6-1
						c-1.1-0.2-2.1-0.5-3.2-0.5c-2-0.2-3.5-0.4-5.6-0.5c-2.8,0-6,0.2-8.4,0.6c-1.8,0.1-3.6,0.6-5.3,0.9c-2.7,0.4-5.2,1.3-7.7,2.2
						c-2.9,0.9-6.2,2-9.2,3.3c-1.6,0.7-3.2,1.3-4.6,1.8c-1.5,0.5-2.7,1-4.2,0.9c-1.3-0.1-2.9-0.5-4.4-0.9c-0.1,0-0.1,0-0.2-0.1
						c-0.2-0.1-0.3-0.2-0.5-0.4c-0.4-0.3-0.3-0.3-0.7-0.6c-0.3-0.1-0.7,0-0.7,0.3c-0.1,0.5,0,0.9-0.1,1.4c0,0.2,0,0.4,0,0.6
						c-0.1,0.9,0,1.8,0.6,2.6c0.5,0.8,1.3,1.4,2.2,2c0.6,0.4,1.3,0.7,2,0.9c0.3,0.2,0.6,0.4,0.9,0.6c2.3,1.1,4.5,1.1,7,1.2
						c1.5,0,3,0.2,4.5,0.2c2.8-0.3,5.4-1,8.1-1.7c1.1-0.3,1.8-0.4,2.6-0.2c1.1,0.3,2.7,1.1,3.9,1.8c1,0.6,2.1,1.1,3.3,1.5
						c0.8,0.3,1.7,0.3,2.5,0.5c3,0.5,6.1,0,8.9-0.9c1.4-0.4,2.5-1.1,3.7-1.7c1.4-0.7,2.7-1.5,4.1-2.5c2-1.4,3-2.8,4.4-4.3
						c0.7-1,1.3-1.5,2.2-2.2C64.5,53.5,64.8,52.8,64.7,52.1"/>
					<g>
						<path class="st4" d="M59.5,52c-2.9-2.6-8.2-3.3-12.4-3.3c-5.5-0.2-10.9,1.4-16.3,2.9c-2.9,1.1-4.8,1.8-7.1,2.5
							c-1.2,0.5-2,0.7-3.2,1.2c-1.7,0.7-3.2,1.4-5,1.9c-1.8,0.7-4.7,1.5-6.6,0.8c-0.9-0.4-1.8-0.7-2.4-1.2c-0.1-0.1-0.3-0.1-0.4,0
							c-0.1,0.1-0.1,0.2,0,0.3c1.6,1.1,3.3,1.8,5.3,1.6c1.3-0.1,2.8-0.5,4.1-1c1.2-0.4,2.6-0.8,3.9-1.4c2.4-1,4.2-1.5,6.5-2.3
							c1-0.4,1.9-0.7,3.1-1.1c1-0.3,1.5-0.7,2.4-0.8c3.5-1,7.1-2,10.8-2.5c2.2-0.3,5.3-0.4,8.1-0.1c2.2,0.2,4.9,0.8,7,1.9
							c0.8,0.5,1.8,1,1.9,1.8c0.4,1.2-0.9,2.6-2.2,3.8c-2.3,1.8-6.1,2.3-8.6,1.1c-1.5-0.7-2-1.6-1-2.8c0.1-0.2,1.4-1.1,1.4-1.1
							c1.4-0.4,2.5-0.6,3.3-0.2c1,0.5,0.6,1.2-1,1.8c0,0,0,0,0,0c-0.1,0-0.2,0-0.3,0c-0.3,0.1-0.3,0.4-0.1,0.5
							c0.6,0.3,1.2-0.2,1.7-0.4c1.5-0.8,1.4-2.1-0.3-2.6c-1.2-0.3-2.6,0-3.7,0.4c-1.2,0.7-2.4,1.7-2.3,3c0.4,1.7,2.8,2.4,4.6,2.6
							c2.5,0.2,4.6-0.4,6.4-1.6C59,56.3,61.2,54,59.5,52"/>
						<path class="st4" d="M44,52.2c-2.8,0.4-5.6,0.9-8.3,1.5c-1.9,0.3-3.7,0.8-5.5,1.4c-2.6,0.9-5.1,2-7.5,3.2
							c-0.9,0.5-2.1,0.8-2.8,1.6c-0.3,0.5,0.2,0.9,0.7,1.1c0.5,0.2,1.1,0.2,1.6,0.2c0.8,0,1.5,0,2.3-0.2c1.2-0.2,2.5-0.5,3.3-1.2
							c0.9-0.6,0.2-1.6-0.9-1.6c-0.8-0.2-2.8,0.7-1.7,1.3c0.3,0.2,0.8,0.2,0.8-0.2c0-0.2-0.1-0.2-0.2-0.3c0.2-0.2,0.7-0.4,1.1-0.3
							c0.2,0,0.3,0,0.6,0.3c0,0,0,0,0,0.1c0,0,0,0,0,0c0,0,0,0.1,0,0.1c0,0,0,0,0,0.1c-0.1,0.1-0.3,0.3-0.5,0.5c0,0,0,0,0,0
							c-0.1,0-0.4,0.1-0.2,0.1c-1.2,0.5-2.5,0.8-3.8,0.8c-1.3,0.1-2.3,0-2.4-0.4c0,0,0,0,0,0c0,0,0,0,0,0c0,0,0,0,0,0c0,0,0,0,0,0
							c0,0,0,0,0,0c0,0,0,0,0,0l0,0c0,0,0,0,0,0c0,0,0,0,0,0c0,0,0,0,0,0c0,0,0,0,0,0c0,0,0-0.1,0.1-0.1c0.4-0.4,0.7-0.4,1-0.6
							c2.8-1.4,5.8-2.8,8.8-3.9c3.9-1.4,8.7-2.1,13.1-2.9c0.2-0.1,0.5,0,0.7-0.2C44.4,52.4,44.2,52.2,44,52.2"/>
						<polygon class="st4" points="20.6,60.2 20.6,60.2 20.6,60.2 						"/>
						<path class="st4" d="M45.9,60.9c-0.3-1.2-1.7-1.9-3-2.6c-1.3-0.7-2.7-1.5-4.3-1.6c-0.9-0.1-2.2-0.3-3.3,0
							c-1.2,0.2-2.2,0.6-3.2,1.1c-0.1,0-0.1,0.1-0.2,0.2c-0.1,0.2,0.2,0.4,0.5,0.3c1.6-0.8,3.5-1.3,5-1.1c1.7,0.1,2.8,0.5,4.4,1.3
							c1.5,0.8,3,1.4,3.3,2.6c0.1,0-0.1,0.7-0.2,0.9c-0.4,0.5-0.7,0.8-1.4,1.1c-0.4,0.2-1.6,0.2-2.6,0.1c-0.4-0.1-1.8-0.5-2.3-0.7
							C38,62.3,38,62.3,37.5,62c-0.9-0.4-1.8-0.9-1.7-1.1c0-0.2,0.3-0.7,0.9-0.9c0.3-0.1,1.5-0.2,2.3,0.1c0,0,0.1,0,0.2,0.1
							c0.2,0.1,0.4,0.2,0.3,0.2c0,0,0.1,0,0.1,0.1c0,0,0,0,0.1,0c0,0,0,0,0.1,0.1c0,0,0,0,0,0c0,0.3,0,0.3-0.1,0.4c0,0,0,0,0,0
							c0,0,0,0,0,0c-0.1,0-0.1,0-0.1,0c-0.2,0-0.3,0-0.5,0c-0.4-0.2-0.8,0.2-0.5,0.5c0.2,0.2,0.5,0.1,0.7,0.1c0.4,0,0.8-0.1,1-0.3
							c0.2-0.3,0.3-0.7,0.1-1.1c-0.1-0.3-0.4-0.5-0.7-0.6c-1.1-0.6-2.8-0.7-3.9-0.1c-0.8,0.5-1.3,1.4-0.5,2c0.4,0.3,0.9,0.5,1.3,0.7
							c0.5,0.2,0.9,0.5,1.4,0.5c0.6,0.1,1.5,0.5,2.4,0.7c0.7,0.1,1.4,0.1,2.1,0.1C44.4,63.8,46.2,62.4,45.9,60.9"/>
						<path class="st4" d="M16,61.4c-0.3-0.7-1.3-1-2.1-1.3c-1.9-0.3-3.9-0.1-5.7,0.3c-0.2,0.1,0,0.4,0.2,0.4
							c1.1-0.2,2.1-0.3,3.3-0.3c1,0,1.8,0,2.5,0.3c1.2,0.4,1.3,0.9,0.7,1.3c-0.1,0.1-0.5,0.1-0.9,0.1c-0.2,0-0.5,0-0.7,0
							c0.1-0.1,0.1-0.1,0.3-0.2c0,0,0,0,0.1,0c0.1,0,0.2-0.1,0.2-0.2c0-0.6-1-0.1-1.2,0.2c-0.4,0.5,0.1,0.8,0.7,0.8
							c0.8,0,1.2,0,1.9-0.2C15.7,62.3,16,61.9,16,61.4"/>
						<path class="st4" d="M62.2,52.7c-0.2-0.5-0.3-0.6-0.6-1.1c0-0.2-0.6-1-1.3-1.4C59.1,49.4,58,49,57,48.7
							c-0.7-0.3-1.8-0.7-3.1-0.8c-3-0.2-5.6-0.5-8.4-0.2c-3.4,0.1-6.4,0.4-9.7,1.4c-1.8,0.4-3.6,0.8-5.4,1.3c-1,0.4-1.7,0.7-2.6,0.9
							c-2.4,0.7-4.5,1.4-6.7,2.1c-1.6,0.7-3.2,1.3-4.7,2.1c-0.2,0.2,0.1,0.4,0.3,0.3c3.5-1.9,7-2.8,10.9-4c1.1-0.2,2.3-0.8,3.1-1.1
							c2.5-0.6,5-1.2,7.6-1.8c2.4-0.5,3.9-0.6,6.4-0.7c1.1,0,2.2-0.2,3.3-0.2c0.4,0.1,1.9,0.1,2.7,0.1c1.6,0.2,2.8,0.1,4.2,0.5
							c1.7,0.6,2.7,0.8,4.6,1.8c0.5,0.3,1.2,0.9,1.3,1.3c0.1,0.2,0.4,0.6,0.5,0.8c0.1,0.1,0,0.1,0.1,0.2c0,0.1,0,0.1,0,0.2
							C61.6,53.5,62.4,53.2,62.2,52.7"/>
						<path class="st4" d="M55.9,53.8c-0.1-0.4-0.5-0.6-0.6-0.8c-0.3-0.3-0.7-0.6-1.1-0.7c-1.6-0.9-3.6-1.1-5.5-1.3
							c-2.1-0.2-4.2-0.2-6.5,0c-2,0.3-3.9,0.7-5.8,1.2c-1,0.3-2.2,0.4-3.1,0.9c-0.1,0.2,0.1,0.4,0.3,0.3c4.8-1.4,9.7-2.6,14.5-2
							c1.2,0.1,3.3,0.4,4.4,0.8c0.7,0.3,1.3,0.6,1.8,0.9c0.1,0.1,0.8,0.7,0.7,0.8c0.3,0.5,0.3,0.8,0.2,1.2c0,0,0,0.1,0,0.1
							c-0.1,0.1-0.1,0.2,0,0.3c0.2,0.2,0.6,0.1,0.7-0.1c0.1-0.3,0-0.2,0.1-0.4C56.2,54.7,56.1,54.2,55.9,53.8"/>
						<path class="st4" d="M27.3,55.2c-2.7,0.8-5.2,1.5-7.8,2.5c-0.8,0.3-1.7,0.6-2.5,0.9c-0.1,0-0.1,0.1-0.1,0.1
							c-0.1,0.2,0.2,0.4,0.4,0.3c3.6-1.4,6.9-2.4,10.3-3.4C27.9,55.5,27.6,55.1,27.3,55.2"/>
						<path class="st4" d="M13.4,56.3c-1,0.4-2.5,0.4-3.9,0.4c-0.3,0-0.3-0.1-0.9,0c-0.3,0.1-0.2,0.4,0.1,0.5
							c1.3,0.1,3.4,0.2,4.9-0.3c0.3-0.2,0.8-0.1,0.9-0.4C14.5,55.8,13.8,56.2,13.4,56.3"/>
						<path class="st4" d="M44.1,56.9c0,0-0.1-0.1-0.1-0.1c-1-0.8-2.3-1.3-3.6-1.7c-0.4-0.1-0.8-0.3-1.2-0.3c-0.4,0-0.4,0.5-0.1,0.6
							c1.6,0.5,3.1,1,4.4,2l0,0c0,0,0,0,0,0c0,0,0,0,0,0c0.1,0,0.1,0,0.1,0C44,57.4,44.3,57.1,44.1,56.9"/>
						<path class="st4" d="M44.1,56.8C44.1,56.8,44.1,56.8,44.1,56.8C44.1,56.8,44.1,56.8,44.1,56.8"/>
						<path class="st4" d="M44.1,56.8C44.1,56.8,44.1,56.9,44.1,56.8C44.1,56.9,44.1,56.9,44.1,56.8C44.1,56.9,44.1,56.9,44.1,56.8"
							/>
						<path class="st4" d="M49.5,62.5C49.5,62.5,49.5,62.5,49.5,62.5C49.5,62.5,49.5,62.4,49.5,62.5c0-0.9-1-1.8-1.7-2.6
							c-0.3-0.3-0.3-0.5-0.8-0.7c-0.3-0.1-0.6,0.2-0.4,0.4c0.8,0.9,2.3,2.2,2.2,2.9c0,0.4,0.6,0.6,0.7,0.2
							C49.5,62.6,49.5,62.6,49.5,62.5"/>
						<path class="st4" d="M60.6,56.1c-0.4,0.1-0.3,0.1-0.4,0.3c-1.1,1-2.1,2.1-3.4,3.1c-0.5,0.2-1.3,0.8-1.9,1
							c-0.7,0.2-2.1,0.6-3.2,0.8c-0.4,0.1-0.2,0.6,0.2,0.5c1.3-0.2,3.3-0.6,4-1.2c1.9-0.9,3.4-2.5,4.9-3.9
							C61.1,56.4,60.9,56,60.6,56.1"/>
						<path class="st4" d="M33.5,58.9c-0.3,0-0.5,0.1-0.7,0.2c-0.8,0.4-1.6,0.8-2.4,1.3c-0.3,0.2-0.7,0.4-0.8,0.6
							c0,0.2,0.3,0.3,0.5,0.2c0.8-0.5,2.2-1.3,3-1.7c0.2-0.1,0.5-0.1,0.6-0.2C33.7,59.1,33.7,59,33.5,58.9"/>
						<path class="st4" d="M50,63.7c-0.2,0-0.3,0.1-0.5,0.1c-0.5,0.2-1.2,0.3-2,0.5c-0.7,0.1-1.3,0.4-1.9,0.4
							c-1.2,0.1-2.4-0.1-3.7,0c-0.3,0.1-0.2,0.4,0.1,0.4c1.7,0.1,3.5,0.3,5.2-0.2c1.1-0.3,2.3-0.4,2.9-0.7
							C50.3,64,50.2,63.8,50,63.7"/>
						<path class="st4" d="M6,59.5c-0.6-0.4-0.9-1.1-1.1-2.1c-0.1-0.3-0.1-0.6-0.1-1.1c0-0.1,0-0.1-0.1-0.2c-0.2-0.2-0.6,0-0.6,0.2
							c0.1,1.3,0.3,2.9,1.6,3.8c0.2,0.1,0.4,0.3,0.6,0.2C6.8,60,6.2,59.7,6,59.5"/>
					</g>
				</g>
				<g style="clip-path:url(#SVGID_00000062183196723541102750000014771773593724362416_);">
					<g>
						<path class="st5" d="M60.7,49.3C60.7,49.3,60.7,49.3,60.7,49.3C60.7,49.2,60.7,49.2,60.7,49.3"/>
						<path class="st3" d="M11,36.4c-0.5,0.9-1.9,2.7-2.2,3.3c0.1,0.3,0.4,0.1,0.5-0.1c0.7-1,1.4-2,2.1-3.1
							C11.6,36.4,11.2,36.2,11,36.4"/>
						<path class="st3" d="M12.7,38.8c-0.6,0.9-1.3,1.7-1.8,2.6c0,0.1,0.1,0.2,0.2,0.2c0.2,0,0.3-0.1,0.4-0.2
							c0.2-0.2,0.3-0.5,0.5-0.7c0.3-0.6,1.1-1.4,1.3-1.9C13.2,38.7,12.8,38.7,12.7,38.8"/>
						<path class="st3" d="M12.9,43.5c-0.5,0.8-1,1.5-1.5,2.3c-0.1,0.2-0.3,0.3-0.2,0.5c0,0.1,0.2,0.2,0.4,0.2
							c0.1,0,0.2-0.1,0.3-0.2c0.5-0.8,1.1-1.6,1.6-2.5C13.6,43.5,13.1,43.3,12.9,43.5"/>
						<path class="st3" d="M7,42.2c-0.5,0.9-1,1.8-1.6,2.6c-0.1,0.1-0.2,0.3-0.2,0.4c0,0.1,0.2,0.2,0.4,0.2c0.3-0.1,0.3-0.4,0.5-0.6
							c0.5-0.8,1-1.6,1.4-2.4C7.7,42.2,7.2,41.9,7,42.2"/>
						<path class="st3" d="M9.4,43.8c-0.5,0.7-1,1.4-1.5,2.1c-0.1,0.1-0.2,0.2-0.3,0.4c0,0.2,0.2,0.3,0.4,0.3
							c0.7-0.5,1.3-1.8,1.9-2.5C10.2,43.8,9.6,43.5,9.4,43.8"/>
						<path class="st3" d="M8.9,48.9c-0.4,0.8-0.9,1.6-1.4,2.4c-0.2,0.2,0.2,0.5,0.4,0.3C8.5,50.8,9,49.9,9.4,49
							C9.5,48.8,9,48.6,8.9,48.9"/>
						<path class="st3" d="M12,49.6c-0.5,0.8-1,1.6-1.4,2.4c-0.2,0.2,0.2,0.5,0.5,0.4c0.6-0.8,1-1.7,1.6-2.5
							C12.8,49.6,12.2,49.3,12,49.6"/>
						<path class="st3" d="M16.6,43.3c-0.5,0.8-0.9,1.6-1.4,2.4c-0.1,0.1,0,0.3,0.2,0.4c0.1,0,0.3,0,0.4-0.1c0.3-0.6,0.7-1.2,1-1.8
							c0.1-0.3,0.4-0.5,0.4-0.8C17.1,43.2,16.7,43.1,16.6,43.3"/>
						<path class="st3" d="M22.9,38.4c-0.5,0.9-1,1.7-1.5,2.5c-0.2,0.2,0.2,0.5,0.4,0.3c0.7-0.8,1.2-1.8,1.7-2.7
							C23.5,38.3,23,38.2,22.9,38.4"/>
						<path class="st3" d="M18.6,46.8c-0.5,0.8-1,1.7-1.5,2.5c-0.1,0.2,0.1,0.4,0.3,0.4c0.1,0,0.2-0.1,0.2-0.2
							c0.5-0.8,1-1.6,1.5-2.4C19.3,46.7,18.8,46.5,18.6,46.8"/>
						<path class="st3" d="M23.2,43.3c-0.2,0.4-0.5,0.8-0.7,1.2c0,0.1,0.1,0.2,0.2,0.3c0.1,0,0.3,0,0.4-0.1c0.2-0.4,0.5-0.8,0.7-1.2
							C23.8,43.2,23.3,43,23.2,43.3"/>
						<path class="st3" d="M27.6,41.4c-0.3,0.6-0.7,1.1-1,1.7c0,0.1,0,0.2,0.1,0.2c0.1,0.1,0.3,0,0.4-0.1c0.3-0.5,0.7-1,1-1.6
							C28.3,41.4,27.8,41.2,27.6,41.4"/>
						<path class="st3" d="M23.4,47.2c-0.3,0.6-0.7,1.2-1.1,1.8c-0.1,0.1,0,0.4,0.2,0.4c0.1,0,0.3,0,0.4-0.1
							c0.4-0.6,0.7-1.1,1.1-1.7C24.3,47.3,23.8,46.9,23.4,47.2"/>
						<path class="st3" d="M31.6,42.4c-0.5,0.9-1.1,1.9-1.7,2.8c-0.2,0.2,0.1,0.4,0.3,0.4c0.3-0.1,0.4-0.5,0.5-0.7
							c0.5-0.7,0.9-1.5,1.4-2.2C32.3,42.3,31.8,42.1,31.6,42.4"/>
						<path class="st3" d="M35.6,41.9c-0.2,0.4-0.6,0.7-0.8,1.1c0,0.1,0,0.2,0.2,0.3c0.3,0.1,0.5-0.1,0.6-0.3
							c0.2-0.3,0.5-0.6,0.6-0.9C36.3,41.8,35.8,41.6,35.6,41.9"/>
						<path class="st3" d="M33.9,44.7c-0.3,0.6-0.8,1.1-1.1,1.7c0,0.1,0,0.1,0.1,0.2c0.3,0.3,0.7-0.1,0.8-0.3
							c0.3-0.4,0.6-0.8,0.9-1.2C34.7,44.6,34.1,44.4,33.9,44.7"/>
						<path class="st3" d="M39.5,42c-0.4,0.7-1,1.4-1.4,2.2c-0.1,0.1-0.1,0.2,0,0.3c0.2,0.2,0.6,0,0.7-0.2c0.3-0.4,0.6-0.9,0.9-1.3
							c0.1-0.3,0.5-0.6,0.5-0.9C40,41.9,39.6,41.8,39.5,42"/>
						<path class="st3" d="M43.5,41.8c-0.7,0.9-1.3,1.9-2,2.8c-0.2,0.2,0.1,0.5,0.4,0.4c0.3-0.1,0.4-0.5,0.7-0.7
							c0.5-0.7,1-1.5,1.5-2.2C44.4,41.8,43.8,41.5,43.5,41.8"/>
						<path class="st3" d="M49.1,41.8c-0.1-0.2-0.5-0.3-0.6-0.1c-0.3,0.6-0.7,1.1-1.1,1.6c-0.1,0.1-0.1,0.2,0,0.3
							c0.2,0.2,0.6,0.1,0.6-0.2c0.3-0.4,0.6-0.8,0.8-1.2C49,42.1,49.2,42,49.1,41.8"/>
						<path class="st3" d="M51.6,42.7c-0.4,0.6-0.8,1.1-1.2,1.6c-0.2,0.2,0.1,0.4,0.3,0.4c0.2-0.1,0.3-0.3,0.5-0.5
							c0.3-0.5,0.7-0.9,1-1.4C52.3,42.6,51.8,42.4,51.6,42.7"/>
						<path class="st3" d="M61.4,38.1c-0.1,0.3-0.5,0.5-0.5,0.8c0.1,0.2,0.4,0.2,0.5,0.1c0.2-0.2,0.4-0.5,0.5-0.7
							C62,38,61.6,37.8,61.4,38.1"/>
						<path class="st3" d="M56.5,42.9c-0.4,0.6-0.9,1.3-1.3,1.9c-0.1,0.1-0.1,0.2,0,0.2c0.2,0.4,0.7,0.2,0.8-0.1
							c0.4-0.5,0.8-1.1,1.1-1.6C57.5,42.9,56.8,42.5,56.5,42.9"/>
						<path class="st7" d="M3.9,37.5c-0.1,0.4-0.4,0.9-0.5,1.3c0,0.1,0.1,0.1,0.2,0.2c0.1,0,0.3,0,0.3-0.1C4,38.4,4.2,38,4.3,37.6
							C4.4,37.4,3.9,37.3,3.9,37.5"/>
						<path class="st7" d="M8.5,33.8c-0.5,0.9-1.2,2.1-1.7,3c0,0.1,0.2,0.2,0.3,0.2c0.1-0.1,0.2-0.2,0.2-0.3c0.5-0.9,1.2-2,1.6-2.8
							C9,33.8,8.6,33.6,8.5,33.8"/>
						<path class="st7" d="M5.5,39.5c-0.6,0.7-1,1.5-1.5,2.3C4,42,4.4,42.2,4.6,42C5,41.4,5.4,40.5,6,39.7
							C6.2,39.5,5.7,39.2,5.5,39.5"/>
						<path class="st7" d="M60.4,41.1c-0.3,0.4-0.6,0.9-0.8,1.3c0,0.2,0.2,0.3,0.4,0.2c0.4-0.4,0.6-0.9,0.9-1.4
							C61,41,60.6,40.9,60.4,41.1"/>
						<path class="st7" d="M60,44.4c-0.3,0.6-0.7,1.2-1,1.7c0,0.1,0.1,0.2,0.2,0.3c0.1,0,0.3,0,0.3-0.1c0.3-0.4,0.5-0.8,0.7-1.2
							c0.1-0.2,0.3-0.4,0.3-0.6C60.5,44.2,60.1,44.2,60,44.4"/>
						<path class="st7" d="M64.2,38.3c-0.6,1.1-1.2,2.1-1.8,3.2c-0.1,0.1,0,0.3,0.2,0.3c0.1,0,0.3,0,0.3-0.1
							c0.4-0.7,0.8-1.5,1.2-2.2c0.2-0.4,0.5-0.7,0.6-1.1C64.7,38.2,64.3,38.2,64.2,38.3"/>
						<path class="st7" d="M63.6,43.7c-0.3,0.5-0.6,1-0.8,1.5c-0.1,0.3-0.5,0.7-0.2,0.9c0.2,0.1,0.5,0,0.5-0.1
							c0.3-0.6,0.5-0.9,0.8-1.5c0.1-0.2,0.4-0.5,0.3-0.7C64.2,43.5,63.7,43.5,63.6,43.7"/>
						<path class="st7" d="M14.4,35.3c-0.1-0.2-0.5-0.1-0.6,0.1c-0.2,0.4-0.4,0.8-0.7,1.3c0,0.1,0,0.1,0.1,0.2
							c0.4,0.3,0.6-0.2,0.7-0.4C14.1,36.1,14.5,35.6,14.4,35.3"/>
						<path class="st7" d="M14.5,49.5c-0.4,0.8-0.7,1.6-1.1,2.3c-0.1,0.2,0.2,0.4,0.4,0.3c0.5-0.7,0.7-1.7,1.2-2.5
							C15.2,49.3,14.6,49.2,14.5,49.5"/>
						<path class="st7" d="M19.6,41.6c-0.2,0.6-0.4,1.2-0.7,1.8c-0.1,0.2-0.2,0.5,0.2,0.6c0.3,0,0.3-0.3,0.4-0.4
							c0.2-0.6,0.5-1.2,0.7-1.8C20.3,41.4,19.7,41.3,19.6,41.6"/>
						<path class="st7" d="M27.8,45.1c-0.1-0.2-0.5-0.1-0.6,0.1c-0.3,0.7-0.6,1.5-0.9,2.2c0,0.1,0,0.2,0.1,0.3
							c0.2,0.2,0.5,0,0.5-0.2c0.1-0.4,0.3-0.7,0.4-1.1C27.5,45.9,27.9,45.4,27.8,45.1"/>
						<path class="st7" d="M25.2,38.2c-0.3,0.7-0.6,1.4-0.9,2c-0.1,0.2,0.1,0.3,0.3,0.3c0.1,0,0.3-0.1,0.3-0.2
							c0.3-0.7,0.6-1.4,0.9-2C25.9,38,25.3,37.9,25.2,38.2"/>
						<path class="st7" d="M20.3,47.9c-0.3,0.6-0.9,1.7-1.1,2.1c-0.1,0.1,0,0.3,0.1,0.3c0.3,0.1,0.5-0.1,0.5-0.3
							c0.2-0.5,0.4-0.9,0.7-1.4c0.1-0.3,0.3-0.4,0.3-0.7C20.8,47.8,20.5,47.8,20.3,47.9"/>
						<path class="st7" d="M53.8,42.7c-0.2,0.4-0.7,1.2-1,1.8c0,0.1,0.1,0.2,0.2,0.3c0.1,0,0.3,0,0.3-0.1c0.3-0.6,0.7-1.2,1-1.8
							C54.5,42.6,53.9,42.4,53.8,42.7"/>
						<path class="st7" d="M6.6,47.7c-0.1-0.2-0.5-0.1-0.6,0.1c-0.3,0.7-0.6,1.5-0.9,2.2c-0.1,0.2-0.2,0.5,0.3,0.5
							c0.2,0,0.2-0.2,0.3-0.3c0.3-0.7,0.5-1.4,0.8-2C6.6,48,6.7,47.8,6.6,47.7"/>
						<path class="st7" d="M13.6,45.8c-0.3-0.1-0.4,0.1-0.5,0.3c-0.2,0.5-0.5,1-0.7,1.5c-0.1,0.3,0.5,0.4,0.6,0.1
							c0.2-0.5,0.5-1.1,0.7-1.6C13.9,45.9,13.8,45.8,13.6,45.8"/>
						<path class="st7" d="M29.9,41.4c-0.2,0.4-0.4,0.8-0.6,1.1c0,0.1,0,0.2,0.1,0.3c0.6,0.3,0.7-0.7,1-1.1
							C30.6,41.3,30.1,41.1,29.9,41.4"/>
						<path class="st3" d="M57.6,37.1C57.7,37,57.7,37,57.6,37.1"/>
						<polygon class="st3" points="57.6,37.1 57.6,37.1 57.6,37.1 						"/>
					</g>
					<g>
						<g>
							<path class="st8" d="M67.2,21.2c-0.2-1.9-1.5-3.5-2.8-5.1c-0.6-0.8-1.2-1.7-1.9-2.5c-1.1-1-2.2-2-3.3-3c-3-2.6-7.2-4-11-5.7
								c-1.7-0.7-3.3-1.6-5.1-2.1c-2.4-0.7-4.9-1-7.4-1C34,2,28.7,0.9,19.3,5.8c-8.4,4.4-9.3,6.9-12.9,10.5c-0.5,0.5-1,1-1.5,1.6
								c-1.1,1.3-2.1,2.7-2.9,4.1c-0.2,0.5-0.5,1.1-0.7,1.7c0,0.1-0.1,0.1-0.1,0.2c-0.6,1.4-1.1,2.8-1.6,4.2
								c-0.2,1.6-0.3,3.2,0.2,4.8c0.1,0.9,0.8,1.7,1.7,2.3C3,36,5.1,35.4,6.3,34.5c1.9-1.5,3.5-3.3,4.8-5.1c0,1.4,0.5,2.8,1.7,4
								c1.1,1,2.5,2,4.2,2.2c2.6,0.2,4.6-2,6.1-3.4c1.2-1.2,2.2-2.4,2.7-3.9c0.2-0.7,0.5-1.4,0.7-2.1c0.4,2.3,1.1,4.7,4.2,5.4
								c3.7,0.7,7.6-1.2,9.2-3.8c1-1.7,0.6-3.6,0.8-5.4c0-0.1,0-0.2,0-0.3c0.7,2.2,1.8,4.4,3.7,6.1c2.1,1.7,5.3,2.8,7.5,0.6
								c1.2-1.2,1.7-2.8,2.1-4.3c0.5,1.2,1.5,2.3,2.8,3.2c0.8,0.5,1.6,1.1,2.6,1.4c1.5,0.3,3.1,0.5,4.6,0c0.6-0.3,1.1-0.7,1.5-1.2
								c0.7-0.7,1.3-1.4,1.5-2.3C67.3,24.3,67.1,22.7,67.2,21.2"/>
							<g>
								<path class="st3" d="M6.7,30.2c-0.1-0.2-0.5-0.1-0.6,0c0,0-0.3,0.2-0.4,0.3c-0.8,0.4-1.4,0.7-2,0.7c0,0,0,0-0.1,0
									c-0.2,0-0.5-0.2-0.6-0.2c-0.4-0.3-0.6-0.5-0.6-0.6c0-0.9,0.1-1.6,0.3-2.4c0-0.2-0.5-0.3-0.6,0C2,28.5,2,29.1,1.9,29.6
									c0,0.4-0.1,0.8,0.1,1.1c0.4,0.6,1.2,1,2,0.9c0.4,0,0.7-0.1,1-0.3c0.5-0.2,1-0.4,1.3-0.7C6.5,30.6,6.9,30.5,6.7,30.2"/>
								<path class="st3" d="M5.2,25.3c-0.1,0-0.3,0-0.4-0.1c-1.3-0.3-0.7-2.2,0-3.7c0.1-0.3-0.5-0.4-0.6-0.1
									c-0.4,0.7-0.6,1.4-0.7,2.1c-0.1,0.6-0.1,1.2,0.3,1.7c0.3,0.3,1,0.7,1.5,0.6C5.5,25.6,5.4,25.3,5.2,25.3"/>
								<path class="st3" d="M16.9,32.7c-0.1,0-0.1,0-0.2,0c-0.2-0.1-0.7-0.5-1.1-0.9c-0.3-0.3-0.6-0.6-0.9-1.1
									c0-0.1-0.1-0.1-0.2-0.1c-0.3-0.1-0.6,0.2-0.4,0.4c0.3,0.5,2.2,2.7,3,2.1C17.2,33,17.1,32.7,16.9,32.7"/>
								<path class="st3" d="M10.5,14.2c0.1-0.1,0.3-0.2,0.3-0.4c0-0.2-0.4-0.4-0.6-0.2c-0.6,0.4-0.9,1-1.2,1.6
									c-0.2,0.4-0.2,1,0.3,1.2c0.4,0.1,0.6-0.3,0.3-0.5c0,0,0,0,0,0c0,0,0-0.1,0-0.1C9.6,15.4,10.1,14.6,10.5,14.2"/>
								<path class="st3" d="M16.6,8.2c-0.9,0.5-1.8,1-2.4,1.7c-0.2,0.3-0.3,0.6-0.2,0.9c0.1,0.3,0.8,0.4,0.8,0
									c0-0.1-0.1-0.1-0.1-0.2c0-0.6,1.3-1.4,2.2-1.9C17.3,8.5,17,8.1,16.6,8.2"/>
								<path class="st3" d="M32.5,6.4c-0.8,0.1-1.3,0.3-1.9,0.1c-0.4,0-0.9-1.1-0.7-1.6c0-0.1,0.1-0.2,0.2-0.4
									c0.1-0.3-0.4-0.4-0.6-0.2c-0.3,0.3-0.3,0.7-0.3,1.1c0.1,0.5,0.3,1,0.8,1.3c0.8,0.5,1.8,0.2,2.7,0.1
									C33.1,6.8,32.9,6.3,32.5,6.4"/>
								<path class="st3" d="M25.3,6c-0.1,0-0.2,0-0.5-0.2c-0.1,0-0.2-0.1-0.2-0.2c-0.1-0.1-0.2-0.3-0.2-0.3c0,0,0,0,0,0
									c0-0.1,0.1-0.1,0-0.2c0-0.3-0.6-0.3-0.7,0c-0.4,0.7,1.2,1.8,2,1.4C26.1,6.2,25.7,5.9,25.3,6"/>
								<path class="st3" d="M40.6,4.7c-0.4,0-0.7,0.1-1,0.1c-1,0.1-1.6,0.1-1.8-0.3c-0.2-0.2-0.1-0.4-0.2-0.8
									C37.6,3.5,37,3.6,37,3.9c-0.1,0.6,0.4,1.3,1.2,1.4c0.8,0.1,1.7,0,2.5-0.2C41,5,40.9,4.7,40.6,4.7"/>
								<path class="st3" d="M50.1,8.2c-0.2,0-0.3,0-0.7-0.1c-0.2,0-1.2-0.9-1.3-1.1C48,6.9,48,6.7,47.8,6.6
									c-0.2-0.1-0.6,0.1-0.5,0.3c0.1,0.4,0.5,0.7,0.8,1c0.5,0.5,1.2,0.9,2,0.8c0.3,0,0.7,0,0.7-0.3C50.9,8,50.4,8.1,50.1,8.2"/>
							</g>
						</g>
						<g>
							<path class="st3" d="M72.3,26.1c-0.3-0.5-0.8-0.9-1.5-1.1c-0.2,0-0.3-0.1-0.5-0.1c0-1.2-0.1-2.5-0.8-3.6
								c-0.8-1.3-2.4-2.4-4-3c-1.6-0.5-3.4-0.3-5,0.2c-0.2,0.1-0.4,0.1-0.5,0.2c0.2-0.3,0.5-0.5,0.6-0.8c0.4-0.5,0.6-1.1,0.5-1.8
								c0-0.9,0-1.8-0.2-2.7c-0.4-0.9-1.3-1.7-2.4-2.2c-1.2-0.5-2.4-0.8-3.7-0.9c-1.6,0.1-3.3,0.5-4.6,1.1c-1,0.4-1.9,0.9-2.7,1.4
								c0.1-0.5,0.2-1.3,0.1-1.8c-0.3-0.9-0.8-1.9-1.8-2.6c-1.9-1.2-4.5-2-7-1.4c-1.3,0.3-2.6,0.8-3.6,1.4c-1.4,0.9-2.8,2.1-3.8,3.1
								c0-0.1,0-0.2,0-0.3c0-2.8-3.5-4-6.8-3.2c-3.7,0.9-7.2,2.7-8.9,5.4c-0.4,0.6-0.6,1.4-0.6,2.1c-0.3,0.1-0.5,0.3-0.8,0.4
								c-2.1,1.1-3.6,2.6-5,4.2c-1.2,1.1-1.5,2.7-1.2,4.1c0.2,0.5,0.3,1,0.7,1.4c0.5,0.5,1.1,0.8,1.8,1.1c2.6,0.8,5-0.4,7-1.7
								c-0.3,0.6-0.4,1.3-0.5,2c-0.1,1.2-0.5,2.7,1.1,3.4c2.1,1.3,5.1,0.7,7.4-0.1c0.4-0.1,1-0.3,1.6-0.6c-0.5,1.1-0.9,2.2-1,3.4
								c-0.2,1-0.2,2.1,0.4,3c0.4,0.5,0.7,1,1.3,1.4c1,0.6,2.1,1.1,3.4,1.3c1.8,0.2,3.5-0.5,5-1.1c2.1-0.8,3.7-2.2,4.9-3.7
								c-0.1,0.6-0.2,1.2-0.1,1.9c0.3,2,2.4,4.3,5.4,3.6c0.8-0.2,1.7-0.4,2.5-0.8c1.2-0.7,2.1-1.6,2.8-2.6c0.2-0.3,0.4-0.5,0.5-0.8
								c0,1.7,0.4,3.4,2.4,4c1.5,0.3,2.9-0.3,4-1c1-0.7,1.7-1.6,2.2-2.6c0.3,0.2,0.6,0.3,0.9,0.5c0.4,0.2,0.8,0.4,1.3,0.4
								c1,0.3,2,0.4,3-0.1c0,0,0,0,0.1,0c1-0.2,2-0.6,2.6-1.2c0.8-0.8,1.1-1.8,1.1-2.7c0.4-0.2,0.8-0.5,1.2-0.8
								c1.4-0.8,2-2.2,2.2-3.6C73,27.5,72.6,26.8,72.3,26.1"/>
							<g>
								<path class="st8" d="M15.2,19.6c0.2-0.2-0.1-0.5-0.4-0.3c-0.8,0.4-1.7,0.7-2.1,1.4c-0.5,0.6-0.4,1.9,0.8,2.2
									c0.3,0,0.5-0.2,0.3-0.4c-0.1-0.1-0.3-0.1-0.4-0.2c0,0,0,0,0,0c-0.6-0.4-0.4-1.3,0.3-1.8C14.1,20.1,14.6,19.9,15.2,19.6"/>
								<path class="st8" d="M23.3,11.7c-0.6-0.1-0.9-0.1-1.5,0.1c-0.6,0.1-1,0.5-1.4,0.9c-0.4,0.5-0.5,1.2-0.5,1.8
									c0,0.1,0,0.3,0.2,0.3c0.2,0.1,0.4-0.1,0.4-0.2c-0.1-1,0.4-2.1,1.4-2.3c0.5-0.1,0.5-0.2,0.8-0.1c0.2,0,0.4,0.1,0.6,0
									C23.6,12.1,23.6,11.8,23.3,11.7"/>
								<path class="st8" d="M39.9,16.7c-0.8,0.2-1.4,0.6-2.1,1c-0.3,0.2-0.7,0.4-0.8,0.8c-0.4,1-0.2,2.3,1.4,2.5
									c0.3,0,0.4-0.3,0.2-0.5c-0.1-0.1-0.4-0.1-0.7-0.3c-0.4-0.2-0.6-1.5-0.1-1.8c0.6-0.4,1.5-0.9,2.2-1.1
									C40.4,17.1,40.2,16.7,39.9,16.7"/>
								<path class="st8" d="M42.4,11.7c-0.2-0.2-0.9-0.6-1.4-0.7c-0.4,0-0.9,0.1-1.3,0.2c-0.7,0.2-1.2,0.7-1.7,1.1
									c-0.1,0.1-0.1,0.2-0.1,0.3c0.1,0.2,0.4,0.2,0.5,0.1c0.5-0.4,0.8-0.7,1.3-1c0.1-0.1,0.9-0.2,1-0.2c0.3,0,0.6,0.2,1,0.4
									C42,12.1,42.5,12.1,42.4,11.7"/>
								<path class="st8" d="M53.9,13.8c-1.4,0-3,0.4-3.6,1.5C50.1,15.6,50,16,50,16.3c0,0.1,0,0.3,0.2,0.4c0.2,0.1,0.5,0,0.5-0.2
									c0-0.2,0-0.1,0-0.4c0-0.3,0.3-0.8,0.9-1.2c0.2-0.1,1.6-0.5,2.1-0.5C54.3,14.5,54.5,13.9,53.9,13.8"/>
								<path class="st8" d="M45.4,17.9c-0.7,0.8-1.6,2-1.1,3c0.1,0.2,0.3,0.5,0.7,0.4c0.5-0.2,0.2-0.5,0.1-0.6c0,0,0,0,0,0
									c-0.1-0.1-0.1-0.2-0.1-0.3c0-0.7,0.5-1.4,1.2-2.2C46.3,17.9,45.6,17.6,45.4,17.9"/>
								<path class="st8" d="M56.9,25.5c-0.2-0.9-0.9-1.5-2.2-1.6c-0.7,0-1.3,0.2-1.9,0.4c-0.2,0.1-0.5,0.2-0.5,0.4
									c0,0.2,0.3,0.3,0.5,0.2c1.1-0.5,2.1-0.7,2.8-0.1c0.4,0.2,0.6,1.2,0.6,1.5c0,0.3,0.5,0.4,0.7,0.2
									C57.2,26.2,56.9,25.8,56.9,25.5"/>
								<path class="st8" d="M57.1,19.9c-0.5-0.4-1.2-0.4-1.8-0.4c-0.6,0-1.2,0-1.7,0.2c-0.6,0.1-0.4,0.7,0.1,0.5
									c0.8-0.3,2.6-0.4,3,0.1c0.2,0.1,0,0.1,0.3,0.2C57.6,20.5,57.5,20.1,57.1,19.9"/>
								<path class="st8" d="M65.7,21.3c-0.7,0.1-1.2,0.4-1.7,0.7c-0.4,0.2-0.9,0.5-1.2,0.9c-0.3,0.5-0.1,1.2,0.3,1.7
									c0.1,0.1,0.2,0.3,0.4,0.4c0.2,0.1,0.5-0.1,0.5-0.3c0-0.2-0.3-0.4-0.4-0.6c-0.3-0.4-0.3-0.6,0-1c0.1-0.1,1.5-1,1.9-1.1
									c0.2-0.1,0.5-0.1,0.6-0.2C66.2,21.5,66,21.2,65.7,21.3"/>
								<path class="st8" d="M66.8,31.2c-0.6-0.4-1.5-0.4-2.3-0.3c-0.6,0.1-1.1,0.5-1.4,0.9c-0.3,0.4-0.7,0.7-0.7,1.2
									c0,0.3,0.6,0.3,0.6,0c0.1-0.5,0.8-1.2,1.1-1.4c0.4-0.3,0.9-0.3,1.2-0.2c0.8,0,0.8,0.2,1.3,0.4
									C67.1,31.7,67.2,31.3,66.8,31.2"/>
								<path class="st8" d="M69.5,27.3c-0.3-0.3-1.2-0.6-2-0.4C67,27,66.4,27,66,27.3c-0.3,0.2,0.1,0.6,0.5,0.4
									c0.8-0.4,2-0.4,2.5,0c0.2,0.1,0.4,0.3,0.7,0.4c0.2,0.1,0.5-0.1,0.5-0.3C70.1,27.7,69.7,27.5,69.5,27.3"/>
							</g>
						</g>
						<g>
							<path class="st14" d="M34.8,24.5c-1.4-0.2-2.8,0.1-4.2,0.1c-1.6,0.1-3.4-0.2-5.3,0.1c1.4-1.2,2.9-2,4.4-3.5
								c2-1.9,4-3.6,6.2-5.3c0.5-0.4,0.7-1-0.1-1.2c-1.8-0.5-7.4-0.6-7.7-0.5c-0.4,0.1-5.9,7.1-8.6,10.2c-1.3,1.4-2.8,2.7-3.9,4.2
								c-0.2,1.3,1.8,0.4,7.1,0.5c0.5,0,1.5,0,2.3-0.1c-0.2,0.3-6,7.2-8.6,11.7c0,0.4,0.5,0.6,0.9,0.5c0.5-0.2,0.8-0.6,1.2-0.9
								c1.2-1.1,2.6-2.1,3.9-3.2c2.6-2.2,5-4.6,7.5-6.8c1.3-1.2,2.8-2.2,4-3.5C34.4,26.2,36,25.2,34.8,24.5"/>
							<path class="st6" d="M30.2,25.8c-0.4,0.1-0.9,0.2-1.3,0.3c-0.4,0.1-1.6,0.1-2.1,0.2c-1.8,0.3-3.8,0.3-5.9,0.7
								c-0.4,0.1-1.1,0.3-1.5,0.4c1.6-1.6,2.9-2.9,4.5-4.4c1.3-1.4,2.2-2.5,3.5-3.8c1-1.1,2.3-2.4,3.2-3.8c0.1-0.2-0.4-0.4-0.5-0.1
								c-2.1,2.8-4.6,4.9-6.8,7.3c-0.8,0.7-1.8,1.7-2.6,2.5c-0.6,0.5-1.2,1.1-1.7,1.7c-0.1,0.1-0.4,0.4-0.6,0.7
								c0,0.7,1.1,0.3,1.5,0.2c0.8-0.2,1.5-0.4,2.1-0.4c1.6-0.1,3.6-0.3,4.9-0.5c0.7-0.1,1.3-0.1,2-0.2c0.4-0.1,0.9-0.2,1.3-0.3
								c-1.1,1.8-3.1,3.7-4.9,5.4c-2,1.8-4.2,3.6-5.6,5.2c-0.1,0.1-0.9,0.7-0.9,1c0,0.2,0.4,0.4,0.6,0.2c1.2-1.1,2.1-2.4,3.5-3.6
								c2.3-2.1,4.7-4.1,6.6-6.4c0.6-0.6,1-1.3,1.4-2C31.5,25.6,30.5,25.7,30.2,25.8"/>
						</g>
						<g>
							<path class="st8" d="M59.1,34.9c-0.4-0.3-0.9-0.7-1.4-0.9c0.3-0.2,0.6-0.5,0.8-0.8c0.7-1.4-0.8-2.8-2.3-3.6
								c-1.8-0.9-3.6-1.2-5.4-0.7c0.1-0.4,0.4-0.9,0.3-1.4c-0.2-0.9-0.9-1.7-1.8-2.3c-1.3-0.9-2.8-1.8-4.5-0.9
								c-0.4,0.2-0.6,0.5-0.9,0.8c-1.2-0.2-2.4-0.1-3.6,0.1c-1.6,0.3-2.5,1.7-2.3,2.9c0,0.2,0,0.5,0.1,0.7c-0.3-0.1-0.6-0.1-0.8-0.1
								c-0.7,0-1.3,0.2-1.9,0.4c-0.7,0.2-1.5,0.4-2.1,0.8c-0.6,0.4-1.2,0.9-1.5,1.5c-0.3,0.4-0.5,0.8-0.4,1.2
								c0.1,0.4,0.1,0.8,0.3,1.1c0,0,0.1,0.1,0.1,0.1c-0.2,0-0.3,0.1-0.5,0.1c-0.8,0.2-1.6,0.5-2.2,0.9c-0.5,0.4-1,0.9-1.2,1.5
								c-0.2,0.5-0.2,1.1-0.1,1.7c0.2,1.2,1.3,2.1,2.8,2.4c1.4,0.1,2.8-0.3,4.1-0.8c0.6-0.3,1.2-0.6,1.8-0.9c0.1,0.8,0.7,1.5,1.5,2
								c1.4,0.8,3.3,0.4,4.5-0.5c0.5-0.4,1-0.7,1.5-1.1c0,0,0,0.1,0,0.1c0.2,0.6,0.6,1.1,1.2,1.4c0.7,0.4,1.5,0.5,2.3,0.5
								c1.3-0.2,2.5-0.7,3.6-1.4c0.1,0,0.4-0.2,0.7-0.4c0.1,0.3,0.3,0.5,0.5,0.7c0.1,0.1,0.3,0.3,0.6,0.5c0.4,0.2,0.9,0.5,1.4,0.6
								c1.6,0.1,3.3-0.5,4.5-1.3c0.4-0.2,0.7-0.5,0.9-0.9c0.3-0.5,0.7-1,0.8-1.6C60.4,36.4,59.9,35.5,59.1,34.9"/>
							<g>
								<path class="st7" d="M32.2,35.6c-0.7,0.5-1.6,1.7-0.9,2.4c0.2,0.2,0.5,0.4,0.8,0.3c0.2,0,0.3-0.2,0.2-0.4
									c-0.2-0.2-0.4-0.2-0.4-0.2c0,0,0,0,0,0c0,0-0.1-0.1-0.1-0.1c0,0,0,0,0,0c0,0,0,0,0,0c0,0,0,0,0-0.1
									c-0.1-0.4,0.4-1.1,0.7-1.4c0.1-0.1,0.3-0.2,0.3-0.4C32.7,35.6,32.3,35.5,32.2,35.6"/>
								<path class="st7" d="M38.7,30.9c-0.6,0.3-1.1,0.9-1.4,1.4c-0.2,0.4-0.4,0.9-0.2,1.3c0.3,0.5,1,0.7,1.6,0.7
									c0.2-0.1,0.2-0.3,0-0.4c-0.3-0.1-0.3,0-0.5-0.1c-1.3-0.2-0.6-1.5,0.3-2.3c0.2-0.2,0.3-0.1,0.5-0.3
									C39.2,31,38.9,30.8,38.7,30.9"/>
								<path class="st7" d="M43,37c-0.4,0-0.7,0.3-1,0.4c-1,0.6-1.5-0.1-1.5-1.2c0-0.3-0.7-0.3-0.7,0c0,0.6,0.1,1.3,0.7,1.7
									c0.4,0.3,1.1,0.3,1.6,0c0.3-0.2,1-0.4,1.1-0.7C43.3,37.2,43.2,37.1,43,37"/>
								<path class="st7" d="M46.6,26.9c-1.4,0-3.1,0.5-3.9,1.5c-0.2,0.6,0.6,1.3,1.2,1.7c0.2,0.2,0.5,0.1,0.6-0.1
									c0.1-0.4-0.5-0.4-0.8-0.8c0.1,0.1-0.2-0.2-0.3-0.4c0,0,0-0.1,0-0.1c0,0,0,0,0,0c0.2-0.4,1.3-0.9,2.4-1.1
									c0.1-0.1,0.6,0,1-0.1C47.1,27.3,47,26.9,46.6,26.9"/>
								<path class="st7" d="M48.2,33.8c-0.1-0.1-0.3-0.1-0.4,0c-0.3,0.1-0.4,0.1-0.8,0.2c-1.3,0.2-1.6-0.6-0.8-2
									c0.1-0.4-0.6-0.5-0.7-0.2c-0.3,0.6-0.6,1.3-0.3,2c0.5,1,2.2,0.9,3.2,0.3C48.4,34,48.3,33.9,48.2,33.8"/>
								<path class="st7" d="M50.9,37.5c-0.3,0.3-0.3,0.3-0.7,0.5c-0.5,0.2-0.4,0.2-0.7,0.1c-0.2-0.2-0.3-0.5-0.4-0.9
									c-0.1-0.4-0.8-0.2-0.7,0.2c0.1,0.6,0.4,1.3,1.2,1.4c0.8,0.1,1.7-0.4,1.9-1C51.5,37.5,51.1,37.3,50.9,37.5"/>
								<path class="st7" d="M57.6,36.7c-0.1-0.1-0.3-0.2-0.5-0.1c-0.2,0.1-0.2,0.3-0.4,0.5c0,0.1-0.1,0.1-0.2,0.2c0,0,0,0,0,0
									c0,0,0,0,0,0c-0.1,0.1-0.5,0.1-0.7,0.1c-0.1,0-0.2,0-0.3-0.1c0,0,0,0,0,0c-0.4-0.4-1.1-0.1-0.7,0.3c0.6,0.5,1.7,0.6,2.4,0.1
									c0.2-0.2,0.2-0.2,0.4-0.5c0,0,0.1-0.2,0.2-0.3C57.7,37,57.7,36.8,57.6,36.7"/>
								<path class="st7" d="M54.7,32.1c-0.2,0-0.4,0.2-0.6,0.2c-0.4,0.1-0.5,0.2-0.8,0.2c-0.1,0-0.3-0.3-0.5-1.1
									c-0.1-0.1,0-0.3,0-0.5C52.6,30.6,52,30.7,52,31c-0.1,0.4,0.1,0.9,0.3,1.3c0.1,0.3,0.3,0.6,0.7,0.8c0.5,0.1,1.1,0,1.5-0.2
									c0.2-0.1,0.5-0.2,0.5-0.4C55.1,32.3,55,32.1,54.7,32.1"/>
							</g>
						</g>
					</g>
				</g>
			</g>
		</g>
	</g>
</g>
</svg>
