<?xml version="1.0" encoding="utf-8"?>
<svg version="1.1" xmlns="http://www.w3.org/2000/svg" xmlns:xlink="http://www.w3.org/1999/xlink" x="0px" y="0px" viewBox="0 0 76.5 67.3" style="enable-background:new 0 0 76.5 67.3;" xml:space="preserve"><style type="text/css">.st0{fill:#FFFFFF;}.st1{fill:#8CA2CF;}.st2{clip-path:url(#SVGID_00000039852055569333303960000016603841615216351648_);}.st3{fill:#627EB5;}.st4{fill:#8CA05C;}.st5{fill:#677724;}.st6{fill:#E0A955;}.st7{fill:#BBD7FF;}.st8{fill:#3C5987;}.st9{clip-path:url(#SVGID_00000182520202409835698750000013300759152949502117_);}.st10{fill:#669CD3;}.st11{clip-path:url(#SVGID_00000069381275713925083110000003634959720571552155_);}.st12{fill:#92C4FC;}.st13{fill:#FAF4D2;}.st14{fill:#FCCB7C;}.st15{clip-path:url(#SVGID_00000008120958180843333910000010940767887461784207_);}.st16{clip-path:url(#SVGID_00000154406929233861561730000016884613250044514688_);}.st17{fill:#C5CAF0;}.st18{clip-path:url(#SVGID_00000013166422621199643630000011321664239286338961_);}.st19{clip-path:url(#SVGID_00000062886886699921684280000012375585938694216323_);}.st20{clip-path:url(#SVGID_00000168076760111213533750000012723226152070996140_);}.st21{clip-path:url(#SVGID_00000094607560155966550920000012951099488564653466_);}.st22{fill:#F9CC3D;}.st23{fill:#FFEAAE;}.st24{fill:#FFECB8;}.st25{fill:#D3AA37;}.st26{fill:#FFE08A;}.st27{clip-path:url(#SVGID_00000114774669096905243050000015098778579708310160_);}.st28{clip-path:url(#SVGID_00000088849299055740399990000001496452330096626312_);}.st29{clip-path:url(#SVGID_00000084503635838215504480000014170601248877902509_);}.st30{clip-path:url(#SVGID_00000023269329150116218230000014019068575271238026_);}.st31{clip-path:url(#SVGID_00000166650344570938677230000002641575547765524651_);}.st32{clip-path:url(#SVGID_00000092443615833319239060000014491869920649137585_);}.st33{clip-path:url(#SVGID_00000076593566170221442860000011936354923072294585_);}.st34{clip-path:url(#SVGID_00000115497183808669028520000013539311392468385687_);}.st35{clip-path:url(#SVGID_00000154387544695747081920000007924908790602065312_);}</style><g ></g><g ><g><g><path class="st8" d="M68.5,33.7c-0.1-1.3-0.5-2.5-0.8-3.8c-0.3-1-0.4-2.1-0.7-3.1c-0.5-2.1-1.2-4-2.1-5.9c-0.7-1.8-1.8-3.4-3-4.9c-1.4-1.8-3-3.4-4.8-4.7c-1.1-0.8-2.2-1.4-3.3-2.1C43.9,3,30.8-1,19.6,10.9c-1.5,1.5-3,3-4.4,4.6c-1.1,1.3-2.4,2.6-3.4,4c-1.1,1.8-2,3.7-3,5.5c-0.5,1-1.2,2-1.6,3c-0.6,1.4-1,2.8-1.4,4.2C5.1,34.1,4.7,36,4.3,38c-0.4,1.9-0.8,3.8-1,5.8c-0.4,3.3-0.5,6.7-0.2,10c0,1.2,0,2.4,0.2,3.6c0.1,1,0.1,1.7,1,3.4c1,1.7,2.4,3,3.9,4.2c1,0.6,0.9,0.4,1.2,0.6c0.9,0.5,1.9,0.8,2.9,1.1c1,0.3,2,0.7,3,0.8c1.6,0,3.3-0.4,4.9-0.7c2.5-0.6,4.9-1.6,7.4-2.4c1.5-0.3,2.4-0.3,4.8-0.4c1.6-0.1,4.1,0.3,4.3,0.3c3.8,0.8,5.4,1.3,9.1,1.6c2.6,0.2,5.3,0,7.8-0.8c2-0.7,3.8-1.9,5.5-3.2c1.7-1.5,3.1-3.4,4.2-5.5c1.5-2.5,2.6-5.1,3.4-7.8c0.7-2.2,1.5-4.4,1.7-6.7c0.2-1.6,0.5-3.1,0.6-4.7C68.8,35.9,68.6,34.8,68.5,33.7"/><g><defs><path id="_2" d="M68.5,33.7c-0.1-1.3-0.5-2.5-0.8-3.8c-0.3-1-0.4-2.1-0.7-3.1c-0.5-2.1-1.2-4-2.1-5.9c-0.7-1.8-1.8-3.4-3-4.9c-1.4-1.8-3-3.4-4.8-4.7c-1.1-0.8-2.2-1.4-3.3-2.1C43.9,3,30.8-1,19.6,10.9c-1.5,1.5-3,3-4.4,4.6c-1.1,1.3-2.4,2.6-3.4,4c-1.1,1.8-2,3.7-3,5.5c-0.5,1-1.2,2-1.6,3c-0.6,1.4-1,2.8-1.4,4.2C5.1,34.1,4.7,36,4.3,38c-0.4,1.9-0.8,3.8-1,5.8c-0.4,3.3-0.5,6.7-0.2,10c0,1.2,0,2.4,0.2,3.6c0.1,1,0.1,1.7,1,3.4c1,1.7,2.4,3,3.9,4.2c1,0.6,0.9,0.4,1.2,0.6c0.9,0.5,1.9,0.8,2.9,1.1c1,0.3,2,0.7,3,0.8c1.6,0,3.3-0.4,4.9-0.7c2.5-0.6,4.9-1.6,7.4-2.4c1.5-0.3,2.4-0.3,4.8-0.4c1.6-0.1,4.1,0.3,4.3,0.3c3.8,0.8,5.4,1.3,9.1,1.6c2.6,0.2,5.3,0,7.8-0.8c2-0.7,3.8-1.9,5.5-3.2c1.7-1.5,3.1-3.4,4.2-5.5c1.5-2.5,2.6-5.1,3.4-7.8c0.7-2.2,1.5-4.4,1.7-6.7c0.2-1.6,0.5-3.1,0.6-4.7C68.8,35.9,68.6,34.8,68.5,33.7"/></defs><clipPath id="_3"><use xlink:href="#_2" style="overflow:visible;"/></clipPath><g style="clip-path:url(#_3);"><path class="st3" d="M67.1,24.8c-0.4-2.8-2.1-5.1-4.4-7.4c-0.9-1-1.7-2-2.7-2.9c-0.8-0.7-1.4-1.5-2.2-2.2c-0.9-0.9-1.6-1.3-2.6-2.2c-1.6-1.6-3.9-2.7-6.3-3.7c-1.2-0.4-2.4-0.8-3.6-1.2c-1.1-0.2-2.2-0.3-3.3-0.1c-0.2,0.1-0.1,0-0.5,0.1c0,0-0.1,0-0.1,0.1c-2.4,0.1-4.8,0.3-6.9,1.1c-2.3,1-3.6,2.8-3.9,4.6c0,0.1,0,0.2,0,0.2c-0.5-0.1-1-0.2-1.5-0.2c-4.3,0.1-8,1-11.4,3c-1.4,0.9-2.9,1.9-3.1,3.3c-0.3,0.9-0.1,1.7,0.4,2.5c-1.8,0.1-3.4,0.7-5,1.3c-3.2,1.1-6.3,2.6-8.3,4.6c-1.2,1.6,1,3,3.2,3.1c4.4,0.4,8.9-0.1,13.3-0.4c-1,1.2-2.2,2.6-1.1,3.8c3.5,3.6,13.1,2.2,17.8,0.1c1-0.4,2-0.9,3-1.5c0.2,0.6,0.6,1.1,1.2,1.5c0.7,0.6,1.6,1,2.7,1.2c4.6,0.6,10.6-0.9,14.3-3.5c0,0.2,0.1,0.4,0.2,0.6c0.4,0.7,1.3,1.3,2.4,1.4c1.2,0.2,2.4,0.1,3.5-0.2c2.1-0.5,4.1-1.4,5.3-2.7C68.6,27.7,67.3,25.8,67.1,24.8"/><g><g><path class="st4" d="M19.3,62.2c-0.3-1.5-1.1-3.5-1.7-5.2c-0.5-1.3-1-2.5-1.7-3.7c-0.6-1.1-1.3-2.2-2.6-2.8c-1-0.4-2.2-0.1-3,0.5c-1.9,1.6-2,4-2.4,6.1c-0.2,1.6,0.3,3.3,0.3,4.9c0.2,1.9,0.3,3.9,0.9,5.7c0,0,0.1,0,0.1,0.1c0.1,0.4,0.7,0.3,0.9-0.1c0,0,0.1-0.1,0.1-0.2c0,0,0,0,0,0c0,0,0.1-0.1,0.1-0.1c0.2-0.1,0.7-0.3,0.9-0.4c0.3-0.1,0.5-0.1,0.9-0.2c0.1,0,0.3-0.1,0.4-0.1c0.6-0.1,1.4-0.4,1.6-0.4c1.2,0,2.4-0.2,3.6-0.2c0.6,0,1.3,0.1,1.9,0c0,0,0,0,0,0c0.2,0,0.3-0.1,0.4-0.2C20.2,64.7,19.4,63.1,19.3,62.2 M48.2,63.2c-0.2-0.8-0.5-2-0.7-2.7c-0.1-1.1-0.2-2.3-0.5-3.4c-0.5-1.3-1-2.6-1.6-3.9c-0.5-0.8-1.2-1.5-2-2.1c-0.8-0.6-1.8-1.1-2.9-0.9c-1.2,0.1-2.3,0.6-3.1,1.3c-1.7,1.3-2.5,3.2-3.1,5c-0.7,2.2-1.4,4.4-2,6.6c0,0.3-0.3,0.7-0.2,1c-0.1,0.1-0.2,0.1-0.2,0.2c-0.1,0.3,0.2,0.6,0.5,0.5c0.1,0,0.2-0.1,0.2-0.1c0,0,0.1,0,0.1,0c0.8-0.2,2.2-0.1,3.4-0.1c1.5,0.1,3,0,4.5,0c2.3,0.1,4.5,0.1,6.8-0.1c0.3,0,0.8-0.2,0.9-0.5C48.3,63.7,48.2,63.5,48.2,63.2"/><path class="st5" d="M32.5,63.5c-0.4-3.8-1-7-1.9-10.6c-0.5-1.8-1.2-3.5-2.3-5.1c-0.4-0.7-1-1.3-1.9-1.7c-1.1-0.4-2.5-0.2-3.6,0.3c-1.2,0.8-1.6,2.1-2.1,3.3c-1.3,4.2-1.2,8.3-1.1,12.8c0.1,1,0.1,2,0.2,3c-0.2,0.2-0.1,0.6,0.2,0.6c0.1,0.1,0.5-0.1,0.6-0.2c0.5-0.2,0.6-0.2,1.3-0.4c0.2,0,2.1-0.4,2.3-0.5c1.2-0.2,1.7-0.5,2.9-0.5c1.4,0.1,3.1,0,4.1,0.1C32.6,65,32.6,64.6,32.5,63.5"/><path class="st6" d="M15.7,66.3c-0.1-0.6-0.3-1.1-0.4-1.6c-0.4-1.6-0.9-3.6-1.4-5.5c-0.3-1-0.7-2.2-0.8-3c-0.1-0.3-0.3-0.9-0.3-1c0-0.1,0-0.4-0.4-0.4c-0.2,0-0.3,0.2-0.3,0.4c0,0.5,0.1,0.6,0.2,1c0.1,0.6,0.1,1.3,0.2,1.9c0.3,1.1,0.5,2.4,0.7,3.4c0.2,1.7,0.4,3.5,0.6,5.3c0,0.1,0,0.3,0.1,0.3c0.1,0.1,0.2,0.1,0.3,0c0.1,0,0.1,0,0.2,0c0,0,0.1,0,0.1,0c0,0,0,0,0.1,0c0.1,0,0.5-0.1,0.4-0.1c0.1-0.1,0.6,0.1,0.8-0.2C15.8,66.6,15.7,66.1,15.7,66.3"/><path class="st6" d="M26.3,63.8c-0.2-2.1-0.2-4.2-0.4-6.3c-0.2-1.5-0.5-2.9-0.7-4.4c-0.1-0.4-0.1-0.8-0.1-1c0-0.2,0-0.4-0.1-0.5c-0.2-0.1-0.5,0-0.5,0.2c-0.2,3,0,6.3,0,9.6c0,1.2,0.1,2.4,0.2,3.6c0.1,0.1,0.2,0.1,0.3,0.1c0.3,0.2,0.3,0,0.7,0.1C26.7,65.3,26.4,64.8,26.3,63.8"/><path class="st6" d="M40.4,54.6c0-0.1,0-0.3,0-0.4c0,0,0,0,0,0h0c0-0.1-0.1-0.2-0.3-0.2c-0.3,0-0.3,0.2-0.3,0.4c0,0,0,0.1,0,0.1c0,0.1,0,0.1,0,0.2c-0.2,2.2-0.8,5.1-1.2,7.5c-0.1,0.8-0.4,1.6-0.3,2.4c0,0,0.1,0.1,0.1,0.1c0.1,0.1,0.1,0.1,0.3,0.2c0.1,0,0.3,0,0.3,0c0.4,0,0.8,0.1,1.2,0c0,0,0.6,0.2,0.6-0.2c0-1.2,0-2.3,0.1-3.3C40.8,59.1,40.6,56.9,40.4,54.6"/></g><g><path class="st5" d="M72,61.9c-0.8,0.4-2,0.7-3.1,1c-2.2,0.7-4.8,0.5-7.3,0.5c-4.5,0.2-8.7-1.2-13.3-2c-4.6-1-9-1.3-13.6-1.1c-1.7,0.1-3.4,0.2-5,0.5c-0.7,0.1-1.4,0.1-2.1,0.3c-0.8,0.2-1.6,0.3-2.3,0.5c-1.1,0.3-2.1,0.8-3.1,1c-1.4,0.3-3.7,0.4-5.5,0.5c-1,0.1-1.4,0.3-2.4,0.4c-1.8,0-3.8-0.3-5.8-0.9c-0.9-0.3-1.5-0.5-2.5-0.9c-0.1,0-0.2-0.1-0.3,0c-0.1,0-0.1,0-0.1,0.1c-0.2,0.1-0.3,0.3-0.3,0.5c0,0,0,0.1,0.1,0.1c0,0,0,0,0,0c0.2,0.5,0.3,0.9,0.5,1.1c1,1.8,2.8,2.9,4.5,4c1.5,0.9,3.1,1.5,4.7,2.2c0.9,0.4,1.7,1,2.6,1.2c1.5,0.3,3,0.3,4.5,0.4c1.4,0,2.8-0.3,4.2-0.6c1.9-0.3,3.7-1,5.5-1.4c1-0.4,2.1-0.8,3.2-1c1.8-0.4,3.4-0.8,5-1c2-0.2,3.9,0,5.9,0.1c2.5,0,4.8,0.3,7.4,0.6c3.1,0.4,6.2,0.7,9.3,0.7c1.8,0,3.5-0.6,4.9-1.5c1.3-0.6,2.4-1.5,3.3-2.5C71.2,64.2,73.4,62,72,61.9"/><g><path class="st4" d="M69,64.2c-0.2,0-0.4,0.1-0.6,0.1c-0.6,0.2-1.1,0.3-1.7,0.4c-1.4,0.4-2.7,0.5-4.3,0.7c-4.2,0.2-8.3,0.4-12.2-0.8c-2.3-0.6-4.1-1.4-6.5-2.1c-1.8-0.5-3.7-0.8-5.6-1c-1.9-0.1-3.8,0.2-5.6,0.2c-2.1,0.3-4.1,0.8-6.2,1.5c-1,0.3-1.9,0.6-2.8,1c-1,0.3-2,0.7-3,0.9c-1.1,0.3-2.2,0.4-3.4,0.5c-0.9,0.1-1.8,0.2-2.7,0.2c-0.9,0-1.8,0-2.6-0.3c-1.2-0.4-2.3-0.9-3.3-1.6c-0.2-0.2-0.6,0.1-0.3,0.3c1.5,1,3.3,1.9,5.2,1.9c1.4,0,2.8,0,4.2-0.2c1.1-0.1,2.1-0.2,3.2-0.5c1.6-0.4,3.1-1,4.6-1.5c1.4-0.4,2.9-0.9,4.2-1.1c1.3-0.3,2.3-0.6,3.7-0.6c1.7,0,4.1-0.3,5.5-0.1c3.8,0.3,6.9,1.6,10.3,2.7c3.3,1.1,6.4,1.2,9.9,1.3c2.8-0.1,5.7-0.2,8.4-1c0.6-0.1,1.1-0.3,1.7-0.4c0.1,0,0.3-0.1,0.4-0.2C69.4,64.5,69.3,64.2,69,64.2"/><path class="st4" d="M42.4,64.5c-0.2-0.1-0.2-0.1-0.4-0.1c-1.6-0.3-3-0.3-4.7-0.2c-1.3,0-2.6-0.1-3.9,0.2c-1.5,0.3-3.1,0.7-4.6,1.1c-1.6,0.7-3.3,1.2-5,1.8c-1.7,0.6-3.3,0.7-5.2,0.9c-0.4,0.1-0.8,0-1.2,0.2c-0.2,0.2,0,0.5,0.2,0.4c2.2-0.2,4.4-0.4,6.4-1c1.2-0.5,2.4-0.8,3.7-1.3c0.9-0.4,1.8-0.7,2.8-0.9c2.3-0.6,4.2-1,6.6-0.8c1.8-0.1,3-0.1,4.7,0.2c0.2,0,0.3,0.1,0.5,0C42.5,64.9,42.6,64.6,42.4,64.5"/><path class="st4" d="M35.7,66.3c-1.1,0-2.3,0.3-3.4,0.4c-1.2,0.2-2.5,0.6-3.7,0.9c-1.9,0.6-3.7,1.1-5.5,2c-0.4,0.2-1.1,0.4-1.3,0.7c-0.1,0.2,0.2,0.4,0.4,0.3c3.6-1.8,8.2-3.2,12.3-3.6c0.4-0.1,0.9,0,1.2-0.2C36,66.6,35.9,66.4,35.7,66.3"/><path class="st4" d="M65.4,67c-0.2-0.1-0.4,0-0.6,0.1c0,0,0,0,0,0c-0.9,0.1-1.8,0.3-2.7,0.3c-1.1,0-2.3,0.2-3.4,0.1c-1.8-0.2-4.3-0.4-6.4-0.8c-2-0.4-4.1-0.7-6.2-0.7c-0.1,0-0.3,0-0.4,0.1c-0.2,0.2,0,0.4,0.2,0.4c3.5,0,7.1,1.1,10.8,1.4c0.7,0,1.7,0.2,2.6,0.2c0.9,0,1.8-0.1,2.7-0.1c0.7,0,1.4-0.1,2.1-0.1c0.4,0,0.9,0,1.3-0.2C65.6,67.5,65.7,67.1,65.4,67"/></g></g></g></g></g></g><g><path class="st3" d="M10.4,47.2c-0.7-0.1-1.2,0-1.9,0.2c-0.8,0.3-1.7,1.1-2,1.6c-0.7,0.7-0.7,1.7-0.8,2.6c-0.2,1.8,0.1,3.6,0.4,5.4c0.1,0.7-0.3,1.3-0.8,1.8c-0.2,0.2-0.4,0.4-0.6,0.6c-0.1,0.1,0.1,0.3,0.2,0.2c0.8-0.6,1.7-1.8,1.5-2.8c-0.2-1.4-0.3-2.9-0.4-4.3c0-0.8,0.1-1.7,0.3-2.7c0.3-0.6,0.9-1.4,1.7-1.9c0.6-0.4,1.5-0.5,1.9-0.6c0.6,0,0.9,0.5,0.9,0.9c0,0.8,0,1-0.6,1.5c-0.5,0.5-1,0.7-1.6,0.9c-0.2,0-0.3-0.1-0.3-0.2c-0.1-0.4,0.1-0.4,0.1-0.6c-0.2-0.4-0.5,0-0.5,0.4c0,1.1,0.8,1,1.6,0.6c0.6-0.3,1.2-0.8,1.6-1.4C11.6,48.8,11.5,47.5,10.4,47.2"/><path class="st3" d="M7.4,44.8c-0.1,0-0.2,0.1-0.3,0.2c-1.4,0.7-2.2,1.6-2.7,2.9C3.5,49.9,3.5,52,3.9,54c0.1,0.3,0,0.6,0.2,0.9c0.1,0.1,0.3,0,0.3-0.1c-0.4-2.2-0.6-4.5,0.2-6.4c0.6-1.4,1.2-2.3,2.6-3c0.2-0.1,0.4-0.2,0.4-0.3C7.7,45,7.6,44.8,7.4,44.8"/><path class="st3" d="M63.7,40.6c-0.3-0.4-0.8-0.6-1.2-0.7c-0.4,0-0.8,0.3-1,0.6c-0.6,0.8-0.8,1.5-0.9,2.5c-0.1,0.4-0.1,0.9,0.1,1.2c0.6,0.6,1.2,0.5,1.7-0.3c0.1-0.2,0.2-0.5,0.2-0.7c0-0.1,0.1-0.2,0-0.3c-0.2-0.2-0.5,0-0.4,0.2c0,0.7-0.7,1.2-0.9,1.1C61.1,44,61.1,44,61,43.7c-0.2-0.6,0.3-2.4,0.8-3c0.2-0.3,0.7-0.6,0.7-0.5c0.2,0.1,0.6,0.2,0.8,0.4c0.7,0.8,0.8,1.6,0.7,2.5c-0.1,1.3-0.3,2.6-0.7,3.8c-0.8,2.5-1.5,5-2.9,7.2c-0.4,0.7-0.8,1.4-1.3,2.1c-0.1,0.2,0.2,0.4,0.3,0.2c1.7-2.3,2.9-4.9,3.6-7.6c0.6-1.7,1.1-3.3,1.3-5.1C64.5,42.7,64.4,41.5,63.7,40.6"/><path class="st3" d="M59,45.3c-0.1-0.2-0.4-0.1-0.4,0.1c0.3,1.8,0.4,3.5,0.1,5.2c0,0.6-0.2,1.5-0.5,1.3c-0.2-0.1-0.2-0.5-0.2-0.9c0-0.3,0.3-0.5,0.6-0.8c0.1-0.1,0-0.2,0-0.2c-0.1-0.1-0.3,0-0.4,0.1c-0.2,0.2-0.4,0.4-0.5,0.6c-0.1,0.4-0.2,0.9,0.1,1.3c0.4,0.5,1,0.2,1.1-0.3c0.3-1.2,0.4-2.8,0.4-4C59.2,46.9,59.2,46.1,59,45.3"/><path class="st3" d="M66.2,40.4c-0.1-0.4-0.1-0.8-0.2-1.1c-0.1-0.1-0.4,0-0.3,0.1c0.2,1.2,0.4,2.4,0.4,3.6c-0.2,1.3-0.6,2.6-0.8,3.9c-0.1,1-0.6,2-0.9,2.9c-0.7,2.5-1.7,4.9-3.2,7.2c-0.1,0.3-0.4,0.5-0.5,0.8c0,0.1,0.2,0.2,0.3,0.1c0.1-0.1,0.2-0.3,0.4-0.5c1.6-2.3,2.6-4.9,3.4-7.5c0.3-1,0.8-1.9,0.9-3c0.3-1.3,0.6-2.6,0.8-3.9C66.5,42.1,66.3,41.3,66.2,40.4"/></g><g><path class="st7" d="M16.3,43.8c-0.1-0.2-0.4-0.1-0.4,0.1c-0.3,0.8-0.5,1.3-0.7,2c-0.1,0.2,0.1,0.4,0.4,0.3c0.2-0.1,0.5-1.2,0.8-1.9C16.3,44.1,16.4,43.9,16.3,43.8"/><path class="st7" d="M20.6,42.3c-0.2,0.5-0.5,1.5-0.6,1.8c0,0.1-0.1,0.2-0.1,0.3c0,0.1,0.2,0.2,0.4,0.1c0.2-0.2,0.2-0.6,0.4-0.9c0.1-0.4,0.3-0.9,0.4-1.3C21,42.1,20.6,42.1,20.6,42.3"/><path class="st7" d="M18.8,48c-0.1-0.2-0.4-0.1-0.5,0.1c-0.3,0.9-0.5,1.6-0.8,2.4c-0.4,0.3,0.2,0.7,0.5,0.2c0.3-0.7,0.5-1.4,0.8-2.2C18.8,48.3,18.9,48.1,18.8,48"/><path class="st7" d="M25.8,42.5c-0.1-0.1-0.4-0.1-0.4,0.1c-0.2,0.5-0.4,1.1-0.5,1.6c0,0.2,0.3,0.2,0.4,0.1c0.2-0.5,0.3-0.9,0.5-1.4C25.8,42.8,25.8,42.6,25.8,42.5"/><path class="st7" d="M23.4,47c-0.3,0.7-0.6,1.6-0.8,2.1c-0.1,0.1,0,0.3,0.2,0.3c0.1,0,0.2,0,0.3-0.1c0.3-0.7,0.5-1.4,0.8-2.1C24,46.9,23.5,46.7,23.4,47"/><path class="st7" d="M29.9,43.1c-0.2,0.6-0.4,1.2-0.6,1.7c0,0.1,0.1,0.2,0.2,0.2c0.1,0,0.2-0.1,0.2-0.2c0.2-0.6,0.4-1.1,0.6-1.7C30.4,42.9,29.9,42.8,29.9,43.1"/><path class="st7" d="M27.6,48.2c-0.4,1.2-1,2.3-1.4,3.6c0.1,0.2,0.3,0.2,0.4,0c0.5-1.2,1-2.4,1.4-3.6C28,48,27.6,48,27.6,48.2"/><path class="st7" d="M34.4,43.6c-0.1,0.5-0.3,0.9-0.4,1.3c0,0.1,0.1,0.2,0.2,0.2c0.2,0,0.2-0.1,0.2-0.2c0.1-0.5,0.4-0.9,0.4-1.4C34.9,43.4,34.5,43.4,34.4,43.6"/><path class="st7" d="M32.9,48c-0.1-0.2-0.4-0.1-0.5,0.1c-0.3,0.9-0.7,1.9-1.1,3c0,0.1,0.1,0.2,0.2,0.2c0.4,0,0.4-0.7,0.6-0.9c0.3-0.7,0.5-1.4,0.8-2.1C32.9,48.2,33,48,32.9,48"/><path class="st7" d="M23.3,51.5c-0.4,0.8-0.7,1.6-1,2.5c-0.1,0.2,0.1,0.3,0.3,0.3c0.4-0.5,0.7-1.9,1.1-2.6C23.9,51.5,23.5,51.3,23.3,51.5"/><path class="st7" d="M19.5,52.4c-0.2,0.7-0.5,1.3-0.7,2c-0.1,0.2,0.2,0.4,0.3,0.3c0.4-0.7,0.6-1.4,0.8-2.1C20,52.3,19.6,52.2,19.5,52.4"/><path class="st7" d="M14.1,49.7c-0.2,0.7-0.5,1.4-0.9,2.2c-0.1,0.2-0.4,0.5,0,0.7c0.1,0,0.2-0.1,0.3-0.2c0.4-0.8,0.7-1.6,1-2.5C14.6,49.6,14.2,49.3,14.1,49.7"/><path class="st7" d="M15.1,53.9c-0.4,0.9-0.8,1.7-1.2,2.6c-0.1,0.2-0.6,0.7-0.1,0.8c0.2,0,0.3-0.1,0.3-0.3c0.4-0.8,0.8-1.6,1.1-2.3c0.1-0.3,0.3-0.5,0.3-0.8C15.4,53.7,15.1,53.7,15.1,53.9"/><path class="st7" d="M24.2,55.2c-0.4,0.8-0.9,1.9-1.2,2.5C23,57.8,23,57.9,23,58c0.3,0.3,0.5-0.1,0.5-0.3c0.3-0.8,0.8-1.6,1.1-2.4C24.7,55.1,24.3,55,24.2,55.2"/><path class="st7" d="M29.2,53.4c-0.3,0.9-0.6,1.7-1,2.6c0,0,0,0,0,0c0,0,0,0,0,0c0,0.1,0,0.1,0,0.2c0,0.1,0.2,0.2,0.3,0.1c0.1,0,0.1-0.1,0.2-0.2c0.4-0.9,0.7-1.7,1-2.6C29.7,53.2,29.2,53.1,29.2,53.4"/><path class="st7" d="M30.8,56C30.8,56,30.8,56,30.8,56"/><path class="st7" d="M39.1,43.5c-0.2,0.5-0.3,1-0.5,1.5c0,0.2,0.2,0.3,0.4,0.2c0.2-0.2,0.2-0.4,0.3-0.6c0.1-0.4,0.3-0.7,0.3-1.1C39.6,43.3,39.2,43.3,39.1,43.5"/><path class="st7" d="M36.2,47.8c-0.3,0.8-0.7,2.1-0.9,2.7c-0.1,0.1,0,0.5,0.3,0.3c0.5-0.9,0.7-2,1-2.9C36.7,47.6,36.3,47.5,36.2,47.8"/><path class="st7" d="M35.7,54.1c-0.2,0.9-0.6,2-0.9,2.8c0,0,0,0,0,0c0,0,0,0.1,0,0.2c0,0.1,0.2,0.2,0.4,0.1c0.5-0.9,0.7-2,1-2.9C36.3,53.9,35.8,53.8,35.7,54.1"/><path class="st7" d="M39.8,52.8c-0.2,0.8-0.4,1.9-0.6,2.5C39,55.6,38.7,56,39.3,56c0.1,0,0.2-0.1,0.2-0.2c0.4-1,0.6-2,0.8-3C40.3,52.6,39.8,52.5,39.8,52.8"/><path class="st7" d="M40.8,48.1c-0.1,0.5-0.3,0.9-0.4,1.4c0,0.1,0.1,0.1,0.2,0.2c0.1,0,0.2-0.1,0.3-0.2c0.1-0.4,0.3-0.9,0.4-1.3C41.4,47.9,40.9,47.8,40.8,48.1"/><path class="st7" d="M44,43c-0.1,0.6-0.3,1.2-0.4,1.7c0,0.2,0.3,0.2,0.4,0.1c0.2-0.6,0.3-1.2,0.4-1.8C44.5,42.7,44.1,42.8,44,43"/><path class="st7" d="M49.3,41.7c-0.1-0.1-0.4-0.1-0.4,0.1c-0.2,0.6-0.4,1.3-0.6,1.9c0,0.1,0,0.1,0,0.2c0.1,0.1,0.4,0.1,0.4-0.1c0.2-0.5,0.3-1,0.5-1.5C49.2,42.2,49.4,41.9,49.3,41.7"/><path class="st7" d="M47.2,47.9c-0.1-0.2-0.5-0.1-0.5,0.1c-0.1,0.8-0.2,1.6-0.4,2.4c0,0.1-0.1,0.2,0,0.4c0,0.2,0.3,0.3,0.4,0.2c0.3-0.3,0.2-1,0.4-1.4C47.1,49.1,47.3,48.4,47.2,47.9"/><path class="st7" d="M45.8,54.8c-0.1-0.2-0.4-0.1-0.5,0.1c0,0.5-0.1,1-0.2,1.5c-0.1,0.2,0,0.4,0.2,0.4c0.2,0,0.3-0.2,0.3-0.3c0.1-0.3,0.1-0.6,0.1-0.9C45.8,55.3,45.9,55,45.8,54.8"/><path class="st7" d="M53.4,54.8c-0.1-0.2-0.5-0.1-0.5,0.1c-0.1,0.8-0.1,1.7-0.2,2.5c0,0.2-0.2,0.7,0.2,0.7c0.1,0,0.2-0.1,0.2-0.2c0.1-0.8,0.2-1.6,0.3-2.4C53.4,55.3,53.5,55,53.4,54.8"/><path class="st7" d="M51.6,48.2c-0.1-0.1-0.4-0.1-0.4,0.1c0,0.5-0.1,1-0.2,1.5c0,0.1,0,0.2,0.1,0.2c0.3,0.2,0.4-0.3,0.4-0.5c0-0.3,0.1-0.5,0.1-0.8C51.6,48.5,51.7,48.3,51.6,48.2"/><path class="st7" d="M53.2,42.3c-0.1-0.2-0.4-0.1-0.4,0.1c-0.1,0.8-0.2,1.5-0.3,2.3c0,0.1,0.1,0.3,0.2,0.2c0.1,0,0.2-0.1,0.2-0.2c0.1-0.6,0.2-1.2,0.3-1.9C53.2,42.6,53.3,42.4,53.2,42.3"/><path class="st7" d="M54.9,50.6c-0.1,0.6-0.1,1.2-0.1,1.8c0,0.1,0.1,0.3,0.2,0.3c0.2,0,0.3-0.1,0.3-0.3c0-0.5,0.1-1,0.1-1.5C55.5,50.5,55.1,50.2,54.9,50.6"/><path class="st7" d="M57.7,56.8c-0.2-0.1-0.4,0-0.4,0.2c0,0.6,0,1.2,0,1.8c0,0.1,0.1,0.2,0.2,0.2c0.2,0.1,0.3-0.1,0.3-0.2c0-0.4,0-0.8,0-1.3C57.8,57.2,57.9,56.9,57.7,56.8"/><path class="st7" d="M56.4,42c-0.1-0.2-0.4-0.1-0.4,0.1c-0.1,1.1-0.2,2.2-0.3,3.3c0,0.3-0.4,1,0.1,1c0.3,0,0.2-0.4,0.3-0.5c0.1-0.9,0.2-1.9,0.3-2.8C56.4,42.7,56.5,42.3,56.4,42"/><path class="st7" d="M44.8,57.6c-0.2,0.8-0.4,1.9-0.7,2.5c-0.1,0.2,0.2,0.4,0.3,0.3c0.1-0.1,0.1-0.2,0.2-0.3c0.2-0.8,0.4-1.6,0.6-2.4C45.3,57.5,44.8,57.4,44.8,57.6"/><path class="st7" d="M49.2,59.3c0,0.5-0.2,1-0.1,1.5c0.6,0.5,0.5-1,0.6-1.4C49.8,59.1,49.3,59,49.2,59.3"/><path class="st7" d="M54.5,59.4c-0.1-0.2-0.5-0.1-0.5,0.1c-0.1,0.7-0.1,1.8-0.1,2.1c-0.1,0.2,0,0.4,0.3,0.4c0.2,0,0.3-0.1,0.3-0.3c0.1-0.5,0.1-1.1,0.1-1.6C54.5,59.9,54.6,59.6,54.5,59.4"/><path class="st7" d="M40.2,57.9c-0.1,0.6-0.2,1.1-0.3,1.7c0,0.1,0.1,0.2,0.2,0.3c0.2,0,0.3-0.2,0.3-0.3c0.1-0.5,0.2-1,0.3-1.6C40.8,57.7,40.3,57.6,40.2,57.9"/><path class="st7" d="M15.6,59.5c-0.2,0.6-0.3,1.2-0.5,1.8c0,0.1,0.1,0.3,0.3,0.3c0.1,0,0.2-0.1,0.2-0.2c0.2-0.6,0.3-1.2,0.5-1.8C16.2,59.3,15.7,59.2,15.6,59.5"/><path class="st7" d="M20.3,56.9c-0.2,0.9-0.3,1.8-0.5,2.7c0,0.1-0.1,0.3-0.1,0.4c0,0.2,0.3,0.2,0.4,0.1c0.1-0.1,0.1-0.2,0.2-0.4c0.2-0.9,0.4-1.8,0.5-2.7C21,56.7,20.4,56.5,20.3,56.9"/><path class="st7" d="M29.5,58.1c-0.1-0.1-0.4,0-0.4,0.1c-0.2,0.6-0.4,1.2-0.6,1.8c0,0.1,0,0.2,0.1,0.2c0.3,0.1,0.4-0.1,0.4-0.2c0.2-0.4,0.4-1,0.4-1.2C29.4,58.6,29.7,58.3,29.5,58.1"/><path class="st7" d="M10.7,53.9c-0.1,0.9-0.3,1.8-0.5,2.7c-0.1,0.2,0.2,0.3,0.3,0.2C11,56,11,54.9,11.2,54C11.2,53.7,10.8,53.6,10.7,53.9"/><path class="st7" d="M11.5,59.9c-0.2,0.9-0.5,1.7-0.8,2.6c-0.1,0.2,0.1,0.3,0.3,0.3c0.1,0,0.2-0.1,0.3-0.2c0.2-0.9,0.5-1.7,0.8-2.6C12.1,59.6,11.5,59.5,11.5,59.9"/><path class="st7" d="M34.6,57.3c-0.2,0.8-0.5,1.6-0.7,2.5c-0.1,0.2,0.2,0.4,0.4,0.2c0.3-0.7,0.5-1.9,0.8-2.6C35.2,57.1,34.7,57,34.6,57.3"/><path class="st7" d="M33.2,52.4c-0.3,0.8-0.5,1.7-0.7,2.5c-0.1,0.2,0.2,0.4,0.4,0.2c0.4-0.8,0.4-1.8,0.8-2.7C33.8,52.2,33.3,52.1,33.2,52.4"/></g><g><g><g><path class="st3" d="M59.8,32.8c-0.5-2.3-3-3.5-5.2-4.2c-0.1,0-0.2-0.1-0.2-0.1c0,0,0,0,0,0c0.8-0.6,2-1.2,2-2.3c-0.3-1.4-1.5-2.5-2.8-3.2c-1.1-0.6-2.4-0.8-3.7-1c-0.8,0-2,0-2.6,0c0,0,0,0,0,0c0-0.4,0.4-1.1,0.5-1.8c0.3-0.9-0.2-1.7-0.8-2.4c-0.4-0.3-0.7-0.8-1.2-1c-0.8-0.5-1.8-0.5-2.7-0.4c-0.7,0.1-1.4,0.4-2,0.7c0.7-1,0.4-2.3-0.6-3.1c-1-0.8-2.2-1.3-3.4-1.7c-1.6-0.3-3.5,0.2-4.7,1.3c0,0-0.1,0.1-0.1,0.1c-1.2-0.1-2.4,0-3.5,0.1c-2.6,0.4-4.7,2.7-4.7,5.1c-0.1-0.1-0.3-0.1-0.5-0.2c-2.9-0.9-9.5,1.1-11,3.5c-0.5,0.7-1,1.6-0.9,2.5c-2.5-0.6-6.4,0.9-8.2,2.2c-2.1,1.5-4,4.5-3.3,7C1,36,3.8,37,6.2,36.7c1.3-0.1,2.5-0.3,3.7-0.6c0.3-0.1,0.7-0.3,1-0.4c-0.7,2.6,2.3,4.4,5,4.5c0.9,0,1.8-0.4,2.6-0.6c1.4-0.5,3.3-1.2,4.4-1.8c1.8,6,8.8,4.5,12.9,1.4c0.4-0.3,0.8-0.7,1.3-1c0,0,0,0.1,0.1,0.1c0.6,0.9,1.3,1.7,2.4,2.1c1.5,0.6,3.6,0.6,4.8,0.1c2.1-0.6,5-1.8,4.9-4.2c0,0,0,0,0,0c0.2,0.1,0.4,0.2,0.6,0.3c1.3,0.9,3.1,0.7,4.7,0.6C57.1,36.9,60.2,35.6,59.8,32.8"/><g><path class="st7" d="M6.6,32.8c-0.3-0.1-0.6,0.1-0.9,0.1c-0.4,0.1-0.6,0.2-0.9,0.2c-0.4,0-1-0.5-1.1-0.9c-0.3-0.7,0.7-1.7,1.3-2.3c0.1-0.1,0.3-0.2,0.4-0.4c0-0.2-0.2-0.3-0.4-0.2c-0.5,0.4-0.9,0.9-1.2,1.4c-0.3,0.4-0.6,0.8-0.6,1.3c0.1,0.8,0.7,1.4,1.6,1.5c0.4,0.1,0.9-0.2,1.1-0.2c0.3-0.1,0.6,0,0.8-0.2C6.7,33,6.7,32.9,6.6,32.8"/><path class="st7" d="M19.2,21.6c-0.7,0.1-1.3,0.4-2,0.6c-0.4,0.2-0.8,0.4-1,0.8c-0.2,0.3-0.4,0.7-0.3,1.1c0.1,0.6,0.6,1.3,1.3,1.4c0.2,0,0.4,0.1,0.6,0c0.2,0,0.2-0.3,0.1-0.4c-0.2-0.2-0.5-0.1-0.7-0.1c-0.4,0-0.7-0.4-0.8-0.9c-0.1-0.3,0-0.4,0.2-0.9c0.2-0.5,1.6-0.9,2.4-1.1c0.1,0,0.3,0,0.4-0.1C19.6,21.8,19.4,21.6,19.2,21.6"/><path class="st7" d="M14.8,30.6c-0.2,0-0.3,0.1-0.5,0.1c0,0-0.1,0-0.1,0c-0.7,0.2-1.7,0.2-2.1,0c-0.7-0.4-1-1.1-0.7-1.7c0.3-0.6,1.1-1.3,1.6-1.7c0.4-0.1,0.4-0.6-0.1-0.5c-0.5,0.2-0.9,0.6-1.2,0.9c-0.5,0.5-0.9,1-1,1.7c0.1,1.7,1.8,2.2,3.3,1.8c0.3-0.1,0.7-0.1,0.9-0.4C15.1,30.8,15,30.6,14.8,30.6"/><path class="st7" d="M18.5,36c-0.3,0-0.5,0.2-0.7,0.3c-0.5,0.2-1,0.4-1.2,0.4c-0.5,0-0.9-0.4-1-0.7c0.1-0.4,0.7-1.7,1.3-2.2c0.4-0.2,0-0.7-0.3-0.4c-0.6,0.6-0.9,1.3-1.3,2c-0.1,0.3-0.3,0.5-0.2,0.8c0.2,0.6,0.8,1.1,1.5,1c0.5,0,1-0.3,1.4-0.4c0.2-0.1,0.6-0.2,0.7-0.4C18.8,36.2,18.7,36,18.5,36"/><path class="st7" d="M31.2,38c-0.1-0.1-0.2-0.1-0.3-0.1c-0.3,0.1-0.6,0.3-0.8,0.4c-0.7,0.4-2.1,0.5-2.2,0.3c-0.2-0.1-0.1-1.3,0.1-1.7c0.2-0.4-0.2-0.7-0.4-0.3c-0.2,0.7-0.5,1.6-0.1,2.3c0.2,0.3,0.6,0.3,0.9,0.3c0.5,0,1-0.1,1.5-0.2c0.4-0.2,0.8-0.4,1.3-0.6C31.3,38.3,31.3,38.1,31.2,38"/></g></g><g><path class="st7" d="M25.1,23.6c0.1,0,0.3,0,0.5,0 M75.6,31.9c-0.9-1.2-2.1-2.4-3.6-3.1c-0.1-0.1-0.3-0.1-0.4-0.2c0-0.3,0.3-0.4,0.8-0.9c1.2-0.9,1.6-2.4,1.2-3.8c-0.7-1.5-2.2-2.7-3.7-3.8c-1.2-0.7-2.6-1-4-1.3c-0.6-0.1-1.8-0.2-2.1-0.3c0,0,0,0,0,0c-0.3-0.4,0.5-1.6,0.6-2.7c0.2-1.2-0.3-2.5-1.3-3.4c-0.6-0.5-1.4-0.8-2.2-1c-0.8-0.3-2.1-0.3-2.8-0.3c0,0,0-0.1,0.1-0.2c0.2-0.6,0.4-1.9,0.1-2.8c-0.2-0.5-0.6-0.9-1-1.3C56.5,6,55.2,5.7,54,5.5c-0.9-0.1-1.9,0.2-2.6,0.6c-0.6,0.4-1.4,1-1.6,1.4c-1.1-0.3-2.3-0.5-3.5-0.4c-0.8,0.2-1.3,0.7-1.9,1c-1.4,1-3.4,2.3-2.5,4.1c0,0.1,0.1,0.1,0.1,0.2c-0.2,0-0.4,0-0.7,0.1c-1.1,0.1-2.1,0.5-3,1.1c-1.1,0.6-2.2,1.2-3.1,2c-0.8,0.7-1.2,1.8-0.7,2.8c0.1,0.2,0.2,0.4,0.3,0.6c0,0-0.1,0-0.1,0c-0.1,0-0.2,0-0.2,0c-0.7-0.2-1.4-0.4-2.1-0.5c-0.5-0.1-1.9-0.6-3.2,0.7c-0.8,0.6-0.9,2.1-1,3c-0.4,0.3-0.9,0.6-1.4,0.8c0,0,0,0,0,0c-0.1,0-0.1,0-0.1,0c-1.1-0.2-2.2,0-3,0.7c-0.9,0.6-1.7,1.4-2.2,2.3c-1,1.6-0.6,2.3,0.3,3.8c0.6,0.9,1.1,1.4,2,2.1c0.4,0.4,1,0.8,1.7,1.1c1,0.5,2,1,3.1,1.2c2.1,0.3,3.9,0.4,6,0c1.3-0.2,2.6,0,4,0.5c1.8,0.5,4.1,1.5,6.2,2.2c1.8,0.5,3.6,1,5.5,1.3c1.5,0.2,2.6,0.1,3.9,0.1c1.2-0.1,2.4-0.3,3.6-0.5c0.8-0.2,1.3-0.4,2-0.3c1.2,0,2.3,0.4,3.5,0.5c1.6,0.2,3.1,0.4,4.8-0.2c0.5-0.2,1.1-0.4,1.6-0.6c0.2,0,0.5-0.1,0.7-0.1c1.3-0.2,2.7-0.5,3.9-1.1C76,35.3,76.6,33.4,75.6,31.9"/><g><path class="st7" d="M31.3,18.9C31.3,18.9,31.3,18.9,31.3,18.9C31.3,18.9,31.3,18.9,31.3,18.9C31.2,19,31.1,19.1,31.3,18.9"/><path class="st3" d="M27,27.1c0.2-0.1,0.4-0.1,0.5-0.2c0.2-0.2,0-0.5-0.2-0.4c-1,0.4-3.3,1.5-2.7,2.9c0.2,0.4,0.6,0.7,1,0.9c0.2,0.1,0.4,0.2,0.8,0.2c0.1,0,0.3,0.1,0.5,0.1c0.2-0.1,0.2-0.3,0.1-0.4c-0.2-0.1-0.4-0.2-0.6-0.2c-0.4,0-1.3-0.5-1.3-1.1C24.9,28.3,26,27.6,27,27.1"/><path class="st3" d="M36.5,21.5c-1.1-0.3-2.7-0.1-3.3,1c-0.4,1,0.5,1.6,1.2,2c0.3,0.1,0.3,0.3,0.6,0.2c0.1-0.1,0.2-0.3,0.1-0.4c-0.1-0.1-0.3-0.1-0.4-0.2c-0.2-0.1-0.7-0.4-1-0.7c0,0-0.1-0.1-0.1-0.1c0,0,0,0,0,0c0,0,0,0,0,0c-0.3-0.5,0-1,0.8-1.3c0.3-0.1,1.3-0.3,1.6-0.2c0.1,0,0.3,0.1,0.4,0.1C36.6,21.8,36.6,21.5,36.5,21.5"/><path class="st3" d="M46.1,15.3c-1-0.2-2.3-0.4-3.2,0.2c-0.6,0.4-1,1-1.3,1.7c-0.1,0.6,0,1.2,0.4,1.6c0.4,0.4,0.9,0.7,1.4,0.8c0.1,0.1,0.3,0.1,0.4,0c0.3-0.4-0.3-0.5-0.5-0.6c-0.2-0.1-0.8-0.4-0.8-0.5c-0.7-0.8-0.3-1.7,0.6-2.5c0.7-0.6,1.6-0.5,2.8-0.3c0.2,0,0.3,0.1,0.5,0C46.4,15.6,46.3,15.3,46.1,15.3"/><path class="st3" d="M53.2,10.3C52.6,10,52,9.6,51.4,9.5c-0.5-0.1-1.1-0.1-1.6,0.1c-0.2,0.1-0.5,0.2-0.5,0.5c-0.1,0.9-0.1,2,0.3,2.8c0.2,0.2,0.5-0.1,0.4-0.3c-0.4-0.6-0.3-2.3-0.2-2.5C50,9.9,51,9.8,51.4,10c0.6,0.2,1.1,0.6,1.6,0.8C53.3,10.8,53.4,10.4,53.2,10.3"/><path class="st3" d="M57.5,15.6c-1.4-0.2-3.1,0.2-3.9,1.5c-0.4,0.8,0,1.8,0.8,2.2c0.6,0.4,1.3,0.5,1.9,0.8c0.1,0.1,0.3,0.1,0.4,0c0.3-0.5-0.4-0.6-0.8-0.7c-0.7-0.2-1.1-0.4-1.6-0.7c-0.9-0.7-0.3-2,1.1-2.5c0.4-0.1,1.3-0.2,1.9-0.2C57.8,16.1,57.8,15.6,57.5,15.6"/><path class="st3" d="M48.1,24.2c0.5-0.3,1.1-0.3,1.8-0.5c0.2-0.1,0.1-0.5-0.2-0.4c-0.7,0.1-1.5,0.2-2,0.7c-1,1.3-0.3,2,0.9,2.6c0.8,0.3,0.7-0.6,0.2-0.5c-0.5-0.2-1.2-0.8-1.1-1C47.7,24.7,48,24.2,48.1,24.2"/><path class="st3" d="M42.3,27.3c-0.1-0.1-0.2,0-0.4-0.1c-1.2-0.1-1.7-0.8-1.1-1.6c0.5-0.5,1.1-0.7,1.8-1.1c0.2-0.2,0-0.5-0.2-0.4c-0.8,0.3-1.7,0.7-2.1,1.5c-0.5,1.1,0.4,1.9,1.4,2c0.2,0,0.4,0.1,0.6,0C42.4,27.6,42.4,27.4,42.3,27.3"/><path class="st3" d="M36.1,31.5c-0.1-0.1-0.2-0.1-0.3-0.1c0,0-0.1,0-0.1,0c-2-0.5-1.5-1.6,0-2.9c0.2-0.3,0.4-0.2,0.7-0.5c0.1-0.2-0.1-0.4-0.3-0.3c-0.8,0.5-1.9,1.3-2.1,2.3c-0.3,1.2,0.9,1.8,1.9,2C36,32,36.3,31.8,36.1,31.5"/><path class="st3" d="M49.5,30c-1.3,0.3-3.9,1.1-3.9,2.8c0.2,1.1,1.4,1.6,2.4,1.6c0.2,0,0.5,0.1,0.7-0.1c0.1-0.1,0.1-0.3,0-0.4c-0.2-0.1-0.4,0-0.6,0c-0.9,0-1.8-0.5-1.9-1.2c0-0.2,0.3-0.7,0.8-1.1c0.7-0.5,1.7-0.9,2.6-1.1c0.1,0,0.3,0,0.3-0.1C49.9,30.2,49.7,30,49.5,30"/><path class="st3" d="M57.6,27.6c-0.3-0.1-0.3,0-0.6,0c-1.6,0-2.1-0.9-1-1.9c0.6-0.6,1.1-1.1,1.7-1.4c0.3-0.1,0.1-0.6-0.2-0.4c-0.6,0.3-1.2,0.9-1.7,1.4c-0.4,0.4-0.8,0.8-0.9,1.4c-0.1,1.2,1.2,1.6,2.1,1.6c0.3,0,0.3,0,0.4-0.1C57.8,28,57.8,27.7,57.6,27.6"/><path class="st3" d="M68.8,24.8c-0.3-0.1-0.3,0-0.6,0.1c-1,0.2-2.1,0.3-2.7-0.3c-0.2-0.2-0.3-0.4-0.2-0.8c0.3-0.7,0.9-1.3,1.6-1.8c0.2-0.2-0.1-0.6-0.3-0.4c-3.3,2.5-1.7,4.5,1.8,3.8c0.2,0,0.4,0,0.5-0.2C69,25.1,69,24.9,68.8,24.8"/><path class="st3" d="M69.5,31.9c-0.3-0.1-0.7,0.1-1,0.1c-0.4,0.1-1.2,0.4-1.5,0.4c-0.4,0-0.8-0.3-0.9-0.8c0-0.6,0.2-1.5,0.6-2.2c0.1-0.3-0.3-0.5-0.4-0.2c-0.4,0.7-0.6,1.6-0.6,2.5c0.1,0.6,0.5,1.2,1.1,1.3c0.7,0.1,1.5-0.3,2.2-0.4c0.2,0,0.3,0,0.5-0.1C69.7,32.4,69.7,32,69.5,31.9"/><path class="st3" d="M58.4,34.8c-0.3-0.1-0.2,0-0.6,0c-0.4,0-1.2,0.2-1.4,0.1c-0.4-0.2-0.7-0.4-0.7-0.7c0-0.5,0.5-1.6,0.9-2.2c0.2-0.2-0.2-0.5-0.4-0.3c-0.5,0.8-1,1.7-0.9,2.6c0.1,0.5,0.5,0.8,0.9,1c0.6,0.2,1.5-0.1,1.8-0.1c0.1,0,0.3,0,0.4-0.1C58.5,35.1,58.5,34.9,58.4,34.8"/><path class="st3" d="M61.8,30.1c0,0-0.3-0.1-0.3-0.1c-0.3-0.1-0.6-0.3-0.6-0.5c-0.1-0.2,0.3-1.4,0.6-1.8c0.1-0.2,0.3-0.3,0.3-0.5c0-0.2-0.3-0.3-0.4-0.1c-0.5,0.7-1.5,2.4-0.6,3.1c0.3,0.2,0.7,0.4,1,0.3C61.9,30.3,61.9,30.1,61.8,30.1"/><path class="st3" d="M65.3,35.5c-0.5,0.4-1,0.6-1.3,0.4c0,0,0,0,0,0c-0.1-0.1,0-0.9,0.1-1.1c0-0.2,0.2-0.4,0.1-0.5c-0.1-0.2-0.3-0.2-0.4,0c-0.2,0.6-0.4,1.4-0.1,1.9c0.4,0.5,1.4,0,1.6-0.2c0.1-0.1,0.3-0.1,0.3-0.3C65.7,35.6,65.5,35.4,65.3,35.5"/><path class="st3" d="M73.9,33.9c0-0.1-0.2-0.2-0.3-0.2c-0.2,0.1-0.3,0.3-0.4,0.5c-0.7,1.2-1.8,1-2.6,0.3c-0.2-0.2-0.5,0.2-0.3,0.4c0.6,0.6,2.2,1.1,2.9,0.1c0.2-0.2,0.4-0.5,0.5-0.7C73.9,34.1,73.9,34,73.9,33.9"/></g></g></g><g><path class="st7" d="M41.1,4.3c-0.4-0.3-0.9-0.6-1.5-0.8c0.2-0.2,0.3-0.4,0.3-0.7c0.3-1.4-1.1-2.4-2.5-2.7C36.7,0,36.3,0,35.5,0c-1,0-1.9,0.5-2.5,1.2c-0.1,0.1-0.1,0.2-0.2,0.2c0,0,0-0.1-0.1-0.1c-0.4-0.3-1-0.5-1.6-0.5c-0.8-0.1-1.6-0.1-2.4,0.2c-1,0.4-1.3,1.4-1.2,2.4c0,0,0,0-0.1,0c-0.5-0.2-1.2-0.2-1.7-0.1c-0.7,0.1-1.5,0.1-2.2,0.3c-1.4,0.3-3.5,1.3-3.3,2.9c0,0.1,0,0.2,0.1,0.3c-0.1,0-0.2,0-0.3,0c-1.3,0-2.1,0.3-3.2,0.6c-1.3,0.4-2.6,0.9-3.5,2c-1.2,1.6-1.2,3.6,1.2,4.1c1.8,0.3,3.6-0.3,5.1-1.1c0.3-0.1,0.5-0.3,0.7-0.5c0.4,0.9,1.5,1.7,2.5,1.8c1.4,0,2.7-1,3.8-1.7c0.1,0.3,0.1,0.6,0.3,0.8c0.4,0.5,1,1,1.7,1.2c1.3,0.2,2.6-0.6,3.5-1.4c0.3-0.3,0.5-0.6,0.6-1c0.5,0.7,1.4,0.9,2.3,0.6c1.4-0.4,3.2-0.9,3.5-2.4c0-0.5-0.1-1-0.3-1.4c0.2,0,0.4,0,0.7,0c0.8-0.1,1.7-0.4,2.3-1c0.4-0.4,0.6-0.9,0.8-1.4C41.9,5.1,41.5,4.6,41.1,4.3"/><g><path class="st3" d="M16.5,10.9c-0.3,0.1-1.1,0.1-1.1,0.1c-0.4-0.2-0.2-0.6,0-0.8c0.4-0.4,0.8-0.6,1.2-0.8c0.2-0.1,0-0.4-0.2-0.3c-0.4,0.2-0.8,0.5-1.1,0.7c-0.2,0.2-0.4,0.3-0.5,0.6c-0.2,0.4,0.1,0.9,0.5,1.1c0.4,0.1,0.7,0,1.1,0c0.2,0,0.4-0.1,0.5-0.2C17,10.9,16.7,10.8,16.5,10.9"/><path class="st3" d="M25.8,4.5c-0.6,0.1-1.2,0.2-1.8,0.5c-0.4,0.1-0.8,0.4-1,0.7c-0.2,0.3-0.1,0.7,0.2,0.9c0.3,0.2,0.7,0.2,1.1,0.2c0.1,0,0.5,0,0.8,0c0.3-0.1,0.1-0.5-0.2-0.4c-1.2,0.1-2.3-0.2-1-0.9c0.4-0.2,1.3-0.5,1.9-0.5C26.1,4.9,26.1,4.4,25.8,4.5"/><path class="st3" d="M23.9,11c-0.1-0.1-0.3,0-0.4,0.1c0,0-0.1,0-0.2,0c-1,0.2-1.3-0.3-0.9-0.8c0.4-0.4,1-0.7,1.6-0.9c0.3-0.1,0.1-0.5-0.2-0.4c-0.8,0.3-1.7,0.7-2,1.4c-0.3,1.1,0.9,1.4,1.8,1.1c0.1,0,0.3-0.1,0.4-0.1C24.1,11.2,24.1,11,23.9,11"/><path class="st3" d="M31.7,9.9c-0.6,0.2-1.7,0.6-1.9,0.7c-0.3,0-0.4,0-0.5-0.4c-0.1-0.3-0.1-0.5,0.1-0.8c0.3-0.5,0.9-1.1,1.5-1.5c0.2-0.1,0-0.5-0.2-0.3c-0.6,0.3-1,0.8-1.5,1.3c-0.4,0.4-0.5,1.1-0.2,1.6c0.5,1,1.6,0.1,2.4-0.1c0.2-0.1,0.6-0.1,0.8-0.3C32.2,9.9,31.9,9.8,31.7,9.9"/><path class="st3" d="M32.8,3.3c-0.6-0.2-1.2-0.2-1.9-0.2c-0.4,0-0.9,0.1-1.2,0.4C29,4.3,30,4.9,30.8,5c0.3,0,0.5,0.2,0.8,0.1c0.3-0.2-0.1-0.4-0.3-0.4c-0.6-0.1-1.1-0.2-1.3-0.5c-0.1-0.2,0-0.5,0.4-0.6c0.7-0.2,1.5-0.2,2.4,0.1C33,3.7,33.1,3.3,32.8,3.3"/><path class="st3" d="M37.4,5.7c-0.5,0.1-0.8,0.2-1.1,0.1C35.4,5.4,36.2,5,37,4.2c0.2-0.1,0.3-0.2,0.5-0.4c0.1-0.1,0.2-0.1,0.2-0.2c0-0.2-0.2-0.3-0.3-0.2c-0.6,0.4-1,0.8-1.5,1.3c-0.2,0.2-0.5,0.6-0.3,0.9c0.4,0.6,1.2,0.7,1.8,0.5C37.6,6.1,37.7,5.8,37.4,5.7"/><path class="st3" d="M36.2,9.9c-0.3,0.1-0.4,0.2-0.5,0.1c-0.1,0-0.2-0.5,0-0.9c0-0.1,0.2-0.3,0.1-0.4c-0.1-0.2-0.3-0.2-0.4,0c-0.5,0.8-0.4,2.1,0.9,1.5C36.7,10.2,36.5,9.8,36.2,9.9"/><path class="st3" d="M37,1.1c-0.6-0.1-1.1,0-1.6,0.2c-0.3,0.1-0.6,0.2-0.7,0.5c-0.1,0.2-0.1,0.5,0.1,0.6c0.2,0.1,0.5-0.1,0.3-0.3c0,0,0,0,0,0c0,0,0,0,0,0c0,0,0-0.1,0-0.1c0,0,0,0,0,0c0.2-0.2,1.1-0.4,1.5-0.4c0.1,0,0.3,0.1,0.4,0C37.2,1.4,37.2,1.2,37,1.1"/></g></g></g></g></g></svg>