<?xml version="1.0" encoding="utf-8"?>
<!-- Generator: Adobe Illustrator 27.0.0, SVG Export Plug-In . SVG Version: 6.00 Build 0)  -->
<svg version="1.1" xmlns="http://www.w3.org/2000/svg" xmlns:xlink="http://www.w3.org/1999/xlink" x="0px" y="0px"
	 viewBox="0 0 57.6 62.8" style="enable-background:new 0 0 57.6 62.8;" xml:space="preserve">
<style type="text/css">
	.st0{fill:#FFFFFF;}
	.st1{fill:#8CA2CF;}
	.st2{clip-path:url(#SVGID_00000177481842390442999060000009855240824581601676_);}
	.st3{fill:#627EB5;}
	.st4{fill:#8CA05C;}
	.st5{fill:#677724;}
	.st6{fill:#E0A955;}
	.st7{fill:#BBD7FF;}
	.st8{fill:#3C5987;}
	.st9{clip-path:url(#SVGID_00000003067683756040440520000008702075723256751769_);}
	.st10{fill:#669CD3;}
	.st11{clip-path:url(#SVGID_00000098900496105505554370000004105448087133410480_);}
	.st12{fill:#92C4FC;}
	.st13{fill:#FAF4D2;}
	.st14{fill:#FCCB7C;}
	.st15{clip-path:url(#SVGID_00000057114467285487501500000013212951540553160111_);}
	.st16{clip-path:url(#SVGID_00000065753235089203864580000017462926941108587418_);}
	.st17{fill:#C5CAF0;}
	.st18{clip-path:url(#SVGID_00000110473088291917900710000005433226650402128047_);}
	.st19{clip-path:url(#SVGID_00000077317306098669869350000005760897590534692534_);}
	.st20{clip-path:url(#SVGID_00000031919356970948483950000017415617791414351529_);}
	.st21{clip-path:url(#SVGID_00000095302591874163802970000015450988062920233887_);}
	.st22{fill:#F9CC3D;}
	.st23{fill:#FFEAAE;}
	.st24{fill:#FFECB8;}
	.st25{fill:#D3AA37;}
	.st26{fill:#FFE08A;}
	.st27{clip-path:url(#SVGID_00000080184708672721560110000017837495974463847848_);}
	.st28{clip-path:url(#SVGID_00000093890543853006772090000003287792403328832677_);}
	.st29{clip-path:url(#SVGID_00000048470881389909398450000006157272862414144675_);}
	.st30{clip-path:url(#SVGID_00000063628457079867463080000008735371854633348501_);}
	.st31{clip-path:url(#SVGID_00000154396080323471326330000002533451826862874021_);}
	.st32{clip-path:url(#SVGID_00000104665693081413473860000004888822931541642415_);}
	.st33{clip-path:url(#SVGID_00000008832915064051001740000005396334637348381113_);}
	.st34{clip-path:url(#SVGID_00000058580220581563329660000000930339892060895924_);}
	.st35{clip-path:url(#SVGID_00000163767745247559842620000007769629294104739495_);}
</style>
<g id="BACKGROUND">
</g>
<g id="OBJECTS">
	<g>
		<path class="st1" d="M57,27.3c-0.1-0.8-0.1-2.4-0.6-4.6c-0.4-1.6-0.6-3.2-1.1-4.7c-0.7-1.6-0.5-1.1-1.1-2.5
			c-0.2-0.4-0.5-1.4-1.4-2.6c-1.1-1.4-2.1-2.9-3.4-4.1c-1.8-1.5-3.2-2.8-4.3-3.6c-2.2-1.3-4-2.4-5.4-2.9c-1.9-0.5-2.8-0.6-3.9-0.8
			c0,0,0,0,0.1,0c0,0,0,0-0.1,0c0,0-0.1,0-0.1,0c-0.4,0-0.1,0,0.1,0c-0.2,0-0.3-0.1-0.5-0.1c-0.3-0.1-0.6-0.1-0.9-0.2c0,0,0,0,0,0
			c-0.1,0-0.2,0-0.4-0.1c0,0,0.1,0,0.2,0c-2.8-0.5-3.7-0.9-6.6-0.5c0,0-0.1,0-0.2,0c-1.2,0-2.4,0.5-3.5,0.8
			c-1.2,0.3-0.9,0.1-2.6,0.5c-1.9,0.6-2,0.7-3.9,1.7c-0.6,0.2-1.2,0.6-1.7,1c-0.7,0.5-1.5,0.8-2.1,1.3c-1.7,1.4-3.4,2.7-4.9,4.3
			c-1.5,1.7-2.8,3.5-4,5.4c-1.6,2.3-2.9,4.8-3.6,7.6C0.2,25.8,0,28.3,0,30.8c0,1.7,0,3.7,0.2,4.2c0,0.1,0,0.2,0.1,0.3
			c0.1,1,0.3,1.9,0.5,2.9c0.2,0.8,0.4,1.7,0.7,2.5c0,0.3,0.1,0.6,0.1,0.9c0.8,2.9,1.1,2.7,1.6,4.7c0,0.1,0,0.2,0.1,0.3
			c0,0.3,0,0.7,0,0.9c0,1.3-0.1,2.5-0.2,3.8c-0.2,1-0.3,2.1-0.2,3.2c0,1,0,2,0.4,3c1,2.7,3.7,3.8,6.2,4.5c1.8,0.5,3.7,0.2,5.5,0.2
			c2.6-0.2,5.3-0.1,7.8-1c1.9-0.6,1.6-0.8,3.2-0.8c0.1,0,0.3,0,0.4,0c0.2,0,0.4,0.1,0.6,0.2c0.3,0.1,0.6,0.3,0.8,0.4
			c0.7,0.4,1.3,0.9,2,1.3c1.1,0.5,2.4,0.8,3.6,1c1.3,0.3,2.6,0.6,3.9,0.3c0.8-0.1,1.6-0.5,2.3-0.8c0.5-0.2,1.1-0.3,1.6-0.6
			c1.5-0.6,2.2-0.8,4.1-2.1c0.6-0.4,1.2-0.9,1.7-1.5c0.9-0.7,1.6-1.6,2.2-2.6c0.1-0.1,1.3-1.8,2.1-3c0.8-1.3,0.6-0.9,1.6-2.2
			c0.5-0.8,1-1.7,1.4-2.6c0.8-2.5,1.4-5.1,2.1-7.6c0.2-1.5,0.4-3.1,0.6-4.6c0.2-1.3,0.2-1.3,0.4-3.3C57.1,30.7,57.3,29,57,27.3"/>
		<g>
			<defs>
				<path id="SVGID_00000093166998556354750330000016357691989107511183_" d="M57,27.3c-0.1-0.8-0.1-2.4-0.6-4.6
					c-0.4-1.6-0.6-3.2-1.1-4.7c-0.7-1.6-0.5-1.1-1.1-2.5c-0.2-0.4-0.5-1.4-1.4-2.6c-1.1-1.4-2.1-2.9-3.4-4.1
					c-1.8-1.5-3.2-2.8-4.3-3.6c-2.2-1.3-4-2.4-5.4-2.9c-1.9-0.5-2.8-0.6-3.9-0.8c0,0,0,0,0.1,0c0,0,0,0-0.1,0c0,0-0.1,0-0.1,0
					c-0.4,0-0.1,0,0.1,0c-0.2,0-0.3-0.1-0.5-0.1c-0.3-0.1-0.6-0.1-0.9-0.2c0,0,0,0,0,0c-0.1,0-0.2,0-0.4-0.1c0,0,0.1,0,0.2,0
					c-2.8-0.5-3.7-0.9-6.6-0.5c0,0-0.1,0-0.2,0c-1.2,0-2.4,0.5-3.5,0.8c-1.2,0.3-0.9,0.1-2.6,0.5c-1.9,0.6-2,0.7-3.9,1.7
					c-0.6,0.2-1.2,0.6-1.7,1c-0.7,0.5-1.5,0.8-2.1,1.3c-1.7,1.4-3.4,2.7-4.9,4.3c-1.5,1.7-2.8,3.5-4,5.4c-1.6,2.3-2.9,4.8-3.6,7.6
					C0.2,25.8,0,28.3,0,30.8c0,1.7,0,3.7,0.2,4.2c0,0.1,0,0.2,0.1,0.3c0.1,1,0.3,1.9,0.5,2.9c0.2,0.8,0.4,1.7,0.7,2.5
					c0,0.3,0.1,0.6,0.1,0.9c0.8,2.9,1.1,2.7,1.6,4.7c0,0.1,0,0.2,0.1,0.3c0,0.3,0,0.7,0,0.9c0,1.3-0.1,2.5-0.2,3.8
					c-0.2,1-0.3,2.1-0.2,3.2c0,1,0,2,0.4,3c1,2.7,3.7,3.8,6.2,4.5c1.8,0.5,3.7,0.2,5.5,0.2c2.6-0.2,5.3-0.1,7.8-1
					c1.9-0.6,1.6-0.8,3.2-0.8c0.1,0,0.3,0,0.4,0c0.2,0,0.4,0.1,0.6,0.2c0.3,0.1,0.6,0.3,0.8,0.4c0.7,0.4,1.3,0.9,2,1.3
					c1.1,0.5,2.4,0.8,3.6,1c1.3,0.3,2.6,0.6,3.9,0.3c0.8-0.1,1.6-0.5,2.3-0.8c0.5-0.2,1.1-0.3,1.6-0.6c1.5-0.6,2.2-0.8,4.1-2.1
					c0.6-0.4,1.2-0.9,1.7-1.5c0.9-0.7,1.6-1.6,2.2-2.6c0.1-0.1,1.3-1.8,2.1-3c0.8-1.3,0.6-0.9,1.6-2.2c0.5-0.8,1-1.7,1.4-2.6
					c0.8-2.5,1.4-5.1,2.1-7.6c0.2-1.5,0.4-3.1,0.6-4.6c0.2-1.3,0.2-1.3,0.4-3.3C57.1,30.7,57.3,29,57,27.3"/>
			</defs>
			<clipPath id="SVGID_00000134970123341268715310000015721207436410128776_">
				<use xlink:href="#SVGID_00000093166998556354750330000016357691989107511183_"  style="overflow:visible;"/>
			</clipPath>
			<g style="clip-path:url(#SVGID_00000134970123341268715310000015721207436410128776_);">
				<path class="st5" d="M54.7,51c0-0.3,0-0.3-0.1-0.6l0,0c0-0.1,0-0.2-0.1-0.3c0,0,0-0.1,0-0.1c0-0.1,0-0.2,0-0.3
					c0-0.2,0-0.3,0-0.5c-0.1-0.1,0-0.1-0.2-0.3c0,0,0,0,0,0c0,0,0-0.1,0-0.1c-0.1-0.2-0.1-0.1-0.3-0.4c-0.1-0.2-0.4-0.4-0.6-0.5
					c0,0,0,0-0.1-0.1c-0.2-0.3-0.3-0.2-0.4-0.4c-0.4-0.2-0.4-0.2-0.7-0.4c-1-0.5-2-0.8-3.1-1c-0.9-0.2-1.8-0.5-2.7-0.6
					c-1.7-0.2-3-0.4-4.8-0.5c-2.3,0-5.1,0.2-7.1,0.6c-1.5,0.1-3,0.6-4.5,1c-2.3,0.5-4.4,1.3-6.5,2.2c-2.5,0.9-5.3,2-7.8,3.4
					c-1.4,0.7-2.7,1.3-3.9,1.8c-1.3,0.5-2.3,1-3.5,0.9C7,54.8,5.6,54.3,4.4,54c-0.1,0-0.1,0-0.2-0.1c-0.2-0.1-0.2-0.2-0.5-0.4
					c-0.3-0.3-0.2-0.4-0.6-0.6c-0.2-0.1-0.6,0-0.6,0.3c-0.1,0.5,0,0.9,0,1.4c0,0.2,0,0.4,0,0.6c-0.1,0.9,0,1.9,0.5,2.7
					c0.4,0.8,1.1,1.5,1.9,2c0.5,0.4,1.1,0.7,1.7,0.9c0.2,0.2,0.5,0.4,0.8,0.6c1.9,1.1,3.8,1.1,5.9,1.3c1.3,0,2.5,0.2,3.8,0.2
					c2.4-0.3,4.6-1,6.9-1.7c0.9-0.3,1.5-0.4,2.2-0.2c0.9,0.3,2.3,1.1,3.3,1.9c0.8,0.6,1.8,1.1,2.8,1.5c0.7,0.3,1.4,0.3,2.1,0.5
					c2.5,0.5,5.1,0,7.5-0.9c1.2-0.4,2.1-1.1,3.1-1.8c1.2-0.7,2.3-1.5,3.4-2.6c1.7-1.4,2.5-2.8,3.7-4.4c0.6-1,1.1-1.5,1.9-2.3
					C54.6,52.5,54.8,51.7,54.7,51"/>
				<g>
					<path class="st4" d="M50.3,50.9c-2.4-2.6-7-3.4-10.5-3.3c-4.7-0.2-9.3,1.4-13.8,2.9c-2.5,1.1-4.1,1.9-6,2.6
						c-1,0.5-1.7,0.7-2.7,1.2c-1.5,0.7-2.8,1.4-4.2,1.9c-1.6,0.7-4,1.5-5.6,0.8c-0.8-0.4-1.5-0.7-2-1.2c-0.1-0.1-0.3-0.1-0.3,0
						C5,55.9,5,56,5.1,56.1c1.3,1.1,2.8,1.9,4.5,1.6c1.1-0.1,2.4-0.5,3.4-1c1-0.4,2.2-0.9,3.3-1.4c2-1,3.5-1.6,5.5-2.3
						c0.8-0.4,1.6-0.7,2.6-1.1c0.8-0.3,1.3-0.7,2-0.9c3-1,6-2,9.2-2.5c1.8-0.3,4.5-0.4,6.9-0.1c1.9,0.2,4.2,0.8,6,1.9
						c0.7,0.5,1.5,1,1.6,1.9c0.3,1.2-0.7,2.7-1.9,3.8c-1.9,1.9-5.2,2.4-7.3,1.2c-1.3-0.7-1.7-1.6-0.8-2.8c0.1-0.2,1.2-1.1,1.1-1.1
						c1.1-0.4,2.1-0.6,2.8-0.2c0.9,0.5,0.5,1.2-0.8,1.8c0,0,0,0,0,0c-0.1,0-0.2,0-0.2,0c-0.2,0.1-0.3,0.4-0.1,0.5
						c0.5,0.3,1-0.2,1.4-0.4c1.2-0.8,1.2-2.2-0.2-2.7c-1-0.3-2.2,0-3.2,0.4c-1,0.7-2,1.8-1.9,3c0.3,1.8,2.4,2.4,3.9,2.7
						c2.1,0.2,3.9-0.4,5.5-1.6C49.9,55.3,51.7,52.9,50.3,50.9"/>
					<path class="st4" d="M37.1,51.1c-2.4,0.4-4.7,1-7.1,1.6c-1.6,0.4-3.2,0.8-4.7,1.4c-2.2,0.9-4.3,2-6.3,3.2
						c-0.8,0.5-1.8,0.9-2.3,1.6c-0.2,0.5,0.1,1,0.6,1.1c0.4,0.2,0.9,0.2,1.4,0.2c0.6,0,1.3,0,1.9-0.2c1-0.3,2.1-0.5,2.8-1.2
						c0.7-0.6,0.1-1.6-0.7-1.7c-0.6-0.2-2.4,0.7-1.4,1.3c0.2,0.2,0.7,0.2,0.7-0.2c0-0.2-0.1-0.2-0.2-0.3c0.2-0.2,0.6-0.4,0.9-0.3
						c0.2,0,0.2,0,0.5,0.3c0,0,0,0,0,0.1c0,0,0,0,0,0c0,0,0,0.1,0,0.1c0,0,0,0,0,0.1c-0.1,0.1-0.2,0.3-0.5,0.5c0,0,0,0,0,0
						c-0.1,0-0.3,0.1-0.1,0.1c-1.1,0.5-2.1,0.8-3.2,0.8c-1.1,0.1-1.9,0-2-0.4c0,0,0,0,0,0c0,0,0,0,0,0c0,0,0,0,0,0c0,0,0,0,0,0
						c0,0,0,0,0,0c0,0,0,0,0,0l0,0c0,0,0,0,0,0c0,0,0,0,0,0c0,0,0,0,0,0c0,0,0,0,0,0c0,0,0-0.1,0.1-0.1c0.3-0.4,0.6-0.5,0.8-0.6
						c2.4-1.5,4.9-2.9,7.5-4c3.3-1.4,7.4-2.1,11.1-2.9c0.2-0.1,0.4,0,0.6-0.2C37.4,51.3,37.3,51.1,37.1,51.1"/>
					<polygon class="st4" points="17.3,59.3 17.3,59.3 17.3,59.3 					"/>
					<path class="st4" d="M38.8,60c-0.3-1.3-1.5-2-2.5-2.7c-1.1-0.7-2.3-1.5-3.6-1.6c-0.7-0.1-1.8-0.3-2.8,0c-1,0.2-1.9,0.7-2.7,1.1
						c-0.1,0-0.1,0.1-0.1,0.2c-0.1,0.2,0.2,0.4,0.4,0.3c1.3-0.8,3-1.4,4.2-1.1c1.5,0.1,2.4,0.5,3.7,1.4c1.3,0.8,2.5,1.4,2.8,2.6
						c0.1,0-0.1,0.8-0.2,0.9c-0.3,0.5-0.6,0.8-1.2,1.1c-0.4,0.2-1.4,0.2-2.2,0.1c-0.3-0.1-1.6-0.5-2-0.7c-0.5-0.1-0.5-0.1-0.9-0.4
						c-0.8-0.5-1.5-0.9-1.5-1.1c0-0.2,0.2-0.7,0.8-0.9c0.3-0.1,1.3-0.2,2,0.1c0,0,0.1,0,0.2,0.1c0.2,0.1,0.4,0.2,0.3,0.2
						c0,0,0,0,0.1,0.1c0,0,0,0,0,0c0,0,0,0,0,0.1c0,0,0,0,0,0c0,0.3,0,0.4,0,0.4c0,0,0,0,0,0c0,0,0,0,0,0c-0.1,0-0.1,0-0.1,0
						c-0.1,0-0.3,0-0.4,0c-0.3-0.2-0.7,0.3-0.4,0.5c0.2,0.2,0.4,0.1,0.6,0.1c0.3,0,0.7-0.1,0.9-0.3c0.2-0.3,0.2-0.7,0.1-1.1
						c-0.1-0.3-0.4-0.5-0.6-0.6c-1-0.6-2.3-0.7-3.3-0.1c-0.7,0.5-1.1,1.4-0.4,2c0.3,0.3,0.7,0.5,1.1,0.8c0.4,0.2,0.7,0.5,1.2,0.6
						c0.5,0.1,1.3,0.5,2,0.7c0.6,0.1,1.2,0.1,1.8,0.1C37.5,62.9,39,61.5,38.8,60"/>
					<path class="st4" d="M13.4,60.5c-0.2-0.7-1.1-1-1.7-1.3C10,59,8.3,59.1,6.8,59.5c-0.2,0.1,0,0.4,0.2,0.4c1-0.2,1.8-0.3,2.8-0.3
						c0.9,0,1.5,0,2.1,0.3c1,0.5,1.1,0.9,0.6,1.3c-0.1,0.1-0.4,0.1-0.8,0.1c-0.2,0-0.4,0-0.6,0c0.1-0.1,0.1-0.1,0.2-0.2
						c0,0,0,0,0.1,0c0.1,0,0.2-0.1,0.2-0.2c0-0.6-0.9-0.1-1,0.2c-0.4,0.5,0,0.8,0.6,0.8c0.7,0,1,0,1.6-0.2
						C13.2,61.4,13.4,61,13.4,60.5"/>
					<path class="st4" d="M52.6,51.6c-0.2-0.5-0.2-0.6-0.5-1.1c0-0.2-0.5-1-1.1-1.5c-1.1-0.8-2-1.2-2.9-1.6
						c-0.6-0.3-1.5-0.7-2.6-0.8c-2.5-0.2-4.7-0.5-7.2-0.2c-2.9,0.2-5.4,0.4-8.2,1.4c-1.5,0.4-3.1,0.8-4.6,1.4
						c-0.8,0.4-1.4,0.7-2.2,1c-2,0.7-3.8,1.4-5.7,2.1c-1.3,0.7-2.7,1.3-4,2.2c-0.1,0.2,0.1,0.4,0.3,0.3c3-1.9,5.9-2.9,9.2-4.1
						c0.9-0.2,2-0.9,2.7-1.1c2.1-0.7,4.3-1.2,6.4-1.8c2-0.5,3.3-0.6,5.5-0.7c0.9-0.1,1.9-0.2,2.8-0.2c0.3,0.1,1.6,0.1,2.2,0.1
						c1.3,0.2,2.3,0.1,3.5,0.5c1.4,0.6,2.3,0.9,3.9,1.9c0.4,0.3,1,0.9,1.1,1.4c0.1,0.2,0.4,0.6,0.4,0.9c0.1,0.1,0,0.1,0.1,0.2
						c0,0.1,0,0.1,0,0.2C52.1,52.4,52.7,52.1,52.6,51.6"/>
					<path class="st4" d="M47.2,52.7c-0.1-0.4-0.4-0.6-0.5-0.8c-0.3-0.3-0.6-0.6-1-0.8c-1.4-0.9-3-1.1-4.6-1.4
						c-1.8-0.2-3.6-0.2-5.5,0c-1.7,0.3-3.3,0.7-4.9,1.2c-0.9,0.3-1.8,0.5-2.6,0.9c-0.1,0.2,0.1,0.4,0.3,0.3c4.1-1.4,8.2-2.6,12.3-2
						c1,0.1,2.8,0.4,3.8,0.8c0.6,0.3,1.1,0.6,1.5,1c0,0.1,0.7,0.7,0.6,0.8c0.2,0.6,0.3,0.9,0.1,1.3c0,0,0,0.1,0,0.1
						c-0.1,0.1-0.1,0.3,0,0.3c0.1,0.2,0.5,0.1,0.6-0.1c0.1-0.3,0-0.2,0.1-0.4C47.5,53.6,47.4,53.1,47.2,52.7"/>
					<path class="st4" d="M22.9,54.2c-2.3,0.9-4.4,1.6-6.7,2.6c-0.7,0.3-1.4,0.6-2.1,0.9c-0.1,0-0.1,0.1-0.1,0.1
						c-0.1,0.2,0.2,0.4,0.4,0.3c3.1-1.4,5.9-2.4,8.8-3.5C23.4,54.5,23.2,54.1,22.9,54.2"/>
					<path class="st4" d="M11.2,55.3c-0.8,0.4-2.1,0.4-3.3,0.4c-0.3,0-0.3-0.1-0.7,0C7,55.8,7,56.1,7.2,56.2
						c1.1,0.1,2.9,0.2,4.2-0.3c0.2-0.2,0.7-0.1,0.8-0.5C12.2,54.8,11.5,55.2,11.2,55.3"/>
					<path class="st4" d="M37.3,55.9c0,0-0.1-0.1-0.1-0.1c-0.9-0.8-1.9-1.3-3.1-1.8c-0.3-0.1-0.7-0.3-1-0.4c-0.3,0-0.4,0.5,0,0.6
						c1.4,0.5,2.6,1,3.8,2l0,0c0,0,0,0,0,0c0,0,0,0,0,0c0.1,0,0.1,0,0.1,0C37.2,56.4,37.4,56.1,37.3,55.9"/>
					<path class="st4" d="M37.2,55.8C37.2,55.8,37.2,55.8,37.2,55.8C37.2,55.8,37.2,55.8,37.2,55.8"/>
					<path class="st4" d="M37.2,55.8C37.2,55.8,37.3,55.8,37.2,55.8C37.3,55.9,37.3,55.9,37.2,55.8C37.3,55.9,37.3,55.8,37.2,55.8"
						/>
					<path class="st4" d="M41.8,61.6C41.8,61.6,41.8,61.6,41.8,61.6C41.8,61.6,41.8,61.5,41.8,61.6c0-0.9-0.9-1.9-1.5-2.7
						c-0.3-0.3-0.3-0.5-0.7-0.7c-0.3-0.1-0.5,0.2-0.4,0.4c0.7,0.9,1.9,2.3,1.9,2.9c0,0.4,0.5,0.6,0.6,0.2
						C41.8,61.7,41.8,61.7,41.8,61.6"/>
					<path class="st4" d="M51.2,55c-0.3,0.1-0.2,0.1-0.4,0.3c-0.9,1.1-1.8,2.2-2.9,3.1c-0.4,0.2-1.1,0.8-1.6,1.1
						c-0.6,0.3-1.8,0.6-2.7,0.8c-0.3,0.1-0.2,0.6,0.1,0.5c1.1-0.2,2.8-0.6,3.4-1.2c1.6-0.9,2.9-2.5,4.2-4C51.6,55.4,51.5,55,51.2,55
						"/>
					<path class="st4" d="M28.2,57.9c-0.2,0-0.4,0.1-0.6,0.2c-0.7,0.4-1.3,0.9-2,1.3c-0.2,0.2-0.6,0.4-0.7,0.7
						c0,0.2,0.3,0.3,0.4,0.2c0.6-0.6,1.8-1.4,2.5-1.7c0.2-0.1,0.4-0.1,0.5-0.2C28.4,58.2,28.4,58,28.2,57.9"/>
					<path class="st4" d="M4.9,58.5c-0.5-0.5-0.8-1.2-0.9-2.2c-0.1-0.3-0.1-0.6-0.1-1.1c0-0.1,0-0.1-0.1-0.2c-0.2-0.2-0.5,0-0.5,0.2
						c0.1,1.4,0.2,2.9,1.4,3.9c0.1,0.1,0.3,0.3,0.5,0.2C5.6,59.1,5.1,58.7,4.9,58.5"/>
				</g>
			</g>
			<g style="clip-path:url(#SVGID_00000134970123341268715310000015721207436410128776_);">
				<g>
					<path class="st5" d="M51.3,48.1C51.3,48.1,51.3,48.1,51.3,48.1C51.3,48.1,51.3,48.1,51.3,48.1"/>
					<path class="st3" d="M9.2,35c-0.5,0.9-1.6,2.7-1.9,3.4c0.1,0.3,0.4,0.1,0.5-0.1c0.6-1,1.2-2.1,1.8-3.1C9.7,35,9.3,34.8,9.2,35"
						/>
					<path class="st3" d="M10.6,37.5c-0.5,0.9-1.1,1.8-1.6,2.7c0,0.1,0.1,0.2,0.2,0.2c0.1,0,0.3-0.1,0.3-0.2
						c0.2-0.2,0.3-0.5,0.4-0.7c0.3-0.6,1-1.4,1.1-2C11,37.3,10.7,37.3,10.6,37.5"/>
					<path class="st3" d="M10.7,42.3c-0.4,0.8-0.8,1.6-1.3,2.3c-0.1,0.2-0.2,0.3-0.2,0.5c0,0.1,0.2,0.2,0.3,0.2
						c0.1,0,0.2-0.1,0.2-0.2c0.5-0.8,0.9-1.7,1.4-2.5C11.4,42.2,10.9,42,10.7,42.3"/>
					<path class="st3" d="M5.8,40.9c-0.4,0.9-0.9,1.8-1.4,2.7c-0.1,0.1-0.2,0.3-0.1,0.4c0,0.1,0.2,0.2,0.3,0.2
						c0.2-0.1,0.3-0.4,0.4-0.6c0.4-0.8,0.8-1.6,1.2-2.4C6.4,40.9,5.9,40.6,5.8,40.9"/>
					<path class="st3" d="M7.8,42.5C7.4,43.3,7,44,6.5,44.7c-0.1,0.1-0.2,0.2-0.2,0.4c0,0.2,0.2,0.3,0.4,0.3
						c0.6-0.6,1.1-1.8,1.6-2.6C8.5,42.5,8,42.2,7.8,42.5"/>
					<path class="st3" d="M7.3,47.7c-0.4,0.8-0.8,1.7-1.2,2.5c-0.1,0.2,0.1,0.5,0.4,0.3c0.6-0.8,0.9-1.8,1.3-2.7
						C7.9,47.6,7.5,47.5,7.3,47.7"/>
					<path class="st3" d="M10,48.5c-0.4,0.8-0.8,1.6-1.2,2.5c-0.2,0.2,0.1,0.5,0.4,0.4c0.5-0.8,0.8-1.7,1.3-2.6
						C10.7,48.4,10.2,48.2,10,48.5"/>
					<path class="st3" d="M13.9,42.1c-0.4,0.8-0.8,1.6-1.2,2.4c-0.1,0.1,0,0.3,0.2,0.4c0.1,0,0.2,0,0.3-0.1c0.3-0.6,0.6-1.2,0.9-1.8
						c0.1-0.3,0.3-0.5,0.3-0.8C14.3,41.9,14,41.9,13.9,42.1"/>
					<path class="st3" d="M19.2,37.1c-0.4,0.9-0.9,1.7-1.3,2.6c-0.1,0.2,0.1,0.5,0.4,0.3c0.6-0.9,1-1.8,1.4-2.8
						C19.8,37,19.4,36.8,19.2,37.1"/>
					<path class="st3" d="M15.6,45.6c-0.4,0.9-0.9,1.7-1.3,2.6c-0.1,0.2,0.1,0.4,0.3,0.4c0.1,0,0.2-0.1,0.2-0.2
						c0.4-0.8,0.8-1.6,1.3-2.5C16.2,45.5,15.7,45.3,15.6,45.6"/>
					<path class="st3" d="M19.5,42c-0.2,0.4-0.4,0.8-0.6,1.2c0,0.1,0.1,0.2,0.2,0.3c0.1,0,0.3,0,0.3-0.1c0.2-0.4,0.4-0.8,0.6-1.2
						C20,41.9,19.6,41.7,19.5,42"/>
					<path class="st3" d="M23.2,40.1c-0.3,0.6-0.6,1.1-0.8,1.7c0,0.1,0,0.2,0.1,0.2c0.1,0.1,0.3,0,0.4-0.1c0.3-0.5,0.6-1.1,0.8-1.6
						C23.9,40.1,23.4,39.8,23.2,40.1"/>
					<path class="st3" d="M19.7,46c-0.3,0.6-0.6,1.2-0.9,1.8c-0.1,0.1,0,0.4,0.2,0.4c0.1,0,0.3,0,0.3-0.1c0.3-0.6,0.6-1.1,0.9-1.7
						C20.4,46.1,20,45.7,19.7,46"/>
					<path class="st3" d="M26.6,41.1c-0.5,1-1,1.9-1.4,2.8c-0.1,0.2,0.1,0.5,0.3,0.4c0.3-0.1,0.3-0.5,0.5-0.7
						c0.4-0.8,0.8-1.5,1.1-2.3C27.2,41.1,26.8,40.8,26.6,41.1"/>
					<path class="st3" d="M30,40.6c-0.2,0.4-0.5,0.7-0.6,1.1c0,0.1,0,0.2,0.1,0.3c0.3,0.1,0.4-0.1,0.5-0.3c0.2-0.3,0.4-0.6,0.5-0.9
						C30.6,40.5,30.2,40.3,30,40.6"/>
					<path class="st3" d="M28.6,43.4c-0.3,0.6-0.7,1.1-1,1.7c0,0.1,0,0.2,0.1,0.2c0.3,0.3,0.6-0.1,0.7-0.4c0.2-0.4,0.5-0.8,0.7-1.3
						C29.3,43.4,28.7,43.1,28.6,43.4"/>
					<path class="st3" d="M33.3,40.7c-0.4,0.7-0.8,1.5-1.2,2.2c-0.1,0.1-0.1,0.2,0,0.3c0.2,0.2,0.5,0,0.6-0.2
						c0.3-0.5,0.5-0.9,0.8-1.4c0.1-0.3,0.4-0.6,0.4-0.9C33.8,40.6,33.4,40.5,33.3,40.7"/>
					<path class="st3" d="M36.8,40.5c-0.6,0.9-1.1,1.9-1.7,2.8c-0.2,0.2,0.1,0.5,0.3,0.4c0.3-0.1,0.4-0.5,0.6-0.7
						c0.4-0.7,0.9-1.5,1.3-2.2C37.5,40.5,36.9,40.2,36.8,40.5"/>
					<path class="st3" d="M41.5,40.5c-0.1-0.2-0.4-0.3-0.5-0.1c-0.3,0.6-0.6,1.1-0.9,1.7c-0.1,0.1-0.1,0.2,0,0.3
						c0.2,0.2,0.5,0.1,0.6-0.2c0.2-0.4,0.5-0.8,0.7-1.3C41.4,40.8,41.5,40.7,41.5,40.5"/>
					<path class="st3" d="M43.6,41.4c-0.3,0.6-0.7,1.1-1,1.7c-0.1,0.2,0.1,0.4,0.3,0.4c0.2-0.1,0.3-0.3,0.4-0.5
						c0.3-0.5,0.6-0.9,0.8-1.4C44.1,41.3,43.7,41.1,43.6,41.4"/>
					<path class="st3" d="M51.9,36.7c-0.1,0.3-0.4,0.5-0.4,0.8c0,0.2,0.3,0.2,0.4,0.1c0.1-0.3,0.3-0.5,0.4-0.8
						C52.4,36.6,52,36.5,51.9,36.7"/>
					<path class="st3" d="M47.7,41.6c-0.4,0.6-0.7,1.3-1.1,1.9c0,0.1-0.1,0.2,0,0.2c0.1,0.4,0.6,0.2,0.7-0.1c0.3-0.5,0.7-1.1,1-1.6
						C48.6,41.7,48,41.2,47.7,41.6"/>
					<path class="st7" d="M3.1,36.1C3,36.6,2.8,37,2.7,37.5c0,0.1,0.1,0.1,0.1,0.2c0.1,0,0.2,0,0.3-0.1c0.1-0.4,0.3-0.8,0.4-1.3
						C3.6,36,3.2,35.9,3.1,36.1"/>
					<path class="st7" d="M7,32.4c-0.4,1-1,2.1-1.5,3.1c0,0.1,0.1,0.2,0.3,0.2c0.1-0.1,0.1-0.2,0.2-0.3c0.4-0.9,1-2,1.4-2.8
						C7.5,32.3,7.1,32.1,7,32.4"/>
					<path class="st7" d="M4.5,38.2c-0.5,0.7-0.9,1.5-1.2,2.3c-0.1,0.2,0.3,0.4,0.4,0.2C4,40,4.4,39.2,4.9,38.4
						C5.1,38.1,4.7,37.9,4.5,38.2"/>
					<path class="st7" d="M51.1,39.7c-0.2,0.5-0.5,0.9-0.7,1.4c0,0.2,0.2,0.3,0.3,0.2c0.3-0.4,0.5-1,0.8-1.4
						C51.5,39.7,51.2,39.5,51.1,39.7"/>
					<path class="st7" d="M50.7,43.1c-0.3,0.6-0.6,1.2-0.9,1.8c0,0.1,0.1,0.2,0.2,0.3c0.1,0,0.2,0,0.3-0.1c0.2-0.4,0.4-0.8,0.6-1.3
						c0.1-0.2,0.3-0.4,0.2-0.6C51.1,43,50.8,42.9,50.7,43.1"/>
					<path class="st7" d="M54.3,37c-0.5,1.1-1,2.1-1.5,3.2c-0.1,0.1,0,0.3,0.1,0.3c0.1,0,0.2,0,0.3-0.1c0.3-0.7,0.7-1.5,1-2.2
						c0.1-0.4,0.4-0.8,0.5-1.2C54.7,36.8,54.4,36.8,54.3,37"/>
					<path class="st7" d="M53.8,42.4c-0.2,0.5-0.5,1-0.7,1.5c-0.1,0.3-0.5,0.7-0.2,0.9c0.1,0.1,0.4,0,0.4-0.1
						c0.2-0.6,0.4-0.9,0.7-1.5c0.1-0.2,0.3-0.5,0.3-0.7C54.2,42.2,53.9,42.2,53.8,42.4"/>
					<path class="st7" d="M12.1,33.9c-0.1-0.2-0.4-0.1-0.5,0.1c-0.2,0.4-0.4,0.8-0.6,1.3c0,0.1,0,0.1,0.1,0.2
						c0.3,0.3,0.5-0.2,0.6-0.4C11.8,34.7,12.2,34.2,12.1,33.9"/>
					<path class="st7" d="M12.2,48.3c-0.3,0.8-0.6,1.6-0.9,2.4c-0.1,0.2,0.2,0.4,0.4,0.3c0.5-0.8,0.6-1.7,1-2.5
						C12.7,48.1,12.2,48,12.2,48.3"/>
					<path class="st7" d="M16.5,40.3c-0.1,0.6-0.4,1.2-0.6,1.8c-0.1,0.2-0.2,0.6,0.1,0.6c0.3,0,0.3-0.3,0.3-0.4
						c0.2-0.6,0.4-1.2,0.6-1.8C17.1,40.1,16.6,40,16.5,40.3"/>
					<path class="st7" d="M23.4,43.8c-0.1-0.2-0.4-0.2-0.5,0.1c-0.3,0.8-0.5,1.5-0.7,2.3c0,0.1,0,0.2,0.1,0.3c0.2,0.2,0.4,0,0.5-0.3
						c0.1-0.4,0.2-0.8,0.4-1.1C23.1,44.7,23.5,44.2,23.4,43.8"/>
					<path class="st7" d="M21.2,36.8c-0.3,0.7-0.5,1.4-0.8,2.1c-0.1,0.2,0.1,0.3,0.2,0.3c0.1,0,0.2-0.1,0.3-0.2
						c0.3-0.7,0.5-1.4,0.8-2.1C21.8,36.6,21.2,36.5,21.2,36.8"/>
					<path class="st7" d="M17.1,46.8c-0.3,0.6-0.8,1.7-0.9,2.1c-0.1,0.1,0,0.3,0.1,0.3c0.2,0.1,0.4-0.1,0.4-0.3
						c0.2-0.5,0.4-0.9,0.6-1.4c0.1-0.3,0.2-0.4,0.3-0.7C17.5,46.6,17.2,46.6,17.1,46.8"/>
					<path class="st7" d="M45.5,41.5c-0.2,0.4-0.6,1.2-0.8,1.8c0,0.1,0.1,0.2,0.2,0.3c0.1,0,0.2,0,0.3-0.1c0.3-0.6,0.6-1.2,0.8-1.8
						C46.1,41.3,45.6,41.2,45.5,41.5"/>
					<path class="st7" d="M5.4,46.5C5.3,46.3,5,46.4,5,46.6c-0.3,0.8-0.5,1.5-0.8,2.3C4.1,49,4,49.4,4.4,49.4c0.2,0,0.2-0.2,0.3-0.3
						c0.3-0.7,0.5-1.4,0.7-2.1C5.4,46.8,5.5,46.7,5.4,46.5"/>
					<path class="st7" d="M11.4,44.5c-0.2-0.1-0.3,0.1-0.4,0.3c-0.2,0.5-0.4,1-0.6,1.5c-0.1,0.3,0.4,0.4,0.5,0.1
						c0.2-0.5,0.4-1.1,0.6-1.6C11.6,44.7,11.5,44.6,11.4,44.5"/>
					<path class="st7" d="M25.2,40.1c-0.2,0.4-0.4,0.8-0.5,1.2c0,0.1,0,0.2,0.1,0.3c0.5,0.3,0.6-0.7,0.9-1.2
						C25.8,40,25.3,39.8,25.2,40.1"/>
					<path class="st3" d="M48.7,35.7C48.7,35.6,48.7,35.6,48.7,35.7"/>
					<polygon class="st3" points="48.7,35.7 48.7,35.7 48.7,35.7 					"/>
				</g>
				<g>
					<g>
						<path class="st8" d="M56.8,19.5c-0.2-1.9-1.3-3.6-2.4-5.2c-0.5-0.8-1-1.7-1.6-2.5c-0.9-1-1.9-2-2.8-3c-2.6-2.6-6.1-4-9.3-5.8
							c-1.4-0.7-2.8-1.6-4.3-2.1c-2-0.7-4.1-1-6.2-1c-1.5,0-6-1.1-14,3.9c-7.1,4.4-7.9,7-11,10.7C4.8,15,4.4,15.5,4,16.1
							c-0.9,1.4-1.7,2.7-2.5,4.2c-0.2,0.6-0.4,1.1-0.6,1.7c0,0.1,0,0.1-0.1,0.2c-0.5,1.4-0.9,2.9-1.3,4.3c-0.2,1.6-0.2,3.3,0.2,4.9
							c0,1,0.7,1.8,1.4,2.4c1.2,0.9,3,0.3,4.1-0.6c1.6-1.5,3-3.3,4.1-5.2c0,1.5,0.4,2.9,1.4,4c1,1,2.1,2,3.5,2.3
							c2.2,0.2,3.9-2,5.1-3.4c1-1.2,1.9-2.5,2.3-4c0.2-0.7,0.4-1.5,0.6-2.2c0.3,2.4,0.9,4.8,3.6,5.5c3.2,0.7,6.5-1.2,7.8-3.9
							c0.9-1.7,0.5-3.7,0.6-5.5c0-0.1,0-0.2,0-0.3c0.6,2.2,1.5,4.5,3.1,6.2c1.8,1.7,4.5,2.9,6.4,0.6c1-1.3,1.4-2.9,1.8-4.4
							c0.5,1.2,1.3,2.4,2.4,3.3c0.7,0.5,1.4,1.1,2.2,1.4c1.2,0.3,2.7,0.5,3.9,0c0.5-0.3,0.9-0.7,1.3-1.2c0.6-0.7,1.1-1.4,1.3-2.3
							C56.9,22.7,56.7,21,56.8,19.5"/>
						<g>
							<path class="st3" d="M5.5,28.7c-0.1-0.2-0.4-0.1-0.5,0c0,0-0.3,0.2-0.3,0.3c-0.7,0.4-1.2,0.7-1.7,0.7c0,0,0,0,0,0
								c-0.1,0-0.4-0.2-0.5-0.2c-0.3-0.3-0.5-0.5-0.5-0.6c0-0.9,0.1-1.6,0.3-2.5c0-0.2-0.4-0.3-0.5,0c-0.2,0.5-0.2,1.1-0.3,1.7
								c0,0.4-0.1,0.8,0.1,1.1c0.3,0.6,1,1.1,1.7,1c0.3,0,0.6-0.1,0.9-0.3c0.4-0.2,0.8-0.4,1.1-0.7C5.3,29.1,5.7,29,5.5,28.7"/>
							<path class="st3" d="M4.2,23.7c-0.1,0-0.2,0-0.3-0.1c-1.1-0.3-0.6-2.3,0-3.8c0.1-0.3-0.4-0.4-0.5-0.1
								c-0.3,0.7-0.5,1.4-0.6,2.2c-0.1,0.6-0.1,1.2,0.3,1.7c0.3,0.4,0.8,0.7,1.3,0.6C4.5,24,4.4,23.7,4.2,23.7"/>
							<path class="st3" d="M14.1,31.2c0,0-0.1,0-0.1,0c-0.2-0.1-0.6-0.5-0.9-0.9c-0.3-0.3-0.5-0.6-0.8-1.1c0-0.1-0.1-0.1-0.2-0.1
								c-0.3-0.1-0.5,0.2-0.4,0.4c0.3,0.5,1.9,2.8,2.5,2.2C14.4,31.5,14.3,31.2,14.1,31.2"/>
							<path class="st3" d="M8.7,12.4C8.8,12.3,9,12.2,9,12c0-0.2-0.3-0.4-0.5-0.2c-0.5,0.4-0.7,1.1-1,1.6c-0.2,0.4-0.2,1,0.2,1.2
								c0.3,0.1,0.5-0.3,0.3-0.5c0,0,0,0,0,0c0,0,0-0.1,0-0.1C8,13.6,8.4,12.7,8.7,12.4"/>
							<path class="st3" d="M13.9,6.3c-0.7,0.5-1.5,1-2,1.7c-0.1,0.3-0.3,0.6-0.2,0.9c0.1,0.3,0.6,0.4,0.7,0c0-0.1,0-0.2-0.1-0.2
								c0-0.6,1.1-1.4,1.9-1.9C14.5,6.6,14.2,6.1,13.9,6.3"/>
							<path class="st3" d="M27.4,4.4c-0.7,0.1-1.1,0.3-1.6,0.1c-0.4,0-0.7-1.1-0.6-1.6c0-0.1,0.1-0.2,0.2-0.4
								c0.1-0.3-0.4-0.4-0.5-0.2c-0.3,0.3-0.3,0.7-0.2,1.1c0.1,0.5,0.2,1,0.6,1.4c0.6,0.5,1.5,0.2,2.3,0.1
								C27.9,4.8,27.7,4.3,27.4,4.4"/>
							<path class="st3" d="M21.3,4c-0.1,0-0.2,0-0.4-0.2c0,0-0.2-0.2-0.2-0.2c-0.1-0.1-0.2-0.3-0.2-0.3c0,0,0,0,0,0
								c0-0.1,0.1-0.2,0-0.2c0-0.3-0.5-0.3-0.6,0c-0.3,0.7,1,1.9,1.7,1.5C21.9,4.2,21.6,3.9,21.3,4"/>
							<path class="st3" d="M34.3,2.7c-0.4,0-0.6,0.1-0.8,0.1c-0.8,0.1-1.4,0.1-1.5-0.3c-0.1-0.2-0.1-0.4-0.2-0.8
								c-0.1-0.3-0.5-0.2-0.5,0.1c-0.1,0.6,0.3,1.4,1,1.5c0.7,0.1,1.5,0,2.1-0.2C34.6,3,34.5,2.7,34.3,2.7"/>
							<path class="st3" d="M42.3,6.3c-0.2,0-0.3,0-0.6-0.1c-0.1,0-1-1-1.1-1.1c-0.1-0.1-0.1-0.4-0.2-0.5c-0.2-0.1-0.5,0.1-0.4,0.3
								c0.1,0.4,0.4,0.7,0.7,1.1c0.4,0.5,1,0.9,1.7,0.8c0.2-0.1,0.6,0,0.6-0.3C43,6.1,42.5,6.2,42.3,6.3"/>
						</g>
					</g>
					<g>
						<path class="st3" d="M61.1,24.5c-0.2-0.5-0.7-0.9-1.3-1.1c-0.1-0.1-0.3-0.1-0.4-0.1c0-1.3-0.1-2.5-0.7-3.7
							c-0.7-1.3-2-2.4-3.4-3.1c-1.4-0.5-2.9-0.3-4.2,0.2c-0.1,0.1-0.3,0.1-0.5,0.2c0.2-0.3,0.4-0.5,0.5-0.8c0.4-0.5,0.5-1.2,0.5-1.8
							c0-0.9,0-1.9-0.1-2.8c-0.4-0.9-1.1-1.7-2-2.2c-1-0.5-2.1-0.8-3.2-0.9c-1.4,0.1-2.8,0.5-3.9,1.2c-0.8,0.4-1.6,0.9-2.3,1.5
							c0.1-0.5,0.2-1.3,0.1-1.8c-0.2-0.9-0.7-1.9-1.5-2.6c-1.6-1.2-3.8-2-5.9-1.4c-1.1,0.3-2.2,0.8-3.1,1.5
							c-1.2,0.9-2.4,2.2-3.2,3.2c0-0.1,0-0.2,0-0.3c0-2.9-3-4.1-5.8-3.3c-3.2,0.9-6.1,2.7-7.5,5.5c-0.3,0.6-0.5,1.4-0.5,2.1
							c-0.2,0.1-0.5,0.3-0.7,0.4c-1.7,1.1-3.1,2.7-4.2,4.3c-1,1.2-1.3,2.7-1,4.2c0.1,0.5,0.3,1,0.6,1.4c0.4,0.5,1,0.8,1.5,1.1
							c2.2,0.8,4.2-0.4,5.9-1.7c-0.2,0.7-0.4,1.3-0.5,2c-0.1,1.2-0.4,2.7,0.9,3.5c1.8,1.3,4.4,0.7,6.2-0.1c0.3-0.1,0.8-0.3,1.3-0.6
							c-0.4,1.1-0.7,2.3-0.8,3.4c-0.1,1-0.2,2.1,0.3,3.1c0.3,0.5,0.6,1,1.1,1.4c0.8,0.6,1.8,1.1,2.8,1.3c1.5,0.2,2.9-0.5,4.2-1.1
							c1.8-0.8,3.1-2.2,4.1-3.8c-0.1,0.6-0.1,1.3-0.1,1.9c0.2,2.1,2,4.4,4.6,3.7c0.7-0.2,1.5-0.4,2.1-0.8c1-0.7,1.7-1.7,2.4-2.7
							c0.1-0.3,0.3-0.5,0.4-0.8c0,1.7,0.3,3.5,2.1,4.1c1.3,0.3,2.5-0.3,3.4-1.1c0.9-0.7,1.5-1.6,1.8-2.6c0.2,0.2,0.5,0.3,0.8,0.5
							c0.3,0.2,0.7,0.4,1.1,0.5c0.8,0.3,1.7,0.4,2.6-0.1c0,0,0,0,0.1,0c0.8-0.2,1.7-0.6,2.2-1.2c0.7-0.8,0.9-1.8,0.9-2.8
							c0.4-0.2,0.7-0.5,1-0.8c1.2-0.8,1.7-2.3,1.8-3.6C61.7,26,61.4,25.2,61.1,24.5"/>
						<g>
							<path class="st8" d="M12.7,17.9c0.2-0.2-0.1-0.5-0.3-0.3c-0.7,0.4-1.5,0.8-1.8,1.5c-0.4,0.6-0.4,1.9,0.7,2.2
								c0.2,0,0.4-0.2,0.3-0.4c-0.1-0.1-0.2-0.1-0.3-0.2c0,0,0,0,0,0c-0.5-0.4-0.4-1.3,0.2-1.8C11.8,18.4,12.2,18.2,12.7,17.9"/>
							<path class="st8" d="M19.6,9.9c-0.5-0.1-0.7-0.1-1.3,0.1c-0.5,0.1-0.9,0.5-1.1,0.9c-0.3,0.5-0.4,1.2-0.4,1.8
								c0,0.1,0,0.3,0.2,0.3c0.1,0.1,0.3-0.1,0.3-0.2c-0.1-1.1,0.3-2.1,1.2-2.3c0.5-0.2,0.4-0.2,0.7-0.1c0.2,0,0.3,0.1,0.5,0
								C19.9,10.2,19.8,9.9,19.6,9.9"/>
							<path class="st8" d="M33.6,15c-0.7,0.2-1.2,0.6-1.7,1c-0.3,0.2-0.6,0.4-0.7,0.8c-0.4,1-0.1,2.3,1.2,2.5
								c0.2,0,0.4-0.3,0.2-0.5c-0.1-0.1-0.3-0.1-0.6-0.3c-0.3-0.2-0.5-1.5-0.1-1.9c0.5-0.4,1.3-0.9,1.9-1.2
								C34.1,15.4,34,14.9,33.6,15"/>
							<path class="st8" d="M35.8,9.8c-0.1-0.3-0.7-0.6-1.2-0.7c-0.4,0-0.7,0.1-1.1,0.2c-0.6,0.2-1,0.7-1.4,1.2
								C32,10.5,32,10.7,32,10.7c0.1,0.2,0.3,0.2,0.4,0.1c0.4-0.5,0.7-0.8,1.1-1c0.1-0.1,0.8-0.2,0.9-0.2c0.3,0,0.5,0.2,0.8,0.4
								C35.5,10.3,35.9,10.2,35.8,9.8"/>
							<path class="st8" d="M45.5,12c-1.2,0-2.5,0.4-3.1,1.6c-0.2,0.3-0.2,0.6-0.2,1c0,0.1,0,0.3,0.2,0.4c0.2,0.1,0.4,0,0.5-0.2
								c0-0.2,0-0.1,0-0.4c0-0.3,0.3-0.9,0.7-1.2c0.2-0.1,1.4-0.5,1.8-0.5C45.9,12.7,46,12,45.5,12"/>
							<path class="st8" d="M38.3,16.2c-0.6,0.8-1.4,2-1,3c0.1,0.2,0.3,0.5,0.6,0.4c0.4-0.2,0.1-0.5,0-0.6c0,0,0,0,0,0
								c-0.1-0.1-0.1-0.2-0.1-0.3c0-0.7,0.4-1.4,1-2.2C39.1,16.1,38.5,15.8,38.3,16.2"/>
							<path class="st8" d="M48.1,23.9c-0.2-0.9-0.8-1.6-1.9-1.6c-0.6,0-1.1,0.2-1.6,0.4c-0.2,0.1-0.5,0.2-0.4,0.4
								c0,0.2,0.3,0.3,0.5,0.2c0.9-0.5,1.8-0.7,2.4-0.1c0.3,0.2,0.5,1.2,0.5,1.5c0,0.3,0.4,0.4,0.6,0.2
								C48.3,24.6,48.1,24.2,48.1,23.9"/>
							<path class="st8" d="M48.3,18.2c-0.4-0.4-1-0.4-1.5-0.4c-0.5,0-1,0-1.5,0.2c-0.5,0.1-0.4,0.7,0.1,0.5
								c0.7-0.3,2.2-0.4,2.6,0.1c0.1,0.1,0,0.1,0.2,0.2C48.6,18.8,48.6,18.4,48.3,18.2"/>
							<path class="st8" d="M55.5,19.6c-0.6,0.1-1,0.4-1.5,0.7c-0.4,0.2-0.8,0.5-1,0.9c-0.3,0.6-0.1,1.2,0.3,1.7
								c0.1,0.1,0.2,0.3,0.4,0.4c0.2,0.1,0.4-0.1,0.4-0.3c0-0.2-0.3-0.4-0.4-0.6c-0.2-0.4-0.3-0.6,0-1c0.1-0.1,1.3-1,1.6-1.1
								c0.2-0.1,0.4-0.1,0.5-0.2C56,19.8,55.8,19.5,55.5,19.6"/>
							<path class="st8" d="M56.5,29.7c-0.5-0.4-1.3-0.5-1.9-0.3c-0.5,0.2-0.9,0.5-1.2,0.9c-0.3,0.4-0.6,0.8-0.6,1.2
								c0,0.3,0.5,0.3,0.5,0c0.1-0.5,0.7-1.2,1-1.4c0.3-0.3,0.8-0.3,1-0.2c0.7,0,0.7,0.2,1.1,0.4C56.8,30.2,56.8,29.8,56.5,29.7"/>
							<path class="st8" d="M58.8,25.8c-0.3-0.3-1.1-0.6-1.7-0.4c-0.4,0.1-0.9,0.1-1.2,0.4c-0.2,0.2,0.1,0.6,0.4,0.4
								c0.7-0.4,1.7-0.4,2.1,0c0.2,0.1,0.4,0.3,0.6,0.4c0.2,0.1,0.4-0.1,0.4-0.3C59.3,26.1,58.9,25.9,58.8,25.8"/>
						</g>
					</g>
					<g>
						<path class="st14" d="M29.3,22.9c-1.1-0.2-2.4,0.1-3.6,0.1c-1.3,0.1-2.9-0.2-4.5,0.1c1.2-1.2,2.4-2.1,3.7-3.5
							c1.7-1.9,3.4-3.7,5.3-5.4c0.5-0.4,0.6-1-0.1-1.2c-1.5-0.5-6.3-0.6-6.5-0.5c-0.3,0.1-5,7.3-7.3,10.4c-1.1,1.4-2.4,2.7-3.3,4.3
							c-0.2,1.3,1.5,0.4,6,0.5c0.5,0,1.3-0.1,2-0.1c-0.2,0.3-5.1,7.3-7.3,11.9c0,0.4,0.4,0.6,0.8,0.5c0.4-0.2,0.7-0.6,1-0.9
							c1-1.1,2.2-2.1,3.3-3.2c2.2-2.3,4.2-4.6,6.4-6.9c1.1-1.2,2.4-2.3,3.4-3.5C29,24.6,30.3,23.5,29.3,22.9"/>
						<path class="st6" d="M25.4,24.2c-0.4,0.1-0.7,0.2-1.1,0.3c-0.4,0.1-1.4,0.1-1.8,0.2c-1.5,0.3-3.2,0.3-5,0.7
							c-0.3,0.1-0.9,0.3-1.3,0.4c1.3-1.6,2.5-3,3.8-4.5c1.1-1.4,1.8-2.5,3-3.8c0.9-1.1,2-2.4,2.7-3.8c0-0.2-0.3-0.4-0.5-0.1
							c-1.8,2.9-3.9,5-5.7,7.5c-0.7,0.7-1.5,1.8-2.2,2.6c-0.5,0.6-1,1.2-1.4,1.8c-0.1,0.1-0.4,0.4-0.5,0.7c0,0.7,0.9,0.3,1.3,0.2
							c0.6-0.2,1.3-0.4,1.8-0.4c1.3-0.1,3.1-0.3,4.2-0.5c0.6-0.1,1.1-0.1,1.7-0.2c0.4-0.1,0.7-0.2,1.1-0.3c-0.9,1.9-2.7,3.8-4.1,5.5
							c-1.7,1.8-3.5,3.7-4.7,5.3c-0.1,0.1-0.7,0.7-0.8,1c0,0.3,0.3,0.4,0.5,0.2c1-1.1,1.8-2.4,3-3.7c2-2.1,4-4.2,5.6-6.5
							c0.5-0.6,0.8-1.3,1.2-2C26.5,24,25.7,24.1,25.4,24.2"/>
					</g>
					<g>
						<path class="st8" d="M50,33.5c-0.3-0.3-0.7-0.7-1.2-0.9c0.3-0.2,0.5-0.5,0.7-0.8c0.6-1.5-0.7-2.9-1.9-3.6
							c-1.5-0.9-3-1.2-4.6-0.7c0.1-0.5,0.4-0.9,0.3-1.4c-0.1-0.9-0.7-1.8-1.5-2.3c-1.1-0.9-2.4-1.8-3.8-0.9
							c-0.3,0.2-0.5,0.5-0.7,0.8c-1-0.2-2.1-0.1-3,0.1c-1.3,0.3-2.1,1.7-1.9,2.9c0,0.3,0,0.5,0.1,0.8c-0.2-0.1-0.5-0.1-0.7-0.1
							c-0.6,0-1.1,0.2-1.6,0.4c-0.6,0.2-1.3,0.4-1.8,0.8c-0.5,0.4-1,0.9-1.3,1.5c-0.2,0.4-0.4,0.8-0.4,1.3c0.1,0.4,0.1,0.8,0.3,1.1
							c0,0,0,0.1,0.1,0.1c-0.1,0-0.3,0.1-0.4,0.1c-0.7,0.2-1.4,0.5-1.9,0.9c-0.5,0.4-0.9,0.9-1,1.5c-0.2,0.6-0.2,1.2-0.1,1.7
							c0.1,1.2,1.1,2.2,2.4,2.4c1.2,0.1,2.4-0.3,3.5-0.8c0.5-0.3,1-0.6,1.5-0.9c0.1,0.8,0.6,1.6,1.3,2c1.2,0.8,2.8,0.4,3.8-0.5
							c0.4-0.4,0.8-0.8,1.2-1.2c0,0,0,0.1,0,0.1c0.2,0.6,0.5,1.1,1.1,1.5c0.6,0.4,1.3,0.5,2,0.5c1.1-0.2,2.2-0.7,3-1.4
							c0,0,0.3-0.2,0.6-0.4c0.1,0.3,0.2,0.5,0.4,0.7c0.1,0.1,0.2,0.4,0.6,0.6c0.4,0.2,0.7,0.5,1.1,0.6c1.4,0.1,2.8-0.5,3.8-1.3
							c0.3-0.2,0.6-0.6,0.8-0.9c0.3-0.5,0.6-1.1,0.7-1.7C51,34.9,50.6,34.1,50,33.5"/>
						<g>
							<path class="st7" d="M27.1,34.2c-0.6,0.6-1.4,1.7-0.8,2.5c0.2,0.2,0.4,0.4,0.7,0.4c0.2,0,0.2-0.2,0.2-0.4
								c-0.1-0.2-0.3-0.2-0.4-0.2c0,0,0,0,0,0c0,0-0.1-0.1-0.1-0.1c0,0,0,0,0,0c0,0,0,0,0,0c0,0,0,0,0-0.1c0-0.4,0.3-1.1,0.6-1.4
								c0.1-0.1,0.3-0.2,0.3-0.4C27.6,34.2,27.3,34.1,27.1,34.2"/>
							<path class="st7" d="M32.6,29.4c-0.5,0.3-0.9,0.9-1.2,1.4c-0.2,0.4-0.3,0.9-0.2,1.3c0.2,0.5,0.9,0.7,1.4,0.7
								c0.2-0.1,0.2-0.3,0-0.4c-0.2-0.1-0.2,0-0.4-0.1c-1.1-0.2-0.5-1.5,0.3-2.3c0.2-0.2,0.2-0.1,0.4-0.3
								C33.1,29.5,32.8,29.3,32.6,29.4"/>
							<path class="st7" d="M36.3,35.6c-0.3,0-0.6,0.3-0.9,0.4c-0.9,0.6-1.3-0.1-1.3-1.2c0-0.3-0.6-0.3-0.6,0c0,0.6,0.1,1.3,0.6,1.7
								c0.4,0.3,0.9,0.3,1.3,0c0.3-0.2,0.8-0.4,1-0.7C36.5,35.8,36.5,35.7,36.3,35.6"/>
							<path class="st7" d="M39.4,25.3c-1.2,0-2.7,0.5-3.3,1.5c-0.2,0.7,0.5,1.3,1,1.7c0.2,0.2,0.5,0.1,0.5-0.1
								c0-0.4-0.4-0.4-0.7-0.8c0.1,0.1-0.2-0.2-0.3-0.4c0,0,0-0.1,0-0.1c0,0,0,0,0,0c0.2-0.4,1.1-1,2-1.1c0.1-0.1,0.5,0,0.8-0.1
								C39.8,25.7,39.7,25.3,39.4,25.3"/>
							<path class="st7" d="M40.7,32.3c-0.1-0.1-0.3-0.1-0.4,0c-0.3,0.1-0.3,0.1-0.7,0.2c-1.1,0.3-1.4-0.6-0.7-2
								c0.1-0.4-0.5-0.5-0.6-0.2c-0.3,0.6-0.5,1.4-0.3,2.1c0.4,1.1,1.9,0.9,2.7,0.3C40.8,32.6,40.8,32.4,40.7,32.3"/>
							<path class="st7" d="M43,36.1c-0.3,0.3-0.3,0.3-0.6,0.5c-0.4,0.2-0.4,0.2-0.6,0.1c-0.2-0.2-0.3-0.5-0.4-0.9
								c-0.1-0.4-0.7-0.2-0.6,0.2c0.1,0.6,0.3,1.3,1,1.4c0.6,0.1,1.4-0.4,1.6-1C43.5,36.1,43.2,36,43,36.1"/>
							<path class="st7" d="M48.7,35.3c-0.1-0.1-0.3-0.2-0.4-0.1c-0.2,0.1-0.2,0.4-0.3,0.5c0,0.1-0.1,0.1-0.1,0.2c0,0,0,0,0,0
								c0,0,0,0,0,0c-0.1,0.1-0.5,0.1-0.6,0.1c-0.1,0-0.2,0-0.3-0.1c0,0,0,0,0,0c-0.3-0.4-0.9-0.1-0.6,0.3c0.5,0.5,1.5,0.6,2,0.1
								c0.2-0.2,0.2-0.2,0.4-0.5c0,0,0.1-0.2,0.1-0.3C48.8,35.6,48.8,35.4,48.7,35.3"/>
							<path class="st7" d="M46.2,30.6c-0.2,0-0.3,0.2-0.5,0.3C45.4,31,45.3,31,45,31c-0.1,0-0.3-0.3-0.4-1.1c-0.1-0.1,0-0.3,0-0.6
								c-0.1-0.3-0.6-0.2-0.6,0.1c0,0.4,0.1,0.9,0.2,1.3c0.1,0.3,0.2,0.7,0.6,0.8c0.4,0.2,0.9,0,1.3-0.2c0.2-0.1,0.4-0.2,0.5-0.4
								C46.6,30.8,46.4,30.6,46.2,30.6"/>
						</g>
					</g>
				</g>
			</g>
		</g>
	</g>
</g>
</svg>
