<?xml version="1.0" encoding="utf-8"?>
<!-- Generator: Adobe Illustrator 27.0.0, SVG Export Plug-In . SVG Version: 6.00 Build 0)  -->
<svg version="1.1" xmlns="http://www.w3.org/2000/svg" xmlns:xlink="http://www.w3.org/1999/xlink" x="0px" y="0px"
	 viewBox="0 0 136.5 131.1" style="enable-background:new 0 0 136.5 131.1;" xml:space="preserve">
<style type="text/css">
	.st0{fill:#FFFFFF;}
	.st1{fill:#8CA2CF;}
	.st2{clip-path:url(#SVGID_00000163767075515489371010000015214363439383041700_);}
	.st3{fill:#627EB5;}
	.st4{fill:#8CA05C;}
	.st5{fill:#677724;}
	.st6{fill:#E0A955;}
	.st7{fill:#BBD7FF;}
	.st8{fill:#3C5987;}
	.st9{clip-path:url(#SVGID_00000072966439741404515670000005311905998707679639_);}
	.st10{fill:#669CD3;}
	.st11{clip-path:url(#SVGID_00000107581708088481479320000012578767936385468050_);}
	.st12{fill:#92C4FC;}
	.st13{fill:#FAF4D2;}
	.st14{fill:#FCCB7C;}
	.st15{clip-path:url(#SVGID_00000041292961895856204080000005541975452026855057_);}
	.st16{clip-path:url(#SVGID_00000102539722209578822460000009556071312383203729_);}
	.st17{fill:#C5CAF0;}
	.st18{clip-path:url(#SVGID_00000055669297907953589850000003670012947276184234_);}
	.st19{clip-path:url(#SVGID_00000102512263334531474360000011494192671587411590_);}
	.st20{clip-path:url(#SVGID_00000137829196668494011240000002653427337103383982_);}
	.st21{clip-path:url(#SVGID_00000071553782551635381150000004075202875818401155_);}
	.st22{fill:#F9CC3D;}
	.st23{fill:#FFEAAE;}
	.st24{fill:#FFECB8;}
	.st25{fill:#D3AA37;}
	.st26{fill:#FFE08A;}
	.st27{clip-path:url(#SVGID_00000019656878285188498090000016550786916512000901_);}
	.st28{clip-path:url(#SVGID_00000121248191069513637470000012930416270228134328_);}
	.st29{clip-path:url(#SVGID_00000171001500994940302880000004736805938508157329_);}
	.st30{clip-path:url(#SVGID_00000179625955041805611790000011851534728880681377_);}
	.st31{clip-path:url(#SVGID_00000067224269341769497610000007740123464024519048_);}
	.st32{clip-path:url(#SVGID_00000078016893519566234810000003315006667721965228_);}
	.st33{clip-path:url(#SVGID_00000042697556253570328700000000532117766391820474_);}
	.st34{clip-path:url(#SVGID_00000131367353141522836070000015675139952545243777_);}
	.st35{clip-path:url(#SVGID_00000088123079195023804380000008862256916784592000_);}
</style>
<g id="BACKGROUND">
</g>
<g id="OBJECTS">
	<g>
		<path class="st8" d="M136,62.3c-0.2-2.7-1-5.2-1.6-7.7c-0.5-2.1-0.9-4.2-1.5-6.3c-1-4.2-2.5-8.2-4.4-12c-1.5-3.7-3.7-7-6.2-10
			c-3-3.6-6.3-6.9-10.1-9.6c-2.2-1.5-4.6-2.8-6.9-4.2C85.1-0.2,57.8-8.5,34.5,15.8c-3,3.1-6.2,6.1-9.2,9.3c-2.3,2.7-4.9,5.3-7,8.2
			c-2.2,3.7-4.1,7.6-6.3,11.3c-1.1,2-2.4,4-3.3,6.1c-1.2,2.8-2,5.7-3,8.5C4.3,63,3.5,67,2.8,70.9c-0.7,3.9-1.6,7.8-2,11.7
			c-0.9,6.7-1,13.6-0.5,20.3c0,2.4,0.1,4.9,0.4,7.3c0.1,2.1,0.2,3.5,2,6.9c2,3.5,5,6.1,8,8.6c2,1.1,1.8,0.9,2.4,1.3
			c1.9,1,3.9,1.7,5.9,2.3c2.1,0.7,4.1,1.5,6.3,1.7c3.4-0.1,6.8-0.8,10.2-1.4c5.2-1.3,10.2-3.3,15.3-4.9c3.1-0.7,5.1-0.6,9.9-0.9
			c3.2-0.2,8.5,0.5,8.8,0.6c7.9,1.7,11.2,2.7,18.8,3.2c5.4,0.4,11,0.1,16.2-1.7c4.1-1.5,7.8-3.9,11.4-6.5c3.6-3.1,6.4-7,8.6-11.2
			c3-5,5.4-10.4,7.1-16c1.4-4.5,3.1-8.9,3.5-13.7c0.4-3.2,1.1-6.4,1.3-9.6C136.6,66.6,136.2,64.4,136,62.3"/>
		<g>
			<defs>
				<path id="SVGID_00000142876305073420542980000010415533772976000686_" d="M136,62.3c-0.2-2.7-1-5.2-1.6-7.7
					c-0.5-2.1-0.9-4.2-1.5-6.3c-1-4.2-2.5-8.2-4.4-12c-1.5-3.7-3.7-7-6.2-10c-3-3.6-6.3-6.9-10.1-9.6c-2.2-1.5-4.6-2.8-6.9-4.2
					C85.1-0.2,57.8-8.5,34.5,15.8c-3,3.1-6.2,6.1-9.2,9.3c-2.3,2.7-4.9,5.3-7,8.2c-2.2,3.7-4.1,7.6-6.3,11.3c-1.1,2-2.4,4-3.3,6.1
					c-1.2,2.8-2,5.7-3,8.5C4.3,63,3.5,67,2.8,70.9c-0.7,3.9-1.6,7.8-2,11.7c-0.9,6.7-1,13.6-0.5,20.3c0,2.4,0.1,4.9,0.4,7.3
					c0.1,2.1,0.2,3.5,2,6.9c2,3.5,5,6.1,8,8.6c2,1.1,1.8,0.9,2.4,1.3c1.9,1,3.9,1.7,5.9,2.3c2.1,0.7,4.1,1.5,6.3,1.7
					c3.4-0.1,6.8-0.8,10.2-1.4c5.2-1.3,10.2-3.3,15.3-4.9c3.1-0.7,5.1-0.6,9.9-0.9c3.2-0.2,8.5,0.5,8.8,0.6
					c7.9,1.7,11.2,2.7,18.8,3.2c5.4,0.4,11,0.1,16.2-1.7c4.1-1.5,7.8-3.9,11.4-6.5c3.6-3.1,6.4-7,8.6-11.2c3-5,5.4-10.4,7.1-16
					c1.4-4.5,3.1-8.9,3.5-13.7c0.4-3.2,1.1-6.4,1.3-9.6C136.6,66.6,136.2,64.4,136,62.3"/>
			</defs>
			<clipPath id="SVGID_00000041994639180554187540000008603972316008926866_">
				<use xlink:href="#SVGID_00000142876305073420542980000010415533772976000686_"  style="overflow:visible;"/>
			</clipPath>
			<g style="clip-path:url(#SVGID_00000041994639180554187540000008603972316008926866_);">
				<g>
					<g>
						<path class="st4" d="M33.9,120.3c-0.7-3.1-2.2-7.1-3.5-10.7c-0.9-2.6-2.1-5.1-3.6-7.5c-1.2-2.2-2.7-4.4-5.3-5.6
							c-2-0.7-4.7-0.3-6.2,1c-3.9,3.2-4.2,8.2-4.9,12.4c-0.3,3.3,0.7,6.7,0.6,10c0.4,3.9,0.7,7.9,1.9,11.7c0.1,0.1,0.1,0.1,0.2,0.1
							c0.3,0.7,1.5,0.6,1.9-0.2c0.1-0.1,0.2-0.3,0.3-0.4c0,0,0,0,0,0c0.1-0.1,0.1-0.1,0.2-0.2c0.5-0.3,1.4-0.6,1.8-0.8
							c0.5-0.1,0.9-0.1,1.9-0.3c0.3,0,0.6-0.1,0.9-0.2c1.2-0.2,2.9-0.8,3.3-0.8c2.5-0.1,5-0.5,7.5-0.5c1.3,0,2.6,0.2,3.9-0.1
							c0,0,0,0,0.1,0c0.3-0.1,0.7-0.2,0.8-0.5C35.7,125.3,34.1,122.1,33.9,120.3 M93.8,122.4c-0.5-1.6-1-4.1-1.4-5.5
							c-0.2-2.3-0.5-4.6-1-6.9c-1-2.7-2.1-5.4-3.4-7.9c-1-1.7-2.6-3-4.2-4.3c-1.7-1.3-3.8-2.1-6.1-1.9c-2.5,0.1-4.7,1.3-6.5,2.7
							c-3.6,2.6-5.2,6.5-6.4,10.2c-1.5,4.4-2.8,8.9-4.1,13.4c-0.1,0.6-0.5,1.3-0.4,2c-0.2,0.1-0.3,0.3-0.4,0.5
							c-0.3,0.6,0.4,1.2,1.1,1c0.1,0,0.4-0.2,0.5-0.3c0.1,0,0.1,0,0.2-0.1c1.7-0.3,4.6-0.2,7-0.1c3.1,0.3,6.3,0,9.4-0.1
							c4.7,0.1,9.4,0.2,14-0.2c0.7-0.1,1.6-0.4,1.8-1C94.1,123.4,93.9,122.9,93.8,122.4"/>
						<path class="st5" d="M61.3,123c-0.9-7.7-2.1-14.2-4-21.7c-1.1-3.6-2.5-7.2-4.7-10.5c-0.8-1.5-2.1-2.7-3.8-3.4
							c-2.3-0.8-5.2-0.4-7.4,0.6c-2.5,1.6-3.3,4.3-4.3,6.7c-2.7,8.5-2.6,16.8-2.2,26.1c0.2,2.1,0.1,4.1,0.3,6.2
							c-0.5,0.4-0.2,1.2,0.5,1.3c0.2,0.1,0.9-0.2,1.2-0.3c1.1-0.3,1.3-0.3,2.7-0.8c0.4-0.1,4.4-0.9,4.7-0.9c2.4-0.4,3.6-0.9,6.1-1
							c2.9,0.2,6.5,0,8.6,0.2C61.6,125.9,61.5,125.1,61.3,123"/>
						<path class="st6" d="M26.5,128.6c-0.3-1.3-0.6-2.3-0.8-3.3c-0.8-3.3-1.9-7.4-3-11.2c-0.7-2.1-1.5-4.4-1.8-6.2
							c-0.1-0.7-0.6-1.9-0.7-2.1c-0.1-0.3,0-0.8-0.8-0.8c-0.5,0.1-0.6,0.5-0.6,0.8c0.1,1,0.3,1.2,0.4,2.1c0.3,1.3,0.3,2.6,0.4,3.9
							c0.5,2.3,1.1,4.9,1.5,6.9c0.5,3.6,0.9,7.1,1.2,10.7c0,0.2,0,0.5,0.2,0.7c0.2,0.2,0.5,0.1,0.7,0c0.1,0,0.2,0.1,0.4,0
							c0.1,0,0.2-0.1,0.2-0.1c0,0,0.1,0,0.1-0.1c0.2-0.1,1.1-0.2,0.8-0.2c0.2-0.2,1.2,0.2,1.7-0.4C26.7,129.3,26.4,128.2,26.5,128.6
							"/>
						<path class="st6" d="M48.4,123.5c-0.5-4.3-0.4-8.6-0.9-12.9c-0.4-3-1.1-6-1.5-9c-0.1-0.8-0.2-1.6-0.2-2.1
							c-0.1-0.3,0.1-0.8-0.3-1c-0.4-0.2-0.9,0-0.9,0.4c-0.3,6.1,0,12.8,0,19.5c0.1,2.5,0.2,4.9,0.5,7.4c0.1,0.2,0.4,0.3,0.7,0.2
							c0.6,0.4,0.7,0,1.4,0.1C49.3,126.5,48.7,125.5,48.4,123.5"/>
						<path class="st6" d="M77.6,104.8c0-0.2,0-0.5,0-0.8c0,0,0-0.1,0-0.1h0c0-0.3-0.2-0.5-0.6-0.5c-0.6,0.1-0.6,0.5-0.6,0.9
							c0,0.1,0,0.1,0,0.2c0,0.1,0,0.3,0,0.4c-0.5,4.5-1.7,10.3-2.5,15.3c-0.1,1.6-0.8,3.3-0.6,4.8c0.1,0.1,0.2,0.2,0.3,0.2
							c0.1,0.2,0.3,0.3,0.5,0.3c0.1,0,0.5,0.1,0.7,0.1c0.8,0.1,1.6,0.1,2.4,0.1c-0.1,0,1.2,0.3,1.3-0.4c0-2.5,0-4.6,0.3-6.8
							C78.6,114,78.1,109.4,77.6,104.8"/>
					</g>
					<g>
						<path class="st5" d="M143.3,119.7c-1.6,0.9-4.1,1.5-6.5,2c-4.6,1.5-9.9,1-15.2,1c-9.3,0.4-18.1-2.5-27.6-4.1
							c-9.6-2-18.6-2.6-28.2-2.3c-3.5,0.2-7,0.3-10.4,1c-1.5,0.2-3,0.2-4.4,0.6c-1.6,0.5-3.3,0.7-4.9,1.1c-2.2,0.6-4.3,1.6-6.5,2.1
							c-2.9,0.6-7.6,0.9-11.4,1c-2,0.3-2.9,0.6-5,0.8c-3.7,0-8-0.7-12-1.7c-1.8-0.5-3.1-1-5.3-1.8c-0.2-0.1-0.4-0.1-0.6,0
							c-0.1,0-0.2,0.1-0.3,0.2c-0.4,0.1-0.7,0.6-0.5,1c0,0.1,0.1,0.2,0.1,0.2c0,0,0,0.1,0.1,0.1c0.4,1,0.6,1.7,1,2.2
							c2,3.6,5.8,5.9,9.3,8.2c3.1,1.8,6.5,3.1,9.8,4.5c1.9,0.8,3.5,1.9,5.5,2.5c3,0.6,6.2,0.6,9.3,0.7c2.9,0.1,5.8-0.7,8.6-1.2
							c3.9-0.6,7.6-2,11.4-2.8c2.1-0.9,4.3-1.7,6.6-2.1c3.8-0.8,7-1.6,10.5-2c4-0.5,8.1,0,12.2,0.1c5.2-0.1,9.9,0.6,15.4,1.3
							c6.4,0.8,12.8,1.3,19.3,1.5c3.7,0,7.2-1.2,10.2-3.1c2.6-1.3,5-3,6.8-5.2C141.7,124.4,146.2,119.8,143.3,119.7"/>
						<g>
							<path class="st4" d="M137.1,124.3c-0.4-0.1-0.8,0.1-1.1,0.2c-1.2,0.4-2.4,0.7-3.6,0.9c-3,0.8-5.6,1.1-9,1.5
								c-8.8,0.4-17.2,0.7-25.3-1.6c-4.8-1.2-8.6-2.9-13.4-4.2c-3.8-1.1-7.7-1.7-11.6-2c-3.9-0.3-7.8,0.4-11.7,0.4
								c-4.4,0.7-8.5,1.6-13,3c-2,0.5-4,1.1-5.9,2c-2,0.7-4.1,1.4-6.1,1.9c-2.2,0.6-4.6,0.7-7,1c-1.9,0.3-3.7,0.4-5.6,0.3
								c-1.8,0.1-3.7,0-5.4-0.5c-2.4-0.8-4.8-1.8-6.8-3.2c-0.4-0.4-1.2,0.3-0.7,0.7c3.2,2,6.9,3.8,10.9,4c2.9,0.1,5.8,0,8.6-0.5
								c2.4-0.2,4.5-0.4,6.7-1.1c3.4-0.7,6.3-2.1,9.5-3.1c3-0.8,6.1-1.8,8.7-2.2c2.7-0.6,4.8-1.1,7.6-1.2c3.6-0.1,8.5-0.7,11.3-0.3
								c7.8,0.6,14.3,3.3,21.4,5.6c6.9,2.3,13.2,2.5,20.5,2.6c5.9-0.1,11.7-0.5,17.4-2c1.2-0.2,2.3-0.6,3.4-0.9
								c0.3-0.1,0.6-0.2,0.8-0.5C137.9,125,137.6,124.4,137.1,124.3"/>
							<path class="st4" d="M81.9,125c-0.5-0.3-0.3-0.1-0.8-0.2c-3.4-0.6-6.1-0.6-9.7-0.4c-2.7,0-5.4-0.2-8.1,0.4
								c-3.2,0.7-6.4,1.4-9.6,2.2c-3.4,1.4-7,2.5-10.4,3.7c-3.5,1.1-6.9,1.3-10.8,1.8c-0.8,0.2-1.8,0-2.5,0.4
								c-0.3,0.3,0,0.9,0.5,0.9c4.5-0.5,9-0.8,13.3-2.1c2.5-0.9,5.1-1.7,7.6-2.6c1.9-0.8,3.8-1.5,5.9-1.8c4.7-1.2,8.8-2.1,13.8-1.7
								c3.8-0.2,6.2-0.2,9.7,0.4c0.3,0,0.7,0.2,1,0C82.2,125.8,82.2,125.2,81.9,125"/>
							<path class="st4" d="M68,128.7c-2.4,0-4.8,0.6-7.1,0.8c-2.6,0.5-5.1,1.1-7.6,1.8c-3.8,1.3-7.8,2.3-11.4,4.1
								c-0.8,0.4-2.3,0.8-2.7,1.5c-0.1,0.5,0.5,0.8,0.9,0.6c7.5-3.7,17.1-6.5,25.6-7.3c0.8-0.2,1.8,0,2.5-0.4
								C68.5,129.3,68.4,128.8,68,128.7"/>
							<path class="st4" d="M129.6,130c-0.4-0.2-0.9,0.1-1.3,0.2c0,0,0,0-0.1,0c-1.8,0.2-3.7,0.5-5.5,0.5c-2.4,0-4.8,0.3-7.1,0.2
								c-3.8-0.4-8.9-0.8-13.4-1.7c-4.2-0.7-8.5-1.5-12.9-1.5c-0.3,0-0.6-0.1-0.8,0.2c-0.3,0.3,0,0.9,0.5,0.9
								c7.3,0,14.8,2.2,22.4,2.8c1.5,0.1,3.6,0.4,5.5,0.5c1.9,0,3.8-0.2,5.6-0.2c1.5,0,2.9-0.1,4.4-0.2c0.9,0,1.8-0.1,2.6-0.3
								C130.1,131,130.2,130.2,129.6,130"/>
						</g>
					</g>
				</g>
			</g>
		</g>
	</g>
	<g>
		<g>
			<path class="st14" d="M93.8,17.5c-0.4,0.1-0.9,0.2-1.3,0.3c-3.4,0.9-6.7,2.3-9.6,4.3c-2.5,1.7-4.7,3.7-6.6,6
				c-2.8,3.4-5,7.2-6.2,11.5c-2.1,7.1-1.7,14.1,1.1,21c1.3,3.2,3.2,6.1,5.5,8.6c4.7,5.1,10.4,8.3,17.2,9.5c6.1,1.1,12,0.4,17.7-2
				c1.7-0.7,3.3-1.6,4.8-2.6c0.1,0,0.1,0,0.2-0.1c-0.3,1.4-6.2,6.6-9.9,8.7c-3.9,2.3-8.1,3.7-12.6,4.4c-4.5,0.7-8.9,0.5-13.3-0.6
				c-19.7-4.7-30.8-24.5-26-43.2C59.8,24.8,77.8,15,93.8,17.5z"/>
			<path class="st22" d="M74.6,87c-0.1,0-0.3-0.1-0.5-0.2c-1.2-0.5-2.4-1.1-3.5-1.8c-6-3.9-10.7-9-13.9-15.4
				c-0.2-0.3-0.3-0.6-0.4-0.9c0-0.1,0-0.2,0.1-0.3c0.1-0.1,0.2,0,0.3,0.1c0.1,0.2,0.2,0.4,0.3,0.6c1.6,2.9,3.3,5.7,5.4,8.1
				c3,3.4,6.5,6.2,10.5,8.4c0.6,0.3,1.2,0.5,1.8,0.8c0.1,0.1,0.3,0.2,0.2,0.3C75,87,74.8,87,74.6,87z"/>
			<path class="st22" d="M56.5,75.1c0.3,0.1,0.4,0.3,0.6,0.5c2.3,2.7,4.8,5.1,7.7,7.1c0.6,0.4,1.2,0.8,1.8,1.2
				c0.2,0.2,0.6,0.4,0.4,0.7c-0.2,0.3-0.5,0.1-0.8,0c-1.7-1.1-3.2-2.3-4.7-3.6c-1.7-1.6-3.3-3.3-4.7-5.1c-0.1-0.2-0.2-0.3-0.3-0.5
				C56.3,75.2,56.3,75.1,56.5,75.1z"/>
			<path class="st22" d="M54,42.4c0.2,0.2,0,0.3,0,0.5c-1.2,2.3-1.7,4.7-1.7,7.1c0,1.1-0.1,2.3,0.1,3.4c0,0.2,0,0.4,0,0.6
				c0,0.1,0,0.3-0.3,0.3c-0.3,0-0.4-0.1-0.4-0.3c-0.1-0.2-0.2-0.4-0.2-0.6c-0.1-3.4,0.1-6.8,1.8-10.2C53.6,42.7,53.6,42.6,54,42.4z"
				/>
			<path class="st22" d="M72.8,87.8c-0.8-0.1-1.6-0.5-2.2-1c-0.1-0.1-0.2-0.1-0.1-0.3c0.1-0.1,0.2-0.1,0.3-0.1
				c0.1,0,0.2,0.1,0.3,0.1c0.6,0.3,1.2,0.5,1.8,0.7c0.2,0,0.3,0.1,0.3,0.3C73.2,87.8,73,87.8,72.8,87.8z"/>
			<path class="st22" d="M55.6,38.9c-0.3,0.7-0.5,1.3-0.8,2c0,0-0.1,0.1-0.1,0.1c-0.1,0-0.1-0.1-0.1-0.1c0.2-0.7,0.4-1.4,0.9-2
				C55.5,38.9,55.6,38.9,55.6,38.9z"/>
		</g>
		<g>
			<path class="st6" d="M85.1,18.6c-3.8,1.8-7.6,3.7-11.4,5.5c-1.7,0.8-3.3,1.6-4.8,2.7c-1.3,1-2.3,2.2-3,3.6c-1.5,2.8-2.1,6-3.1,9
				c-0.6,1.7-1.4,3.3-2.3,4.9c-0.9,1.7-1.5,3.5-1.9,5.5c-1.3,6.8-0.8,14.4,3.5,20.1c2.2,3,5.1,5.3,8,7.5c2.8,2.2,5.8,4.3,9.1,5.7
				c1.7,0.7,3.5,1.2,5.3,1.4c2,0.3,4,0.2,6-0.2c2-0.3,4-0.9,6-1.3c2-0.5,4.1-1,6.1-1.5c1-0.2,2-0.5,3.1-0.7c0.3-0.1,0.2-0.6-0.1-0.5
				c-4,1-8.1,1.9-12.1,2.8c-1.9,0.5-3.9,0.9-5.9,0.9c-1.9,0.1-3.9-0.2-5.7-0.7c-3.4-1-6.5-2.8-9.3-4.9c-1.4-1.1-2.8-2.2-4.2-3.3
				c-1.4-1.1-2.8-2.3-4-3.6c-2.4-2.6-4.1-5.6-4.9-9c-0.8-3.3-0.9-6.8-0.6-10.2c0.2-1.9,0.5-3.8,1.2-5.5c0.7-1.8,1.7-3.4,2.5-5.1
				c1.3-2.9,1.8-6,2.9-9c0.5-1.4,1.2-2.8,2.2-4c1.1-1.3,2.6-2.3,4.2-3.1c1.7-0.9,3.5-1.8,5.3-2.7c1.8-0.9,3.7-1.8,5.5-2.8
				c0.9-0.4,1.8-0.9,2.7-1.4C85.5,18.8,85.3,18.6,85.1,18.6L85.1,18.6z"/>
		</g>
		<g>
			<path class="st6" d="M65.9,57.3c-0.2,0.5-0.2,1-0.2,1.5c0,0.4,0.1,0.8,0.4,1.1c0.6,0.6,1.3-0.1,1.5-0.7c0.2-0.4,0.2-0.9,0.2-1.4
				c0-0.5,0-1,0-1.6c-0.1-0.9-0.2-1.9-0.7-2.7c-0.3-0.6-0.9-1.2-1.7-1.1c-0.8,0.1-1.1,0.9-1.3,1.6c-0.5,1.7-0.6,3.6-0.3,5.4
				c0.2,1.8,0.9,3.6,1.8,5.1c1,1.7,2.4,3.1,3.9,4.4c1.6,1.5,3.3,2.9,4.9,4.3c0.8,0.7,1.7,1.5,2.5,2.2c0.7,0.6,1.4,1.2,2.2,1.7
				c0.8,0.5,1.7,0.7,2.6,0.6c0.5,0,1-0.1,1.5,0c0.5,0.1,0.9,0.4,1.3,0.7c0.7,0.6,1.5,1.1,2.3,1.5c0.8,0.4,1.7,0.6,2.7,0.6
				c0.5,0,0.9,0,1.4,0c0.4,0,0.4-0.7,0-0.6c-1.7,0.2-3.4-0.2-4.8-1.1c-0.7-0.4-1.3-1.1-2-1.4c-0.8-0.4-1.7-0.3-2.6-0.3
				c-1.8,0-3.1-1.2-4.3-2.3c-1.5-1.3-3-2.6-4.5-3.9C70,68.6,67,66.3,65.5,63c-0.7-1.5-1.1-3.1-1.2-4.7c-0.1-0.8,0-1.7,0-2.5
				c0.1-0.7,0.2-1.6,0.5-2.2c0.2-0.3,0.4-0.7,0.8-0.7c0.4,0,0.7,0.3,0.9,0.6c0.5,0.8,0.7,1.8,0.7,2.7c0,0.5,0,1,0,1.6
				c0,0.5-0.1,1-0.3,1.4c-0.1,0.1-0.2,0.3-0.4,0.3c-0.2,0-0.3-0.4-0.3-0.5c-0.1-0.5-0.1-1.1,0.1-1.6C66.4,57.1,66,57,65.9,57.3
				L65.9,57.3z"/>
		</g>
		<g>
			<path class="st23" d="M71.9,62C72,62,72,62,71.9,62C71.9,62,71.9,62,71.9,62L71.9,62z"/>
		</g>
		<g>
			<path class="st24" d="M77.3,26.8c-1.7,1.6-3.1,3.4-4.3,5.4c-1.2,2-2.1,4.1-2.8,6.3c-0.2,0.6-0.3,1.2-0.5,1.9
				c-0.1,0.3-0.1,0.7-0.2,1c-0.1,0.3-0.1,0.7-0.1,1c0,0.2,0.4,0.4,0.5,0.1c0.2-0.5,0.3-1.1,0.4-1.6c0.1-0.6,0.3-1.1,0.4-1.7
				c0.3-1.1,0.7-2.1,1.1-3.2c0.9-2.1,2-4.1,3.3-6c0.8-1,1.6-2.1,2.4-3C77.7,26.8,77.5,26.6,77.3,26.8L77.3,26.8z"/>
		</g>
		<g>
			<path class="st24" d="M87.6,77.2c5,1.7,10.4,2.4,15.7,1.8c1.5-0.2,2.9-0.4,4.4-0.8c0.4-0.1,0.2-0.7-0.2-0.6
				c-5.1,1.1-10.4,1.2-15.5,0.1c-1.4-0.3-2.8-0.7-4.2-1.1C87.4,76.6,87.3,77.1,87.6,77.2L87.6,77.2z"/>
		</g>
		<g>
			<path class="st24" d="M74.4,20.5c0.5-0.1,0.9-0.4,1.4-0.6c0.5-0.2,0.9-0.4,1.4-0.5c0.9-0.3,1.9-0.6,2.9-0.9c2-0.5,4-0.8,6-0.9
				c1.1-0.1,2.3-0.1,3.4,0c0.3,0,0.3-0.5,0-0.5c-4.1-0.3-8.2,0.4-12.1,1.7c-0.5,0.2-1.1,0.4-1.6,0.6c-0.5,0.2-1.1,0.4-1.6,0.7
				C74.1,20.3,74.2,20.5,74.4,20.5L74.4,20.5z"/>
		</g>
		<g>
			<path class="st25" d="M61.2,38.1C61.2,38.1,61.2,38.1,61.2,38.1C61.2,38.1,61.2,38.1,61.2,38.1L61.2,38.1z"/>
		</g>
		<path class="st25" d="M57.7,39.8c0.1-0.3-0.3-0.4-0.4-0.2c-0.3,0.4-0.5,0.8-0.7,1.2c-0.2,0.4-0.3,0.8-0.4,1.2
			c-0.2,0.9-0.4,1.8-0.4,2.7c0,0.3,0.2,0.5,0.5,0.5c0.3,0,0.4-0.2,0.5-0.5c0.1-0.8,0.2-1.6,0.4-2.5c0.1-0.4,0.2-0.8,0.3-1.2
			C57.5,40.6,57.6,40.2,57.7,39.8z"/>
		<path class="st25" d="M58.2,43.7c0-0.1,0-0.1,0-0.2c0,0,0,0,0,0c0,0,0,0,0,0c0-0.1-0.1-0.3-0.2-0.3c-0.1,0-0.3,0-0.4,0.1
			c0,0-0.1,0.1,0,0c0,0.1-0.1,0.1-0.1,0.2c0,0.1,0,0.1-0.1,0.2c0,0,0,0,0,0c0-0.1,0-0.1,0,0c0,0,0,0,0,0.1c0,0.1,0,0.1,0,0.2
			c0,0.1-0.1,0.2-0.1,0.4c0,0.2-0.1,0.4,0,0.6c0.1,0.2,0.5,0.3,0.7,0.1c0.1-0.1,0.1-0.2,0.1-0.3c0-0.1,0-0.1,0-0.2
			c0-0.1,0-0.2,0-0.2c0-0.2,0-0.3,0-0.5c0,0,0,0.1,0,0.1C58.2,44,58.2,43.9,58.2,43.7C58.2,43.8,58.2,43.7,58.2,43.7z"/>
		<path class="st25" d="M69.1,79.1c-0.4-0.2-0.8-0.4-1.2-0.7c-0.2-0.1-0.4-0.2-0.6-0.4c-0.2-0.1-0.3-0.3-0.5-0.4
			c-0.1-0.1-0.4-0.1-0.5,0c-0.1,0.1-0.1,0.3,0,0.5c0.6,0.8,1.4,1.4,2.3,1.8c0.2,0.1,0.5,0.1,0.7-0.2C69.4,79.5,69.3,79.2,69.1,79.1z
			"/>
		<path class="st25" d="M61.2,70.3c0-0.1,0-0.1-0.1-0.2c-0.1-0.2-0.2-0.5-0.4-0.7c-0.3-0.5-0.6-0.9-1-1.3c-0.1-0.1-0.4-0.2-0.5-0.1
			c-0.2,0.1-0.3,0.2-0.3,0.4c0,0.9,0.5,1.6,1.1,2.2c0.1,0.1,0.2,0.2,0.3,0.4c0.1,0.1,0.1,0.1,0.2,0.1c0,0,0,0,0.1,0.1
			c0.2,0.1,0.4,0.2,0.6,0c0.2-0.1,0.3-0.4,0.1-0.6C61.4,70.5,61.3,70.4,61.2,70.3z"/>
		<path class="st25" d="M87.7,81.5c-0.8-0.4-1.7-0.6-2.5-0.8c-0.2,0-0.4,0.1-0.4,0.3c-0.1,0.2,0,0.4,0.1,0.5
			c0.2,0.2,0.5,0.4,0.8,0.5c0.2,0.1,0.3,0.1,0.5,0.1c0,0,0,0,0.1,0c0,0,0.1,0,0.1,0c0.4,0.1,0.8,0.1,1.2,0.1c0.2,0,0.4-0.1,0.4-0.3
			C88,81.9,87.9,81.6,87.7,81.5z"/>
		<path class="st26" d="M65.5,28.2c0,0,0-0.1,0-0.1c-0.1-0.1-0.3-0.2-0.4-0.1c-0.1,0.1-0.2,0.1-0.2,0.2c0,0,0,0-0.1,0c0,0,0,0,0,0
			c-0.1,0-0.2,0.1-0.2,0.2c0,0,0,0,0,0c0,0-0.1,0.1-0.1,0.1c-0.1,0.1-0.1,0.1-0.2,0.2c-0.3,0.3-0.5,0.7-0.7,1.1
			c-0.1,0.2-0.1,0.4,0.1,0.5c0.2,0.1,0.4,0.1,0.5,0c0.6-0.5,1.1-1,1.5-1.7C65.6,28.5,65.6,28.3,65.5,28.2
			C65.5,28.2,65.5,28.2,65.5,28.2z"/>
		<path class="st25" d="M60.1,50.6C60.1,50.6,60.1,50.6,60.1,50.6C60.2,50.6,60.2,50.6,60.1,50.6z"/>
		<path class="st25" d="M59.8,52.9c0.2,0,0.3-0.1,0.4-0.3c0.1-0.3,0.2-0.6,0.2-1c0-0.1,0-0.3,0-0.4c0-0.1,0-0.2,0-0.3
			c0-0.1-0.1-0.2-0.1-0.2c0,0-0.1-0.1-0.2-0.1c0,0,0,0,0,0c-0.1,0-0.1,0-0.2,0c-0.1,0-0.1,0,0,0c0,0-0.1,0-0.1,0.1
			c-0.1,0-0.2,0.1-0.2,0.2c-0.2,0.5-0.3,1.1-0.2,1.7C59.4,52.8,59.6,52.9,59.8,52.9z"/>
		<path class="st25" d="M60.2,53.9C60.2,53.9,60.2,53.9,60.2,53.9c-0.1,0.6-0.2,1.1-0.1,1.7c0,0.2,0.2,0.3,0.4,0.3
			c0.1,0,0.1,0,0.2-0.1c0.1,0,0.2-0.1,0.2-0.2c0-0.3,0.1-0.6,0.1-0.9c0-0.3,0-0.5,0-0.8c0-0.1,0-0.2-0.1-0.3
			c-0.1-0.1-0.2-0.1-0.3-0.1C60.4,53.5,60.2,53.7,60.2,53.9z"/>
	</g>
	<g>
		<path class="st24" d="M42.4,32.2c0-2.6-0.7-3.5-1.2-3.5c-0.8,0.4-1.2,4.7-1.1,7.8c0.1,2.8,0.9,3.8,1.4,2.2c0.3-1,0.6-2.6,0.7-4.3
			C42.2,33.9,42.3,33.1,42.4,32.2"/>
		<path class="st24" d="M42.9,35.4c2.6,0,3.5-0.7,3.5-1.2c-0.4-0.8-4.7-1.2-7.8-1.1c-2.8,0.1-3.8,0.9-2.2,1.4c1,0.3,2.6,0.6,4.3,0.7
			C41.2,35.3,41.9,35.4,42.9,35.4"/>
		<path class="st24" d="M43.5,34.1c2.1-1.5,2.5-2.6,2.3-3c-0.7-0.4-4.5,1.6-7.1,3.5c-2.3,1.7-2.7,2.9-1.1,2.4c1-0.3,2.5-1,3.9-1.9
			C42,34.9,42.7,34.6,43.5,34.1"/>
		<path class="st24" d="M41.6,36.4c1.9,1.7,3,1.9,3.4,1.5c0.2-0.8-2.6-4.1-5-6.1c-2.2-1.9-3.4-2-2.6-0.5c0.5,0.9,1.5,2.2,2.7,3.4
			C40.5,35.1,40.9,35.7,41.6,36.4"/>
	</g>
	<g>
		<path class="st24" d="M19.4,64.6c0-3.4-0.9-4.6-1.6-4.6c-1,0.5-1.5,6.1-1.4,10.2c0.2,3.7,1.1,5,1.8,2.9c0.4-1.3,0.7-3.4,0.9-5.6
			C19.3,66.8,19.4,65.8,19.4,64.6"/>
		<path class="st24" d="M20.1,68.8c3.4,0,4.6-0.9,4.6-1.6c-0.5-1-6.1-1.5-10.2-1.4c-3.7,0.2-5,1.1-2.9,1.8c1.3,0.4,3.4,0.7,5.6,0.9
			C17.9,68.6,18.9,68.8,20.1,68.8"/>
		<path class="st24" d="M20.9,67c2.8-1.9,3.2-3.3,2.9-3.9c-1-0.6-5.9,2.1-9.2,4.5c-3,2.2-3.5,3.7-1.4,3.1c1.3-0.4,3.2-1.3,5.1-2.4
			C19,68.1,19.8,67.7,20.9,67"/>
		<path class="st24" d="M18.4,70c2.5,2.3,4,2.4,4.4,2c0.3-1.1-3.4-5.3-6.5-8c-2.8-2.4-4.4-2.6-3.3-0.7c0.7,1.2,2,2.8,3.5,4.5
			C16.9,68.4,17.5,69.2,18.4,70"/>
	</g>
	<g>
		<path class="st14" d="M107.2,30.6c0-3.2-0.9-4.4-1.5-4.4c-1,0.5-1.5,5.9-1.3,9.8c0.2,3.6,1.1,4.8,1.7,2.8c0.4-1.3,0.7-3.3,0.8-5.4
			C107,32.7,107.2,31.8,107.2,30.6"/>
		<path class="st14" d="M107.8,34.7c3.2,0,4.4-0.9,4.4-1.5c-0.5-1-5.9-1.5-9.8-1.3c-3.6,0.2-4.8,1.1-2.8,1.7
			c1.3,0.4,3.3,0.7,5.4,0.8C105.7,34.5,106.6,34.6,107.8,34.7"/>
		<path class="st14" d="M108.6,33c2.7-1.8,3.1-3.2,2.8-3.7c-0.9-0.5-5.7,2.1-8.9,4.4c-2.9,2.1-3.4,3.6-1.4,3
			c1.3-0.4,3.1-1.3,4.9-2.3C106.8,34,107.6,33.6,108.6,33"/>
		<path class="st14" d="M106.2,35.9c2.4,2.2,3.8,2.3,4.3,1.9c0.3-1-3.3-5.1-6.2-7.7c-2.7-2.3-4.2-2.5-3.2-0.7
			c0.7,1.2,1.9,2.7,3.4,4.3C104.8,34.3,105.4,35,106.2,35.9"/>
	</g>
	<g>
		<path class="st24" d="M39.4,73c0-1.4-0.4-1.9-0.7-2c-0.4,0.2-0.7,2.6-0.6,4.3c0.1,1.6,0.5,2.1,0.8,1.2c0.2-0.6,0.3-1.4,0.4-2.4
			C39.3,73.9,39.3,73.5,39.4,73"/>
		<path class="st24" d="M39.6,74.7c1.4,0,1.9-0.4,2-0.7c-0.2-0.4-2.6-0.7-4.3-0.6c-1.6,0.1-2.1,0.5-1.2,0.8c0.6,0.2,1.4,0.3,2.4,0.4
			C38.7,74.7,39.1,74.7,39.6,74.7"/>
		<path class="st24" d="M40,74c1.2-0.8,1.4-1.4,1.2-1.6c-0.4-0.2-2.5,0.9-3.9,1.9c-1.3,0.9-1.5,1.6-0.6,1.3c0.6-0.2,1.4-0.6,2.2-1
			C39.2,74.5,39.5,74.3,40,74"/>
		<path class="st24" d="M38.9,75.3c1,1,1.7,1,1.9,0.9c0.1-0.5-1.4-2.2-2.7-3.4c-1.2-1-1.9-1.1-1.4-0.3c0.3,0.5,0.8,1.2,1.5,1.9
			C38.3,74.6,38.6,74.9,38.9,75.3"/>
	</g>
	<g>
		<path class="st24" d="M86.3,52.4c0-1.4-0.4-1.9-0.7-2c-0.4,0.2-0.7,2.6-0.6,4.3c0.1,1.6,0.5,2.1,0.8,1.2c0.2-0.6,0.3-1.4,0.4-2.4
			C86.2,53.3,86.3,52.9,86.3,52.4"/>
		<path class="st24" d="M86.6,54.2c1.4,0,1.9-0.4,2-0.7c-0.2-0.4-2.6-0.7-4.3-0.6c-1.6,0.1-2.1,0.5-1.2,0.8c0.6,0.2,1.4,0.3,2.4,0.4
			C85.6,54.1,86,54.2,86.6,54.2"/>
		<path class="st24" d="M86.9,53.5c1.2-0.8,1.4-1.4,1.2-1.6c-0.4-0.2-2.5,0.9-3.9,1.9c-1.3,0.9-1.5,1.6-0.6,1.3
			c0.6-0.2,1.4-0.6,2.2-1C86.1,53.9,86.4,53.7,86.9,53.5"/>
		<path class="st24" d="M85.8,54.7c1,1,1.7,1,1.9,0.9c0.1-0.5-1.4-2.2-2.7-3.4c-1.2-1-1.9-1.1-1.4-0.3c0.3,0.5,0.8,1.2,1.5,1.9
			C85.2,54,85.5,54.4,85.8,54.7"/>
	</g>
	<g>
		<path class="st14" d="M14.8,8.6c0-4.2-1.2-5.7-2-5.8c-1.3,0.6-1.9,7.6-1.7,12.7c0.2,4.6,1.4,6.2,2.2,3.6c0.5-1.7,0.9-4.2,1.1-7
			C14.6,11.4,14.8,10.2,14.8,8.6"/>
		<path class="st14" d="M15.7,13.9c4.2,0,5.7-1.2,5.8-2c-0.6-1.3-7.6-1.9-12.7-1.7c-4.6,0.2-6.2,1.4-3.6,2.2c1.7,0.5,4.2,0.9,7,1.1
			C12.9,13.7,14.1,13.9,15.7,13.9"/>
		<path class="st14" d="M16.6,11.7c3.5-2.4,4.1-4.2,3.7-4.9c-1.2-0.7-7.4,2.7-11.5,5.7c-3.7,2.8-4.4,4.7-1.8,3.9
			c1.7-0.5,4-1.6,6.4-3C14.3,13.1,15.3,12.6,16.6,11.7"/>
		<path class="st14" d="M13.6,15.5c3.1,2.8,5,3.1,5.5,2.5c0.4-1.3-4.3-6.6-8.1-10C7.5,5,5.5,4.8,6.9,7.1c0.9,1.5,2.5,3.6,4.4,5.6
			C11.7,13.5,12.5,14.4,13.6,15.5"/>
	</g>
	<g>
		<path class="st24" d="M125.4,60.2c0-2.6-0.7-3.5-1.2-3.5c-0.8,0.4-1.2,4.7-1.1,7.8c0.1,2.8,0.9,3.8,1.4,2.2c0.3-1,0.6-2.6,0.7-4.3
			C125.3,61.8,125.4,61.1,125.4,60.2"/>
		<path class="st24" d="M125.9,63.4c2.6,0,3.5-0.7,3.5-1.2c-0.4-0.8-4.7-1.2-7.8-1.1c-2.8,0.1-3.8,0.9-2.2,1.4
			c1,0.3,2.6,0.6,4.3,0.7C124.2,63.3,124.9,63.4,125.9,63.4"/>
		<path class="st24" d="M126.5,62c2.1-1.5,2.5-2.6,2.3-3c-0.7-0.4-4.5,1.6-7.1,3.5c-2.3,1.7-2.7,2.9-1.1,2.4c1-0.3,2.5-1,3.9-1.9
			C125,62.9,125.7,62.6,126.5,62"/>
		<path class="st24" d="M124.6,64.3c1.9,1.7,3,1.9,3.4,1.5c0.2-0.8-2.6-4.1-5-6.1c-2.2-1.9-3.4-2-2.6-0.5c0.5,0.9,1.5,2.2,2.7,3.4
			C123.5,63.1,123.9,63.7,124.6,64.3"/>
	</g>
</g>
</svg>
