<?xml version="1.0" encoding="utf-8"?>
<svg version="1.1" xmlns="http://www.w3.org/2000/svg" xmlns:xlink="http://www.w3.org/1999/xlink" x="0px" y="0px" viewBox="0 0 64.6 61.9" style="enable-background:new 0 0 64.6 61.9;" xml:space="preserve"><style type="text/css">.st0{fill:#FFFFFF;}.st1{fill:#8CA2CF;}.st2{clip-path:url(#SVGID_00000048502846492466003500000006279058777266250897_);}.st3{fill:#627EB5;}.st4{fill:#8CA05C;}.st5{fill:#677724;}.st6{fill:#E0A955;}.st7{fill:#BBD7FF;}.st8{fill:#3C5987;}.st9{clip-path:url(#SVGID_00000121266951726031631660000015083434184536899735_);}.st10{fill:#669CD3;}.st11{clip-path:url(#SVGID_00000037656582053194548490000007756104219294790550_);}.st12{fill:#92C4FC;}.st13{fill:#FAF4D2;}.st14{fill:#FCCB7C;}.st15{clip-path:url(#SVGID_00000166635661408812536220000004691582633359389609_);}.st16{clip-path:url(#SVGID_00000095337009834463258580000010032154143450975638_);}.st17{fill:#C5CAF0;}.st18{clip-path:url(#SVGID_00000119106107285265490140000003611409598974981792_);}.st19{clip-path:url(#SVGID_00000012467916801204273990000001148217498747248050_);}.st20{clip-path:url(#SVGID_00000043425155964204309340000012417304530916384664_);}.st21{clip-path:url(#SVGID_00000182525000333926192860000015493396241983542144_);}.st22{fill:#F9CC3D;}.st23{fill:#FFEAAE;}.st24{fill:#FFECB8;}.st25{fill:#D3AA37;}.st26{fill:#FFE08A;}.st27{clip-path:url(#SVGID_00000000908751722979337040000017653526321942867860_);}.st28{clip-path:url(#SVGID_00000065756317293500911980000012131615868214180007_);}.st29{clip-path:url(#SVGID_00000172432116004177426830000004098890495558365363_);}.st30{clip-path:url(#SVGID_00000006674426440063934190000007844822660614379145_);}.st31{clip-path:url(#SVGID_00000101100510730704498040000014365816603100206244_);}.st32{clip-path:url(#SVGID_00000143589382526935380920000005335116345258143668_);}.st33{clip-path:url(#SVGID_00000077325607327361134590000001925301544213776283_);}.st34{clip-path:url(#SVGID_00000107554868275207719030000010432883800967988142_);}.st35{clip-path:url(#SVGID_00000137855045511865272910000014176948789739521958_);}</style><g ></g><g ><g><g><path class="st8" d="M64.4,29.5c-0.1-1.3-0.5-2.4-0.8-3.7c-0.3-1-0.4-2-0.7-3c-0.5-2-1.2-3.9-2.1-5.7c-0.7-1.8-1.7-3.3-2.9-4.7c-1.4-1.7-3-3.3-4.8-4.6c-1-0.7-2.2-1.3-3.3-2C40.3-0.1,27.4-4,16.4,7.5C15,9,13.5,10.4,12,11.9c-1.1,1.3-2.3,2.5-3.3,3.9c-1,1.8-1.9,3.6-3,5.3c-0.5,1-1.1,1.9-1.6,2.9c-0.6,1.3-0.9,2.7-1.4,4c-0.6,1.8-1,3.7-1.4,5.5c-0.4,1.8-0.8,3.7-0.9,5.5C0,42.3,0,45.5,0.2,48.7c0,1.2,0,2.3,0.2,3.4c0.1,1,0.1,1.6,0.9,3.2c0.9,1.6,2.3,2.9,3.8,4C6.1,60,6,59.9,6.3,60c0.9,0.5,1.9,0.8,2.8,1.1c1,0.3,1.9,0.7,3,0.8c1.6,0,3.2-0.4,4.8-0.7c2.5-0.6,4.8-1.6,7.2-2.3c1.5-0.3,2.4-0.3,4.7-0.4c1.5-0.1,4,0.2,4.2,0.3c3.7,0.8,5.3,1.3,8.9,1.5c2.5,0.2,5.2,0,7.6-0.8c1.9-0.7,3.7-1.8,5.4-3.1c1.7-1.5,3-3.3,4.1-5.3c1.4-2.4,2.5-4.9,3.4-7.6c0.7-2.1,1.5-4.2,1.6-6.5c0.2-1.5,0.5-3,0.6-4.6C64.7,31.5,64.5,30.5,64.4,29.5"/><g><defs><path id="_2" d="M64.4,29.5c-0.1-1.3-0.5-2.4-0.8-3.7c-0.3-1-0.4-2-0.7-3c-0.5-2-1.2-3.9-2.1-5.7c-0.7-1.8-1.7-3.3-2.9-4.7c-1.4-1.7-3-3.3-4.8-4.6c-1-0.7-2.2-1.3-3.3-2C40.3-0.1,27.4-4,16.4,7.5C15,9,13.5,10.4,12,11.9c-1.1,1.3-2.3,2.5-3.3,3.9c-1,1.8-1.9,3.6-3,5.3c-0.5,1-1.1,1.9-1.6,2.9c-0.6,1.3-0.9,2.7-1.4,4c-0.6,1.8-1,3.7-1.4,5.5c-0.4,1.8-0.8,3.7-0.9,5.5C0,42.3,0,45.5,0.2,48.7c0,1.2,0,2.3,0.2,3.4c0.1,1,0.1,1.6,0.9,3.2c0.9,1.6,2.3,2.9,3.8,4C6.1,60,6,59.9,6.3,60c0.9,0.5,1.9,0.8,2.8,1.1c1,0.3,1.9,0.7,3,0.8c1.6,0,3.2-0.4,4.8-0.7c2.5-0.6,4.8-1.6,7.2-2.3c1.5-0.3,2.4-0.3,4.7-0.4c1.5-0.1,4,0.2,4.2,0.3c3.7,0.8,5.3,1.3,8.9,1.5c2.5,0.2,5.2,0,7.6-0.8c1.9-0.7,3.7-1.8,5.4-3.1c1.7-1.5,3-3.3,4.1-5.3c1.4-2.4,2.5-4.9,3.4-7.6c0.7-2.1,1.5-4.2,1.6-6.5c0.2-1.5,0.5-3,0.6-4.6C64.7,31.5,64.5,30.5,64.4,29.5"/></defs><clipPath id="_3"><use xlink:href="#_2" style="overflow:visible;"/></clipPath><g style="clip-path:url(#_3);"><g><g><path class="st4" d="M16.1,56.9c-0.3-1.5-1-3.3-1.6-5.1c-0.4-1.2-1-2.4-1.7-3.6c-0.6-1-1.3-2.1-2.5-2.7c-1-0.3-2.2-0.1-3,0.5C5.5,47.7,5.3,50,5,52c-0.2,1.6,0.3,3.2,0.3,4.7c0.2,1.8,0.3,3.7,0.9,5.5c0,0,0.1,0,0.1,0.1c0.1,0.3,0.7,0.3,0.9-0.1c0,0,0.1-0.1,0.1-0.2c0,0,0,0,0,0c0,0,0.1-0.1,0.1-0.1c0.2-0.1,0.6-0.3,0.9-0.4c0.2-0.1,0.4-0.1,0.9-0.1c0.1,0,0.3-0.1,0.4-0.1c0.5-0.1,1.4-0.4,1.5-0.4c1.2,0,2.3-0.2,3.5-0.2c0.6,0,1.2,0.1,1.8,0c0,0,0,0,0,0c0.2,0,0.3-0.1,0.4-0.2C17,59.3,16.2,57.8,16.1,56.9 M44.4,57.9c-0.2-0.8-0.5-2-0.6-2.6c-0.1-1.1-0.2-2.2-0.5-3.3c-0.5-1.3-1-2.5-1.6-3.8c-0.5-0.8-1.2-1.4-2-2c-0.8-0.6-1.8-1-2.9-0.9c-1.2,0.1-2.2,0.6-3.1,1.3c-1.7,1.2-2.5,3.1-3,4.8c-0.7,2.1-1.3,4.2-1.9,6.4c0,0.3-0.3,0.6-0.2,0.9c-0.1,0.1-0.2,0.1-0.2,0.2c-0.1,0.3,0.2,0.6,0.5,0.5c0.1,0,0.2-0.1,0.2-0.1c0,0,0.1,0,0.1,0c0.8-0.2,2.2-0.1,3.3,0c1.5,0.1,3,0,4.5,0c2.2,0.1,4.4,0.1,6.6-0.1c0.3,0,0.7-0.2,0.8-0.5C44.6,58.4,44.5,58.1,44.4,57.9"/><path class="st5" d="M29,58.2c-0.4-3.6-1-6.7-1.9-10.2c-0.5-1.7-1.2-3.4-2.2-5c-0.4-0.7-1-1.3-1.8-1.6c-1.1-0.4-2.5-0.2-3.5,0.3c-1.2,0.8-1.6,2-2,3.2c-1.3,4-1.2,8-1.1,12.3c0.1,1,0.1,2,0.2,2.9c-0.2,0.2-0.1,0.5,0.2,0.6c0.1,0.1,0.4-0.1,0.6-0.2c0.5-0.2,0.6-0.1,1.3-0.4c0.2,0,2.1-0.4,2.2-0.4c1.2-0.2,1.7-0.4,2.9-0.5c1.4,0.1,3.1,0,4.1,0.1C29.2,59.6,29.2,59.2,29,58.2"/><path class="st6" d="M12.6,60.8c-0.1-0.6-0.3-1.1-0.4-1.6c-0.4-1.6-0.9-3.5-1.4-5.3c-0.3-1-0.7-2.1-0.8-2.9c-0.1-0.3-0.3-0.9-0.3-1c0-0.1,0-0.4-0.4-0.4C9,49.7,9,49.9,9,50c0,0.5,0.1,0.6,0.2,1c0.1,0.6,0.1,1.2,0.2,1.8c0.2,1.1,0.5,2.3,0.7,3.3c0.2,1.7,0.4,3.4,0.6,5.1c0,0.1,0,0.2,0.1,0.3c0.1,0.1,0.2,0.1,0.3,0c0.1,0,0.1,0,0.2,0c0,0,0.1,0,0.1,0c0,0,0,0,0.1,0c0.1,0,0.5-0.1,0.4-0.1c0.1-0.1,0.6,0.1,0.8-0.2C12.7,61.2,12.5,60.6,12.6,60.8"/><path class="st6" d="M23,58.4c-0.2-2-0.2-4.1-0.4-6.1c-0.2-1.4-0.5-2.8-0.7-4.2c0-0.4-0.1-0.8-0.1-1c0-0.2,0-0.4-0.1-0.5c-0.2-0.1-0.4,0-0.4,0.2c-0.2,2.9,0,6.1,0,9.2c0,1.2,0.1,2.3,0.2,3.5c0.1,0.1,0.2,0.1,0.3,0.1c0.3,0.2,0.3,0,0.7,0.1C23.4,59.8,23.1,59.4,23,58.4"/><path class="st6" d="M36.8,49.6c0-0.1,0-0.2,0-0.4c0,0,0,0,0,0h0c0-0.1-0.1-0.2-0.3-0.2c-0.3,0-0.3,0.2-0.3,0.4c0,0,0,0.1,0,0.1c0,0.1,0,0.1,0,0.2c-0.2,2.1-0.8,4.9-1.2,7.2c-0.1,0.8-0.4,1.6-0.3,2.3c0,0,0.1,0.1,0.1,0.1c0.1,0.1,0.1,0.1,0.3,0.2c0.1,0,0.2,0,0.3,0c0.4,0,0.8,0.1,1.2,0c0,0,0.6,0.1,0.6-0.2c0-1.2,0-2.2,0.1-3.2C37.3,53.9,37,51.8,36.8,49.6"/></g><g><path class="st5" d="M67.9,56.6c-0.8,0.4-1.9,0.7-3.1,1c-2.2,0.7-4.7,0.5-7.2,0.5c-4.4,0.2-8.6-1.2-13-1.9c-4.6-1-8.8-1.2-13.4-1.1c-1.6,0.1-3.3,0.2-4.9,0.5c-0.7,0.1-1.4,0.1-2.1,0.3c-0.8,0.2-1.5,0.3-2.3,0.5c-1,0.3-2,0.7-3.1,1c-1.4,0.3-3.6,0.4-5.4,0.5c-0.9,0.1-1.4,0.3-2.4,0.4c-1.7,0-3.8-0.3-5.7-0.8c-0.9-0.3-1.5-0.5-2.5-0.8c-0.1,0-0.2-0.1-0.3,0c-0.1,0-0.1,0-0.1,0.1c-0.2,0.1-0.3,0.3-0.3,0.5c0,0,0,0.1,0.1,0.1c0,0,0,0,0,0c0.2,0.5,0.3,0.8,0.5,1.1c1,1.7,2.7,2.8,4.4,3.9c1.5,0.9,3.1,1.5,4.7,2.1c0.9,0.4,1.7,0.9,2.6,1.2c1.4,0.3,3,0.3,4.4,0.3c1.4,0,2.7-0.3,4.1-0.6c1.8-0.3,3.6-0.9,5.4-1.3c1-0.4,2-0.8,3.1-1c1.8-0.4,3.3-0.8,5-0.9c1.9-0.2,3.8,0,5.8,0c2.5,0,4.7,0.3,7.3,0.6c3,0.4,6.1,0.6,9.1,0.7c1.7,0,3.4-0.6,4.8-1.5c1.2-0.6,2.4-1.4,3.2-2.4C67.1,58.9,69.2,56.7,67.9,56.6"/><g><path class="st4" d="M64.9,58.8c-0.2,0-0.4,0.1-0.5,0.1c-0.6,0.2-1.1,0.3-1.7,0.4c-1.4,0.4-2.6,0.5-4.2,0.7c-4.1,0.2-8.1,0.3-12-0.7c-2.3-0.6-4.1-1.3-6.4-2c-1.8-0.5-3.6-0.8-5.5-0.9c-1.8-0.1-3.7,0.2-5.5,0.2c-2.1,0.3-4,0.7-6.1,1.4c-1,0.2-1.9,0.5-2.8,1c-1,0.3-1.9,0.6-2.9,0.9c-1.1,0.3-2.2,0.4-3.3,0.5c-0.9,0.1-1.8,0.2-2.7,0.1c-0.9,0-1.7,0-2.6-0.3c-1.1-0.4-2.3-0.9-3.2-1.5c-0.2-0.2-0.6,0.1-0.3,0.3c1.5,1,3.3,1.8,5.1,1.9c1.4,0,2.7,0,4.1-0.2c1.1-0.1,2.1-0.2,3.2-0.5c1.6-0.3,3-1,4.5-1.5c1.4-0.4,2.9-0.9,4.1-1.1c1.3-0.3,2.3-0.5,3.6-0.6c1.7,0,4-0.3,5.4-0.1c3.7,0.3,6.8,1.6,10.1,2.6c3.3,1.1,6.2,1.2,9.7,1.3c2.8-0.1,5.6-0.2,8.2-0.9c0.6-0.1,1.1-0.3,1.6-0.4c0.1,0,0.3-0.1,0.4-0.2C65.3,59.1,65.2,58.9,64.9,58.8"/><path class="st4" d="M38.8,59.1c-0.2-0.1-0.2-0.1-0.4-0.1c-1.6-0.3-2.9-0.3-4.6-0.2c-1.3,0-2.6-0.1-3.8,0.2c-1.5,0.3-3,0.6-4.5,1c-1.6,0.7-3.3,1.2-4.9,1.8c-1.7,0.5-3.3,0.6-5.1,0.9c-0.4,0.1-0.8,0-1.2,0.2c-0.2,0.2,0,0.4,0.2,0.4c2.1-0.2,4.3-0.4,6.3-1c1.2-0.4,2.4-0.8,3.6-1.2c0.9-0.4,1.8-0.7,2.8-0.9c2.2-0.6,4.2-1,6.5-0.8c1.8-0.1,2.9-0.1,4.6,0.2c0.2,0,0.3,0.1,0.5,0C38.9,59.5,39,59.2,38.8,59.1"/><path class="st4" d="M32.3,60.9c-1.1,0-2.3,0.3-3.4,0.4c-1.2,0.2-2.4,0.5-3.6,0.9c-1.8,0.6-3.7,1.1-5.4,1.9c-0.4,0.2-1.1,0.4-1.3,0.7c-0.1,0.2,0.2,0.4,0.4,0.3c3.5-1.8,8.1-3.1,12.1-3.5c0.4-0.1,0.9,0,1.2-0.2C32.5,61.2,32.4,61,32.3,60.9"/><path class="st4" d="M61.4,61.5c-0.2-0.1-0.4,0-0.6,0.1c0,0,0,0,0,0c-0.9,0.1-1.7,0.2-2.6,0.2c-1.1,0-2.2,0.2-3.4,0.1c-1.8-0.2-4.2-0.4-6.3-0.8c-2-0.3-4-0.7-6.1-0.7c-0.1,0-0.3,0-0.4,0.1c-0.2,0.2,0,0.4,0.2,0.4c3.4,0,7,1.1,10.6,1.3c0.7,0,1.7,0.2,2.6,0.2c0.9,0,1.8-0.1,2.7-0.1c0.7,0,1.4-0.1,2.1-0.1c0.4,0,0.8,0,1.2-0.2C61.6,62,61.6,61.6,61.4,61.5"/></g></g></g></g></g></g><g><g><path class="st14" d="M44.5,8.3c-0.2,0-0.4,0.1-0.6,0.1c-1.6,0.4-3.2,1.1-4.6,2c-1.2,0.8-2.2,1.7-3.1,2.8c-1.3,1.6-2.4,3.4-3,5.4c-1,3.4-0.8,6.7,0.5,9.9c0.6,1.5,1.5,2.9,2.6,4.1c2.2,2.4,4.9,3.9,8.1,4.5c2.9,0.5,5.7,0.2,8.4-0.9c0.8-0.3,1.6-0.7,2.3-1.2c0,0,0.1,0,0.1,0c-0.2,0.7-2.9,3.1-4.7,4.1c-1.8,1.1-3.8,1.8-5.9,2.1c-2.1,0.3-4.2,0.2-6.3-0.3C29,38.7,23.7,29.4,26,20.5C28.3,11.7,36.9,7.1,44.5,8.3z"/><path class="st22" d="M35.4,41.1c-0.1,0-0.2-0.1-0.2-0.1c-0.6-0.2-1.1-0.5-1.6-0.9c-2.8-1.8-5-4.3-6.6-7.3c-0.1-0.1-0.1-0.3-0.2-0.4c0,0,0-0.1,0-0.1c0.1,0,0.1,0,0.1,0c0.1,0.1,0.1,0.2,0.2,0.3c0.8,1.4,1.6,2.7,2.6,3.8c1.4,1.6,3.1,2.9,4.9,4c0.3,0.2,0.6,0.3,0.9,0.4c0.1,0,0.1,0.1,0.1,0.2C35.5,41.2,35.4,41.1,35.4,41.1z"/><path class="st22" d="M26.8,35.5c0.1,0,0.2,0.1,0.3,0.2c1.1,1.3,2.3,2.4,3.6,3.4c0.3,0.2,0.6,0.4,0.8,0.6c0.1,0.1,0.3,0.2,0.2,0.3c-0.1,0.2-0.3,0.1-0.4,0c-0.8-0.5-1.5-1.1-2.2-1.7c-0.8-0.7-1.6-1.5-2.2-2.4c-0.1-0.1-0.1-0.2-0.2-0.2C26.7,35.6,26.7,35.5,26.8,35.5z"/><path class="st22" d="M25.6,20c0.1,0.1,0,0.2,0,0.2c-0.6,1.1-0.8,2.2-0.8,3.4c0,0.5-0.1,1.1,0.1,1.6c0,0.1,0,0.2,0,0.3c0,0.1,0,0.1-0.1,0.1c-0.1,0-0.2-0.1-0.2-0.1c0-0.1-0.1-0.2-0.1-0.3c0-1.6,0.1-3.2,0.8-4.8C25.4,20.2,25.4,20.2,25.6,20z"/><path class="st22" d="M34.5,41.5c-0.4-0.1-0.7-0.2-1.1-0.5c0,0-0.1-0.1-0.1-0.1c0-0.1,0.1-0.1,0.1,0c0.1,0,0.1,0,0.2,0.1c0.3,0.2,0.5,0.3,0.8,0.3c0.1,0,0.2,0.1,0.1,0.2C34.7,41.5,34.6,41.5,34.5,41.5z"/><path class="st22" d="M26.4,18.4c-0.1,0.3-0.3,0.6-0.4,0.9c0,0,0,0-0.1,0c0,0-0.1,0,0-0.1C26,19,26.1,18.7,26.4,18.4C26.3,18.4,26.3,18.4,26.4,18.4z"/></g><g><path class="st6" d="M40.3,8.8c-1.8,0.8-3.6,1.7-5.4,2.6c-0.8,0.4-1.6,0.8-2.3,1.3c-0.6,0.5-1.1,1-1.4,1.7c-0.7,1.3-1,2.8-1.5,4.3c-0.3,0.8-0.7,1.6-1.1,2.3c-0.4,0.8-0.7,1.7-0.9,2.6c-0.6,3.2-0.4,6.8,1.6,9.5c1,1.4,2.4,2.5,3.8,3.6c1.3,1.1,2.7,2,4.3,2.7c0.8,0.3,1.6,0.6,2.5,0.7c0.9,0.1,1.9,0.1,2.8-0.1c1-0.2,1.9-0.4,2.8-0.6c1-0.2,1.9-0.5,2.9-0.7c0.5-0.1,1-0.2,1.4-0.4c0.1,0,0.1-0.3-0.1-0.2c-1.9,0.5-3.8,0.9-5.7,1.3c-0.9,0.2-1.8,0.4-2.8,0.4c-0.9,0-1.8-0.1-2.7-0.3c-1.6-0.5-3.1-1.3-4.4-2.3c-0.7-0.5-1.3-1-2-1.6c-0.7-0.5-1.3-1.1-1.9-1.7c-1.1-1.2-1.9-2.7-2.3-4.3c-0.4-1.6-0.4-3.2-0.3-4.8c0.1-0.9,0.3-1.8,0.6-2.6c0.3-0.8,0.8-1.6,1.2-2.4c0.6-1.4,0.9-2.9,1.4-4.3c0.3-0.7,0.6-1.3,1.1-1.9c0.5-0.6,1.2-1.1,2-1.5c0.8-0.4,1.7-0.8,2.5-1.3c0.9-0.4,1.7-0.9,2.6-1.3c0.4-0.2,0.8-0.4,1.3-0.6C40.5,8.9,40.4,8.8,40.3,8.8L40.3,8.8z"/></g><g><path class="st6" d="M31.2,27.1c-0.1,0.2-0.1,0.5-0.1,0.7c0,0.2,0.1,0.4,0.2,0.5c0.3,0.3,0.6-0.1,0.7-0.3c0.1-0.2,0.1-0.4,0.1-0.7c0-0.2,0-0.5,0-0.7c0-0.4-0.1-0.9-0.3-1.3c-0.2-0.3-0.4-0.6-0.8-0.5c-0.4,0.1-0.5,0.4-0.6,0.7c-0.2,0.8-0.3,1.7-0.2,2.6c0.1,0.9,0.4,1.7,0.9,2.4c0.5,0.8,1.1,1.5,1.8,2.1c0.8,0.7,1.5,1.4,2.3,2c0.4,0.3,0.8,0.7,1.2,1c0.3,0.3,0.7,0.6,1.1,0.8c0.4,0.2,0.8,0.3,1.2,0.3c0.2,0,0.5,0,0.7,0c0.2,0,0.4,0.2,0.6,0.3c0.3,0.3,0.7,0.5,1.1,0.7c0.4,0.2,0.8,0.3,1.3,0.3c0.2,0,0.4,0,0.7,0c0.2,0,0.2-0.3,0-0.3c-0.8,0.1-1.6-0.1-2.3-0.5c-0.3-0.2-0.6-0.5-0.9-0.7c-0.4-0.2-0.8-0.1-1.2-0.1c-0.8,0-1.4-0.6-2-1.1c-0.7-0.6-1.4-1.2-2.1-1.9c-1.3-1.1-2.6-2.2-3.4-3.7c-0.3-0.7-0.5-1.5-0.6-2.2c0-0.4,0-0.8,0-1.2c0-0.3,0.1-0.7,0.2-1.1c0.1-0.2,0.2-0.3,0.4-0.3c0.2,0,0.3,0.2,0.4,0.3c0.2,0.4,0.3,0.9,0.3,1.3c0,0.2,0,0.5,0,0.7c0,0.2,0,0.5-0.1,0.7c0,0.1-0.1,0.2-0.2,0.1c-0.1,0-0.1-0.2-0.2-0.2c-0.1-0.3,0-0.5,0-0.8C31.5,27,31.3,27,31.2,27.1L31.2,27.1z"/></g><g><polygon class="st23" points="34.1,29.3 34.1,29.3 34.1,29.3 "/></g><g><path class="st24" d="M36.6,12.7c-0.8,0.7-1.5,1.6-2,2.6c-0.6,0.9-1,2-1.3,3c-0.1,0.3-0.2,0.6-0.2,0.9c0,0.2-0.1,0.3-0.1,0.5c0,0.2-0.1,0.3-0.1,0.5c0,0.1,0.2,0.2,0.2,0.1c0.1-0.2,0.1-0.5,0.2-0.8c0.1-0.3,0.1-0.5,0.2-0.8c0.2-0.5,0.3-1,0.5-1.5c0.4-1,0.9-1.9,1.6-2.8c0.4-0.5,0.7-1,1.1-1.4C36.8,12.7,36.7,12.6,36.6,12.7L36.6,12.7z"/></g><g><path class="st24" d="M41.5,36.5c2.4,0.8,4.9,1.1,7.4,0.8c0.7-0.1,1.4-0.2,2.1-0.4c0.2,0,0.1-0.3-0.1-0.3c-2.4,0.5-4.9,0.6-7.3,0.1c-0.7-0.1-1.3-0.3-2-0.5C41.4,36.2,41.3,36.5,41.5,36.5L41.5,36.5z"/></g><g><path class="st24" d="M35.2,9.7c0.2-0.1,0.4-0.2,0.7-0.3c0.2-0.1,0.4-0.2,0.7-0.3C37,9,37.5,8.9,37.9,8.7c0.9-0.2,1.9-0.4,2.8-0.4c0.5,0,1.1,0,1.6,0c0.2,0,0.2-0.2,0-0.2c-1.9-0.1-3.9,0.2-5.7,0.8c-0.3,0.1-0.5,0.2-0.8,0.3c-0.2,0.1-0.5,0.2-0.7,0.3C35.1,9.6,35.1,9.7,35.2,9.7L35.2,9.7z"/></g><g><path class="st25" d="M29,18C29,18,29,18,29,18C29,18,29,18,29,18L29,18z"/></g><path class="st25" d="M27.3,18.8c0-0.1-0.1-0.2-0.2-0.1c-0.1,0.2-0.2,0.4-0.3,0.6c-0.1,0.2-0.1,0.4-0.2,0.6c-0.1,0.4-0.2,0.8-0.2,1.3c0,0.1,0.1,0.2,0.2,0.2c0.1,0,0.2-0.1,0.2-0.2c0-0.4,0.1-0.8,0.2-1.2c0-0.2,0.1-0.4,0.2-0.6C27.3,19.2,27.3,19,27.3,18.8z"/><path class="st25" d="M27.6,20.7C27.6,20.6,27.6,20.6,27.6,20.7C27.6,20.6,27.6,20.6,27.6,20.7C27.6,20.6,27.6,20.6,27.6,20.7c0-0.1,0-0.2-0.1-0.2c-0.1,0-0.1,0-0.2,0.1c0,0,0,0.1,0,0c0,0,0,0.1,0,0.1c0,0,0,0.1,0,0.1c0,0,0,0,0,0c0,0,0,0,0,0c0,0,0,0,0,0c0,0,0,0.1,0,0.1c0,0.1,0,0.1,0,0.2c0,0.1,0,0.2,0,0.3c0.1,0.1,0.2,0.1,0.3,0c0,0,0.1-0.1,0.1-0.1c0,0,0-0.1,0-0.1c0,0,0-0.1,0-0.1c0-0.1,0-0.1,0-0.2c0,0,0,0,0,0C27.6,20.8,27.6,20.8,27.6,20.7C27.6,20.7,27.6,20.7,27.6,20.7z"/><path class="st25" d="M32.7,37.4c-0.2-0.1-0.4-0.2-0.6-0.3C32.1,37,32,37,31.9,36.9c-0.1-0.1-0.2-0.1-0.2-0.2c-0.1-0.1-0.2-0.1-0.2,0c-0.1,0.1-0.1,0.2,0,0.2c0.3,0.4,0.7,0.6,1.1,0.8c0.1,0.1,0.3,0,0.3-0.1C32.9,37.6,32.8,37.5,32.7,37.4z"/><path class="st25" d="M29,33.3C29,33.2,29,33.2,29,33.3c-0.1-0.2-0.1-0.3-0.2-0.4c-0.1-0.2-0.3-0.4-0.5-0.6c-0.1-0.1-0.2-0.1-0.2,0c-0.1,0-0.1,0.1-0.1,0.2c0,0.4,0.2,0.8,0.5,1.1c0,0.1,0.1,0.1,0.1,0.2c0,0,0.1,0,0.1,0.1c0,0,0,0,0,0c0.1,0.1,0.2,0.1,0.3,0c0.1-0.1,0.1-0.2,0.1-0.3C29.1,33.4,29.1,33.3,29,33.3z"/><path class="st25" d="M41.6,38.6c-0.4-0.2-0.8-0.3-1.2-0.4c-0.1,0-0.2,0.1-0.2,0.1c0,0.1,0,0.2,0,0.2c0.1,0.1,0.2,0.2,0.4,0.3c0.1,0,0.1,0,0.2,0.1c0,0,0,0,0,0c0,0,0,0,0.1,0c0.2,0,0.4,0.1,0.6,0c0.1,0,0.2-0.1,0.2-0.2C41.7,38.7,41.6,38.6,41.6,38.6z"/><path class="st26" d="M31,13.3C31,13.3,31,13.3,31,13.3c-0.1-0.1-0.1-0.1-0.2-0.1c0,0-0.1,0.1-0.1,0.1c0,0,0,0,0,0c0,0,0,0,0,0c0,0-0.1,0-0.1,0.1c0,0,0,0,0,0c0,0,0,0-0.1,0.1c0,0-0.1,0.1-0.1,0.1c-0.1,0.2-0.2,0.3-0.3,0.5c0,0.1,0,0.2,0.1,0.3c0.1,0.1,0.2,0,0.3,0c0.3-0.2,0.5-0.5,0.7-0.8C31.1,13.5,31.1,13.4,31,13.3C31.1,13.3,31,13.3,31,13.3z"/><path class="st25" d="M28.5,23.9C28.5,23.9,28.5,23.9,28.5,23.9C28.5,24,28.5,24,28.5,23.9z"/><path class="st25" d="M28.3,25c0.1,0,0.1-0.1,0.2-0.1c0.1-0.1,0.1-0.3,0.1-0.5c0-0.1,0-0.1,0-0.2c0,0,0-0.1,0-0.1c0,0,0-0.1-0.1-0.1c0,0,0,0-0.1,0c0,0,0,0,0,0c0,0-0.1,0-0.1,0c0,0,0,0,0,0c0,0,0,0-0.1,0c0,0-0.1,0.1-0.1,0.1c-0.1,0.3-0.1,0.5-0.1,0.8C28.2,25,28.3,25,28.3,25z"/><path class="st25" d="M28.5,25.5C28.5,25.5,28.5,25.5,28.5,25.5c-0.1,0.3-0.1,0.5,0,0.8c0,0.1,0.1,0.1,0.2,0.1c0,0,0.1,0,0.1,0c0,0,0.1-0.1,0.1-0.1c0-0.1,0-0.3,0-0.4c0-0.1,0-0.3,0-0.4c0,0,0-0.1-0.1-0.1c0,0-0.1-0.1-0.1-0.1C28.6,25.3,28.5,25.4,28.5,25.5z"/></g><g><path class="st24" d="M20.1,15.2c0-1.2-0.3-1.7-0.6-1.7c-0.4,0.2-0.6,2.2-0.5,3.7c0.1,1.3,0.4,1.8,0.6,1.1c0.1-0.5,0.3-1.2,0.3-2C20,16,20.1,15.7,20.1,15.2"/><path class="st24" d="M20.3,16.7c1.2,0,1.7-0.3,1.7-0.6c-0.2-0.4-2.2-0.6-3.7-0.5c-1.3,0.1-1.8,0.4-1.1,0.6c0.5,0.1,1.2,0.3,2,0.3C19.6,16.7,19.9,16.7,20.3,16.7"/><path class="st24" d="M20.6,16.1c1-0.7,1.2-1.2,1.1-1.4c-0.4-0.2-2.1,0.8-3.3,1.7c-1.1,0.8-1.3,1.3-0.5,1.1c0.5-0.2,1.2-0.5,1.9-0.9C19.9,16.5,20.2,16.4,20.6,16.1"/><path class="st24" d="M19.7,17.2c0.9,0.8,1.4,0.9,1.6,0.7c0.1-0.4-1.2-1.9-2.3-2.9c-1-0.9-1.6-0.9-1.2-0.2c0.3,0.4,0.7,1,1.3,1.6C19.2,16.6,19.4,16.9,19.7,17.2"/></g><g><path class="st24" d="M9.2,30.6c0-1.6-0.4-2.2-0.7-2.2c-0.5,0.2-0.7,2.9-0.7,4.8c0.1,1.8,0.5,2.4,0.8,1.4C8.9,33.9,9,33,9.1,31.9C9.2,31.6,9.2,31.1,9.2,30.6"/><path class="st24" d="M9.6,32.5c1.6,0,2.2-0.4,2.2-0.7c-0.2-0.5-2.9-0.7-4.8-0.7c-1.8,0.1-2.4,0.5-1.4,0.8c0.6,0.2,1.6,0.3,2.6,0.4C8.5,32.5,9,32.5,9.6,32.5"/><path class="st24" d="M9.9,31.7c1.3-0.9,1.5-1.6,1.4-1.8c-0.5-0.3-2.8,1-4.3,2.2c-1.4,1-1.7,1.8-0.7,1.5c0.6-0.2,1.5-0.6,2.4-1.1C9,32.2,9.4,32,9.9,31.7"/><path class="st24" d="M8.8,33.1c1.2,1.1,1.9,1.2,2.1,0.9c0.2-0.5-1.6-2.5-3.1-3.8c-1.3-1.1-2.1-1.2-1.6-0.3c0.3,0.6,0.9,1.3,1.7,2.1C8.1,32.4,8.4,32.7,8.8,33.1"/></g><g><path class="st14" d="M50.8,14.5c0-1.5-0.4-2.1-0.7-2.1c-0.5,0.2-0.7,2.8-0.6,4.6c0.1,1.7,0.5,2.3,0.8,1.3c0.2-0.6,0.3-1.5,0.4-2.6C50.7,15.5,50.8,15,50.8,14.5"/><path class="st14" d="M51.1,16.4c1.5,0,2.1-0.4,2.1-0.7C53,15.2,50.4,15,48.5,15c-1.7,0.1-2.3,0.5-1.3,0.8c0.6,0.2,1.5,0.3,2.6,0.4C50.1,16.3,50.5,16.4,51.1,16.4"/><path class="st14" d="M51.4,15.6c1.3-0.9,1.5-1.5,1.3-1.8c-0.4-0.3-2.7,1-4.2,2.1c-1.4,1-1.6,1.7-0.6,1.4c0.6-0.2,1.5-0.6,2.3-1.1C50.6,16.1,51,15.9,51.4,15.6"/><path class="st14" d="M50.3,17c1.1,1,1.8,1.1,2,0.9c0.1-0.5-1.5-2.4-2.9-3.6c-1.3-1.1-2-1.2-1.5-0.3c0.3,0.6,0.9,1.3,1.6,2C49.6,16.2,49.9,16.6,50.3,17"/></g><g><path class="st24" d="M18.7,34.5c0-0.7-0.2-0.9-0.3-0.9c-0.2,0.1-0.3,1.2-0.3,2c0,0.7,0.2,1,0.4,0.6c0.1-0.3,0.1-0.7,0.2-1.1C18.6,35,18.7,34.8,18.7,34.5"/><path class="st24" d="M18.8,35.4c0.7,0,0.9-0.2,0.9-0.3c-0.1-0.2-1.2-0.3-2-0.3c-0.7,0-1,0.2-0.6,0.4c0.3,0.1,0.7,0.1,1.1,0.2C18.4,35.3,18.6,35.4,18.8,35.4"/><path class="st24" d="M19,35c0.6-0.4,0.7-0.7,0.6-0.8c-0.2-0.1-1.2,0.4-1.8,0.9c-0.6,0.4-0.7,0.7-0.3,0.6c0.3-0.1,0.6-0.3,1-0.5C18.6,35.2,18.8,35.1,19,35"/><path class="st24" d="M18.5,35.6c0.5,0.5,0.8,0.5,0.9,0.4c0.1-0.2-0.7-1.1-1.3-1.6c-0.6-0.5-0.9-0.5-0.7-0.1c0.1,0.2,0.4,0.6,0.7,0.9C18.2,35.3,18.3,35.4,18.5,35.6"/></g><g><path class="st24" d="M40.9,24.8c0-0.7-0.2-0.9-0.3-0.9c-0.2,0.1-0.3,1.2-0.3,2c0,0.7,0.2,1,0.4,0.6c0.1-0.3,0.1-0.7,0.2-1.1C40.8,25.2,40.9,25,40.9,24.8"/><path class="st24" d="M41,25.6c0.7,0,0.9-0.2,0.9-0.3c-0.1-0.2-1.2-0.3-2-0.3c-0.7,0-1,0.2-0.6,0.4c0.3,0.1,0.7,0.1,1.1,0.2C40.6,25.6,40.8,25.6,41,25.6"/><path class="st24" d="M41.2,25.3c0.6-0.4,0.7-0.7,0.6-0.8c-0.2-0.1-1.2,0.4-1.8,0.9c-0.6,0.4-0.7,0.7-0.3,0.6c0.3-0.1,0.6-0.3,1-0.5C40.8,25.5,40.9,25.4,41.2,25.3"/><path class="st24" d="M40.7,25.9c0.5,0.5,0.8,0.5,0.9,0.4c0.1-0.2-0.7-1.1-1.3-1.6c-0.6-0.5-0.9-0.5-0.7-0.1c0.1,0.2,0.4,0.6,0.7,0.9C40.4,25.6,40.5,25.7,40.7,25.9"/></g><g><path class="st14" d="M7.1,4.1c0-2-0.6-2.7-0.9-2.7C5.6,1.7,5.2,5,5.3,7.4c0.1,2.2,0.7,3,1.1,1.7c0.2-0.8,0.4-2,0.5-3.3C7,5.4,7.1,4.8,7.1,4.1"/><path class="st14" d="M7.5,6.6c2,0,2.7-0.6,2.7-0.9c-0.3-0.6-3.6-0.9-6-0.8C2,4.9,1.2,5.5,2.5,5.9c0.8,0.2,2,0.4,3.3,0.5C6.2,6.5,6.7,6.6,7.5,6.6"/><path class="st14" d="M7.9,5.5c1.6-1.1,1.9-2,1.7-2.3C9.1,2.9,6.2,4.5,4.2,5.9C2.5,7.3,2.1,8.1,3.4,7.8c0.8-0.2,1.9-0.8,3-1.4C6.8,6.2,7.3,5.9,7.9,5.5"/><path class="st14" d="M6.5,7.3c1.5,1.3,2.4,1.4,2.6,1.2c0.2-0.6-2-3.1-3.8-4.7c-1.7-1.4-2.6-1.5-2-0.4C3.7,4.1,4.5,5.1,5.4,6C5.6,6.4,6,6.8,6.5,7.3"/></g><g><path class="st24" d="M59.4,28.5c0-1.2-0.3-1.7-0.6-1.7c-0.4,0.2-0.6,2.2-0.5,3.7c0.1,1.3,0.4,1.8,0.6,1.1c0.1-0.5,0.3-1.2,0.3-2C59.3,29.3,59.4,28.9,59.4,28.5"/><path class="st24" d="M59.6,30c1.2,0,1.7-0.3,1.7-0.6c-0.2-0.4-2.2-0.6-3.7-0.5c-1.3,0.1-1.8,0.4-1.1,0.6c0.5,0.1,1.2,0.3,2,0.3C58.8,29.9,59.2,30,59.6,30"/><path class="st24" d="M59.9,29.4c1-0.7,1.2-1.2,1.1-1.4c-0.4-0.2-2.1,0.8-3.3,1.7c-1.1,0.8-1.3,1.3-0.5,1.1c0.5-0.2,1.2-0.5,1.9-0.9C59.2,29.8,59.5,29.6,59.9,29.4"/><path class="st24" d="M59,30.4c0.9,0.8,1.4,0.9,1.6,0.7c0.1-0.4-1.2-1.9-2.3-2.9c-1-0.9-1.6-0.9-1.2-0.2c0.3,0.4,0.7,1,1.3,1.6C58.5,29.9,58.7,30.1,59,30.4"/></g></g></g></svg>