<?xml version="1.0" encoding="utf-8"?>
<svg version="1.1" xmlns="http://www.w3.org/2000/svg" xmlns:xlink="http://www.w3.org/1999/xlink" x="0px" y="0px" viewBox="0 0 62.6 61.2" style="enable-background:new 0 0 62.6 61.2;" xml:space="preserve"><style type="text/css">.st0{fill:#FFFFFF;}.st1{fill:#8CA2CF;}.st2{clip-path:url(#SVGID_00000090998823630302278430000007097354198495976590_);}.st3{fill:#627EB5;}.st4{fill:#8CA05C;}.st5{fill:#677724;}.st6{fill:#E0A955;}.st7{fill:#BBD7FF;}.st8{fill:#3C5987;}.st9{clip-path:url(#SVGID_00000136403442682104548030000013014435790763741099_);}.st10{fill:#669CD3;}.st11{clip-path:url(#SVGID_00000158746748627296626400000013243560934342705298_);}.st12{fill:#92C4FC;}.st13{fill:#FAF4D2;}.st14{fill:#FCCB7C;}.st15{clip-path:url(#SVGID_00000037691614860901988260000017454252265488037053_);}.st16{clip-path:url(#SVGID_00000034050941092260795610000003186127732281288581_);}.st17{fill:#C5CAF0;}.st18{clip-path:url(#SVGID_00000077294948522226980920000003655897909074452898_);}.st19{clip-path:url(#SVGID_00000181798009164740943600000008196267571349553035_);}.st20{clip-path:url(#SVGID_00000136409866986939245260000017371036684295263385_);}.st21{clip-path:url(#SVGID_00000075858589872586736500000018099322672805071029_);}.st22{fill:#F9CC3D;}.st23{fill:#FFEAAE;}.st24{fill:#FFECB8;}.st25{fill:#D3AA37;}.st26{fill:#FFE08A;}.st27{clip-path:url(#SVGID_00000063604097429447804800000014648360699298768810_);}.st28{clip-path:url(#SVGID_00000180326041127419874080000004840179111270498494_);}.st29{clip-path:url(#SVGID_00000162344501097235673850000005261635190667553448_);}.st30{clip-path:url(#SVGID_00000117644222693201557080000009550520383397097117_);}.st31{clip-path:url(#SVGID_00000065072668643148444740000014049702522507848619_);}.st32{clip-path:url(#SVGID_00000078727404129507912010000011585344812094415791_);}.st33{clip-path:url(#SVGID_00000098222779300811081030000016089348595842083985_);}.st34{clip-path:url(#SVGID_00000031895263198537379480000009797797482815914633_);}.st35{clip-path:url(#SVGID_00000027580235537277153310000003524679027989072282_);}</style><g ></g><g ><g><path class="st17" d="M11.9,33.4c-0.1-0.2-0.3-0.2-0.5,0c-0.2,0.1-0.5,0.3-0.8,0.4c-0.1,0.1-0.6,0-1.1-0.2c-0.1,0-0.2-0.2-0.5-0.1c-0.2,0.1-0.2,0.5-0.4,0.7c-0.3,0.5-1,1.1-1.6,1.2c-0.6,0.2-1.3,0-1.9-0.2c-0.2-0.1-0.4,0.3-0.1,0.4c1.5,0.5,2.7,0.2,3.7-1c0.2-0.2,0.4-0.5,0.5-0.8c0.7,0.3,1.3,0.6,1.9,0.1c0.2-0.1,0.4-0.2,0.6-0.4C11.8,33.7,11.9,33.5,11.9,33.4"/><path class="st17" d="M8.8,37.3c-0.3-0.1-0.5,0.3-0.7,0.4c-0.4,0.3-1,0.5-1.5,0.3c-0.1,0-0.3-0.1-0.3-0.1c-0.1-0.1-0.2-0.2-0.3-0.2c-0.3,0-0.3,0.3-0.5,0.4c-0.3,0.3-0.4,0.3-0.8,0.4c-0.3,0-0.9-0.1-1.1-0.2c-0.1,0-0.2-0.2-0.4-0.2c-0.2,0-0.2,0.2-0.1,0.3c0.8,0.5,2,0.6,2.7-0.2c0.1-0.1,0.1-0.1,0.2-0.2c0.3,0.2,1,0.4,1.4,0.2c0.6-0.1,1-0.5,1.4-0.8C8.9,37.6,8.9,37.4,8.8,37.3"/><path class="st8" d="M63,36c0-3.7-0.1-7.5-0.7-11.1c-0.1-1.7-0.6-3.3-1.2-4.9c0-0.1,0-0.1-0.1-0.2c0,0.2,0.1,0.3,0,0c0-0.1-0.1-0.2-0.1-0.2c0,0.1,0,0.1,0.1,0.2c0,0,0,0,0,0c-0.4-1.7-1-3.4-1.8-4.9c-1.9-3-3.7-6.3-6.5-8.5c-2.5-1.7-2.9-1.6-5.5-2.9c-0.3-0.2-1.9-1-3.5-1.6c-3-0.7-6-1.6-9.1-1.4c-3.4,0.4-6.9,0.8-10.3,1.9c-2.6,0.9-5.1,2.2-7.6,3.6c-1.5,0.9-2.8,2.1-4.2,3.2C11,10.4,9.4,11.8,8,13.4c-1.8,2.1-2.6,5-2.9,7.7c-0.1,1.2,0.2,2.4,0.5,3.6c1.6,6.8-4.1,14-4.5,15.6c-0.6,2.2-0.9,4.5-0.2,7.3c0.3,1,0.6,1.9,1.1,2.8c0.5,1,1.3,1.8,2,2.7c0.7,1,1.6,1.8,2.6,2.6c0,0,0,0,0,0C7.2,56.5,8.1,57,9,57.6c1,0.7,2,1.1,3.2,1.5c2.3,0.9,3.9,1.1,5,1.4c1.1,0.2,2.2,0.1,3.3,0c1.4,0,2.8-0.4,4.1-0.6c2.2-0.3,2-0.2,4.4-0.7c0.5-0.1,1-0.2,1.5-0.3c1.3,0.2,2.6,0.5,3.9,0.6c0.8,0.2,1.6,0.4,2.4,0.3c3.2-0.1,6.5-0.4,9.6-1.7c1.8-0.7,3.5-1.7,5.2-2.8c2.2-1.4,4.3-3.1,5.9-5.2c1.1-1.4,1.9-3,2.8-4.5c0.6-1.2,1.3-2.5,1.7-3.8c0.3-1,0.4-2,0.6-2.9c0.1-0.2,0.2-0.7,0.2-0.9C63,37.3,63,36.7,63,36z"/><path class="st6" d="M21.2,26.6C21.2,26.5,21.2,26.5,21.2,26.6"/><line class="st4" x1="1.7" y1="49.8" x2="1.7" y2="49.8"/><g><defs><path id="_2" d="M62,41.8c0.3-1,0.4-2,0.6-2.9c0.1-0.2,0.2-0.7,0.2-0.9c0.2-0.7,0.1-1.3,0.2-2c0-3.7-0.1-7.5-0.7-11.1c-0.1-1.7-0.6-3.3-1.2-4.9c0-0.1,0-0.1-0.1-0.2c0,0.2,0.1,0.3,0,0c0-0.1-0.1-0.2-0.1-0.2c0,0.1,0,0.1,0.1,0.2c0,0,0,0,0,0c-0.4-1.7-1-3.4-1.8-4.9c-1.9-3-3.7-6.3-6.5-8.5c-2.5-1.7-2.9-1.6-5.5-2.9c-0.3-0.2-1.9-1-3.5-1.6c-3-0.7-6-1.6-9.1-1.4c-3.4,0.4-6.9,0.8-10.3,1.9c-2.6,0.9-5.1,2.2-7.6,3.6c-1.5,0.9-2.8,2.1-4.2,3.2C11,10.4,9.4,11.8,8,13.4c-1.8,2.1-2.6,5-2.9,7.7c-0.1,1.2,0.2,2.4,0.5,3.6c1.6,6.8-4.1,14-4.5,15.6c-0.6,2.2-0.9,4.5-0.2,7.3c0.3,1,0.6,1.9,1.1,2.8c0.5,1,1.3,1.8,2,2.7c0.7,1,1.6,1.8,2.6,2.6c0,0,0,0,0,0C7.2,56.5,8.1,57,9,57.6c1,0.7,2,1.1,3.2,1.5c2.3,0.9,3.9,1.1,5,1.4c1.1,0.2,2.2,0.1,3.3,0c1.4,0,2.8-0.4,4.1-0.6c2.2-0.3,2-0.2,4.4-0.7c0.5-0.1,1-0.2,1.5-0.3c1.3,0.2,2.6,0.5,3.9,0.6c0.8,0.2,1.6,0.4,2.4,0.3c3.2-0.1,6.5-0.4,9.6-1.7c1.8-0.7,3.5-1.7,5.2-2.8c2.2-1.4,4.3-3.1,5.9-5.2c1.1-1.4,1.9-3,2.8-4.5C60.9,44.4,61.6,43.2,62,41.8"/></defs><clipPath id="_3"><use xlink:href="#_2" style="overflow:visible;"/></clipPath><g style="clip-path:url(#_3);"><path class="st4" d="M61,47.5c-1.4,0.3-2,0.4-3.1,0.3c-0.7,0-1.9,0-2.9-0.1c-2.6-0.6-5.8-1.8-8.6-3c-2.2-0.8-4.3-1.9-6.6-2.6c-2.5-0.8-5.1-1.1-7.7-1.7c-2.2-0.5-4.3-0.7-6.6-0.7c-0.3,0-0.6-0.1-0.9-0.1c-0.2,0-0.4,0-0.6-0.1c-0.2,0-0.4,0-0.5,0c-0.8-0.1-1.7-0.2-2.5-0.1c-0.6,0-1.2,0.1-1.8,0.2c-1.1,0.1-2.1,0.2-3.2,0.4c-0.4,0.1-0.9,0.2-1.3,0.3c-0.8,0.1-1.7,0.3-2.5,0.5c-2.7,0.7-5.8,2.8-6.6,3.2c-0.2,0.1-0.3,0.2-0.5,0.3c-0.9,0.7-2,1.3-2.9,2.1c-0.4,0.2-0.7,0.4-0.9,0.7c-0.4,0.3-0.6,0.9-0.6,1.4c0.2,0.7,0.3,1.1,0.6,1.8c0.2,0.6,0.5,1,0.7,1.3c0.5,1.1,1,1.8,1.8,2.8c0.4,0.8,1.7,2.1,2.7,2.9c1.7,1.1,3.5,1.9,5.5,2.7c1.5,0.6,3.2,0.8,4.8,1c0.8,0.1,1.5,0.3,2.3,0.3c0.7,0,1.1-0.1,1.6-0.1c0.9,0,1.9,0.1,2.8,0.2c1.1,0,2.3,0,3.4-0.1c1.1,0,2.6-0.5,3.9-0.7c1.6-0.2,3.3-0.5,4.6-0.5c2,0.3,4.1,0.7,6.1,0.8c2.3,0.1,4.6-0.2,6.8-0.9c2.1-0.5,4.2-1.2,6.1-2.4c1.8-1.3,3.3-2.9,4.7-4.7c0.9-1.3,1.7-2.6,2.4-4C62.3,47.9,62.2,47.1,61,47.5"/><g><path class="st5" d="M61.7,48.9c-0.3-0.1-0.5,0.1-0.8,0.2c-0.8,0.4-1.8,1.1-2.4,1.2c-2,0.8-4.2,0.7-6.3,0.2c-1.5-0.4-2.9-1-4.3-1.6c-2.2-0.7-3.8-1.6-5.9-2.4c-4.3-1.1-8.8-1.7-13.2-1.8c-4.3,0.2-8.6,0.7-12.8,2c-2.5,0.7-4.9,1.8-7.3,2.7c-1.9,0.8-3.6,1.9-5.3,3.1c-0.2,0.2-0.5,0.3-0.7,0.5c0,0-0.1,0.1-0.1,0.1c0,0.2,0.2,0.3,0.4,0.2c1.5-1.1,2.8-2,4.4-2.8c1.5-0.8,3.1-1.3,4.6-1.9c4.2-1.7,9.3-2.8,13.8-3c2.9-0.3,6,0,9.1,0.3c2.4,0.4,4.7,0.7,6.8,1.3c0.8,0.3,1.2,0.5,2,0.9c0.9,0.3,1.4,0.5,2.2,0.9c1.6,0.6,3.1,1.2,4.7,1.8c2.9,1,6,1.1,8.6-0.1c1-0.4,1.6-1,2.4-1.2C62,49.4,61.9,49,61.7,48.9"/><path class="st5" d="M61.4,50.1c-0.4-0.1-0.7,0.3-1,0.4c-0.3,0.2-0.9,0.4-0.9,0.4c-2.7,0.8-5.1,1.2-8,0.8c-1.9-0.3-3.9-0.8-5.9-1.5c-1.5-0.6-3.2-0.9-4.8-1.4c-3.4-1-7-1.5-10.5-1.3c-3.1,0.2-6.3,0.6-9.3,1.4c-1.9,0.6-3.7,1.3-5.6,2c-1.2,0.5-2.4,1.2-3.6,1.7c-1,0.5-2,0.8-2.9,1.4c-1.1,0.8-2.3,1.5-3.3,2.5C5.6,56.8,5.9,57,6,56.9c1.2-1.1,2.7-2.1,3.9-2.8c1.3-0.6,2.6-1.1,3.8-1.7c2.3-1.2,4.8-2,7.1-2.8c3.8-1.1,7.9-1.6,11.7-1.5c4.4,0,7.9,1.3,12.2,2.5c1.6,0.7,3.3,1.1,5,1.5c2.8,0.7,5.3,0.6,8.1,0c0.8-0.1,1.3-0.4,2-0.5c0.4-0.1,1.1-0.5,1.7-0.8c0.1,0,0.1-0.1,0.2-0.2C61.7,50.4,61.6,50.2,61.4,50.1"/><path class="st5" d="M60.3,52.1c-0.3-0.1-0.6,0.2-0.9,0.3c-0.6,0.2-1.2,0.5-1.5,0.6c-1.9,0.8-4.1,0.8-6.6,0.6c-2.8-0.2-5.3-0.8-8-1.4c-2-0.4-3.9-1.1-5.8-1.4c-2.8-0.7-5.7-0.7-8.6-0.5c-2.7,0-6,1.2-8.8,2.2c-1.2,0.6-2.5,1.1-3.8,1.6c-2.2,1.2-4.2,2.7-6,4.5c-0.1,0.1-0.3,0.2-0.3,0.4c0,0.2,0.2,0.3,0.4,0.2c1.8-1.8,3.9-3.5,6-4.6c1.5-0.6,2.9-1.3,4.4-1.9c1.8-0.6,3.3-1.3,5.1-1.6c2.1-0.4,3.8-0.5,6-0.4c3.4,0,6.4,0.8,9.5,1.6c2.9,0.7,5.9,1.4,8.7,1.8c2.5,0.2,5.3,0.3,7.5-0.5c0.5-0.1,1.2-0.4,1.9-0.7c0.2-0.2,0.6-0.2,0.8-0.5C60.5,52.4,60.4,52.2,60.3,52.1"/><path class="st5" d="M59.1,54.3c-0.2,0-0.3,0.1-0.5,0.2c-0.5,0.2-1,0.4-1.5,0.5c-1,0.3-1.9,0.3-2.6,0.4c-1.4,0.1-2.2,0.2-3.6,0.2c-1.2-0.1-2.4,0.1-3.5-0.1c-2.5-0.3-4.6-0.8-6.9-1.3c-3.8-0.6-7.6-1.7-11.4-1.2c-3,0.5-5.9,1.6-8.6,3c-1.9,1-3.8,1.9-5.4,3.4c-0.3,0.4-0.8,0.7-1.1,1.1c0,0.2,0.2,0.3,0.4,0.2c1.8-1.8,3.7-3,6-4.1c3.3-1.7,6.9-3.1,10.4-3.2c4.3,0,8.1,1.1,12.1,2c2.1,0.4,4.1,1,6.2,0.9c2.3,0,4.2,0,6.1-0.2c0.7,0,2.1-0.2,3-0.6c0.1,0,0.5-0.1,0.5-0.2c0.3-0.1,0.6-0.2,0.7-0.5C59.5,54.5,59.3,54.3,59.1,54.3"/></g><path class="st5" d="M63,44.6c-0.7,0.2-0.9,0.2-1.5,0.2c-2.7,0.6-5.2,0.4-8.1,0.4c-1.9-0.2-3.8-0.5-5.4-0.9c-1.1-0.4-2.3-0.9-3.6-1.4c-1.9-0.7-3.8-1.4-5.8-2c-1-0.3-1.6-0.7-2.6-1c-3-0.7-6.1-1.4-9.2-1.8c-1.6-0.2-3.1-0.5-4.7-0.6c-1.2-0.1-2.9,0.1-3.8,0.1c-4.1-0.1-8.1,0.9-11.6,2.9c-1.7,1-3.2,1.7-4.7,2.9c-0.7,0.7-1.4,1.4-2,2.2C0,45.6,0,45.7,0,45.7c-0.1,0-0.1,0.1-0.2,0.1c-0.1,0.3-0.1,0.5-0.2,0.8c0,0.6,0.2,1.2,0.4,1.8c0,0.2,0.2,1,0.5,1.4c0.2,0.5,0.4,1,0.9,1.4c0.2,0.1,0.5,0.1,0.6-0.1c0,0,0,0,0,0c0,0,0,0,0.1,0c0.4-0.6,1.2-1.4,1.7-1.9c1-0.8,2.1-1.4,3.2-2.1c2.9-1.8,5.8-2.6,9.3-3.5c2.5-0.7,5.8-1.4,8.1-1.6c3.1,0,6.2-0.1,9.2,0.6c2.7,0.5,5.9,1.4,8.8,2.3c1,0.3,2,0.7,3,1.1c1.1,0.4,2.3,0.7,3.5,1c1.7,0.7,3.5,1,5.4,1c0.6,0,1.2,0.2,1.8,0.3c0.6,0,1.2,0,1.8,0c1.4,0,2.8-0.1,4-0.7c0.5-0.3,1.1-0.3,1.5-0.8c0.1-0.2,0.1-0.5,0.2-0.7c0.2-0.4,0.3-0.8,0.4-1.3C63.8,44.2,63.3,44.6,63,44.6"/><g><path class="st6" d="M56.1,57.1c-0.5,0-0.9,0.2-1.4,0.3c-1,0.3-2.2,0.7-3.1,0.7c-2.1,0.1-3.6,0.3-5.9-0.1c-1.6-0.3-4-1.3-5.9-1.9c-3-0.8-5.7-1.2-8.9-1.3c-1.5,0.1-3,0.4-4.5,0.7c-0.1,0-0.2,0.1-0.3,0.1c-0.1,0-0.2,0-0.3,0.1c-1.9,0.5-3.9,1.2-5.5,2.2c-0.8,0.4-1.9,1.1-2.8,1.8c-0.7,0.5-2.1,1.6-1.2,1.9c0.7,0,0.8,0.1,1.7,0.2c1.3,0,2.5,0.2,3.8,0.2c0.7,0.1,1.5-0.1,2-0.1c0.6,0,1.3,0.1,1.9,0.1c0.8,0,1.5-0.1,2.3-0.1c2,0,4,0.1,6.1,0.1c3,0.2,6.4,0.7,9.1,0.6c1,0,2,0.1,2.9,0c1-0.2,2-0.4,2.9-0.7c2-0.5,3.6-0.8,5.2-2.1C54.8,59.4,57.1,57.5,56.1,57.1"/><g><path class="st14" d="M20.5,59.6c-0.1-0.1-0.2-0.1-0.2,0c-0.5,0.2-1,0.4-1.4,0.7c-0.2,0.2,0.1,0.4,0.2,0.3c0.5-0.3,1-0.4,1.4-0.7C20.6,59.8,20.6,59.7,20.5,59.6"/><path class="st14" d="M28.1,56.5c-0.4,0.1-1.3,0.1-1.9,0.3c-0.8,0.3-1.6,0.7-2.4,1.1c-0.2,0.2,0.1,0.4,0.3,0.3c0.8-0.4,1.8-0.9,2.6-1.1c0.5-0.1,1.1-0.1,1.6-0.2C28.5,56.8,28.3,56.4,28.1,56.5"/><path class="st14" d="M26.3,59c-0.1,0-0.2,0-0.4,0.1c-0.7,0.3-1.4,0.5-2,0.8c-0.2,0.2,0.1,0.4,0.3,0.3c0.7-0.3,1.6-0.7,2.1-0.8C26.5,59.3,26.5,59,26.3,59"/><path class="st14" d="M30.9,58c-0.6,0.1-1.1,0.1-1.7,0.1c-0.2,0-0.4,0-0.5,0.1c-0.1,0.2,0,0.4,0.3,0.4c0.6-0.1,1.3-0.1,2-0.2c0.1,0,0.2,0,0.2-0.1C31.3,58.2,31.1,58,30.9,58"/><path class="st14" d="M34.7,56.4c-0.1-0.2-0.3-0.2-0.5-0.2c-0.8-0.1-1.7-0.1-2.5-0.1c-0.3,0.1-0.2,0.5,0.1,0.5c0.9,0,2-0.1,2.6,0.1C34.6,56.8,34.8,56.6,34.7,56.4"/><path class="st14" d="M31.3,60.2c-0.2-0.1-0.4-0.1-0.6-0.1c-0.6,0-1.2,0-1.7,0.2c-0.2,0.1-0.1,0.5,0.2,0.4c0.7-0.1,1.4-0.1,1.9-0.2C31.3,60.6,31.5,60.4,31.3,60.2"/><path class="st14" d="M37.1,60.3c-0.2-0.2-0.6-0.1-0.9-0.2c-0.6,0-1.2-0.2-1.8-0.1c-0.2,0.1-0.2,0.4,0.1,0.4c0.8,0.1,1.6,0.1,2.4,0.2C37.1,60.7,37.2,60.5,37.1,60.3"/><path class="st14" d="M36,58.5c-0.5,0-1-0.1-1.5-0.1c-0.4-0.1-0.5,0.4-0.1,0.5c0.7,0,1.3,0.1,2,0.1c0.1,0,0.3-0.1,0.3-0.2C36.6,58.5,36.2,58.6,36,58.5"/><path class="st14" d="M40.9,57.3c-0.5-0.1-1-0.2-1.5-0.3c-0.3,0-0.5-0.2-0.8-0.1c-0.2,0.1-0.2,0.4,0,0.5c0.7,0.2,1.5,0.3,2.2,0.5c0.1,0,0.3,0,0.3-0.1C41.2,57.5,41.1,57.3,40.9,57.3"/><path class="st14" d="M42.2,59.4c-0.5-0.1-1-0.2-1.5-0.2c-0.2,0-0.5-0.2-0.8,0c-0.2,0.1-0.1,0.4,0.1,0.4c0.7,0.1,1.4,0.2,2.1,0.3c0.1,0,0.1,0,0.2-0.1C42.5,59.7,42.4,59.4,42.2,59.4"/><path class="st14" d="M42.8,61.2c-0.3-0.2-0.6,0-0.9-0.1c-0.8,0-1.5,0-2.3,0.1c-0.3,0.1-0.2,0.5,0.1,0.5c0.9-0.1,1.8-0.1,2.9-0.1C42.8,61.6,43,61.4,42.8,61.2"/><path class="st14" d="M45.8,59.1c0-0.1-0.1-0.2-0.2-0.2c-0.6-0.1-1.2-0.2-1.8-0.3c-0.4,0-0.4,0.5,0,0.5c0.6,0.1,1.2,0.2,1.8,0.2C45.7,59.4,45.8,59.2,45.8,59.1"/><path class="st14" d="M47.9,60.7c-0.2-0.4-0.7-0.1-1.1-0.2c-0.6,0-1.2,0-1.7,0.1c-0.1,0-0.2,0.1-0.2,0.2c0,0.2,0.1,0.3,0.3,0.3c0.6,0,1.6-0.1,2.4-0.1C47.6,61,47.9,60.9,47.9,60.7"/><path class="st14" d="M51.4,59.2c-0.1-0.1-0.2-0.1-0.2-0.1c-0.7,0-1.3,0-2,0.1c-0.4,0-0.4,0.5,0,0.5c0.4,0,0.8,0,1.3-0.1c-0.1,0,0.7,0,0.9,0C51.5,59.6,51.5,59.3,51.4,59.2"/><path class="st14" d="M54.8,58c-0.7,0.4-1.3,0.7-2,1c-0.2,0.1-0.2,0.3,0,0.4c0.3,0,0.6-0.2,0.8-0.3c0.5-0.3,1-0.5,1.4-0.8C55.3,58.1,55,57.9,54.8,58"/></g></g></g></g><g><g><path class="st1" d="M61.1,19.9C61.1,19.9,61.1,19.8,61.1,19.9C61.1,19.8,61.1,19.8,61.1,19.9C61.1,19.9,61.1,19.9,61.1,19.9"/><path class="st17" d="M56.2,13.6c-0.4-0.1-1.1,0.2-1.4,0.1c-0.8-0.1-1.4-0.1-1.7-0.5c-0.1-0.2-0.2-0.6-0.4-0.9c-0.2-0.2-0.6,0.1-0.8,0.2c-0.5,0.2-0.9,0.1-1.4-0.2c-0.2-0.1-0.3-0.3-0.4-0.4c-0.1-0.4-0.1-1,0-1.3c0-0.1,0.1-0.3,0.1-0.4c-0.1-0.1-0.3-0.1-0.4,0c-0.1,0.3-0.1,0.6-0.1,1c0,0.4,0,0.8,0.2,1.1c0.3,0.4,0.8,0.6,1.2,0.7c0.4,0.1,0.9,0,1.3-0.2c0.1,0.4,0.3,0.9,0.7,1.1c0.8,0.3,1.7,0.4,2.5,0.2C55.9,14.1,56.6,14,56.2,13.6"/><path class="st17" d="M60.5,20.9c-0.9-0.2-1.7-0.2-1.8-1c0,0,0,0,0,0c0,0,0,0,0-0.1c0-0.2,0.2-0.6,0-0.8c-0.2-0.1-0.4,0-0.5-0.1c-0.2,0-0.5-0.1-0.6-0.4c-0.2-0.4-0.2-0.8-0.2-1.3c-0.1-0.2-0.4-0.2-0.4,0.1c-0.1,0.6,0,1.2,0.3,1.7c0.2,0.3,0.6,0.4,1,0.4c0,0,0,0,0,0c-0.2,0.6,0.1,1.3,0.7,1.6c0.4,0.2,0.9,0.3,1.4,0.3c0.1,0,0.2,0,0.2-0.1C60.7,21.1,60.6,21,60.5,20.9"/><path class="st17" d="M45.3,38.1c-0.1,0-0.2,0-0.3,0.1c-0.4,0.3-0.5,0.4-0.9,0.6c-0.6,0.3-1.9-0.1-2.3-0.9c-0.3-0.5-0.7,0.3-1,0.4c-0.5,0.3-1.3,0.5-1.8,0.5c-0.4-0.1-0.6-0.4-0.9-0.6c-0.2-0.2-0.4-0.4-0.5-0.6c-0.1-0.2-0.4-0.1-0.3,0.2c0.1,0.4,0.4,0.6,0.7,0.9c0.2,0.2,0.5,0.5,0.8,0.6c0.3,0.1,0.7,0,1.1,0c0.5-0.2,1.1-0.3,1.6-0.7c0,0,0.1-0.1,0.2-0.1c0.5,0.7,1.5,1.2,2.4,1.1c0.5-0.1,1-0.4,1.4-0.8c0,0,0,0,0,0l0,0c0.1,0,0.1-0.1,0.1-0.1C45.5,38.3,45.5,38.1,45.3,38.1"/><path class="st17" d="M54.1,41.9c-0.6,0.2-1.5,0.4-1.9,0.3c-0.5-0.2-1.1-0.7-1.2-1.3c-0.1-0.3-0.4-0.1-0.5,0.1c-0.2,0.2-0.4,0.3-0.5,0.4c-0.5,0.3-1.7,0.4-1.9,0.2c-0.5-0.3-0.9-0.6-1.2-1c-0.2-0.1-0.4,0.2-0.3,0.3c0.5,0.5,1.1,1.1,1.9,1.1c0.6,0,1.3-0.1,1.9-0.4c0.1-0.1,0.3-0.2,0.4-0.3c0.1,0.1,0.1,0.3,0.2,0.4c0.4,0.4,0.9,0.9,1.5,0.9c0.5,0,1-0.1,1.5-0.3c0.1-0.1,0.3,0,0.4-0.2C54.4,42.1,54.3,41.9,54.1,41.9"/><path class="st17" d="M54.7,38.6c-0.7,0.4-1.5,0.1-2.1-0.6c0,0-0.1-0.3-0.3-0.2c-0.1,0-0.4,0.3-0.5,0.4c-0.1,0.1-0.3,0.2-0.4,0.2c0,0,0,0,0,0c0,0-0.1,0-0.1,0c-0.5-0.1-0.9-0.4-1.2-0.8c0,0-0.1-0.3-0.2-0.3c-0.2-0.1-0.3,0.1-0.3,0.3c0.3,0.6,1,1.1,1.7,1.2c0.4,0,0.8-0.2,1.1-0.5c0.5,0.6,1.3,1.1,2.2,0.8c0.2-0.1,0.6-0.1,0.7-0.4C55.2,38.5,54.9,38.5,54.7,38.6"/><path class="st17" d="M60.8,41.3c-0.1-0.1-0.3,0-0.4,0c-0.2,0-0.3,0-0.3,0c0,0,0,0,0,0c0,0-0.1-0.1-0.1-0.1c-0.2-0.2-0.4-0.1-0.6,0c-0.1,0.1-0.5,0.2-0.6,0.3c-0.3,0.1-0.9-0.5-1-1.1c0-0.4-0.6-0.4-0.5,0c0.2,0.7,0.6,1.6,1.5,1.6c0.3,0,0.7-0.2,1-0.4c0,0,0,0,0,0c0,0,0.1,0.1,0.1,0.1c0.3,0.1,0.6,0,0.9,0C60.9,41.7,61,41.4,60.8,41.3"/><path class="st17" d="M44,4.9c-0.2-0.1-0.3,0.2-0.5,0.4c-0.2,0.4-0.6,0.8-0.8,0.7c-0.4,0-0.8-0.2-1.1-0.4c-0.1-0.1-0.2-0.2-0.3-0.2c-0.2,0-0.2,0.3-0.2,0.3c-0.1,0.2-0.4,0.5-0.6,0.6c-0.3,0.1-0.9,0-1.2-0.4c-0.1,0-0.1-0.3-0.2-0.3c-0.2-0.1-0.3,0.1-0.2,0.3c0.3,0.6,1.1,1,1.8,0.8c0.4-0.1,0.7-0.4,0.9-0.8c0.4,0.3,1,0.5,1.5,0.4c0.4-0.1,0.7-0.6,1-0.9C44,5.3,44.3,5.1,44,4.9"/></g><g><path class="st17" d="M11,34.6c-0.7,0.4-3.1,2-3.2,0.2c0-0.1-0.2-0.2-0.2,0C7.2,36,6,37,4.6,36.7c-0.1,0-0.1,0.1,0,0.1c0.8,0.2,1.7-0.1,2.3-0.7c0.2-0.2,0.3-0.3,0.4-0.5c0.1-0.1,0.1-0.2,0.2-0.3c0,0,0,0,0,0c0,0.1,0.1,0.2,0.2,0.3c0.8,0.8,2.9-0.1,3.4-0.8C11.3,34.7,11.1,34.5,11,34.6z"/><path class="st17" d="M5.2,39.1c-0.2,0.6-1.1,0.6-1.5,0.2c-0.1-0.1-0.2,0-0.2,0.1c0,0.6-0.1,2-1,1.5c-0.1,0-0.2,0.1-0.1,0.1c0.9,0.6,1.2-0.6,1.3-1.4c0.6,0.4,1.5,0.3,1.8-0.4C5.5,39,5.2,38.9,5.2,39.1z"/><path class="st17" d="M17,36.1c-0.7,0.4-1.6,0.8-2.2,0c-0.1-0.1-0.2-0.1-0.2,0c-0.3,0.6-1.2,1.2-1.8,0.4c-0.1-0.1-0.2,0-0.1,0.1c0.3,0.4,0.5,0.5,0.9,0.5c0.2,0,1.2-0.5,1.1-0.7c0.5,0.9,1.8,0.3,2.4-0.1C17.3,36.2,17.1,36,17,36.1z"/></g></g><g><path class="st7" d="M36.1,11.4c-0.3-0.6-0.6-1.2-1.1-1.6c0.3-0.2,0.6-0.5,0.8-0.8c1.2-1.9,0.3-3.7-1-4.6c-0.7-0.5-1.2-0.6-2.1-0.9c-1.1-0.3-2.4,0-3.5,0.8C29.1,4.3,29,4.3,29,4.4c0-0.1,0-0.1,0-0.2c-0.3-0.6-0.8-1-1.4-1.3c-0.8-0.4-1.7-0.7-2.7-0.6c-1.3,0.2-2.4,1.5-2.8,2.8c0,0,0,0,0,0c-0.5-0.5-1.1-0.6-1.8-0.8c-0.8-0.2-1.6-0.5-2.5-0.4c-1.8-0.1-4.6,0.5-5.4,2.8c-0.1,0.2-0.1,0.3-0.1,0.5c-0.1-0.1-0.2-0.1-0.4-0.1C10.5,6.5,9.4,6.5,8,6.5c-1.7,0-3.4,0.3-5,1.5C0.6,9.7-0.7,12.4,1.6,14c1.7,1,4,0.9,6.2,0.3c0.4-0.1,0.7-0.2,1-0.4c-0.2,1.4,0.5,3,1.6,3.4c1.5,0.6,3.6-0.4,5.3-1c-0.1,0.4-0.2,0.8-0.1,1.2c0.1,0.9,0.5,1.7,1.1,2.2c1.3,0.8,3.1,0.1,4.6-0.7c0.5-0.3,0.9-0.7,1.3-1.2c0.1,1.1,0.9,1.7,2.1,1.7c1.7,0,4.1,0,5.3-2c0.4-0.7,0.6-1.4,0.5-2.1c0.2,0.1,0.5,0.2,0.7,0.2c1,0.1,2.1,0,3.1-0.6c0.7-0.4,1.3-1,1.7-1.7C36.5,12.8,36.4,12,36.1,11.4"/><g><path class="st3" d="M5.4,11.5c-0.4,0.1-1.3-0.2-1.2-0.3c-0.3-0.4,0.2-1,0.6-1.1C5.4,9.7,6,9.4,6.5,9.3c0.3-0.1,0.3-0.6,0-0.6C5.9,8.9,5.4,9.2,4.8,9.4C4.5,9.6,4.2,9.7,3.9,10c-0.4,0.5-0.5,1.3-0.1,1.7C4.1,12,4.6,12,5,12.1c0.2,0,0.5,0.1,0.7-0.1C5.9,11.7,5.7,11.4,5.4,11.5"/><path class="st3" d="M19.5,6c-0.7-0.2-1.5-0.1-2.2,0c-0.5,0.1-1.1,0.2-1.6,0.6c-0.5,0.3-0.6,1-0.3,1.4c0.2,0.4,0.6,0.6,1,0.7c0.1,0,0.6,0.3,0.9,0.2c0.4-0.1,0.4-0.6,0.1-0.6c-1.4-0.3-2.3-1-0.5-1.6c0.6-0.1,1.8-0.2,2.5,0C19.6,6.7,19.8,6.1,19.5,6"/><path class="st3" d="M13.3,14.2c-0.1-0.1-0.3-0.1-0.5-0.1c0,0-0.2,0-0.2,0c-1.2,0-1.2-0.9-0.5-1.4c0.7-0.4,1.5-0.6,2.3-0.7c0.4,0,0.4-0.6,0.1-0.6c-1,0.1-2.2,0.3-3.1,1.2c-1,1.4,0.1,2.2,1.3,2.1c0.2,0,0.3,0,0.5-0.1C13.4,14.7,13.4,14.4,13.3,14.2"/><path class="st3" d="M22.4,15.7c-0.8,0-2.2,0.2-2.5,0.3c-0.4-0.1-0.4-0.1-0.3-0.7c0.1-0.4,0.2-0.7,0.5-1c0.7-0.6,1.7-1.2,2.6-1.5c0.3-0.1,0.3-0.7-0.1-0.5c-0.8,0.2-1.7,0.8-2.4,1.3C19.5,14,19,14.8,19,15.6c-0.1,1.5,1.7,0.7,2.6,0.7c0.3-0.1,0.7,0.1,1-0.2C22.9,15.9,22.7,15.6,22.4,15.7"/><path class="st3" d="M27.9,6.9C27.3,6.4,26.7,6.2,26,6c-0.5-0.1-1-0.2-1.5,0.1c-1.3,0.8-0.7,2.1,0.2,2.5C24.9,8.7,25.1,9,25.4,9c0.4-0.2,0.2-0.6-0.1-0.7c-0.6-0.4-1.1-0.6-1.1-1.1c0-0.3,0.3-0.7,0.9-0.7c0.8,0,1.7,0.3,2.5,1C27.8,7.6,28.1,7.1,27.9,6.9"/><path class="st3" d="M31.2,12c-0.6,0-1,0-1.2-0.3c-0.8-0.8,0.3-1.1,1.7-1.9c0.2-0.1,0.4-0.2,0.7-0.3c0.1,0,0.3-0.1,0.3-0.2c0.1-0.2,0-0.5-0.2-0.4c-0.8,0.3-1.6,0.8-2.4,1.2c-0.4,0.2-0.9,0.6-0.9,1.1c0,0.9,0.8,1.4,1.6,1.3C31.2,12.6,31.5,12.2,31.2,12"/><path class="st3" d="M27.3,17.4c-0.4,0-0.5,0.1-0.6,0c-0.2,0,0.1-0.7,0.6-1.2c0.1-0.2,0.4-0.3,0.4-0.5c0-0.2-0.2-0.4-0.4-0.2c-1.1,1-1.8,2.8,0,2.4C27.5,17.9,27.6,17.3,27.3,17.4"/><path class="st3" d="M33.7,5.5c-0.6-0.3-1.2-0.4-1.9-0.3c-0.4,0-0.8,0.1-1.1,0.5c-0.2,0.3-0.4,0.6-0.2,0.9c0.1,0.3,0.6,0,0.5-0.3c0,0,0-0.1,0-0.1c0,0,0,0,0,0c0-0.1,0.1-0.1,0.1-0.2c0,0,0,0,0.1-0.1c0.3-0.2,1.5-0.1,1.9,0.1c0.2,0,0.3,0.2,0.5,0.1C33.8,6,33.9,5.6,33.7,5.5"/></g></g><g><path class="st3" d="M62.5,28.2c-0.2-1.3-0.9-2.2-1.7-3c-1.5-1.6-2.6-2.7-4.3-3.9c-1.7-1.4-4.2-1.8-5-3.1c0-0.3-0.2-1.5-0.3-2.2c0-1-0.2-2-0.6-2.8c-0.4-0.8-1.2-1.1-1.8-1.3c-0.9-0.4-1.9-0.6-2.9-0.5c-1.1,0-2,0.2-2.1-0.3c-0.1-0.4-0.1-1.8-0.6-2.6c-1.1-2-3.5-3.9-5.2-1.5c-0.2,0.2-0.4,0.5-0.7,0.9c-0.8-0.4-2.1-0.7-3.2-0.6c-1.3,0.6-2.9,1.8-3.5,3.2c-0.3,0.6-0.8,1.7-1,2.2c-0.3-0.3-0.8-0.4-1.2-0.6c-0.5-0.2-1-0.4-1.5-0.4c-2.2-0.1-4.4,1.5-5.9,3.8c-0.3,0.4-0.8,1.6-0.8,1.7c0,0,0,0,0,0c0,0-0.1,0-0.1,0c-0.1,0-0.5-0.1-0.6-0.1c-2.9-1-6,1.4-8.3,3.9C8.9,24.2,8.4,29,11,31.4c1.1,1.2,2.5,1.7,3.8,2.4c2.6,1.3,5.6,1.2,8.5,1.3c2.2,0.1,4.9,0.3,7.5,0c2.3-0.4,4.6-0.5,6.7-0.3c1.9,0.2,3.4,0.1,5.3,0.3c1.8,0,3.2-0.1,5,0.3c2.1,0.3,4.5,1.1,6.3,1.2c2.9,0.2,7.5-0.7,8.7-5.1C63,30.4,62.8,29.3,62.5,28.2"/><g><path class="st8" d="M13.7,24.2c-0.2,0-1.3,0.1-1.6,0.8c-0.3,0.5-0.4,1-0.5,1.5c0,0.2-0.1,0.5,0,0.7c0.1,0.2,0.4,0.1,0.4-0.2c0-0.7,0.2-1.6,0.5-1.9c0.2-0.3,0.7-0.4,0.9-0.4c0.1,0,0.3,0.1,0.4,0C14.1,24.6,14,24.1,13.7,24.2"/><path class="st8" d="M23,18.7c-0.5-0.1-1.2-0.2-1.7,0.2c-0.5,0.6-0.8,1.2-1.1,2c0,0.1,0,0.2,0.1,0.3c0.1,0.1,0.3,0.1,0.4-0.1c0.4-0.8,1-2,1.5-1.9c0.3-0.1,0.7,0.1,0.9,0C23.2,19,23.2,18.8,23,18.7"/><path class="st8" d="M28.2,14.5c-0.3-0.1-0.5-0.3-0.8-0.2c-0.7,0.1-1.3,0.5-1.8,1c-0.1,0.1-0.1,0.2-0.1,0.3c0,0.2,0.2,0.2,0.4,0.1c0.5-0.5,1.2-0.9,1.7-0.9c0.1,0,0.2,0.1,0.3,0.1c0.2,0.1,0.3,0.3,0.5,0.2C28.7,14.9,28.4,14.6,28.2,14.5"/><path class="st8" d="M20.1,30.4c-0.1-0.1-0.3,0-0.4-0.1c-1.2-0.5-1.2-1.7-0.1-3c0.1-0.1,0.3-0.2,0.3-0.4c0-0.2-0.2-0.4-0.4-0.2c-0.7,0.7-1.4,1.8-1.2,2.9c0.2,0.8,1,1.4,1.7,1.3C20.2,30.8,20.3,30.5,20.1,30.4"/><path class="st8" d="M28.4,22.2c-0.5,0-1,0.2-1.4,0.5c-0.3,0.1-0.6,0.3-0.8,0.6c-0.6,1.1-0.4,2.5,0.6,3.1c0.1,0.1,0.3,0.2,0.5,0.2c0.2,0,0.3-0.2,0.2-0.4C27.3,26,27.2,26,27,25.9c0,0,0,0,0,0c0,0,0,0,0,0c-0.7-0.5-0.7-1.7-0.4-2.3c0.3-0.4,1.3-0.8,1.6-0.8c0.1,0,0.3,0,0.4-0.1C28.7,22.5,28.6,22.2,28.4,22.2"/><path class="st8" d="M36.1,15.4c-0.8-0.9-2.2-0.9-3,0.1c-0.2,0.4-0.3,0.8-0.5,1.2c-0.1,0.3-0.3,0.6-0.2,0.9c0.1,0.2,0.4,0.2,0.4,0c0.4-1.4,0.8-2.3,1.8-2.3c0.5,0,0.5,0.1,0.9,0.4c0.1,0.1,0.2,0.2,0.4,0.2C36.1,15.8,36.2,15.6,36.1,15.4"/><path class="st8" d="M42.4,11.7c-0.3-0.6-0.9-1.1-1.5-1.1c-0.5,0-1,0.2-1.5,0.4c-0.1,0.1-0.3,0.2-0.4,0.3c-0.1,0.2,0.1,0.5,0.3,0.3c0.6-0.4,1.7-0.7,1.9-0.5c0.4,0.2,0.4,0.4,0.8,0.8C42.3,12.2,42.5,12,42.4,11.7"/><path class="st8" d="M36.1,29.7c-0.7-0.1-1.6-0.5-1.8-0.9c-0.2-0.4,0-1.3,0.3-1.6c0.5-0.6,1.2-0.8,2-1.1c0.2-0.2,0.1-0.6-0.2-0.5c-0.9,0.3-2,0.7-2.4,1.7c-0.7,1.9,0.4,2.8,1.9,3c0.2,0,0.4,0.1,0.6,0C36.7,30,36.4,29.7,36.1,29.7"/><path class="st8" d="M25.6,32.3c-0.1-0.1-0.4-0.1-0.4-0.1c-0.1,0-0.3-0.1-0.3-0.1c0,0,0,0,0,0c0,0,0,0,0,0c0,0,0,0,0-0.1c-0.1-0.4,0-0.7,0.1-1.1c0,0,0.1-0.1,0.1-0.2c0-0.1,0.1-0.1,0.1-0.2c0.1-0.2,0.3-0.3,0.2-0.6c0-0.3-0.4-0.3-0.5-0.1c-0.5,0.8-1.1,2.5,0,2.9c0.3,0.1,0.7,0.3,0.9-0.1C25.7,32.6,25.7,32.4,25.6,32.3"/><path class="st8" d="M47.4,16.2c-0.5-0.1-1,0-1.5,0.2c-0.5,0.2-1.1,0.4-1.4,1c-0.5,0.8-0.4,1.9,0.3,2.4c0.2,0.1,0.6,0.4,0.7,0c0-0.1,0-0.3-0.1-0.4c0,0-0.2-0.1-0.3-0.1c-0.8-0.5-0.5-1.8,0.4-2.3c0.6-0.3,1.2-0.5,1.9-0.4C47.7,16.7,47.7,16.2,47.4,16.2"/><path class="st8" d="M45.4,29.2c0,0-0.3-0.1-0.4-0.1c-0.9-0.2-1.2-1.1-0.9-1.7c0.4-0.7,0.8-1.1,1.4-1.8c0.1-0.3-0.2-0.5-0.4-0.3c-0.6,0.7-1.4,1.4-1.6,2.4c-0.2,1.2,0.8,2.2,1.8,2.1C45.6,29.7,45.6,29.4,45.4,29.2"/><path class="st8" d="M52.7,30.3c-0.3-0.2-0.4-0.1-0.6-0.2c-0.9-0.3-1.3-0.8-1.3-1.5c0,0,0,0,0,0c0,0,0-0.1,0-0.1c-0.1,0.1,0.5-0.9,0.5-0.8c0.1-0.2,0.6-0.6,0.6-0.6c0.1-0.1,0.2-0.1,0.3-0.3c0.1-0.3-0.2-0.5-0.4-0.4c-0.7,0.4-1.3,1.2-1.5,2.1c-0.1,0.7,0.2,1.3,0.7,1.7c0.5,0.4,1.1,0.7,1.8,0.7C52.8,30.8,52.9,30.5,52.7,30.3"/><path class="st8" d="M59.2,30.7c-1.5,0-2.3-0.8-1.7-1.6c0.5-0.5,0.5-0.6,1.1-0.8c0.4-0.1,0.3-0.8-0.1-0.7c-2.3,0.7-2.6,3.4,0,3.8c0.3,0,0.6,0.2,0.9,0C59.6,31.2,59.4,30.7,59.2,30.7"/></g></g></g></g></svg>