<?xml version="1.0" encoding="utf-8"?>
<svg version="1.1" xmlns="http://www.w3.org/2000/svg" xmlns:xlink="http://www.w3.org/1999/xlink" x="0px" y="0px" viewBox="0 0 66.1 67.4" style="enable-background:new 0 0 66.1 67.4;" xml:space="preserve"><style type="text/css">.st0{fill:#FFFFFF;}.st1{fill:#8CA2CF;}.st2{clip-path:url(#SVGID_00000116226302916650021070000005806831950362400156_);}.st3{fill:#627EB5;}.st4{fill:#8CA05C;}.st5{fill:#677724;}.st6{fill:#E0A955;}.st7{fill:#BBD7FF;}.st8{fill:#3C5987;}.st9{clip-path:url(#SVGID_00000075127238297710706010000015860310193204705430_);}.st10{fill:#669CD3;}.st11{clip-path:url(#SVGID_00000107561396164152964760000011646899469766600102_);}.st12{fill:#92C4FC;}.st13{fill:#FAF4D2;}.st14{fill:#FCCB7C;}.st15{clip-path:url(#SVGID_00000044873336239698524100000003387771364079333265_);}.st16{clip-path:url(#SVGID_00000072253755878823350380000015354328955313503151_);}.st17{fill:#C5CAF0;}.st18{clip-path:url(#SVGID_00000134945395204199668550000002151804258835338138_);}.st19{clip-path:url(#SVGID_00000168086120738451315740000011778275221993143721_);}.st20{clip-path:url(#SVGID_00000123431198442471028960000000563506885621319080_);}.st21{clip-path:url(#SVGID_00000087410329767154295030000002190036586380999337_);}.st22{fill:#F9CC3D;}.st23{fill:#FFEAAE;}.st24{fill:#FFECB8;}.st25{fill:#D3AA37;}.st26{fill:#FFE08A;}.st27{clip-path:url(#SVGID_00000088818602674219105280000004212994181304499869_);}.st28{clip-path:url(#SVGID_00000167396813819575133380000006695394906866576822_);}.st29{clip-path:url(#SVGID_00000101792336378896032430000007295228086859426475_);}.st30{clip-path:url(#SVGID_00000045586234434252969640000009120789808725845127_);}.st31{clip-path:url(#SVGID_00000151505252449413077600000008609605042051434627_);}.st32{clip-path:url(#SVGID_00000090255127136800908950000010514362285079720599_);}.st33{clip-path:url(#SVGID_00000028310097646342011750000007516264982348325025_);}.st34{clip-path:url(#SVGID_00000087373828935622490310000007697171060544132512_);}.st35{clip-path:url(#SVGID_00000026871834925072831020000009349181247313099702_);}</style><g ></g><g ><g><g><path class="st1" d="M58.7,32.9c-0.1-0.7-0.1-2.3-0.6-4.4c-0.4-1.5-0.7-3-1.1-4.5c-0.7-1.5-0.5-1.1-1.1-2.3c-0.2-0.4-0.6-1.3-1.5-2.5c-1.2-1.3-2.2-2.7-3.5-3.9c-1.8-1.5-3.3-2.7-4.4-3.4c-2.2-1.3-4.1-2.3-5.6-2.7c-1.9-0.5-2.9-0.6-4-0.8c0,0,0,0,0.1,0c0,0,0,0-0.1,0c0,0-0.1,0-0.1,0c-0.4,0-0.1,0,0.1,0c-0.2,0-0.3-0.1-0.5-0.1c-0.3-0.1-0.6-0.1-1-0.2c0,0,0,0,0,0c-0.1,0-0.2,0-0.4-0.1c0,0,0.1,0,0.2,0c-2.9-0.5-3.8-0.9-6.7-0.5c0,0-0.1,0-0.2,0c-1.3,0-2.4,0.5-3.6,0.8c-1.3,0.3-1,0.1-2.7,0.5c-1.9,0.6-2,0.7-4,1.6c-0.6,0.2-1.2,0.6-1.8,0.9c-0.7,0.4-1.5,0.8-2.2,1.3c-1.8,1.3-3.5,2.6-5.1,4.1C7.3,18.5,6,20.3,4.7,22c-1.6,2.2-3,4.6-3.7,7.2c-0.7,2.3-0.9,4.7-0.9,7c0,1.6,0,3.5,0.2,4c0,0.1,0,0.2,0.1,0.3c0.1,0.9,0.3,1.8,0.5,2.7C1,44,1.2,44.8,1.5,45.6c0,0.3,0.1,0.5,0.2,0.8c0.8,2.8,1.2,2.6,1.6,4.5c0,0.1,0,0.2,0.1,0.3c0,0.2,0,0.7,0,0.9c0,1.2-0.1,2.4-0.2,3.6c-0.2,1-0.3,2-0.2,3c0,1,0,1.9,0.4,2.8c1,2.5,3.8,3.7,6.4,4.2c1.8,0.4,3.8,0.2,5.6,0.2c2.7-0.2,5.4-0.1,8-1c1.9-0.6,1.7-0.8,3.3-0.7c0.1,0,0.3,0,0.4,0c0.2,0,0.4,0.1,0.6,0.2c0.3,0.1,0.6,0.3,0.8,0.4c0.7,0.4,1.3,0.9,2.1,1.2c1.2,0.5,2.4,0.8,3.7,0.9c1.3,0.3,2.7,0.5,4,0.3c0.8-0.1,1.6-0.5,2.4-0.7c0.6-0.2,1.1-0.3,1.7-0.5c1.6-0.6,2.3-0.8,4.2-2c0.7-0.4,1.2-0.9,1.7-1.4c0.9-0.7,1.7-1.5,2.3-2.4c0.1-0.1,1.4-1.7,2.1-2.9c0.9-1.3,0.6-0.8,1.7-2.1c0.5-0.8,1.1-1.6,1.4-2.5c0.8-2.4,1.4-4.8,2.1-7.3c0.3-1.5,0.5-2.9,0.6-4.4c0.2-1.3,0.2-1.3,0.4-3.1C58.8,36.2,58.9,34.6,58.7,32.9"/><g><defs><path id="_2" d="M58.7,32.9c-0.1-0.7-0.1-2.3-0.6-4.4c-0.4-1.5-0.7-3-1.1-4.5c-0.7-1.5-0.5-1.1-1.1-2.3c-0.2-0.4-0.6-1.3-1.5-2.5c-1.2-1.3-2.2-2.7-3.5-3.9c-1.8-1.5-3.3-2.7-4.4-3.4c-2.2-1.3-4.1-2.3-5.6-2.7c-1.9-0.5-2.9-0.6-4-0.8c0,0,0,0,0.1,0c0,0,0,0-0.1,0c0,0-0.1,0-0.1,0c-0.4,0-0.1,0,0.1,0c-0.2,0-0.3-0.1-0.5-0.1c-0.3-0.1-0.6-0.1-1-0.2c0,0,0,0,0,0c-0.1,0-0.2,0-0.4-0.1c0,0,0.1,0,0.2,0c-2.9-0.5-3.8-0.9-6.7-0.5c0,0-0.1,0-0.2,0c-1.3,0-2.4,0.5-3.6,0.8c-1.3,0.3-1,0.1-2.7,0.5c-1.9,0.6-2,0.7-4,1.6c-0.6,0.2-1.2,0.6-1.8,0.9c-0.7,0.4-1.5,0.8-2.2,1.3c-1.8,1.3-3.5,2.6-5.1,4.1C7.3,18.5,6,20.3,4.7,22c-1.6,2.2-3,4.6-3.7,7.2c-0.7,2.3-0.9,4.7-0.9,7c0,1.6,0,3.5,0.2,4c0,0.1,0,0.2,0.1,0.3c0.1,0.9,0.3,1.8,0.5,2.7C1,44,1.2,44.8,1.5,45.6c0,0.3,0.1,0.5,0.2,0.8c0.8,2.8,1.2,2.6,1.6,4.5c0,0.1,0,0.2,0.1,0.3c0,0.2,0,0.7,0,0.9c0,1.2-0.1,2.4-0.2,3.6c-0.2,1-0.3,2-0.2,3c0,1,0,1.9,0.4,2.8c1,2.5,3.8,3.7,6.4,4.2c1.8,0.4,3.8,0.2,5.6,0.2c2.7-0.2,5.4-0.1,8-1c1.9-0.6,1.7-0.8,3.3-0.7c0.1,0,0.3,0,0.4,0c0.2,0,0.4,0.1,0.6,0.2c0.3,0.1,0.6,0.3,0.8,0.4c0.7,0.4,1.3,0.9,2.1,1.2c1.2,0.5,2.4,0.8,3.7,0.9c1.3,0.3,2.7,0.5,4,0.3c0.8-0.1,1.6-0.5,2.4-0.7c0.6-0.2,1.1-0.3,1.7-0.5c1.6-0.6,2.3-0.8,4.2-2c0.7-0.4,1.2-0.9,1.7-1.4c0.9-0.7,1.7-1.5,2.3-2.4c0.1-0.1,1.4-1.7,2.1-2.9c0.9-1.3,0.6-0.8,1.7-2.1c0.5-0.8,1.1-1.6,1.4-2.5c0.8-2.4,1.4-4.8,2.1-7.3c0.3-1.5,0.5-2.9,0.6-4.4c0.2-1.3,0.2-1.3,0.4-3.1C58.8,36.2,58.9,34.6,58.7,32.9"/></defs><clipPath id="_3"><use xlink:href="#_2" style="overflow:visible;"/></clipPath><g style="clip-path:url(#_3);"><path class="st5" d="M56.3,55.5c0-0.3,0-0.3-0.1-0.6l0,0c0-0.1,0-0.2-0.1-0.3c0,0,0-0.1,0-0.1c0-0.1,0-0.2,0-0.3c0-0.2,0-0.3,0-0.5c-0.1-0.1,0-0.1-0.2-0.3c0,0,0,0,0,0c0,0,0-0.1,0-0.1c-0.2-0.2-0.1-0.1-0.3-0.3c-0.2-0.2-0.4-0.4-0.6-0.5c0,0,0,0-0.1-0.1c-0.3-0.2-0.3-0.2-0.4-0.3c-0.4-0.2-0.5-0.2-0.7-0.4c-1-0.5-2.1-0.8-3.2-1c-0.9-0.2-1.8-0.4-2.7-0.5c-1.8-0.2-3.1-0.4-4.9-0.5c-2.4,0-5.3,0.2-7.3,0.6c-1.6,0.1-3.1,0.6-4.7,0.9c-2.3,0.4-4.6,1.2-6.7,2.1c-2.6,0.9-5.4,1.9-8,3.2c-1.4,0.7-2.8,1.2-4,1.7c-1.3,0.5-2.4,1-3.6,0.9c-1.1-0.1-2.6-0.5-3.8-0.9c-0.1,0-0.1,0-0.2,0c-0.2-0.1-0.3-0.2-0.5-0.4c-0.3-0.3-0.3-0.3-0.6-0.6c-0.2-0.1-0.6,0-0.6,0.3c-0.1,0.4,0,0.9,0,1.3c0,0.2,0,0.4,0,0.6c-0.1,0.9,0,1.8,0.5,2.6C3.6,62.8,4.3,63.4,5,64c0.5,0.4,1.1,0.7,1.8,0.9c0.2,0.2,0.5,0.4,0.8,0.5c2,1,4,1.1,6.1,1.2c1.3,0,2.6,0.2,3.9,0.2c2.4-0.2,4.7-0.9,7-1.6c0.9-0.3,1.6-0.4,2.3-0.2c1,0.3,2.3,1.1,3.4,1.8c0.9,0.6,1.9,1,2.8,1.5c0.7,0.3,1.5,0.3,2.2,0.5c2.6,0.4,5.3,0,7.7-0.8c1.2-0.4,2.2-1.1,3.2-1.7c1.2-0.7,2.3-1.5,3.5-2.4c1.7-1.3,2.6-2.7,3.8-4.2c0.6-1,1.1-1.4,1.9-2.2C56.1,56.9,56.3,56.2,56.3,55.5"/><g><path class="st4" d="M51.7,55.4c-2.5-2.5-7.2-3.2-10.8-3.2c-4.8-0.2-9.5,1.3-14.2,2.8c-2.5,1-4.2,1.8-6.2,2.5c-1,0.5-1.8,0.7-2.8,1.2c-1.5,0.7-2.8,1.3-4.3,1.8c-1.6,0.6-4.1,1.4-5.7,0.8c-0.8-0.4-1.5-0.7-2.1-1.2C5.5,60,5.3,60,5.2,60c-0.1,0.1-0.1,0.2,0,0.3c1.4,1,2.8,1.8,4.6,1.5c1.2-0.1,2.5-0.5,3.5-0.9c1.1-0.4,2.2-0.8,3.4-1.3c2.1-1,3.6-1.5,5.6-2.2c0.9-0.3,1.7-0.7,2.7-1.1c0.8-0.3,1.3-0.6,2.1-0.8c3.1-1,6.2-1.9,9.4-2.4c1.9-0.3,4.7-0.3,7.1-0.1c1.9,0.2,4.3,0.7,6.1,1.8c0.7,0.5,1.6,0.9,1.7,1.8c0.3,1.1-0.7,2.5-1.9,3.6c-2,1.8-5.3,2.2-7.5,1.1c-1.3-0.7-1.7-1.5-0.9-2.7c0.1-0.2,1.2-1.1,1.2-1c1.2-0.4,2.2-0.6,2.9-0.2c0.9,0.5,0.5,1.1-0.8,1.7c0,0,0,0,0,0c-0.1,0-0.2,0-0.2,0c-0.2,0.1-0.3,0.4-0.1,0.5c0.5,0.3,1-0.2,1.4-0.4c1.3-0.7,1.2-2.1-0.3-2.6c-1.1-0.3-2.2,0-3.3,0.4c-1,0.7-2.1,1.7-2,2.9c0.4,1.7,2.4,2.3,4,2.6c2.2,0.2,4-0.3,5.6-1.5C51.3,59.6,53.2,57.3,51.7,55.4"/><path class="st4" d="M38.2,55.6c-2.4,0.4-4.9,0.9-7.3,1.5c-1.6,0.3-3.3,0.7-4.8,1.4c-2.3,0.9-4.4,1.9-6.5,3.1c-0.8,0.5-1.8,0.8-2.4,1.5c-0.3,0.4,0.2,0.9,0.6,1.1c0.4,0.2,0.9,0.2,1.4,0.2c0.7,0,1.3,0,2-0.2c1-0.2,2.2-0.5,2.9-1.2c0.8-0.6,0.1-1.5-0.7-1.6c-0.7-0.2-2.5,0.7-1.5,1.3c0.2,0.2,0.7,0.2,0.7-0.2c0-0.2-0.1-0.2-0.2-0.3c0.2-0.2,0.6-0.4,0.9-0.3c0.2,0,0.2,0,0.5,0.3c0,0,0,0,0,0.1c0,0,0,0,0,0c0,0,0,0.1,0,0.1c0,0,0,0,0,0.1c-0.1,0.1-0.3,0.3-0.5,0.5c0,0,0,0,0,0c-0.1,0-0.3,0.1-0.1,0.1c-1.1,0.5-2.1,0.7-3.3,0.8c-1.1,0.1-2,0-2.1-0.4c0,0,0,0,0,0c0,0,0,0,0,0c0,0,0,0,0,0c0,0,0,0,0,0c0,0,0,0,0,0c0,0,0,0,0,0l0,0c0,0,0,0,0,0c0,0,0,0,0,0c0,0,0,0,0,0c0,0,0,0,0,0c0,0,0-0.1,0.1-0.1c0.3-0.3,0.6-0.4,0.8-0.6c2.5-1.4,5-2.7,7.7-3.8c3.4-1.3,7.6-2,11.4-2.8c0.2-0.1,0.4,0,0.6-0.2C38.5,55.8,38.3,55.6,38.2,55.6"/><polygon class="st4" points="17.8,63.4 17.8,63.3 17.8,63.4 "/><path class="st4" d="M39.9,64c-0.3-1.2-1.5-1.9-2.6-2.5c-1.2-0.6-2.3-1.4-3.7-1.6c-0.7-0.1-1.9-0.3-2.9,0c-1,0.2-1.9,0.6-2.8,1.1c-0.1,0-0.1,0.1-0.1,0.2c-0.1,0.2,0.2,0.4,0.4,0.3c1.4-0.8,3.1-1.3,4.3-1.1c1.5,0.1,2.4,0.5,3.8,1.3c1.3,0.8,2.6,1.4,2.9,2.5c0.1,0-0.1,0.7-0.2,0.9c-0.3,0.5-0.6,0.8-1.2,1c-0.4,0.2-1.4,0.2-2.3,0.1c-0.3-0.1-1.6-0.5-2-0.7c-0.5-0.1-0.6-0.1-1-0.3C31.7,64.7,31,64.2,31,64c0-0.2,0.2-0.7,0.8-0.8c0.3-0.1,1.3-0.2,2,0.1c0,0,0.1,0,0.2,0.1c0.2,0.1,0.4,0.2,0.3,0.2c0,0,0,0,0.1,0.1c0,0,0,0,0,0c0,0,0,0,0.1,0.1c0,0,0,0,0,0c0,0.3,0,0.3,0,0.4c0,0,0,0,0,0c0,0,0,0,0,0c-0.1,0-0.1,0-0.1,0c-0.1,0-0.3,0-0.4,0c-0.3-0.2-0.7,0.2-0.4,0.5c0.2,0.1,0.4,0.1,0.7,0.1c0.3,0,0.7-0.1,0.9-0.3c0.2-0.3,0.2-0.7,0.1-1c-0.1-0.3-0.4-0.4-0.6-0.6c-1-0.5-2.4-0.7-3.4-0.1c-0.7,0.4-1.2,1.3-0.4,1.9c0.3,0.3,0.8,0.5,1.1,0.7c0.4,0.2,0.8,0.5,1.2,0.5c0.5,0.1,1.3,0.5,2.1,0.7c0.6,0.1,1.2,0.1,1.8,0.1C38.6,66.8,40.1,65.5,39.9,64"/><path class="st4" d="M13.7,64.6c-0.2-0.7-1.1-1-1.8-1.2c-1.6-0.2-3.4-0.1-5,0.3c-0.2,0.1,0,0.4,0.2,0.4c1-0.2,1.8-0.3,2.9-0.3c0.9,0,1.6,0,2.2,0.3c1,0.4,1.1,0.9,0.6,1.2c-0.1,0.1-0.4,0.1-0.8,0.1c-0.2,0-0.4,0-0.6,0c0.1-0.1,0.1-0.1,0.2-0.2c0,0,0,0,0.1,0c0.1,0,0.2-0.1,0.2-0.2c0-0.6-0.9-0.1-1.1,0.2c-0.4,0.4,0,0.8,0.6,0.8c0.7,0,1,0,1.6-0.2C13.5,65.4,13.8,65,13.7,64.6"/><path class="st4" d="M54.1,56.1c-0.2-0.5-0.2-0.6-0.5-1.1c0-0.2-0.5-1-1.1-1.4c-1.1-0.8-2-1.2-3-1.5c-0.6-0.2-1.6-0.6-2.7-0.8c-2.6-0.2-4.9-0.5-7.4-0.2c-3,0.1-5.6,0.4-8.4,1.3c-1.6,0.4-3.2,0.8-4.7,1.3c-0.8,0.3-1.5,0.7-2.2,0.9c-2.1,0.7-3.9,1.3-5.8,2c-1.4,0.6-2.8,1.2-4.1,2.1c-0.1,0.2,0.1,0.4,0.3,0.3c3.1-1.8,6.1-2.7,9.5-3.9c0.9-0.2,2-0.8,2.7-1.1c2.2-0.6,4.4-1.2,6.6-1.7c2.1-0.5,3.4-0.6,5.6-0.7c1,0,1.9-0.2,2.9-0.2c0.4,0.1,1.6,0.1,2.3,0.1c1.4,0.2,2.4,0.1,3.6,0.5c1.5,0.5,2.4,0.8,4,1.8c0.4,0.3,1,0.8,1.2,1.3c0.1,0.2,0.4,0.6,0.4,0.8c0.1,0.1,0,0.1,0.1,0.2c0,0.1,0,0.1,0,0.2C53.6,56.9,54.2,56.5,54.1,56.1"/><path class="st4" d="M48.6,57.1c-0.1-0.4-0.4-0.6-0.6-0.7c-0.3-0.3-0.6-0.6-1-0.7c-1.4-0.8-3.1-1.1-4.8-1.3c-1.9-0.2-3.7-0.2-5.7,0c-1.7,0.3-3.4,0.7-5,1.1c-0.9,0.3-1.9,0.4-2.7,0.9c-0.1,0.2,0.1,0.4,0.3,0.3c4.2-1.3,8.5-2.5,12.7-1.9c1.1,0.1,2.9,0.4,3.9,0.8c0.6,0.3,1.2,0.6,1.6,0.9c0,0.1,0.7,0.7,0.6,0.8c0.2,0.5,0.3,0.8,0.1,1.2c0,0,0,0.1,0,0.1c-0.1,0.1-0.1,0.2,0,0.3c0.2,0.2,0.5,0.1,0.6-0.1c0.1-0.2,0-0.2,0.1-0.3C48.9,58,48.8,57.5,48.6,57.1"/><path class="st4" d="M23.6,58.5c-2.3,0.8-4.5,1.5-6.8,2.5c-0.7,0.3-1.4,0.6-2.2,0.9c-0.1,0-0.1,0.1-0.1,0.1c-0.1,0.2,0.2,0.4,0.4,0.3c3.1-1.4,6-2.3,9-3.3C24.1,58.8,23.9,58.4,23.6,58.5"/><path class="st4" d="M11.5,59.6C10.7,59.9,9.4,60,8.1,60c-0.3,0-0.3-0.1-0.8,0c-0.2,0.1-0.2,0.4,0.1,0.5c1.2,0.1,2.9,0.2,4.3-0.3c0.2-0.2,0.7-0.1,0.8-0.4C12.5,59.1,11.8,59.5,11.5,59.6"/><path class="st4" d="M38.3,60.1c0,0-0.1-0.1-0.1-0.1c-0.9-0.8-2-1.3-3.1-1.7c-0.3-0.1-0.7-0.3-1-0.3c-0.3,0-0.4,0.5,0,0.6c1.4,0.5,2.7,1,3.9,1.9l0,0c0,0,0,0,0,0c0,0,0,0,0,0c0.1,0,0.1,0,0.1,0C38.2,60.6,38.5,60.3,38.3,60.1"/><path class="st4" d="M38.3,60.1C38.3,60.1,38.3,60.1,38.3,60.1C38.3,60.1,38.3,60.1,38.3,60.1"/><path class="st4" d="M38.3,60.1C38.3,60.1,38.3,60.1,38.3,60.1C38.3,60.1,38.3,60.1,38.3,60.1C38.3,60.1,38.3,60.1,38.3,60.1"/><path class="st4" d="M42.9,65.6C42.9,65.6,42.9,65.6,42.9,65.6C43,65.5,43,65.5,42.9,65.6c0-0.8-0.9-1.8-1.5-2.5c-0.3-0.2-0.3-0.5-0.7-0.7c-0.3-0.1-0.5,0.2-0.4,0.4c0.7,0.9,2,2.2,1.9,2.8c0,0.4,0.5,0.6,0.7,0.2C43,65.7,43,65.6,42.9,65.6"/><path class="st4" d="M52.7,59.3c-0.3,0.1-0.2,0.1-0.4,0.2c-1,1-1.9,2.1-3,3c-0.4,0.2-1.1,0.8-1.6,1c-0.6,0.2-1.9,0.6-2.8,0.7c-0.4,0.1-0.2,0.6,0.2,0.5c1.1-0.2,2.9-0.6,3.5-1.2c1.6-0.8,3-2.4,4.3-3.8C53.1,59.7,53,59.3,52.7,59.3"/><path class="st4" d="M29,62.1c-0.2,0-0.4,0.1-0.6,0.2c-0.7,0.3-1.4,0.8-2.1,1.2c-0.2,0.2-0.6,0.4-0.7,0.6c0,0.2,0.3,0.3,0.4,0.2c0.7-0.5,1.9-1.3,2.6-1.6c0.2-0.1,0.4-0.1,0.5-0.2C29.2,62.3,29.2,62.1,29,62.1"/><path class="st4" d="M43.4,66.8c-0.2,0-0.3,0.1-0.4,0.1c-0.5,0.2-1.1,0.3-1.7,0.5c-0.6,0.1-1.1,0.4-1.7,0.4c-1.1,0.1-2.1-0.1-3.2,0c-0.2,0.1-0.2,0.4,0.1,0.4c1.5,0.1,3.1,0.3,4.5-0.2c0.9-0.3,2-0.4,2.5-0.7C43.6,67,43.6,66.8,43.4,66.8"/><path class="st4" d="M5,62.6c-0.5-0.4-0.8-1.1-0.9-2.1C4,60.2,4,60,4,59.5c0-0.1,0-0.1-0.1-0.2c-0.2-0.2-0.5,0-0.5,0.2c0.1,1.3,0.2,2.8,1.4,3.7c0.1,0.1,0.3,0.3,0.5,0.2C5.8,63.2,5.2,62.8,5,62.6"/></g></g><g style="clip-path:url(#SVGID_00000102543208729553309920000011834713664350460558_);"><g><path class="st5" d="M52.7,52.7C52.7,52.7,52.7,52.7,52.7,52.7C52.7,52.7,52.7,52.7,52.7,52.7"/><path class="st3" d="M9.4,40.3c-0.5,0.9-1.7,2.6-1.9,3.2c0.1,0.3,0.4,0.1,0.5-0.1c0.7-1,1.2-2,1.8-3C9.9,40.3,9.6,40.1,9.4,40.3"/><path class="st3" d="M10.9,42.6c-0.5,0.8-1.1,1.7-1.6,2.5c0,0.1,0.1,0.2,0.2,0.2c0.1,0,0.3-0.1,0.3-0.2c0.2-0.2,0.3-0.4,0.4-0.7c0.3-0.6,1-1.3,1.1-1.9C11.3,42.5,11,42.5,10.9,42.6"/><path class="st3" d="M11.1,47.2c-0.4,0.8-0.9,1.5-1.3,2.2c-0.1,0.1-0.2,0.3-0.2,0.5c0,0.1,0.2,0.2,0.3,0.2c0.1,0,0.2-0.1,0.2-0.2c0.5-0.8,1-1.6,1.4-2.4C11.7,47.2,11.2,46.9,11.1,47.2"/><path class="st3" d="M5.9,45.9c-0.4,0.9-0.9,1.7-1.4,2.6c-0.1,0.1-0.2,0.2-0.1,0.4c0,0.1,0.2,0.2,0.3,0.2C5,48.9,5,48.6,5.1,48.5c0.4-0.8,0.8-1.5,1.3-2.3C6.6,45.9,6.1,45.7,5.9,45.9"/><path class="st3" d="M8,47.4c-0.4,0.7-0.9,1.4-1.3,2c-0.1,0.1-0.2,0.2-0.2,0.4c0,0.2,0.2,0.3,0.4,0.3c0.6-0.5,1.2-1.7,1.7-2.4C8.7,47.4,8.2,47.2,8,47.4"/><path class="st3" d="M7.6,52.3c-0.4,0.8-0.8,1.6-1.2,2.4c-0.1,0.2,0.1,0.4,0.4,0.3c0.6-0.8,0.9-1.7,1.3-2.5C8.1,52.3,7.7,52.1,7.6,52.3"/><path class="st3" d="M10.3,53.1c-0.4,0.8-0.9,1.6-1.3,2.3c-0.2,0.2,0.2,0.5,0.4,0.4c0.5-0.8,0.9-1.7,1.4-2.4C11,53.1,10.5,52.8,10.3,53.1"/><path class="st3" d="M14.3,47c-0.4,0.8-0.8,1.5-1.2,2.3c-0.1,0.1,0,0.3,0.2,0.4c0.1,0,0.3,0,0.3-0.1c0.3-0.6,0.6-1.1,0.9-1.7c0.1-0.3,0.4-0.5,0.3-0.8C14.7,46.9,14.4,46.8,14.3,47"/><path class="st3" d="M19.8,42.2c-0.4,0.8-0.9,1.6-1.4,2.5c-0.1,0.2,0.1,0.5,0.4,0.3c0.6-0.8,1-1.8,1.5-2.6C20.3,42.1,19.9,42,19.8,42.2"/><path class="st3" d="M16,50.3c-0.4,0.8-0.9,1.6-1.3,2.4c-0.1,0.2,0.1,0.4,0.3,0.3c0.1,0,0.2-0.1,0.2-0.2c0.4-0.8,0.9-1.6,1.3-2.3C16.7,50.3,16.2,50,16,50.3"/><path class="st3" d="M20,46.9c-0.2,0.4-0.5,0.8-0.6,1.2c0,0.1,0.1,0.2,0.2,0.3c0.1,0,0.3,0,0.3-0.1c0.2-0.4,0.5-0.7,0.6-1.1C20.6,46.8,20.2,46.7,20,46.9"/><path class="st3" d="M23.9,45.2c-0.3,0.5-0.6,1.1-0.9,1.6c0,0.1,0,0.2,0.1,0.2c0.1,0.1,0.3,0,0.4-0.1c0.3-0.5,0.6-1,0.9-1.5C24.5,45.1,24,44.9,23.9,45.2"/><path class="st3" d="M20.3,50.8c-0.3,0.6-0.6,1.2-1,1.8c-0.1,0.1,0,0.3,0.2,0.4c0.1,0,0.3,0,0.3-0.1c0.3-0.5,0.6-1.1,0.9-1.6C21,50.8,20.6,50.4,20.3,50.8"/><path class="st3" d="M27.3,46.1c-0.5,0.9-1,1.8-1.5,2.7c-0.1,0.2,0.1,0.4,0.3,0.4c0.3-0.1,0.3-0.5,0.5-0.7c0.4-0.7,0.8-1.4,1.2-2.1C28,46,27.5,45.8,27.3,46.1"/><path class="st3" d="M30.9,45.6c-0.2,0.4-0.5,0.7-0.7,1.1c0,0.1,0,0.2,0.1,0.3c0.3,0.1,0.4-0.1,0.5-0.3c0.2-0.3,0.4-0.6,0.5-0.9C31.5,45.5,31,45.3,30.9,45.6"/><path class="st3" d="M29.4,48.3c-0.3,0.5-0.7,1.1-1,1.6c0,0.1,0,0.1,0.1,0.2c0.3,0.3,0.6-0.1,0.7-0.3c0.3-0.4,0.5-0.8,0.7-1.2C30.1,48.3,29.6,48,29.4,48.3"/><path class="st3" d="M34.2,45.7c-0.4,0.7-0.8,1.4-1.2,2.1c-0.1,0.1-0.1,0.2,0,0.3c0.2,0.2,0.5,0,0.6-0.2c0.3-0.4,0.5-0.9,0.8-1.3c0.1-0.3,0.4-0.5,0.4-0.8C34.7,45.6,34.4,45.5,34.2,45.7"/><path class="st3" d="M37.8,45.5c-0.6,0.9-1.1,1.8-1.7,2.7c-0.2,0.2,0.1,0.5,0.3,0.4c0.3-0.1,0.4-0.5,0.6-0.7c0.5-0.7,0.9-1.4,1.3-2.1C38.6,45.5,38,45.2,37.8,45.5"/><path class="st3" d="M42.7,45.5c-0.1-0.2-0.4-0.3-0.6-0.1c-0.3,0.5-0.6,1.1-0.9,1.6c-0.1,0.1-0.1,0.2,0,0.3c0.2,0.2,0.5,0,0.6-0.2c0.3-0.4,0.5-0.8,0.7-1.2C42.6,45.8,42.7,45.7,42.7,45.5"/><path class="st3" d="M44.8,46.3c-0.3,0.5-0.7,1.1-1,1.6c-0.1,0.2,0.1,0.4,0.3,0.4c0.2-0.1,0.3-0.3,0.4-0.4c0.3-0.4,0.6-0.9,0.9-1.4C45.4,46.2,45,46.1,44.8,46.3"/><path class="st3" d="M53.4,41.9c-0.1,0.3-0.4,0.5-0.4,0.8c0,0.2,0.4,0.2,0.5,0.1c0.1-0.2,0.3-0.5,0.5-0.7C53.9,41.8,53.5,41.7,53.4,41.9"/><path class="st3" d="M49.1,46.6c-0.4,0.6-0.8,1.2-1.2,1.8c0,0.1-0.1,0.2,0,0.2c0.2,0.4,0.6,0.2,0.7-0.1c0.3-0.5,0.7-1,1-1.5C49.9,46.6,49.4,46.2,49.1,46.6"/><path class="st7" d="M3.2,41.4c-0.1,0.4-0.3,0.8-0.4,1.3c0,0.1,0.1,0.1,0.2,0.2c0.1,0,0.2,0,0.3-0.1c0.1-0.4,0.3-0.8,0.4-1.2C3.7,41.2,3.3,41.1,3.2,41.4"/><path class="st7" d="M7.2,37.8c-0.4,0.9-1.1,2-1.5,2.9c0,0.1,0.2,0.2,0.3,0.2c0.1-0.1,0.1-0.2,0.2-0.2c0.5-0.9,1.1-1.9,1.4-2.7C7.7,37.8,7.3,37.6,7.2,37.8"/><path class="st7" d="M4.6,43.3c-0.5,0.7-0.9,1.5-1.3,2.2c-0.1,0.2,0.3,0.4,0.4,0.2c0.4-0.6,0.7-1.5,1.3-2.2C5.3,43.3,4.8,43,4.6,43.3"/><path class="st7" d="M52.5,44.8c-0.2,0.4-0.5,0.9-0.7,1.3c0,0.2,0.2,0.3,0.4,0.2c0.3-0.4,0.5-0.9,0.8-1.4C53,44.7,52.6,44.6,52.5,44.8"/><path class="st7" d="M52.2,48c-0.3,0.6-0.6,1.1-0.9,1.7c0,0.1,0.1,0.2,0.2,0.2c0.1,0,0.2,0,0.3-0.1c0.2-0.4,0.4-0.8,0.6-1.2c0.1-0.2,0.3-0.4,0.3-0.6C52.6,47.9,52.3,47.8,52.2,48"/><path class="st7" d="M55.8,42.2c-0.5,1-1,2-1.5,3.1c-0.1,0.1,0,0.3,0.2,0.3c0.1,0,0.2,0,0.3-0.1c0.3-0.7,0.7-1.4,1.1-2.1c0.1-0.4,0.5-0.7,0.5-1.1C56.2,42,55.9,42,55.8,42.2"/><path class="st7" d="M55.3,47.3c-0.2,0.5-0.5,1-0.7,1.4c-0.1,0.3-0.5,0.6-0.2,0.9c0.2,0.1,0.4,0,0.5-0.1c0.3-0.5,0.4-0.8,0.7-1.4c0.1-0.2,0.3-0.4,0.3-0.7C55.8,47.2,55.4,47.1,55.3,47.3"/><path class="st7" d="M12.4,39.2c-0.1-0.2-0.4-0.1-0.5,0.1c-0.2,0.4-0.4,0.7-0.6,1.2c0,0.1,0,0.1,0.1,0.2c0.3,0.3,0.5-0.2,0.6-0.4C12.1,40,12.5,39.5,12.4,39.2"/><path class="st7" d="M12.5,52.9c-0.3,0.7-0.6,1.5-0.9,2.3c-0.1,0.2,0.2,0.4,0.4,0.3c0.5-0.7,0.6-1.6,1-2.4C13.1,52.8,12.6,52.7,12.5,52.9"/><path class="st7" d="M16.9,45.3c-0.1,0.6-0.4,1.2-0.6,1.7c-0.1,0.2-0.2,0.5,0.1,0.5c0.3,0,0.3-0.3,0.4-0.4c0.2-0.6,0.4-1.1,0.6-1.7C17.5,45.1,17,45,16.9,45.3"/><path class="st7" d="M24,48.7c-0.1-0.2-0.5-0.1-0.5,0.1c-0.3,0.7-0.5,1.4-0.8,2.2c0,0.1,0,0.2,0.1,0.3c0.2,0.1,0.4,0,0.5-0.2c0.1-0.4,0.2-0.7,0.4-1.1C23.8,49.5,24.1,49,24,48.7"/><path class="st7" d="M21.8,42c-0.3,0.7-0.5,1.3-0.8,2c-0.1,0.1,0.1,0.3,0.3,0.3c0.1,0,0.2-0.1,0.3-0.2c0.3-0.7,0.5-1.3,0.8-2C22.4,41.8,21.8,41.7,21.8,42"/><path class="st7" d="M17.6,51.5c-0.3,0.6-0.8,1.6-0.9,2c-0.1,0.1,0,0.3,0.1,0.3c0.2,0.1,0.4-0.1,0.4-0.3c0.2-0.5,0.4-0.9,0.6-1.3c0.1-0.3,0.3-0.3,0.3-0.7C18,51.3,17.7,51.3,17.6,51.5"/><path class="st7" d="M46.8,46.4c-0.2,0.4-0.6,1.1-0.9,1.7c0,0.1,0.1,0.2,0.2,0.3c0.1,0,0.2,0,0.3-0.1c0.3-0.6,0.6-1.2,0.9-1.7C47.4,46.3,46.8,46.1,46.8,46.4"/><path class="st7" d="M5.6,51.2c-0.1-0.2-0.4-0.1-0.5,0.1c-0.3,0.7-0.5,1.5-0.8,2.2c-0.1,0.2-0.2,0.5,0.3,0.5c0.2,0,0.2-0.2,0.3-0.3c0.3-0.6,0.5-1.3,0.7-2C5.6,51.5,5.7,51.4,5.6,51.2"/><path class="st7" d="M11.7,49.3c-0.2-0.1-0.3,0.1-0.4,0.3c-0.2,0.5-0.4,0.9-0.6,1.4c-0.1,0.3,0.4,0.4,0.5,0.1c0.2-0.5,0.4-1,0.7-1.5C11.9,49.5,11.8,49.4,11.7,49.3"/><path class="st7" d="M25.9,45.1c-0.2,0.4-0.4,0.7-0.5,1.1c0,0.1,0,0.2,0.1,0.2c0.5,0.3,0.6-0.7,0.9-1.1C26.5,45.1,26.1,44.8,25.9,45.1"/><path class="st3" d="M50.1,40.9C50.1,40.9,50.1,40.9,50.1,40.9"/><polygon class="st3" points="50.1,40.9 50.1,40.9 50.1,40.9 "/></g><g><g><path class="st8" d="M58.4,25.6c-0.2-1.8-1.3-3.4-2.4-4.9c-0.5-0.8-1-1.7-1.7-2.4c-0.9-1-1.9-1.9-2.9-2.9c-2.6-2.5-6.3-3.8-9.6-5.5c-1.5-0.7-2.9-1.5-4.4-2c-2.1-0.7-4.2-1-6.4-1c-1.5,0-6.2-1-14.4,3.7c-7.3,4.2-8.1,6.6-11.3,10.2c-0.4,0.5-0.9,1-1.3,1.5c-0.9,1.3-1.8,2.6-2.5,4c-0.2,0.5-0.4,1.1-0.6,1.6c0,0.1,0,0.1-0.1,0.2c-0.5,1.4-1,2.7-1.4,4.1c-0.2,1.5-0.2,3.1,0.2,4.6c0,0.9,0.7,1.7,1.5,2.3c1.3,0.8,3.1,0.3,4.2-0.6c1.7-1.5,3-3.2,4.2-5c0,1.4,0.4,2.8,1.5,3.8c1,0.9,2.1,1.9,3.6,2.2c2.2,0.2,4-1.9,5.3-3.3c1-1.1,1.9-2.4,2.4-3.8c0.2-0.7,0.4-1.4,0.6-2.1c0.3,2.2,1,4.5,3.7,5.2c3.3,0.6,6.6-1.1,8-3.7c0.9-1.6,0.5-3.5,0.7-5.3c0-0.1,0-0.2,0-0.3c0.6,2.1,1.5,4.3,3.2,5.9c1.8,1.7,4.6,2.7,6.6,0.6c1.1-1.2,1.5-2.7,1.8-4.2c0.5,1.2,1.3,2.2,2.4,3.1c0.7,0.5,1.4,1.1,2.3,1.4c1.3,0.3,2.7,0.5,4,0c0.5-0.3,0.9-0.7,1.3-1.1c0.6-0.6,1.1-1.4,1.3-2.2C58.5,28.6,58.3,27,58.4,25.6"/><g><path class="st3" d="M5.7,34.3c-0.1-0.2-0.4-0.1-0.6,0c0,0-0.3,0.2-0.4,0.3C4.1,35,3.6,35.3,3,35.3c0,0,0,0,0,0c-0.1,0-0.5-0.2-0.5-0.2C2.1,34.8,2,34.6,2,34.5c0-0.9,0.1-1.5,0.3-2.3c0-0.2-0.4-0.3-0.5,0c-0.2,0.5-0.2,1.1-0.3,1.6c0,0.4-0.1,0.7,0.1,1.1c0.3,0.5,1,1,1.7,0.9c0.3,0,0.6-0.1,0.9-0.3c0.4-0.2,0.8-0.4,1.2-0.7C5.5,34.7,5.8,34.5,5.7,34.3"/><path class="st3" d="M4.3,29.5c-0.1,0-0.2,0-0.3-0.1c-1.2-0.3-0.6-2.2,0-3.6c0.1-0.3-0.4-0.4-0.5-0.1c-0.3,0.7-0.5,1.4-0.6,2.1c-0.1,0.5-0.1,1.2,0.3,1.6c0.3,0.3,0.8,0.7,1.3,0.5C4.6,29.9,4.6,29.6,4.3,29.5"/><path class="st3" d="M14.5,36.7c0,0-0.1,0-0.1,0c-0.2-0.1-0.7-0.5-1-0.8c-0.3-0.3-0.5-0.6-0.8-1c0-0.1-0.1-0.1-0.2-0.1c-0.3-0.1-0.5,0.2-0.4,0.4c0.3,0.5,1.9,2.6,2.6,2.1C14.9,37,14.8,36.7,14.5,36.7"/><path class="st3" d="M9,18.8c0.1-0.1,0.3-0.2,0.3-0.4c0-0.2-0.3-0.4-0.5-0.2c-0.5,0.4-0.8,1-1,1.6c-0.2,0.4-0.2,1,0.3,1.2c0.3,0.1,0.5-0.3,0.3-0.5c0,0,0,0,0,0c0,0,0-0.1,0-0.1C8.2,19.9,8.7,19.1,9,18.8"/><path class="st3" d="M14.3,13c-0.7,0.5-1.5,1-2,1.7c-0.2,0.2-0.3,0.6-0.2,0.8c0.1,0.3,0.7,0.4,0.7,0c0-0.1,0-0.1-0.1-0.2c0-0.5,1.1-1.3,1.9-1.8C14.9,13.3,14.6,12.8,14.3,13"/><path class="st3" d="M28.1,11.2c-0.7,0.1-1.2,0.3-1.7,0.1c-0.4,0-0.7-1.1-0.6-1.5c0-0.1,0.1-0.2,0.2-0.4c0.1-0.2-0.4-0.4-0.5-0.2c-0.3,0.3-0.3,0.7-0.2,1.1c0.1,0.5,0.2,1,0.7,1.3c0.7,0.5,1.6,0.2,2.3,0.1C28.6,11.6,28.5,11.1,28.1,11.2"/><path class="st3" d="M21.9,10.8c-0.1,0-0.2,0-0.4-0.2c0,0-0.2-0.1-0.2-0.2c-0.1-0.1-0.2-0.3-0.2-0.3c0,0,0,0,0,0c0-0.1,0.1-0.1,0-0.2c0-0.3-0.5-0.3-0.6,0c-0.3,0.7,1.1,1.8,1.8,1.4C22.6,11,22.2,10.8,21.9,10.8"/><path class="st3" d="M35.3,9.5c-0.4,0-0.6,0.1-0.8,0.1c-0.9,0.1-1.4,0.1-1.6-0.2c-0.1-0.2-0.1-0.4-0.2-0.7c-0.1-0.3-0.6-0.2-0.5,0.1c-0.1,0.6,0.3,1.3,1.1,1.4c0.7,0.1,1.5,0,2.2-0.2C35.6,9.9,35.5,9.6,35.3,9.5"/><path class="st3" d="M43.5,13c-0.2,0-0.3,0-0.6-0.1c-0.2,0-1.1-0.9-1.1-1.1c-0.1-0.1-0.1-0.3-0.2-0.4c-0.2-0.1-0.5,0.1-0.4,0.3c0.1,0.4,0.4,0.7,0.7,1c0.4,0.5,1,0.9,1.8,0.8c0.2,0,0.6,0,0.6-0.3C44.2,12.8,43.7,12.9,43.5,13"/></g></g><g><path class="st3" d="M62.9,30.3c-0.2-0.5-0.7-0.9-1.3-1c-0.1,0-0.3-0.1-0.4-0.1c0-1.2-0.1-2.4-0.7-3.5c-0.7-1.3-2.1-2.3-3.5-2.9c-1.4-0.5-3-0.3-4.4,0.2c-0.2,0.1-0.3,0.1-0.5,0.1c0.2-0.2,0.4-0.5,0.6-0.8c0.4-0.5,0.5-1.1,0.5-1.7c0-0.9,0-1.8-0.1-2.6c-0.4-0.9-1.1-1.6-2.1-2.1c-1-0.4-2.1-0.7-3.2-0.9c-1.4,0.1-2.8,0.5-4.1,1.1c-0.8,0.4-1.7,0.9-2.4,1.4c0.1-0.5,0.2-1.2,0.1-1.8c-0.3-0.9-0.7-1.8-1.5-2.5c-1.7-1.1-4-1.9-6.1-1.4c-1.1,0.3-2.2,0.8-3.2,1.4c-1.2,0.9-2.4,2.1-3.3,3c0-0.1,0-0.2,0-0.3c0-2.7-3.1-3.9-5.9-3.1c-3.3,0.8-6.3,2.6-7.7,5.2c-0.3,0.6-0.5,1.3-0.5,2c-0.2,0.1-0.5,0.3-0.7,0.4c-1.8,1.1-3.1,2.5-4.3,4.1c-1.1,1.1-1.3,2.6-1,4c0.2,0.5,0.3,1,0.6,1.4c0.4,0.5,1,0.8,1.6,1c2.2,0.8,4.4-0.4,6.1-1.6c-0.2,0.6-0.4,1.3-0.5,1.9c-0.1,1.2-0.4,2.6,0.9,3.3c1.8,1.3,4.5,0.7,6.4-0.1c0.3-0.1,0.9-0.3,1.4-0.6C23,35,22.7,36,22.6,37.2c-0.1,1-0.2,2,0.3,2.9c0.3,0.5,0.6,1,1.1,1.4c0.9,0.6,1.8,1.1,2.9,1.2c1.6,0.2,3-0.5,4.3-1.1c1.9-0.8,3.2-2.1,4.2-3.6c-0.1,0.6-0.1,1.2-0.1,1.8c0.2,2,2.1,4.2,4.7,3.5c0.7-0.2,1.5-0.4,2.1-0.7c1.1-0.7,1.8-1.6,2.4-2.6c0.2-0.2,0.3-0.5,0.5-0.8c0,1.6,0.3,3.3,2.1,3.9c1.3,0.3,2.6-0.3,3.5-1c0.9-0.7,1.5-1.5,1.9-2.5c0.2,0.2,0.5,0.3,0.8,0.4c0.4,0.2,0.7,0.3,1.1,0.4c0.9,0.3,1.8,0.4,2.7-0.1c0,0,0,0,0.1,0c0.9-0.2,1.7-0.5,2.3-1.2c0.7-0.7,1-1.7,0.9-2.7c0.4-0.2,0.7-0.5,1-0.7c1.2-0.8,1.8-2.2,1.9-3.5C63.5,31.7,63.2,31,62.9,30.3"/><g><path class="st8" d="M13.1,24c0.2-0.2-0.1-0.5-0.3-0.3c-0.7,0.4-1.5,0.7-1.9,1.4c-0.4,0.6-0.4,1.8,0.7,2.1c0.2,0,0.4-0.2,0.3-0.4c-0.1-0.1-0.2-0.1-0.4-0.2c0,0,0,0,0,0c-0.5-0.4-0.4-1.2,0.2-1.7C12.1,24.5,12.6,24.3,13.1,24"/><path class="st8" d="M20.1,16.4c-0.5-0.1-0.8-0.1-1.3,0.1c-0.5,0.1-0.9,0.5-1.2,0.8c-0.3,0.5-0.5,1.1-0.4,1.7c0,0.1,0,0.3,0.2,0.3c0.2,0.1,0.3-0.1,0.3-0.2c-0.1-1,0.4-2,1.3-2.2c0.5-0.1,0.4-0.2,0.7-0.1c0.2,0,0.3,0.1,0.5,0C20.4,16.7,20.4,16.4,20.1,16.4"/><path class="st8" d="M34.6,21.2c-0.7,0.2-1.2,0.6-1.8,0.9c-0.3,0.2-0.6,0.4-0.7,0.7c-0.4,0.9-0.1,2.2,1.2,2.4c0.3,0,0.4-0.3,0.2-0.5c-0.1-0.1-0.3-0.1-0.6-0.3c-0.3-0.2-0.5-1.4-0.1-1.8c0.5-0.4,1.3-0.9,1.9-1.1C35.1,21.6,34.9,21.1,34.6,21.2"/><path class="st8" d="M36.8,16.4c-0.2-0.2-0.8-0.6-1.3-0.7c-0.4,0-0.8,0.1-1.1,0.2c-0.6,0.2-1.1,0.7-1.5,1.1c-0.1,0.1-0.1,0.2-0.1,0.3c0.1,0.2,0.3,0.2,0.4,0.1c0.4-0.4,0.7-0.7,1.1-0.9c0.1-0.1,0.8-0.2,0.9-0.2c0.3,0,0.5,0.2,0.8,0.4C36.5,16.8,36.9,16.7,36.8,16.4"/><path class="st8" d="M46.8,18.4c-1.2,0-2.6,0.4-3.1,1.5c-0.2,0.3-0.2,0.6-0.2,0.9c0,0.1,0,0.3,0.2,0.4c0.2,0.1,0.4,0,0.5-0.2c0-0.2,0-0.1,0-0.4c0-0.3,0.3-0.8,0.8-1.1c0.2-0.1,1.4-0.5,1.8-0.5C47.2,19.1,47.3,18.5,46.8,18.4"/><path class="st8" d="M39.4,22.4c-0.6,0.8-1.4,1.9-1,2.9c0.1,0.2,0.3,0.4,0.6,0.4c0.4-0.2,0.1-0.5,0.1-0.5c0,0,0,0,0,0C39,25,39,24.9,38.9,24.8c0-0.7,0.4-1.4,1-2.1C40.2,22.4,39.6,22.1,39.4,22.4"/><path class="st8" d="M49.4,29.8c-0.2-0.8-0.8-1.5-1.9-1.6c-0.6,0-1.1,0.2-1.7,0.4c-0.2,0.1-0.5,0.2-0.4,0.4c0,0.2,0.3,0.3,0.5,0.2c1-0.5,1.9-0.7,2.4-0.1c0.3,0.2,0.5,1.1,0.6,1.4c0,0.3,0.4,0.4,0.6,0.2C49.7,30.4,49.5,30,49.4,29.8"/><path class="st8" d="M49.6,24.3c-0.4-0.3-1-0.4-1.6-0.4c-0.5,0-1,0-1.5,0.2c-0.5,0.1-0.4,0.7,0.1,0.5c0.7-0.3,2.2-0.3,2.7,0.1c0.1,0.1,0,0.1,0.2,0.2C50,24.9,50,24.5,49.6,24.3"/><path class="st8" d="M57.1,25.7c-0.6,0.1-1,0.4-1.5,0.7c-0.4,0.2-0.8,0.5-1,0.8c-0.3,0.5-0.1,1.1,0.3,1.6c0.1,0.1,0.2,0.3,0.4,0.4c0.2,0.1,0.4-0.1,0.4-0.3c0-0.2-0.3-0.4-0.4-0.6c-0.2-0.4-0.3-0.6,0-1c0.1-0.1,1.3-0.9,1.7-1c0.2-0.1,0.4-0.1,0.5-0.2C57.6,25.9,57.3,25.6,57.1,25.7"/><path class="st8" d="M58.1,35.2c-0.5-0.4-1.3-0.4-2-0.3c-0.5,0.1-0.9,0.5-1.2,0.9c-0.3,0.3-0.6,0.7-0.6,1.2c0,0.3,0.5,0.3,0.6,0c0.1-0.5,0.7-1.2,1-1.4c0.3-0.3,0.8-0.2,1-0.2c0.7,0,0.7,0.2,1.1,0.4C58.4,35.8,58.4,35.4,58.1,35.2"/><path class="st8" d="M60.4,31.5c-0.3-0.3-1.1-0.6-1.8-0.4c-0.4,0.1-0.9,0.1-1.3,0.4c-0.2,0.2,0.1,0.6,0.4,0.4c0.7-0.4,1.8-0.4,2.1,0c0.2,0.1,0.4,0.3,0.6,0.4c0.2,0.1,0.4-0.1,0.4-0.2C61,31.8,60.6,31.7,60.4,31.5"/></g></g><g><path class="st14" d="M30.1,28.8c-1.2-0.2-2.5,0.1-3.7,0.1c-1.4,0.1-3-0.2-4.6,0.1c1.2-1.1,2.5-2,3.8-3.4c1.7-1.8,3.5-3.5,5.4-5.2c0.5-0.3,0.6-0.9-0.1-1.2c-1.5-0.5-6.4-0.6-6.7-0.5c-0.3,0.1-5.1,6.9-7.5,9.9c-1.2,1.3-2.5,2.6-3.4,4.1c-0.2,1.2,1.6,0.4,6.2,0.5c0.5,0,1.4,0,2-0.1c-0.2,0.2-5.2,7-7.5,11.3c0,0.4,0.4,0.6,0.8,0.5c0.4-0.2,0.7-0.6,1-0.9c1.1-1.1,2.3-2,3.4-3.1c2.2-2.2,4.4-4.4,6.6-6.6c1.2-1.1,2.4-2.2,3.5-3.4C29.8,30.4,31.2,29.4,30.1,28.8"/><path class="st6" d="M26.1,30c-0.4,0.1-0.8,0.2-1.1,0.3c-0.4,0.1-1.4,0.1-1.8,0.2c-1.6,0.3-3.3,0.3-5.1,0.6c-0.3,0.1-0.9,0.3-1.3,0.4c1.4-1.6,2.6-2.8,3.9-4.3c1.1-1.4,1.9-2.4,3.1-3.6c0.9-1.1,2-2.3,2.8-3.6c0-0.2-0.3-0.3-0.5-0.1c-1.8,2.7-4,4.7-5.9,7.1c-0.7,0.7-1.5,1.7-2.3,2.5c-0.5,0.5-1,1.1-1.5,1.7c-0.1,0.1-0.4,0.4-0.5,0.7c0,0.6,0.9,0.3,1.3,0.2c0.7-0.2,1.3-0.4,1.8-0.4c1.4-0.1,3.2-0.3,4.3-0.4c0.6-0.1,1.2-0.1,1.8-0.2c0.4-0.1,0.8-0.2,1.2-0.3c-1,1.8-2.7,3.6-4.2,5.2c-1.8,1.7-3.6,3.5-4.9,5.1c-0.1,0.1-0.7,0.7-0.8,0.9c0,0.2,0.4,0.4,0.5,0.2c1-1,1.8-2.3,3.1-3.5c2-2,4.1-4,5.8-6.2c0.5-0.6,0.8-1.3,1.2-1.9C27.3,29.8,26.4,29.9,26.1,30"/></g><g><path class="st8" d="M51.4,38.8c-0.3-0.3-0.8-0.7-1.2-0.9c0.3-0.2,0.6-0.5,0.7-0.8c0.6-1.4-0.7-2.7-2-3.4c-1.5-0.9-3.1-1.2-4.7-0.7c0.1-0.4,0.4-0.9,0.3-1.3c-0.1-0.9-0.8-1.7-1.6-2.2c-1.1-0.9-2.5-1.7-4-0.9c-0.3,0.2-0.6,0.5-0.8,0.7c-1-0.2-2.1-0.1-3.1,0.1c-1.4,0.3-2.2,1.6-2,2.8c0,0.2,0,0.5,0.1,0.7c-0.2-0.1-0.5-0.1-0.7-0.1c-0.6,0-1.1,0.2-1.7,0.4c-0.6,0.2-1.3,0.4-1.8,0.8c-0.6,0.4-1,0.9-1.3,1.5c-0.2,0.4-0.4,0.8-0.4,1.2c0.1,0.4,0.1,0.7,0.3,1.1c0,0,0,0.1,0.1,0.1c-0.2,0-0.3,0.1-0.4,0.1c-0.7,0.2-1.4,0.4-2,0.9c-0.5,0.4-0.9,0.9-1.1,1.4c-0.2,0.5-0.2,1.1-0.1,1.6c0.1,1.1,1.2,2.1,2.4,2.3c1.2,0.1,2.5-0.3,3.6-0.8c0.5-0.3,1-0.6,1.5-0.9c0.1,0.8,0.6,1.5,1.3,1.9c1.3,0.7,2.8,0.4,3.9-0.5c0.4-0.4,0.9-0.7,1.3-1.1c0,0,0,0.1,0,0.1c0.2,0.6,0.5,1.1,1.1,1.4c0.6,0.3,1.3,0.5,2,0.5c1.2-0.2,2.2-0.7,3.1-1.4c0.1,0,0.3-0.2,0.6-0.4c0.1,0.3,0.2,0.5,0.4,0.7c0.1,0.1,0.2,0.3,0.6,0.5c0.4,0.2,0.7,0.5,1.2,0.5c1.4,0.1,2.8-0.5,3.9-1.3c0.4-0.2,0.6-0.5,0.8-0.9c0.3-0.5,0.6-1,0.7-1.6C52.5,40.2,52.1,39.4,51.4,38.8"/><g><path class="st7" d="M27.9,39.6c-0.6,0.5-1.4,1.6-0.8,2.3c0.2,0.2,0.4,0.4,0.7,0.3c0.2,0,0.2-0.2,0.2-0.3c-0.2-0.2-0.3-0.2-0.4-0.2c0,0,0,0,0,0c0,0-0.1-0.1-0.1-0.1c0,0,0,0,0,0c0,0,0,0,0,0c0,0,0,0,0-0.1c-0.1-0.4,0.3-1,0.6-1.3c0.1-0.1,0.3-0.2,0.3-0.4C28.3,39.5,28,39.4,27.9,39.6"/><path class="st7" d="M33.5,35c-0.6,0.3-0.9,0.8-1.2,1.4c-0.2,0.4-0.4,0.9-0.2,1.3c0.2,0.4,0.9,0.7,1.4,0.6c0.2-0.1,0.2-0.3,0-0.4c-0.2-0.1-0.3,0-0.4-0.1c-1.1-0.2-0.5-1.4,0.3-2.2c0.2-0.2,0.2-0.1,0.4-0.3C34,35.1,33.7,34.9,33.5,35"/><path class="st7" d="M37.4,40.9c-0.3,0-0.6,0.3-0.9,0.4c-0.9,0.6-1.3-0.1-1.3-1.2c0-0.3-0.6-0.3-0.6,0c0,0.6,0.1,1.2,0.6,1.6c0.4,0.3,1,0.3,1.4,0c0.3-0.2,0.9-0.4,1-0.6C37.6,41.1,37.5,40.9,37.4,40.9"/><path class="st7" d="M40.5,31.1c-1.3,0-2.7,0.5-3.4,1.5c-0.2,0.6,0.5,1.3,1,1.6c0.2,0.1,0.5,0.1,0.5-0.1c0-0.4-0.4-0.4-0.7-0.8c0.1,0.1-0.2-0.2-0.3-0.4c0,0,0-0.1,0-0.1c0,0,0,0,0,0c0.2-0.4,1.2-0.9,2.1-1.1c0.1,0,0.5,0,0.8-0.1C40.9,31.5,40.8,31.1,40.5,31.1"/><path class="st7" d="M41.9,37.7c-0.1-0.1-0.3-0.1-0.4,0c-0.3,0.1-0.3,0.1-0.7,0.2c-1.1,0.2-1.4-0.6-0.7-1.9c0.1-0.4-0.5-0.5-0.6-0.2c-0.3,0.6-0.6,1.3-0.3,2c0.5,1,1.9,0.8,2.8,0.3C42,38,42,37.8,41.9,37.7"/><path class="st7" d="M44.2,41.3c-0.3,0.3-0.3,0.3-0.6,0.5c-0.4,0.2-0.4,0.2-0.6,0.1c-0.2-0.2-0.3-0.5-0.4-0.9c-0.1-0.4-0.7-0.2-0.6,0.1c0.1,0.5,0.3,1.2,1,1.4c0.7,0.1,1.4-0.4,1.7-0.9C44.7,41.4,44.4,41.2,44.2,41.3"/><path class="st7" d="M50.1,40.6c-0.1-0.1-0.3-0.1-0.4-0.1c-0.2,0.1-0.2,0.3-0.3,0.5c0,0.1-0.1,0.1-0.1,0.2c0,0,0,0,0,0c0,0,0,0,0,0c-0.1,0.1-0.5,0.1-0.6,0.1c-0.1,0-0.2,0-0.3-0.1c0,0,0,0,0,0c-0.3-0.4-0.9-0.1-0.6,0.3C48,42,49,42,49.6,41.6c0.2-0.2,0.2-0.2,0.4-0.4c0,0,0.1-0.2,0.1-0.3C50.1,40.8,50.1,40.7,50.1,40.6"/><path class="st7" d="M47.6,36.1c-0.2,0-0.4,0.2-0.5,0.2c-0.3,0.1-0.4,0.2-0.7,0.2c-0.1,0-0.3-0.3-0.5-1c-0.1-0.1,0-0.3,0-0.5c-0.1-0.3-0.6-0.2-0.6,0.1c0,0.4,0.1,0.8,0.2,1.2c0.1,0.3,0.2,0.6,0.6,0.7c0.5,0.1,0.9,0,1.3-0.2c0.2-0.1,0.4-0.2,0.5-0.3C47.9,36.3,47.7,36.1,47.6,36.1"/></g></g></g></g></g></g><g><g><path class="st14" d="M55.7,0.2c-0.2,0-0.4,0.1-0.6,0.1c-1.6,0.4-3.1,1.1-4.4,2c-1.1,0.8-2.2,1.7-3,2.8c-1.3,1.6-2.3,3.3-2.9,5.3c-1,3.3-0.8,6.5,0.5,9.7c0.6,1.5,1.5,2.8,2.5,4c2.1,2.3,4.8,3.8,7.9,4.4c2.8,0.5,5.5,0.2,8.2-0.9c0.8-0.3,1.5-0.7,2.2-1.2c0,0,0.1,0,0.1,0c-0.2,0.6-2.9,3-4.6,4c-1.8,1-3.7,1.7-5.8,2c-2.1,0.3-4.1,0.2-6.1-0.3c-9.1-2.2-14.2-11.3-12-19.9C40,3.6,48.3-0.9,55.7,0.2z"/><path class="st22" d="M46.8,32.3c-0.1,0-0.2,0-0.2-0.1C46,32,45.5,31.6,45,31.3c-2.8-1.8-4.9-4.1-6.4-7.1c-0.1-0.1-0.1-0.3-0.2-0.4c0,0,0-0.1,0-0.1c0.1,0,0.1,0,0.1,0c0.1,0.1,0.1,0.2,0.2,0.3c0.7,1.3,1.5,2.6,2.5,3.7c1.4,1.6,3,2.8,4.8,3.9c0.3,0.2,0.6,0.3,0.8,0.4c0.1,0,0.1,0.1,0.1,0.2C47,32.3,46.9,32.3,46.8,32.3z"/><path class="st22" d="M38.5,26.8c0.1,0,0.2,0.1,0.3,0.2c1.1,1.2,2.2,2.3,3.5,3.3c0.3,0.2,0.5,0.4,0.8,0.6c0.1,0.1,0.3,0.2,0.2,0.3c-0.1,0.2-0.2,0.1-0.4,0c-0.8-0.5-1.5-1.1-2.2-1.7c-0.8-0.7-1.5-1.5-2.2-2.4c-0.1-0.1-0.1-0.1-0.2-0.2C38.4,26.8,38.4,26.8,38.5,26.8z"/><path class="st22" d="M37.3,11.7c0.1,0.1,0,0.2,0,0.2c-0.6,1.1-0.8,2.2-0.8,3.3c0,0.5-0.1,1.1,0.1,1.6c0,0.1,0,0.2,0,0.3c0,0.1,0,0.1-0.1,0.1c-0.1,0-0.2-0.1-0.2-0.1c0-0.1-0.1-0.2-0.1-0.3c0-1.6,0.1-3.2,0.8-4.7C37.1,11.8,37.1,11.8,37.3,11.7z"/><path class="st22" d="M46,32.6c-0.4-0.1-0.7-0.2-1-0.5c0,0-0.1-0.1-0.1-0.1c0-0.1,0.1-0.1,0.1,0c0.1,0,0.1,0,0.1,0.1c0.3,0.2,0.5,0.3,0.8,0.3c0.1,0,0.2,0.1,0.1,0.2C46.2,32.6,46.1,32.6,46,32.6z"/><path class="st22" d="M38.1,10.1c-0.1,0.3-0.2,0.6-0.4,0.9c0,0,0,0-0.1,0c0,0-0.1,0,0-0.1C37.7,10.7,37.8,10.3,38.1,10.1C38,10.1,38,10.1,38.1,10.1z"/></g><g><path class="st6" d="M51.7,0.7c-1.8,0.8-3.5,1.7-5.3,2.6c-0.8,0.4-1.5,0.7-2.2,1.3c-0.6,0.4-1,1-1.4,1.7c-0.7,1.3-0.9,2.8-1.4,4.1c-0.3,0.8-0.7,1.5-1,2.3c-0.4,0.8-0.7,1.6-0.9,2.5c-0.6,3.1-0.3,6.7,1.6,9.3c1,1.4,2.4,2.4,3.7,3.5c1.3,1,2.7,2,4.2,2.6c0.8,0.3,1.6,0.6,2.4,0.7c0.9,0.1,1.8,0.1,2.8-0.1c0.9-0.2,1.8-0.4,2.8-0.6c0.9-0.2,1.9-0.5,2.8-0.7c0.5-0.1,0.9-0.2,1.4-0.3c0.1,0,0.1-0.3-0.1-0.2c-1.9,0.4-3.7,0.9-5.6,1.3c-0.9,0.2-1.8,0.4-2.7,0.4c-0.9,0-1.8-0.1-2.6-0.3c-1.6-0.4-3-1.3-4.3-2.3c-0.7-0.5-1.3-1-1.9-1.5c-0.6-0.5-1.3-1.1-1.8-1.7c-1.1-1.2-1.9-2.6-2.3-4.2c-0.4-1.5-0.4-3.1-0.3-4.7c0.1-0.9,0.2-1.7,0.5-2.6c0.3-0.8,0.8-1.6,1.2-2.4c0.6-1.3,0.8-2.8,1.4-4.2c0.3-0.7,0.6-1.3,1-1.8c0.5-0.6,1.2-1.1,1.9-1.4c0.8-0.4,1.6-0.8,2.4-1.2c0.8-0.4,1.7-0.8,2.5-1.3c0.4-0.2,0.8-0.4,1.2-0.6C51.8,0.8,51.8,0.7,51.7,0.7L51.7,0.7z"/></g><g><path class="st6" d="M42.8,18.6c-0.1,0.2-0.1,0.4-0.1,0.7c0,0.2,0.1,0.4,0.2,0.5c0.3,0.3,0.6-0.1,0.7-0.3c0.1-0.2,0.1-0.4,0.1-0.6c0-0.2,0-0.5,0-0.7c0-0.4-0.1-0.9-0.3-1.2c-0.2-0.3-0.4-0.6-0.8-0.5C42.2,16.4,42,16.7,42,17c-0.2,0.8-0.3,1.7-0.1,2.5c0.1,0.8,0.4,1.6,0.8,2.4c0.5,0.8,1.1,1.4,1.8,2c0.7,0.7,1.5,1.3,2.3,2c0.4,0.3,0.8,0.7,1.2,1c0.3,0.3,0.7,0.6,1,0.8c0.4,0.2,0.8,0.3,1.2,0.3c0.2,0,0.5,0,0.7,0c0.2,0,0.4,0.2,0.6,0.3c0.3,0.3,0.7,0.5,1.1,0.7c0.4,0.2,0.8,0.3,1.2,0.3c0.2,0,0.4,0,0.6,0c0.2,0,0.2-0.3,0-0.3c-0.8,0.1-1.6-0.1-2.2-0.5c-0.3-0.2-0.6-0.5-0.9-0.6c-0.4-0.2-0.8-0.1-1.2-0.1c-0.8,0-1.4-0.6-2-1.1c-0.7-0.6-1.4-1.2-2.1-1.8c-1.2-1.1-2.6-2.1-3.3-3.6c-0.3-0.7-0.5-1.4-0.6-2.2c0-0.4,0-0.8,0-1.1c0-0.3,0.1-0.7,0.2-1c0.1-0.2,0.2-0.3,0.4-0.3c0.2,0,0.3,0.2,0.4,0.3c0.2,0.4,0.3,0.8,0.3,1.2c0,0.2,0,0.5,0,0.7c0,0.2,0,0.5-0.1,0.6c0,0.1-0.1,0.2-0.2,0.1c-0.1,0-0.1-0.2-0.2-0.2c-0.1-0.2,0-0.5,0-0.7C43,18.5,42.8,18.5,42.8,18.6L42.8,18.6z"/></g><g><polygon class="st23" points="45.6,20.8 45.6,20.7 45.6,20.8 "/></g><g><path class="st24" d="M48.1,4.5c-0.8,0.7-1.4,1.6-2,2.5c-0.5,0.9-1,1.9-1.3,2.9c-0.1,0.3-0.2,0.6-0.2,0.9c0,0.2-0.1,0.3-0.1,0.5c0,0.1-0.1,0.3-0.1,0.5c0,0.1,0.2,0.2,0.2,0.1c0.1-0.2,0.1-0.5,0.2-0.8c0.1-0.3,0.1-0.5,0.2-0.8c0.2-0.5,0.3-1,0.5-1.5c0.4-1,0.9-1.9,1.5-2.8c0.3-0.5,0.7-0.9,1.1-1.4C48.2,4.5,48.1,4.4,48.1,4.5L48.1,4.5z"/></g><g><path class="st24" d="M52.8,27.7c2.3,0.8,4.8,1.1,7.2,0.8c0.7-0.1,1.4-0.2,2-0.3c0.2,0,0.1-0.3-0.1-0.3c-2.3,0.5-4.8,0.5-7.2,0.1c-0.7-0.1-1.3-0.3-1.9-0.5C52.7,27.4,52.7,27.7,52.8,27.7L52.8,27.7z"/></g><g><path class="st24" d="M46.7,1.6c0.2-0.1,0.4-0.2,0.6-0.3c0.2-0.1,0.4-0.2,0.6-0.3c0.4-0.2,0.9-0.3,1.3-0.4c0.9-0.2,1.8-0.4,2.8-0.4c0.5,0,1.1,0,1.6,0c0.2,0,0.1-0.2,0-0.2c-1.9-0.1-3.8,0.2-5.6,0.8c-0.3,0.1-0.5,0.2-0.7,0.3c-0.2,0.1-0.5,0.2-0.7,0.3C46.6,1.5,46.6,1.6,46.7,1.6L46.7,1.6z"/></g><g><path class="st25" d="M40.6,9.7C40.7,9.7,40.7,9.7,40.6,9.7C40.6,9.7,40.6,9.7,40.6,9.7L40.6,9.7z"/></g><path class="st25" d="M39,10.5c0-0.1-0.1-0.2-0.2-0.1c-0.1,0.2-0.2,0.3-0.3,0.5c-0.1,0.2-0.1,0.4-0.2,0.6c-0.1,0.4-0.2,0.8-0.2,1.2c0,0.1,0.1,0.2,0.2,0.2c0.1,0,0.2-0.1,0.2-0.2c0-0.4,0.1-0.8,0.2-1.1c0-0.2,0.1-0.4,0.2-0.6C38.9,10.9,39,10.7,39,10.5z"/><path class="st25" d="M39.3,12.3C39.3,12.3,39.3,12.2,39.3,12.3C39.3,12.2,39.3,12.2,39.3,12.3C39.3,12.2,39.3,12.2,39.3,12.3c0-0.1,0-0.2-0.1-0.2c-0.1,0-0.1,0-0.2,0.1c0,0,0,0.1,0,0c0,0,0,0.1,0,0.1c0,0,0,0.1,0,0.1c0,0,0,0,0,0c0,0,0,0,0,0c0,0,0,0,0,0c0,0,0,0.1,0,0.1c0,0.1,0,0.1,0,0.2c0,0.1,0,0.2,0,0.3c0.1,0.1,0.2,0.1,0.3,0c0,0,0.1-0.1,0.1-0.1c0,0,0,0,0-0.1c0,0,0-0.1,0-0.1c0-0.1,0-0.1,0-0.2c0,0,0,0,0,0C39.2,12.4,39.2,12.4,39.3,12.3C39.3,12.3,39.3,12.3,39.3,12.3z"/><path class="st25" d="M44.3,28.6c-0.2-0.1-0.4-0.2-0.6-0.3c-0.1-0.1-0.2-0.1-0.3-0.2c-0.1-0.1-0.2-0.1-0.2-0.2c-0.1-0.1-0.2-0.1-0.2,0c-0.1,0.1-0.1,0.2,0,0.2c0.3,0.4,0.7,0.6,1.1,0.8c0.1,0.1,0.2,0,0.3-0.1C44.4,28.8,44.4,28.7,44.3,28.6z"/><path class="st25" d="M40.7,24.6C40.6,24.5,40.6,24.5,40.7,24.6c-0.1-0.2-0.1-0.3-0.2-0.4c-0.1-0.2-0.3-0.4-0.4-0.6c-0.1-0.1-0.2-0.1-0.2,0c-0.1,0-0.1,0.1-0.1,0.2c0,0.4,0.2,0.8,0.5,1c0,0.1,0.1,0.1,0.1,0.2c0,0,0.1,0,0.1,0c0,0,0,0,0,0c0.1,0.1,0.2,0.1,0.3,0c0.1-0.1,0.1-0.2,0.1-0.3C40.7,24.7,40.7,24.6,40.7,24.6z"/><path class="st25" d="M52.9,29.7c-0.4-0.2-0.8-0.3-1.2-0.3c-0.1,0-0.2,0.1-0.2,0.1c0,0.1,0,0.2,0,0.2c0.1,0.1,0.2,0.2,0.4,0.2c0.1,0,0.1,0,0.2,0c0,0,0,0,0,0c0,0,0,0,0.1,0c0.2,0,0.4,0.1,0.6,0c0.1,0,0.2-0.1,0.2-0.2C53,29.9,53,29.8,52.9,29.7z"/><path class="st26" d="M42.6,5.1C42.6,5.1,42.6,5.1,42.6,5.1C42.6,5,42.5,5,42.4,5c0,0-0.1,0.1-0.1,0.1c0,0,0,0,0,0c0,0,0,0,0,0c0,0-0.1,0-0.1,0.1c0,0,0,0,0,0c0,0,0,0-0.1,0.1c0,0-0.1,0.1-0.1,0.1c-0.1,0.1-0.2,0.3-0.3,0.5c0,0.1,0,0.2,0,0.2c0.1,0.1,0.2,0,0.2,0c0.3-0.2,0.5-0.5,0.7-0.8C42.7,5.3,42.7,5.2,42.6,5.1C42.6,5.1,42.6,5.1,42.6,5.1z"/><path class="st25" d="M40.1,15.5C40.1,15.5,40.1,15.5,40.1,15.5C40.2,15.5,40.2,15.5,40.1,15.5z"/><path class="st25" d="M40,16.5c0.1,0,0.1-0.1,0.2-0.1c0.1-0.1,0.1-0.3,0.1-0.4c0-0.1,0-0.1,0-0.2c0,0,0-0.1,0-0.1c0,0,0-0.1-0.1-0.1c0,0,0,0-0.1,0c0,0,0,0,0,0c0,0-0.1,0-0.1,0c0,0,0,0,0,0c0,0,0,0-0.1,0c0,0-0.1,0-0.1,0.1c-0.1,0.3-0.1,0.5-0.1,0.8C39.8,16.5,39.9,16.5,40,16.5z"/><path class="st25" d="M40.2,17C40.2,17,40.2,17,40.2,17c-0.1,0.3-0.1,0.5,0,0.8c0,0.1,0.1,0.1,0.2,0.1c0,0,0.1,0,0.1,0c0,0,0.1-0.1,0.1-0.1c0-0.1,0-0.3,0-0.4c0-0.1,0-0.2,0-0.4c0,0,0-0.1,0-0.1c0,0-0.1-0.1-0.1,0C40.3,16.8,40.2,16.9,40.2,17z"/></g></g></g></svg>