<?xml version="1.0" encoding="utf-8"?>
<svg version="1.1" xmlns="http://www.w3.org/2000/svg" xmlns:xlink="http://www.w3.org/1999/xlink" x="0px" y="0px" viewBox="0 0 65.8 66.3" style="enable-background:new 0 0 65.8 66.3;" xml:space="preserve"><style type="text/css">.st0{fill:#FFFFFF;}.st1{fill:#8CA2CF;}.st2{clip-path:url(#SVGID_00000021820338973796942860000010597570163663874441_);}.st3{fill:#627EB5;}.st4{fill:#8CA05C;}.st5{fill:#677724;}.st6{fill:#E0A955;}.st7{fill:#BBD7FF;}.st8{fill:#3C5987;}.st9{clip-path:url(#SVGID_00000174568289162176092760000000506822820509847994_);}.st10{fill:#669CD3;}.st11{clip-path:url(#SVGID_00000147185945164128501690000014383621877537134489_);}.st12{fill:#92C4FC;}.st13{fill:#FAF4D2;}.st14{fill:#FCCB7C;}.st15{clip-path:url(#SVGID_00000176743700980065856330000017358236832254966700_);}.st16{clip-path:url(#SVGID_00000113353409784125746130000004105515527523982474_);}.st17{fill:#C5CAF0;}.st18{clip-path:url(#SVGID_00000051374145783867005800000001956497770091130005_);}.st19{clip-path:url(#SVGID_00000042707338281361999280000013046294945023412379_);}.st20{clip-path:url(#SVGID_00000039111660350900721950000005719666134350503815_);}.st21{clip-path:url(#SVGID_00000010294288334086903460000004883279187258191543_);}.st22{fill:#F9CC3D;}.st23{fill:#FFEAAE;}.st24{fill:#FFECB8;}.st25{fill:#D3AA37;}.st26{fill:#FFE08A;}.st27{clip-path:url(#SVGID_00000061453215791238960170000006952278576106948761_);}.st28{clip-path:url(#SVGID_00000173883220156423566590000003950415757203957936_);}.st29{clip-path:url(#SVGID_00000145032676842142011840000000262555606097437366_);}.st30{clip-path:url(#SVGID_00000155132017032447265050000008537921365832371367_);}.st31{clip-path:url(#SVGID_00000008853057576143650780000011324679265979713720_);}.st32{clip-path:url(#SVGID_00000003070689200563624780000018104412693668556445_);}.st33{clip-path:url(#SVGID_00000049180130107531460000000012885031395995331726_);}.st34{clip-path:url(#SVGID_00000150807073070560706920000004482774284893730180_);}.st35{clip-path:url(#SVGID_00000044136197745348356940000002844089274816987783_);}</style><g ></g><g ><g><path class="st17" d="M12,39.3c-0.1-0.2-0.4-0.2-0.5,0c-0.2,0.1-0.5,0.3-0.8,0.4c-0.1,0.1-0.7,0-1.2-0.2c-0.2,0-0.2-0.2-0.5-0.1c-0.2,0.1-0.2,0.5-0.4,0.7c-0.4,0.5-1,1.1-1.7,1.2c-0.6,0.2-1.3,0-1.9-0.2c-0.3-0.1-0.4,0.3-0.1,0.4c1.5,0.5,2.8,0.2,3.9-1c0.2-0.2,0.4-0.5,0.5-0.8c0.7,0.3,1.4,0.6,2,0.1c0.2-0.1,0.4-0.2,0.6-0.4C11.9,39.5,12,39.4,12,39.3"/><path class="st17" d="M8.7,43.2c-0.3-0.1-0.6,0.3-0.8,0.4c-0.4,0.3-1.1,0.5-1.6,0.3c-0.1,0-0.3-0.1-0.3-0.1c-0.1-0.1-0.2-0.2-0.3-0.2c-0.3,0-0.3,0.3-0.5,0.4c-0.3,0.3-0.5,0.3-0.9,0.4c-0.3,0-1-0.1-1.2-0.2c-0.1,0-0.2-0.2-0.4-0.2c-0.2,0-0.2,0.2-0.1,0.3c0.8,0.5,2.2,0.6,2.8-0.2c0.1-0.1,0.1-0.1,0.2-0.2c0.3,0.2,1,0.4,1.5,0.2c0.6-0.1,1-0.5,1.5-0.8C8.9,43.4,8.8,43.2,8.7,43.2"/><path class="st8" d="M65.8,41.8c0-3.7-0.1-7.5-0.8-11.1c-0.1-1.7-0.7-3.3-1.2-4.9c0-0.1,0-0.1-0.1-0.2c0.1,0.2,0.1,0.3,0,0c0-0.1-0.1-0.2-0.1-0.2c0,0.1,0,0.1,0.1,0.2c0,0,0,0,0,0c-0.5-1.7-1-3.4-1.9-4.9c-2-3-3.9-6.3-6.9-8.5c-2.6-1.7-3.1-1.6-5.7-2.9c-0.3-0.2-2-1-3.7-1.6C42.4,7,39.3,6.1,36,6.2c-3.6,0.4-7.3,0.8-10.8,1.9c-2.8,0.9-5.4,2.2-8,3.6c-1.6,0.9-3,2.1-4.4,3.2c-1.7,1.3-3.4,2.8-4.9,4.3c-1.9,2.1-2.7,5-3.1,7.7c-0.1,1.2,0.2,2.4,0.5,3.6c1.7,6.8-4.3,14-4.8,15.6c-0.6,2.2-0.9,4.5-0.2,7.3c0.3,1,0.7,1.9,1.1,2.8c0.6,1,1.4,1.8,2.1,2.7c0.8,1,1.7,1.8,2.7,2.6c0,0,0,0,0,0c0.8,0.8,1.7,1.3,2.7,1.9c1,0.7,2.1,1.1,3.4,1.5c2.5,0.9,4.1,1.1,5.3,1.4c1.1,0.2,2.3,0.1,3.4,0c1.5,0,2.9-0.4,4.3-0.6c2.3-0.3,2.1-0.2,4.7-0.7c0.5-0.1,1.1-0.2,1.6-0.3c1.4,0.2,2.7,0.5,4.1,0.6c0.8,0.2,1.7,0.4,2.6,0.3c3.4-0.1,6.9-0.4,10.1-1.7c1.9-0.7,3.7-1.7,5.4-2.8c2.3-1.4,4.6-3.1,6.2-5.2c1.2-1.4,2-3,2.9-4.5c0.6-1.2,1.3-2.5,1.8-3.8c0.3-1,0.4-2,0.7-2.9c0.1-0.2,0.2-0.7,0.2-0.9C65.8,43.2,65.8,42.5,65.8,41.8z"/><g><g><path class="st14" d="M21.6,0.2c-0.2,0-0.4,0.1-0.7,0.1c-1.7,0.4-3.3,1.1-4.8,2c-1.2,0.8-2.3,1.7-3.3,2.8c-1.4,1.6-2.5,3.4-3.1,5.4c-1.1,3.4-0.9,6.7,0.6,9.9c0.7,1.5,1.6,2.9,2.7,4.1c2.3,2.4,5.2,3.9,8.5,4.5c3,0.5,6,0.2,8.8-0.9c0.8-0.3,1.6-0.7,2.4-1.2c0,0,0.1,0,0.1,0c-0.2,0.7-3.1,3.1-4.9,4.1c-1.9,1.1-4,1.8-6.3,2.1c-2.2,0.3-4.4,0.2-6.6-0.3C5.3,30.6-0.2,21.3,2.2,12.4C4.6,3.6,13.6-1,21.6,0.2z"/><path class="st22" d="M12,33c-0.1,0-0.2-0.1-0.3-0.1c-0.6-0.2-1.2-0.5-1.7-0.9c-3-1.8-5.3-4.3-6.9-7.3c-0.1-0.1-0.1-0.3-0.2-0.4c0,0,0-0.1,0-0.1c0.1,0,0.1,0,0.1,0c0.1,0.1,0.1,0.2,0.2,0.3c0.8,1.4,1.6,2.7,2.7,3.8c1.5,1.6,3.2,2.9,5.2,4c0.3,0.2,0.6,0.3,0.9,0.4c0.1,0,0.1,0.1,0.1,0.2C12.2,33.1,12.1,33,12,33z"/><path class="st22" d="M3,27.4c0.1,0,0.2,0.1,0.3,0.2c1.1,1.3,2.4,2.4,3.8,3.4c0.3,0.2,0.6,0.4,0.9,0.6c0.1,0.1,0.3,0.2,0.2,0.3c-0.1,0.2-0.3,0.1-0.4,0c-0.8-0.5-1.6-1.1-2.3-1.7c-0.9-0.7-1.7-1.5-2.4-2.4C3,27.7,3,27.6,2.9,27.6C2.9,27.5,2.9,27.4,3,27.4z"/><path class="st22" d="M1.8,11.9c0.1,0.1,0,0.2,0,0.2c-0.6,1.1-0.9,2.2-0.9,3.4c0,0.5-0.1,1.1,0.1,1.6c0,0.1,0,0.2,0,0.3c0,0.1,0,0.1-0.1,0.1c-0.1,0-0.2-0.1-0.2-0.1c0-0.1-0.1-0.2-0.1-0.3c-0.1-1.6,0.1-3.2,0.9-4.8C1.6,12.1,1.6,12.1,1.8,11.9z"/><path class="st22" d="M11.1,33.4c-0.4-0.1-0.8-0.2-1.1-0.5c0,0-0.1-0.1-0.1-0.1c0-0.1,0.1-0.1,0.2,0c0.1,0,0.1,0,0.2,0.1c0.3,0.2,0.6,0.3,0.9,0.3c0.1,0,0.2,0.1,0.1,0.2C11.3,33.4,11.2,33.4,11.1,33.4z"/><path class="st22" d="M2.6,10.3c-0.1,0.3-0.3,0.6-0.4,0.9c0,0,0,0-0.1,0c0,0-0.1,0,0-0.1C2.1,10.9,2.3,10.6,2.6,10.3C2.5,10.3,2.5,10.3,2.6,10.3z"/></g><g><path class="st6" d="M17.3,0.7c-1.9,0.8-3.8,1.7-5.7,2.6c-0.8,0.4-1.7,0.8-2.4,1.3c-0.6,0.5-1.1,1-1.5,1.7c-0.7,1.3-1,2.8-1.5,4.3c-0.3,0.8-0.7,1.6-1.1,2.3c-0.4,0.8-0.8,1.7-0.9,2.6c-0.6,3.2-0.4,6.8,1.7,9.5c1.1,1.4,2.6,2.5,4,3.6c1.4,1.1,2.9,2,4.5,2.7c0.8,0.3,1.7,0.6,2.6,0.7c1,0.1,2,0.1,3-0.1c1-0.2,2-0.4,3-0.6c1-0.2,2-0.5,3-0.7c0.5-0.1,1-0.2,1.5-0.4c0.2,0,0.1-0.3-0.1-0.2c-2,0.5-4,0.9-6,1.3c-1,0.2-1.9,0.4-2.9,0.4c-1,0-1.9-0.1-2.9-0.3c-1.7-0.5-3.2-1.3-4.6-2.3c-0.7-0.5-1.4-1-2.1-1.6c-0.7-0.5-1.4-1.1-2-1.7c-1.2-1.2-2-2.7-2.4-4.3C4,20,4,18.3,4.2,16.7c0.1-0.9,0.3-1.8,0.6-2.6c0.3-0.8,0.9-1.6,1.2-2.4c0.6-1.4,0.9-2.9,1.5-4.3c0.3-0.7,0.6-1.3,1.1-1.9C9.1,4.9,9.9,4.4,10.6,4c0.9-0.4,1.8-0.8,2.6-1.3c0.9-0.4,1.8-0.9,2.7-1.3c0.4-0.2,0.9-0.4,1.3-0.6C17.4,0.8,17.3,0.7,17.3,0.7L17.3,0.7z"/></g><g><path class="st6" d="M7.7,19c-0.1,0.2-0.1,0.5-0.1,0.7c0,0.2,0.1,0.4,0.2,0.5c0.3,0.3,0.6-0.1,0.7-0.3c0.1-0.2,0.1-0.4,0.1-0.7c0-0.2,0-0.5,0-0.7c0-0.4-0.1-0.9-0.3-1.3c-0.2-0.3-0.5-0.6-0.8-0.5c-0.4,0.1-0.6,0.4-0.7,0.7c-0.2,0.8-0.3,1.7-0.2,2.6c0.1,0.9,0.4,1.7,0.9,2.4c0.5,0.8,1.2,1.5,1.9,2.1c0.8,0.7,1.6,1.4,2.4,2c0.4,0.3,0.8,0.7,1.3,1c0.3,0.3,0.7,0.6,1.1,0.8c0.4,0.2,0.8,0.3,1.3,0.3c0.2,0,0.5,0,0.7,0c0.2,0,0.5,0.2,0.7,0.3c0.4,0.3,0.7,0.5,1.2,0.7c0.4,0.2,0.9,0.3,1.3,0.3c0.2,0,0.5,0,0.7,0c0.2,0,0.2-0.3,0-0.3c-0.8,0.1-1.7-0.1-2.4-0.5c-0.3-0.2-0.6-0.5-1-0.7c-0.4-0.2-0.9-0.1-1.3-0.1c-0.9,0-1.5-0.6-2.1-1.1c-0.7-0.6-1.5-1.2-2.2-1.9c-1.3-1.1-2.8-2.2-3.6-3.7c-0.3-0.7-0.6-1.5-0.6-2.2c0-0.4,0-0.8,0-1.2c0-0.3,0.1-0.7,0.2-1.1c0.1-0.2,0.2-0.3,0.4-0.3c0.2,0,0.3,0.2,0.4,0.3c0.3,0.4,0.3,0.9,0.4,1.3c0,0.2,0,0.5,0,0.7c0,0.2,0,0.5-0.2,0.7c0,0.1-0.1,0.2-0.2,0.1c-0.1,0-0.1-0.2-0.2-0.2c-0.1-0.3,0-0.5,0-0.8C7.9,18.9,7.7,18.9,7.7,19L7.7,19z"/></g><g><path class="st23" d="M10.7,21.2C10.7,21.2,10.7,21.2,10.7,21.2C10.7,21.2,10.7,21.2,10.7,21.2L10.7,21.2z"/></g><g><path class="st24" d="M13.4,4.6c-0.9,0.7-1.5,1.6-2.1,2.6c-0.6,0.9-1.1,2-1.4,3c-0.1,0.3-0.2,0.6-0.2,0.9c0,0.2-0.1,0.3-0.1,0.5c0,0.2-0.1,0.3-0.1,0.5c0,0.1,0.2,0.2,0.2,0.1c0.1-0.2,0.1-0.5,0.2-0.8c0.1-0.3,0.1-0.5,0.2-0.8c0.2-0.5,0.3-1,0.5-1.5c0.4-1,1-1.9,1.6-2.8c0.4-0.5,0.8-1,1.2-1.4C13.6,4.6,13.4,4.5,13.4,4.6L13.4,4.6z"/></g><g><path class="st24" d="M18.5,28.4c2.5,0.8,5.2,1.1,7.8,0.8c0.7-0.1,1.5-0.2,2.2-0.4c0.2,0,0.1-0.3-0.1-0.3c-2.5,0.5-5.2,0.6-7.7,0.1c-0.7-0.1-1.4-0.3-2.1-0.5C18.4,28.1,18.3,28.4,18.5,28.4L18.5,28.4z"/></g><g><path class="st24" d="M11.9,1.6c0.2-0.1,0.5-0.2,0.7-0.3c0.2-0.1,0.5-0.2,0.7-0.3c0.5-0.2,0.9-0.3,1.4-0.4c1-0.2,2-0.4,3-0.4c0.6,0,1.1,0,1.7,0c0.2,0,0.2-0.2,0-0.2c-2-0.1-4.1,0.2-6,0.8c-0.3,0.1-0.5,0.2-0.8,0.3c-0.3,0.1-0.6,0.2-0.8,0.3C11.8,1.5,11.8,1.6,11.9,1.6L11.9,1.6z"/></g><g><path class="st25" d="M5.4,9.9C5.4,9.9,5.4,9.9,5.4,9.9C5.3,9.9,5.3,9.9,5.4,9.9L5.4,9.9z"/></g><path class="st25" d="M3.6,10.7c0-0.1-0.1-0.2-0.2-0.1C3.2,10.8,3.1,11,3,11.2c-0.1,0.2-0.2,0.4-0.2,0.6c-0.1,0.4-0.2,0.8-0.2,1.3c0,0.1,0.1,0.2,0.2,0.2c0.1,0,0.2-0.1,0.2-0.2c0.1-0.4,0.1-0.8,0.2-1.2c0-0.2,0.1-0.4,0.2-0.6C3.5,11.1,3.5,10.9,3.6,10.7z"/><path class="st25" d="M3.9,12.6C3.9,12.5,3.9,12.5,3.9,12.6C3.9,12.5,3.9,12.5,3.9,12.6C3.9,12.5,3.9,12.5,3.9,12.6c0-0.1,0-0.2-0.1-0.2c-0.1,0-0.1,0-0.2,0.1c0,0,0,0.1,0,0c0,0,0,0.1,0,0.1c0,0,0,0.1,0,0.1c0,0,0,0,0,0c0,0,0,0,0,0c0,0,0,0,0,0c0,0,0,0.1,0,0.1c0,0.1,0,0.1,0,0.2c0,0.1,0,0.2,0,0.3c0.1,0.1,0.2,0.1,0.3,0c0,0,0.1-0.1,0.1-0.1c0,0,0-0.1,0-0.1c0,0,0-0.1,0-0.1c0-0.1,0-0.1,0-0.2c0,0,0,0,0,0C3.8,12.7,3.8,12.7,3.9,12.6C3.9,12.6,3.9,12.6,3.9,12.6z"/><path class="st25" d="M9.3,29.3c-0.2-0.1-0.4-0.2-0.6-0.3c-0.1-0.1-0.2-0.1-0.3-0.2c-0.1-0.1-0.2-0.1-0.3-0.2c-0.1-0.1-0.2-0.1-0.2,0c-0.1,0.1-0.1,0.2,0,0.2c0.3,0.4,0.7,0.6,1.1,0.8c0.1,0.1,0.3,0,0.3-0.1C9.4,29.5,9.4,29.4,9.3,29.3z"/><path class="st25" d="M5.4,25.2C5.4,25.1,5.3,25.1,5.4,25.2c-0.1-0.2-0.2-0.3-0.2-0.4c-0.1-0.2-0.3-0.4-0.5-0.6c-0.1-0.1-0.2-0.1-0.3,0c-0.1,0-0.1,0.1-0.1,0.2c0,0.4,0.3,0.8,0.6,1.1c0,0.1,0.1,0.1,0.2,0.2c0,0,0.1,0,0.1,0.1c0,0,0,0,0,0c0.1,0.1,0.2,0.1,0.3,0c0.1-0.1,0.1-0.2,0.1-0.3C5.4,25.3,5.4,25.2,5.4,25.2z"/><path class="st25" d="M18.5,30.5c-0.4-0.2-0.8-0.3-1.3-0.4c-0.1,0-0.2,0.1-0.2,0.1c0,0.1,0,0.2,0,0.2c0.1,0.1,0.3,0.2,0.4,0.3c0.1,0,0.2,0,0.2,0.1c0,0,0,0,0,0c0,0,0,0,0.1,0c0.2,0,0.4,0.1,0.6,0c0.1,0,0.2-0.1,0.2-0.2C18.7,30.6,18.6,30.5,18.5,30.5z"/><path class="st26" d="M7.5,5.2C7.5,5.2,7.5,5.2,7.5,5.2C7.4,5.1,7.3,5.1,7.3,5.1c0,0-0.1,0.1-0.1,0.1c0,0,0,0,0,0c0,0,0,0,0,0C7,5.3,7,5.3,7,5.3c0,0,0,0,0,0c0,0,0,0-0.1,0.1c0,0-0.1,0.1-0.1,0.1C6.6,5.7,6.5,5.8,6.4,6c0,0.1,0,0.2,0.1,0.3c0.1,0.1,0.2,0,0.3,0C7.1,6,7.3,5.7,7.5,5.5C7.6,5.4,7.5,5.3,7.5,5.2C7.5,5.2,7.5,5.2,7.5,5.2z"/><path class="st25" d="M4.8,15.8C4.8,15.8,4.8,15.8,4.8,15.8C4.9,15.9,4.9,15.9,4.8,15.8z"/><path class="st25" d="M4.6,16.9c0.1,0,0.2-0.1,0.2-0.1c0.1-0.1,0.1-0.3,0.1-0.5c0-0.1,0-0.1,0-0.2c0,0,0-0.1,0-0.1c0,0,0-0.1-0.1-0.1c0,0,0,0-0.1,0c0,0,0,0,0,0c0,0-0.1,0-0.1,0c0,0,0,0,0,0c0,0,0,0-0.1,0c0,0-0.1,0.1-0.1,0.1c-0.1,0.3-0.2,0.5-0.1,0.8C4.5,16.9,4.6,16.9,4.6,16.9z"/><path class="st25" d="M4.8,17.4C4.8,17.4,4.8,17.4,4.8,17.4c-0.1,0.3-0.1,0.5,0,0.8c0,0.1,0.1,0.1,0.2,0.1c0,0,0.1,0,0.1,0c0,0,0.1-0.1,0.1-0.1c0-0.1,0-0.3,0-0.4c0-0.1,0-0.3,0-0.4c0,0,0-0.1-0.1-0.1c0,0-0.1-0.1-0.1-0.1C4.9,17.2,4.8,17.3,4.8,17.4z"/></g><path class="st6" d="M21.8,32.4C21.8,32.4,21.8,32.4,21.8,32.4"/><line class="st4" x1="1.3" y1="55.6" x2="1.3" y2="55.6"/><g><defs><path id="_2" d="M64.7,47.7c0.3-1,0.4-2,0.7-2.9c0.1-0.2,0.2-0.7,0.2-0.9c0.2-0.7,0.1-1.3,0.2-2c0-3.7-0.1-7.5-0.8-11.1c-0.1-1.7-0.7-3.3-1.2-4.9c0-0.1,0-0.1-0.1-0.2c0.1,0.2,0.1,0.3,0,0c0-0.1-0.1-0.2-0.1-0.2c0,0.1,0,0.1,0.1,0.2c0,0,0,0,0,0c-0.5-1.7-1-3.4-1.9-4.9c-2-3-3.9-6.3-6.9-8.5c-2.6-1.7-3.1-1.6-5.7-2.9c-0.3-0.2-2-1-3.7-1.6C42.4,7,39.3,6.1,36,6.2c-3.6,0.4-7.3,0.8-10.8,1.9c-2.8,0.9-5.4,2.2-8,3.6c-1.6,0.9-3,2.1-4.4,3.2c-1.7,1.3-3.4,2.8-4.9,4.3c-1.9,2.1-2.7,5-3.1,7.7c-0.1,1.2,0.2,2.4,0.5,3.6c1.7,6.8-4.3,14-4.8,15.6c-0.6,2.2-0.9,4.5-0.2,7.3c0.3,1,0.7,1.9,1.1,2.8c0.6,1,1.4,1.8,2.1,2.7c0.8,1,1.7,1.8,2.7,2.6c0,0,0,0,0,0c0.8,0.8,1.7,1.3,2.7,1.9c1,0.7,2.1,1.1,3.4,1.5c2.5,0.9,4.1,1.1,5.3,1.4c1.1,0.2,2.3,0.1,3.4,0c1.5,0,2.9-0.4,4.3-0.6c2.3-0.3,2.1-0.2,4.7-0.7c0.5-0.1,1.1-0.2,1.6-0.3c1.4,0.2,2.7,0.5,4.1,0.6c0.8,0.2,1.7,0.4,2.6,0.3c3.4-0.1,6.9-0.4,10.1-1.7c1.9-0.7,3.7-1.7,5.4-2.8c2.3-1.4,4.6-3.1,6.2-5.2c1.2-1.4,2-3,2.9-4.5C63.6,50.2,64.3,49,64.7,47.7"/></defs><clipPath id="_3"><use xlink:href="#_2" style="overflow:visible;"/></clipPath><g style="clip-path:url(#_3);"><path class="st4" d="M63.7,53.3c-1.5,0.3-2.1,0.4-3.3,0.3c-0.7,0-2,0-3-0.1c-2.8-0.6-6.1-1.8-9-3c-2.4-0.8-4.6-1.9-7-2.6c-2.6-0.8-5.4-1.1-8.1-1.7c-2.3-0.5-4.6-0.7-6.9-0.7c-0.3,0-0.6-0.1-1-0.1c-0.2,0-0.4,0-0.6-0.1c-0.2,0-0.4,0-0.6,0c-0.9-0.1-1.8-0.2-2.6-0.1c-0.6,0-1.2,0.1-1.8,0.2c-1.1,0.1-2.2,0.2-3.3,0.4c-0.5,0.1-0.9,0.2-1.4,0.3c-0.9,0.1-1.8,0.3-2.6,0.5c-2.8,0.7-6.1,2.8-7,3.3c-0.2,0.1-0.3,0.2-0.5,0.3c-0.9,0.7-2.1,1.3-3,2.1c-0.4,0.2-0.8,0.4-1,0.7c-0.5,0.3-0.6,0.9-0.6,1.4c0.2,0.7,0.3,1.1,0.7,1.8c0.2,0.6,0.5,1,0.7,1.3c0.5,1.1,1.1,1.8,1.9,2.8c0.5,0.8,1.8,2.1,2.8,2.9c1.8,1.1,3.7,1.9,5.8,2.7c1.6,0.6,3.3,0.8,5,1c0.8,0.1,1.6,0.3,2.4,0.3c0.7,0,1.1-0.1,1.7-0.1c1,0,2,0.1,3,0.2c1.2,0,2.4,0,3.6-0.1c1.2,0,2.7-0.5,4.1-0.7c1.7-0.2,3.5-0.5,4.8-0.5c2.1,0.3,4.3,0.7,6.5,0.8c2.4,0.1,4.8-0.2,7.1-0.9c2.2-0.5,4.4-1.2,6.4-2.4c1.9-1.3,3.5-2.9,4.9-4.7c0.9-1.3,1.8-2.6,2.6-4C65,53.7,65,53,63.7,53.3"/><g><path class="st5" d="M64.4,54.8c-0.3-0.1-0.6,0.1-0.8,0.2c-0.9,0.4-1.9,1.1-2.5,1.2c-2.1,0.8-4.4,0.7-6.6,0.2c-1.6-0.4-3-1-4.5-1.6c-2.3-0.7-4-1.6-6.2-2.4c-4.5-1.1-9.2-1.7-13.9-1.8c-4.5,0.2-9.1,0.7-13.4,2c-2.6,0.7-5.1,1.8-7.7,2.7c-2,0.8-3.8,1.9-5.6,3.1c-0.2,0.2-0.5,0.3-0.7,0.5c0,0-0.1,0.1-0.1,0.1c0,0.2,0.2,0.3,0.4,0.2c1.6-1.1,3-2,4.7-2.8c1.6-0.8,3.3-1.3,4.9-1.9c4.4-1.7,9.8-2.8,14.5-3c3.1-0.3,6.3,0,9.6,0.3c2.5,0.4,5,0.7,7.2,1.3c0.9,0.3,1.2,0.5,2.1,0.9c1,0.3,1.5,0.5,2.3,0.9c1.7,0.6,3.3,1.2,4.9,1.8c3.1,1,6.3,1.1,9.1-0.1c1-0.4,1.6-1,2.6-1.2C64.7,55.2,64.7,54.8,64.4,54.8"/><path class="st5" d="M64.1,55.9c-0.4-0.1-0.7,0.3-1,0.4c-0.3,0.2-1,0.4-1,0.4c-2.8,0.8-5.4,1.2-8.4,0.8c-2-0.3-4.1-0.8-6.2-1.5c-1.6-0.6-3.3-0.9-5-1.4c-3.6-1-7.3-1.5-11.1-1.3c-3.3,0.2-6.6,0.6-9.8,1.4c-2,0.6-3.9,1.3-5.9,2c-1.3,0.5-2.5,1.2-3.8,1.7c-1,0.5-2.1,0.8-3,1.4c-1.2,0.8-2.5,1.6-3.5,2.5c-0.1,0.2,0.2,0.4,0.4,0.3c1.3-1.1,2.8-2.1,4.1-2.8c1.3-0.6,2.7-1.1,4-1.7c2.4-1.2,5.1-2,7.5-2.8c4-1.1,8.3-1.6,12.3-1.5c4.6,0,8.3,1.3,12.9,2.5c1.7,0.7,3.4,1.1,5.2,1.5c3,0.7,5.6,0.6,8.5,0c0.9-0.1,1.3-0.4,2.1-0.5c0.4-0.1,1.2-0.5,1.8-0.8c0.1,0,0.1-0.1,0.2-0.2C64.4,56.2,64.3,56,64.1,55.9"/><path class="st5" d="M62.9,58c-0.3-0.1-0.6,0.2-0.9,0.3c-0.6,0.2-1.2,0.5-1.6,0.6c-2,0.8-4.3,0.8-6.9,0.6c-2.9-0.2-5.6-0.8-8.4-1.4c-2.1-0.4-4.1-1.1-6.2-1.4c-3-0.7-6-0.7-9-0.5c-2.8,0-6.4,1.2-9.2,2.2c-1.3,0.6-2.6,1.1-3.9,1.6c-2.3,1.2-4.5,2.7-6.3,4.5c-0.1,0.1-0.3,0.2-0.3,0.4c0,0.2,0.2,0.3,0.4,0.2c1.9-1.8,4.1-3.5,6.3-4.6c1.5-0.6,3.1-1.3,4.6-1.9c1.9-0.6,3.4-1.3,5.4-1.6c2.3-0.4,4-0.5,6.3-0.4c3.6,0,6.8,0.8,10,1.6c3.1,0.7,6.2,1.4,9.2,1.8c2.7,0.2,5.6,0.3,7.9-0.5c0.5-0.1,1.3-0.4,2-0.7c0.3-0.2,0.7-0.2,0.8-0.5C63.2,58.2,63.1,58,62.9,58"/><path class="st5" d="M61.7,60.2c-0.2,0-0.3,0.1-0.5,0.2c-0.6,0.2-1.1,0.4-1.5,0.5c-1,0.3-2,0.3-2.7,0.4c-1.5,0.1-2.3,0.2-3.8,0.2c-1.2-0.1-2.5,0.1-3.7-0.1c-2.6-0.3-4.9-0.8-7.3-1.3c-4-0.6-8-1.7-12-1.2c-3.2,0.5-6.2,1.6-9,3c-2,1-4,1.9-5.7,3.4c-0.4,0.4-0.9,0.7-1.1,1.1c0,0.2,0.2,0.3,0.4,0.2c1.9-1.8,3.9-3,6.3-4.1c3.4-1.7,7.2-3.1,10.9-3.2c4.6,0,8.5,1.1,12.7,2c2.2,0.4,4.3,1,6.6,0.9c2.4,0,4.4,0,6.4-0.2c0.8,0,2.2-0.2,3.2-0.6c0.1,0,0.5-0.1,0.6-0.2c0.3-0.1,0.6-0.2,0.8-0.5C62.1,60.4,61.9,60.2,61.7,60.2"/></g><path class="st5" d="M65.7,50.4c-0.7,0.2-0.9,0.2-1.6,0.2c-2.8,0.6-5.5,0.4-8.5,0.4c-1.9-0.2-4-0.5-5.6-0.9c-1.2-0.4-2.4-0.9-3.8-1.4c-2-0.7-4-1.4-6.1-2c-1-0.3-1.6-0.7-2.8-1c-3.2-0.7-6.4-1.4-9.6-1.8c-1.6-0.2-3.3-0.5-4.9-0.6c-1.3-0.1-3.1,0.1-4,0.1c-4.3-0.1-8.5,0.9-12.2,2.9c-1.7,1-3.4,1.7-4.9,2.9c-0.8,0.7-1.5,1.4-2.1,2.2c-0.1,0-0.1,0.1-0.1,0.1c-0.1,0-0.1,0.1-0.2,0.1c-0.1,0.3-0.1,0.5-0.2,0.8c0,0.6,0.2,1.2,0.4,1.8c0,0.2,0.2,1,0.6,1.4c0.2,0.5,0.5,1,1,1.4c0.2,0.1,0.5,0.1,0.6-0.1c0,0,0,0,0,0c0,0,0,0,0.1,0C2.3,56.3,3,55.6,3.6,55c1-0.8,2.2-1.4,3.4-2.1c3.1-1.8,6.1-2.6,9.7-3.5c2.6-0.7,6.1-1.4,8.5-1.6c3.2,0,6.5-0.1,9.6,0.6c2.8,0.5,6.2,1.4,9.2,2.3c1.1,0.3,2.1,0.7,3.1,1.1c1.2,0.4,2.4,0.7,3.6,1c1.8,0.7,3.7,1,5.6,1c0.6,0,1.2,0.2,1.9,0.3c0.6,0,1.2,0,1.9,0c1.4,0,2.9-0.1,4.2-0.7c0.5-0.3,1.2-0.3,1.6-0.8c0.1-0.2,0.1-0.5,0.2-0.7c0.2-0.4,0.4-0.8,0.4-1.3C66.6,50,66.1,50.4,65.7,50.4"/><g><path class="st6" d="M58.6,62.9c-0.6,0-0.9,0.2-1.5,0.3c-1,0.3-2.3,0.7-3.2,0.7c-2.2,0.1-3.8,0.3-6.2-0.1c-1.7-0.3-4.2-1.3-6.2-1.9c-3.1-0.8-6-1.2-9.4-1.3c-1.6,0.1-3.1,0.4-4.7,0.7c-0.1,0-0.2,0.1-0.3,0.1c-0.1,0-0.2,0-0.3,0.1c-2,0.5-4.1,1.2-5.8,2.2c-0.8,0.4-2,1.1-2.9,1.8c-0.8,0.5-2.2,1.6-1.2,1.9c0.7,0,0.9,0.1,1.8,0.2c1.3,0,2.6,0.2,4,0.2c0.8,0.1,1.6-0.1,2.1-0.1c0.7,0,1.3,0.1,2,0.1c0.8,0,1.6-0.1,2.4-0.1c2.1,0,4.2,0.1,6.4,0.1c3.1,0.2,6.8,0.7,9.6,0.6c1,0,2.1,0.1,3.1,0c1-0.2,2.1-0.4,3.1-0.7c2.1-0.5,3.8-0.8,5.4-2.1C57.1,65.3,59.5,63.3,58.6,62.9"/><g><path class="st14" d="M21.1,65.5c-0.1-0.1-0.2-0.1-0.3,0c-0.5,0.2-1,0.4-1.5,0.7c-0.2,0.2,0.1,0.4,0.3,0.3c0.5-0.3,1-0.4,1.5-0.7C21.2,65.7,21.2,65.5,21.1,65.5"/><path class="st14" d="M29.1,62.4c-0.4,0.1-1.4,0.1-2,0.3c-0.8,0.3-1.7,0.7-2.5,1.1c-0.2,0.2,0.1,0.4,0.3,0.3c0.9-0.4,1.9-0.9,2.7-1.1c0.6-0.1,1.2-0.1,1.7-0.2C29.5,62.6,29.3,62.2,29.1,62.4"/><path class="st14" d="M27.2,64.8c-0.1,0-0.3,0-0.4,0.1c-0.7,0.3-1.5,0.5-2.1,0.8c-0.2,0.2,0.1,0.4,0.3,0.3c0.7-0.3,1.6-0.7,2.2-0.8C27.4,65.2,27.4,64.9,27.2,64.8"/><path class="st14" d="M32,63.9c-0.6,0.1-1.2,0.1-1.8,0.1c-0.2,0-0.4,0-0.5,0.1c-0.1,0.2,0,0.4,0.3,0.4c0.7-0.1,1.4-0.1,2.1-0.2c0.1,0,0.2,0,0.2-0.1C32.4,64.1,32.2,63.8,32,63.9"/><path class="st14" d="M36,62.2c-0.1-0.2-0.3-0.2-0.5-0.2c-0.9-0.1-1.8-0.1-2.6-0.1c-0.3,0.1-0.2,0.5,0.1,0.5c0.9,0,2.1-0.1,2.7,0.1C35.9,62.6,36.1,62.4,36,62.2"/><path class="st14" d="M32.5,66.1c-0.2-0.1-0.4-0.1-0.6-0.1c-0.6,0-1.2,0-1.8,0.2c-0.2,0.1-0.1,0.5,0.2,0.4c0.7-0.1,1.4-0.1,2-0.2C32.5,66.5,32.6,66.2,32.5,66.1"/><path class="st14" d="M38.5,66.2c-0.3-0.2-0.6-0.1-0.9-0.2c-0.6,0-1.3-0.2-1.9-0.1c-0.3,0.1-0.2,0.4,0.1,0.4c0.8,0.1,1.7,0.1,2.5,0.2C38.5,66.6,38.6,66.3,38.5,66.2"/><path class="st14" d="M37.4,64.4c-0.5,0-1.1-0.1-1.6-0.1c-0.4-0.1-0.5,0.4-0.1,0.5c0.7,0,1.4,0.1,2.1,0.1c0.1,0,0.3-0.1,0.3-0.2C38.1,64.3,37.6,64.4,37.4,64.4"/><path class="st14" d="M42.5,63.2C42,63,41.5,62.9,41,62.8c-0.3,0-0.6-0.2-0.8-0.1c-0.2,0.1-0.2,0.4,0,0.5c0.8,0.2,1.5,0.3,2.3,0.5c0.1,0,0.3,0,0.3-0.1C42.8,63.3,42.7,63.2,42.5,63.2"/><path class="st14" d="M43.9,65.3c-0.5-0.1-1-0.2-1.5-0.2c-0.3,0-0.6-0.2-0.8,0c-0.2,0.1-0.1,0.4,0.2,0.4c0.7,0.1,1.4,0.2,2.2,0.3c0.1,0,0.1,0,0.2-0.1C44.2,65.5,44.1,65.3,43.9,65.3"/><path class="st14" d="M47.7,64.9c0-0.1-0.1-0.2-0.2-0.2c-0.6-0.1-1.3-0.2-1.9-0.3c-0.4,0-0.4,0.5,0,0.5c0.6,0.1,1.3,0.2,1.9,0.2C47.6,65.2,47.7,65.1,47.7,64.9"/><path class="st14" d="M49.9,66.5c-0.2-0.4-0.8-0.1-1.1-0.2c-0.6,0-1.2,0-1.8,0.1c-0.1,0-0.2,0.1-0.2,0.2c-0.1,0.2,0.1,0.3,0.3,0.3c0.6,0,1.7-0.1,2.5-0.1C49.6,66.8,49.9,66.8,49.9,66.5"/><path class="st14" d="M53.6,65.1C53.5,65,53.4,65,53.3,65c-0.7,0-1.4,0-2.1,0.1c-0.4,0-0.4,0.5,0,0.5c0.4,0,0.9,0,1.3-0.1c-0.1,0,0.7,0,0.9,0C53.7,65.4,53.7,65.2,53.6,65.1"/><path class="st14" d="M57.2,63.8c-0.7,0.4-1.4,0.7-2.1,1c-0.2,0.1-0.2,0.3,0,0.4c0.3,0,0.6-0.2,0.9-0.3c0.5-0.3,1-0.5,1.5-0.8C57.6,64,57.4,63.7,57.2,63.8"/></g></g></g></g><g><path class="st3" d="M65.2,35.5c-0.3-1.1-1-1.9-1.8-2.6c-1.6-1.4-2.8-2.3-4.5-3.4c-1.8-1.2-4.4-1.6-5.3-2.7c0-0.3-0.2-1.3-0.3-1.9c-0.1-0.8-0.2-1.7-0.7-2.4c-0.5-0.7-1.2-0.9-2-1.1c-1-0.3-2-0.6-3-0.5c-1.1,0-2.1,0.2-2.2-0.2c-0.1-0.3-0.2-1.6-0.7-2.2c-1.2-1.7-3.7-3.3-5.5-1.4c-0.2,0.1-0.5,0.4-0.7,0.8c-0.9-0.3-2.2-0.6-3.4-0.6c-1.3,0.5-3.1,1.5-3.6,2.7c-0.3,0.5-0.8,1.5-1,1.9c-0.4-0.3-0.8-0.4-1.2-0.5c-0.5-0.2-1-0.4-1.6-0.4c-2.3-0.1-4.6,1.2-6.2,3.2c-0.3,0.3-0.8,1.3-0.8,1.5c0,0,0,0,0,0c-0.1,0-0.1,0-0.2,0c-0.1,0-0.6-0.1-0.7-0.1c-3.1-0.9-6.3,1.1-8.6,3.3c-2.3,2.6-2.8,6.7,0,8.8c1.1,1,2.6,1.4,4,2.1c2.8,1.1,5.9,1.1,8.9,1.2c2.3,0.1,5.2,0.3,7.8,0.1c2.4-0.3,4.9-0.4,7-0.2c2,0.2,3.6,0.1,5.6,0.3c1.9,0,3.4,0,5.3,0.3c2.2,0.3,4.7,1,6.6,1.1c3,0.2,7.9-0.5,9.1-4.3C65.7,37.4,65.4,36.4,65.2,35.5"/><g><path class="st0" d="M13.8,31.5c-0.2,0-1.3,0.1-1.7,0.7c-0.3,0.4-0.4,0.9-0.5,1.3c0,0.2-0.1,0.5,0,0.6c0.1,0.2,0.4,0.1,0.4-0.1c0-0.6,0.2-1.4,0.5-1.6c0.2-0.2,0.7-0.3,1-0.3c0.1,0,0.3,0.1,0.4,0C14.3,31.9,14.1,31.5,13.8,31.5"/><path class="st0" d="M23.6,27c-0.6-0.1-1.3-0.2-1.8,0.2c-0.5,0.5-0.9,1.1-1.2,1.7c0,0.1,0,0.2,0.1,0.2c0.1,0.1,0.3,0.1,0.4-0.1c0.4-0.7,1-1.7,1.5-1.6c0.3,0,0.7,0.1,1,0C23.7,27.3,23.7,27.1,23.6,27"/><path class="st0" d="M28.9,23.5c-0.3-0.1-0.5-0.2-0.9-0.2c-0.7,0.1-1.3,0.4-1.9,0.9c-0.1,0.1-0.1,0.2-0.1,0.2c0,0.1,0.3,0.2,0.4,0.1c0.5-0.4,1.3-0.8,1.8-0.7c0.1,0,0.2,0.1,0.3,0.1c0.2,0,0.4,0.2,0.5,0.1C29.5,23.8,29.2,23.5,28.9,23.5"/><path class="st0" d="M20.6,36.9c-0.1-0.1-0.3,0-0.5-0.1c-1.3-0.4-1.3-1.5-0.2-2.6c0.1-0.1,0.3-0.2,0.3-0.3c0-0.2-0.2-0.3-0.4-0.2c-0.7,0.6-1.5,1.5-1.2,2.4c0.2,0.7,1,1.2,1.8,1.1C20.8,37.3,20.8,37,20.6,36.9"/><path class="st0" d="M29.2,30c-0.5,0-1,0.2-1.5,0.4c-0.3,0.1-0.6,0.3-0.8,0.5c-0.6,1-0.4,2.1,0.6,2.7c0.2,0.1,0.3,0.2,0.5,0.2c0.2,0,0.3-0.2,0.2-0.4c-0.1-0.1-0.3-0.1-0.4-0.2c0,0,0,0-0.1,0c0,0,0,0-0.1,0c-0.8-0.4-0.7-1.5-0.4-2c0.4-0.3,1.3-0.6,1.6-0.7c0.1,0,0.3,0,0.4-0.1C29.5,30.3,29.4,30,29.2,30"/><path class="st0" d="M37.3,24.3c-0.8-0.8-2.4-0.8-3.1,0.1c-0.2,0.3-0.4,0.7-0.5,1c-0.1,0.2-0.3,0.5-0.2,0.8c0.1,0.2,0.4,0.2,0.4,0c0.4-1.2,0.8-2,1.8-2c0.5,0,0.6,0.1,1,0.3c0.1,0.1,0.2,0.2,0.4,0.1C37.3,24.7,37.4,24.5,37.3,24.3"/><path class="st0" d="M43.9,21.2c-0.3-0.5-0.9-1-1.6-1c-0.5,0-1.1,0.2-1.6,0.4c-0.1,0.1-0.4,0.1-0.4,0.3c-0.1,0.2,0.2,0.4,0.4,0.3c0.6-0.3,1.7-0.6,2-0.4c0.4,0.2,0.5,0.4,0.8,0.7C43.7,21.6,43.9,21.4,43.9,21.2"/><path class="st0" d="M37.4,36.5c-0.7-0.1-1.7-0.4-1.9-0.8c-0.2-0.3,0-1.1,0.3-1.4c0.6-0.5,1.3-0.7,2.1-0.9c0.2-0.1,0.1-0.5-0.2-0.4c-0.9,0.2-2.1,0.6-2.6,1.4c-0.7,1.6,0.5,2.4,2,2.6c0.2,0,0.5,0.1,0.6,0C38,36.7,37.7,36.5,37.4,36.5"/><path class="st0" d="M26.4,38.6c-0.1-0.1-0.4-0.1-0.5-0.1c-0.1,0-0.3-0.1-0.3-0.1c0,0,0,0,0,0c0,0,0,0,0,0c0,0,0,0,0-0.1c-0.1-0.3,0-0.6,0.1-0.9c0.1,0,0.1-0.1,0.1-0.2c0-0.1,0.1-0.1,0.1-0.2c0.1-0.1,0.3-0.3,0.2-0.5c0-0.2-0.4-0.3-0.5-0.1c-0.5,0.6-1.1,2.1,0,2.5c0.3,0.1,0.8,0.3,1,0C26.6,38.8,26.5,38.7,26.4,38.6"/><path class="st0" d="M49.2,25c-0.5-0.1-1.1,0-1.6,0.1c-0.6,0.2-1.1,0.4-1.5,0.8c-0.5,0.6-0.4,1.6,0.4,2.1c0.2,0.1,0.6,0.4,0.7,0c0-0.1,0-0.3-0.2-0.3c0,0-0.2-0.1-0.3-0.1c-0.9-0.4-0.6-1.6,0.4-1.9c0.6-0.2,1.3-0.5,2-0.3C49.5,25.5,49.5,25.1,49.2,25"/><path class="st0" d="M47.2,36.2c0,0-0.3-0.1-0.4-0.1c-0.9-0.2-1.2-1-1-1.5c0.4-0.6,0.9-0.9,1.4-1.5c0.1-0.2-0.2-0.5-0.4-0.3c-0.6,0.6-1.5,1.2-1.7,2c-0.2,1,0.9,1.8,1.9,1.8C47.4,36.6,47.4,36.3,47.2,36.2"/><path class="st0" d="M54.9,37.2c-0.3-0.2-0.4-0.1-0.7-0.2c-1-0.2-1.4-0.7-1.4-1.3c0,0,0,0,0,0c0,0,0-0.1,0-0.1c-0.1,0.1,0.6-0.8,0.5-0.7c0.2-0.2,0.6-0.5,0.6-0.5c0.1,0,0.3-0.1,0.3-0.2c0.1-0.2-0.2-0.5-0.4-0.3c-0.7,0.3-1.4,1-1.6,1.8c0,0.6,0.2,1.1,0.7,1.5c0.5,0.3,1.2,0.6,1.8,0.6C55,37.6,55.1,37.3,54.9,37.2"/><path class="st0" d="M61.7,37.6c-1.6,0-2.4-0.7-1.8-1.4c0.5-0.5,0.5-0.5,1.2-0.7c0.4-0.1,0.3-0.7-0.1-0.6c-2.4,0.6-2.7,2.9,0,3.2c0.3,0,0.7,0.1,0.9,0C62.1,38,62,37.6,61.7,37.6"/></g></g><g><g><path class="st1" d="M63.8,25.7C63.8,25.7,63.8,25.7,63.8,25.7C63.8,25.7,63.8,25.7,63.8,25.7C63.8,25.7,63.8,25.7,63.8,25.7"/><path class="st17" d="M58.7,19.5c-0.4-0.1-1.1,0.2-1.5,0.1c-0.8-0.1-1.5-0.1-1.8-0.5c-0.2-0.2-0.2-0.6-0.4-0.9c-0.2-0.2-0.7,0.1-0.8,0.2c-0.5,0.2-0.9,0.1-1.4-0.2c-0.2-0.1-0.4-0.3-0.4-0.4c-0.1-0.4-0.1-1,0-1.3c0-0.1,0.1-0.3,0.1-0.4c-0.1-0.1-0.3-0.1-0.4,0c-0.1,0.3-0.2,0.6-0.1,1c0,0.4,0,0.8,0.2,1.1c0.3,0.4,0.8,0.6,1.3,0.7c0.5,0.1,0.9,0,1.4-0.2c0.1,0.4,0.3,0.9,0.7,1.1c0.8,0.3,1.7,0.4,2.6,0.2C58.3,19.9,59,19.9,58.7,19.5"/><path class="st17" d="M63.2,26.8c-1-0.2-1.8-0.2-1.9-1c0,0,0,0,0,0c0,0,0,0,0-0.1c0-0.2,0.2-0.6,0-0.8c-0.2-0.1-0.4,0-0.6-0.1c-0.2,0-0.5-0.1-0.6-0.4c-0.2-0.4-0.2-0.8-0.2-1.3c-0.1-0.2-0.4-0.2-0.4,0.1c-0.1,0.6,0,1.2,0.4,1.7c0.3,0.3,0.7,0.4,1,0.4c0,0,0,0,0,0c-0.2,0.6,0.1,1.3,0.7,1.6c0.4,0.2,0.9,0.3,1.4,0.3c0.1,0,0.2,0,0.2-0.1C63.3,27,63.3,26.8,63.2,26.8"/><path class="st17" d="M47.2,43.9c-0.1,0-0.2,0-0.3,0.1c-0.4,0.3-0.5,0.4-0.9,0.6c-0.6,0.3-2-0.1-2.5-0.9c-0.3-0.5-0.8,0.3-1.1,0.4c-0.6,0.3-1.3,0.5-1.9,0.5c-0.4-0.1-0.6-0.4-0.9-0.6c-0.2-0.2-0.4-0.4-0.5-0.7c-0.1-0.2-0.5-0.1-0.4,0.2c0.1,0.4,0.4,0.6,0.7,0.9c0.2,0.2,0.5,0.5,0.8,0.6c0.4,0.1,0.8,0,1.1,0c0.6-0.2,1.2-0.3,1.6-0.7c0,0,0.1-0.1,0.2-0.1c0.6,0.7,1.5,1.2,2.5,1.1c0.6-0.1,1-0.4,1.5-0.8c0,0,0,0,0,0l0,0c0.1,0,0.1-0.1,0.1-0.1C47.4,44.1,47.3,44,47.2,43.9"/><path class="st17" d="M56.4,47.8c-0.7,0.2-1.6,0.4-2,0.3c-0.6-0.2-1.1-0.7-1.3-1.3c-0.1-0.3-0.4-0.1-0.5,0.1c-0.2,0.2-0.4,0.3-0.6,0.4c-0.5,0.3-1.7,0.4-2.1,0.2c-0.6-0.3-0.9-0.6-1.3-1c-0.2-0.1-0.4,0.2-0.3,0.3c0.5,0.5,1.2,1.1,2,1.1c0.7,0,1.4-0.1,2-0.4c0.1-0.1,0.3-0.2,0.4-0.3c0.1,0.1,0.1,0.3,0.2,0.4c0.4,0.4,0.9,0.9,1.5,0.9c0.5,0,1-0.1,1.5-0.3c0.2-0.1,0.4,0,0.5-0.2C56.8,48,56.6,47.7,56.4,47.8"/><path class="st17" d="M57,44.5c-0.8,0.4-1.6,0.1-2.2-0.6c0,0-0.1-0.3-0.3-0.2c-0.1,0-0.4,0.3-0.6,0.4c-0.1,0.1-0.3,0.2-0.4,0.2c0,0,0,0-0.1,0c0,0-0.1,0-0.1,0c-0.5-0.1-0.9-0.4-1.2-0.8c0,0-0.1-0.3-0.2-0.3c-0.2-0.1-0.4,0.1-0.3,0.3c0.4,0.6,1.1,1.1,1.8,1.2c0.4,0,0.8-0.2,1.2-0.5c0.6,0.6,1.4,1.1,2.3,0.8c0.3-0.1,0.6-0.1,0.7-0.4C57.6,44.4,57.3,44.3,57,44.5"/><path class="st17" d="M63.5,47.2c-0.1-0.1-0.3,0-0.5,0c-0.2,0-0.3,0-0.3,0c0,0,0,0,0,0c0,0-0.1-0.1-0.1-0.1c-0.2-0.2-0.4-0.1-0.6,0c-0.1,0.1-0.5,0.2-0.6,0.3c-0.3,0.1-0.9-0.5-1.1-1.1c0-0.4-0.6-0.4-0.6,0c0.2,0.7,0.7,1.6,1.6,1.6c0.4,0,0.7-0.2,1-0.4c0,0,0,0,0,0c0,0,0.1,0.1,0.1,0.1c0.3,0.1,0.7,0,1,0C63.6,47.6,63.6,47.3,63.5,47.2"/><path class="st17" d="M45.8,10.8c-0.2-0.1-0.4,0.2-0.5,0.4c-0.3,0.4-0.6,0.8-0.8,0.7c-0.4,0-0.8-0.2-1.1-0.4c-0.1-0.1-0.2-0.2-0.3-0.2c-0.2,0-0.2,0.3-0.2,0.3c-0.1,0.2-0.4,0.5-0.7,0.6c-0.3,0.1-0.9,0-1.3-0.4c-0.1,0-0.1-0.3-0.3-0.3c-0.2-0.1-0.3,0.1-0.2,0.3c0.3,0.6,1.2,1,1.9,0.8c0.4-0.1,0.7-0.4,0.9-0.8c0.4,0.3,1,0.5,1.6,0.4c0.5-0.1,0.8-0.6,1-0.9C45.9,11.2,46.1,10.9,45.8,10.8"/></g><g><path class="st17" d="M11.1,40.5c-0.8,0.4-3.2,2-3.4,0.2c0-0.1-0.2-0.2-0.2,0c-0.4,1.2-1.7,2.3-3.1,2c-0.1,0-0.1,0.1,0,0.1c0.9,0.2,1.8-0.1,2.5-0.7c0.2-0.2,0.3-0.3,0.5-0.5c0.1-0.1,0.1-0.2,0.2-0.3c0,0,0,0,0,0c0,0.1,0.1,0.2,0.2,0.3c0.8,0.8,3-0.1,3.6-0.8C11.4,40.5,11.2,40.4,11.1,40.5z"/><path class="st17" d="M5,44.9c-0.3,0.6-1.2,0.6-1.6,0.2c-0.1-0.1-0.2,0-0.2,0.1c0,0.6-0.1,2-1,1.5c-0.1,0-0.2,0.1-0.1,0.1c1,0.6,1.3-0.6,1.4-1.4c0.6,0.4,1.6,0.3,1.9-0.4C5.3,44.9,5,44.8,5,44.9z"/><path class="st17" d="M17.4,41.9c-0.7,0.4-1.7,0.8-2.3,0c-0.1-0.1-0.2-0.1-0.2,0c-0.3,0.6-1.3,1.2-1.9,0.4c-0.1-0.1-0.2,0-0.2,0.1c0.3,0.4,0.5,0.5,1,0.5c0.2,0,1.3-0.5,1.2-0.7c0.5,0.9,1.9,0.3,2.6-0.1C17.7,42.1,17.5,41.8,17.4,41.9z"/></g></g></g></g></svg>