<?xml version="1.0" encoding="utf-8"?>
<svg version="1.1" xmlns="http://www.w3.org/2000/svg" xmlns:xlink="http://www.w3.org/1999/xlink" x="0px" y="0px" viewBox="0 0 71.5 65.5" style="enable-background:new 0 0 71.5 65.5;" xml:space="preserve"><style type="text/css">.st0{fill:#FFFFFF;}.st1{fill:#8CA2CF;}.st2{clip-path:url(#SVGID_00000042719262561887976420000010494143922896836495_);}.st3{fill:#627EB5;}.st4{fill:#8CA05C;}.st5{fill:#677724;}.st6{fill:#E0A955;}.st7{fill:#BBD7FF;}.st8{fill:#3C5987;}.st9{clip-path:url(#SVGID_00000032632369489551881960000017533706799388523697_);}.st10{fill:#669CD3;}.st11{clip-path:url(#SVGID_00000162347666590414360350000007032980318143168430_);}.st12{fill:#92C4FC;}.st13{fill:#FAF4D2;}.st14{fill:#FCCB7C;}.st15{clip-path:url(#SVGID_00000139257589824348327870000014058498288374214059_);}.st16{clip-path:url(#SVGID_00000131357872547123431390000015979050125024670643_);}.st17{fill:#C5CAF0;}.st18{clip-path:url(#SVGID_00000139289259733879865900000004340788706434569622_);}.st19{clip-path:url(#SVGID_00000101068421691031989120000008757144246044994460_);}.st20{clip-path:url(#SVGID_00000071526775656653471300000002596515887461601449_);}.st21{clip-path:url(#SVGID_00000137091372332790144140000006762188425553904271_);}.st22{fill:#F9CC3D;}.st23{fill:#FFEAAE;}.st24{fill:#FFECB8;}.st25{fill:#D3AA37;}.st26{fill:#FFE08A;}.st27{clip-path:url(#SVGID_00000172402102129257348970000013547838775008022400_);}.st28{clip-path:url(#SVGID_00000086674576958980912630000000753788696240399805_);}.st29{clip-path:url(#SVGID_00000145739916230100893000000007758545603682618000_);}.st30{clip-path:url(#SVGID_00000136372833956398865730000010479482421763942326_);}.st31{clip-path:url(#SVGID_00000148641772169619257660000003554737834168473735_);}.st32{clip-path:url(#SVGID_00000083788898784512818710000012689830029449207689_);}.st33{clip-path:url(#SVGID_00000018945522106953929650000003239818933931178637_);}.st34{clip-path:url(#SVGID_00000181787143557481133810000002512661857738367111_);}.st35{clip-path:url(#SVGID_00000142886500051879676240000011688284817589914003_);}</style><g ></g><g ><g><g><g><path class="st8" d="M65.1,34.8c-0.1-1.2-0.4-2.3-0.7-3.5c-0.2-0.9-0.4-1.9-0.6-2.8c-0.4-1.9-1-3.7-1.8-5.4c-0.6-1.7-1.5-3.1-2.5-4.5c-1.2-1.6-2.6-3.1-4.1-4.3c-0.9-0.7-1.9-1.2-2.8-1.9c-8.3-5.6-19.4-9.3-29,1.6c-1.2,1.4-2.5,2.7-3.7,4.2c-1,1.2-2,2.4-2.9,3.7c-0.9,1.7-1.7,3.4-2.6,5c-0.5,0.9-1,1.8-1.4,2.7c-0.5,1.2-0.8,2.5-1.2,3.8c-0.6,1.7-0.9,3.5-1.2,5.2c-0.3,1.7-0.7,3.5-0.8,5.2C9.5,47,9.4,50,9.6,53c0,1.1,0,2.2,0.2,3.2c0.1,0.9,0.1,1.6,0.8,3.1c0.8,1.5,2,2.7,3.3,3.8c0.8,0.5,0.7,0.4,1,0.6c0.8,0.5,1.6,0.8,2.4,1c0.8,0.3,1.7,0.7,2.6,0.7c1.4,0,2.8-0.4,4.2-0.6c2.1-0.6,4.2-1.5,6.2-2.2c1.3-0.3,2.1-0.2,4-0.4c1.3-0.1,3.5,0.2,3.6,0.3c3.2,0.8,4.6,1.2,7.7,1.4c2.2,0.2,4.5,0,6.6-0.8c1.7-0.7,3.2-1.7,4.6-2.9c1.5-1.4,2.6-3.1,3.5-5c1.2-2.2,2.2-4.6,2.9-7.1c0.6-2,1.3-4,1.4-6.1c0.2-1.4,0.4-2.9,0.5-4.3C65.4,36.8,65.2,35.8,65.1,34.8"/><g><defs><path id="_2" d="M65.1,34.8c-0.1-1.2-0.4-2.3-0.7-3.5c-0.2-0.9-0.4-1.9-0.6-2.8c-0.4-1.9-1-3.7-1.8-5.4c-0.6-1.7-1.5-3.1-2.5-4.5c-1.2-1.6-2.6-3.1-4.1-4.3c-0.9-0.7-1.9-1.2-2.8-1.9c-8.3-5.6-19.4-9.3-29,1.6c-1.2,1.4-2.5,2.7-3.7,4.2c-1,1.2-2,2.4-2.9,3.7c-0.9,1.7-1.7,3.4-2.6,5c-0.5,0.9-1,1.8-1.4,2.7c-0.5,1.2-0.8,2.5-1.2,3.8c-0.6,1.7-0.9,3.5-1.2,5.2c-0.3,1.7-0.7,3.5-0.8,5.2C9.5,47,9.4,50,9.6,53c0,1.1,0,2.2,0.2,3.2c0.1,0.9,0.1,1.6,0.8,3.1c0.8,1.5,2,2.7,3.3,3.8c0.8,0.5,0.7,0.4,1,0.6c0.8,0.5,1.6,0.8,2.4,1c0.8,0.3,1.7,0.7,2.6,0.7c1.4,0,2.8-0.4,4.2-0.6c2.1-0.6,4.2-1.5,6.2-2.2c1.3-0.3,2.1-0.2,4-0.4c1.3-0.1,3.5,0.2,3.6,0.3c3.2,0.8,4.6,1.2,7.7,1.4c2.2,0.2,4.5,0,6.6-0.8c1.7-0.7,3.2-1.7,4.6-2.9c1.5-1.4,2.6-3.1,3.5-5c1.2-2.2,2.2-4.6,2.9-7.1c0.6-2,1.3-4,1.4-6.1c0.2-1.4,0.4-2.9,0.5-4.3C65.4,36.8,65.2,35.8,65.1,34.8"/></defs><clipPath id="_3"><use xlink:href="#_2" style="overflow:visible;"/></clipPath><g style="clip-path:url(#_3);"><path class="st3" d="M63.9,26.7c-0.3-2.6-1.8-4.7-3.7-6.7c-0.8-0.9-1.4-1.8-2.3-2.7c-0.7-0.6-1.2-1.4-1.8-2c-0.8-0.8-1.4-1.2-2.2-2c-1.4-1.4-3.3-2.5-5.3-3.4c-1-0.4-2-0.7-3-1.1c-0.9-0.2-1.9-0.3-2.8-0.1c-0.2,0.1-0.1,0-0.4,0c0,0-0.1,0-0.1,0.1c-2,0-4.1,0.3-5.9,1c-1.9,0.9-3.1,2.5-3.3,4.1c0,0.1,0,0.2,0,0.2c-0.4-0.1-0.8-0.2-1.3-0.2c-3.7,0.1-6.8,0.9-9.6,2.7c-1.2,0.8-2.4,1.8-2.6,3c-0.2,0.8-0.1,1.6,0.4,2.3c-1.5,0.1-2.9,0.6-4.2,1.2c-2.7,1-5.3,2.3-7.1,4.2c-1,1.5,0.8,2.7,2.8,2.8c3.7,0.3,7.5,0,11.3-0.3c-0.9,1-1.9,2.4-0.9,3.5c3,3.2,11.2,2,15.1,0.1c0.9-0.4,1.7-0.9,2.5-1.3c0.1,0.5,0.5,1,1,1.3c0.6,0.6,1.4,0.9,2.3,1c3.9,0.5,9-0.8,12.1-3.2c0,0.2,0.1,0.4,0.2,0.6c0.4,0.6,1.1,1.2,2,1.3c1,0.2,2,0.1,3-0.2c1.8-0.4,3.5-1.3,4.5-2.5C65.2,29.3,64.1,27.6,63.9,26.7"/><g><g><path class="st4" d="M23.4,60.8c-0.3-1.4-0.9-3.2-1.4-4.8c-0.4-1.2-0.9-2.3-1.5-3.4c-0.5-1-1.1-2-2.2-2.5c-0.8-0.3-1.9-0.1-2.6,0.5c-1.6,1.4-1.7,3.6-2,5.6c-0.1,1.5,0.3,3,0.3,4.5c0.2,1.7,0.3,3.5,0.8,5.2c0,0,0,0,0.1,0.1c0.1,0.3,0.6,0.3,0.8-0.1c0,0,0.1-0.1,0.1-0.2c0,0,0,0,0,0c0,0,0.1-0.1,0.1-0.1c0.2-0.1,0.6-0.3,0.7-0.4c0.2-0.1,0.4-0.1,0.8-0.1c0.1,0,0.3,0,0.4-0.1c0.5-0.1,1.2-0.4,1.3-0.4c1,0,2-0.2,3-0.2c0.5,0,1.1,0.1,1.6,0c0,0,0,0,0,0c0.1,0,0.3-0.1,0.3-0.2C24.1,63,23.4,61.6,23.4,60.8 M47.9,61.7c-0.2-0.7-0.4-1.8-0.6-2.5c-0.1-1-0.2-2.1-0.4-3.1c-0.4-1.2-0.9-2.4-1.4-3.5c-0.4-0.7-1.1-1.3-1.7-1.9c-0.7-0.6-1.5-1-2.5-0.9c-1,0-1.9,0.6-2.7,1.2c-1.5,1.2-2.1,2.9-2.6,4.5c-0.6,2-1.1,4-1.7,6c0,0.3-0.2,0.6-0.2,0.9c-0.1,0.1-0.1,0.1-0.2,0.2c-0.1,0.3,0.2,0.5,0.5,0.4c0,0,0.2-0.1,0.2-0.1c0,0,0.1,0,0.1,0c0.7-0.2,1.9-0.1,2.9,0c1.3,0.1,2.6,0,3.8,0c1.9,0.1,3.8,0.1,5.7-0.1c0.3,0,0.6-0.2,0.7-0.5C48,62.1,47.9,61.9,47.9,61.7"/><path class="st5" d="M34.6,62c-0.4-3.4-0.9-6.4-1.7-9.7c-0.5-1.6-1-3.2-1.9-4.7c-0.3-0.7-0.9-1.2-1.6-1.5c-1-0.4-2.1-0.2-3,0.3c-1,0.7-1.4,1.9-1.8,3c-1.1,3.8-1,7.5-0.9,11.7c0.1,0.9,0.1,1.9,0.1,2.8c-0.2,0.2-0.1,0.5,0.2,0.6c0.1,0.1,0.4-0.1,0.5-0.2c0.4-0.1,0.5-0.1,1.1-0.4c0.2,0,1.8-0.4,1.9-0.4c1-0.2,1.5-0.4,2.5-0.5c1.2,0.1,2.7,0,3.5,0.1C34.7,63.3,34.7,62.9,34.6,62"/><path class="st6" d="M20.3,64.5c-0.1-0.6-0.2-1-0.3-1.5c-0.3-1.5-0.8-3.3-1.2-5c-0.3-1-0.6-2-0.7-2.8c0-0.3-0.2-0.8-0.3-0.9c0-0.1,0-0.4-0.3-0.4c-0.2,0-0.2,0.2-0.2,0.4c0,0.4,0.1,0.5,0.2,0.9c0.1,0.6,0.1,1.2,0.2,1.7c0.2,1,0.4,2.2,0.6,3.1c0.2,1.6,0.4,3.2,0.5,4.8c0,0.1,0,0.2,0.1,0.3c0.1,0.1,0.2,0.1,0.3,0c0,0,0.1,0,0.2,0c0,0,0.1,0,0.1,0c0,0,0,0,0.1,0c0.1,0,0.4-0.1,0.3-0.1c0.1-0.1,0.5,0.1,0.7-0.2C20.4,64.8,20.3,64.3,20.3,64.5"/><path class="st6" d="M29.3,62.2c-0.2-1.9-0.2-3.8-0.4-5.8c-0.1-1.3-0.5-2.7-0.6-4c0-0.3-0.1-0.7-0.1-0.9c0-0.2,0-0.4-0.1-0.5c-0.1-0.1-0.4,0-0.4,0.2c-0.1,2.7,0,5.7,0,8.7c0,1.1,0.1,2.2,0.2,3.3c0.1,0.1,0.2,0.1,0.3,0.1c0.2,0.2,0.3,0,0.6,0.1C29.7,63.5,29.4,63.1,29.3,62.2"/><path class="st6" d="M41.2,53.9c0-0.1,0-0.2,0-0.3c0,0,0,0,0,0h0c0-0.1-0.1-0.2-0.2-0.2c-0.2,0-0.2,0.2-0.2,0.4c0,0,0,0.1,0,0.1c0,0.1,0,0.1,0,0.2c-0.2,2-0.7,4.6-1,6.8c-0.1,0.7-0.3,1.5-0.3,2.2c0,0,0.1,0.1,0.1,0.1c0,0.1,0.1,0.1,0.2,0.1c0,0,0.2,0,0.3,0c0.3,0,0.7,0,1,0c0,0,0.5,0.1,0.5-0.2c0-1.1,0-2.1,0.1-3C41.7,57.9,41.4,55.9,41.2,53.9"/></g><g><path class="st5" d="M68.1,60.5c-0.7,0.4-1.7,0.7-2.7,0.9c-1.9,0.7-4.1,0.4-6.2,0.4C55.4,62,51.8,60.7,48,60c-3.9-0.9-7.6-1.2-11.5-1c-1.4,0.1-2.9,0.1-4.3,0.4c-0.6,0.1-1.2,0.1-1.8,0.3c-0.6,0.2-1.3,0.3-2,0.5c-0.9,0.3-1.7,0.7-2.7,0.9c-1.2,0.3-3.1,0.4-4.7,0.4c-0.8,0.1-1.2,0.2-2.1,0.3c-1.5,0-3.3-0.3-4.9-0.8c-0.8-0.2-1.3-0.5-2.2-0.8c-0.1,0-0.2,0-0.3,0c0,0-0.1,0-0.1,0.1c-0.2,0.1-0.3,0.3-0.2,0.4c0,0,0,0.1,0.1,0.1c0,0,0,0,0,0c0.2,0.4,0.3,0.8,0.4,1c0.8,1.6,2.4,2.6,3.8,3.7c1.3,0.8,2.7,1.4,4,2c0.8,0.4,1.4,0.9,2.2,1.1c1.2,0.3,2.6,0.3,3.8,0.3c1.2,0,2.4-0.3,3.5-0.6c1.6-0.3,3.1-0.9,4.7-1.3c0.9-0.4,1.8-0.7,2.7-1c1.6-0.4,2.9-0.7,4.3-0.9c1.7-0.2,3.3,0,5,0c2.1,0,4,0.3,6.3,0.6c2.6,0.3,5.2,0.6,7.9,0.7c1.5,0,3-0.5,4.2-1.4c1.1-0.6,2-1.3,2.8-2.3C67.4,62.6,69.3,60.5,68.1,60.5"/><g><path class="st4" d="M65.6,62.6c-0.2,0-0.3,0.1-0.5,0.1c-0.5,0.2-1,0.3-1.5,0.4c-1.2,0.4-2.3,0.5-3.7,0.7c-3.6,0.2-7,0.3-10.3-0.7c-2-0.5-3.5-1.3-5.5-1.9c-1.5-0.5-3.1-0.8-4.8-0.9c-1.6-0.1-3.2,0.2-4.8,0.2c-1.8,0.3-3.5,0.7-5.3,1.3c-0.8,0.2-1.6,0.5-2.4,0.9c-0.8,0.3-1.7,0.6-2.5,0.8c-0.9,0.3-1.9,0.3-2.9,0.5c-0.8,0.1-1.5,0.2-2.3,0.1c-0.7,0-1.5,0-2.2-0.2c-1-0.3-2-0.8-2.8-1.4c-0.2-0.2-0.5,0.1-0.3,0.3c1.3,0.9,2.8,1.7,4.4,1.8c1.2,0,2.4,0,3.5-0.2c1-0.1,1.8-0.2,2.7-0.5c1.4-0.3,2.6-0.9,3.9-1.4c1.2-0.4,2.5-0.8,3.6-1c1.1-0.3,2-0.5,3.1-0.5c1.5,0,3.5-0.3,4.6-0.1c3.2,0.3,5.9,1.5,8.8,2.5c2.8,1,5.4,1.1,8.4,1.2c2.4-0.1,4.8-0.2,7.1-0.9c0.5-0.1,0.9-0.3,1.4-0.4c0.1,0,0.3-0.1,0.3-0.2C65.9,62.9,65.8,62.6,65.6,62.6"/><path class="st4" d="M43,62.9c-0.2-0.1-0.1,0-0.3-0.1c-1.4-0.3-2.5-0.3-4-0.2c-1.1,0-2.2-0.1-3.3,0.2c-1.3,0.3-2.6,0.6-3.9,1c-1.4,0.6-2.8,1.1-4.3,1.7c-1.4,0.5-2.8,0.6-4.4,0.8c-0.3,0.1-0.7,0-1,0.2c-0.1,0.1,0,0.4,0.2,0.4c1.8-0.2,3.7-0.3,5.4-0.9c1-0.4,2.1-0.8,3.1-1.2c0.8-0.4,1.6-0.7,2.4-0.8c1.9-0.5,3.6-0.9,5.6-0.7c1.6-0.1,2.5-0.1,3.9,0.2c0.1,0,0.3,0.1,0.4,0C43.1,63.2,43.1,63,43,62.9"/><path class="st4" d="M37.3,64.5c-1,0-1.9,0.3-2.9,0.3c-1,0.2-2.1,0.5-3.1,0.8c-1.6,0.6-3.2,1-4.7,1.8c-0.3,0.2-0.9,0.4-1.1,0.7c-0.1,0.2,0.2,0.4,0.4,0.3c3.1-1.7,7-2.9,10.5-3.3c0.3-0.1,0.7,0,1-0.2C37.5,64.8,37.5,64.6,37.3,64.5"/><path class="st4" d="M62.5,65.1c-0.2-0.1-0.4,0-0.5,0.1c0,0,0,0,0,0c-0.8,0.1-1.5,0.2-2.3,0.2c-1,0-1.9,0.2-2.9,0.1c-1.5-0.2-3.6-0.3-5.5-0.8c-1.7-0.3-3.5-0.7-5.3-0.7c-0.1,0-0.3,0-0.3,0.1c-0.1,0.1,0,0.4,0.2,0.4c3,0,6,1,9.2,1.2c0.6,0,1.5,0.2,2.2,0.2c0.8,0,1.5-0.1,2.3-0.1c0.6,0,1.2,0,1.8-0.1c0.4,0,0.7,0,1.1-0.1C62.7,65.5,62.7,65.2,62.5,65.1"/></g></g></g></g></g></g><g><path class="st3" d="M15.8,47.1c-0.6-0.1-1,0-1.6,0.2c-0.7,0.3-1.4,1-1.7,1.5c-0.6,0.7-0.6,1.6-0.7,2.4c-0.1,1.6,0.1,3.3,0.3,4.9c0.1,0.7-0.3,1.2-0.7,1.7c-0.1,0.2-0.3,0.4-0.5,0.5c-0.1,0.1,0.1,0.3,0.2,0.2c0.7-0.5,1.4-1.6,1.3-2.5c-0.2-1.3-0.3-2.6-0.3-3.9c0-0.8,0.1-1.6,0.3-2.4c0.3-0.6,0.8-1.3,1.4-1.7c0.5-0.4,1.2-0.5,1.6-0.5c0.5,0,0.7,0.4,0.8,0.8c0,0.7,0,0.9-0.5,1.4c-0.4,0.5-0.8,0.7-1.3,0.8c-0.1,0-0.2-0.1-0.2-0.2c-0.1-0.4,0.1-0.3,0-0.6c-0.2-0.3-0.5,0-0.4,0.4c0,1,0.7,0.9,1.4,0.6c0.5-0.3,1-0.8,1.3-1.3C16.9,48.6,16.7,47.4,15.8,47.1"/><path class="st3" d="M13.3,45c-0.1,0-0.2,0.1-0.3,0.1c-1.2,0.6-1.8,1.5-2.3,2.7c-0.8,1.8-0.7,3.7-0.4,5.6c0.1,0.3,0,0.6,0.2,0.8c0.1,0.1,0.3,0,0.3-0.1c-0.4-2-0.5-4.1,0.2-5.8c0.5-1.3,1-2.1,2.2-2.7c0.1-0.1,0.3-0.1,0.4-0.3C13.5,45.1,13.4,45,13.3,45"/><path class="st3" d="M61.1,41.1c-0.2-0.3-0.6-0.5-1-0.7c-0.4,0-0.7,0.3-0.9,0.6c-0.5,0.7-0.7,1.4-0.8,2.3c-0.1,0.4-0.1,0.8,0.1,1.1c0.5,0.6,1,0.4,1.5-0.3c0.1-0.2,0.1-0.4,0.2-0.7c0-0.1,0-0.2,0-0.3c-0.2-0.2-0.4,0-0.4,0.2c0,0.7-0.6,1.1-0.7,1c-0.2-0.2-0.2-0.1-0.3-0.4c-0.1-0.6,0.3-2.2,0.7-2.7c0.2-0.3,0.6-0.5,0.6-0.5c0.2,0.1,0.5,0.2,0.7,0.4c0.6,0.7,0.7,1.4,0.6,2.3c-0.1,1.2-0.3,2.3-0.6,3.4c-0.7,2.2-1.3,4.5-2.4,6.6c-0.4,0.6-0.7,1.3-1.1,1.9c-0.1,0.2,0.2,0.3,0.3,0.1c1.4-2.1,2.4-4.5,3.1-6.9c0.5-1.5,0.9-3,1.1-4.6C61.7,43,61.7,41.9,61.1,41.1"/><path class="st3" d="M57.1,45.4c-0.1-0.2-0.3-0.1-0.3,0.1c0.2,1.6,0.3,3.2,0.1,4.7c0,0.5-0.2,1.3-0.4,1.1c-0.2-0.1-0.2-0.5-0.1-0.8c0-0.2,0.3-0.5,0.5-0.7c0.1-0.1,0-0.2,0-0.2c-0.1-0.1-0.3,0-0.4,0.1c-0.2,0.2-0.4,0.3-0.5,0.6c-0.1,0.4-0.1,0.8,0.1,1.1c0.3,0.4,0.8,0.2,0.9-0.3c0.3-1.1,0.4-2.5,0.3-3.7C57.3,46.8,57.2,46.1,57.1,45.4"/><path class="st3" d="M63.2,40.9c-0.1-0.3,0-0.7-0.2-1c-0.1-0.1-0.3,0-0.3,0.1c0.2,1.1,0.3,2.2,0.3,3.2c-0.2,1.2-0.5,2.4-0.7,3.6c-0.1,0.9-0.5,1.8-0.8,2.7c-0.6,2.3-1.4,4.5-2.7,6.5c-0.1,0.2-0.3,0.4-0.4,0.7c0,0.1,0.1,0.2,0.2,0.1c0.1-0.1,0.2-0.3,0.3-0.4c1.3-2.1,2.2-4.4,2.9-6.8c0.3-0.9,0.7-1.8,0.8-2.7c0.2-1.2,0.5-2.3,0.7-3.5C63.4,42.5,63.3,41.7,63.2,40.9"/></g><g><path class="st7" d="M20.8,44c-0.1-0.1-0.3-0.1-0.4,0.1c-0.2,0.7-0.4,1.2-0.6,1.8c-0.1,0.2,0.1,0.4,0.3,0.3c0.1-0.1,0.4-1.1,0.6-1.7C20.8,44.3,20.9,44.1,20.8,44"/><path class="st7" d="M24.5,42.7c-0.2,0.5-0.4,1.3-0.5,1.6c0,0.1-0.1,0.2-0.1,0.3c0,0.1,0.2,0.2,0.3,0.1c0.2-0.2,0.2-0.6,0.3-0.8c0.1-0.4,0.3-0.8,0.3-1.2C24.8,42.5,24.5,42.5,24.5,42.7"/><path class="st7" d="M22.9,47.8c-0.1-0.1-0.4-0.1-0.4,0.1c-0.2,0.8-0.4,1.5-0.7,2.2c-0.3,0.3,0.1,0.6,0.4,0.2c0.3-0.6,0.5-1.3,0.7-2C22.9,48.1,23,48,22.9,47.8"/><path class="st7" d="M28.8,42.9c-0.1-0.1-0.3-0.1-0.4,0.1c-0.1,0.5-0.4,1-0.4,1.4c0,0.1,0.2,0.2,0.3,0.1c0.2-0.4,0.3-0.9,0.4-1.3C28.8,43.1,28.9,43,28.8,42.9"/><path class="st7" d="M26.8,47c-0.2,0.7-0.5,1.4-0.7,1.9c-0.1,0.1,0,0.3,0.1,0.3c0.1,0,0.2,0,0.2-0.1c0.2-0.6,0.4-1.3,0.7-1.9C27.3,46.8,26.9,46.7,26.8,47"/><path class="st7" d="M32.4,43.4c-0.2,0.5-0.3,1.1-0.5,1.6c0,0.1,0.1,0.2,0.2,0.2c0.1,0,0.2-0.1,0.2-0.2c0.2-0.5,0.3-1,0.5-1.5C32.8,43.2,32.4,43.1,32.4,43.4"/><path class="st7" d="M30.4,48c-0.3,1.1-0.8,2.1-1.1,3.3c0.1,0.2,0.3,0.2,0.4,0c0.4-1.1,0.9-2.2,1.2-3.3C30.7,47.9,30.4,47.9,30.4,48"/><path class="st7" d="M36.2,43.8c-0.1,0.4-0.2,0.8-0.3,1.2c0,0.1,0.1,0.2,0.2,0.2c0.2,0,0.1-0.1,0.2-0.2c0.1-0.4,0.3-0.8,0.3-1.2C36.6,43.6,36.3,43.6,36.2,43.8"/><path class="st7" d="M34.9,47.8c-0.1-0.2-0.4-0.1-0.4,0.1c-0.3,0.8-0.6,1.8-1,2.7c0,0.1,0.1,0.2,0.2,0.2c0.4,0,0.4-0.6,0.5-0.9c0.2-0.6,0.5-1.3,0.7-1.9C34.9,48,35,47.9,34.9,47.8"/><path class="st7" d="M26.8,51c-0.3,0.7-0.6,1.5-0.9,2.2c-0.1,0.1,0.1,0.3,0.2,0.3c0.4-0.5,0.6-1.7,1-2.3C27.3,51,26.9,50.8,26.8,51"/><path class="st7" d="M23.6,51.8c-0.2,0.6-0.4,1.2-0.6,1.8c-0.1,0.2,0.1,0.3,0.3,0.2c0.3-0.6,0.5-1.3,0.7-1.9C24,51.7,23.7,51.7,23.6,51.8"/><path class="st7" d="M18.9,49.3c-0.2,0.6-0.5,1.3-0.8,2c-0.1,0.2-0.3,0.5,0,0.6c0.1,0,0.2-0.1,0.2-0.2c0.3-0.7,0.6-1.5,0.9-2.2C19.4,49.3,19,49,18.9,49.3"/><path class="st7" d="M19.8,53.2c-0.3,0.8-0.6,1.6-1,2.4c-0.1,0.2-0.5,0.6-0.1,0.8c0.2,0,0.2-0.1,0.3-0.2c0.4-0.7,0.6-1.4,0.9-2.1c0.1-0.2,0.3-0.5,0.3-0.7C20.1,53,19.8,53,19.8,53.2"/><path class="st7" d="M27.6,54.4c-0.4,0.7-0.8,1.7-1,2.3c0,0.1-0.1,0.1,0,0.2c0.2,0.3,0.4-0.1,0.5-0.3c0.3-0.7,0.6-1.4,0.9-2.1C27.9,54.3,27.6,54.2,27.6,54.4"/><path class="st7" d="M31.8,52.7c-0.3,0.8-0.5,1.5-0.8,2.4c0,0,0,0,0,0c0,0,0,0,0,0c0,0,0,0.1,0,0.1c0,0.1,0.2,0.1,0.3,0.1c0.1,0,0.1-0.1,0.2-0.2c0.3-0.8,0.6-1.6,0.8-2.4C32.2,52.6,31.8,52.5,31.8,52.7"/><path class="st7" d="M33.1,55.1C33.1,55.1,33.1,55.1,33.1,55.1"/><path class="st7" d="M40.2,43.7c-0.1,0.4-0.3,0.9-0.4,1.3c0,0.2,0.2,0.3,0.3,0.2c0.1-0.1,0.1-0.4,0.2-0.5c0.1-0.3,0.2-0.7,0.3-1C40.6,43.5,40.2,43.5,40.2,43.7"/><path class="st7" d="M37.7,47.7c-0.2,0.8-0.6,1.9-0.7,2.5c-0.1,0.1,0,0.4,0.3,0.3c0.4-0.8,0.6-1.8,0.9-2.7C38.2,47.5,37.8,47.4,37.7,47.7"/><path class="st7" d="M37.3,53.4c-0.2,0.8-0.5,1.8-0.8,2.5c0,0,0,0,0,0c0,0,0,0.1,0,0.1c0,0.1,0.2,0.2,0.3,0.1c0.4-0.8,0.6-1.8,0.9-2.6C37.8,53.2,37.4,53.1,37.3,53.4"/><path class="st7" d="M40.8,52.2c-0.1,0.7-0.3,1.7-0.5,2.3c-0.1,0.3-0.4,0.7,0.1,0.7c0.1,0,0.1-0.1,0.2-0.2c0.4-0.9,0.5-1.8,0.7-2.7C41.2,52,40.8,51.9,40.8,52.2"/><path class="st7" d="M41.7,47.9c-0.1,0.4-0.3,0.8-0.3,1.3c0,0.1,0.1,0.1,0.1,0.1c0.1,0,0.2,0,0.2-0.1c0.1-0.4,0.2-0.8,0.3-1.2C42.1,47.8,41.7,47.7,41.7,47.9"/><path class="st7" d="M44.4,43.3c-0.1,0.5-0.2,1.1-0.3,1.6c0,0.2,0.3,0.2,0.4,0.1c0.2-0.5,0.3-1.1,0.4-1.7C44.7,43.1,44.4,43.1,44.4,43.3"/><path class="st7" d="M48.8,42.1c-0.1-0.1-0.3-0.1-0.4,0.1c-0.2,0.6-0.4,1.2-0.5,1.7c0,0,0,0.1,0,0.1c0.1,0.1,0.3,0.1,0.3-0.1c0.1-0.4,0.3-0.9,0.4-1.3C48.7,42.5,48.9,42.3,48.8,42.1"/><path class="st7" d="M47,47.8c-0.1-0.2-0.4-0.1-0.5,0.1c-0.1,0.7-0.2,1.5-0.3,2.2c0,0.1-0.1,0.2,0,0.3c0,0.2,0.2,0.2,0.4,0.1c0.2-0.3,0.2-0.9,0.3-1.3C46.9,48.8,47.1,48.2,47,47.8"/><path class="st7" d="M45.9,54c-0.1-0.2-0.4-0.1-0.4,0.1c0,0.5-0.1,0.9-0.1,1.4c0,0.1,0,0.3,0.2,0.4c0.2,0,0.3-0.2,0.3-0.3c0.1-0.3,0.1-0.6,0.1-0.8C45.9,54.5,46,54.2,45.9,54"/><path class="st7" d="M52.3,54c-0.1-0.2-0.4-0.1-0.4,0.1c-0.1,0.8-0.1,1.5-0.2,2.3c0,0.2-0.2,0.6,0.2,0.6c0.1,0,0.2-0.1,0.2-0.2c0.1-0.7,0.2-1.5,0.2-2.2C52.3,54.4,52.4,54.2,52.3,54"/><path class="st7" d="M50.8,48c-0.1-0.1-0.3-0.1-0.3,0.1c0,0.5-0.1,0.9-0.2,1.4c0,0.1,0,0.2,0.1,0.2c0.3,0.1,0.3-0.2,0.3-0.4c0-0.2,0.1-0.5,0.1-0.7C50.8,48.3,50.9,48.1,50.8,48"/><path class="st7" d="M52.1,42.6c-0.1-0.1-0.3-0.1-0.4,0.1c0,0.7-0.1,1.4-0.2,2.1c0,0.1,0.1,0.2,0.2,0.2c0.1,0,0.2-0.1,0.2-0.2c0.1-0.6,0.2-1.1,0.2-1.7C52.1,43,52.2,42.8,52.1,42.6"/><path class="st7" d="M53.6,50.2c-0.1,0.5-0.1,1.1-0.1,1.6c0,0.1,0.1,0.2,0.2,0.2c0.2,0,0.3-0.1,0.3-0.3c0-0.5,0-0.9,0.1-1.4C54.1,50.1,53.7,49.9,53.6,50.2"/><path class="st7" d="M56,55.8c-0.1-0.1-0.4,0-0.4,0.2c0,0.6,0,1.1,0,1.7c0,0.1,0.1,0.1,0.1,0.2c0.1,0.1,0.3-0.1,0.3-0.2c0-0.4,0-0.8,0-1.1C56,56.2,56.2,56,56,55.8"/><path class="st7" d="M54.9,42.4c-0.1-0.1-0.3-0.1-0.4,0.1c-0.1,1-0.1,2-0.3,3c0,0.3-0.3,0.9,0.1,0.9c0.2,0,0.2-0.3,0.2-0.5c0.1-0.9,0.2-1.7,0.2-2.6C54.8,43,55,42.7,54.9,42.4"/><path class="st7" d="M45,56.6c-0.2,0.7-0.4,1.7-0.6,2.3c-0.1,0.2,0.1,0.3,0.3,0.2c0.1-0.1,0.1-0.2,0.1-0.3c0.2-0.7,0.4-1.4,0.5-2.2C45.4,56.4,45,56.4,45,56.6"/><path class="st7" d="M48.8,58.1c0,0.4-0.2,0.9-0.1,1.3c0.5,0.5,0.4-0.9,0.5-1.2C49.3,57.9,48.8,57.8,48.8,58.1"/><path class="st7" d="M53.2,58.2c-0.1-0.2-0.4-0.1-0.4,0.1c0,0.6-0.1,1.6-0.1,1.9c-0.1,0.2,0,0.4,0.2,0.4c0.1,0,0.2-0.1,0.2-0.2c0.1-0.5,0.1-1,0.1-1.5C53.2,58.6,53.3,58.4,53.2,58.2"/><path class="st7" d="M41.1,56.9c-0.1,0.5-0.1,1-0.2,1.6c0,0.1,0.1,0.2,0.2,0.2c0.2,0,0.3-0.1,0.3-0.3c0.1-0.5,0.1-0.9,0.2-1.4C41.6,56.7,41.2,56.6,41.1,56.9"/><path class="st7" d="M20.3,58.3c-0.1,0.6-0.3,1.1-0.4,1.7c0,0.1,0.1,0.2,0.2,0.2c0.1,0,0.2-0.1,0.2-0.2c0.1-0.6,0.3-1.1,0.4-1.7C20.7,58.1,20.3,58,20.3,58.3"/><path class="st7" d="M24.2,55.9c-0.2,0.8-0.3,1.7-0.5,2.5c0,0.1-0.1,0.3-0.1,0.4c0,0.1,0.2,0.2,0.3,0.1c0.1-0.1,0.1-0.2,0.1-0.3c0.2-0.8,0.3-1.6,0.5-2.5C24.8,55.8,24.3,55.6,24.2,55.9"/><path class="st7" d="M32,57c-0.1-0.1-0.3,0-0.4,0.1c-0.2,0.5-0.4,1.1-0.5,1.6c0,0.1,0,0.2,0.1,0.2c0.2,0.1,0.3-0.1,0.3-0.2c0.1-0.4,0.3-0.9,0.4-1.1C32,57.5,32.2,57.2,32,57"/><path class="st7" d="M16.1,53.2c-0.1,0.8-0.3,1.7-0.4,2.5c-0.1,0.2,0.2,0.3,0.3,0.2c0.3-0.8,0.3-1.7,0.5-2.6C16.5,53,16.1,53,16.1,53.2"/><path class="st7" d="M16.7,58.6c-0.2,0.8-0.4,1.6-0.6,2.3c0,0.2,0.1,0.3,0.3,0.3c0.1,0,0.2-0.1,0.2-0.2c0.2-0.8,0.5-1.6,0.6-2.4C17.3,58.4,16.8,58.3,16.7,58.6"/><path class="st7" d="M36.4,56.3c-0.2,0.8-0.4,1.5-0.6,2.2c-0.1,0.2,0.2,0.3,0.3,0.2c0.3-0.6,0.4-1.7,0.7-2.4C36.9,56.1,36.4,56.1,36.4,56.3"/><path class="st7" d="M35.2,51.8c-0.2,0.8-0.4,1.5-0.6,2.3c-0.1,0.2,0.2,0.3,0.3,0.2c0.3-0.7,0.4-1.6,0.7-2.4C35.7,51.6,35.2,51.6,35.2,51.8"/></g><g><g><g><path class="st3" d="M57.7,34c-0.4-2-2.6-3.1-4.4-3.8c-0.1,0-0.1-0.1-0.2-0.1c0,0,0,0,0,0c0.7-0.5,1.7-1.1,1.7-2.1c-0.3-1.2-1.3-2.3-2.3-2.9c-1-0.5-2.1-0.7-3.1-0.9c-0.6,0-1.7,0-2.2,0c0,0,0,0,0,0c0-0.3,0.3-1,0.4-1.6c0.2-0.8-0.2-1.5-0.7-2.2c-0.3-0.3-0.6-0.7-1-0.9c-0.7-0.4-1.5-0.5-2.3-0.4c-0.6,0.1-1.2,0.4-1.7,0.6c0.6-0.9,0.3-2.1-0.5-2.8c-0.9-0.7-1.9-1.2-2.9-1.6c-1.4-0.3-3,0.2-4,1.2c0,0-0.1,0.1-0.1,0.1c-1-0.1-2.1,0-3,0.1c-2.2,0.3-4,2.4-4,4.6c-0.1-0.1-0.3-0.1-0.5-0.2c-2.5-0.8-8,1-9.4,3.2c-0.4,0.7-0.8,1.5-0.7,2.3c-2.1-0.6-5.4,0.8-7,2C8.1,30,6.5,32.8,7.1,35c0.7,2,3.1,2.9,5.1,2.6c1.1-0.1,2.1-0.3,3.2-0.5c0.3-0.1,0.6-0.3,0.8-0.4c-0.6,2.4,1.9,4,4.3,4.1c0.8,0,1.5-0.3,2.2-0.5c1.2-0.4,2.8-1.1,3.7-1.6c1.6,5.4,7.5,4.1,10.9,1.2c0.4-0.3,0.7-0.6,1.1-1c0,0,0,0,0.1,0.1c0.5,0.8,1.1,1.6,2,1.9c1.3,0.5,3,0.5,4.1,0.1c1.8-0.5,4.3-1.6,4.2-3.8c0,0,0,0,0,0c0.2,0.1,0.4,0.2,0.5,0.3c1.1,0.8,2.7,0.6,4,0.6C55.5,37.8,58,36.6,57.7,34"/><g><path class="st8" d="M12.5,34c-0.2-0.1-0.5,0-0.7,0.1c-0.3,0.1-0.5,0.2-0.8,0.2c-0.4,0-0.9-0.5-0.9-0.8c-0.3-0.6,0.6-1.5,1.1-2.1c0.1-0.1,0.3-0.2,0.3-0.4c0-0.2-0.2-0.3-0.3-0.2c-0.4,0.4-0.7,0.8-1.1,1.2c-0.2,0.4-0.5,0.7-0.5,1.2c0.1,0.7,0.6,1.3,1.3,1.4c0.4,0,0.8-0.1,0.9-0.2c0.2-0.1,0.5,0,0.7-0.2C12.7,34.2,12.6,34.1,12.5,34"/><path class="st8" d="M23.3,23.8c-0.6,0.1-1.1,0.3-1.7,0.6c-0.3,0.1-0.7,0.3-0.9,0.7c-0.2,0.3-0.3,0.7-0.3,1c0.1,0.6,0.5,1.2,1.1,1.2c0.2,0,0.3,0.1,0.5,0c0.1,0,0.2-0.2,0.1-0.4c-0.2-0.1-0.4-0.1-0.6-0.1c-0.3,0-0.6-0.4-0.7-0.8c-0.1-0.3,0-0.4,0.2-0.8c0.1-0.4,1.4-0.9,2-1c0.1,0,0.2,0,0.3-0.1C23.6,24,23.5,23.8,23.3,23.8"/><path class="st8" d="M19.5,32c-0.1,0-0.3,0.1-0.4,0.1c0,0-0.1,0-0.1,0c-0.6,0.2-1.4,0.1-1.8,0c-0.6-0.4-0.8-1-0.6-1.5c0.2-0.6,0.9-1.2,1.4-1.5c0.4-0.1,0.3-0.6-0.1-0.5c-0.4,0.2-0.7,0.5-1,0.9c-0.4,0.4-0.8,0.9-0.8,1.5c0.1,1.5,1.5,2,2.8,1.7c0.2-0.1,0.6-0.1,0.8-0.3C19.8,32.2,19.7,32,19.5,32"/><path class="st8" d="M22.7,36.9c-0.2,0-0.4,0.2-0.6,0.3c-0.4,0.2-0.8,0.4-1.1,0.4c-0.4,0-0.7-0.3-0.8-0.6c0.1-0.3,0.6-1.5,1.1-2c0.3-0.2,0-0.6-0.3-0.4c-0.5,0.5-0.8,1.2-1.1,1.8c-0.1,0.2-0.2,0.5-0.1,0.7c0.2,0.5,0.7,1,1.3,0.9c0.4,0,0.8-0.3,1.2-0.4c0.2-0.1,0.5-0.2,0.6-0.4C22.9,37.1,22.8,36.9,22.7,36.9"/><path class="st8" d="M33.5,38.7c-0.1-0.1-0.2-0.1-0.3-0.1c-0.2,0.1-0.5,0.2-0.7,0.4c-0.6,0.4-1.7,0.5-1.9,0.3c-0.1-0.1-0.1-1.1,0.1-1.6c0.2-0.3-0.2-0.6-0.4-0.3c-0.2,0.7-0.4,1.5-0.1,2.1c0.2,0.2,0.5,0.3,0.8,0.3c0.4,0,0.9-0.1,1.3-0.2c0.4-0.2,0.7-0.4,1.1-0.6C33.5,39,33.6,38.9,33.5,38.7"/></g></g><g><path class="st7" d="M28.3,25.7c0.1,0,0.3,0,0.4,0 M71.1,33.2c-0.8-1.1-1.8-2.2-3-2.8c-0.1-0.1-0.2-0.1-0.4-0.2c0-0.2,0.3-0.4,0.7-0.8c1-0.9,1.3-2.2,1-3.5c-0.6-1.4-1.9-2.5-3.1-3.4c-1-0.6-2.2-0.9-3.4-1.2c-0.5-0.1-1.5-0.2-1.8-0.2c0,0,0,0,0,0c-0.2-0.4,0.4-1.5,0.5-2.4c0.2-1.1-0.3-2.3-1.1-3.1c-0.5-0.4-1.2-0.7-1.8-0.9c-0.7-0.3-1.8-0.3-2.3-0.3c0,0,0,0,0-0.2c0.2-0.5,0.4-1.7,0.1-2.5c-0.2-0.4-0.5-0.8-0.8-1.2c-0.7-0.8-1.8-1.1-2.8-1.2c-0.8-0.1-1.6,0.2-2.2,0.6c-0.5,0.3-1.2,0.9-1.3,1.3c-1-0.3-2-0.4-3-0.4c-0.6,0.1-1.1,0.6-1.6,0.9c-1.2,0.9-2.9,2.1-2.1,3.7c0,0,0.1,0.1,0.1,0.1c-0.2,0-0.4,0-0.6,0.1c-0.9,0.1-1.8,0.5-2.6,1c-0.9,0.5-1.9,1.1-2.6,1.9c-0.6,0.7-1,1.6-0.6,2.5c0.1,0.2,0.2,0.4,0.3,0.6c0,0-0.1,0-0.1,0c-0.1,0-0.1,0-0.2,0c-0.6-0.2-1.2-0.4-1.8-0.5c-0.4,0-1.6-0.6-2.7,0.6c-0.7,0.6-0.8,1.9-0.9,2.8c-0.4,0.3-0.8,0.6-1.2,0.8c0,0,0,0,0,0c0,0-0.1,0-0.1,0c-0.9-0.2-1.8,0-2.6,0.6c-0.7,0.6-1.4,1.3-1.9,2.1c-0.9,1.4-0.5,2.1,0.2,3.5c0.5,0.8,1,1.3,1.7,2c0.3,0.3,0.8,0.7,1.4,1c0.8,0.4,1.7,0.9,2.6,1.1c1.8,0.3,3.3,0.4,5.1,0c1.1-0.2,2.2,0,3.4,0.4c1.5,0.4,3.5,1.3,5.3,2c1.5,0.5,3.1,0.9,4.7,1.2c1.2,0.2,2.2,0.1,3.3,0.1c1-0.1,2.1-0.3,3.1-0.4c0.7-0.1,1.1-0.3,1.7-0.3c1,0,2,0.4,3,0.5c1.4,0.2,2.6,0.3,4.1-0.2c0.5-0.2,0.9-0.3,1.4-0.5c0.2,0,0.4-0.1,0.6-0.1c1.1-0.2,2.3-0.5,3.3-1C71.5,36.3,72,34.6,71.1,33.2"/><g><path class="st7" d="M33.5,21.4C33.5,21.4,33.5,21.4,33.5,21.4C33.5,21.4,33.5,21.4,33.5,21.4C33.5,21.4,33.4,21.5,33.5,21.4"/><path class="st3" d="M29.9,28.8c0.1-0.1,0.3-0.1,0.4-0.2c0.1-0.2,0-0.4-0.2-0.4c-0.8,0.3-2.8,1.4-2.3,2.6c0.2,0.4,0.5,0.7,0.8,0.8c0.2,0.1,0.3,0.2,0.7,0.2c0.1,0,0.2,0.1,0.4,0.1c0.1-0.1,0.2-0.3,0.1-0.4c-0.1-0.1-0.4-0.1-0.5-0.2c-0.4,0-1.1-0.5-1.1-1C28.1,29.9,29.1,29.2,29.9,28.8"/><path class="st3" d="M37.9,23.7c-0.9-0.3-2.3-0.1-2.8,0.9c-0.3,0.9,0.4,1.4,1,1.8c0.3,0.1,0.3,0.3,0.5,0.2c0.1-0.1,0.2-0.2,0.1-0.4c-0.1-0.1-0.2-0.1-0.3-0.2c-0.2-0.1-0.6-0.4-0.8-0.6c0,0,0,0-0.1-0.1c0,0,0,0,0,0c0,0,0,0,0,0c-0.2-0.5,0-0.9,0.7-1.2c0.3-0.1,1.1-0.3,1.4-0.2c0.1,0,0.3,0.1,0.4,0.1C38.1,24,38.1,23.8,37.9,23.7"/><path class="st3" d="M46.1,18.1c-0.9-0.2-1.9-0.4-2.7,0.2c-0.5,0.4-0.9,0.9-1.1,1.5c-0.1,0.5,0,1.1,0.3,1.5c0.3,0.4,0.8,0.6,1.2,0.7c0.1,0.1,0.3,0.1,0.4,0c0.2-0.3-0.2-0.5-0.5-0.5C43.5,21.4,43,21.1,43,21c-0.6-0.7-0.2-1.5,0.5-2.2c0.6-0.6,1.4-0.5,2.3-0.3c0.1,0,0.3,0.1,0.4,0C46.3,18.4,46.3,18.1,46.1,18.1"/><path class="st3" d="M52.1,13.5c-0.5-0.3-1-0.6-1.5-0.7c-0.4-0.1-0.9,0-1.3,0.1c-0.2,0.1-0.4,0.2-0.5,0.5c-0.1,0.8-0.1,1.8,0.3,2.5c0.1,0.2,0.4,0,0.3-0.2c-0.3-0.6-0.3-2.1-0.2-2.3c0.3-0.2,1.1-0.3,1.4-0.2c0.5,0.1,0.9,0.5,1.4,0.7C52.3,14,52.3,13.6,52.1,13.5"/><path class="st3" d="M55.8,18.3c-1.2-0.2-2.6,0.2-3.3,1.4c-0.3,0.8,0,1.7,0.7,2c0.5,0.4,1.1,0.5,1.6,0.7c0.1,0.1,0.3,0.1,0.4,0c0.3-0.4-0.4-0.6-0.6-0.7c-0.6-0.2-1-0.3-1.4-0.7c-0.8-0.7-0.3-1.8,0.9-2.2c0.4-0.1,1.1-0.2,1.6-0.1C56,18.8,56.1,18.3,55.8,18.3"/><path class="st3" d="M47.8,26.1c0.5-0.3,0.9-0.3,1.5-0.5c0.2-0.1,0.1-0.4-0.1-0.4c-0.6,0.1-1.2,0.2-1.7,0.6c-0.9,1.1-0.3,1.8,0.7,2.4c0.7,0.2,0.6-0.5,0.2-0.4c-0.4-0.1-1-0.7-1-0.9C47.5,26.7,47.7,26.2,47.8,26.1"/><path class="st3" d="M42.9,29c-0.1-0.1-0.2,0-0.3,0c-1-0.1-1.4-0.8-1-1.4c0.4-0.5,0.9-0.7,1.5-1c0.1-0.2,0-0.4-0.2-0.3c-0.6,0.3-1.4,0.6-1.8,1.3c-0.4,1,0.4,1.7,1.2,1.8c0.2,0,0.4,0.1,0.5,0C43,29.3,43,29.1,42.9,29"/><path class="st3" d="M37.6,32.8c-0.1-0.1-0.2-0.1-0.3-0.1c0,0-0.1,0-0.1,0c-1.7-0.5-1.3-1.5,0-2.6c0.2-0.2,0.4-0.2,0.6-0.5c0.1-0.2-0.1-0.4-0.3-0.3c-0.7,0.5-1.6,1.2-1.8,2.1c-0.2,1,0.8,1.7,1.6,1.8C37.5,33.3,37.8,33.1,37.6,32.8"/><path class="st3" d="M49,31.5c-1.1,0.2-3.3,1-3.3,2.5c0.2,1,1.2,1.5,2,1.5c0.2,0,0.4,0.1,0.6-0.1c0.1-0.1,0.1-0.3,0-0.4c-0.2-0.1-0.4,0-0.5,0c-0.8,0-1.6-0.5-1.6-1.1c0-0.2,0.2-0.6,0.7-1c0.6-0.4,1.5-0.8,2.2-1c0.1,0,0.2,0,0.3-0.1C49.3,31.7,49.2,31.5,49,31.5"/><path class="st3" d="M55.9,29.3c-0.2-0.1-0.2,0-0.5,0c-1.3,0-1.7-0.9-0.8-1.8c0.5-0.5,0.9-1,1.4-1.3c0.2-0.1,0.1-0.5-0.2-0.4c-0.5,0.3-1,0.8-1.4,1.2c-0.3,0.3-0.7,0.7-0.7,1.2c-0.1,1.1,1,1.5,1.8,1.4c0.2,0,0.2,0,0.4,0C56,29.6,56,29.4,55.9,29.3"/><path class="st3" d="M65.4,26.7c-0.2-0.1-0.3,0-0.5,0.1c-0.9,0.1-1.7,0.3-2.3-0.3c-0.1-0.2-0.3-0.4-0.1-0.7c0.2-0.6,0.7-1.1,1.3-1.6c0.2-0.2-0.1-0.5-0.2-0.3c-2.8,2.3-1.5,4.1,1.6,3.5c0.1,0,0.3,0,0.4-0.2C65.6,27,65.5,26.8,65.4,26.7"/><path class="st3" d="M66,33.2c-0.3-0.1-0.6,0.1-0.8,0.1c-0.4,0.1-1,0.4-1.2,0.4c-0.4,0-0.7-0.3-0.7-0.8c0-0.5,0.2-1.4,0.5-2c0.1-0.3-0.3-0.4-0.4-0.2c-0.3,0.7-0.5,1.5-0.5,2.2c0.1,0.6,0.4,1.1,0.9,1.2c0.6,0.1,1.2-0.3,1.8-0.4c0.1,0,0.3,0,0.4-0.1C66.1,33.6,66.1,33.3,66,33.2"/><path class="st3" d="M56.6,35.8c-0.2-0.1-0.2,0-0.5,0c-0.3,0-1,0.1-1.2,0.1c-0.3-0.1-0.6-0.3-0.6-0.7c0-0.5,0.4-1.4,0.7-2c0.1-0.2-0.2-0.5-0.3-0.2c-0.4,0.7-0.8,1.5-0.8,2.4c0.1,0.5,0.4,0.7,0.8,0.9c0.5,0.2,1.3-0.1,1.5-0.1c0.1,0,0.3,0,0.4,0C56.7,36.1,56.7,35.9,56.6,35.8"/><path class="st3" d="M59.5,31.5c0,0-0.2-0.1-0.3-0.1c-0.2-0.1-0.5-0.3-0.5-0.4c-0.1-0.2,0.2-1.3,0.5-1.7c0.1-0.2,0.3-0.3,0.3-0.5c0-0.2-0.2-0.2-0.3-0.1c-0.4,0.6-1.3,2.2-0.5,2.8c0.2,0.2,0.6,0.4,0.9,0.2C59.6,31.8,59.6,31.6,59.5,31.5"/><path class="st3" d="M62.4,36.4c-0.4,0.3-0.8,0.6-1.1,0.4c0,0,0,0,0,0c-0.1-0.1,0-0.8,0-1c0-0.2,0.1-0.3,0.1-0.5c-0.1-0.2-0.3-0.1-0.3,0c-0.1,0.5-0.4,1.2-0.1,1.7c0.3,0.5,1.2,0,1.3-0.2c0.1-0.1,0.2-0.1,0.3-0.2C62.7,36.5,62.5,36.4,62.4,36.4"/><path class="st3" d="M69.7,35c0-0.1-0.1-0.2-0.2-0.2c-0.2,0.1-0.2,0.3-0.4,0.4c-0.6,1.1-1.5,0.9-2.2,0.2c-0.2-0.2-0.5,0.2-0.2,0.4c0.5,0.6,1.8,1,2.5,0.1c0.2-0.2,0.3-0.4,0.5-0.6C69.7,35.2,69.7,35.1,69.7,35"/></g></g></g><g><path class="st7" d="M41.8,8.1c-0.4-0.3-0.8-0.6-1.2-0.7c0.1-0.2,0.3-0.4,0.3-0.6c0.2-1.3-1-2.2-2.1-2.4c-0.6-0.1-1-0.1-1.7-0.1c-0.8,0-1.6,0.5-2.1,1.1c-0.1,0.1-0.1,0.1-0.2,0.2c0,0,0-0.1-0.1-0.1c-0.4-0.3-0.9-0.4-1.3-0.5c-0.7-0.1-1.4-0.1-2,0.2c-0.8,0.3-1.1,1.3-1,2.1c0,0,0,0,0,0c-0.5-0.2-1-0.1-1.5-0.1c-0.6,0-1.3,0.1-1.8,0.3c-1.2,0.3-3,1.2-2.8,2.6c0,0.1,0,0.2,0.1,0.3c-0.1,0-0.2,0-0.3,0c-1.1,0-1.7,0.2-2.7,0.5c-1.1,0.3-2.2,0.9-2.9,1.8c-1,1.5-1.1,3.3,1,3.7c1.5,0.2,3-0.3,4.3-1c0.2-0.1,0.4-0.3,0.6-0.4c0.3,0.9,1.3,1.6,2.1,1.6c1.2,0,2.3-0.9,3.3-1.6c0.1,0.2,0.1,0.5,0.3,0.7c0.4,0.5,0.9,0.9,1.4,1c1.1,0.2,2.2-0.6,2.9-1.3c0.3-0.3,0.4-0.6,0.5-0.9c0.4,0.6,1.2,0.8,2,0.5c1.2-0.3,2.8-0.8,3-2.2c0-0.5-0.1-0.9-0.3-1.3c0.2,0,0.4,0,0.6,0c0.7-0.1,1.4-0.4,1.9-0.9c0.3-0.4,0.5-0.8,0.7-1.3C42.6,8.8,42.3,8.3,41.8,8.1"/><g><path class="st3" d="M21,14.1c-0.3,0.1-0.9,0.1-0.9,0c-0.3-0.2-0.2-0.6,0-0.7c0.4-0.3,0.7-0.6,1-0.7c0.2-0.1,0-0.4-0.2-0.3c-0.4,0.2-0.7,0.4-1,0.7c-0.2,0.1-0.4,0.3-0.4,0.5c-0.1,0.4,0.1,0.8,0.4,1c0.3,0.1,0.6,0,0.9,0c0.1,0,0.3-0.1,0.4-0.2C21.4,14.1,21.2,14,21,14.1"/><path class="st3" d="M28.9,8.2c-0.5,0.1-1,0.2-1.5,0.4C27,8.8,26.7,9,26.5,9.3c-0.2,0.3-0.1,0.7,0.2,0.9c0.3,0.2,0.6,0.2,0.9,0.2c0.1,0,0.5,0,0.7,0c0.2-0.1,0.1-0.4-0.2-0.4c-1,0.1-1.9-0.1-0.9-0.8c0.4-0.2,1.1-0.5,1.7-0.5C29.2,8.6,29.1,8.2,28.9,8.2"/><path class="st3" d="M27.3,14.1c-0.1-0.1-0.2,0-0.4,0.1c0,0-0.1,0-0.2,0c-0.8,0.2-1.1-0.3-0.8-0.7c0.3-0.4,0.8-0.6,1.4-0.8c0.2-0.1,0.1-0.4-0.1-0.4c-0.6,0.3-1.4,0.6-1.7,1.3c-0.3,1,0.8,1.3,1.5,1c0.1,0,0.2-0.1,0.3-0.1C27.4,14.4,27.4,14.2,27.3,14.1"/><path class="st3" d="M33.9,13.2c-0.5,0.2-1.4,0.6-1.6,0.7c-0.3,0-0.3,0-0.4-0.3c-0.1-0.3-0.1-0.4,0-0.7c0.3-0.5,0.8-1,1.3-1.4c0.2-0.1,0-0.4-0.2-0.3c-0.5,0.3-0.9,0.8-1.2,1.2c-0.3,0.4-0.4,1-0.2,1.4c0.4,0.9,1.4,0.1,2-0.1c0.2-0.1,0.5-0.1,0.7-0.3C34.3,13.2,34.1,13.1,33.9,13.2"/><path class="st3" d="M34.8,7.1C34.3,7,33.8,7,33.3,7c-0.4,0-0.8,0.1-1,0.4c-0.7,0.7,0.2,1.3,0.9,1.4c0.2,0,0.5,0.2,0.7,0.1c0.2-0.2-0.1-0.4-0.3-0.4C33,8.3,32.6,8.3,32.4,8c-0.1-0.1,0-0.5,0.4-0.6c0.6-0.1,1.3-0.1,2,0.1C35,7.5,35.1,7.2,34.8,7.1"/><path class="st3" d="M38.8,9.4c-0.4,0.1-0.7,0.2-0.9,0.1C37,9.1,37.7,8.7,38.4,8c0.1-0.1,0.2-0.2,0.4-0.3c0.1,0,0.2-0.1,0.2-0.2c0-0.1-0.2-0.3-0.3-0.2c-0.5,0.3-0.9,0.7-1.3,1.2C37.2,8.7,37,9,37.2,9.3c0.3,0.5,1,0.6,1.5,0.4C38.9,9.7,39,9.5,38.8,9.4"/><path class="st3" d="M37.8,13.2c-0.3,0.1-0.3,0.1-0.4,0.1c-0.1,0-0.1-0.4,0-0.8c0-0.1,0.2-0.2,0.1-0.4c-0.1-0.1-0.3-0.2-0.3,0c-0.4,0.8-0.4,1.9,0.8,1.4C38.1,13.5,38,13.1,37.8,13.2"/><path class="st3" d="M38.4,5.2c-0.5-0.1-0.9,0-1.4,0.2c-0.2,0.1-0.5,0.2-0.6,0.5c-0.1,0.2-0.1,0.4,0.1,0.6c0.2,0.1,0.4-0.1,0.3-0.3c0,0,0,0,0,0c0,0,0,0,0,0c0,0,0-0.1,0-0.1c0,0,0,0,0,0c0.1-0.2,1-0.3,1.3-0.3c0.1,0,0.3,0.1,0.4,0C38.6,5.5,38.5,5.2,38.4,5.2"/></g></g></g></g><g><g><path class="st14" d="M20.1,1.4c-0.2,0-0.4,0.1-0.6,0.1c-1.6,0.4-3.2,1.1-4.6,2c-1.2,0.8-2.2,1.7-3.1,2.8c-1.3,1.6-2.4,3.4-3,5.4c-1,3.4-0.8,6.7,0.5,9.9c0.6,1.5,1.5,2.9,2.6,4.1c2.2,2.4,4.9,3.9,8.1,4.5c2.9,0.5,5.7,0.2,8.4-0.9c0.8-0.3,1.6-0.7,2.3-1.2c0,0,0.1,0,0.1,0c-0.2,0.7-2.9,3.1-4.7,4.1c-1.8,1.1-3.8,1.8-5.9,2.1c-2.1,0.3-4.2,0.2-6.3-0.3C4.6,31.9-0.7,22.5,1.6,13.7C3.9,4.8,12.5,0.2,20.1,1.4z"/><path class="st22" d="M11,34.3c-0.1,0-0.2-0.1-0.2-0.1c-0.6-0.2-1.1-0.5-1.6-0.9c-2.8-1.8-5-4.3-6.6-7.3c-0.1-0.1-0.1-0.3-0.2-0.4c0,0,0-0.1,0-0.1c0.1,0,0.1,0,0.1,0c0.1,0.1,0.1,0.2,0.2,0.3c0.8,1.4,1.6,2.7,2.6,3.8c1.4,1.6,3.1,2.9,4.9,4c0.3,0.2,0.6,0.3,0.9,0.4c0.1,0,0.1,0.1,0.1,0.2C11.1,34.3,11,34.3,11,34.3z"/><path class="st22" d="M2.4,28.6c0.1,0,0.2,0.1,0.3,0.2c1.1,1.3,2.3,2.4,3.6,3.4c0.3,0.2,0.6,0.4,0.8,0.6c0.1,0.1,0.3,0.2,0.2,0.3c-0.1,0.2-0.3,0.1-0.4,0c-0.8-0.5-1.5-1.1-2.2-1.7c-0.8-0.7-1.6-1.5-2.2-2.4c-0.1-0.1-0.1-0.2-0.2-0.2C2.3,28.7,2.3,28.7,2.4,28.6z"/><path class="st22" d="M1.2,13.2c0.1,0.1,0,0.2,0,0.2c-0.6,1.1-0.8,2.2-0.8,3.4c0,0.5-0.1,1.1,0.1,1.6c0,0.1,0,0.2,0,0.3c0,0.1,0,0.1-0.1,0.1c-0.1,0-0.2-0.1-0.2-0.1c0-0.1-0.1-0.2-0.1-0.3c0-1.6,0.1-3.2,0.8-4.8C1,13.3,1,13.3,1.2,13.2z"/><path class="st22" d="M10.1,34.7c-0.4-0.1-0.7-0.2-1.1-0.5c0,0-0.1-0.1-0.1-0.1C9,34,9.1,34,9.1,34c0.1,0,0.1,0,0.2,0.1c0.3,0.2,0.5,0.3,0.8,0.3c0.1,0,0.2,0.1,0.1,0.2C10.3,34.7,10.2,34.7,10.1,34.7z"/><path class="st22" d="M2,11.5c-0.1,0.3-0.3,0.6-0.4,0.9c0,0,0,0-0.1,0c0,0-0.1,0,0-0.1C1.6,12.1,1.7,11.8,2,11.5C1.9,11.5,1.9,11.5,2,11.5z"/></g><g><path class="st6" d="M15.9,1.9c-1.8,0.8-3.6,1.7-5.4,2.6C9.7,4.9,8.9,5.3,8.3,5.9c-0.6,0.5-1.1,1-1.4,1.7c-0.7,1.3-1,2.8-1.5,4.3c-0.3,0.8-0.7,1.6-1.1,2.3c-0.4,0.8-0.7,1.7-0.9,2.6C2.8,19.9,3,23.6,5,26.3c1,1.4,2.4,2.5,3.8,3.6c1.3,1.1,2.7,2,4.3,2.7c0.8,0.3,1.6,0.6,2.5,0.7c0.9,0.1,1.9,0.1,2.8-0.1c1-0.2,1.9-0.4,2.8-0.6c1-0.2,1.9-0.5,2.9-0.7c0.5-0.1,1-0.2,1.4-0.4c0.1,0,0.1-0.3-0.1-0.2c-1.9,0.5-3.8,0.9-5.7,1.3C18.9,32.8,18,33,17.1,33c-0.9,0-1.8-0.1-2.7-0.3c-1.6-0.5-3.1-1.3-4.4-2.3c-0.7-0.5-1.3-1-2-1.6c-0.7-0.5-1.3-1.1-1.9-1.7c-1.1-1.2-1.9-2.7-2.3-4.3c-0.4-1.6-0.4-3.2-0.3-4.8C3.6,17,3.7,16.1,4,15.3c0.3-0.8,0.8-1.6,1.2-2.4c0.6-1.4,0.9-2.9,1.4-4.3c0.3-0.7,0.6-1.3,1.1-1.9c0.5-0.6,1.2-1.1,2-1.5c0.8-0.4,1.7-0.8,2.5-1.3c0.9-0.4,1.7-0.9,2.6-1.3c0.4-0.2,0.8-0.4,1.3-0.6C16.1,2,16,1.9,15.9,1.9L15.9,1.9z"/></g><g><path class="st6" d="M6.8,20.2c-0.1,0.2-0.1,0.5-0.1,0.7c0,0.2,0.1,0.4,0.2,0.5c0.3,0.3,0.6-0.1,0.7-0.3c0.1-0.2,0.1-0.4,0.1-0.7c0-0.2,0-0.5,0-0.7c0-0.4-0.1-0.9-0.3-1.3c-0.2-0.3-0.4-0.6-0.8-0.5C6.2,18,6.1,18.3,6,18.6c-0.2,0.8-0.3,1.7-0.2,2.6c0.1,0.9,0.4,1.7,0.9,2.4c0.5,0.8,1.1,1.5,1.8,2.1c0.8,0.7,1.5,1.4,2.3,2c0.4,0.3,0.8,0.7,1.2,1c0.3,0.3,0.7,0.6,1.1,0.8c0.4,0.2,0.8,0.3,1.2,0.3c0.2,0,0.5,0,0.7,0c0.2,0,0.4,0.2,0.6,0.3c0.3,0.3,0.7,0.5,1.1,0.7c0.4,0.2,0.8,0.3,1.3,0.3c0.2,0,0.4,0,0.7,0c0.2,0,0.2-0.3,0-0.3c-0.8,0.1-1.6-0.1-2.3-0.5c-0.3-0.2-0.6-0.5-0.9-0.7c-0.4-0.2-0.8-0.1-1.2-0.1c-0.8,0-1.4-0.6-2-1.1c-0.7-0.6-1.4-1.2-2.1-1.9c-1.3-1.1-2.6-2.2-3.4-3.7c-0.3-0.7-0.5-1.5-0.6-2.2c0-0.4,0-0.8,0-1.2c0-0.3,0.1-0.7,0.2-1.1c0.1-0.2,0.2-0.3,0.4-0.3c0.2,0,0.3,0.2,0.4,0.3c0.2,0.4,0.3,0.9,0.3,1.3c0,0.2,0,0.5,0,0.7c0,0.2,0,0.5-0.1,0.7c0,0.1-0.1,0.2-0.2,0.1C7,21.3,7,21.1,7,21c-0.1-0.3,0-0.5,0-0.8C7.1,20.2,6.9,20.1,6.8,20.2L6.8,20.2z"/></g><g><polygon class="st23" points="9.7,22.5 9.7,22.5 9.7,22.5 "/></g><g><path class="st24" d="M12.2,5.8c-0.8,0.7-1.5,1.6-2,2.6c-0.6,0.9-1,2-1.3,3c-0.1,0.3-0.2,0.6-0.2,0.9c0,0.2-0.1,0.3-0.1,0.5c0,0.2-0.1,0.3-0.1,0.5c0,0.1,0.2,0.2,0.2,0.1c0.1-0.2,0.1-0.5,0.2-0.8C9,12.2,9,11.9,9.1,11.7c0.2-0.5,0.3-1,0.5-1.5c0.4-1,0.9-1.9,1.6-2.8c0.4-0.5,0.7-1,1.1-1.4C12.4,5.8,12.3,5.7,12.2,5.8L12.2,5.8z"/></g><g><path class="st24" d="M17.1,29.6c2.4,0.8,4.9,1.1,7.4,0.8c0.7-0.1,1.4-0.2,2.1-0.4c0.2,0,0.1-0.3-0.1-0.3c-2.4,0.5-4.9,0.6-7.3,0.1c-0.7-0.1-1.3-0.3-2-0.5C17,29.3,16.9,29.6,17.1,29.6L17.1,29.6z"/></g><g><path class="st24" d="M10.8,2.8c0.2-0.1,0.4-0.2,0.7-0.3c0.2-0.1,0.4-0.2,0.7-0.3c0.4-0.2,0.9-0.3,1.4-0.4c0.9-0.2,1.9-0.4,2.8-0.4c0.5,0,1.1,0,1.6,0c0.2,0,0.2-0.2,0-0.2c-1.9-0.1-3.9,0.2-5.7,0.8c-0.3,0.1-0.5,0.2-0.8,0.3c-0.2,0.1-0.5,0.2-0.7,0.3C10.7,2.7,10.7,2.8,10.8,2.8L10.8,2.8z"/></g><g><path class="st25" d="M4.6,11.2C4.6,11.2,4.6,11.1,4.6,11.2C4.6,11.1,4.6,11.2,4.6,11.2L4.6,11.2z"/></g><path class="st25" d="M2.9,12c0-0.1-0.1-0.2-0.2-0.1c-0.1,0.2-0.2,0.4-0.3,0.6c-0.1,0.2-0.1,0.4-0.2,0.6C2.1,13.4,2,13.9,2,14.3c0,0.1,0.1,0.2,0.2,0.2c0.1,0,0.2-0.1,0.2-0.2c0-0.4,0.1-0.8,0.2-1.2c0-0.2,0.1-0.4,0.2-0.6C2.8,12.4,2.9,12.2,2.9,12z"/><path class="st25" d="M3.2,13.8C3.2,13.8,3.2,13.7,3.2,13.8C3.2,13.7,3.2,13.7,3.2,13.8C3.2,13.7,3.2,13.7,3.2,13.8c0-0.1,0-0.2-0.1-0.2c-0.1,0-0.1,0-0.2,0.1c0,0,0,0.1,0,0c0,0,0,0.1,0,0.1c0,0,0,0.1,0,0.1c0,0,0,0,0,0c0,0,0,0,0,0c0,0,0,0,0,0c0,0,0,0.1,0,0.1c0,0.1,0,0.1,0,0.2c0,0.1,0,0.2,0,0.3c0.1,0.1,0.2,0.1,0.3,0c0,0,0.1-0.1,0.1-0.1c0,0,0-0.1,0-0.1c0,0,0-0.1,0-0.1c0-0.1,0-0.1,0-0.2c0,0,0,0,0,0C3.2,13.9,3.2,13.9,3.2,13.8C3.2,13.8,3.2,13.8,3.2,13.8z"/><path class="st25" d="M8.3,30.5c-0.2-0.1-0.4-0.2-0.6-0.3c-0.1-0.1-0.2-0.1-0.3-0.2c-0.1-0.1-0.2-0.1-0.2-0.2c-0.1-0.1-0.2-0.1-0.2,0C6.9,29.9,7,30,7,30.1c0.3,0.4,0.7,0.6,1.1,0.8c0.1,0.1,0.3,0,0.3-0.1C8.5,30.7,8.4,30.6,8.3,30.5z"/><path class="st25" d="M4.6,26.4C4.6,26.3,4.6,26.3,4.6,26.4c-0.1-0.2-0.1-0.3-0.2-0.4c-0.1-0.2-0.3-0.4-0.5-0.6c-0.1-0.1-0.2-0.1-0.2,0c-0.1,0-0.1,0.1-0.1,0.2c0,0.4,0.2,0.8,0.5,1.1c0,0.1,0.1,0.1,0.1,0.2c0,0,0.1,0,0.1,0.1c0,0,0,0,0,0c0.1,0.1,0.2,0.1,0.3,0c0.1-0.1,0.1-0.2,0.1-0.3C4.7,26.5,4.7,26.4,4.6,26.4z"/><path class="st25" d="M17.2,31.7c-0.4-0.2-0.8-0.3-1.2-0.4c-0.1,0-0.2,0.1-0.2,0.1c0,0.1,0,0.2,0,0.2c0.1,0.1,0.2,0.2,0.4,0.3c0.1,0,0.1,0,0.2,0.1c0,0,0,0,0,0c0,0,0,0,0.1,0c0.2,0,0.4,0.1,0.6,0c0.1,0,0.2-0.1,0.2-0.2C17.3,31.8,17.2,31.7,17.2,31.7z"/><path class="st26" d="M6.6,6.4C6.6,6.4,6.6,6.4,6.6,6.4C6.6,6.3,6.5,6.3,6.4,6.3c0,0-0.1,0.1-0.1,0.1c0,0,0,0,0,0c0,0,0,0,0,0c0,0-0.1,0-0.1,0.1c0,0,0,0,0,0c0,0,0,0-0.1,0.1C6,6.7,6,6.7,6,6.7C5.8,6.9,5.7,7,5.7,7.2c0,0.1,0,0.2,0.1,0.3c0.1,0.1,0.2,0,0.3,0C6.2,7.2,6.5,7,6.7,6.7C6.7,6.6,6.7,6.5,6.6,6.4C6.6,6.5,6.6,6.5,6.6,6.4z"/><path class="st25" d="M4.1,17.1C4.1,17.1,4.1,17.1,4.1,17.1C4.1,17.1,4.1,17.1,4.1,17.1z"/><path class="st25" d="M3.9,18.2c0.1,0,0.1-0.1,0.2-0.1c0.1-0.1,0.1-0.3,0.1-0.5c0-0.1,0-0.1,0-0.2c0,0,0-0.1,0-0.1c0,0,0-0.1-0.1-0.1c0,0,0,0-0.1,0c0,0,0,0,0,0c0,0-0.1,0-0.1,0c0,0,0,0,0,0c0,0,0,0-0.1,0c0,0-0.1,0.1-0.1,0.1c-0.1,0.3-0.1,0.5-0.1,0.8C3.8,18.1,3.9,18.2,3.9,18.2z"/><path class="st25" d="M4.1,18.6C4.1,18.6,4.1,18.6,4.1,18.6c-0.1,0.3-0.1,0.5,0,0.8c0,0.1,0.1,0.1,0.2,0.1c0,0,0.1,0,0.1,0c0,0,0.1-0.1,0.1-0.1c0-0.1,0-0.3,0-0.4c0-0.1,0-0.3,0-0.4c0,0,0-0.1-0.1-0.1c0,0-0.1-0.1-0.1-0.1C4.2,18.5,4.1,18.5,4.1,18.6z"/></g></g></g></svg>