<?xml version="1.0" encoding="utf-8"?>
<svg version="1.1" xmlns="http://www.w3.org/2000/svg" xmlns:xlink="http://www.w3.org/1999/xlink" x="0px" y="0px" viewBox="0 0 76.5 70.8" style="enable-background:new 0 0 76.5 70.8;" xml:space="preserve"><style type="text/css">.st0{fill:#FFFFFF;}.st1{fill:#8CA2CF;}.st2{clip-path:url(#SVGID_00000070117737572383954720000005860669015513383580_);}.st3{fill:#627EB5;}.st4{fill:#8CA05C;}.st5{fill:#677724;}.st6{fill:#E0A955;}.st7{fill:#BBD7FF;}.st8{fill:#3C5987;}.st9{clip-path:url(#SVGID_00000139256900558813888990000005090828660846045361_);}.st10{fill:#669CD3;}.st11{clip-path:url(#SVGID_00000095298692792464729460000015023936647853910403_);}.st12{fill:#92C4FC;}.st13{fill:#FAF4D2;}.st14{fill:#FCCB7C;}.st15{clip-path:url(#SVGID_00000168828155017387772820000016716187412634461581_);}.st16{clip-path:url(#SVGID_00000160874874554893816730000008148372838765503366_);}.st17{fill:#C5CAF0;}.st18{clip-path:url(#SVGID_00000151527892786372708870000015466665911655047046_);}.st19{clip-path:url(#SVGID_00000009570007348085636910000004895570220810996634_);}.st20{clip-path:url(#SVGID_00000101062028084268282600000013561196200849467533_);}.st21{clip-path:url(#SVGID_00000129920134694188241360000003223723881742197918_);}.st22{fill:#F9CC3D;}.st23{fill:#FFEAAE;}.st24{fill:#FFECB8;}.st25{fill:#D3AA37;}.st26{fill:#FFE08A;}.st27{clip-path:url(#SVGID_00000016034230959938226870000014216495700298261425_);}.st28{clip-path:url(#SVGID_00000181784516254498203270000000413926869482694288_);}.st29{clip-path:url(#SVGID_00000118372212227556376280000016995993128971225789_);}.st30{clip-path:url(#SVGID_00000056405099951215163270000014006474531187611828_);}.st31{clip-path:url(#SVGID_00000035519061157448944870000014443561121053853350_);}.st32{clip-path:url(#SVGID_00000009575327889972266850000014652249445247731902_);}.st33{clip-path:url(#SVGID_00000147901933500132536760000005625545674394262962_);}.st34{clip-path:url(#SVGID_00000084510952687487142230000002258920339944017840_);}.st35{clip-path:url(#SVGID_00000137839193115455710140000002429341467115512742_);}</style><g ></g><g ><g><g><path class="st1" d="M67.5,34.6c-0.1-0.7-0.1-2.3-0.7-4.5c-0.4-1.5-0.8-3.1-1.3-4.6c-0.8-1.6-0.6-1.1-1.2-2.4c-0.2-0.4-0.6-1.4-1.7-2.6c-1.3-1.3-2.5-2.8-4.1-4c-2.1-1.5-3.8-2.8-5-3.5c-2.6-1.3-4.7-2.3-6.4-2.8c-2.2-0.5-3.3-0.6-4.6-0.8c0,0,0,0,0.1,0c0,0,0,0-0.1,0c-0.1,0-0.1,0-0.2,0c-0.5,0-0.1,0,0.1,0c-0.2,0-0.4-0.1-0.6-0.1c-0.4-0.1-0.7-0.1-1.1-0.2c0,0,0,0,0,0c-0.1,0-0.3,0-0.4-0.1c0,0,0.1,0,0.2,0c-3.3-0.5-4.3-0.9-7.7-0.5c0,0-0.1,0-0.3,0c-1.4,0-2.8,0.5-4.2,0.8c-1.5,0.3-1.1,0.1-3.1,0.5c-2.2,0.6-2.3,0.7-4.6,1.7c-0.7,0.2-1.4,0.6-2,0.9c-0.8,0.4-1.7,0.8-2.5,1.3c-2,1.3-4,2.7-5.8,4.2c-1.8,1.6-3.3,3.5-4.8,5.3c-1.8,2.3-3.5,4.7-4.3,7.4c-0.9,2.3-1,4.8-1.1,7.2c0,1.6,0,3.6,0.2,4.1c0,0.1,0,0.2,0.1,0.3c0.1,1,0.4,1.9,0.6,2.8c0.3,0.8,0.5,1.6,0.9,2.4c0.1,0.3,0.1,0.6,0.2,0.8c0.9,2.9,1.4,2.7,1.9,4.6c0,0.1,0,0.2,0.1,0.3c0,0.2,0.1,0.7,0,0.9c0,1.2-0.1,2.5-0.2,3.7c-0.2,1-0.3,2.1-0.3,3.1c0,1,0,2,0.5,2.9c1.1,2.6,4.4,3.8,7.3,4.4c2.1,0.5,4.3,0.2,6.5,0.2c3.1-0.2,6.2-0.1,9.2-1c2.2-0.6,1.9-0.8,3.7-0.8c0.2,0,0.3,0,0.4,0c0.2,0,0.4,0.1,0.7,0.2c0.3,0.1,0.6,0.3,1,0.4c0.8,0.4,1.5,0.9,2.4,1.3c1.3,0.5,2.8,0.8,4.3,1c1.5,0.3,3.1,0.6,4.6,0.3c1-0.1,1.8-0.5,2.8-0.8c0.6-0.2,1.3-0.3,1.9-0.6c1.8-0.6,2.6-0.8,4.8-2.1c0.8-0.4,1.4-0.9,2-1.5c1-0.7,1.9-1.6,2.6-2.5c0.2-0.1,1.6-1.7,2.4-3c1-1.3,0.7-0.9,1.9-2.2c0.6-0.8,1.2-1.6,1.6-2.5c1-2.5,1.6-5,2.4-7.5c0.3-1.5,0.5-3,0.7-4.5c0.2-1.3,0.3-1.3,0.4-3.2C67.6,38,67.8,36.3,67.5,34.6"/><g><defs><path id="_2" d="M67.5,34.6c-0.1-0.7-0.1-2.3-0.7-4.5c-0.4-1.5-0.8-3.1-1.3-4.6c-0.8-1.6-0.6-1.1-1.2-2.4c-0.2-0.4-0.6-1.4-1.7-2.6c-1.3-1.3-2.5-2.8-4.1-4c-2.1-1.5-3.8-2.8-5-3.5c-2.6-1.3-4.7-2.3-6.4-2.8c-2.2-0.5-3.3-0.6-4.6-0.8c0,0,0,0,0.1,0c0,0,0,0-0.1,0c-0.1,0-0.1,0-0.2,0c-0.5,0-0.1,0,0.1,0c-0.2,0-0.4-0.1-0.6-0.1c-0.4-0.1-0.7-0.1-1.1-0.2c0,0,0,0,0,0c-0.1,0-0.3,0-0.4-0.1c0,0,0.1,0,0.2,0c-3.3-0.5-4.3-0.9-7.7-0.5c0,0-0.1,0-0.3,0c-1.4,0-2.8,0.5-4.2,0.8c-1.5,0.3-1.1,0.1-3.1,0.5c-2.2,0.6-2.3,0.7-4.6,1.7c-0.7,0.2-1.4,0.6-2,0.9c-0.8,0.4-1.7,0.8-2.5,1.3c-2,1.3-4,2.7-5.8,4.2c-1.8,1.6-3.3,3.5-4.8,5.3c-1.8,2.3-3.5,4.7-4.3,7.4c-0.9,2.3-1,4.8-1.1,7.2c0,1.6,0,3.6,0.2,4.1c0,0.1,0,0.2,0.1,0.3c0.1,1,0.4,1.9,0.6,2.8c0.3,0.8,0.5,1.6,0.9,2.4c0.1,0.3,0.1,0.6,0.2,0.8c0.9,2.9,1.4,2.7,1.9,4.6c0,0.1,0,0.2,0.1,0.3c0,0.2,0.1,0.7,0,0.9c0,1.2-0.1,2.5-0.2,3.7c-0.2,1-0.3,2.1-0.3,3.1c0,1,0,2,0.5,2.9c1.1,2.6,4.4,3.8,7.3,4.4c2.1,0.5,4.3,0.2,6.5,0.2c3.1-0.2,6.2-0.1,9.2-1c2.2-0.6,1.9-0.8,3.7-0.8c0.2,0,0.3,0,0.4,0c0.2,0,0.4,0.1,0.7,0.2c0.3,0.1,0.6,0.3,1,0.4c0.8,0.4,1.5,0.9,2.4,1.3c1.3,0.5,2.8,0.8,4.3,1c1.5,0.3,3.1,0.6,4.6,0.3c1-0.1,1.8-0.5,2.8-0.8c0.6-0.2,1.3-0.3,1.9-0.6c1.8-0.6,2.6-0.8,4.8-2.1c0.8-0.4,1.4-0.9,2-1.5c1-0.7,1.9-1.6,2.6-2.5c0.2-0.1,1.6-1.7,2.4-3c1-1.3,0.7-0.9,1.9-2.2c0.6-0.8,1.2-1.6,1.6-2.5c1-2.5,1.6-5,2.4-7.5c0.3-1.5,0.5-3,0.7-4.5c0.2-1.3,0.3-1.3,0.4-3.2C67.6,38,67.8,36.3,67.5,34.6"/></defs><clipPath id="_3"><use xlink:href="#_2" style="overflow:visible;"/></clipPath><g style="clip-path:url(#_3);"><path class="st5" d="M64.8,57.9c-0.1-0.3,0-0.3-0.1-0.6l0,0c0-0.1,0-0.2-0.1-0.3c0,0,0-0.1,0-0.1c0-0.1,0-0.2,0-0.3c0.1-0.2,0-0.3,0-0.5c-0.1-0.1,0-0.1-0.2-0.3c0,0,0,0,0,0c0,0,0-0.1-0.1-0.1c-0.2-0.2-0.2-0.1-0.3-0.4c-0.2-0.2-0.5-0.4-0.7-0.5c0,0,0,0-0.1-0.1c-0.3-0.3-0.3-0.2-0.5-0.3C62,54.2,62,54.2,61.7,54c-1.1-0.5-2.4-0.8-3.6-1c-1.1-0.2-2.1-0.5-3.2-0.5c-2-0.2-3.5-0.4-5.6-0.5c-2.8,0-6,0.2-8.4,0.6c-1.8,0.1-3.6,0.6-5.3,0.9c-2.7,0.4-5.2,1.3-7.7,2.2c-2.9,0.9-6.2,2-9.2,3.3c-1.6,0.7-3.2,1.3-4.6,1.8c-1.5,0.5-2.7,1-4.2,0.9c-1.3-0.1-2.9-0.5-4.4-0.9c-0.1,0-0.1,0-0.2-0.1c-0.2-0.1-0.3-0.2-0.5-0.4C4.3,60.1,4.4,60,4,59.7c-0.3-0.1-0.7,0-0.7,0.3c-0.1,0.5,0,0.9-0.1,1.4c0,0.2,0,0.4,0,0.6c-0.1,0.9,0,1.8,0.6,2.6c0.5,0.8,1.3,1.4,2.2,2c0.6,0.4,1.3,0.7,2,0.9c0.3,0.2,0.6,0.4,0.9,0.6c2.3,1.1,4.5,1.1,7,1.2c1.5,0,3,0.2,4.5,0.2c2.8-0.3,5.4-1,8.1-1.7c1.1-0.3,1.8-0.4,2.6-0.2c1.1,0.3,2.7,1.1,3.9,1.8c1,0.6,2.1,1.1,3.3,1.5c0.8,0.3,1.7,0.3,2.5,0.5c3,0.5,6.1,0,8.9-0.9c1.4-0.4,2.5-1.1,3.7-1.7c1.4-0.7,2.7-1.5,4.1-2.5c2-1.4,3-2.8,4.4-4.3c0.7-1,1.3-1.5,2.2-2.2C64.6,59.3,64.8,58.6,64.8,57.9"/><g><path class="st4" d="M59.6,57.8c-2.9-2.6-8.2-3.3-12.4-3.3c-5.5-0.2-10.9,1.4-16.3,2.9c-2.9,1.1-4.8,1.8-7.1,2.5c-1.2,0.5-2,0.7-3.2,1.2c-1.7,0.7-3.2,1.4-5,1.9c-1.8,0.7-4.7,1.5-6.6,0.8c-0.9-0.4-1.8-0.7-2.4-1.2c-0.1-0.1-0.3-0.1-0.4,0c-0.1,0.1-0.1,0.2,0,0.3c1.6,1.1,3.3,1.8,5.3,1.6c1.3-0.1,2.8-0.5,4.1-1c1.2-0.4,2.6-0.8,3.9-1.4c2.4-1,4.2-1.5,6.5-2.3c1-0.4,1.9-0.7,3.1-1.1c1-0.3,1.5-0.7,2.4-0.8c3.5-1,7.1-2,10.8-2.5c2.2-0.3,5.3-0.4,8.1-0.1c2.2,0.2,4.9,0.8,7,1.9c0.8,0.5,1.8,1,1.9,1.8c0.4,1.2-0.9,2.6-2.2,3.8c-2.3,1.8-6.1,2.3-8.6,1.1c-1.5-0.7-2-1.6-1-2.8c0.1-0.2,1.4-1.1,1.4-1.1c1.4-0.4,2.5-0.6,3.3-0.2c1,0.5,0.6,1.2-1,1.8c0,0,0,0,0,0c-0.1,0-0.2,0-0.3,0c-0.3,0.1-0.3,0.4-0.1,0.5c0.6,0.3,1.2-0.2,1.7-0.4c1.5-0.8,1.4-2.1-0.3-2.6c-1.2-0.3-2.6,0-3.7,0.4c-1.2,0.7-2.4,1.7-2.3,3c0.4,1.7,2.8,2.4,4.6,2.6c2.5,0.2,4.6-0.4,6.4-1.6C59.1,62.1,61.3,59.8,59.6,57.8"/><path class="st4" d="M44,58c-2.8,0.4-5.6,0.9-8.3,1.5c-1.9,0.3-3.7,0.8-5.5,1.4c-2.6,0.9-5.1,2-7.5,3.2c-0.9,0.5-2.1,0.8-2.8,1.6c-0.3,0.5,0.2,0.9,0.7,1.1c0.5,0.2,1.1,0.2,1.6,0.2c0.8,0,1.5,0,2.3-0.2c1.2-0.2,2.5-0.5,3.3-1.2c0.9-0.6,0.2-1.6-0.9-1.6c-0.8-0.2-2.8,0.7-1.7,1.3c0.3,0.2,0.8,0.2,0.8-0.2c0-0.2-0.1-0.2-0.2-0.3c0.2-0.2,0.7-0.4,1.1-0.3c0.2,0,0.3,0,0.6,0.3c0,0,0,0,0,0.1c0,0,0,0,0,0c0,0,0,0.1,0,0.1c0,0,0,0,0,0.1c-0.1,0.1-0.3,0.3-0.5,0.5c0,0,0,0,0,0c-0.1,0-0.4,0.1-0.2,0.1c-1.2,0.5-2.5,0.8-3.8,0.8c-1.3,0.1-2.3,0-2.4-0.4c0,0,0,0,0,0c0,0,0,0,0,0c0,0,0,0,0,0c0,0,0,0,0,0c0,0,0,0,0,0c0,0,0,0,0,0l0,0c0,0,0,0,0,0c0,0,0,0,0,0c0,0,0,0,0,0c0,0,0,0,0,0c0,0,0-0.1,0.1-0.1c0.4-0.4,0.7-0.4,1-0.6c2.8-1.4,5.8-2.8,8.8-3.9c3.9-1.4,8.7-2.1,13.1-2.9c0.2-0.1,0.5,0,0.7-0.2C44.4,58.1,44.2,58,44,58"/><polygon class="st4" points="20.6,66 20.7,66 20.6,66 "/><path class="st4" d="M46,66.7c-0.3-1.2-1.7-1.9-3-2.6c-1.3-0.7-2.7-1.5-4.3-1.6c-0.9-0.1-2.2-0.3-3.3,0c-1.2,0.2-2.2,0.6-3.2,1.1c-0.1,0-0.1,0.1-0.2,0.2c-0.1,0.2,0.2,0.4,0.5,0.3c1.6-0.8,3.5-1.3,5-1.1c1.7,0.1,2.8,0.5,4.4,1.3c1.5,0.8,3,1.4,3.3,2.6c0.1,0-0.1,0.7-0.2,0.9c-0.4,0.5-0.7,0.8-1.4,1.1c-0.4,0.2-1.6,0.2-2.6,0.1c-0.4-0.1-1.8-0.5-2.3-0.7c-0.6-0.1-0.6-0.1-1.1-0.4c-0.9-0.4-1.8-0.9-1.7-1.1c0-0.2,0.3-0.7,0.9-0.9c0.3-0.1,1.5-0.2,2.3,0.1c0,0,0.1,0,0.2,0.1c0.2,0.1,0.4,0.2,0.3,0.2c0,0,0.1,0,0.1,0.1c0,0,0,0,0.1,0c0,0,0,0,0.1,0.1c0,0,0,0,0,0c0,0.3,0,0.3-0.1,0.4c0,0,0,0,0,0c0,0,0,0,0,0c-0.1,0-0.1,0-0.1,0c-0.2,0-0.3,0-0.5,0c-0.4-0.2-0.8,0.2-0.5,0.5c0.2,0.2,0.5,0.1,0.7,0.1c0.4,0,0.8-0.1,1-0.3c0.2-0.3,0.3-0.7,0.1-1.1c-0.1-0.3-0.4-0.5-0.7-0.6c-1.1-0.6-2.8-0.7-3.9-0.1c-0.8,0.5-1.3,1.4-0.5,2c0.4,0.3,0.9,0.5,1.3,0.7c0.5,0.2,0.9,0.5,1.4,0.5c0.6,0.1,1.5,0.5,2.4,0.7c0.7,0.1,1.4,0.1,2.1,0.1C44.5,69.6,46.2,68.2,46,66.7"/><path class="st4" d="M16,67.2c-0.3-0.7-1.3-1-2.1-1.3c-1.9-0.3-3.9-0.1-5.7,0.3c-0.2,0.1,0,0.4,0.2,0.4c1.1-0.2,2.1-0.3,3.3-0.3c1,0,1.8,0,2.5,0.3c1.2,0.4,1.3,0.9,0.7,1.3c-0.1,0.1-0.5,0.1-0.9,0.1c-0.2,0-0.5,0-0.7,0c0.1-0.1,0.1-0.1,0.3-0.2c0,0,0,0,0.1,0c0.1,0,0.2-0.1,0.2-0.2c0-0.6-1-0.1-1.2,0.2c-0.4,0.5,0.1,0.8,0.7,0.8c0.8,0,1.2,0,1.9-0.2C15.8,68.1,16.1,67.6,16,67.2"/><path class="st4" d="M62.3,58.5c-0.2-0.5-0.3-0.6-0.6-1.1c0-0.2-0.6-1-1.3-1.4c-1.2-0.8-2.3-1.2-3.4-1.6c-0.7-0.3-1.8-0.7-3.1-0.8c-3-0.2-5.6-0.5-8.4-0.2c-3.4,0.1-6.4,0.4-9.7,1.4c-1.8,0.4-3.6,0.8-5.4,1.3c-1,0.4-1.7,0.7-2.6,0.9c-2.4,0.7-4.5,1.4-6.7,2.1c-1.6,0.7-3.2,1.3-4.7,2.1c-0.2,0.2,0.1,0.4,0.3,0.3c3.5-1.9,7-2.8,10.9-4c1.1-0.2,2.3-0.8,3.1-1.1c2.5-0.6,5-1.2,7.6-1.8c2.4-0.5,3.9-0.6,6.4-0.7c1.1,0,2.2-0.2,3.3-0.2c0.4,0.1,1.9,0.1,2.7,0.1c1.6,0.2,2.8,0.1,4.2,0.5c1.7,0.6,2.7,0.8,4.6,1.8c0.5,0.3,1.2,0.9,1.3,1.3c0.1,0.2,0.4,0.6,0.5,0.8c0.1,0.1,0,0.1,0.1,0.2c0,0.1,0,0.1,0,0.2C61.7,59.3,62.5,58.9,62.3,58.5"/><path class="st4" d="M55.9,59.5c-0.1-0.4-0.5-0.6-0.6-0.8c-0.3-0.3-0.7-0.6-1.1-0.7c-1.6-0.9-3.6-1.1-5.5-1.3c-2.1-0.2-4.2-0.2-6.5,0c-2,0.3-3.9,0.7-5.8,1.2c-1,0.3-2.2,0.4-3.1,0.9c-0.1,0.2,0.1,0.4,0.3,0.3c4.8-1.4,9.7-2.6,14.5-2c1.2,0.1,3.3,0.4,4.4,0.8c0.7,0.3,1.3,0.6,1.8,0.9c0.1,0.1,0.8,0.7,0.7,0.8c0.3,0.5,0.3,0.8,0.2,1.2c0,0,0,0.1,0,0.1c-0.1,0.1-0.1,0.2,0,0.3c0.2,0.2,0.6,0.1,0.7-0.1c0.1-0.3,0-0.2,0.1-0.4C56.3,60.4,56.2,60,55.9,59.5"/><path class="st4" d="M27.3,61c-2.7,0.8-5.2,1.5-7.8,2.5c-0.8,0.3-1.7,0.6-2.5,0.9c-0.1,0-0.1,0.1-0.1,0.1c-0.1,0.2,0.2,0.4,0.4,0.3c3.6-1.4,6.9-2.4,10.3-3.4C27.9,61.3,27.6,60.9,27.3,61"/><path class="st4" d="M13.5,62.1c-1,0.4-2.5,0.4-3.9,0.4c-0.3,0-0.3-0.1-0.9,0c-0.3,0.1-0.2,0.4,0.1,0.5c1.3,0.1,3.4,0.2,4.9-0.3c0.3-0.2,0.8-0.1,0.9-0.4C14.6,61.6,13.8,62,13.5,62.1"/><path class="st4" d="M44.2,62.6c0,0-0.1-0.1-0.1-0.1c-1-0.8-2.3-1.3-3.6-1.7c-0.4-0.1-0.8-0.3-1.2-0.3c-0.4,0-0.4,0.5-0.1,0.6c1.6,0.5,3.1,1,4.4,2l0,0c0,0,0,0,0,0c0,0,0,0,0,0c0.1,0,0.1,0,0.1,0C44.1,63.2,44.4,62.8,44.2,62.6"/><path class="st4" d="M44.2,62.6C44.2,62.6,44.2,62.6,44.2,62.6C44.1,62.6,44.2,62.6,44.2,62.6"/><path class="st4" d="M44.2,62.6C44.2,62.6,44.2,62.6,44.2,62.6C44.2,62.6,44.2,62.6,44.2,62.6C44.2,62.6,44.2,62.6,44.2,62.6"/><path class="st4" d="M49.5,68.3C49.5,68.3,49.5,68.3,49.5,68.3C49.5,68.2,49.5,68.2,49.5,68.3c0-0.9-1-1.8-1.7-2.6c-0.3-0.3-0.3-0.5-0.8-0.7c-0.3-0.1-0.6,0.2-0.4,0.4c0.8,0.9,2.3,2.2,2.2,2.9c0,0.4,0.6,0.6,0.7,0.2C49.5,68.4,49.5,68.3,49.5,68.3"/><path class="st4" d="M60.6,61.8c-0.4,0.1-0.3,0.1-0.4,0.3c-1.1,1-2.1,2.1-3.4,3.1c-0.5,0.2-1.3,0.8-1.9,1c-0.7,0.2-2.1,0.6-3.2,0.8c-0.4,0.1-0.2,0.6,0.2,0.5c1.3-0.2,3.3-0.6,4-1.2c1.9-0.9,3.4-2.5,4.9-3.9C61.2,62.2,61,61.8,60.6,61.8"/><path class="st4" d="M33.5,64.7c-0.3,0-0.5,0.1-0.7,0.2c-0.8,0.4-1.6,0.8-2.4,1.3c-0.3,0.2-0.7,0.4-0.8,0.6c0,0.2,0.3,0.3,0.5,0.2c0.8-0.5,2.2-1.3,3-1.7c0.2-0.1,0.5-0.1,0.6-0.2C33.8,64.9,33.7,64.7,33.5,64.7"/><path class="st4" d="M50,69.5c-0.2,0-0.3,0.1-0.5,0.1c-0.5,0.2-1.2,0.3-2,0.5c-0.7,0.1-1.3,0.4-1.9,0.4c-1.2,0.1-2.4-0.1-3.7,0c-0.3,0.1-0.2,0.4,0.1,0.4c1.7,0.1,3.5,0.3,5.2-0.2c1.1-0.3,2.3-0.4,2.9-0.7C50.3,69.8,50.2,69.5,50,69.5"/><path class="st4" d="M6,65.2c-0.6-0.4-0.9-1.1-1.1-2.1c-0.1-0.3-0.1-0.6-0.1-1.1c0-0.1,0-0.1-0.1-0.2c-0.2-0.2-0.6,0-0.6,0.2c0.1,1.3,0.3,2.9,1.6,3.8c0.2,0.1,0.4,0.3,0.6,0.2C6.9,65.8,6.3,65.5,6,65.2"/></g></g><g style="clip-path:url(#SVGID_00000103960071047970580930000018318876652073483676_);"><g><path class="st5" d="M60.7,55C60.7,55,60.7,55,60.7,55C60.7,55,60.7,55,60.7,55"/><path class="st3" d="M11.1,42.2c-0.5,0.9-1.9,2.7-2.2,3.3c0.1,0.3,0.4,0.1,0.5-0.1c0.7-1,1.4-2,2.1-3.1C11.7,42.1,11.2,42,11.1,42.2"/><path class="st3" d="M12.8,44.6c-0.6,0.9-1.3,1.7-1.8,2.6c0,0.1,0.1,0.2,0.2,0.2c0.2,0,0.3-0.1,0.4-0.2c0.2-0.2,0.3-0.5,0.5-0.7c0.3-0.6,1.1-1.4,1.3-1.9C13.2,44.5,12.9,44.4,12.8,44.6"/><path class="st3" d="M12.9,49.3c-0.5,0.8-1,1.5-1.5,2.3c-0.1,0.2-0.3,0.3-0.2,0.5c0,0.1,0.2,0.2,0.4,0.2c0.1,0,0.2-0.1,0.3-0.2c0.5-0.8,1.1-1.6,1.6-2.5C13.7,49.3,13.1,49,12.9,49.3"/><path class="st3" d="M7.1,48c-0.5,0.9-1,1.8-1.6,2.6c-0.1,0.1-0.2,0.3-0.2,0.4c0,0.1,0.2,0.2,0.4,0.2C6,51.1,6,50.8,6.2,50.6c0.5-0.8,1-1.6,1.4-2.4C7.8,48,7.3,47.7,7.1,48"/><path class="st3" d="M9.4,49.6c-0.5,0.7-1,1.4-1.5,2.1c-0.1,0.1-0.2,0.2-0.3,0.4c0,0.2,0.2,0.3,0.4,0.3c0.7-0.5,1.3-1.8,1.9-2.5C10.2,49.5,9.7,49.3,9.4,49.6"/><path class="st3" d="M8.9,54.6c-0.4,0.8-0.9,1.6-1.4,2.4c-0.2,0.2,0.2,0.5,0.4,0.3c0.6-0.8,1.1-1.8,1.5-2.6C9.5,54.5,9.1,54.4,8.9,54.6"/><path class="st3" d="M12,55.4c-0.5,0.8-1,1.6-1.4,2.4c-0.2,0.2,0.2,0.5,0.5,0.4c0.6-0.8,1-1.7,1.6-2.5C12.8,55.4,12.3,55.1,12,55.4"/><path class="st3" d="M16.6,49.1c-0.5,0.8-0.9,1.6-1.4,2.4c-0.1,0.1,0,0.3,0.2,0.4c0.1,0,0.3,0,0.4-0.1c0.3-0.6,0.7-1.2,1-1.8c0.1-0.3,0.4-0.5,0.4-0.8C17.2,49,16.8,48.9,16.6,49.1"/><path class="st3" d="M22.9,44.2c-0.5,0.9-1,1.7-1.5,2.5c-0.2,0.2,0.2,0.5,0.4,0.3c0.7-0.8,1.2-1.8,1.7-2.7C23.6,44.1,23.1,44,22.9,44.2"/><path class="st3" d="M18.6,52.5c-0.5,0.8-1,1.7-1.5,2.5c-0.1,0.2,0.1,0.4,0.3,0.4c0.1,0,0.2-0.1,0.2-0.2c0.5-0.8,1-1.6,1.5-2.4C19.4,52.5,18.8,52.3,18.6,52.5"/><path class="st3" d="M23.2,49c-0.2,0.4-0.5,0.8-0.7,1.2c0,0.1,0.1,0.2,0.2,0.3c0.1,0,0.3,0,0.4-0.1c0.2-0.4,0.5-0.8,0.7-1.2C23.9,48.9,23.4,48.8,23.2,49"/><path class="st3" d="M27.6,47.2c-0.3,0.6-0.7,1.1-1,1.7c0,0.1,0,0.2,0.1,0.2c0.1,0.1,0.3,0,0.4-0.1c0.3-0.5,0.7-1,1-1.6C28.4,47.2,27.8,46.9,27.6,47.2"/><path class="st3" d="M23.5,53c-0.3,0.6-0.7,1.2-1.1,1.8c-0.1,0.1,0,0.4,0.2,0.4c0.1,0,0.3,0,0.4-0.1c0.4-0.6,0.7-1.1,1.1-1.7C24.4,53,23.9,52.6,23.5,53"/><path class="st3" d="M31.6,48.1c-0.5,0.9-1.1,1.9-1.7,2.8c-0.2,0.2,0.1,0.4,0.3,0.4c0.3-0.1,0.4-0.5,0.5-0.7c0.5-0.7,0.9-1.5,1.4-2.2C32.4,48.1,31.8,47.9,31.6,48.1"/><path class="st3" d="M35.7,47.6c-0.2,0.4-0.6,0.7-0.8,1.1c0,0.1,0,0.2,0.2,0.3c0.3,0.1,0.5-0.1,0.6-0.3c0.2-0.3,0.5-0.6,0.6-0.9C36.4,47.5,35.8,47.4,35.7,47.6"/><path class="st3" d="M33.9,50.4c-0.3,0.6-0.8,1.1-1.1,1.7c0,0.1,0,0.1,0.1,0.2c0.3,0.3,0.7-0.1,0.8-0.3c0.3-0.4,0.6-0.8,0.9-1.2C34.8,50.4,34.2,50.1,33.9,50.4"/><path class="st3" d="M39.5,47.8c-0.4,0.7-1,1.4-1.4,2.2c-0.1,0.1-0.1,0.2,0,0.3c0.2,0.2,0.6,0,0.7-0.2c0.3-0.4,0.6-0.9,0.9-1.3c0.1-0.3,0.5-0.6,0.5-0.9C40.1,47.6,39.7,47.6,39.5,47.8"/><path class="st3" d="M43.6,47.6c-0.7,0.9-1.3,1.9-2,2.8c-0.2,0.2,0.1,0.5,0.4,0.4c0.3-0.1,0.4-0.5,0.7-0.7c0.5-0.7,1-1.5,1.5-2.2C44.5,47.6,43.8,47.3,43.6,47.6"/><path class="st3" d="M49.2,47.6c-0.1-0.2-0.5-0.3-0.6-0.1c-0.3,0.6-0.7,1.1-1.1,1.6c-0.1,0.1-0.1,0.2,0,0.3c0.2,0.2,0.6,0.1,0.6-0.2c0.3-0.4,0.6-0.8,0.8-1.2C49.1,47.9,49.3,47.7,49.2,47.6"/><path class="st3" d="M51.7,48.4c-0.4,0.6-0.8,1.1-1.2,1.6c-0.2,0.2,0.1,0.4,0.3,0.4c0.2-0.1,0.3-0.3,0.5-0.5c0.3-0.5,0.7-0.9,1-1.4C52.3,48.3,51.8,48.2,51.7,48.4"/><path class="st3" d="M61.5,43.8c-0.1,0.3-0.5,0.5-0.5,0.8c0.1,0.2,0.4,0.2,0.5,0.1c0.2-0.2,0.4-0.5,0.5-0.7C62.1,43.7,61.6,43.6,61.5,43.8"/><path class="st3" d="M56.5,48.7c-0.4,0.6-0.9,1.3-1.3,1.9c-0.1,0.1-0.1,0.2,0,0.2c0.2,0.4,0.7,0.2,0.8-0.1c0.4-0.5,0.8-1.1,1.1-1.6C57.5,48.7,56.9,48.2,56.5,48.7"/><path class="st7" d="M3.9,43.3c-0.1,0.4-0.4,0.9-0.5,1.3c0,0.1,0.1,0.1,0.2,0.2c0.1,0,0.3,0,0.3-0.1c0.2-0.4,0.3-0.8,0.5-1.2C4.5,43.2,4,43.1,3.9,43.3"/><path class="st7" d="M8.5,39.6c-0.5,0.9-1.2,2.1-1.7,3c0,0.1,0.2,0.2,0.3,0.2c0.1-0.1,0.2-0.2,0.2-0.3c0.5-0.9,1.2-2,1.6-2.8C9.1,39.6,8.7,39.4,8.5,39.6"/><path class="st7" d="M5.6,45.3c-0.6,0.7-1,1.5-1.5,2.3C4,47.8,4.4,48,4.6,47.8c0.4-0.7,0.9-1.5,1.5-2.3C6.3,45.3,5.8,45,5.6,45.3"/><path class="st7" d="M60.5,46.8c-0.3,0.4-0.6,0.9-0.8,1.3c0,0.2,0.2,0.3,0.4,0.2c0.4-0.4,0.6-0.9,0.9-1.4C61,46.7,60.6,46.6,60.5,46.8"/><path class="st7" d="M60.1,50.2c-0.3,0.6-0.7,1.2-1,1.7c0,0.1,0.1,0.2,0.2,0.3c0.1,0,0.3,0,0.3-0.1c0.3-0.4,0.5-0.8,0.7-1.2c0.1-0.2,0.3-0.4,0.3-0.6C60.6,50,60.2,50,60.1,50.2"/><path class="st7" d="M64.3,44.1c-0.6,1.1-1.2,2.1-1.8,3.2c-0.1,0.1,0,0.3,0.2,0.3c0.1,0,0.3,0,0.3-0.1c0.4-0.7,0.8-1.5,1.2-2.2c0.2-0.4,0.5-0.7,0.6-1.1C64.8,44,64.4,43.9,64.3,44.1"/><path class="st7" d="M63.7,49.4c-0.3,0.5-0.6,1-0.8,1.5c-0.1,0.3-0.5,0.7-0.2,0.9c0.2,0.1,0.5,0,0.5-0.1c0.3-0.6,0.5-0.9,0.8-1.5c0.1-0.2,0.4-0.5,0.3-0.7C64.2,49.3,63.8,49.2,63.7,49.4"/><path class="st7" d="M14.5,41.1c-0.1-0.2-0.5-0.1-0.6,0.1c-0.2,0.4-0.4,0.8-0.7,1.3c0,0.1,0,0.1,0.1,0.2c0.4,0.3,0.6-0.2,0.7-0.4C14.1,41.8,14.6,41.4,14.5,41.1"/><path class="st7" d="M14.6,55.2c-0.4,0.8-0.7,1.6-1.1,2.3c-0.1,0.2,0.2,0.4,0.4,0.3c0.5-0.7,0.7-1.7,1.2-2.5C15.3,55.1,14.7,54.9,14.6,55.2"/><path class="st7" d="M19.7,47.4c-0.2,0.6-0.4,1.2-0.7,1.8c-0.1,0.2-0.2,0.5,0.2,0.6c0.3,0,0.3-0.3,0.4-0.4c0.2-0.6,0.5-1.2,0.7-1.8C20.4,47.2,19.8,47.1,19.7,47.4"/><path class="st7" d="M27.8,50.9c-0.1-0.2-0.5-0.1-0.6,0.1c-0.3,0.7-0.6,1.5-0.9,2.2c0,0.1,0,0.2,0.1,0.3c0.2,0.2,0.5,0,0.5-0.2c0.1-0.4,0.3-0.7,0.4-1.1C27.5,51.7,27.9,51.2,27.8,50.9"/><path class="st7" d="M25.2,43.9c-0.3,0.7-0.6,1.4-0.9,2c-0.1,0.2,0.1,0.3,0.3,0.3c0.1,0,0.3-0.1,0.3-0.2c0.3-0.7,0.6-1.4,0.9-2C25.9,43.8,25.3,43.6,25.2,43.9"/><path class="st7" d="M20.4,53.7c-0.3,0.6-0.9,1.7-1.1,2.1c-0.1,0.1,0,0.3,0.1,0.3c0.3,0.1,0.5-0.1,0.5-0.3c0.2-0.5,0.4-0.9,0.7-1.4c0.1-0.3,0.3-0.4,0.3-0.7C20.9,53.6,20.5,53.5,20.4,53.7"/><path class="st7" d="M53.9,48.5c-0.2,0.4-0.7,1.2-1,1.8c0,0.1,0.1,0.2,0.2,0.3c0.1,0,0.3,0,0.3-0.1c0.3-0.6,0.7-1.2,1-1.8C54.6,48.3,54,48.2,53.9,48.5"/><path class="st7" d="M6.7,53.5c-0.1-0.2-0.5-0.1-0.6,0.1c-0.3,0.7-0.6,1.5-0.9,2.2C5,56,5,56.3,5.5,56.3c0.2,0,0.2-0.2,0.3-0.3c0.3-0.7,0.5-1.4,0.8-2C6.7,53.8,6.8,53.6,6.7,53.5"/><path class="st7" d="M13.7,51.5c-0.3-0.1-0.4,0.1-0.5,0.3c-0.2,0.5-0.5,1-0.7,1.5c-0.1,0.3,0.5,0.4,0.6,0.1c0.2-0.5,0.5-1.1,0.7-1.6C13.9,51.7,13.8,51.6,13.7,51.5"/><path class="st7" d="M29.9,47.1c-0.2,0.4-0.4,0.8-0.6,1.1c0,0.1,0,0.2,0.1,0.3c0.6,0.3,0.7-0.7,1-1.1C30.7,47.1,30.1,46.9,29.9,47.1"/><path class="st3" d="M57.7,42.8C57.7,42.8,57.7,42.8,57.7,42.8"/><polygon class="st3" points="57.7,42.8 57.7,42.8 57.7,42.8 "/></g><g><g><path class="st8" d="M67.3,27c-0.2-1.9-1.5-3.5-2.8-5.1c-0.6-0.8-1.2-1.7-1.9-2.5c-1.1-1-2.2-2-3.3-3c-3-2.6-7.2-4-11-5.7c-1.7-0.7-3.3-1.6-5.1-2.1c-2.4-0.7-4.9-1-7.4-1c-1.8,0-7.1-1.1-16.5,3.8C11,15.9,10,18.4,6.4,22c-0.5,0.5-1,1-1.5,1.6c-1.1,1.3-2.1,2.7-2.9,4.1c-0.2,0.5-0.5,1.1-0.7,1.7c0,0.1-0.1,0.1-0.1,0.2c-0.6,1.4-1.1,2.8-1.6,4.2c-0.2,1.6-0.3,3.2,0.2,4.8c0.1,0.9,0.8,1.7,1.7,2.3c1.4,0.8,3.6,0.3,4.8-0.6c1.9-1.5,3.5-3.3,4.8-5.1c0,1.4,0.5,2.8,1.7,4c1.1,1,2.5,2,4.2,2.2c2.6,0.2,4.6-2,6.1-3.4c1.2-1.2,2.2-2.4,2.7-3.9c0.2-0.7,0.5-1.4,0.7-2.1c0.4,2.3,1.1,4.7,4.2,5.4c3.7,0.7,7.6-1.2,9.2-3.8c1-1.7,0.6-3.6,0.8-5.4c0-0.1,0-0.2,0-0.3c0.7,2.2,1.8,4.4,3.7,6.1c2.1,1.7,5.3,2.8,7.5,0.6c1.2-1.2,1.7-2.8,2.1-4.3c0.5,1.2,1.5,2.3,2.8,3.2c0.8,0.5,1.6,1.1,2.6,1.4c1.5,0.3,3.1,0.5,4.6,0c0.6-0.3,1.1-0.7,1.5-1.2c0.7-0.7,1.3-1.4,1.5-2.3C67.4,30.1,67.2,28.5,67.3,27"/><g><path class="st3" d="M6.8,36c-0.1-0.2-0.5-0.1-0.6,0c0,0-0.3,0.2-0.4,0.3c-0.8,0.4-1.4,0.7-2,0.7c0,0,0,0-0.1,0c-0.2,0-0.5-0.2-0.6-0.2c-0.4-0.3-0.6-0.5-0.6-0.6c0-0.9,0.1-1.6,0.3-2.4c0-0.2-0.5-0.3-0.6,0c-0.2,0.5-0.3,1.1-0.3,1.7c0,0.4-0.1,0.8,0.1,1.1c0.4,0.6,1.2,1,2,0.9c0.4,0,0.7-0.1,1-0.3c0.5-0.2,1-0.4,1.3-0.7C6.5,36.4,6.9,36.3,6.8,36"/><path class="st3" d="M5.2,31.1C5.1,31,5,31,4.8,31c-1.3-0.3-0.7-2.2,0-3.7c0.1-0.3-0.5-0.4-0.6-0.1c-0.4,0.7-0.6,1.4-0.7,2.1c-0.1,0.6-0.1,1.2,0.3,1.7c0.3,0.3,1,0.7,1.5,0.6C5.5,31.4,5.5,31.1,5.2,31.1"/><path class="st3" d="M16.9,38.4c-0.1,0-0.1,0-0.2,0c-0.2-0.1-0.7-0.5-1.1-0.9c-0.3-0.3-0.6-0.6-0.9-1.1c0-0.1-0.1-0.1-0.2-0.1c-0.3-0.1-0.6,0.2-0.4,0.4c0.3,0.5,2.2,2.7,3,2.1C17.3,38.8,17.2,38.5,16.9,38.4"/><path class="st3" d="M10.5,20c0.1-0.1,0.3-0.2,0.3-0.4c0-0.2-0.4-0.4-0.6-0.2c-0.6,0.4-0.9,1-1.2,1.6c-0.2,0.4-0.2,1,0.3,1.2c0.4,0.1,0.6-0.3,0.3-0.5c0,0,0,0,0,0c0,0,0-0.1,0-0.1C9.7,21.2,10.2,20.3,10.5,20"/><path class="st3" d="M16.6,14c-0.9,0.5-1.8,1-2.4,1.7c-0.2,0.3-0.3,0.6-0.2,0.9c0.1,0.3,0.8,0.4,0.8,0c0-0.1-0.1-0.1-0.1-0.2c0-0.6,1.3-1.4,2.2-1.9C17.4,14.3,17,13.8,16.6,14"/><path class="st3" d="M32.5,12.1c-0.8,0.1-1.3,0.3-1.9,0.1c-0.4,0-0.9-1.1-0.7-1.6c0-0.1,0.1-0.2,0.2-0.4c0.1-0.3-0.4-0.4-0.6-0.2c-0.3,0.3-0.3,0.7-0.3,1.1c0.1,0.5,0.3,1,0.8,1.3c0.8,0.5,1.8,0.2,2.7,0.1C33.1,12.5,32.9,12,32.5,12.1"/><path class="st3" d="M25.4,11.8c-0.1,0-0.2,0-0.5-0.2c-0.1,0-0.2-0.1-0.2-0.2c-0.1-0.1-0.2-0.3-0.2-0.3c0,0,0,0,0,0c0-0.1,0.1-0.1,0-0.2c0-0.3-0.6-0.3-0.7,0c-0.4,0.7,1.2,1.8,2,1.4C26.1,12,25.8,11.7,25.4,11.8"/><path class="st3" d="M40.7,10.5c-0.4,0-0.7,0.1-1,0.1c-1,0.1-1.6,0.1-1.8-0.3c-0.2-0.2-0.1-0.4-0.2-0.8c-0.1-0.3-0.6-0.2-0.6,0.1c-0.1,0.6,0.4,1.3,1.2,1.4c0.8,0.1,1.7,0,2.5-0.2C41,10.8,40.9,10.5,40.7,10.5"/><path class="st3" d="M50.1,14c-0.2,0-0.3,0-0.7-0.1c-0.2,0-1.2-0.9-1.3-1.1c-0.1-0.1-0.1-0.3-0.3-0.4c-0.2-0.1-0.6,0.1-0.5,0.3c0.1,0.4,0.5,0.7,0.8,1c0.5,0.5,1.2,0.9,2,0.8c0.3,0,0.7,0,0.7-0.3C50.9,13.8,50.4,13.9,50.1,14"/></g></g><g><path class="st3" d="M72.3,31.9c-0.3-0.5-0.8-0.9-1.5-1.1c-0.2,0-0.3-0.1-0.5-0.1c0-1.2-0.1-2.5-0.8-3.6c-0.8-1.3-2.4-2.4-4-3c-1.6-0.5-3.4-0.3-5,0.2c-0.2,0.1-0.4,0.1-0.5,0.2c0.2-0.3,0.5-0.5,0.6-0.8c0.4-0.5,0.6-1.1,0.5-1.8c0-0.9,0-1.8-0.2-2.7c-0.4-0.9-1.3-1.7-2.4-2.2c-1.2-0.5-2.4-0.8-3.7-0.9c-1.6,0.1-3.3,0.5-4.6,1.1c-1,0.4-1.9,0.9-2.7,1.4c0.1-0.5,0.2-1.3,0.1-1.8c-0.3-0.9-0.8-1.9-1.8-2.6c-1.9-1.2-4.5-2-7-1.4c-1.3,0.3-2.6,0.8-3.6,1.4c-1.4,0.9-2.8,2.1-3.8,3.1c0-0.1,0-0.2,0-0.3c0-2.8-3.5-4-6.8-3.2c-3.7,0.9-7.2,2.7-8.9,5.4c-0.4,0.6-0.6,1.4-0.6,2.1c-0.3,0.1-0.5,0.3-0.8,0.4c-2.1,1.1-3.6,2.6-5,4.2c-1.2,1.1-1.5,2.7-1.2,4.1c0.2,0.5,0.3,1,0.7,1.4c0.5,0.5,1.1,0.8,1.8,1.1c2.6,0.8,5-0.4,7-1.7c-0.3,0.6-0.4,1.3-0.5,2c-0.1,1.2-0.5,2.7,1.1,3.4c2.1,1.3,5.1,0.7,7.4-0.1c0.4-0.1,1-0.3,1.6-0.6c-0.5,1.1-0.9,2.2-1,3.4c-0.2,1-0.2,2.1,0.4,3c0.4,0.5,0.7,1,1.3,1.4c1,0.6,2.1,1.1,3.4,1.3c1.8,0.2,3.5-0.5,5-1.1c2.1-0.8,3.7-2.2,4.9-3.7c-0.1,0.6-0.2,1.2-0.1,1.9c0.3,2,2.4,4.3,5.4,3.6c0.8-0.2,1.7-0.4,2.5-0.8c1.2-0.7,2.1-1.6,2.8-2.6c0.2-0.3,0.4-0.5,0.5-0.8c0,1.7,0.4,3.4,2.4,4c1.5,0.3,2.9-0.3,4-1c1-0.7,1.7-1.6,2.2-2.6c0.3,0.2,0.6,0.3,0.9,0.5c0.4,0.2,0.8,0.4,1.3,0.4c1,0.3,2,0.4,3-0.1c0,0,0,0,0.1,0c1-0.2,2-0.6,2.6-1.2c0.8-0.8,1.1-1.8,1.1-2.7c0.4-0.2,0.8-0.5,1.2-0.8c1.4-0.8,2-2.2,2.2-3.6C73,33.3,72.7,32.6,72.3,31.9"/><g><path class="st8" d="M15.3,25.4c0.2-0.2-0.1-0.5-0.4-0.3c-0.8,0.4-1.7,0.7-2.1,1.4c-0.5,0.6-0.4,1.9,0.8,2.2c0.3,0,0.5-0.2,0.3-0.4c-0.1-0.1-0.3-0.1-0.4-0.2c0,0,0,0,0,0c-0.6-0.4-0.4-1.3,0.3-1.8C14.2,25.9,14.7,25.7,15.3,25.4"/><path class="st8" d="M23.4,17.5c-0.6-0.1-0.9-0.1-1.5,0.1c-0.6,0.1-1,0.5-1.4,0.9C20.1,19,20,19.6,20,20.2c0,0.1,0,0.3,0.2,0.3c0.2,0.1,0.4-0.1,0.4-0.2c-0.1-1,0.4-2.1,1.4-2.3c0.5-0.1,0.5-0.2,0.8-0.1c0.2,0,0.4,0.1,0.6,0C23.7,17.9,23.6,17.6,23.4,17.5"/><path class="st8" d="M39.9,22.5c-0.8,0.2-1.4,0.6-2.1,1c-0.3,0.2-0.7,0.4-0.8,0.8c-0.4,1-0.2,2.3,1.4,2.5c0.3,0,0.4-0.3,0.2-0.5c-0.1-0.1-0.4-0.1-0.7-0.3c-0.4-0.2-0.6-1.5-0.1-1.8c0.6-0.4,1.5-0.9,2.2-1.1C40.5,22.9,40.3,22.4,39.9,22.5"/><path class="st8" d="M42.5,17.5c-0.2-0.2-0.9-0.6-1.4-0.7c-0.4,0-0.9,0.1-1.3,0.2c-0.7,0.2-1.2,0.7-1.7,1.1c-0.1,0.1-0.1,0.2-0.1,0.3c0.1,0.2,0.4,0.2,0.5,0.1c0.5-0.4,0.8-0.7,1.3-1c0.1-0.1,0.9-0.2,1-0.2c0.3,0,0.6,0.2,1,0.4C42.1,17.9,42.5,17.8,42.5,17.5"/><path class="st8" d="M54,19.6c-1.4,0-3,0.4-3.6,1.5c-0.2,0.3-0.3,0.6-0.3,0.9c0,0.1,0,0.3,0.2,0.4c0.2,0.1,0.5,0,0.5-0.2c0-0.2,0-0.1,0-0.4c0-0.3,0.3-0.8,0.9-1.2c0.2-0.1,1.6-0.5,2.1-0.5C54.3,20.3,54.6,19.7,54,19.6"/><path class="st8" d="M45.5,23.7c-0.7,0.8-1.6,2-1.1,3c0.1,0.2,0.3,0.5,0.7,0.4c0.5-0.2,0.2-0.5,0.1-0.6c0,0,0,0,0,0c-0.1-0.1-0.1-0.2-0.1-0.3c0-0.7,0.5-1.4,1.2-2.2C46.3,23.7,45.7,23.4,45.5,23.7"/><path class="st8" d="M57,31.3c-0.2-0.9-0.9-1.5-2.2-1.6c-0.7,0-1.3,0.2-1.9,0.4c-0.2,0.1-0.5,0.2-0.5,0.4c0,0.2,0.3,0.3,0.5,0.2c1.1-0.5,2.1-0.7,2.8-0.1c0.4,0.2,0.6,1.2,0.6,1.5c0,0.3,0.5,0.4,0.7,0.2C57.2,32,57,31.6,57,31.3"/><path class="st8" d="M57.2,25.7c-0.5-0.4-1.2-0.4-1.8-0.4c-0.6,0-1.2,0-1.7,0.2c-0.6,0.1-0.4,0.7,0.1,0.5c0.8-0.3,2.6-0.4,3,0.1c0.2,0.1,0,0.1,0.3,0.2C57.6,26.3,57.6,25.9,57.2,25.7"/><path class="st8" d="M65.7,27.1c-0.7,0.1-1.2,0.4-1.7,0.7c-0.4,0.2-0.9,0.5-1.2,0.9c-0.3,0.5-0.1,1.2,0.3,1.7c0.1,0.1,0.2,0.3,0.4,0.4c0.2,0.1,0.5-0.1,0.5-0.3c0-0.2-0.3-0.4-0.4-0.6c-0.3-0.4-0.3-0.6,0-1c0.1-0.1,1.5-1,1.9-1.1c0.2-0.1,0.5-0.1,0.6-0.2C66.3,27.3,66,27,65.7,27.1"/><path class="st8" d="M66.9,37c-0.6-0.4-1.5-0.4-2.3-0.3c-0.6,0.1-1.1,0.5-1.4,0.9c-0.3,0.4-0.7,0.7-0.7,1.2c0,0.3,0.6,0.3,0.6,0c0.1-0.5,0.8-1.2,1.1-1.4c0.4-0.3,0.9-0.3,1.2-0.2c0.8,0,0.8,0.2,1.3,0.4C67.2,37.5,67.2,37.1,66.9,37"/><path class="st8" d="M69.5,33.1c-0.3-0.3-1.2-0.6-2-0.4c-0.5,0.1-1.1,0.1-1.5,0.4c-0.3,0.2,0.1,0.6,0.5,0.4c0.8-0.4,2-0.4,2.5,0c0.2,0.1,0.4,0.3,0.7,0.4c0.2,0.1,0.5-0.1,0.5-0.3C70.2,33.4,69.8,33.3,69.5,33.1"/></g></g><g><path class="st14" d="M34.8,30.3c-1.4-0.2-2.8,0.1-4.2,0.1c-1.6,0.1-3.4-0.2-5.3,0.1c1.4-1.2,2.9-2,4.4-3.5c2-1.9,4-3.6,6.2-5.3c0.5-0.4,0.7-1-0.1-1.2c-1.8-0.5-7.4-0.6-7.7-0.5c-0.4,0.1-5.9,7.1-8.6,10.2c-1.3,1.4-2.8,2.7-3.9,4.2c-0.2,1.3,1.8,0.4,7.1,0.5c0.5,0,1.5,0,2.3-0.1c-0.2,0.3-6,7.2-8.6,11.7c0,0.4,0.5,0.6,0.9,0.5c0.5-0.2,0.8-0.6,1.2-0.9c1.2-1.1,2.6-2.1,3.9-3.2c2.6-2.2,5-4.6,7.5-6.8c1.3-1.2,2.8-2.2,4-3.5C34.5,32,36,30.9,34.8,30.3"/><path class="st6" d="M30.2,31.6c-0.4,0.1-0.9,0.2-1.3,0.3c-0.4,0.1-1.6,0.1-2.1,0.2c-1.8,0.3-3.8,0.3-5.9,0.7c-0.4,0.1-1.1,0.3-1.5,0.4c1.6-1.6,2.9-2.9,4.5-4.4c1.3-1.4,2.2-2.5,3.5-3.8c1-1.1,2.3-2.4,3.2-3.8c0.1-0.2-0.4-0.4-0.5-0.1c-2.1,2.8-4.6,4.9-6.8,7.3c-0.8,0.7-1.8,1.7-2.6,2.5c-0.6,0.5-1.2,1.1-1.7,1.7c-0.1,0.1-0.4,0.4-0.6,0.7c0,0.7,1.1,0.3,1.5,0.2c0.8-0.2,1.5-0.4,2.1-0.4c1.6-0.1,3.6-0.3,4.9-0.5c0.7-0.1,1.3-0.1,2-0.2c0.4-0.1,0.9-0.2,1.3-0.3c-1.1,1.8-3.1,3.7-4.9,5.4c-2,1.8-4.2,3.6-5.6,5.2c-0.1,0.1-0.9,0.7-0.9,1c0,0.2,0.4,0.4,0.6,0.2c1.2-1.1,2.1-2.4,3.5-3.6c2.3-2.1,4.7-4.1,6.6-6.4c0.6-0.6,1-1.3,1.4-2C31.5,31.4,30.5,31.5,30.2,31.6"/></g><g><path class="st8" d="M59.2,40.7c-0.4-0.3-0.9-0.7-1.4-0.9c0.3-0.2,0.6-0.5,0.8-0.8c0.7-1.4-0.8-2.8-2.3-3.6c-1.8-0.9-3.6-1.2-5.4-0.7c0.1-0.4,0.4-0.9,0.3-1.4c-0.2-0.9-0.9-1.7-1.8-2.3c-1.3-0.9-2.8-1.8-4.5-0.9c-0.4,0.2-0.6,0.5-0.9,0.8c-1.2-0.2-2.4-0.1-3.6,0.1c-1.6,0.3-2.5,1.7-2.3,2.9c0,0.2,0,0.5,0.1,0.7c-0.3-0.1-0.6-0.1-0.8-0.1c-0.7,0-1.3,0.2-1.9,0.4c-0.7,0.2-1.5,0.4-2.1,0.8c-0.6,0.4-1.2,0.9-1.5,1.5c-0.3,0.4-0.5,0.8-0.4,1.2c0.1,0.4,0.1,0.8,0.3,1.1c0,0,0.1,0.1,0.1,0.1c-0.2,0-0.3,0.1-0.5,0.1c-0.8,0.2-1.6,0.5-2.2,0.9c-0.5,0.4-1,0.9-1.2,1.5c-0.2,0.5-0.2,1.1-0.1,1.7c0.2,1.2,1.3,2.1,2.8,2.4c1.4,0.1,2.8-0.3,4.1-0.8c0.6-0.3,1.2-0.6,1.8-0.9c0.1,0.8,0.7,1.5,1.5,2c1.4,0.8,3.3,0.4,4.5-0.5c0.5-0.4,1-0.7,1.5-1.1c0,0,0,0.1,0,0.1c0.2,0.6,0.6,1.1,1.2,1.4c0.7,0.4,1.5,0.5,2.3,0.5c1.3-0.2,2.5-0.7,3.6-1.4c0.1,0,0.4-0.2,0.7-0.4c0.1,0.3,0.3,0.5,0.5,0.7c0.1,0.1,0.3,0.3,0.6,0.5c0.4,0.2,0.9,0.5,1.4,0.6c1.6,0.1,3.3-0.5,4.5-1.3c0.4-0.2,0.7-0.5,0.9-0.9c0.3-0.5,0.7-1,0.8-1.6C60.4,42.1,59.9,41.3,59.2,40.7"/><g><path class="st7" d="M32.2,41.4c-0.7,0.5-1.6,1.7-0.9,2.4c0.2,0.2,0.5,0.4,0.8,0.3c0.2,0,0.3-0.2,0.2-0.4c-0.2-0.2-0.4-0.2-0.4-0.2c0,0,0,0,0,0c0,0-0.1-0.1-0.1-0.1c0,0,0,0,0,0c0,0,0,0,0,0c0,0,0,0,0-0.1c-0.1-0.4,0.4-1.1,0.7-1.4c0.1-0.1,0.3-0.2,0.3-0.4C32.7,41.4,32.4,41.3,32.2,41.4"/><path class="st7" d="M38.7,36.7c-0.6,0.3-1.1,0.9-1.4,1.4c-0.2,0.4-0.4,0.9-0.2,1.3c0.3,0.5,1,0.7,1.6,0.7c0.2-0.1,0.2-0.3,0-0.4c-0.3-0.1-0.3,0-0.5-0.1c-1.3-0.2-0.6-1.5,0.3-2.3c0.2-0.2,0.3-0.1,0.5-0.3C39.2,36.8,38.9,36.6,38.7,36.7"/><path class="st7" d="M43.1,42.8c-0.4,0-0.7,0.3-1,0.4c-1,0.6-1.5-0.1-1.5-1.2c0-0.3-0.7-0.3-0.7,0c0,0.6,0.1,1.3,0.7,1.7c0.4,0.3,1.1,0.3,1.6,0c0.3-0.2,1-0.4,1.1-0.7C43.4,43,43.3,42.8,43.1,42.8"/><path class="st7" d="M46.7,32.7c-1.4,0-3.1,0.5-3.9,1.5c-0.2,0.6,0.6,1.3,1.2,1.7c0.2,0.2,0.5,0.1,0.6-0.1c0.1-0.4-0.5-0.4-0.8-0.8c0.1,0.1-0.2-0.2-0.3-0.4c0,0,0-0.1,0-0.1c0,0,0,0,0,0c0.2-0.4,1.3-0.9,2.4-1.1c0.1-0.1,0.6,0,1-0.1C47.2,33.1,47.1,32.7,46.7,32.7"/><path class="st7" d="M48.3,39.5c-0.1-0.1-0.3-0.1-0.4,0c-0.3,0.1-0.4,0.1-0.8,0.2c-1.3,0.2-1.6-0.6-0.8-2c0.1-0.4-0.6-0.5-0.7-0.2c-0.3,0.6-0.6,1.3-0.3,2c0.5,1,2.2,0.9,3.2,0.3C48.4,39.8,48.4,39.6,48.3,39.5"/><path class="st7" d="M50.9,43.2c-0.3,0.3-0.3,0.3-0.7,0.5c-0.5,0.2-0.4,0.2-0.7,0.1c-0.2-0.2-0.3-0.5-0.4-0.9c-0.1-0.4-0.8-0.2-0.7,0.2c0.1,0.6,0.4,1.3,1.2,1.4c0.8,0.1,1.7-0.4,1.9-1C51.5,43.3,51.2,43.1,50.9,43.2"/><path class="st7" d="M57.7,42.5c-0.1-0.1-0.3-0.2-0.5-0.1c-0.2,0.1-0.2,0.3-0.4,0.5c0,0.1-0.1,0.1-0.2,0.2c0,0,0,0,0,0c0,0,0,0,0,0c-0.1,0.1-0.5,0.1-0.7,0.1c-0.1,0-0.2,0-0.3-0.1c0,0,0,0,0,0c-0.4-0.4-1.1-0.1-0.7,0.3c0.6,0.5,1.7,0.6,2.4,0.1c0.2-0.2,0.2-0.2,0.4-0.5c0,0,0.1-0.2,0.2-0.3C57.8,42.7,57.8,42.6,57.7,42.5"/><path class="st7" d="M54.8,37.8c-0.2,0-0.4,0.2-0.6,0.2c-0.4,0.1-0.5,0.2-0.8,0.2c-0.1,0-0.3-0.3-0.5-1.1c-0.1-0.1,0-0.3,0-0.5c-0.1-0.3-0.7-0.2-0.7,0.1c-0.1,0.4,0.1,0.9,0.3,1.3c0.1,0.3,0.3,0.6,0.7,0.8c0.5,0.1,1.1,0,1.5-0.2c0.2-0.1,0.5-0.2,0.5-0.4C55.2,38,55,37.8,54.8,37.8"/></g></g></g></g></g></g><g><g><path class="st6" d="M63.4,2.2c0.1,0.1,0,0.3,0,0.4c-0.1,0.8-0.2,1.5-0.3,2.3c-0.2,1.2-0.5,2.3-0.8,3.4c-0.4,1.1-1,2.1-1.5,3.1c0,0-0.1,0.1-0.1,0.1c0,0.1-0.2,0.3-0.4,0.1c-0.3-0.4-0.4-0.2-1-0.5c-0.5-0.2,0.2-1.3,0.3-1.7c0.3-0.6,0.6-1.3,0.8-1.9c0.7-1.8,1.6-3.5,2.5-5.2C63,2.3,63.2,2,63.4,2.2"/><path class="st6" d="M57.2,0.2c0.6,3.3,1.1,6.9-0.3,10.1c0,0,0,0.1-0.1,0.1c0,0.1-0.1,0.3-0.3,0.2c-0.4-0.1-0.5-0.2-0.9-0.2c-0.3,0-0.6,0-0.9-0.2c-0.2-0.2-0.1-0.4-0.2-0.7c0-0.7,0.2-1.5,0.3-2.2c0.3-1.4,0.6-2.8,1-4.2c0.3-1,0.6-1.9,0.8-2.9C56.7-0.2,57.1-0.3,57.2,0.2"/><path class="st6" d="M50,1c1,3,2.6,6,2.4,9.2c0,0,0,0.1,0,0.1c0,0,0.1,0.1,0.1,0.2c0,0.1,0,0.1-0.1,0.1c0,0,0,0.1-0.1,0.1c-0.1,0-0.2,0-0.2,0c-0.1,0-0.1,0-0.2,0c-0.3,0-0.6,0.1-0.9,0.1c-0.4,0.1-0.9,0.4-1.1-0.1c-0.2-0.9-0.2-1.7-0.3-2.6c-0.2-2.4-0.2-4.8,0-7.2C49.7,0.7,50,0.8,50,1"/><path class="st6" d="M42.7,1.6c0.9,1.5,2.1,2.8,3.1,4.2c0.8,1.3,1.3,2.7,2,4c0.3,0.7,0.6,1.5,0.7,2.3c0,0,0,0.1,0,0.1c0,0,0,0,0,0c0,0.1,0,0.1,0,0.1c0,0-0.1,0.1-0.2,0c-0.5,0.2-0.9,0.8-1.4,1.3c-0.4,0.5-0.7,0.5-0.9-0.1c-0.5-1.1-1-2.1-1.4-3.1C44,8.8,43.5,7.1,43,5.4c-0.3-1.2-0.5-2.5-0.8-3.5C42.1,1.6,42.4,1.2,42.7,1.6"/><path class="st6" d="M33.4,9c0.1-0.1,0.3,0,0.4,0c0.3,0.2,0.6,0.4,0.8,0.5c0.9,0.4,1.8,0.7,2.7,1.2c0.6,0.3,0.9,0.5,1.5,0.8c0.7,0.3,1.2,0.7,1.8,1.1c0.2,0.1,1,0.6,1.5,0.8c1,0.4,2,0.8,3,1.2c0.2,0.1,0.4,0.1,0.5,0.2c0,0,0,0,0,0c0,0,0.1,0,0.1,0.1c0.1,0,0.2,0.1,0.2,0.2c-0.4,0.7-0.8,1.3-1.2,2c-0.1,0.2-0.2,0.6-0.6,0.6c-0.2-0.1-0.3-0.2-0.5-0.3c-0.3-0.2-0.6-0.3-0.9-0.5c-1.9-1-3.7-2.1-5.3-3.4c-1.5-1.4-2.6-2.8-4.1-4.1c0,0,0,0,0,0c0,0,0,0-0.1,0C33.4,9.2,33.4,9,33.4,9"/><path class="st6" d="M61.3,12.9C62.1,12,63,11,64,10.2c1.1-0.8,2.2-1.7,3.5-2.4C67.8,7.7,70,6.2,69.9,7c0,0.1-0.1,0.2-0.2,0.2c-0.6,0.4-1.1,0.8-1.6,1.4c-1.1,1.2-2.3,2.3-3.3,3.7c-0.5,0.6-1.2,1.1-1.8,1.7c-0.1,0.2-0.3,0.3-0.5,0.4c-0.4,0-0.5-0.4-0.6-0.7c-0.1-0.1-0.4-0.4-0.5-0.7C61.3,13.2,61.2,13,61.3,12.9"/><path class="st6" d="M63.2,15.9C63.2,15.9,63.2,15.9,63.2,15.9c0,0,0.1-0.1,0.1-0.1c0,0,0,0,0,0c0.6-0.6,1.4-1,2.2-1.5c0.5-0.3,1-0.7,1.6-0.9c1.1-0.4,2.3-0.7,3.5-1.1c0.4-0.1,0.8-0.2,1.2-0.3c0.7,0,1.3,0,1.9-0.1c0.6,0,0.5,0.3,0.1,0.5c-1.1,0.4-2.2,0.8-3.3,1.2C70,14,69,14.6,68.2,14.9c-1.4,0.6-3,1.4-4.4,2.3c-0.3,0-0.3-0.3-0.5-0.6c0-0.1-0.2-0.4-0.2-0.5C63.2,16,63.2,16,63.2,15.9"/><path class="st6" d="M64.2,18.8c1.5-0.7,3.1-1.1,4.7-1.3c1.3-0.1,2.7,0,4,0.1c1.1,0,2.5,0.3,3.3,0.6c0.1,0,0.2,0.1,0.2,0.2c0,0.3-0.6,0.2-0.6,0.2c-0.5,0-0.9,0.1-1.3,0.2c-2.2,0.4-4.4,1.2-6.6,1.7c-0.8,0.2-1.4,0.3-2.3,0.5c-0.3,0-0.6,0-0.8,0.1c0.1,0-0.3,0.1-0.4,0.1c-0.2,0-0.4,0.1-0.5,0c-0.2-0.2,0-0.5,0-0.7c0.1-0.5,0.1-0.8,0.1-1.2C64.1,19,64.1,18.9,64.2,18.8"/><path class="st6" d="M63.5,22.4c0.2-0.1,0.3,0,0.5,0c0.3,0,0.6,0.1,1,0.1c1.2,0.2,2.7-0.2,4,0c1.3,0.1,2.7,0.3,4,0.4c0.2,0,1,0,1.5,0.2c0.3,0.1,2,0.3,1.2,0.7c-0.7,0.2-1.4,0.2-2,0.3c-2.6,0.4-5.2,0.7-7.9,0.7c-0.7,0-1.4,0.1-2.1,0c-0.2,0-0.7,0-1-0.1c-0.1,0-0.1-0.1-0.1-0.1c-0.1,0-0.1-0.1-0.1-0.2C62.8,23.8,63.1,22.9,63.5,22.4"/><path class="st6" d="M59.4,26.9c0.7-0.5,1.4-1,1.9-1.5c0.1-0.1,0.3-0.4,0.5-0.3c0.2,0.1,0.2,0.2,0.4,0.4c0.2,0.2,0.7,0.4,1.1,0.5c2.9,0.9,5.4,2.4,8,3.8c0.6,0.3,1.3,0.5,1.8,1c0.2,0.1,0.1,0.4-0.1,0.4c-0.7,0-1.4-0.2-2.1-0.5c-0.8-0.3-1.9-0.3-2.8-0.6c-0.6-0.2-1.3-0.5-1.8-0.6c-0.6-0.2-1.3-0.2-1.9-0.4c-0.7-0.2-1.4-0.5-2.1-0.7c-0.3-0.1-0.8-0.2-1.2-0.4c-0.5-0.2-0.9-0.3-1.3-0.4c-0.3-0.2-0.1-0.1-0.3-0.2c0,0,0,0,0-0.1C59.3,27.2,59.2,27,59.4,26.9"/><path class="st6" d="M36.5,19.4c1.1-0.1,2.6-0.2,3.5-0.3c0.6-0.1,1.1-0.3,1.7-0.4c0.6-0.1,1.3-0.1,1.9,0c0.5,0.1,0.6,0.2,0.9,0.1c0.1,0,0.1,0,0.2-0.1c0,0,0,0,0,0c0,0,0,0,0,0c0,0,0,0,0,0c0,0,0.1,0,0.1,0c0,0,0,0,0,0c0.1-0.1,0.3,0,0.3,0.2c-0.2,0.7-0.4,1.4-0.3,2c0,0,0,0.1,0.1,0.2c0.1,0.1,0.1,0.2,0.1,0.3c0,0.2-0.2,0.3-0.4,0.2C43.8,21,43,21,42.1,20.9c-0.7-0.2-1.3-0.4-1.9-0.5C39,20.1,37.9,20,36.7,20c-0.3,0-0.7,0-0.9-0.2C35.6,19.4,36.2,19.3,36.5,19.4"/></g><path class="st14" d="M46.5,13.5c0.3-0.4,0.5-0.7,0.9-1c0.4-0.4,0.9-0.7,1.3-1c1.4-0.9,3.1-1.6,4.8-1.7c1.3,0.1,2.6,0.1,3.8,0.3c2.6,0.8,5.1,2,6.4,4.3c1.4,1.7,1.5,4,1.2,6c-0.2,0.5-0.3,1-0.5,1.4c-0.1,0.3-0.2,0.7-0.2,1C64,23,64,23.3,63.8,23.5c0,0,0,0-0.1,0c-0.3,0.8-0.8,1.5-1.4,2.1c-0.5,0.4-1,0.8-1.6,1c-0.1,0.1-0.2,0.2-0.4,0.2c-1.6,1.1-3.6,1.9-5.7,1.6c-0.7-0.2-0.9-0.1-1.7-0.2c-0.8-0.2-1.5-0.4-2.3-0.7c-1.5-0.7-2.9-1.5-4.1-2.6c-0.7-0.9-1.3-1.9-1.8-2.9c-0.3-0.9-0.5-1.8-0.6-2.7c-0.1-0.7-0.1-1.4,0.1-2.1c0.2-0.6,0.5-1.1,0.8-1.7C45.6,14.7,46,14.2,46.5,13.5"/><path class="st6" d="M49.2,13.3c0.7-0.7,1.6-1.1,2.5-1.4c0.8-0.3,1.6-0.2,2.4-0.2c0.5,0,1.1,0,1.7,0.1c0.6,0.2,1.2,0.2,1.7,0.4c0.8,0.4,1.6,0.8,2.3,1.3c0.5,0.5,0.9,1,1.3,1.6c0.5,0.7,1.1,1.4,1.5,2.2c0.5,1.1,0.5,2.4,0.3,3.6c-0.2,1-0.7,1.9-1.1,2.8c-0.1,0.2-0.4,0-0.3-0.1c0.3-0.7,0.8-1.6,1-2.3c0.2-0.6,0.1-1,0.2-1.6c0.2-1.7-0.7-2.9-1.7-4.3c-0.5-0.6-0.8-1.2-1.4-1.6c-0.6-0.5-1.3-0.8-2.1-1.2c-0.5-0.2-1.2-0.2-1.8-0.4C55,12,54.2,12.1,53.7,12c-0.9,0-1.6,0.1-2.4,0.4c-0.7,0.3-1.3,0.6-1.8,1c-1.1,0.9-1.9,1.9-2.3,3.1c-0.3,0.8-0.7,1.4-0.8,2.2c-0.1,0.8,0,1.6,0.3,2.4c0.3,0.9,1,1.5,1.8,2.2c0.5,0.4,1,0.9,1.6,1.3c0.3,0.2,1.1,0.6,1.5,0.8c0.9,0.4,2,0.6,3,0.5c0.5,0,1.1,0,1.4-0.1c0.2-0.1,0.2-0.1,0.3-0.1c0.8-0.4,1.5-0.8,2-1.4c0.5-0.6,0.8-1.5,1.3-2.2c0.5-1.1,0.9-2.2,0.7-3.3c-0.1-0.3-0.3-1-0.5-1.3c-0.3-0.5-0.6-0.7-1.1-1.1c-0.7-0.6-1.5-0.9-2.4-1.3c-0.6-0.2-1.4-0.6-1.9-0.6c-0.3,0-0.7,0.1-1,0.1c-0.4,0-0.5,0-0.9,0.2c-1.2,0.5-2.4,1.5-2.9,2.7c-0.4,0.8-0.3,1.7,0.1,2.5c0.4,1.1,1.3,2,2.4,2.4c0.7,0.3,1.3,0.5,1.9,0.4c1-0.1,1.8-0.4,2.4-1.1c0.2-0.3,0.7-1,0.7-1.5c0-0.2,0-0.5-0.1-0.8c-0.3-1.2-1.8-2.2-2.9-2.1c-0.5,0.2-0.9,0.3-1.2,0.8c-0.3,0.6-0.5,1.2,0,1.5c0.2,0.1,0.3,0.2,0.6,0.3c0.1,0,0.2,0,0.2,0.2c0,0.2-0.2,0.1-0.4,0.1c-0.2-0.1-0.4-0.1-0.6-0.3c-0.9-0.5-0.4-1.7,0.1-2.3c0.3-0.3,0.7-0.4,1-0.5c0.5-0.1,0.9,0,1.4,0.2c1.3,0.4,2.1,1.6,2.2,2.8c0,0.5-0.2,0.9-0.5,1.3c-0.3,0.5-0.6,1-1.2,1.3c-0.6,0.3-1.4,0.5-2.1,0.5c-0.8,0-2-0.4-2.7-1c-1.3-0.9-1.9-2.3-1.9-3.8c0.1-0.9,0.5-1.7,1.2-2.4c0.6-0.7,1.5-1.3,2.4-1.6c0.3-0.1,0.6-0.1,0.9-0.1c0.3,0,0.7-0.1,1.1-0.1c1,0.1,1.9,0.6,2.8,0.9c1.4,0.6,2.7,1.7,3.1,3.1c0.2,0.5,0.2,1,0.1,1.5c0,0.5-0.1,1.1-0.3,1.6c-0.2,0.5-0.4,1-0.7,1.5c-0.3,0.6-0.6,1.2-1,1.8c-0.5,0.5-1.1,0.9-1.7,1.2c-0.3,0.2-0.7,0.4-1.1,0.4c-1.1,0-2.2,0.1-3.2-0.2c-0.7-0.1-1.4-0.4-2-0.8c-0.6-0.3-1.1-0.6-1.5-1c-1-0.8-1.9-1.6-2.5-2.5c-0.3-0.6-0.4-1.3-0.5-1.9c-0.2-1.3,0.3-2.5,0.8-3.6C47.4,15.2,48.2,14.2,49.2,13.3"/></g></g></g></svg>