<?xml version="1.0" encoding="utf-8"?>
<svg version="1.1" xmlns="http://www.w3.org/2000/svg" xmlns:xlink="http://www.w3.org/1999/xlink" x="0px" y="0px" viewBox="0 0 63.1 68.4" style="enable-background:new 0 0 63.1 68.4;" xml:space="preserve"><style type="text/css">.st0{fill:#FFFFFF;}.st1{fill:#8CA2CF;}.st2{clip-path:url(#SVGID_00000035497032769549827140000004341772151621766828_);}.st3{fill:#627EB5;}.st4{fill:#8CA05C;}.st5{fill:#677724;}.st6{fill:#E0A955;}.st7{fill:#BBD7FF;}.st8{fill:#3C5987;}.st9{clip-path:url(#SVGID_00000031197904517180179730000008933420258215780029_);}.st10{fill:#669CD3;}.st11{clip-path:url(#SVGID_00000062886738772438930970000013186879217898966716_);}.st12{fill:#92C4FC;}.st13{fill:#FAF4D2;}.st14{fill:#FCCB7C;}.st15{clip-path:url(#SVGID_00000147914904523049509550000003128865315928070331_);}.st16{clip-path:url(#SVGID_00000056396301443347025430000012836263570717123968_);}.st17{fill:#C5CAF0;}.st18{clip-path:url(#SVGID_00000029763148528728309700000013053874877911598234_);}.st19{clip-path:url(#SVGID_00000058554824489232085740000009337345663205146010_);}.st20{clip-path:url(#SVGID_00000032646337702515627350000016350066322763176875_);}.st21{clip-path:url(#SVGID_00000013898762117009482310000012842752848702166967_);}.st22{fill:#F9CC3D;}.st23{fill:#FFEAAE;}.st24{fill:#FFECB8;}.st25{fill:#D3AA37;}.st26{fill:#FFE08A;}.st27{clip-path:url(#SVGID_00000114035242645457087600000016901975999344519056_);}.st28{clip-path:url(#SVGID_00000016065643628926081860000011540899467555148214_);}.st29{clip-path:url(#SVGID_00000095308403727446723090000000876796407477433222_);}.st30{clip-path:url(#SVGID_00000050625751009034634460000001602996402158489022_);}.st31{clip-path:url(#SVGID_00000135656319455503199050000005990013071851932336_);}.st32{clip-path:url(#SVGID_00000124853512359220090140000001191125142211354298_);}.st33{clip-path:url(#SVGID_00000165945889135849776710000012370934944200551357_);}.st34{clip-path:url(#SVGID_00000154400320682685185720000008511241007931541901_);}.st35{clip-path:url(#SVGID_00000106131783486511619450000018426514004964109717_);}</style><g ></g><g ><g><path class="st17" d="M11.9,40.6c-0.1-0.2-0.3-0.2-0.5,0c-0.2,0.1-0.5,0.3-0.8,0.4c-0.1,0.1-0.7,0-1.1-0.2c-0.2,0-0.2-0.2-0.5-0.1c-0.2,0.2-0.2,0.5-0.4,0.7c-0.4,0.5-1,1.1-1.6,1.3c-0.6,0.2-1.3,0-1.9-0.2c-0.2-0.1-0.4,0.3-0.1,0.4c1.5,0.5,2.7,0.2,3.7-1c0.2-0.2,0.4-0.5,0.5-0.8c0.7,0.3,1.3,0.6,2,0.2c0.2-0.1,0.4-0.2,0.6-0.4C11.8,40.8,11.9,40.7,11.9,40.6"/><path class="st17" d="M8.7,44.5C8.5,44.4,8.2,44.8,8,45c-0.4,0.3-1,0.5-1.5,0.4c-0.1,0-0.3-0.1-0.3-0.1C6.1,45.2,6,45.1,5.9,45c-0.3,0-0.3,0.3-0.5,0.4c-0.3,0.3-0.4,0.3-0.8,0.4c-0.3,0-0.9-0.1-1.1-0.2c-0.1,0-0.2-0.2-0.4-0.2c-0.2,0-0.2,0.3-0.1,0.3c0.8,0.5,2.1,0.6,2.7-0.2c0.1-0.1,0.1-0.1,0.2-0.2c0.3,0.2,1,0.4,1.5,0.2c0.6-0.1,1-0.5,1.4-0.8C8.9,44.8,8.9,44.6,8.7,44.5"/><path class="st1" d="M63.5,43.2c0-3.8-0.1-7.5-0.7-11.2c-0.1-1.7-0.6-3.3-1.2-4.9c0-0.1,0-0.1-0.1-0.2c0,0.2,0.1,0.3,0,0c0-0.1-0.1-0.2-0.1-0.2c0,0.1,0,0.1,0.1,0.2c0,0,0,0,0,0c-0.4-1.7-1-3.4-1.9-5c-2-3-3.7-6.3-6.6-8.6c-2.5-1.7-2.9-1.7-5.5-2.9c-0.3-0.2-1.9-1-3.5-1.6c-3-0.7-6-1.6-9.2-1.5c-3.5,0.4-7,0.8-10.4,1.9c-2.7,0.9-5.2,2.3-7.7,3.6c-1.5,0.9-2.8,2.1-4.2,3.3C11,17.4,9.4,18.8,8,20.4c-1.9,2.1-2.6,5-2.9,7.7c-0.1,1.3,0.2,2.4,0.5,3.6C7.2,38.6,1.4,45.9,1,47.5c-0.6,2.2-0.9,4.5-0.2,7.4c0.3,1,0.6,1.9,1.1,2.8c0.6,1,1.3,1.8,2,2.7c0.7,1,1.7,1.8,2.6,2.6c0,0,0,0,0,0C7.2,63.9,8.1,64.4,9,65c1,0.7,2.1,1.1,3.2,1.5c2.4,0.9,3.9,1.1,5.1,1.4c1.1,0.2,2.2,0.1,3.3,0c1.4,0,2.8-0.4,4.2-0.6c2.2-0.3,2-0.2,4.5-0.7c0.5-0.1,1-0.2,1.5-0.3c1.3,0.2,2.6,0.5,3.9,0.6c0.8,0.2,1.6,0.4,2.5,0.3c3.2-0.1,6.6-0.4,9.7-1.7c1.9-0.7,3.5-1.8,5.2-2.9c2.2-1.5,4.4-3.1,6-5.3c1.1-1.4,2-3,2.8-4.6c0.6-1.2,1.3-2.5,1.7-3.8c0.3-1,0.4-2,0.7-3c0.1-0.2,0.2-0.7,0.2-0.9C63.5,44.5,63.4,43.9,63.5,43.2z"/><path class="st6" d="M21.3,33.7C21.3,33.6,21.3,33.6,21.3,33.7"/><g><g><path class="st6" d="M16.5,3.5c-0.1,0.1,0,0.3,0,0.5c0.1,1,0.2,1.7,0.3,2.7c0.2,1.4,0.6,2.7,0.9,4.1c0.4,1.3,1.1,2.5,1.6,3.7c0,0.1,0.1,0.1,0.1,0.2c0,0.2,0.2,0.3,0.4,0.2c0.4-0.4,0.4-0.3,1.1-0.6c0.5-0.3-0.2-1.6-0.4-2c-0.3-0.8-0.6-1.5-0.9-2.3c-0.8-2.1-1.7-4.2-2.6-6.2C16.9,3.6,16.7,3.3,16.5,3.5"/><path class="st6" d="M23.1,1.1C22.5,5,21.9,9.2,23.4,13c0,0,0.1,0.1,0.1,0.1c0,0.1,0.1,0.3,0.3,0.3c0.4-0.1,0.5-0.2,0.9-0.2c0.3,0,0.7,0,0.9-0.2c0.2-0.2,0.1-0.5,0.2-0.8c0-0.9-0.2-1.8-0.3-2.6c-0.3-1.7-0.7-3.3-1.1-5c-0.3-1.1-0.6-2.3-0.8-3.5C23.6,0.6,23.2,0.6,23.1,1.1"/><path class="st6" d="M30.8,2.1C29.6,5.7,28,9.2,28.1,13c0,0,0,0.1,0,0.1c0,0-0.1,0.1-0.1,0.2c0,0.1,0,0.1,0.1,0.1c0,0,0,0.1,0.1,0.1c0.1,0.1,0.2,0,0.2,0c0.1,0,0.2,0,0.2,0c0.4,0,0.7,0.1,1,0.2c0.4,0.1,1,0.5,1.2-0.1c0.2-1,0.3-2.1,0.4-3.1c0.3-2.8,0.2-5.7,0-8.5C31.1,1.7,30.8,1.8,30.8,2.1"/><path class="st6" d="M38.6,2.8c-1,1.7-2.2,3.3-3.3,5c-0.9,1.5-1.4,3.2-2.1,4.7c-0.4,0.9-0.6,1.8-0.8,2.7c0,0,0,0.1,0,0.1c0,0,0,0,0,0c0,0.1,0,0.1,0,0.2c0,0.1,0.1,0.1,0.2,0.1c0.5,0.3,0.9,0.9,1.4,1.6c0.4,0.6,0.8,0.6,1-0.1c0.5-1.2,1-2.5,1.5-3.7c0.7-2,1.2-4,1.7-6c0.3-1.4,0.5-3,0.8-4.2C39.2,2.8,38.9,2.3,38.6,2.8"/><path class="st6" d="M48.4,11.5c-0.1-0.2-0.3-0.1-0.5,0.1c-0.3,0.2-0.7,0.5-0.9,0.6c-0.9,0.5-2,0.9-2.9,1.4c-0.6,0.3-1,0.6-1.6,0.9c-0.7,0.3-1.3,0.9-2,1.3c-0.3,0.2-1.1,0.7-1.6,0.9c-1,0.5-2.1,0.9-3.2,1.4c-0.2,0.1-0.4,0.2-0.6,0.3c0,0,0,0,0,0c0,0-0.1,0-0.1,0.1c-0.1,0-0.3,0.1-0.2,0.3c0.4,0.8,0.8,1.6,1.2,2.4c0.1,0.3,0.2,0.7,0.6,0.7c0.2-0.1,0.3-0.2,0.5-0.4c0.3-0.2,0.6-0.4,1-0.6c2-1.2,4-2.4,5.6-4.1c1.6-1.6,2.7-3.4,4.4-4.8c0,0,0,0,0,0c0,0,0,0,0.1,0C48.5,11.7,48.5,11.6,48.4,11.5"/><path class="st6" d="M18.7,16.2c-0.9-1.1-1.8-2.2-2.8-3.2c-1.2-1-2.3-2-3.7-2.8C11.8,10,9.5,8.3,9.6,9.2c0,0.1,0.1,0.2,0.2,0.3c0.6,0.5,1.1,1,1.7,1.7c1.2,1.4,2.5,2.8,3.5,4.3c0.6,0.8,1.3,1.3,1.9,2c0.1,0.2,0.3,0.4,0.5,0.5c0.4,0,0.5-0.5,0.7-0.8c0.1-0.1,0.4-0.5,0.6-0.8C18.7,16.5,18.8,16.3,18.7,16.2"/><path class="st6" d="M16.7,19.8C16.7,19.7,16.7,19.7,16.7,19.8c0-0.1-0.1-0.1-0.1-0.1c0,0,0,0,0,0c-0.7-0.7-1.5-1.2-2.3-1.7c-0.6-0.4-1.1-0.8-1.7-1c-1.2-0.5-2.5-0.9-3.7-1.3c-0.4-0.1-0.9-0.3-1.3-0.3c-0.8,0-1.3,0-2-0.1c-0.6,0-0.6,0.4-0.1,0.6c1.1,0.5,2.3,0.9,3.5,1.5c0.6,0.3,1.7,0.9,2.4,1.3c1.5,0.7,3.2,1.7,4.6,2.7c0.3,0,0.3-0.4,0.5-0.7c0-0.2,0.2-0.4,0.2-0.6C16.7,19.9,16.7,19.8,16.7,19.8"/><path class="st6" d="M15.6,23.1c-1.6-0.8-3.3-1.3-5-1.5c-1.4-0.1-2.9,0-4.3,0.1c-1.2,0-2.6,0.4-3.6,0.7c-0.1,0-0.2,0.1-0.2,0.3c0,0.4,0.6,0.2,0.6,0.2c0.6,0,0.9,0.1,1.4,0.2c2.4,0.5,4.6,1.4,7,2c0.9,0.2,1.5,0.4,2.5,0.5c0.3,0,0.6,0,0.9,0.1c-0.1,0,0.3,0.1,0.4,0.1c0.2,0,0.4,0.1,0.5,0c0.2-0.2,0-0.6,0-0.8c-0.1-0.6-0.1-0.9-0.2-1.4C15.7,23.4,15.7,23.2,15.6,23.1"/><path class="st6" d="M16.4,27.4c-0.2-0.1-0.4,0-0.5,0c-0.3,0.1-0.7,0.1-1,0.1c-1.3,0.2-2.9-0.2-4.2,0c-1.4,0.1-2.8,0.4-4.3,0.5c-0.3,0-1,0-1.6,0.2c-0.4,0.1-2.1,0.3-1.2,0.8c0.7,0.2,1.4,0.2,2.2,0.3c2.8,0.5,5.6,0.8,8.4,0.8c0.7,0,1.5,0.1,2.2,0c0.3,0,0.7,0,1.1-0.2c0.1,0,0.1-0.1,0.1-0.2c0.1,0,0.1-0.1,0.1-0.2C17.1,29,16.8,28,16.4,27.4"/><path class="st6" d="M20.8,32.8c-0.7-0.6-1.5-1.2-2.1-1.8c-0.1-0.2-0.3-0.4-0.5-0.4c-0.3,0.2-0.2,0.3-0.5,0.4c-0.2,0.2-0.7,0.4-1.2,0.6c-3.1,1-5.8,2.9-8.5,4.5c-0.7,0.4-1.4,0.6-2,1.1c-0.2,0.1-0.1,0.4,0.2,0.5c0.8,0,1.5-0.3,2.3-0.6c0.9-0.4,2-0.4,3-0.8c0.7-0.2,1.4-0.6,1.9-0.8c0.7-0.2,1.4-0.2,2-0.4c0.8-0.2,1.5-0.6,2.2-0.9c0.3-0.1,0.8-0.3,1.3-0.4c0.6-0.2,1-0.3,1.4-0.5c0.3-0.2,0.1-0.1,0.3-0.3c0,0,0,0,0-0.1C20.9,33,20.9,32.9,20.8,32.8"/><path class="st6" d="M45.2,23.8c-1.1-0.1-2.8-0.2-3.7-0.4c-0.6-0.1-1.2-0.4-1.8-0.5c-0.7-0.1-1.4-0.1-2,0c-0.5,0.1-0.7,0.2-1,0.1c-0.1,0-0.1,0-0.3-0.1c0,0,0,0,0,0c0,0,0,0,0,0c0,0,0,0,0,0c0,0-0.1,0-0.1,0c0,0,0,0,0,0c-0.1-0.1-0.4,0-0.3,0.2c0.2,0.8,0.4,1.6,0.4,2.3c0,0,0,0.2-0.1,0.2c-0.1,0.2-0.1,0.2-0.1,0.3c0,0.2,0.2,0.4,0.4,0.3c0.7-0.4,1.6-0.4,2.6-0.6c0.8-0.2,1.4-0.5,2-0.6c1.3-0.2,2.5-0.4,3.8-0.4c0.3,0,0.8,0,1-0.3C46,23.8,45.5,23.8,45.2,23.8"/></g><path class="st14" d="M34.5,16.9c-0.3-0.4-0.6-0.9-0.9-1.2c-0.4-0.4-0.9-0.8-1.4-1.1c-1.5-1.1-3.3-1.9-5.1-2c-1.4,0.1-2.8,0.2-4,0.4c-2.8,0.9-5.4,2.4-6.8,5.1c-1.5,2-1.6,4.7-1.3,7.1c0.2,0.6,0.4,1.2,0.6,1.7c0.1,0.4,0.2,0.8,0.3,1.2c0.1,0.2,0.1,0.6,0.3,0.7c0,0,0.1,0,0.1,0c0.3,0.9,0.8,1.8,1.5,2.5c0.5,0.5,1.1,0.9,1.7,1.2c0.1,0.1,0.2,0.2,0.4,0.3c1.7,1.3,3.9,2.2,6.1,1.9c0.8-0.2,1-0.1,1.8-0.2c0.8-0.2,1.6-0.5,2.4-0.9c1.6-0.8,3.1-1.8,4.3-3.1c0.8-1.1,1.4-2.3,1.9-3.5c0.3-1,0.6-2.1,0.7-3.2c0.1-0.8,0.1-1.7-0.1-2.5c-0.2-0.7-0.5-1.3-0.8-2C35.4,18.3,35,17.7,34.5,16.9"/><path class="st6" d="M31.6,16.6c-0.7-0.8-1.7-1.2-2.7-1.6c-0.8-0.3-1.7-0.3-2.6-0.2c-0.6,0-1.2,0-1.8,0.2c-0.6,0.2-1.2,0.3-1.8,0.4c-0.9,0.4-1.7,0.9-2.5,1.5c-0.6,0.5-1,1.2-1.4,1.9c-0.6,0.8-1.1,1.7-1.6,2.6c-0.5,1.4-0.5,2.8-0.3,4.3c0.2,1.1,0.8,2.2,1.2,3.3c0.1,0.2,0.4,0.1,0.3-0.1c-0.4-0.9-0.8-2-1.1-2.7c-0.2-0.7-0.2-1.2-0.2-1.9c-0.2-2,0.7-3.5,1.9-5.1c0.5-0.7,0.9-1.4,1.4-1.9c0.7-0.6,1.4-0.9,2.2-1.4c0.5-0.2,1.3-0.3,2-0.5c0.7-0.1,1.6-0.1,2.2-0.2c1-0.1,1.7,0.1,2.6,0.5c0.8,0.3,1.4,0.7,1.9,1.2c1.1,1.1,2,2.2,2.5,3.7c0.3,0.9,0.7,1.7,0.8,2.6c0.1,1,0,1.9-0.3,2.9c-0.3,1.1-1.1,1.7-1.9,2.6c-0.5,0.5-1.1,1-1.7,1.5c-0.3,0.2-1.1,0.7-1.6,0.9c-1,0.5-2.1,0.7-3.2,0.6c-0.5,0-1.2,0-1.5-0.1c-0.2-0.1-0.3-0.1-0.4-0.1c-0.8-0.5-1.6-1-2.1-1.7c-0.6-0.7-0.9-1.7-1.3-2.7c-0.5-1.2-0.9-2.6-0.7-3.9c0.1-0.3,0.3-1.2,0.5-1.5c0.3-0.6,0.7-0.9,1.1-1.3c0.7-0.7,1.6-1.1,2.6-1.5c0.7-0.3,1.5-0.7,2-0.7c0.4,0,0.7,0.1,1.1,0.1c0.4,0,0.6,0,0.9,0.2c1.3,0.6,2.6,1.8,3.1,3.2c0.4,0.9,0.3,2-0.1,2.9c-0.4,1.3-1.3,2.4-2.6,2.9c-0.7,0.3-1.4,0.5-2,0.5c-1.1-0.1-2-0.4-2.6-1.4c-0.2-0.4-0.7-1.2-0.8-1.7c0-0.3,0-0.6,0.1-1c0.3-1.4,2-2.6,3.1-2.5c0.5,0.2,1,0.4,1.2,0.9c0.3,0.7,0.5,1.4,0,1.7c-0.2,0.2-0.4,0.2-0.7,0.4c-0.1,0-0.3,0.1-0.2,0.2c0,0.2,0.2,0.2,0.4,0.1c0.2-0.1,0.4-0.2,0.6-0.3c0.9-0.6,0.4-2-0.1-2.7c-0.4-0.3-0.7-0.5-1.1-0.7c-0.5-0.1-1,0-1.5,0.2c-1.3,0.5-2.2,1.9-2.3,3.4c0,0.5,0.3,1,0.5,1.5c0.3,0.6,0.7,1.1,1.2,1.5c0.7,0.4,1.5,0.7,2.3,0.6c0.9,0,2.1-0.5,2.9-1.1c1.3-1,2.1-2.8,2.1-4.5c-0.1-1-0.6-2-1.2-2.8c-0.7-0.8-1.6-1.5-2.6-1.9c-0.3-0.1-0.6-0.1-0.9-0.1c-0.4,0-0.7-0.1-1.1-0.1c-1,0.2-2,0.7-3,1.1c-1.5,0.7-2.9,2.1-3.3,3.7c-0.2,0.6-0.2,1.1-0.1,1.7c0,0.6,0.2,1.2,0.4,1.8c0.2,0.6,0.5,1.2,0.7,1.7c0.3,0.7,0.6,1.5,1.1,2.1c0.5,0.6,1.1,1.1,1.8,1.5c0.3,0.2,0.7,0.4,1.1,0.5c1.2,0,2.3,0.2,3.4-0.2c0.8-0.1,1.5-0.5,2.1-0.9c0.6-0.3,1.1-0.7,1.6-1.2c1-0.9,2-1.8,2.7-3c0.4-0.7,0.5-1.5,0.6-2.2c0.2-1.5-0.3-2.9-0.9-4.3C33.6,18.9,32.7,17.6,31.6,16.6"/></g><line class="st4" x1="1.6" y1="57.1" x2="1.6" y2="57.1"/><g><defs><path id="_2" d="M62.4,49.1c0.3-1,0.4-2,0.7-3c0.1-0.2,0.2-0.7,0.2-0.9c0.2-0.7,0.1-1.4,0.2-2c0-3.8-0.1-7.5-0.7-11.2c-0.1-1.7-0.6-3.3-1.2-4.9c0-0.1,0-0.1-0.1-0.2c0,0.2,0.1,0.3,0,0c0-0.1-0.1-0.2-0.1-0.2c0,0.1,0,0.1,0.1,0.2c0,0,0,0,0,0c-0.4-1.7-1-3.4-1.9-5c-2-3-3.7-6.3-6.6-8.6c-2.5-1.7-2.9-1.7-5.5-2.9c-0.3-0.2-1.9-1-3.5-1.6c-3-0.7-6-1.6-9.2-1.5c-3.5,0.4-7,0.8-10.4,1.9c-2.7,0.9-5.2,2.3-7.7,3.6c-1.5,0.9-2.8,2.1-4.2,3.3C11,17.4,9.4,18.8,8,20.4c-1.9,2.1-2.6,5-2.9,7.7c-0.1,1.3,0.2,2.4,0.5,3.6C7.2,38.6,1.4,45.9,1,47.5c-0.6,2.2-0.9,4.5-0.2,7.4c0.3,1,0.6,1.9,1.1,2.8c0.6,1,1.3,1.8,2,2.7c0.7,1,1.7,1.8,2.6,2.6c0,0,0,0,0,0C7.2,63.9,8.1,64.4,9,65c1,0.7,2.1,1.1,3.2,1.5c2.4,0.9,3.9,1.1,5.1,1.4c1.1,0.2,2.2,0.1,3.3,0c1.4,0,2.8-0.4,4.2-0.6c2.2-0.3,2-0.2,4.5-0.7c0.5-0.1,1-0.2,1.5-0.3c1.3,0.2,2.6,0.5,3.9,0.6c0.8,0.2,1.6,0.4,2.5,0.3c3.2-0.1,6.6-0.4,9.7-1.7c1.9-0.7,3.5-1.8,5.2-2.9c2.2-1.5,4.4-3.1,6-5.3c1.1-1.4,2-3,2.8-4.6C61.3,51.6,62,50.4,62.4,49.1"/></defs><clipPath id="_3"><use xlink:href="#_2" style="overflow:visible;"/></clipPath><g style="clip-path:url(#_3);"><path class="st4" d="M61.5,54.8c-1.4,0.3-2,0.4-3.2,0.3c-0.7,0-1.9,0-2.9-0.1c-2.7-0.6-5.9-1.8-8.7-3c-2.3-0.8-4.4-1.9-6.7-2.6c-2.5-0.8-5.2-1.1-7.8-1.7c-2.2-0.5-4.4-0.7-6.6-0.7c-0.3,0-0.6-0.1-0.9-0.1c-0.2,0-0.4,0-0.6-0.1c-0.2,0-0.4,0-0.5,0c-0.8-0.1-1.7-0.2-2.5-0.1c-0.6,0-1.2,0.1-1.8,0.2c-1.1,0.1-2.1,0.2-3.2,0.4c-0.5,0.1-0.9,0.2-1.4,0.3c-0.8,0.1-1.7,0.3-2.5,0.5c-2.7,0.7-5.8,2.8-6.7,3.3c-0.2,0.1-0.3,0.2-0.5,0.3c-0.9,0.7-2,1.4-2.9,2.1c-0.4,0.2-0.7,0.5-1,0.7c-0.4,0.3-0.6,0.9-0.6,1.4c0.2,0.7,0.3,1.1,0.6,1.8c0.2,0.6,0.5,1,0.7,1.3c0.5,1.1,1.1,1.8,1.8,2.8c0.4,0.8,1.7,2.2,2.7,2.9c1.7,1.1,3.5,1.9,5.6,2.7c1.6,0.6,3.2,0.8,4.8,1c0.8,0.1,1.6,0.3,2.3,0.3c0.7,0,1.1-0.1,1.6-0.1c1,0,1.9,0.1,2.8,0.2c1.2,0,2.3,0,3.5-0.1c1.1,0,2.6-0.5,4-0.7c1.6-0.2,3.3-0.5,4.6-0.5c2.1,0.3,4.1,0.7,6.2,0.8c2.3,0.1,4.6-0.2,6.8-0.9c2.1-0.5,4.3-1.3,6.1-2.4c1.8-1.3,3.4-3,4.7-4.8c0.9-1.3,1.7-2.6,2.4-4C62.7,55.2,62.7,54.4,61.5,54.8"/><g><path class="st5" d="M62.1,56.2c-0.3-0.1-0.5,0.1-0.8,0.2c-0.8,0.4-1.8,1.1-2.4,1.2c-2,0.8-4.2,0.7-6.3,0.2c-1.5-0.4-2.9-1-4.3-1.6c-2.2-0.7-3.9-1.6-6-2.4c-4.3-1.1-8.8-1.7-13.3-1.8c-4.4,0.2-8.7,0.7-12.9,2c-2.5,0.7-4.9,1.8-7.3,2.7c-1.9,0.8-3.7,1.9-5.4,3.1c-0.2,0.2-0.5,0.3-0.7,0.5c0,0-0.1,0.1-0.1,0.1c0,0.2,0.2,0.3,0.4,0.2c1.5-1.1,2.8-2,4.5-2.8c1.5-0.8,3.1-1.3,4.7-1.9c4.2-1.7,9.4-2.8,13.9-3.1c2.9-0.3,6.1,0,9.2,0.3c2.4,0.4,4.8,0.7,6.9,1.3c0.8,0.3,1.2,0.5,2,0.9c0.9,0.3,1.4,0.5,2.2,0.9c1.6,0.6,3.1,1.2,4.7,1.8c3,1,6.1,1.1,8.7-0.1c1-0.4,1.6-1,2.5-1.2C62.4,56.7,62.4,56.3,62.1,56.2"/><path class="st5" d="M61.9,57.4c-0.4-0.1-0.7,0.3-1,0.4c-0.3,0.2-0.9,0.4-0.9,0.4c-2.7,0.8-5.2,1.2-8,0.8C50,58.8,48,58.3,46,57.6c-1.6-0.6-3.2-0.9-4.8-1.5c-3.4-1-7-1.5-10.6-1.4c-3.2,0.2-6.3,0.6-9.4,1.4c-1.9,0.6-3.8,1.4-5.6,2c-1.2,0.5-2.4,1.2-3.6,1.8c-1,0.5-2,0.8-2.9,1.4C7.8,62.2,6.6,63,5.6,64c-0.1,0.2,0.2,0.4,0.4,0.3c1.2-1.1,2.7-2.1,3.9-2.8c1.3-0.6,2.6-1.1,3.8-1.8c2.3-1.2,4.8-2,7.2-2.8c3.9-1.1,8-1.6,11.8-1.5c4.4,0,8,1.3,12.3,2.5c1.6,0.7,3.3,1.1,5,1.5c2.9,0.7,5.4,0.6,8.2,0c0.8-0.1,1.3-0.4,2-0.6c0.4-0.1,1.1-0.5,1.7-0.8c0.1,0,0.1-0.1,0.2-0.2C62.2,57.7,62.1,57.5,61.9,57.4"/><path class="st5" d="M60.7,59.5c-0.3-0.1-0.6,0.2-0.9,0.3c-0.6,0.2-1.2,0.5-1.5,0.6c-2,0.8-4.1,0.8-6.6,0.6c-2.8-0.2-5.3-0.8-8-1.4c-2-0.4-3.9-1.1-5.9-1.4c-2.8-0.7-5.8-0.7-8.7-0.5c-2.7,0-6.1,1.2-8.8,2.2c-1.3,0.6-2.5,1.1-3.8,1.6c-2.2,1.2-4.3,2.8-6.1,4.6c-0.1,0.1-0.3,0.2-0.3,0.4c0,0.2,0.2,0.3,0.4,0.2c1.8-1.9,3.9-3.5,6.1-4.7c1.5-0.7,2.9-1.3,4.4-1.9c1.8-0.6,3.3-1.3,5.2-1.6c2.2-0.5,3.9-0.5,6.1-0.4c3.4,0,6.5,0.8,9.6,1.6c3,0.7,6,1.4,8.8,1.8c2.5,0.2,5.4,0.4,7.5-0.5c0.5-0.1,1.2-0.4,1.9-0.7c0.2-0.2,0.6-0.2,0.8-0.5C61,59.7,60.9,59.5,60.7,59.5"/><path class="st5" d="M59.5,61.7c-0.2,0-0.3,0.1-0.5,0.2c-0.5,0.2-1,0.4-1.5,0.5c-1,0.3-1.9,0.3-2.6,0.4c-1.4,0.1-2.2,0.2-3.7,0.2c-1.2-0.1-2.4,0.1-3.6-0.1c-2.5-0.3-4.7-0.8-7-1.4c-3.8-0.7-7.7-1.7-11.5-1.2c-3.1,0.5-6,1.6-8.7,3c-1.9,1-3.9,1.9-5.4,3.4c-0.4,0.4-0.9,0.7-1.1,1.1c0,0.2,0.2,0.3,0.4,0.2c1.8-1.8,3.7-3,6.1-4.1c3.3-1.7,6.9-3.1,10.5-3.2c4.4,0,8.2,1.1,12.2,2c2.1,0.4,4.2,1,6.3,0.9c2.3,0,4.2,0,6.1-0.2c0.7,0,2.1-0.2,3-0.6c0.1,0,0.5-0.1,0.6-0.2c0.3-0.1,0.6-0.2,0.7-0.5C59.9,61.9,59.8,61.7,59.5,61.7"/></g><path class="st5" d="M63.4,51.8C62.7,52,62.5,52,61.9,52c-2.7,0.6-5.3,0.4-8.2,0.4c-1.9-0.2-3.9-0.5-5.4-1c-1.1-0.4-2.3-0.9-3.6-1.4c-1.9-0.7-3.9-1.4-5.8-2c-1-0.3-1.6-0.7-2.6-1c-3-0.7-6.1-1.4-9.2-1.8c-1.6-0.2-3.1-0.5-4.7-0.6c-1.2-0.1-2.9,0.1-3.9,0.1c-4.1-0.1-8.2,0.9-11.7,2.9c-1.7,1-3.2,1.7-4.7,2.9c-0.8,0.7-1.4,1.5-2,2.3c-0.1,0-0.1,0.1-0.1,0.1c-0.1,0-0.1,0.1-0.2,0.1c-0.1,0.3-0.1,0.6-0.2,0.8c0,0.6,0.2,1.2,0.4,1.8c0,0.2,0.2,1,0.5,1.4c0.2,0.5,0.4,1.1,0.9,1.4c0.2,0.1,0.5,0.1,0.6-0.1c0,0,0,0,0,0c0,0,0,0,0.1,0c0.4-0.6,1.2-1.4,1.7-1.9c1-0.8,2.1-1.4,3.3-2.1c3-1.8,5.9-2.6,9.3-3.5c2.5-0.7,5.9-1.4,8.2-1.6c3.1,0,6.2-0.1,9.2,0.6c2.7,0.5,5.9,1.4,8.8,2.3c1,0.3,2,0.7,3,1.1c1.2,0.4,2.3,0.7,3.5,1c1.7,0.7,3.6,1,5.4,1c0.6,0,1.2,0.2,1.8,0.3c0.6,0,1.2,0,1.8,0c1.4,0,2.8-0.1,4-0.7c0.5-0.3,1.1-0.3,1.5-0.8c0.1-0.2,0.1-0.5,0.2-0.7c0.2-0.4,0.3-0.8,0.4-1.3C64.2,51.4,63.8,51.8,63.4,51.8"/><g><path class="st6" d="M56.5,64.4c-0.5,0-0.9,0.3-1.4,0.3c-1,0.3-2.2,0.7-3.1,0.7c-2.1,0.1-3.7,0.3-5.9-0.1c-1.6-0.3-4-1.4-6-1.9c-3-0.8-5.8-1.3-9-1.3c-1.5,0.1-3,0.4-4.5,0.7c-0.1,0-0.2,0.1-0.3,0.1c-0.1,0-0.2,0-0.3,0.1c-1.9,0.5-4,1.2-5.6,2.2c-0.8,0.4-1.9,1.1-2.8,1.9c-0.7,0.5-2.1,1.6-1.2,1.9c0.7,0,0.8,0.1,1.7,0.2c1.3,0,2.5,0.2,3.8,0.2c0.7,0.1,1.5-0.1,2-0.1c0.6,0,1.3,0.1,1.9,0.1c0.8,0,1.6-0.1,2.3-0.1c2,0,4.1,0.1,6.1,0.1c3,0.2,6.5,0.7,9.2,0.6c1,0,2,0.1,3,0c1-0.2,2-0.4,3-0.7c2-0.5,3.6-0.8,5.2-2.1C55.2,66.8,57.5,64.9,56.5,64.4"/><g><path class="st14" d="M20.6,67c-0.1-0.1-0.2-0.1-0.3,0c-0.5,0.2-1,0.4-1.4,0.7c-0.2,0.2,0.1,0.4,0.2,0.3c0.5-0.3,1-0.4,1.4-0.7C20.7,67.2,20.7,67.1,20.6,67"/><path class="st14" d="M28.2,63.9c-0.4,0.1-1.4,0.1-1.9,0.3c-0.8,0.3-1.6,0.7-2.4,1.1c-0.2,0.2,0.1,0.4,0.3,0.3c0.9-0.4,1.8-0.9,2.6-1.1c0.5-0.1,1.1-0.1,1.6-0.2C28.7,64.1,28.5,63.8,28.2,63.9"/><path class="st14" d="M26.5,66.4c-0.1,0-0.2,0-0.4,0.1c-0.7,0.3-1.4,0.5-2.1,0.8c-0.2,0.2,0.1,0.4,0.3,0.3c0.7-0.3,1.6-0.7,2.1-0.8C26.7,66.7,26.7,66.4,26.5,66.4"/><path class="st14" d="M31.1,65.4c-0.6,0.1-1.1,0.1-1.7,0.1c-0.2,0-0.4,0-0.5,0.1c-0.1,0.2,0,0.4,0.3,0.4c0.7-0.1,1.3-0.1,2-0.2c0.1,0,0.2,0,0.2-0.1C31.5,65.6,31.3,65.4,31.1,65.4"/><path class="st14" d="M34.9,63.8c-0.1-0.2-0.3-0.2-0.5-0.2c-0.8-0.1-1.7-0.1-2.5-0.1c-0.3,0.1-0.2,0.5,0.1,0.5c0.9,0,2-0.1,2.6,0.1C34.8,64.2,35,63.9,34.9,63.8"/><path class="st14" d="M31.5,67.6c-0.2-0.2-0.4-0.1-0.6-0.1c-0.6,0-1.2,0-1.7,0.2c-0.2,0.1-0.1,0.5,0.2,0.4c0.7-0.1,1.4-0.1,1.9-0.2C31.5,68,31.7,67.8,31.5,67.6"/><path class="st14" d="M37.3,67.7c-0.2-0.2-0.6-0.1-0.9-0.2c-0.6,0-1.2-0.2-1.8-0.1c-0.2,0.1-0.2,0.4,0.1,0.5c0.8,0.1,1.6,0.2,2.4,0.2C37.3,68.1,37.4,67.9,37.3,67.7"/><path class="st14" d="M36.2,65.9c-0.5,0-1-0.1-1.5-0.1c-0.4-0.1-0.5,0.5-0.1,0.5c0.7,0,1.4,0.1,2,0.1c0.1,0,0.3-0.1,0.3-0.2C36.9,65.9,36.4,65.9,36.2,65.9"/><path class="st14" d="M41.2,64.7c-0.5-0.1-1-0.2-1.5-0.4c-0.3,0-0.5-0.2-0.8-0.1c-0.2,0.1-0.2,0.4,0,0.5c0.7,0.2,1.5,0.4,2.2,0.5c0.1,0,0.3,0,0.3-0.1C41.5,64.9,41.3,64.7,41.2,64.7"/><path class="st14" d="M42.5,66.8c-0.5-0.1-1-0.2-1.5-0.2c-0.2,0-0.5-0.2-0.8,0C40,66.7,40.1,67,40.4,67c0.7,0.1,1.4,0.2,2.1,0.3c0.1,0,0.1,0,0.2-0.1C42.8,67.1,42.7,66.8,42.5,66.8"/><path class="st14" d="M46.1,66.5c0-0.1-0.1-0.2-0.2-0.2c-0.6-0.1-1.2-0.2-1.8-0.3c-0.4,0-0.4,0.5,0,0.5c0.6,0.1,1.2,0.2,1.8,0.2C46,66.8,46.2,66.6,46.1,66.5"/><path class="st14" d="M48.2,68.1c-0.2-0.4-0.7-0.1-1.1-0.2c-0.6,0-1.2,0-1.7,0.1c-0.1,0-0.2,0.1-0.2,0.2c0,0.2,0.1,0.3,0.3,0.3c0.6,0,1.6-0.1,2.4-0.1C48,68.4,48.2,68.3,48.2,68.1"/><path class="st14" d="M51.8,66.6c-0.1-0.1-0.2-0.1-0.2-0.1c-0.7,0-1.3,0-2,0.1c-0.4,0-0.4,0.5,0,0.5c0.4,0,0.8,0,1.3-0.1c-0.1,0,0.7,0,0.9,0C51.8,67,51.9,66.7,51.8,66.6"/><path class="st14" d="M55.2,65.4c-0.7,0.4-1.3,0.7-2,1.1c-0.2,0.1-0.2,0.3,0,0.4c0.3,0,0.6-0.2,0.8-0.3c0.5-0.3,1-0.5,1.4-0.8C55.7,65.5,55.4,65.2,55.2,65.4"/></g></g></g></g><g><path class="st17" d="M62.9,36.8c-0.3-1.1-1-1.9-1.7-2.6c-1.5-1.4-2.7-2.3-4.4-3.4c-1.7-1.2-4.2-1.6-5.1-2.7c0-0.3-0.2-1.3-0.3-1.9c-0.1-0.9-0.2-1.7-0.7-2.4c-0.4-0.7-1.2-0.9-1.9-1.2c-0.9-0.3-1.9-0.6-2.9-0.5c-1.1,0-2,0.2-2.1-0.2c-0.1-0.3-0.2-1.6-0.7-2.2c-1.1-1.7-3.5-3.4-5.3-1.4c-0.2,0.1-0.4,0.4-0.7,0.8c-0.9-0.3-2.1-0.6-3.2-0.6c-1.3,0.5-2.9,1.5-3.5,2.7c-0.3,0.5-0.8,1.5-1,1.9c-0.3-0.3-0.8-0.4-1.2-0.5c-0.5-0.2-1-0.4-1.5-0.4c-2.2-0.1-4.4,1.2-5.9,3.2c-0.3,0.3-0.7,1.3-0.8,1.5c0,0,0,0,0,0c0,0-0.1,0-0.2,0c-0.1,0-0.5-0.1-0.6-0.1c-2.9-0.9-6,1.2-8.3,3.3c-2.2,2.6-2.7,6.7,0,8.9c1.1,1,2.5,1.5,3.8,2.1c2.7,1.1,5.7,1.1,8.5,1.2c2.2,0.1,5,0.3,7.5,0.1c2.3-0.3,4.7-0.4,6.7-0.2c1.9,0.2,3.4,0.1,5.4,0.3c1.9,0,3.2,0,5.1,0.3c2.1,0.3,4.5,1,6.3,1.1c2.9,0.2,7.5-0.5,8.7-4.3C63.4,38.7,63.1,37.7,62.9,36.8"/><g><path class="st0" d="M13.6,32.8c-0.2,0-1.3,0.1-1.6,0.7c-0.3,0.4-0.4,0.9-0.5,1.3c0,0.2-0.1,0.5,0,0.6c0.1,0.2,0.4,0.1,0.4-0.1c0-0.6,0.2-1.4,0.5-1.7c0.2-0.3,0.7-0.3,0.9-0.3c0.1,0,0.3,0.1,0.4,0C14.1,33.1,13.9,32.7,13.6,32.8"/><path class="st0" d="M23,28.2c-0.5-0.1-1.2-0.2-1.7,0.2c-0.5,0.5-0.8,1.1-1.1,1.7c0,0.1,0,0.2,0.1,0.2c0.1,0.1,0.3,0.1,0.4-0.1c0.4-0.7,0.9-1.7,1.5-1.6c0.3,0,0.7,0.1,1,0C23.1,28.5,23.1,28.3,23,28.2"/><path class="st0" d="M28.1,24.7c-0.3-0.1-0.5-0.2-0.8-0.2c-0.7,0.1-1.3,0.4-1.8,0.9c-0.1,0.1-0.1,0.2-0.1,0.2c0,0.1,0.2,0.2,0.4,0.1c0.5-0.4,1.2-0.8,1.7-0.7c0.1,0,0.2,0.1,0.3,0.1c0.2,0,0.3,0.2,0.5,0.1C28.6,25,28.4,24.7,28.1,24.7"/><path class="st0" d="M20.2,38.2c-0.1-0.1-0.3,0-0.4-0.1c-1.2-0.4-1.2-1.5-0.2-2.6c0.1-0.1,0.3-0.2,0.3-0.4c0-0.2-0.2-0.3-0.4-0.2c-0.7,0.6-1.4,1.5-1.1,2.5c0.2,0.7,1,1.2,1.7,1.1C20.3,38.6,20.3,38.3,20.2,38.2"/><path class="st0" d="M28.4,31.3c-0.5,0-1,0.2-1.4,0.4c-0.3,0.1-0.6,0.3-0.8,0.5c-0.6,1-0.4,2.1,0.6,2.7c0.1,0.1,0.3,0.2,0.5,0.2c0.2,0,0.3-0.2,0.2-0.4c-0.1-0.1-0.3-0.1-0.4-0.2c0,0,0,0,0,0c0,0,0,0-0.1,0c-0.8-0.4-0.7-1.5-0.4-2c0.3-0.3,1.3-0.6,1.6-0.7c0.1,0,0.3,0,0.4-0.1C28.7,31.6,28.6,31.3,28.4,31.3"/><path class="st0" d="M36.1,25.5c-0.8-0.8-2.3-0.8-3,0.1c-0.2,0.3-0.3,0.7-0.5,1c-0.1,0.3-0.2,0.5-0.2,0.8c0.1,0.2,0.4,0.2,0.4,0c0.4-1.2,0.8-2,1.7-2c0.5,0,0.5,0.1,0.9,0.3c0.1,0.1,0.2,0.2,0.4,0.1C36.1,25.9,36.2,25.7,36.1,25.5"/><path class="st0" d="M42.5,22.4c-0.3-0.5-0.9-1-1.5-1c-0.5,0-1,0.2-1.5,0.4c-0.1,0.1-0.3,0.1-0.4,0.3c-0.1,0.2,0.2,0.4,0.3,0.3C40,22,41,21.8,41.3,22c0.4,0.2,0.5,0.4,0.8,0.7C42.3,22.8,42.5,22.6,42.5,22.4"/><path class="st0" d="M36.3,37.8c-0.7-0.1-1.6-0.4-1.8-0.8c-0.2-0.3,0-1.1,0.3-1.4c0.5-0.5,1.2-0.7,2-0.9c0.2-0.1,0.1-0.5-0.2-0.4c-0.9,0.2-2,0.6-2.4,1.5c-0.7,1.6,0.5,2.4,1.9,2.6c0.2,0,0.4,0.1,0.6,0C36.8,38.1,36.6,37.8,36.3,37.8"/><path class="st0" d="M25.7,39.9c-0.1-0.1-0.4-0.1-0.4-0.1c-0.1,0-0.3-0.1-0.3-0.1c0,0,0,0,0,0c0,0,0,0,0,0c0,0,0,0,0-0.1c-0.1-0.3,0-0.6,0.1-0.9c0,0,0.1-0.1,0.1-0.2c0-0.1,0.1-0.1,0.1-0.2c0.1-0.2,0.3-0.3,0.2-0.5c0-0.2-0.4-0.3-0.5-0.1c-0.5,0.6-1.1,2.1,0,2.5c0.3,0.1,0.7,0.3,0.9,0C25.9,40.1,25.8,40,25.7,39.9"/><path class="st0" d="M47.6,26.3c-0.5-0.1-1,0-1.5,0.1c-0.5,0.2-1.1,0.4-1.4,0.8c-0.5,0.6-0.4,1.7,0.3,2.1c0.2,0.1,0.6,0.4,0.7,0c0-0.1,0-0.3-0.1-0.3c0,0-0.2-0.1-0.3-0.1c-0.8-0.4-0.6-1.6,0.4-2c0.6-0.2,1.2-0.5,1.9-0.3C47.8,26.7,47.8,26.3,47.6,26.3"/><path class="st0" d="M45.7,37.5c0,0-0.3-0.1-0.4-0.1c-0.9-0.2-1.2-1-0.9-1.5c0.4-0.6,0.8-0.9,1.4-1.5c0.1-0.2-0.2-0.5-0.4-0.3c-0.6,0.6-1.4,1.2-1.6,2.1c-0.2,1,0.8,1.9,1.8,1.8C45.8,37.9,45.8,37.6,45.7,37.5"/><path class="st0" d="M53,38.5c-0.3-0.2-0.4-0.1-0.7-0.2c-1-0.2-1.4-0.7-1.4-1.3c0,0,0,0,0,0c0,0,0-0.1,0-0.1c-0.1,0.1,0.5-0.8,0.5-0.7c0.1-0.2,0.6-0.5,0.6-0.5c0.1,0,0.2-0.1,0.3-0.2c0.1-0.2-0.2-0.5-0.4-0.3c-0.7,0.4-1.3,1-1.5,1.8c0,0.6,0.2,1.2,0.7,1.5c0.5,0.3,1.2,0.6,1.8,0.6C53.1,38.9,53.2,38.7,53,38.5"/><path class="st0" d="M59.5,38.9c-1.5,0-2.3-0.7-1.7-1.4c0.5-0.5,0.5-0.5,1.1-0.7c0.4-0.1,0.3-0.7-0.1-0.6c-2.3,0.6-2.5,2.9,0,3.3c0.3,0,0.6,0.1,0.9,0C59.9,39.3,59.8,38.9,59.5,38.9"/></g></g><g><g><path class="st1" d="M61.5,26.9C61.5,26.9,61.5,26.9,61.5,26.9C61.5,26.9,61.5,26.9,61.5,26.9C61.5,26.9,61.5,26.9,61.5,26.9"/><path class="st17" d="M56.6,20.6c-0.4-0.1-1.1,0.2-1.4,0.1c-0.8-0.1-1.4-0.1-1.7-0.5c-0.1-0.2-0.2-0.6-0.4-0.9c-0.2-0.2-0.6,0.1-0.8,0.2c-0.5,0.2-0.9,0.1-1.4-0.3c-0.2-0.1-0.3-0.3-0.4-0.4c-0.1-0.4-0.1-1,0-1.3c0-0.1,0.1-0.3,0.1-0.4c-0.1-0.1-0.3-0.1-0.4,0c-0.1,0.3-0.2,0.6-0.1,1c0,0.4,0,0.8,0.2,1.1c0.3,0.4,0.8,0.6,1.2,0.7c0.5,0.1,0.9,0,1.3-0.2c0.1,0.4,0.3,0.9,0.7,1.1c0.8,0.3,1.7,0.4,2.5,0.2C56.3,21.1,57,21.1,56.6,20.6"/><path class="st17" d="M61,28c-0.9-0.2-1.8-0.2-1.8-1c0,0,0,0,0,0c0,0,0,0,0-0.1c0-0.2,0.2-0.6,0-0.8c-0.2-0.1-0.4,0-0.5-0.1c-0.2,0-0.5-0.1-0.6-0.4c-0.2-0.4-0.2-0.8-0.2-1.3c-0.1-0.2-0.4-0.2-0.4,0.1c-0.1,0.6,0,1.2,0.3,1.7c0.2,0.3,0.6,0.4,1,0.4c0,0,0,0,0,0c-0.2,0.6,0.1,1.3,0.7,1.6c0.4,0.2,0.9,0.3,1.4,0.3c0.1,0,0.2,0,0.2-0.1C61.1,28.2,61.1,28.1,61,28"/><path class="st17" d="M45.7,45.3c-0.1,0-0.2,0-0.3,0.1c-0.4,0.3-0.5,0.4-0.9,0.6c-0.6,0.3-1.9-0.2-2.4-0.9c-0.3-0.5-0.8,0.3-1,0.4c-0.5,0.3-1.3,0.5-1.8,0.5c-0.4-0.1-0.6-0.4-0.9-0.6c-0.2-0.2-0.4-0.4-0.5-0.7c-0.1-0.2-0.4-0.1-0.3,0.2c0.1,0.4,0.4,0.6,0.7,0.9c0.2,0.2,0.5,0.5,0.8,0.6c0.3,0.1,0.7,0,1.1,0c0.6-0.2,1.1-0.3,1.6-0.7c0,0,0.1-0.1,0.2-0.1c0.5,0.7,1.5,1.2,2.4,1.1c0.5-0.1,1-0.4,1.4-0.8c0,0,0,0,0,0l0,0c0.1,0,0.1-0.1,0.1-0.1C45.8,45.5,45.8,45.3,45.7,45.3"/><path class="st17" d="M54.5,49.2c-0.7,0.2-1.5,0.4-1.9,0.3c-0.5-0.2-1.1-0.7-1.2-1.3c-0.1-0.3-0.4-0.1-0.5,0.1c-0.2,0.2-0.4,0.3-0.5,0.4c-0.5,0.3-1.7,0.4-2,0.2c-0.5-0.3-0.9-0.6-1.2-1c-0.2-0.1-0.4,0.2-0.3,0.3c0.5,0.5,1.2,1.1,1.9,1.2c0.7,0,1.3-0.1,1.9-0.4c0.1-0.1,0.3-0.2,0.4-0.3c0.1,0.1,0.1,0.3,0.2,0.4c0.4,0.5,0.9,0.9,1.5,0.9c0.5,0,1-0.1,1.5-0.3c0.1-0.1,0.3,0,0.4-0.2C54.8,49.4,54.7,49.1,54.5,49.2"/><path class="st17" d="M55.1,45.9c-0.7,0.4-1.5,0.1-2.1-0.6c0,0-0.1-0.3-0.3-0.2c-0.1,0-0.4,0.3-0.5,0.4c-0.1,0.1-0.3,0.2-0.4,0.2c0,0,0,0-0.1,0c0,0-0.1,0-0.1,0c-0.5-0.1-0.9-0.4-1.2-0.8c0,0-0.1-0.3-0.2-0.3c-0.2-0.1-0.3,0.1-0.3,0.3c0.3,0.6,1,1.1,1.7,1.3c0.4,0,0.8-0.2,1.1-0.5c0.5,0.6,1.4,1.1,2.2,0.9c0.2-0.1,0.6-0.1,0.7-0.4C55.6,45.7,55.3,45.7,55.1,45.9"/><path class="st17" d="M61.2,48.6c-0.1-0.1-0.3,0-0.5,0c-0.2,0-0.3,0-0.3,0c0,0,0,0,0,0c0,0-0.1-0.1-0.1-0.1c-0.2-0.2-0.4-0.1-0.6,0c-0.1,0.1-0.5,0.2-0.6,0.3c-0.3,0.2-0.9-0.5-1-1.1c0-0.4-0.6-0.4-0.5,0c0.2,0.7,0.6,1.6,1.5,1.6c0.3,0,0.7-0.2,1-0.4c0,0,0,0,0,0c0,0,0.1,0.1,0.1,0.1c0.3,0.1,0.6,0,0.9,0C61.3,49,61.4,48.7,61.2,48.6"/><path class="st17" d="M44.3,11.9c-0.2-0.1-0.3,0.2-0.5,0.4C43.6,12.6,43.2,13,43,13c-0.4,0-0.8-0.2-1.1-0.4c-0.1-0.1-0.2-0.2-0.3-0.2c-0.2,0-0.2,0.3-0.2,0.3c-0.1,0.2-0.4,0.5-0.6,0.6c-0.3,0.1-0.9,0-1.2-0.4c-0.1,0-0.1-0.3-0.3-0.3c-0.2-0.1-0.3,0.1-0.2,0.3c0.3,0.6,1.1,1,1.8,0.8c0.4-0.1,0.7-0.4,0.9-0.8c0.4,0.3,1,0.5,1.5,0.5c0.5-0.1,0.7-0.6,1-0.9C44.3,12.2,44.6,12,44.3,11.9"/></g><g><path class="st17" d="M11,41.8c-0.8,0.5-3.1,2-3.2,0.2c0-0.1-0.2-0.2-0.2,0c-0.4,1.3-1.6,2.3-3,2c-0.1,0-0.1,0.1,0,0.1c0.9,0.2,1.7-0.1,2.4-0.7c0.2-0.2,0.3-0.3,0.4-0.5c0.1-0.1,0.1-0.2,0.2-0.3c0,0,0,0,0,0c0,0.1,0.1,0.2,0.2,0.3c0.8,0.8,2.9-0.1,3.5-0.8C11.3,41.9,11.1,41.7,11,41.8z"/><path class="st17" d="M5.1,46.3C4.9,47,4,46.9,3.6,46.5c-0.1-0.1-0.2,0-0.2,0.1c0,0.6-0.1,2-1,1.5c-0.1,0-0.2,0.1-0.1,0.1c0.9,0.6,1.3-0.6,1.3-1.4c0.6,0.4,1.5,0.3,1.8-0.4C5.5,46.3,5.2,46.1,5.1,46.3z"/><path class="st17" d="M17,43.3c-0.7,0.4-1.7,0.8-2.2,0c-0.1-0.1-0.2-0.1-0.2,0c-0.3,0.6-1.2,1.2-1.8,0.4c-0.1-0.1-0.2,0-0.2,0.1c0.3,0.4,0.5,0.5,0.9,0.5c0.2,0,1.2-0.5,1.2-0.7c0.5,0.9,1.8,0.3,2.5-0.1C17.4,43.4,17.2,43.2,17,43.3z"/></g></g></g></g></svg>