<?xml version="1.0" encoding="utf-8"?>
<svg version="1.1" xmlns="http://www.w3.org/2000/svg" xmlns:xlink="http://www.w3.org/1999/xlink" x="0px" y="0px" viewBox="0 0 76.9 68.9" style="enable-background:new 0 0 76.9 68.9;" xml:space="preserve"><style type="text/css">.st0{fill:#FFFFFF;}.st1{fill:#8CA2CF;}.st2{clip-path:url(#SVGID_00000072244668542372713280000010373074154829674120_);}.st3{fill:#627EB5;}.st4{fill:#8CA05C;}.st5{fill:#677724;}.st6{fill:#E0A955;}.st7{fill:#BBD7FF;}.st8{fill:#3C5987;}.st9{clip-path:url(#SVGID_00000026875202902595142840000000377201574005809794_);}.st10{fill:#669CD3;}.st11{clip-path:url(#SVGID_00000024710148683066207770000005312648144419867290_);}.st12{fill:#92C4FC;}.st13{fill:#FAF4D2;}.st14{fill:#FCCB7C;}.st15{clip-path:url(#SVGID_00000144307533842833517890000016671836754381184438_);}.st16{clip-path:url(#SVGID_00000014608472568673334640000015258629023861906094_);}.st17{fill:#C5CAF0;}.st18{clip-path:url(#SVGID_00000145028991415629910150000002748287048858052736_);}.st19{clip-path:url(#SVGID_00000130608909913542368480000010125645198361297331_);}.st20{clip-path:url(#SVGID_00000119115858001489814390000008689234679230314919_);}.st21{clip-path:url(#SVGID_00000116212777597693143000000013973812919869551245_);}.st22{fill:#F9CC3D;}.st23{fill:#FFEAAE;}.st24{fill:#FFECB8;}.st25{fill:#D3AA37;}.st26{fill:#FFE08A;}.st27{clip-path:url(#SVGID_00000182508624577878844550000012113997467745775744_);}.st28{clip-path:url(#SVGID_00000044157510483842075690000017206835074401953687_);}.st29{clip-path:url(#SVGID_00000100371956937184866410000015000766420661940404_);}.st30{clip-path:url(#SVGID_00000182510710027423964110000005287300270880195000_);}.st31{clip-path:url(#SVGID_00000032621166989098575640000005202459136721347498_);}.st32{clip-path:url(#SVGID_00000153664121369997412610000003024626299268546474_);}.st33{clip-path:url(#SVGID_00000005949074199656646250000003105090787328421001_);}.st34{clip-path:url(#SVGID_00000098212922363217660680000003671275894772507028_);}.st35{clip-path:url(#SVGID_00000007401704560331202120000009682496090397417395_);}</style><g ></g><g ><g><g><g><path class="st1" d="M70.6,36.3c-0.1-1.2-0.4-2.4-0.7-3.6c-0.2-1-0.4-2-0.7-3c-0.4-2-1.1-3.9-1.9-5.7c-0.6-1.7-1.6-3.3-2.7-4.7c-1.3-1.7-2.7-3.2-4.3-4.5c-1-0.7-2-1.3-3-2C48.6,6.9,36.8,3,26.8,14.5c-1.3,1.5-2.7,2.9-3.9,4.4c-1,1.3-2.1,2.5-3,3.9c-0.9,1.7-1.8,3.6-2.7,5.3c-0.5,1-1,1.9-1.4,2.9c-0.5,1.3-0.9,2.7-1.3,4c-0.6,1.8-1,3.6-1.3,5.5c-0.3,1.8-0.7,3.7-0.8,5.5c-0.4,3.2-0.4,6.4-0.2,9.6c0,1.1,0,2.3,0.2,3.4c0.1,1,0.1,1.6,0.9,3.2c0.9,1.6,2.1,2.9,3.5,4c0.9,0.5,0.8,0.4,1,0.6c0.8,0.5,1.7,0.8,2.6,1.1c0.9,0.3,1.8,0.7,2.7,0.8c1.5,0,2.9-0.4,4.4-0.7c2.2-0.6,4.4-1.6,6.6-2.3c1.3-0.3,2.2-0.3,4.3-0.4c1.4-0.1,3.7,0.2,3.8,0.3c3.4,0.8,4.8,1.3,8.1,1.5c2.3,0.2,4.7,0,7-0.8c1.8-0.7,3.4-1.8,4.9-3c1.5-1.4,2.7-3.3,3.7-5.3c1.3-2.4,2.3-4.9,3.1-7.5c0.6-2.1,1.3-4.2,1.5-6.4c0.2-1.5,0.5-3,0.6-4.5C70.8,38.4,70.6,37.4,70.6,36.3"/><g><defs><path id="_2" d="M70.6,36.3c-0.1-1.2-0.4-2.4-0.7-3.6c-0.2-1-0.4-2-0.7-3c-0.4-2-1.1-3.9-1.9-5.7c-0.6-1.7-1.6-3.3-2.7-4.7c-1.3-1.7-2.7-3.2-4.3-4.5c-1-0.7-2-1.3-3-2C48.6,6.9,36.8,3,26.8,14.5c-1.3,1.5-2.7,2.9-3.9,4.4c-1,1.3-2.1,2.5-3,3.9c-0.9,1.7-1.8,3.6-2.7,5.3c-0.5,1-1,1.9-1.4,2.9c-0.5,1.3-0.9,2.7-1.3,4c-0.6,1.8-1,3.6-1.3,5.5c-0.3,1.8-0.7,3.7-0.8,5.5c-0.4,3.2-0.4,6.4-0.2,9.6c0,1.1,0,2.3,0.2,3.4c0.1,1,0.1,1.6,0.9,3.2c0.9,1.6,2.1,2.9,3.5,4c0.9,0.5,0.8,0.4,1,0.6c0.8,0.5,1.7,0.8,2.6,1.1c0.9,0.3,1.8,0.7,2.7,0.8c1.5,0,2.9-0.4,4.4-0.7c2.2-0.6,4.4-1.6,6.6-2.3c1.3-0.3,2.2-0.3,4.3-0.4c1.4-0.1,3.7,0.2,3.8,0.3c3.4,0.8,4.8,1.3,8.1,1.5c2.3,0.2,4.7,0,7-0.8c1.8-0.7,3.4-1.8,4.9-3c1.5-1.4,2.7-3.3,3.7-5.3c1.3-2.4,2.3-4.9,3.1-7.5c0.6-2.1,1.3-4.2,1.5-6.4c0.2-1.5,0.5-3,0.6-4.5C70.8,38.4,70.6,37.4,70.6,36.3"/></defs><clipPath id="_3"><use xlink:href="#_2" style="overflow:visible;"/></clipPath><g style="clip-path:url(#_3);"><path class="st3" d="M69.3,27.8c-0.4-2.7-1.9-4.9-3.9-7.1c-0.8-0.9-1.5-1.9-2.4-2.8c-0.7-0.7-1.2-1.4-1.9-2.1c-0.8-0.8-1.5-1.3-2.3-2.1c-1.5-1.5-3.5-2.6-5.6-3.5c-1-0.4-2.1-0.8-3.2-1.2C49,8.9,48,8.8,47,8.9c-0.2,0.1-0.1,0-0.4,0.1c0,0-0.1,0-0.1,0.1c-2.1,0.1-4.3,0.3-6.2,1c-2,0.9-3.2,2.7-3.5,4.4c0,0.1,0,0.2,0,0.2c-0.4-0.1-0.9-0.2-1.4-0.2c-3.9,0.1-7.1,1-10.2,2.8c-1.2,0.9-2.6,1.9-2.7,3.2c-0.3,0.8-0.1,1.7,0.4,2.4c-1.6,0.1-3.1,0.7-4.5,1.2c-2.8,1.1-5.6,2.5-7.4,4.4c-1.1,1.6,0.9,2.9,2.9,3c3.9,0.4,7.9-0.1,11.9-0.4c-0.9,1.1-2,2.5-1,3.7c3.1,3.4,11.8,2.1,15.9,0.1c0.9-0.4,1.8-0.9,2.6-1.4c0.1,0.5,0.5,1,1.1,1.4c0.6,0.6,1.4,1,2.5,1.1c4.1,0.6,9.5-0.9,12.8-3.4c0,0.2,0.1,0.4,0.2,0.6c0.4,0.7,1.2,1.2,2.1,1.4c1,0.2,2.1,0.1,3.1-0.2c1.9-0.5,3.7-1.3,4.7-2.6C70.7,30.5,69.5,28.8,69.3,27.8"/><g><g><path class="st4" d="M26.5,63.7c-0.3-1.5-1-3.3-1.5-5c-0.4-1.2-0.9-2.4-1.5-3.5c-0.5-1-1.2-2.1-2.3-2.6c-0.9-0.3-2-0.1-2.7,0.5c-1.7,1.5-1.8,3.8-2.1,5.9c-0.1,1.6,0.3,3.1,0.3,4.7c0.2,1.8,0.3,3.7,0.8,5.5c0,0,0,0,0.1,0.1c0.1,0.3,0.6,0.3,0.8-0.1c0,0,0.1-0.1,0.1-0.2c0,0,0,0,0,0c0,0,0.1-0.1,0.1-0.1c0.2-0.1,0.6-0.3,0.8-0.4c0.2-0.1,0.4-0.1,0.8-0.1c0.1,0,0.3-0.1,0.4-0.1c0.5-0.1,1.3-0.4,1.4-0.4c1.1,0,2.1-0.2,3.2-0.2c0.6,0,1.1,0.1,1.7,0c0,0,0,0,0,0c0.1,0,0.3-0.1,0.3-0.2C27.3,66,26.6,64.5,26.5,63.7 M52.4,64.7c-0.2-0.8-0.4-1.9-0.6-2.6c-0.1-1.1-0.2-2.2-0.4-3.3c-0.4-1.3-0.9-2.5-1.5-3.7c-0.4-0.8-1.1-1.4-1.8-2c-0.7-0.6-1.6-1-2.6-0.9c-1.1,0.1-2,0.6-2.8,1.3c-1.5,1.2-2.3,3-2.8,4.8c-0.7,2.1-1.2,4.2-1.8,6.3c0,0.3-0.2,0.6-0.2,0.9c-0.1,0.1-0.1,0.1-0.2,0.2c-0.1,0.3,0.2,0.6,0.5,0.5c0.1,0,0.2-0.1,0.2-0.1c0,0,0.1,0,0.1,0c0.8-0.2,2-0.1,3,0c1.4,0.1,2.7,0,4.1,0c2,0.1,4,0.1,6-0.1c0.3,0,0.7-0.2,0.8-0.5C52.5,65.1,52.4,64.9,52.4,64.7"/><path class="st5" d="M38.3,64.9c-0.4-3.6-0.9-6.7-1.7-10.2c-0.5-1.7-1.1-3.4-2-4.9c-0.3-0.7-0.9-1.3-1.7-1.6c-1-0.4-2.3-0.2-3.2,0.3c-1.1,0.8-1.4,2-1.8,3.1c-1.2,4-1.1,7.9-1,12.3c0.1,1,0.1,1.9,0.1,2.9c-0.2,0.2-0.1,0.5,0.2,0.6c0.1,0.1,0.4-0.1,0.5-0.2c0.5-0.2,0.6-0.1,1.2-0.4c0.2,0,1.9-0.4,2-0.4c1.1-0.2,1.6-0.4,2.6-0.5c1.2,0.1,2.8,0,3.7,0.1C38.5,66.3,38.5,65.9,38.3,64.9"/><path class="st6" d="M23.3,67.6c-0.1-0.6-0.3-1.1-0.4-1.6c-0.4-1.6-0.8-3.5-1.3-5.3c-0.3-1-0.6-2.1-0.8-2.9c0-0.3-0.3-0.9-0.3-1c0-0.1,0-0.4-0.4-0.4c-0.2,0-0.2,0.2-0.2,0.4c0,0.5,0.1,0.6,0.2,1c0.1,0.6,0.1,1.2,0.2,1.8c0.2,1.1,0.5,2.3,0.6,3.2c0.2,1.7,0.4,3.4,0.5,5c0,0.1,0,0.2,0.1,0.3c0.1,0.1,0.2,0.1,0.3,0c0,0,0.1,0,0.2,0c0,0,0.1,0,0.1,0c0,0,0,0,0.1,0c0.1,0,0.5-0.1,0.3-0.1c0.1-0.1,0.5,0.1,0.7-0.2C23.4,67.9,23.3,67.4,23.3,67.6"/><path class="st6" d="M32.8,65.2c-0.2-2-0.2-4-0.4-6.1c-0.2-1.4-0.5-2.8-0.6-4.2c0-0.4-0.1-0.8-0.1-1c0-0.2,0-0.4-0.1-0.5c-0.2-0.1-0.4,0-0.4,0.2c-0.1,2.9,0,6,0,9.2c0,1.2,0.1,2.3,0.2,3.5c0.1,0.1,0.2,0.1,0.3,0.1c0.2,0.2,0.3,0,0.6,0.1C33.2,66.6,32.9,66.1,32.8,65.2"/><path class="st6" d="M45.4,56.4c0-0.1,0-0.2,0-0.4c0,0,0,0,0,0h0c0-0.1-0.1-0.2-0.3-0.2c-0.2,0-0.3,0.2-0.2,0.4c0,0,0,0.1,0,0.1c0,0.1,0,0.1,0,0.2c-0.2,2.1-0.7,4.9-1.1,7.2c-0.1,0.8-0.3,1.5-0.3,2.3c0,0,0.1,0.1,0.1,0.1c0.1,0.1,0.1,0.1,0.2,0.2c0.1,0,0.2,0,0.3,0c0.3,0,0.7,0.1,1.1,0c0,0,0.5,0.1,0.6-0.2c0-1.2,0-2.2,0.1-3.2C45.8,60.7,45.6,58.5,45.4,56.4"/></g><g><path class="st5" d="M73.7,63.4c-0.7,0.4-1.8,0.7-2.8,1c-2,0.7-4.3,0.5-6.6,0.5c-4,0.2-7.8-1.2-11.9-1.9c-4.2-1-8-1.2-12.2-1.1c-1.5,0.1-3,0.2-4.5,0.5c-0.6,0.1-1.3,0.1-1.9,0.3c-0.7,0.2-1.4,0.3-2.1,0.5c-0.9,0.3-1.8,0.7-2.8,1c-1.2,0.3-3.3,0.4-4.9,0.5c-0.9,0.1-1.3,0.3-2.2,0.4c-1.6,0-3.4-0.3-5.2-0.8c-0.8-0.3-1.4-0.5-2.3-0.8c-0.1,0-0.2-0.1-0.3,0c0,0-0.1,0-0.1,0.1c-0.2,0.1-0.3,0.3-0.2,0.5c0,0,0,0.1,0.1,0.1c0,0,0,0,0,0c0.2,0.5,0.3,0.8,0.4,1c0.9,1.7,2.5,2.8,4,3.9c1.3,0.9,2.8,1.5,4.2,2.1c0.8,0.4,1.5,0.9,2.4,1.2c1.3,0.3,2.7,0.3,4,0.3c1.3,0,2.5-0.3,3.7-0.6c1.7-0.3,3.3-0.9,4.9-1.3c0.9-0.4,1.9-0.8,2.9-1c1.6-0.4,3-0.8,4.5-0.9c1.7-0.2,3.5,0,5.3,0c2.3,0,4.3,0.3,6.6,0.6c2.8,0.4,5.5,0.6,8.3,0.7c1.6,0,3.1-0.6,4.4-1.5c1.1-0.6,2.2-1.4,2.9-2.4C73,65.6,74.9,63.4,73.7,63.4"/><g><path class="st4" d="M71,65.6c-0.2,0-0.3,0.1-0.5,0.1c-0.5,0.2-1,0.3-1.5,0.4c-1.3,0.4-2.4,0.5-3.9,0.7c-3.8,0.2-7.4,0.3-10.9-0.7c-2.1-0.6-3.7-1.3-5.8-2c-1.6-0.5-3.3-0.8-5-0.9c-1.7-0.1-3.4,0.2-5.1,0.2c-1.9,0.3-3.7,0.7-5.6,1.4c-0.9,0.2-1.7,0.5-2.5,1c-0.9,0.3-1.7,0.6-2.6,0.9c-1,0.3-2,0.4-3,0.5c-0.8,0.1-1.6,0.2-2.4,0.1c-0.8,0-1.6,0-2.3-0.3c-1-0.4-2.1-0.9-2.9-1.5c-0.2-0.2-0.5,0.1-0.3,0.3c1.4,1,3,1.8,4.7,1.9c1.2,0,2.5,0,3.7-0.2c1-0.1,1.9-0.2,2.9-0.5c1.5-0.3,2.7-1,4.1-1.5c1.3-0.4,2.6-0.9,3.8-1c1.2-0.3,2.1-0.5,3.3-0.6c1.5,0,3.6-0.3,4.9-0.1c3.4,0.3,6.2,1.6,9.2,2.6c3,1.1,5.7,1.2,8.8,1.2c2.5-0.1,5.1-0.2,7.5-0.9c0.5-0.1,1-0.3,1.5-0.4c0.1,0,0.3-0.1,0.3-0.2C71.3,65.9,71.2,65.6,71,65.6"/><path class="st4" d="M47.2,65.9c-0.2-0.1-0.1-0.1-0.4-0.1c-1.4-0.3-2.6-0.3-4.2-0.2c-1.2,0-2.3-0.1-3.5,0.2c-1.4,0.3-2.8,0.6-4.1,1c-1.5,0.7-3,1.2-4.5,1.8c-1.5,0.5-3,0.6-4.6,0.9c-0.3,0.1-0.8,0-1.1,0.2c-0.1,0.2,0,0.4,0.2,0.4c1.9-0.2,3.9-0.4,5.7-1c1.1-0.4,2.2-0.8,3.3-1.2c0.8-0.4,1.6-0.7,2.5-0.9c2-0.6,3.8-1,5.9-0.8c1.7-0.1,2.7-0.1,4.2,0.2c0.1,0,0.3,0.1,0.4,0C47.3,66.2,47.4,66,47.2,65.9"/><path class="st4" d="M41.3,67.6c-1,0-2.1,0.3-3.1,0.4c-1.1,0.2-2.2,0.5-3.3,0.9c-1.7,0.6-3.3,1.1-4.9,1.9c-0.4,0.2-1,0.4-1.2,0.7c-0.1,0.2,0.2,0.4,0.4,0.3c3.2-1.8,7.4-3,11-3.5c0.4-0.1,0.8,0,1.1-0.2C41.5,67.9,41.4,67.7,41.3,67.6"/><path class="st4" d="M67.8,68.2c-0.2-0.1-0.4,0-0.6,0.1c0,0,0,0,0,0c-0.8,0.1-1.6,0.2-2.4,0.2c-1,0-2,0.2-3.1,0.1c-1.6-0.2-3.8-0.4-5.8-0.8c-1.8-0.3-3.7-0.7-5.5-0.7c-0.1,0-0.3,0-0.4,0.1c-0.1,0.2,0,0.4,0.2,0.4c3.1,0,6.4,1,9.7,1.3c0.6,0,1.5,0.2,2.4,0.2c0.8,0,1.6-0.1,2.4-0.1c0.6,0,1.3-0.1,1.9-0.1c0.4,0,0.8,0,1.1-0.2C68,68.7,68,68.3,67.8,68.2"/></g></g></g></g></g></g><g><path class="st7" d="M18.6,49.3c-0.6-0.1-1.1,0-1.7,0.2c-0.7,0.3-1.5,1.1-1.8,1.5c-0.6,0.7-0.6,1.6-0.7,2.5c-0.1,1.7,0.1,3.5,0.3,5.2c0.1,0.7-0.3,1.3-0.7,1.8c-0.2,0.2-0.3,0.4-0.6,0.6c-0.1,0.1,0.1,0.3,0.2,0.2c0.7-0.6,1.5-1.7,1.3-2.6c-0.2-1.4-0.3-2.8-0.3-4.1c0-0.8,0.1-1.7,0.3-2.6c0.3-0.6,0.8-1.3,1.5-1.8c0.5-0.4,1.3-0.5,1.7-0.5c0.5,0,0.8,0.5,0.8,0.9c0,0.7,0,1-0.5,1.5c-0.5,0.5-0.9,0.7-1.4,0.8c-0.1,0-0.2-0.1-0.2-0.2C16.9,52.2,17,52.2,17,52c-0.2-0.4-0.5,0-0.5,0.4c0,1,0.7,1,1.4,0.6c0.6-0.3,1.1-0.8,1.4-1.3C19.7,50.8,19.5,49.6,18.6,49.3"/><path class="st7" d="M15.9,47c-0.1,0-0.2,0.1-0.3,0.2c-1.2,0.6-1.9,1.6-2.4,2.8c-0.8,1.8-0.8,3.9-0.5,5.9c0.1,0.3,0,0.6,0.2,0.9c0.1,0.1,0.3,0,0.3-0.1c-0.4-2.1-0.5-4.3,0.2-6.1c0.5-1.3,1.1-2.2,2.3-2.9c0.1-0.1,0.3-0.2,0.4-0.3C16.2,47.1,16,47,15.9,47"/><path class="st7" d="M66.3,42.9c-0.3-0.3-0.7-0.6-1.1-0.7c-0.4,0-0.7,0.3-0.9,0.6c-0.5,0.8-0.7,1.5-0.8,2.4c-0.1,0.4-0.1,0.8,0.1,1.2c0.5,0.6,1.1,0.5,1.6-0.3c0.1-0.2,0.2-0.5,0.2-0.7c0-0.1,0.1-0.2,0-0.3c-0.2-0.2-0.4,0-0.4,0.2c0,0.7-0.6,1.2-0.8,1c-0.2-0.2-0.2-0.1-0.3-0.4c-0.2-0.6,0.3-2.3,0.7-2.8c0.2-0.3,0.6-0.5,0.6-0.5c0.2,0.1,0.5,0.2,0.7,0.4c0.6,0.7,0.7,1.5,0.6,2.4c-0.1,1.2-0.3,2.4-0.6,3.6c-0.7,2.4-1.3,4.8-2.6,6.9c-0.4,0.7-0.7,1.3-1.2,2c-0.1,0.2,0.2,0.3,0.3,0.1c1.5-2.2,2.5-4.7,3.3-7.3c0.5-1.6,1-3.2,1.1-4.9C67,44.9,66.9,43.8,66.3,42.9"/><path class="st7" d="M62.1,47.4c-0.1-0.2-0.4-0.1-0.3,0.1c0.3,1.7,0.4,3.4,0.1,5c0,0.5-0.2,1.4-0.5,1.2c-0.2-0.1-0.2-0.5-0.1-0.8c0-0.2,0.3-0.5,0.6-0.7c0.1-0.1,0-0.2,0-0.2c-0.1-0.1-0.3,0-0.4,0.1c-0.2,0.2-0.4,0.4-0.5,0.6c-0.1,0.4-0.1,0.9,0.1,1.2c0.4,0.4,0.9,0.2,1-0.3c0.3-1.2,0.4-2.7,0.3-3.8C62.3,49,62.2,48.2,62.1,47.4"/><path class="st7" d="M68.5,42.7c-0.1-0.4,0-0.8-0.2-1.1c-0.1-0.1-0.3,0-0.3,0.1c0.2,1.1,0.4,2.3,0.3,3.4c-0.2,1.3-0.5,2.5-0.7,3.8c-0.1,1-0.6,1.9-0.8,2.8c-0.7,2.4-1.5,4.7-2.9,6.9c-0.1,0.2-0.4,0.5-0.4,0.7c0,0.1,0.2,0.2,0.3,0.1c0.1-0.1,0.2-0.3,0.3-0.5c1.4-2.2,2.4-4.7,3-7.2c0.3-1,0.7-1.9,0.8-2.9c0.2-1.2,0.6-2.5,0.8-3.7C68.7,44.4,68.6,43.6,68.5,42.7"/></g><g><path class="st8" d="M23.9,46c-0.1-0.1-0.4-0.1-0.4,0.1c-0.2,0.7-0.4,1.2-0.7,1.9c-0.1,0.2,0.1,0.4,0.3,0.3c0.2-0.1,0.4-1.2,0.7-1.8C23.8,46.3,24,46.1,23.9,46"/><path class="st8" d="M27.7,44.6c-0.2,0.5-0.4,1.4-0.5,1.7c0,0.1-0.1,0.2-0.1,0.3c0,0.1,0.2,0.2,0.3,0.1c0.2-0.2,0.2-0.6,0.3-0.9c0.1-0.4,0.3-0.9,0.4-1.3C28.1,44.4,27.7,44.4,27.7,44.6"/><path class="st8" d="M26.1,50c-0.1-0.2-0.4-0.1-0.4,0.1c-0.2,0.9-0.5,1.6-0.8,2.3c-0.3,0.3,0.2,0.6,0.4,0.2c0.3-0.7,0.5-1.4,0.7-2.1C26.1,50.4,26.2,50.2,26.1,50"/><path class="st8" d="M32.3,44.8c-0.1-0.1-0.3-0.1-0.4,0.1c-0.1,0.5-0.4,1-0.5,1.5c0,0.2,0.3,0.2,0.4,0.1c0.2-0.4,0.3-0.9,0.4-1.3C32.3,45,32.4,44.9,32.3,44.8"/><path class="st8" d="M30.2,49.1c-0.2,0.7-0.5,1.5-0.7,2c-0.1,0.1,0,0.3,0.2,0.3c0.1,0,0.2,0,0.2-0.1c0.2-0.7,0.5-1.3,0.7-2C30.7,49,30.3,48.8,30.2,49.1"/><path class="st8" d="M36,45.3c-0.2,0.6-0.3,1.1-0.5,1.7c0,0.1,0.1,0.2,0.2,0.2c0.1,0,0.2-0.1,0.2-0.2c0.2-0.5,0.3-1.1,0.5-1.6C36.5,45.2,36.1,45.1,36,45.3"/><path class="st8" d="M33.9,50.3c-0.3,1.1-0.9,2.2-1.2,3.5c0.1,0.2,0.3,0.2,0.4,0c0.4-1.2,0.9-2.3,1.2-3.5C34.3,50.1,34,50.1,33.9,50.3"/><path class="st8" d="M40.1,45.8c-0.1,0.4-0.2,0.9-0.4,1.3c0,0.1,0.1,0.2,0.2,0.2c0.2,0,0.2-0.1,0.2-0.2c0.1-0.4,0.3-0.9,0.4-1.3C40.5,45.6,40.1,45.6,40.1,45.8"/><path class="st8" d="M38.7,50c-0.1-0.2-0.4-0.1-0.4,0.1c-0.3,0.8-0.7,1.9-1,2.9c0,0.1,0.1,0.2,0.2,0.2c0.4,0,0.4-0.7,0.5-0.9c0.2-0.7,0.5-1.3,0.7-2C38.7,50.2,38.8,50.1,38.7,50"/><path class="st8" d="M30.1,53.4c-0.3,0.8-0.6,1.6-0.9,2.4c-0.1,0.1,0.1,0.3,0.3,0.3c0.4-0.5,0.7-1.8,1-2.5C30.6,53.4,30.3,53.2,30.1,53.4"/><path class="st8" d="M26.8,54.3c-0.2,0.6-0.4,1.3-0.7,1.9c-0.1,0.2,0.1,0.4,0.3,0.2c0.3-0.6,0.5-1.4,0.7-2C27.2,54.1,26.9,54.1,26.8,54.3"/><path class="st8" d="M21.9,51.6c-0.2,0.6-0.5,1.4-0.8,2.1c-0.1,0.2-0.4,0.5,0,0.6c0.1,0,0.2-0.1,0.3-0.2c0.4-0.8,0.6-1.6,0.9-2.4C22.4,51.6,22,51.3,21.9,51.6"/><path class="st8" d="M22.7,55.7c-0.4,0.8-0.7,1.7-1.1,2.5c-0.1,0.2-0.5,0.7-0.1,0.8c0.2,0,0.2-0.1,0.3-0.3c0.4-0.7,0.7-1.5,1-2.2c0.1-0.3,0.3-0.5,0.3-0.8C23.1,55.5,22.8,55.5,22.7,55.7"/><path class="st8" d="M31,57c-0.4,0.7-0.8,1.8-1.1,2.4c-0.1,0.1-0.1,0.1,0,0.2c0.2,0.3,0.4-0.1,0.5-0.3c0.3-0.8,0.7-1.5,1-2.3C31.4,56.8,31,56.8,31,57"/><path class="st8" d="M35.4,55.2c-0.3,0.9-0.5,1.6-0.9,2.5c0,0,0,0,0,0c0,0,0,0,0,0c0,0,0,0.1,0,0.2c0,0.1,0.2,0.2,0.3,0.1c0.1,0,0.1-0.1,0.2-0.2c0.3-0.8,0.6-1.7,0.9-2.5C35.9,55,35.4,54.9,35.4,55.2"/><path class="st8" d="M36.8,57.7C36.8,57.7,36.8,57.7,36.8,57.7"/><path class="st8" d="M44.3,45.7c-0.1,0.5-0.3,0.9-0.4,1.4c0,0.2,0.2,0.3,0.3,0.2c0.1-0.1,0.1-0.4,0.2-0.6c0.1-0.3,0.3-0.7,0.3-1C44.7,45.5,44.3,45.5,44.3,45.7"/><path class="st8" d="M41.7,49.9c-0.2,0.8-0.6,2-0.8,2.6c-0.1,0.1,0,0.5,0.3,0.3c0.4-0.9,0.6-1.9,0.9-2.8C42.1,49.7,41.7,49.6,41.7,49.9"/><path class="st8" d="M41.2,55.9c-0.2,0.9-0.6,1.9-0.8,2.6c0,0,0,0,0,0c0,0,0,0.1,0,0.2c0,0.1,0.2,0.2,0.3,0.1c0.4-0.8,0.6-1.9,0.9-2.8C41.7,55.7,41.3,55.6,41.2,55.9"/><path class="st8" d="M44.9,54.6c-0.2,0.8-0.4,1.8-0.6,2.4c-0.1,0.3-0.4,0.8,0.1,0.7c0.1,0,0.1-0.1,0.2-0.2c0.4-0.9,0.5-1.9,0.7-2.8C45.4,54.4,44.9,54.3,44.9,54.6"/><path class="st8" d="M45.8,50.1c-0.1,0.4-0.3,0.9-0.3,1.3c0,0.1,0.1,0.1,0.2,0.1c0.1,0,0.2-0.1,0.2-0.2c0.1-0.4,0.2-0.8,0.3-1.3C46.3,50,45.9,49.9,45.8,50.1"/><path class="st8" d="M48.7,45.2c-0.1,0.6-0.3,1.1-0.3,1.7c0,0.2,0.3,0.2,0.4,0.1c0.2-0.6,0.3-1.2,0.4-1.8C49,45,48.7,45,48.7,45.2"/><path class="st8" d="M53.4,44C53.3,43.9,53,44,53,44.1c-0.2,0.6-0.4,1.2-0.5,1.8c0,0.1,0,0.1,0,0.1c0.1,0.1,0.3,0.1,0.4-0.1c0.1-0.5,0.3-0.9,0.4-1.4C53.3,44.4,53.5,44.2,53.4,44"/><path class="st8" d="M51.5,50c-0.1-0.2-0.4-0.1-0.5,0.1c-0.1,0.8-0.2,1.6-0.3,2.3c0,0.1-0.1,0.2,0,0.3c0,0.2,0.3,0.2,0.4,0.1c0.2-0.3,0.2-0.9,0.3-1.3C51.4,51.1,51.6,50.4,51.5,50"/><path class="st8" d="M50.3,56.6c-0.1-0.2-0.4-0.1-0.4,0.1c0,0.5-0.1,1-0.2,1.4c0,0.1,0,0.4,0.2,0.4c0.2,0,0.3-0.2,0.3-0.3c0.1-0.3,0.1-0.6,0.1-0.9C50.3,57,50.4,56.8,50.3,56.6"/><path class="st8" d="M57.1,56.5c-0.1-0.2-0.4-0.1-0.4,0.1c-0.1,0.8-0.1,1.6-0.2,2.4c0,0.2-0.2,0.7,0.2,0.7c0.1,0,0.2-0.1,0.2-0.2c0.1-0.8,0.2-1.5,0.2-2.3C57,57,57.2,56.7,57.1,56.5"/><path class="st8" d="M55.5,50.2c-0.1-0.1-0.3-0.1-0.4,0.1c0,0.5-0.1,1-0.2,1.5c0,0.1,0,0.2,0.1,0.2c0.3,0.1,0.3-0.2,0.4-0.4c0-0.3,0.1-0.5,0.1-0.8C55.5,50.6,55.5,50.4,55.5,50.2"/><path class="st8" d="M56.9,44.6c-0.1-0.1-0.4-0.1-0.4,0.1c0,0.7-0.2,1.5-0.3,2.2c0,0.1,0.1,0.2,0.2,0.2c0.1,0,0.2-0.1,0.2-0.2c0.1-0.6,0.2-1.2,0.2-1.8C56.9,44.9,56.9,44.7,56.9,44.6"/><path class="st8" d="M58.4,52.5c-0.1,0.6-0.1,1.1-0.1,1.7c0,0.1,0.1,0.2,0.2,0.3c0.2,0,0.3-0.1,0.3-0.3c0-0.5,0.1-1,0.1-1.5C59,52.4,58.5,52.2,58.4,52.5"/><path class="st8" d="M60.9,58.4c-0.1-0.1-0.4,0-0.4,0.2c0,0.6,0,1.2,0,1.7c0,0.1,0.1,0.2,0.1,0.2c0.1,0.1,0.3-0.1,0.3-0.2c0-0.4,0-0.8,0-1.2C61,58.9,61.1,58.6,60.9,58.4"/><path class="st8" d="M59.7,44.3c-0.1-0.1-0.4-0.1-0.4,0.1c-0.1,1.1-0.1,2.1-0.3,3.2c0,0.3-0.3,1,0.1,1c0.3,0,0.2-0.3,0.2-0.5c0.1-0.9,0.2-1.8,0.2-2.7C59.7,45,59.8,44.6,59.7,44.3"/><path class="st8" d="M49.3,59.3c-0.2,0.8-0.4,1.8-0.6,2.4c-0.1,0.2,0.1,0.4,0.3,0.2c0.1-0.1,0.1-0.2,0.1-0.3c0.2-0.8,0.4-1.5,0.5-2.3C49.8,59.1,49.4,59,49.3,59.3"/><path class="st8" d="M53.3,60.8c0,0.5-0.2,1-0.1,1.4c0.6,0.5,0.4-1,0.5-1.3C53.8,60.6,53.4,60.6,53.3,60.8"/><path class="st8" d="M58,61c-0.1-0.2-0.4-0.1-0.5,0.1c0,0.7-0.1,1.7-0.1,2c-0.1,0.2,0,0.4,0.2,0.4c0.1,0,0.2-0.1,0.2-0.3c0.1-0.5,0.1-1,0.1-1.6C58,61.4,58.1,61.2,58,61"/><path class="st8" d="M45.2,59.6c-0.1,0.5-0.1,1.1-0.2,1.6c0,0.1,0.1,0.2,0.2,0.2c0.2,0,0.3-0.2,0.3-0.3c0.1-0.5,0.1-1,0.2-1.5C45.8,59.4,45.3,59.3,45.2,59.6"/><path class="st8" d="M23.3,61.1c-0.1,0.6-0.3,1.2-0.4,1.8c0,0.1,0.1,0.3,0.2,0.2c0.1,0,0.2-0.1,0.2-0.2c0.1-0.6,0.3-1.2,0.4-1.8C23.7,60.9,23.3,60.8,23.3,61.1"/><path class="st8" d="M27.5,58.6c-0.2,0.9-0.3,1.8-0.5,2.6c0,0.1-0.1,0.3-0.1,0.4c0,0.1,0.2,0.2,0.3,0.1c0.1-0.1,0.1-0.2,0.1-0.4c0.2-0.9,0.3-1.7,0.5-2.6C28,58.4,27.6,58.2,27.5,58.6"/><path class="st8" d="M35.7,59.7c-0.1-0.1-0.4,0-0.4,0.1c-0.2,0.6-0.4,1.1-0.6,1.7c0,0.1,0,0.2,0.1,0.2c0.2,0.1,0.4-0.1,0.4-0.2c0.1-0.4,0.3-1,0.4-1.1C35.6,60.2,35.9,59.9,35.7,59.7"/><path class="st8" d="M18.9,55.7c-0.1,0.9-0.3,1.7-0.5,2.6c-0.1,0.2,0.2,0.3,0.3,0.2c0.3-0.8,0.4-1.8,0.5-2.7C19.3,55.5,18.9,55.5,18.9,55.7"/><path class="st8" d="M19.5,61.4c-0.2,0.8-0.5,1.6-0.7,2.5c0,0.2,0.1,0.3,0.3,0.3c0.1,0,0.2-0.1,0.2-0.2c0.2-0.8,0.5-1.7,0.7-2.5C20.1,61.2,19.6,61.1,19.5,61.4"/><path class="st8" d="M40.2,59c-0.2,0.8-0.4,1.6-0.6,2.4c-0.1,0.2,0.2,0.4,0.4,0.2c0.3-0.7,0.5-1.8,0.7-2.5C40.8,58.8,40.3,58.7,40.2,59"/><path class="st8" d="M39,54.3c-0.2,0.8-0.4,1.6-0.6,2.4c-0.1,0.2,0.2,0.3,0.4,0.2c0.3-0.8,0.4-1.7,0.7-2.6C39.5,54.1,39,54,39,54.3"/></g><g><g><g><path class="st8" d="M62.7,35.5c-0.4-2.2-2.7-3.3-4.7-4c-0.1,0-0.1-0.1-0.2-0.1c0,0,0,0,0,0c0.7-0.6,1.8-1.2,1.8-2.2c-0.3-1.3-1.3-2.4-2.5-3.1c-1-0.6-2.2-0.8-3.3-1c-0.7,0-1.8,0-2.3,0c0,0,0,0,0,0c0-0.4,0.4-1.1,0.4-1.7c0.2-0.9-0.2-1.6-0.8-2.3c-0.3-0.3-0.6-0.7-1-1c-0.7-0.4-1.6-0.5-2.4-0.4c-0.6,0.1-1.2,0.4-1.8,0.6c0.6-0.9,0.4-2.2-0.5-2.9c-0.9-0.7-2-1.2-3.1-1.7c-1.5-0.3-3.1,0.2-4.2,1.2c0,0-0.1,0.1-0.1,0.1c-1.1-0.1-2.2,0-3.1,0.1c-2.4,0.3-4.2,2.6-4.2,4.8c-0.1-0.1-0.3-0.1-0.5-0.2c-2.6-0.9-8.5,1.1-9.9,3.4c-0.5,0.7-0.9,1.6-0.8,2.4c-2.2-0.6-5.7,0.8-7.4,2.1c-1.9,1.4-3.6,4.3-2.9,6.7c0.8,2.1,3.2,3,5.4,2.7c1.1-0.1,2.3-0.3,3.3-0.6c0.3-0.1,0.6-0.3,0.9-0.4c-0.6,2.5,2,4.2,4.5,4.3c0.8,0,1.6-0.4,2.3-0.6c1.2-0.4,3-1.1,3.9-1.7c1.6,5.7,7.9,4.3,11.5,1.3c0.4-0.3,0.7-0.7,1.1-1c0,0,0,0.1,0.1,0.1c0.5,0.8,1.2,1.7,2.1,2c1.4,0.5,3.2,0.6,4.3,0.1c1.9-0.6,4.5-1.7,4.4-4c0,0,0,0,0,0c0.2,0.1,0.4,0.2,0.6,0.3c1.2,0.9,2.8,0.7,4.2,0.6C60.4,39.4,63.1,38.2,62.7,35.5"/><g><path class="st3" d="M15.1,35.5c-0.2-0.1-0.5,0.1-0.8,0.1c-0.4,0.1-0.6,0.2-0.8,0.2c-0.4,0-0.9-0.5-1-0.8c-0.3-0.7,0.7-1.6,1.1-2.2c0.1-0.1,0.3-0.2,0.3-0.4c0-0.2-0.2-0.3-0.3-0.2c-0.4,0.4-0.8,0.8-1.1,1.3c-0.3,0.4-0.6,0.8-0.5,1.3c0.1,0.7,0.7,1.4,1.4,1.5c0.4,0,0.8-0.2,1-0.2c0.2-0.1,0.5,0,0.7-0.2C15.3,35.7,15.2,35.5,15.1,35.5"/><path class="st3" d="M26.5,24.8c-0.6,0.1-1.2,0.4-1.8,0.6c-0.4,0.2-0.7,0.4-0.9,0.7c-0.2,0.3-0.3,0.7-0.3,1.1c0.1,0.6,0.5,1.2,1.2,1.3c0.2,0,0.4,0.1,0.5,0c0.2,0,0.2-0.3,0.1-0.4C25.2,28,25,28,24.8,28c-0.3,0-0.6-0.4-0.7-0.8c-0.1-0.3,0-0.4,0.2-0.9c0.1-0.5,1.5-0.9,2.2-1.1c0.1,0,0.3,0,0.3-0.1C26.8,24.9,26.6,24.7,26.5,24.8"/><path class="st3" d="M22.5,33.4c-0.1,0-0.3,0.1-0.4,0.1c0,0-0.1,0-0.1,0c-0.7,0.2-1.5,0.1-1.9,0c-0.6-0.4-0.9-1-0.6-1.6c0.2-0.6,1-1.3,1.5-1.6c0.4-0.1,0.3-0.6-0.1-0.5c-0.4,0.2-0.8,0.6-1.1,0.9c-0.4,0.4-0.8,1-0.9,1.6c0.1,1.6,1.6,2.1,3,1.7c0.3-0.1,0.6-0.1,0.8-0.4C22.8,33.6,22.7,33.4,22.5,33.4"/><path class="st3" d="M25.8,38.5c-0.2,0-0.4,0.2-0.6,0.3c-0.5,0.2-0.9,0.4-1.1,0.4c-0.5,0-0.8-0.4-0.9-0.7c0.1-0.4,0.6-1.6,1.1-2.1c0.3-0.2,0-0.7-0.3-0.4c-0.5,0.5-0.8,1.2-1.2,1.9c-0.1,0.2-0.2,0.5-0.2,0.8c0.2,0.6,0.8,1,1.4,1c0.5,0,0.9-0.3,1.3-0.4c0.2-0.1,0.5-0.2,0.6-0.4C26.1,38.7,26,38.5,25.8,38.5"/><path class="st3" d="M37.2,40.5c-0.1-0.1-0.2-0.1-0.3-0.1c-0.3,0.1-0.5,0.3-0.8,0.4c-0.6,0.4-1.8,0.5-2,0.3c-0.1-0.1-0.1-1.2,0.1-1.6c0.2-0.3-0.2-0.7-0.4-0.3c-0.2,0.7-0.4,1.5-0.1,2.2c0.2,0.3,0.5,0.3,0.8,0.3c0.5,0,0.9-0.1,1.4-0.2c0.4-0.2,0.7-0.4,1.1-0.6C37.2,40.8,37.3,40.6,37.2,40.5"/></g></g><g><path class="st7" d="M31.8,26.7c0.1,0,0.3,0,0.5,0 M76.9,34.6c-0.8-1.1-1.9-2.3-3.2-3c-0.1-0.1-0.3-0.1-0.4-0.2c0-0.2,0.3-0.4,0.7-0.8c1-0.9,1.4-2.3,1.1-3.6c-0.6-1.5-2-2.6-3.3-3.6c-1.1-0.7-2.4-1-3.6-1.3c-0.6-0.1-1.6-0.2-1.9-0.3c0,0,0,0,0,0c-0.2-0.4,0.4-1.6,0.5-2.6c0.2-1.2-0.3-2.4-1.2-3.3c-0.5-0.4-1.2-0.7-1.9-1c-0.8-0.3-1.9-0.3-2.5-0.3c0,0,0,0,0-0.2c0.2-0.6,0.4-1.8,0.1-2.7c-0.2-0.4-0.5-0.8-0.9-1.2c-0.7-0.8-1.9-1.1-2.9-1.3c-0.8-0.1-1.7,0.2-2.4,0.6c-0.5,0.3-1.3,0.9-1.4,1.3c-1-0.3-2.1-0.4-3.1-0.4c-0.7,0.2-1.2,0.6-1.7,1c-1.2,0.9-3,2.2-2.2,3.9c0,0.1,0.1,0.1,0.1,0.1c-0.2,0-0.4,0-0.6,0.1c-1,0.1-1.9,0.5-2.7,1c-1,0.6-2,1.2-2.8,2c-0.7,0.7-1.1,1.7-0.6,2.7c0.1,0.2,0.2,0.4,0.3,0.6c0,0-0.1,0-0.1,0c-0.1,0-0.1,0-0.2,0c-0.6-0.2-1.2-0.4-1.9-0.5c-0.4,0-1.7-0.6-2.9,0.7c-0.8,0.6-0.8,2-0.9,2.9c-0.4,0.3-0.8,0.6-1.2,0.8c0,0,0,0,0,0c0,0-0.1,0-0.1,0c-1-0.2-1.9,0-2.7,0.7c-0.8,0.6-1.5,1.3-2,2.2c-0.9,1.5-0.6,2.2,0.3,3.7c0.5,0.9,1,1.4,1.8,2.1c0.3,0.4,0.9,0.8,1.5,1.1c0.9,0.5,1.8,1,2.8,1.2c1.9,0.3,3.5,0.4,5.4,0c1.2-0.2,2.3,0,3.6,0.5c1.6,0.5,3.7,1.4,5.5,2.1c1.6,0.5,3.3,0.9,4.9,1.2c1.3,0.2,2.3,0.1,3.5,0.1c1.1-0.1,2.2-0.3,3.2-0.5c0.7-0.2,1.2-0.4,1.8-0.3c1.1,0,2.1,0.4,3.2,0.5c1.5,0.2,2.7,0.3,4.3-0.2c0.5-0.2,1-0.3,1.5-0.5c0.2,0,0.4-0.1,0.6-0.1c1.2-0.2,2.4-0.5,3.5-1.1C77.2,37.9,77.8,36.1,76.9,34.6"/><g><path class="st7" d="M37.3,22.2C37.2,22.2,37.2,22.2,37.3,22.2C37.2,22.2,37.2,22.2,37.3,22.2C37.2,22.2,37.1,22.3,37.3,22.2"/><path class="st3" d="M33.4,30c0.1-0.1,0.3-0.1,0.5-0.2c0.2-0.2,0-0.5-0.2-0.4c-0.9,0.3-2.9,1.5-2.4,2.8c0.2,0.4,0.5,0.7,0.9,0.9c0.2,0.1,0.4,0.2,0.7,0.2c0.1,0,0.2,0.1,0.4,0.1c0.1-0.1,0.2-0.3,0.1-0.4c-0.1-0.1-0.4-0.1-0.6-0.2c-0.4,0-1.2-0.5-1.2-1C31.6,31.2,32.5,30.4,33.4,30"/><path class="st3" d="M41.9,24.6c-1-0.3-2.4-0.1-3,1c-0.3,0.9,0.5,1.5,1.1,1.9c0.3,0.1,0.3,0.3,0.6,0.2c0.1-0.1,0.2-0.3,0.1-0.4c-0.1-0.1-0.2-0.1-0.4-0.2c-0.2-0.1-0.6-0.4-0.9-0.6c0,0,0-0.1-0.1-0.1c0,0,0,0,0,0c0,0,0,0,0,0c-0.2-0.5,0-1,0.7-1.2c0.3-0.1,1.2-0.3,1.4-0.2c0.1,0,0.3,0.1,0.4,0.1C42.1,25,42,24.7,41.9,24.6"/><path class="st3" d="M50.5,18.7c-0.9-0.2-2-0.4-2.9,0.2c-0.5,0.4-0.9,1-1.1,1.6c-0.1,0.5,0,1.1,0.3,1.6c0.3,0.4,0.8,0.6,1.3,0.8c0.1,0.1,0.3,0.1,0.4,0c0.2-0.4-0.2-0.5-0.5-0.6c-0.2-0.1-0.7-0.4-0.7-0.5c-0.6-0.8-0.2-1.6,0.5-2.4c0.6-0.6,1.5-0.5,2.5-0.3c0.1,0,0.3,0.1,0.4,0C50.8,19,50.7,18.7,50.5,18.7"/><path class="st3" d="M56.8,13.9c-0.5-0.3-1-0.6-1.6-0.8c-0.5-0.1-1-0.1-1.4,0.1c-0.2,0.1-0.4,0.2-0.5,0.5c-0.1,0.8-0.1,1.9,0.3,2.7c0.1,0.2,0.4,0,0.3-0.3c-0.3-0.6-0.3-2.2-0.2-2.4c0.3-0.2,1.1-0.3,1.5-0.2c0.5,0.2,1,0.6,1.5,0.7C57,14.4,57,14,56.8,13.9"/><path class="st3" d="M60.7,18.9c-1.2-0.2-2.7,0.2-3.4,1.5c-0.3,0.8,0,1.8,0.7,2.1c0.5,0.4,1.1,0.5,1.7,0.8c0.1,0.1,0.3,0.1,0.4,0c0.3-0.5-0.4-0.6-0.7-0.7c-0.6-0.2-1-0.3-1.4-0.7c-0.8-0.7-0.3-1.9,1-2.4c0.4-0.1,1.1-0.2,1.7-0.1C60.9,19.4,61,19,60.7,18.9"/><path class="st3" d="M52.3,27.2c0.5-0.3,1-0.3,1.6-0.5c0.2-0.1,0.1-0.5-0.1-0.4c-0.6,0.1-1.3,0.2-1.8,0.6c-0.9,1.2-0.3,1.9,0.8,2.5c0.7,0.3,0.7-0.5,0.2-0.4c-0.4-0.2-1-0.8-1-1C51.9,27.7,52.2,27.2,52.3,27.2"/><path class="st3" d="M47.1,30.2c-0.1-0.1-0.2,0-0.3-0.1c-1-0.1-1.5-0.8-1-1.5c0.5-0.5,1-0.7,1.6-1.1c0.2-0.2,0-0.5-0.2-0.3c-0.7,0.3-1.5,0.7-1.9,1.4c-0.4,1.1,0.4,1.8,1.3,1.9c0.2,0,0.4,0.1,0.5,0C47.2,30.5,47.2,30.3,47.1,30.2"/><path class="st3" d="M41.6,34.2c-0.1-0.1-0.2-0.1-0.3-0.1c0,0-0.1,0-0.1,0c-1.8-0.5-1.4-1.6,0-2.8c0.2-0.2,0.4-0.2,0.6-0.5c0.1-0.2-0.1-0.4-0.3-0.3c-0.7,0.5-1.7,1.3-1.9,2.2c-0.2,1.1,0.8,1.8,1.7,1.9C41.4,34.7,41.7,34.5,41.6,34.2"/><path class="st3" d="M53.6,32.8c-1.1,0.3-3.5,1.1-3.5,2.7c0.2,1,1.2,1.5,2.1,1.6c0.2,0,0.4,0.1,0.6-0.1c0.1-0.1,0.1-0.3,0-0.4c-0.2-0.1-0.4,0-0.6,0c-0.8,0-1.7-0.5-1.7-1.2c0-0.2,0.2-0.7,0.7-1c0.6-0.5,1.5-0.9,2.3-1c0.1,0,0.2,0,0.3-0.1C53.9,33,53.8,32.8,53.6,32.8"/><path class="st3" d="M60.8,30.5c-0.3-0.1-0.3,0-0.5,0c-1.4,0-1.8-0.9-0.9-1.9c0.5-0.5,1-1.1,1.5-1.4c0.2-0.1,0.1-0.5-0.2-0.4c-0.6,0.3-1,0.8-1.5,1.3c-0.3,0.4-0.7,0.8-0.8,1.3c-0.1,1.1,1.1,1.6,1.9,1.5c0.2,0,0.2,0,0.4-0.1C61,30.9,61,30.6,60.8,30.5"/><path class="st3" d="M70.9,27.8c-0.3-0.1-0.3,0-0.6,0.1c-0.9,0.2-1.8,0.3-2.4-0.3c-0.1-0.2-0.3-0.4-0.1-0.8c0.3-0.6,0.8-1.2,1.4-1.7c0.2-0.2-0.1-0.5-0.3-0.3c-2.9,2.4-1.5,4.3,1.6,3.6c0.1,0,0.3,0,0.4-0.2C71,28.1,71,27.9,70.9,27.8"/><path class="st3" d="M71.5,34.6c-0.3-0.1-0.6,0.1-0.9,0.1c-0.4,0.1-1,0.4-1.3,0.4c-0.4,0-0.7-0.3-0.8-0.8c0-0.5,0.2-1.4,0.5-2.1c0.1-0.3-0.3-0.4-0.4-0.2c-0.3,0.7-0.5,1.6-0.6,2.4c0.1,0.6,0.5,1.1,1,1.3c0.7,0.1,1.3-0.3,1.9-0.4c0.1,0,0.3,0,0.4-0.1C71.6,35,71.6,34.8,71.5,34.6"/><path class="st3" d="M61.5,37.4c-0.2-0.1-0.2,0-0.6,0c-0.3,0-1,0.2-1.2,0.1c-0.4-0.1-0.6-0.4-0.6-0.7c0-0.5,0.4-1.5,0.8-2.1c0.2-0.2-0.2-0.5-0.3-0.3c-0.4,0.7-0.9,1.6-0.8,2.5c0.1,0.5,0.4,0.8,0.8,1c0.6,0.2,1.4-0.1,1.6-0.1c0.1,0,0.3,0,0.4-0.1C61.6,37.7,61.6,37.5,61.5,37.4"/><path class="st3" d="M64.6,32.9c0,0-0.2-0.1-0.3-0.1c-0.3-0.1-0.5-0.3-0.5-0.4c-0.1-0.2,0.3-1.3,0.6-1.8c0.1-0.2,0.3-0.3,0.3-0.5c0-0.2-0.3-0.2-0.4-0.1c-0.5,0.6-1.4,2.3-0.5,2.9c0.2,0.2,0.6,0.4,0.9,0.3C64.7,33.1,64.7,32.9,64.6,32.9"/><path class="st3" d="M67.7,38c-0.5,0.3-0.9,0.6-1.1,0.4c0,0,0,0,0,0c-0.1-0.1,0-0.9,0-1c0-0.2,0.1-0.3,0.1-0.5c-0.1-0.2-0.3-0.2-0.4,0c-0.1,0.6-0.4,1.3-0.1,1.8c0.4,0.5,1.2,0,1.4-0.2c0.1-0.1,0.2-0.1,0.3-0.2C68,38.1,67.8,38,67.7,38"/><path class="st3" d="M75.4,36.6c0-0.1-0.1-0.2-0.3-0.2c-0.2,0.1-0.3,0.3-0.4,0.4c-0.6,1.1-1.6,1-2.3,0.3c-0.2-0.2-0.5,0.2-0.3,0.4c0.5,0.6,1.9,1,2.6,0.1c0.2-0.2,0.3-0.5,0.5-0.7C75.3,36.8,75.4,36.7,75.4,36.6"/></g></g></g><g><path class="st7" d="M46,8.1c-0.4-0.3-0.8-0.6-1.3-0.7C44.9,7.2,45,7,45,6.7c0.3-1.4-1-2.3-2.2-2.6C42.1,4,41.7,4,41,4c-0.9,0-1.7,0.5-2.3,1.2c-0.1,0.1-0.1,0.1-0.2,0.2c0,0,0-0.1-0.1-0.1c-0.4-0.3-0.9-0.4-1.4-0.5c-0.7-0.1-1.5-0.1-2.1,0.2c-0.9,0.4-1.2,1.4-1.1,2.3c0,0,0,0,0,0c-0.5-0.2-1-0.1-1.6-0.1c-0.7,0-1.3,0.1-1.9,0.3c-1.3,0.3-3.1,1.2-2.9,2.8c0,0.1,0,0.2,0.1,0.3c-0.1,0-0.2,0-0.3,0c-1.1,0-1.8,0.3-2.9,0.5c-1.2,0.4-2.4,0.9-3.1,1.9c-1.1,1.5-1.1,3.4,1.1,3.9c1.6,0.3,3.2-0.3,4.5-1.1c0.2-0.1,0.4-0.3,0.6-0.5c0.3,0.9,1.4,1.7,2.3,1.7c1.3,0,2.4-1,3.4-1.7c0.1,0.3,0.1,0.5,0.3,0.7c0.4,0.5,0.9,0.9,1.5,1.1c1.2,0.2,2.3-0.6,3.1-1.4c0.3-0.3,0.4-0.6,0.5-1c0.5,0.6,1.2,0.9,2.1,0.6c1.2-0.3,2.9-0.9,3.2-2.3c0-0.5-0.1-1-0.3-1.4c0.2,0,0.4,0,0.6,0c0.7-0.1,1.5-0.4,2-1c0.3-0.4,0.6-0.9,0.7-1.4C46.8,8.9,46.4,8.4,46,8.1"/><g><path class="st3" d="M24.1,14.5c-0.3,0.1-1,0.1-1,0.1c-0.3-0.2-0.2-0.6,0-0.8c0.4-0.3,0.7-0.6,1.1-0.8c0.2-0.1,0-0.4-0.2-0.3c-0.4,0.2-0.7,0.5-1,0.7c-0.2,0.2-0.4,0.3-0.4,0.6c-0.1,0.4,0.1,0.9,0.5,1c0.3,0.1,0.7,0,1,0c0.1,0,0.3-0.1,0.4-0.2C24.5,14.5,24.2,14.4,24.1,14.5"/><path class="st3" d="M32.3,8.3c-0.6,0.1-1.1,0.2-1.6,0.4c-0.4,0.1-0.7,0.4-0.9,0.7c-0.2,0.3-0.1,0.7,0.2,0.9c0.3,0.2,0.6,0.2,1,0.2c0.1,0,0.5,0,0.7,0c0.2-0.1,0.1-0.5-0.2-0.4c-1.1,0.1-2-0.1-0.9-0.9c0.4-0.2,1.2-0.5,1.7-0.5C32.7,8.7,32.6,8.3,32.3,8.3"/><path class="st3" d="M30.7,14.5c-0.1-0.1-0.2,0-0.4,0.1c0,0-0.1,0-0.2,0c-0.9,0.2-1.2-0.3-0.8-0.7c0.4-0.4,0.9-0.7,1.4-0.9c0.2-0.1,0.1-0.5-0.1-0.4c-0.7,0.3-1.5,0.6-1.8,1.4c-0.3,1,0.8,1.3,1.6,1c0.1,0,0.2-0.1,0.3-0.1C30.8,14.8,30.8,14.6,30.7,14.5"/><path class="st3" d="M37.6,13.5c-0.5,0.2-1.5,0.6-1.7,0.7c-0.3,0-0.3,0-0.4-0.3c-0.1-0.3-0.1-0.5,0-0.7c0.3-0.5,0.8-1.1,1.3-1.4c0.2-0.1,0-0.5-0.2-0.3c-0.5,0.3-0.9,0.8-1.3,1.3c-0.3,0.4-0.4,1-0.2,1.5c0.5,0.9,1.4,0.1,2.1-0.1c0.2-0.1,0.5-0.1,0.7-0.3C38.1,13.6,37.8,13.4,37.6,13.5"/><path class="st3" d="M38.6,7.2C38.1,7,37.5,7,37,7c-0.4,0-0.8,0.1-1.1,0.4c-0.7,0.8,0.2,1.4,1,1.5c0.2,0,0.5,0.2,0.7,0.1c0.2-0.2-0.1-0.4-0.3-0.4c-0.6-0.1-1-0.2-1.2-0.5c-0.1-0.1,0-0.5,0.4-0.6c0.6-0.2,1.4-0.1,2.1,0.1C38.8,7.6,38.9,7.2,38.6,7.2"/><path class="st3" d="M42.8,9.5c-0.4,0.1-0.7,0.2-1,0.1c-0.8-0.3-0.1-0.8,0.6-1.5c0.1-0.1,0.2-0.2,0.4-0.4c0.1-0.1,0.2-0.1,0.2-0.2c0-0.2-0.2-0.3-0.3-0.2c-0.5,0.3-0.9,0.8-1.3,1.2c-0.2,0.2-0.4,0.5-0.2,0.8c0.3,0.5,1,0.7,1.6,0.5C42.9,9.9,43,9.6,42.8,9.5"/><path class="st3" d="M41.7,13.5c-0.3,0.1-0.4,0.1-0.5,0.1c-0.1,0-0.1-0.4,0-0.8c0-0.1,0.2-0.3,0.1-0.4c-0.1-0.2-0.3-0.2-0.4,0c-0.4,0.8-0.4,2,0.8,1.5C42.1,13.8,41.9,13.5,41.7,13.5"/><path class="st3" d="M42.3,5.1c-0.5-0.1-1,0-1.5,0.2c-0.3,0.1-0.6,0.2-0.6,0.5c-0.1,0.2-0.1,0.5,0.1,0.6c0.2,0.1,0.4-0.1,0.3-0.3c0,0,0,0,0,0c0,0,0,0,0,0c0,0,0-0.1,0-0.1c0,0,0,0,0,0c0.2-0.2,1-0.4,1.3-0.3c0.1,0,0.3,0.1,0.4,0C42.6,5.4,42.5,5.1,42.3,5.1"/></g></g></g></g><g><g><path class="st6" d="M15.3,1.9c0.1,0.1,0.2,0.2,0.3,0.3c0.5,0.7,1,1.2,1.5,1.9c0.7,1,1.3,2.1,2,3.1c0.6,1.1,0.9,2.2,1.3,3.3c0,0.1,0,0.1,0.1,0.2c0.1,0.1,0,0.3-0.1,0.3c-0.5-0.1-0.4,0.1-1,0.3c-0.5,0.1-0.9-1.1-1-1.5c-0.3-0.7-0.6-1.3-0.9-2c-0.8-1.8-1.6-3.6-2.2-5.5C15.1,2.2,15.1,1.9,15.3,1.9"/><path class="st6" d="M9.7,4.5c2.8,2.1,5.8,4.3,7.2,7.7c0,0,0,0.1,0,0.1c0.1,0.1,0.1,0.3,0,0.3c-0.3,0.2-0.4,0.2-0.7,0.4c-0.2,0.2-0.4,0.4-0.7,0.5c-0.3,0-0.4-0.2-0.6-0.4c-0.6-0.6-1-1.2-1.4-1.9C12.7,10,11.8,8.8,11,7.5c-0.5-0.9-1-1.8-1.7-2.7C9.1,4.5,9.3,4.2,9.7,4.5"/><path class="st6" d="M5.5,9.9c2.9,1.5,6.1,2.7,8.4,5.2c0,0,0,0,0.1,0.1c0.1,0,0.1,0,0.2,0.1c0,0,0,0.1,0,0.1c0,0,0,0.1,0,0.1c0,0.1-0.1,0.1-0.2,0.1c0,0.1-0.1,0.1-0.1,0.2c-0.2,0.2-0.4,0.5-0.5,0.7c-0.2,0.3-0.3,0.9-0.8,0.6c-0.8-0.5-1.5-1.1-2.2-1.7c-1.9-1.6-3.6-3.4-5.3-5.3C5,9.9,5.3,9.7,5.5,9.9"/><path class="st6" d="M1,15.2c1.7,0.5,3.5,0.7,5.2,1.1c1.5,0.4,2.8,1.1,4.3,1.6c0.8,0.3,1.5,0.7,2.2,1.2c0,0,0.1,0,0.1,0.1c0,0,0,0,0,0c0,0,0.1,0.1,0.1,0.1c0,0.1,0,0.1-0.1,0.1c-0.1,0.5,0,1.2,0.1,1.9c0.1,0.6-0.1,0.9-0.7,0.5c-1.1-0.5-2.2-0.9-3.3-1.4c-1.7-0.8-3.3-1.7-4.8-2.7C3,17.1,1.9,16.2,1,15.7C0.7,15.6,0.6,15.1,1,15.2"/><path class="st6" d="M0.4,26.8c0-0.2,0.2-0.2,0.3-0.3c0.3-0.1,0.8-0.1,0.9-0.1c0.9-0.3,1.8-0.7,2.7-0.9c0.6-0.2,1-0.2,1.6-0.4c0.7-0.2,1.4-0.3,2-0.4c0.3-0.1,1.1-0.3,1.6-0.4c1-0.3,1.9-0.8,2.9-1.1c0.2-0.1,0.3-0.1,0.5-0.2c0,0,0,0,0,0c0,0,0.1,0,0.1,0c0.1-0.1,0.2-0.1,0.3,0c0.2,0.8,0.5,1.5,0.7,2.3c0.1,0.2,0.3,0.6,0,0.8c-0.2,0.1-0.4,0.1-0.5,0.1c-0.3,0-0.6,0.1-1,0.2c-2,0.5-4,1-6.1,1c-2,0-3.8-0.4-5.7-0.3c0,0,0,0,0,0c0,0,0,0-0.1,0C0.5,27,0.4,26.9,0.4,26.8"/><path class="st6" d="M21.9,11.2c-0.1-1.3-0.3-2.5-0.2-3.8c0.2-1.4,0.2-2.7,0.6-4.1c0.1-0.3,0.5-2.9,1.1-2.2c0.1,0.1,0,0.2,0,0.3c-0.1,0.7-0.1,1.3,0,2.1c0.2,1.6,0.2,3.3,0.5,4.9c0.1,0.8,0,1.6,0.1,2.5c0,0.2,0.1,0.4-0.1,0.6c-0.3,0.2-0.6,0-0.9-0.1c-0.1,0-0.5-0.1-0.8-0.1C22.1,11.3,21.9,11.3,21.9,11.2"/><path class="st6" d="M25.4,12.1C25.4,12.1,25.4,12.1,25.4,12.1c0-0.1,0-0.1,0-0.2c0,0,0,0,0,0c0-0.9,0.2-1.7,0.3-2.5c0.1-0.6,0.2-1.2,0.4-1.7c0.4-1.1,1-2.1,1.5-3.2c0.2-0.3,0.4-0.7,0.6-1c0.5-0.5,0.8-0.8,1.2-1.3c0.4-0.4,0.6-0.1,0.4,0.3c-0.4,1-0.9,2-1.3,3.1c-0.2,0.6-0.5,1.6-0.7,2.4c-0.5,1.4-0.9,3-1.2,4.6c-0.2,0.2-0.4,0-0.7-0.1c-0.1-0.1-0.4-0.1-0.5-0.3C25.4,12.2,25.4,12.2,25.4,12.1"/><path class="st6" d="M28.2,13.6c0.5-1.5,1.2-2.9,2.2-4.1c0.8-1,1.8-1.8,2.7-2.6C33.9,6.1,35,5.4,35.8,5C35.9,5,36,5,36.1,5.1c0.2,0.2-0.3,0.5-0.2,0.5c-0.4,0.4-0.5,0.6-0.7,1c-1.2,1.8-2,3.8-3.1,5.6c-0.4,0.7-0.7,1.2-1.2,1.9c-0.2,0.2-0.4,0.4-0.5,0.6c0.1-0.1-0.2,0.2-0.2,0.3c-0.1,0.1-0.2,0.3-0.4,0.3c-0.3,0-0.4-0.4-0.5-0.6c-0.3-0.4-0.5-0.7-0.8-1C28.3,13.8,28.1,13.7,28.2,13.6"/><path class="st6" d="M30.3,16.7c0-0.2,0.2-0.2,0.3-0.3c0.2-0.2,0.5-0.4,0.7-0.6c1-0.7,1.7-2,2.7-2.7c1-0.8,2-1.5,3-2.3c0.2-0.2,0.7-0.6,1.1-0.9c0.3-0.2,1.5-1.1,1.3-0.3c-0.3,0.6-0.8,1-1.1,1.6c-1.4,2-3,4-4.7,5.8c-0.5,0.5-0.8,1-1.4,1.4c-0.2,0.1-0.5,0.4-0.8,0.6c-0.1,0-0.1,0-0.2,0c-0.1,0-0.2,0-0.2-0.1C30.9,18.2,30.5,17.4,30.3,16.7"/><path class="st6" d="M31,22.8c0.1-0.9,0.2-1.7,0.2-2.4c0-0.2-0.1-0.5,0.1-0.6c0.3-0.1,0.3,0,0.6,0c0.3,0,0.7-0.2,1.1-0.4c2.6-1.3,5.4-1.8,8.2-2.5c0.6-0.2,1.3-0.5,1.9-0.5c0.2,0,0.3,0.2,0.2,0.4c-0.5,0.5-1.1,0.8-1.8,1.1c-0.8,0.3-1.5,1-2.4,1.4c-0.6,0.3-1.3,0.5-1.7,0.7c-0.5,0.3-1,0.7-1.5,1c-0.6,0.4-1.3,0.6-1.9,0.8c-0.2,0.1-0.7,0.4-1.1,0.5c-0.5,0.2-0.8,0.4-1.2,0.6c-0.3,0.1-0.2,0-0.4,0.1c0,0,0,0-0.1,0C31.1,23.1,30.9,23,31,22.8"/><path class="st6" d="M10.1,32.5c0.7-0.8,1.6-1.9,2.1-2.5c0.3-0.5,0.5-1,0.8-1.4c0.4-0.5,0.8-0.9,1.3-1.3c0.4-0.2,0.5-0.3,0.6-0.5c0.1-0.1,0,0,0.1-0.2c0,0,0,0,0,0c0,0,0,0,0,0c0,0,0,0,0,0c0,0,0-0.1,0-0.1c0,0,0,0,0,0c0-0.2,0.2-0.2,0.3-0.1c0.4,0.6,0.8,1.3,1.2,1.7c0,0,0.1,0.1,0.2,0.1c0.1,0.1,0.2,0.1,0.2,0.1c0.1,0.1,0.1,0.4-0.1,0.4c-0.7,0.2-1.3,0.8-2,1.2c-0.6,0.4-1.1,0.6-1.6,0.9c-1,0.7-1.8,1.3-2.6,2.1c-0.2,0.2-0.5,0.5-0.8,0.4C9.5,33,9.9,32.7,10.1,32.5"/></g><path class="st14" d="M12.4,21.5c-0.1-0.4-0.2-0.9-0.2-1.3c0-0.5,0.1-1.1,0.2-1.6c0.3-1.6,0.9-3.2,2-4.5c1-0.8,1.9-1.6,2.7-2.3c2.3-1.2,4.9-1.9,7.4-1.1c2.2,0.3,3.9,1.9,5.2,3.7c0.3,0.5,0.5,1,0.7,1.4c0.2,0.3,0.4,0.6,0.6,0.9c0.1,0.2,0.3,0.4,0.2,0.6c0,0,0,0,0,0.1c0.4,0.8,0.6,1.6,0.6,2.5c0,0.6-0.1,1.3-0.3,1.8c0,0.1,0,0.3-0.1,0.4c-0.3,1.9-1.1,3.8-2.6,5c-0.6,0.4-0.7,0.6-1.2,1c-0.6,0.4-1.4,0.7-2.1,1c-1.5,0.5-3.1,0.9-4.6,0.8c-1.2-0.2-2.3-0.5-3.4-1c-0.9-0.4-1.7-1-2.4-1.6c-0.6-0.5-1.1-1-1.5-1.7c-0.3-0.6-0.5-1.2-0.7-1.8C12.7,22.9,12.7,22.3,12.4,21.5"/><path class="st6" d="M14.1,19.5c-0.1-1,0.3-1.9,0.7-2.7c0.3-0.7,0.9-1.3,1.5-1.8c0.4-0.3,0.7-0.7,1.2-1c0.5-0.2,0.9-0.6,1.4-0.9c0.8-0.3,1.7-0.5,2.5-0.6c0.7,0,1.4,0.2,2.1,0.3c0.9,0.2,1.8,0.4,2.6,0.7c1.2,0.5,2.1,1.5,2.9,2.5c0.6,0.8,0.9,1.9,1.3,2.8c0.1,0.2-0.2,0.3-0.3,0.1c-0.3-0.8-0.7-1.7-1-2.4c-0.3-0.5-0.6-0.8-1.1-1.3c-1.1-1.3-2.6-1.7-4.3-2c-0.7-0.1-1.5-0.3-2.1-0.3c-0.8,0-1.5,0.3-2.3,0.5c-0.5,0.2-1,0.6-1.5,0.9c-0.5,0.4-1.1,0.9-1.5,1.3c-0.6,0.6-1,1.1-1.3,1.9c-0.3,0.7-0.4,1.3-0.4,1.9c0,1.4,0.1,2.6,0.8,3.9c0.4,0.8,0.6,1.5,1.1,2.1c0.5,0.7,1.2,1.2,2,1.6c0.9,0.5,1.8,0.4,2.8,0.4c0.7,0,1.3,0,2-0.1c0.3-0.1,1.1-0.3,1.6-0.4c0.9-0.3,1.8-0.9,2.4-1.6c0.3-0.4,0.8-0.7,0.9-1c0.1-0.2,0.1-0.2,0.1-0.3c0.2-0.8,0.4-1.6,0.3-2.4c-0.1-0.8-0.5-1.7-0.8-2.5c-0.4-1.1-1.1-2.2-2-2.9c-0.3-0.2-1-0.5-1.3-0.6c-0.6-0.1-1-0.1-1.6-0.1c-0.9,0-1.7,0.3-2.6,0.7c-0.6,0.2-1.4,0.5-1.7,0.8c-0.2,0.2-0.4,0.5-0.6,0.8c-0.2,0.3-0.3,0.4-0.4,0.7c-0.4,1.2-0.5,2.7,0.1,3.9c0.3,0.8,1.1,1.4,1.9,1.8c1.1,0.5,2.3,0.7,3.4,0.2c0.7-0.3,1.2-0.6,1.6-0.9c0.6-0.8,1-1.5,0.8-2.5c-0.1-0.4-0.3-1.2-0.6-1.6c-0.2-0.2-0.4-0.4-0.7-0.5c-1.1-0.7-2.9-0.4-3.5,0.4c-0.2,0.4-0.4,0.9-0.2,1.4c0.2,0.6,0.6,1.2,1.1,1.1c0.2,0,0.4-0.1,0.6-0.2c0.1-0.1,0.2-0.1,0.3,0c0.1,0.1,0,0.3-0.2,0.3c-0.2,0.1-0.4,0.1-0.6,0.2c-0.9,0.2-1.5-1-1.6-1.8c0-0.4,0.1-0.7,0.3-1.1c0.2-0.4,0.6-0.6,1.1-0.8c1.2-0.5,2.6-0.2,3.5,0.7c0.3,0.3,0.5,0.8,0.6,1.3c0.2,0.5,0.3,1.1,0.2,1.7c-0.2,0.7-0.5,1.3-1,1.8c-0.6,0.5-1.6,1-2.5,1.1c-1.5,0.2-3-0.4-4.1-1.5c-0.6-0.7-0.9-1.6-1-2.5c-0.1-0.9,0.1-1.9,0.4-2.8c0.1-0.2,0.3-0.4,0.5-0.7c0.2-0.3,0.4-0.5,0.7-0.7c0.8-0.5,1.7-0.8,2.6-1.2c1.4-0.5,3.1-0.5,4.4,0.2c0.5,0.2,0.9,0.6,1.2,1c0.4,0.4,0.7,0.9,0.9,1.4c0.3,0.5,0.4,1,0.6,1.5c0.3,0.6,0.5,1.3,0.6,2c0.1,0.7,0,1.4-0.2,2c-0.1,0.4-0.2,0.7-0.4,1c-0.7,0.7-1.4,1.6-2.3,2c-0.6,0.4-1.2,0.6-1.9,0.8c-0.6,0.2-1.1,0.3-1.7,0.3c-1.2,0.1-2.4,0.1-3.5-0.2c-0.7-0.2-1.2-0.6-1.7-1c-1-0.8-1.6-2-2.1-3.2C14.2,22.1,14,20.8,14.1,19.5"/></g></g></g></svg>