<?xml version="1.0" encoding="utf-8"?>
<!-- Generator: Adobe Illustrator 27.0.0, SVG Export Plug-In . SVG Version: 6.00 Build 0)  -->
<svg version="1.1" xmlns="http://www.w3.org/2000/svg" xmlns:xlink="http://www.w3.org/1999/xlink" x="0px" y="0px"
	 viewBox="0 0 136.5 131.1" style="enable-background:new 0 0 136.5 131.1;" xml:space="preserve">
<style type="text/css">
	.st0{fill:#FFFFFF;}
	.st1{fill:#8CA2CF;}
	.st2{clip-path:url(#SVGID_00000047040927820480916700000009689531213269654462_);}
	.st3{fill:#627EB5;}
	.st4{fill:#8CA05C;}
	.st5{fill:#677724;}
	.st6{fill:#E0A955;}
	.st7{fill:#BBD7FF;}
	.st8{fill:#3C5987;}
	.st9{fill:#669CD3;}
	.st10{clip-path:url(#SVGID_00000151525405559830187540000004569500742496682650_);}
	.st11{fill:#92C4FC;}
	.st12{fill:#FAF4D2;}
	.st13{fill:#FCCB7C;}
	.st14{clip-path:url(#SVGID_00000013883899831578629390000016688531444369745304_);}
	.st15{clip-path:url(#SVGID_00000138559933252541138420000007049234438541954454_);}
	.st16{fill:#C5CAF0;}
	.st17{clip-path:url(#SVGID_00000130629572070916991220000011341764894632266905_);}
	.st18{clip-path:url(#SVGID_00000167382629179348477520000016040973704870168763_);}
	.st19{clip-path:url(#SVGID_00000066478918083730968460000000084784851389597884_);}
	.st20{clip-path:url(#SVGID_00000144331953404391837710000012854645172868649600_);}
	.st21{clip-path:url(#SVGID_00000073698312267631651450000010198755809338914704_);}
</style>
<g id="BACKGROUND">
</g>
<g id="OBJECTS">
	<g>
		<path class="st12" d="M134,76.6c-0.4-3.4-1-6.8-1.9-10c-0.9-3.9-1.4-8-2.9-11.8c-1.5-4-4-7.4-6.3-11c-3.4-5.3-7.2-10.4-11.5-15
			c-5.3-5.7-12-9.7-18.3-14.1c-6.1-3.6-12.3-8-19.5-9c-1.2-0.1-2.4-0.1-3.5,0c-0.2-0.1-0.4-0.1-0.6-0.2c-2.7-0.7-5.6-0.9-8.3-0.2
			c-4.3,1.4-8.2,3.6-12.1,5.9c-2.7,1.5-5.4,3.2-7.9,5.1c-1.2,0.8-2.4,1.5-3.5,2.4c-0.7,0.7-1.4,1.3-2.1,2
			c-7.5,6.2-14.1,13.4-19.2,21.5c-2.6,4.8-5.3,9.7-7.5,14.7c-1.4,3.7-2.6,7.5-3.9,11.3c-1.2,3-1.6,6.3-2,9.5
			c-0.7,2.1-0.9,4.4-1.2,6.6c-0.3,2.6-0.2,5.2-0.1,7.8c0.3,2.1,0,4.7,0.7,8.6c0.3,1.4,0.7,2.7,1.2,4c0.5,1.8,0.9,3.6,1.5,5.3
			c0.6,1.7,0.5,1.2,1.4,3.5c0.1,0.3,0.3,1,0.5,1.4c0.2,0.5,0.3,0.9,0.6,1.4c0.7,1.1,1.6,2.1,2.5,3.1c1.1,1.9,2.6,3.6,4.3,5
			c-0.1-0.1-0.2-0.1,0.1,0.1c1.3,1.3,2.9,2.1,4.5,2.8c1.1,0.6,2.2,1,3.4,1.2c-0.4-0.1-0.7-0.2-0.2-0.1c0.1,0,0.2,0,0.3,0.1
			c0.1,0,0.3,0,0.4,0.1c-0.1,0-0.2,0-0.3,0c2.9,0.7,5.9,0.8,8.9,0.8c4.3-0.1,8.5-1.4,12.7-2.2c1.8-0.2,3.6-0.9,5.4-1.3
			c2.7-0.6,5.4-0.9,8-1.5c4-0.7,8-1.3,12-2.1c-0.3,0-0.7,0.1-1,0.1c5.9-0.4,6.7-0.9,11.7-0.6c6.6,0.3,9,0.5,15.8,3.3
			c1.4,0.6,2.8,1.1,4.3,1.4c-0.1,0-0.1,0,0.2,0c0.2,0,0.4,0.1,0.5,0.1c-0.1,0-0.3,0-0.4-0.1c0,0,0,0,0,0c1.9,0.4,3.7,0.8,5.7,0.5
			c-0.3,0-0.7,0.1-1,0.1c3-0.3,3.1,0.3,7.4-1c3.6-1.4,7.5-2.6,10.2-5.4c3.2-3.1,5.5-7,7.5-11c0.9-2,1.1-4.3,1.8-6.3
			c1-2.9,1.3-5.9,1.9-8.9C135.1,88.5,135,82.5,134,76.6"/>
		<g>
			<path class="st13" d="M50.2,47.2c-0.2-0.5-0.8-1.8-0.9-1.8c-0.2-0.3-0.4-0.6-1-0.8c-0.1-0.1-0.2-0.1-0.3,0
				c-0.3,0-0.8,0.1-0.9,0.4c-3.9,1.9-7.9,3.9-10.6,7.4c-2.5,3.5-4.6,7.3-5.9,11.4c-0.3,1.2-0.8,2.4-0.8,3.3c0.3,0.6,0.9,0.2,1.3,0
				c0.6-0.4,1.3-0.6,2-1c2-0.9,3.6-1.1,5.6-2c2-0.9,3.5-2,4.8-3c1.7-1.4,3-2.6,4.1-4.5c0.8-1.3,1.6-2.6,2.1-4
				c0.2-0.9,0.7-1.8,0.9-2.7C50.7,49,50.4,48,50.2,47.2"/>
			<path class="st13" d="M47.7,45.5C47.7,45.5,47.7,45.5,47.7,45.5C47.7,45.5,47.7,45.5,47.7,45.5C47.7,45.5,47.7,45.5,47.7,45.5
				C47.7,45.5,47.7,45.5,47.7,45.5"/>
			<path class="st13" d="M60.7,54.8c-0.1-1.4-0.4-2.9-1-4.1c-0.3-0.5-0.7-0.9-1.3-1.1c-0.4-0.1-0.8,0-0.7,0c-0.1,0-0.1,0-0.2,0
				c0,0,0,0,0,0c0,0,0,0,0,0c0,0-0.1,0-0.1,0c0,0,0,0,0.1,0c-0.1,0-0.2,0-0.3,0.1c0,0-0.1,0-0.1,0c-0.2,0-0.4,0-0.6,0
				c-1.3,0.1-2.4,0.8-3.3,1.6c-1.4,1.1-2.4,2.4-3.3,3.8c-1.5,2.2-2.6,4.7-3.3,7.1c-0.7,2.3-0.7,4.7-0.6,7.1c0.1,1.5,0,3,0.5,4.8
				c0.4,0.8,1.2,0.9,1.6,0.1c0-0.1,0.9-0.8,1.3-1.1c3.1-2.4,6.2-5,8.3-8.3C59.6,61.9,61,58.4,60.7,54.8"/>
			<path class="st13" d="M57.5,49.7C57.5,49.7,57.5,49.7,57.5,49.7C57.5,49.7,57.5,49.7,57.5,49.7C57.5,49.7,57.5,49.7,57.5,49.7"/>
			<path class="st13" d="M74.9,80.2c-0.2-1.1-0.3-2.1-0.3-3.4c0-4.1-0.2-8.1-0.8-12.2c-0.1-0.7-0.1-1.5-0.3-2.5
				c-0.3-1.3-0.8-2.6-1.3-3.9c-0.3-0.7-0.5-1.4-0.8-2.1c-0.4-1.5-0.9-2.9-2.2-3.8c0,0,0,0-0.1-0.1c-0.3-0.3-0.6-0.6-1.1-0.7
				c-1.1-0.4-1.9,0.3-2.5,1.1c-0.1,0-0.3,0.1-0.4,0.2c-1.1,1.9-2.1,3.8-2.5,6c-0.3,1.4,0.1,3.4,0.2,4.4c0.3,2.6,1.1,5.1,2.1,7.5
				c1.1,2.2,2.5,4.2,4,6.2c0.5,0.7,1.1,1.4,1.6,2.2c0.4,0.5,0.7,1,1.2,1.5c0,0,0,0,0.1,0.1c0.5,0.5,1,1.1,1.5,1.6
				c0.3,0.3,0.8,0.6,1.2,0.4C75.6,82,74.9,80.9,74.9,80.2"/>
			<path class="st13" d="M88.9,70.5c-0.7-1.9-1.2-3.9-1.5-5.9C86.5,61,85.8,57.3,84,54c-0.9-1.5-1.9-3-3.5-3.9
				c-0.5-0.3-1-0.7-1.6-0.7c-1.8,0.1-3.4,1.6-3.9,3.3c0,0.1,0,0.1,0,0.2c-2.3,4.7,2.8,10.2,5.9,13.9c1.1,1.5,2.4,2.7,3.9,3.7
				c0.6,0.5,1.3,1,2,1.4c0.7,0.4,0.8,0.6,1.5,1.1c0.3,0.2,1.1,0.6,1.3-0.3C89.4,71.9,89.1,71.2,88.9,70.5"/>
			<path class="st13" d="M49.9,35.2c0-0.2-0.1-0.4-0.2-0.5c-1.2-1.1-2.8-1.9-4.3-2.5C43.7,31.5,42,31,40.2,31
				c-2.3-0.2-4.5,0.2-6.7,0.7c-3.3,0.7-6.8,1.9-9.6,2.6c-1.8,0.9,0.8,1.8,1.6,2.2c1.8,0.9,3,1.5,4.9,2.3c1.9,0.8,3.9,1.3,5.8,1.8
				c2.6,0.8,5.3,1.5,8,1.5c1.8,0.2,3.5-0.1,5-1.2c0.5-0.3,1-0.6,1.3-1c0.4-0.6,0.6-1.3,0.7-2.1C51.3,36.8,50.8,35.9,49.9,35.2"/>
			<path class="st13" d="M38.2,44c-0.5-0.3-1.1-0.4-1.7-0.6c-1.1-0.3-2.3-0.5-3.4-0.5c-0.1,0-0.3,0-0.4,0c-0.2,0-0.4,0-0.5-0.1
				c-2.2-0.1-4.4,0.4-6.4,1.1c-0.6,0.3-2.5,0.8-2.9,1.1c-0.3,0.1-0.6,0.3-0.6,0.6c0.1,0.8,1.2,0.7,1.9,0.9c1,0.1,2.2,0.4,3.5,0.7
				c2.5,0.5,5,0.7,7.5,0.4c1,0,2.2-0.3,2.7-0.5c0.6-0.2,1.2-0.4,1.7-0.8C40.9,45.1,39.6,44.4,38.2,44 M30.5,46.6
				C30.4,46.6,30.4,46.6,30.5,46.6c1.4,0.1,2.8,0.1,4.3,0c0.7-0.1,1.4-0.2,2.1-0.3c-0.2,0.1-0.4,0.1-0.8,0.2
				C34.1,46.7,32.6,46.9,30.5,46.6"/>
			<path class="st13" d="M61,69.1c-1.4-2.2-2.4,2-2.9,2.9c0,0.1-0.1,0.1-0.1,0.2c-0.7,1.4-1.5,2.8-1.9,4.4c-0.4,2-0.7,4.2,0,6.3
				c0.1,0.4,0.4,0.8,1,0.5c0.4-0.6,0.7-1.3,1-1.9c1-2.1,1.6-3.4,2.3-5.3c0.4-1.1,0.8-2.1,0.9-3.2C61.4,71.4,61.4,70.3,61,69.1"/>
			<path class="st13" d="M84,75.2c-0.4-0.7-0.8-1.2-1.3-1.8c-0.2-0.4-0.7-1-0.6-0.8c-0.2-0.3-0.4-0.6-0.7-0.8
				c-0.1-0.1-0.2-0.1-0.3-0.2c-0.2-0.3-0.4-0.6-0.8-0.8c-0.4-0.3-0.9-0.1-1,0.4c0,0,0,0,0,0.1c-0.2,0.4-0.3,0.8-0.3,1.1
				c0,1.2,0,2.5,0.2,3.7c0.2,1,0.5,1.4,0.7,2c0.2,0.9,1.6,3.8,2.6,4.8c0.1,0.1,0.2,0.1,0.3,0.2c0,0,0,0,0,0c0.4,0.4,1,0.2,1.1-0.3
				c0.2-1,0.3-2.1,0.3-3.1C84.5,78.1,84.7,76.6,84,75.2"/>
			<path class="st13" d="M29.2,52C29.2,52,29.2,52,29.2,52c-0.1,0-0.1,0-0.2,0c-1.5,0.4-3.1,0.7-4.4,1.7c-2.2,2-2.7,3.7-4.1,6.1
				c-0.1,0.2-0.2,0.3-0.2,0.5c0,0.3,0.3,0.6,0.6,0.5c0.3-0.1,0.5-0.3,0.8-0.4c0.7-0.3,1-0.4,2-0.7c1.6-0.5,2.9-1.5,4-3
				c1.1-1.4,1.7-2.4,2.1-4C29.9,52.3,29.6,51.8,29.2,52"/>
			<path class="st13" d="M20.5,59.7C20.5,59.8,20.5,59.8,20.5,59.7C20.4,59.9,20.4,59.8,20.5,59.7"/>
			<polyline class="st13" points="20.5,59.7 20.5,59.7 20.5,59.7 20.5,59.7 			"/>
			<path class="st13" d="M57.2,24.8c-0.2-6-7.6-10.1-12.3-12.2c-1.6-0.8-3.3-1.5-4.9-2.2c-1.2-0.5-1.9-1-3.4-1.4
				c-0.3-0.1-0.6-0.3-1-0.2c-0.6,0.1-0.6,0.8-0.2,1.2c0.7,0.9,1.4,2.2,2.1,3.6c1.3,2.7,2.2,6,4.2,8.9c0.7,1.2,1.8,2.2,2.7,3.3
				c1.1,1.4,3.2,3,4.4,3.4c1.9,0.9,3.9,2.1,6.1,1.4c1.3-0.5,2.3-1.7,2.6-3C57.7,26.6,57.5,25.6,57.2,24.8 M50,16.4
				c1.4,0.9,2.6,1.8,3.6,2.9C52.5,18.2,51.3,17.3,50,16.4 M55.6,22.1c-0.2-0.2-0.3-0.5-0.5-0.7c-0.3-0.6-0.6-1.1-1-1.7
				C54.7,20.4,55.2,21.2,55.6,22.1"/>
			<path class="st13" d="M40.4,27.1c0-0.8-0.3-1.6-0.7-2.2c-1-3.5-3.2-4.3-7-6.1c-1.1-0.6-3.5-1.6-5.1-2.3c-0.5-0.2-1-0.4-1.6-0.5
				c-0.2-0.1-0.5-0.1-0.7,0c-0.7,0.5,0.2,1.1,0.6,1.5c0.5,0.4,1.1,0.9,1.7,1.5c2.7,2.8,5.2,6.5,7.9,8.7c0.6,0.4,1.3,0.7,2.1,0.9
				c0.1,0.1,0.3,0.2,0.4,0.2c0.6,0.2,1.2-0.1,1.5-0.6C40,27.8,40.3,27.5,40.4,27.1"/>
			<path class="st13" d="M111.4,64.2c-0.3-1.2-2.2-2.7-3.3-4c-2.7-4.1-7.5-7.8-11.1-10.9c-2.5-1.7-4.5-4.4-8-4.9
				c-0.7-0.1-1.4-0.1-2.1,0.1c-0.4,0.1-0.9,0.2-1.2,0.5c-0.4,0.4-0.4,0.9-0.4,1.4c0,0.2,0.1,0.4,0.3,0.6c0.8,2.5,2,5,3.6,7.1
				c1.3,1.5,3,2.6,4.6,3.7c4.2,3.1,8.8,4.2,13.9,6C108.5,64,111.6,65.9,111.4,64.2"/>
			<path class="st13" d="M101.6,73.4c-1-2.8-2.8-6.1-4.6-7.9c-0.8-1.2-1.9-2.2-3.1-3.1c-0.6-0.5-1.4-0.9-2.2-1.1
				c-0.4,0.1-0.5,0.3-0.5,0.5C91,62,90.9,62.2,91,62.4c0.9,3.2,2.6,6.1,5,8.5c1,1.1,3.2,2.2,4.1,2.6c0.3,0.1,0.6,0.4,0.9,0.5
				C101.3,74,101.6,73.7,101.6,73.4"/>
			<path class="st13" d="M106.7,47.5c-1.9-1.4-3.7-2.9-5.7-4.3c-1-0.6-2.2-0.9-3.3-1.3c-0.8-0.1-2.9-0.7-2.9,0.6
				c0.4,0.8,1,1.4,1.8,2c2.1,2.2,4.5,4.1,7.7,4.3c1,0.1,2,0.3,3,0.4c0.1,0-0.1,0-0.1,0c0.2,0,0.4,0,0.5-0.1
				C108.4,48.4,107.2,47.9,106.7,47.5"/>
			<path class="st13" d="M114,31.9c-2.3-0.4-3.9-0.6-6-0.8c-4-0.5-7.3-1.4-11.4-1.4c-3,0.1-6.1,0.4-8.9,1.5c-1.4,0.7-2.7,1.7-4,2.6
				c-0.1,0.1-0.1,0.2-0.1,0.3c0,0.1,0,0.2,0.1,0.3c-0.3,0.3-0.5,0.6-0.5,1c0,0.6,0.4,1.1,0.5,1.7c0.2,0.7,0.7,1.3,1.3,1.7
				c0.6,0.4,1.3,0.5,1.9,0.6c1.9,0.2,3.1,0,5-0.2c3.1-0.4,6.1-1.3,9.1-2c3.4-0.8,6.7-2.1,10.1-3c1.2-0.4,3-0.5,4-1.2
				C116,32.1,114.7,32,114,31.9"/>
			<path class="st13" d="M99.9,8.6c-0.1,0-0.2,0.1-0.4,0.2c-0.1,0-0.2,0.1-0.3,0.1C99,8.9,98.8,9,98.7,9.1c-0.2-0.1-0.4,0-0.6,0.1
				c-0.3,0.1-0.6,0.3-0.9,0.5c-2.5,1.1-4.9,2.4-7.3,3.6c-1.5,0.9-3.2,1.6-4.7,2.6c-0.7,0.5-1.3,1-1.9,1.5c-3.8,2.7-7,6.2-5.4,10.3
				c0.2,0.3,0.3,0.6,0.6,0.7c0,0,0,0,0,0c0.2,0.3,0.4,0.6,0.7,0.8c2.2,0.6,4.3-0.9,6.1-2.8c0,0,0.1-0.1,0.1-0.1c1.6-1.1,3-2.5,4.3-4
				c2.2-2.8,4.4-5.6,6.7-8.4c1.2-1.6,3.2-4,3.7-4.5v0c0,0,0.1,0,0.1-0.1C100.7,9.2,100.4,8.5,99.9,8.6"/>
			<path class="st13" d="M75.4,3.6c0,0,0-0.1,0-0.1C75.5,3,74.9,2.7,74.5,3c-0.1,0.1-0.1,0.3-0.2,0.4c0,0,0,0,0,0l0,0c0,0,0,0,0-0.1
				c0,0,0-0.1,0-0.1c0,0,0,0,0,0c0,0,0,0,0,0c0,0,0,0.1-0.1,0.1c-0.1,0-0.3,0-0.5,0.1c-0.5,0.6-0.5,0.7-1.1,1.2
				c-3.6,3-7.2,7.5-9.1,11.4c-0.6,1.1-0.8,2.5-0.5,3.8c0.3,0.8,0.7,1.6,1,2.3c0.1,0.4,0.2,0.8,0.5,1.1c0,0,0.1,0,0.1,0.1
				c0.1,0.2,0.2,0.3,0.4,0.4c0.1,0,0.1,0,0.2,0c2.4,1.5,4.7-0.4,6-2.6c0.8-1.3,1.5-4,1.8-5.7c0.5-1.8,0.9-3.5,1.1-5.3
				c0.8-2,0.8-4.3,1.1-6.4c0,0,0,0,0-0.1C75.4,3.7,75.4,3.7,75.4,3.6C75.4,3.6,75.4,3.6,75.4,3.6"/>
			<path class="st13" d="M78.7,17.5C78.7,17.5,78.6,17.5,78.7,17.5C78.6,17.5,78.6,17.5,78.7,17.5C78.6,17.5,78.6,17.5,78.7,17.5"/>
			<path class="st13" d="M85.5,7.2c-0.3,0-1.2,0.7-1,0.6c-1.6,0.9-3.2,1.9-4.5,3.3c-1.3,1.8-2,3.9-2.6,6c0,0.3,0.3,0.4,0.5,0.4
				c0.2,0.2,0.5,0.3,0.8,0.1c0.1,0,0.1-0.1,0.2-0.1c0,0,0,0,0.1,0c0.1-0.1,0.2-0.1,0.3-0.1c0.5-0.3,0.9-0.8,1.4-1.2
				c1-0.9,1.4-1.5,2.2-2.5c1.2-1.7,2-3.7,2.8-5.2c0.1-0.2,0.3-0.4,0.3-0.6C86.1,7.5,85.8,7.1,85.5,7.2"/>
			<path class="st13" d="M78.7,17.5C78.7,17.5,78.7,17.5,78.7,17.5C78.7,17.4,78.7,17.5,78.7,17.5"/>
			<path class="st13" d="M59.6,14.6c0.1-0.2,0.2-0.4,0.2-0.7c0-0.2,0-0.5,0-0.7C60,11.1,60,9,59.7,6.9c-0.8-2.3-2.6-4.7-3.8-6.3
				c-0.9-0.5-1.3,0.4-1.1,1.1c0.1,0.7,0.1,0.8,0.2,1.8c0.2,1.5,0.2,3.1,0.1,4.6c0.1,1.3,0.3,1.8,0.4,3c0.3,1.4,0.9,3.1,2.2,3.9
				c0.5,0.3,1.1,0.2,1.6-0.1C59.4,14.9,59.6,14.8,59.6,14.6"/>
			<path class="st6" d="M66.4,18.6L66.4,18.6C66.3,18.6,66.3,18.6,66.4,18.6"/>
			<g>
				<path class="st6" d="M91.8,37.9c-0.5-1.5-0.9-3.1-1.6-4.6c-0.9-1.7-1.9-2.5-2.9-4.1c-0.4-0.6-0.9-1.1-1.4-1.7
					c-0.6-0.8-1.3-1.7-2.1-2.3c-0.9-0.7-1.9-1.5-2.9-2.1c-0.9-0.5-1.9-0.9-2.8-1.5c-2.1-1.2-5.1-2-7.8-2.7c-0.6-0.1-1.5-0.1-1.7-0.1
					c-1-0.1-1.5-0.1-2.2-0.2c0,0,0.1,0,0,0c-0.1,0-0.2,0-0.2,0c-0.3,0-0.5,0-0.8,0c-0.1,0-0.4-0.1-0.5-0.1c-0.1,0-0.3,0-0.4,0
					c-0.1,0-0.1,0-0.2,0c-0.9,0-1.2,0.3-2.2,0.5c-0.2,0.1-0.6,0.2-0.9,0.3c-2,0.4-4,0.9-5.7,2c-1.2,0.8-2.2,2-3.2,3
					c-3.5,3.4-5.7,7.1-7.1,11.6c-0.8,3.3-1.1,6.8,0,10.1c0.5,1.9,1.3,3.7,2.6,5.2c1.7,1.2,2.7,2.4,4.4,3.8c1,0.7,2,1.4,3.1,2
					c0.7,0.5,1.5,1,2.3,1.3c1.7,0.6,3.6,1.1,5.4,1.2c1.8-0.1,2.9,0,4.6-0.3c4.2-0.6,8.2-1.8,12.1-3.4c2.1-0.7,4.6-2.5,6.6-3.9
					c2.6-2.3,4-5.7,5-8.9C92,41.3,91.9,39.5,91.8,37.9"/>
				<path class="st13" d="M83.9,37.6c-0.4-3.1-1.2-6.4-3.9-8.4c-1.5-1.3-2.9-1.4-4.4-2.5c-1.6-1.2-3.3-2.1-5.2-2.7
					c-2.4-0.9-5-1.1-7.5-0.5c-2,0.1-3.6,1.4-5.2,2.3c-1.3,0.8-2.4,1-3.7,1.9c-1.7,1.4-3.1,3.2-4.1,5.2c-0.6,1.6-1,3.4-1,5.1
					c0.1,0.4,0.7,0.3,0.7-0.1c0.2-1.8,0.4-3.3,1.2-5c0.6-1.2,1.8-2.6,2.4-3.3c1.4-1.6,2.8-2,4.5-2.9c1-0.6,2.8-1.6,3.4-1.8
					c1.4-0.4,2.5-0.4,4.1-0.6c0.4-0.1,3,0.3,3.3,0.4c1.3,0.4,3.2,1.1,4,1.5c1.2,0.6,2.2,1.5,3.3,2.1c1,0.6,2,0.9,2.7,1.4
					c0.8,0.5,2,1.6,2.5,2.5c1.5,2.6,1.9,5.8,1.8,8.9c0.1,2.9-1.2,5.2-3,7c-0.3,0.3-0.7,0.6-1.1,0.9c-0.2,0.1-0.3,0.3-0.5,0.4
					c0,0,0,0,0,0c-1.1,0.6-2.3,1-3.4,1.6c-0.6,0.3-0.6,0.3-1.4,0.4c-1.2,0.3-1.5,0.4-3,0.8c-1.4,0.5-1.5,0.9-2.7,0.8
					c-1.1,0-2.1-0.3-3.2-0.5c-1.2-0.2-2.4-0.2-3.2-0.6c-1.4-0.5-2-0.8-2.9-1.8c-0.8-1.4-1.6-3.7-2-5.9c-0.3-2-0.4-5.7,0.6-7.5
					c1.2-2.2,3.2-3.6,5.4-4.2c1.5-0.2,2.4-0.8,3.6-1c0.6,0.1,3.1,0.1,3.7,0.4c0.2,0.1,0.9,0.5,1.2,0.9c0.5,0.6,1.9,1.6,2.1,1.7
					c0.4,0.3,0.6,1.2,1.1,1.9c0.6,1.3,0.7,3.1,0.3,4.9c-0.1,0.8-0.7,1.9-1.5,2.9c-0.3,0.4-1.8,1.7-2.4,1.9c-0.8,0.4-1.5,0.3-2.6,0.4
					c-0.7,0.1-0.7,0.1-1.4,0c-1.2-0.2-2.6-0.8-2.9-1.2c-1.2-1.1-1.6-3.7-1.1-4.9c0.9-1.5,2.3-2.5,3.9-2.4c0.8,0.1,1.6,1.2,1.4,2.6
					c-0.1,0.8-0.5,1.3-1.2,1.5c0,0,0,0-0.1,0c0,0-0.1,0-0.1,0c0,0,0,0,0,0c-0.1,0-0.3,0-0.3,0c-0.6,0.3-0.2,1.1,0.4,1
					c2.3-0.3,2.9-3.7,1.4-5.2c-1.1-1.2-2.4-0.9-3.6-0.5c-1.5,0.8-2.9,2.1-3,3.8c-0.3,1.8,0.3,3.7,1.5,5c1.5,1.1,3.5,1.6,5.4,1.2
					c0.4,0,2-0.1,2.8-0.5c1.1-0.7,2.2-1.5,3-2.6c1.9-2.7,2.2-6.4,0.6-9.3c-0.5-1.6-2.1-2-2.9-3c-0.5-0.6-1.2-1-1.9-1.3
					c-1-0.2-2.1-0.2-3.2-0.3c-1.4-0.2-2.4,0.5-3.5,0.8c-2.9,0.4-5.5,2.3-6.9,4.8c-0.8,1.7-1.1,3.7-1,5.6c0.2,2.4,0.5,4.9,1.6,7.4
					c0.3,0.5,0.5,1.1,0.8,1.6c0.5,0.8,1.3,1.4,2.1,1.8c2,1,4.3,1,6.4,1.4c1.2,0.3,2.1,0.2,3,0.1c0.7-0.2,1.6-0.8,1.9-0.8
					c1.2-0.3,2-0.8,3.5-1c1.3-0.6,2.6-1.2,3.9-1.8c1.9-1.3,3.6-3.1,4.6-5.1C84.2,43,84,40.2,83.9,37.6"/>
			</g>
		</g>
		<g>
			<path class="st0" d="M15.4,97.6c-0.4,0.6-0.1,1.4,0.7,1.3c0.3-0.1,0.5-0.3,0.5-0.5c0,0,0,0,0,0c0,0,0,0,0,0
				c0.1-0.1,0.1-0.2,0.2-0.3c0-0.1,0.1-0.2,0.2-0.3c0.1-0.1,0.1-0.1,0.2-0.2c0.2-0.1,0.5-0.2,0.9,0c0,0,0,0,0,0
				c0,0.1,0.1,0.1,0.1,0.1c0,0,0,0,0,0.1c0,0.1,0,0.1,0,0.2c0,0,0,0.1,0,0.1c-0.1,0.6-1.2,2.2-1.3,2.4c-1.3,1.5-3.7,2.3-4.7,2
				c-1.1-0.2-2-2.2-2.2-3.2c-0.1-0.6,0.7-2.8,0.8-3.2c0.6-1.1,1.5-2,2.3-2.9c1.3-1.6,2.9-3.2,3.1-5.4c0-0.6,0.2-1.2,0.1-1.7
				c-0.2-0.7-0.6-1.4-1.1-1.8c-0.9-1-2.9-1.3-3.6-1.1c-1.3-0.1-3.3,0.9-3.5,2.9c-0.1,1-0.5,2.1-0.1,3.1c0.3,0.4,1,0.1,1-0.3
				c-0.1-2.7,0.6-4.4,2.4-4.4c1.6-0.3,3.3,0.6,3.6,1.8c0.1,0.5-0.1,1.7-0.3,2.4c-0.7,2.3-3.5,4.4-5,6.8c-0.5,1.2-1,2.4-1.1,3.7
				c0,1,0.4,1.9,0.8,2.7c1.4,3,4.8,2.2,7.1,0.7c1.5-1,2.5-2.6,3-4.3C19.8,95.5,16.3,95.3,15.4,97.6"/>
			<path class="st0" d="M23.4,66.6c-2.5-0.8-5.4-1.1-8-0.6c-1.9,0.5-3.2,2.1-4.5,3.5c-0.7,0.9-1.4,1.8-1.8,2.8c0,0.1,0,0.3,0.1,0.4
				c0.2,0.3,0.7,0.3,0.8,0c1.4-2.6,3.5-5.2,5.9-5.8c3.6-0.3,7.9,0.2,9,2.6c1.1,1.9,1,3.5,0.7,6c-0.3,1.9-1.4,3.1-3.8,3.3
				c-1.6,0.5-3.2,0.4-3.7,0.1c-2.1-1-2-2.8-1.3-4.3c0.6-0.9,1.4-1.1,2.6-0.8c0.6,0.2,0.7,0.3,0.9,0.5c0,0,0,0,0,0c0,0.1,0,0.1,0,0.1
				c0,0.2,0,0.3,0.2,0.5c0.3,0.3,0.9,0.3,1.1-0.1c0.6-1.7-1.8-2.5-3.1-2.5c-3.2-0.1-4.5,4.4-2.6,6.6c1.6,1.9,4,1.9,6.3,1.3
				c1-0.2,2-0.4,2.8-0.9c0.8-0.5,1.3-1.3,1.7-2.1C27.9,73.7,27.6,68.1,23.4,66.6"/>
			<path class="st0" d="M46.4,83.6c-0.1-2.7,0-6.2-2.7-7.7c-2.3-1.1-5.3-1.5-7.4-1.2c-2.2,0.5-3.8,2.2-5.3,3.8
				c-1.1,1.3-1.5,2.9-2,4.5c-0.4,2.1-1,4.1-0.9,6.3c0.1,1.6,0.3,3.8,0.8,4.8c0.1,0.3,0.2,0.6,0.6,0.6c0.4,0,0.7-0.3,0.6-0.7
				c-1.6-4.2-0.8-10.2,1.3-14.2c1.9-2.3,4.3-4.5,7.4-3.8c2.2,0.3,4.7,0.8,5.3,2.4c0.7,1.3,0.6,2.6,0.7,4.4c0.1,2.4-0.1,4.3-1.2,5.4
				c-2.1,1.9-6.6,1.3-7.2-0.7c-0.1-0.7-0.1-1.3,0.1-2c0.7-0.7,0.9-1,1-1c0,0,0.1-0.1,0.1-0.1c1.9-1.1,3.5-1.2,4.2,0.3
				c0.1,0.2,0.1,0.4,0.1,0.6c0,0.2,0,0.5,0.2,0.7c0.3,0.3,0.9,0.3,1.1-0.1c0.3-0.7,0-1.5-0.3-2.1c-1.7-2.8-5.7-1.4-7.4,0.7
				c-0.7,1-0.7,2.4-0.5,3.5c1.3,3.3,6.1,3.6,8.8,1.9C46,88.6,46.5,85.9,46.4,83.6"/>
			<path class="st0" d="M70,82.7c-2.9-3.1-7.5,0.2-9.9,2.5c-0.3,0.5-1,0.9-1,1.5c0.1,0.5,0.8,0.6,1,0.2c1.8-2.5,6.1-4.9,8-4
				c1.1,0.8,2.3,2.4,2.5,3.6c0.6,1.9-1.4,3.8-3.1,3.8c-1.5-0.1-1.5-0.9-0.7-1.8c0.1-0.1,0.2-0.1,0.3-0.1c0.1,0,0.4-0.1,0.5-0.1
				c0.3,0,0.6,0,0.8-0.2c0.3-0.3,0.3-0.9-0.1-1.1c-0.5-0.3-1.1-0.1-1.6,0.1c-0.7,0.2-1.3,0.8-1.6,1.5c-0.8,1.9,0.7,3.3,2.6,3.2
				c2.1-0.2,4-1.7,4.3-3.8C72.4,85.9,71.3,84.1,70,82.7"/>
			<path class="st0" d="M89.8,81.3c-2.2,0.6-4,2.1-5.6,3.8c-1.3,1.4-2.6,2.9-3.5,4.6c-0.1,0.2-0.1,0.5,0,0.7c0.2,0.4,0.8,0.4,1,0
				c3.2-5.4,9-10.6,14.2-6.7c3.2,2.2,5.1,8.1,3.2,11.2c-1.5,2.4-3.2,3.7-5.8,3.4c-0.5-0.2-2.5-0.4-2.8-0.7c-1.8-1.2-2.2-1.8-1.7-4.1
				c0.1-1.1,1.6-2.4,3.2-2.2c0.6,0,1.4,0.3,1.8,0.4c0,0,0.1,0.1,0.1,0.1c0.1,0.1,0.1,0.3,0.2,0.4c0.2,0.4,0.1,0.7,0.1,1.6
				c0.3,0.8,1.5,0.4,1.4-0.4c0.1-1.3-0.4-2.8-1.7-3.1c-2.5-1-5.8,0.1-6.4,2.8c-0.3,1.3-0.4,2.8,0.4,3.9c1,1.6,3,2.3,4.2,2.4
				c2,0.7,4.2,0.2,5.9-1.1C105.6,93,98.9,78.6,89.8,81.3"/>
			<path class="st0" d="M121.4,50c-1.5-2.3-4.5-1.4-6.8-1.3c-0.7,0.1-1.6,0.2-2,0.8c-0.2,0.5,0.4,1,0.8,0.7c1.5-0.6,5.7-0.9,6.4-0.2
				c1.9,1.8,1.9,4.7,0.4,6.9c-0.9,1.5-3.8,2.1-5.1,1.4c-0.6-0.2-0.3-2.2,0.9-2.7c0.2-0.1,1-0.2,1.2-0.1c0.2,0,0.2,0.2,0.7,0.2
				c1-0.4,0.5-1.4-0.5-1.6c-1.1-0.2-2.4,0.1-3.1,1c-0.9,0.9-1.2,2.3-0.8,3.5c0.4,1,1.5,1.2,2.5,1.3c1.9,0.1,3.9-0.5,5-2.1
				C122.9,55.7,123.2,52.3,121.4,50"/>
			<path class="st0" d="M116.5,83.6c-2,0-3.8,1.7-3.4,3.7c0.4,1.3,1.9,1.9,3.1,2c0.6,0,1.2,0,1.8-0.1c0.5-0.2,0.6-0.9,0.2-1.2
				c-0.7-0.3-1.5,0-2.2-0.2c-0.1,0-0.5-0.2-0.6-0.2c-0.2-0.1-0.6-0.4-0.7-0.5c0,0-0.1-0.1-0.1-0.1c0,0,0-0.1-0.1-0.1
				c-0.1-0.5,0.3-1.5,0.9-1.7c0,0,1.1-0.3,1-0.3c0.1,0,0.2,0,0.3,0c0.2,0.1,1,0.4,1.2,0.4c2.3,1.2,2.8,4,1.5,5.4
				c-1.2,1.1-1.2,1-2.8,1.5c-1.9,0.5-2.5,0.3-4.5-0.4c-4.7-1.6-6.1-7.8-3.8-12.7c1.5-3.4,6.2-4.5,10.1-3.5c0.2,0,0.6,0.4,1.2,0.6
				c0.7,0.2,1.1-0.9,0.5-1.2c-1.3-1-3-1-4.5-1c-3.3-0.1-6.6,1.3-8.2,4.2c-2.5,4.7-1.8,11.9,3.4,14.5c2,1.1,4.4,1.6,6.6,0.8
				C123.4,92.1,122.4,84.6,116.5,83.6"/>
			<path class="st0" d="M120.3,101.5c-1.4-3.6-6.2-3.9-9.2-2.2c-2.1,1.4-3.2,4-3.9,6.4c0,0.4-0.3,1,0,1.4c0.3,0.4,1.1,0.2,1.1-0.4
				c0.5-2.4,1.8-5.5,3.9-6.5c2-1,5-0.9,6.2,0.7c1.9,2,0.1,5.2-2.2,5.3c-0.1,0-0.2,0-0.3,0c0,0,0,0,0,0c0,0,0,0,0,0
				c-0.3-0.6,0.1-1,1.9-1.4c0.6,0,1.1-0.5,0.8-1c-0.4-0.7-1.4-0.2-2-0.1c-0.9,0.3-2,0.8-2.1,1.9c-0.2,2.9,3.1,2.3,4.6,0.9
				C120.3,105.3,120.9,103.2,120.3,101.5"/>
			<path class="st0" d="M127.2,64.5c-0.9-0.4-1.9-0.1-2.8,0.2c-1.2,0.4-2.1,0.9-2.6,1.8c-0.1,0.6,0.7,0.9,1,0.4
				c0.5-0.7,2.3-1.6,3.7-1.5c0.4,0,1.3,0.9,1.4,1.5c0.1,2-1,4.6-2.5,4.5c-0.4,0-0.4-0.4,0-0.7c0.1-0.2,1.7,0,1.3-1.2
				c-0.3-0.5-0.9-0.4-1.4-0.2c-0.8,0.2-1.6,0.9-1.6,1.8c0,1.6,2.1,1.9,3.2,1.1c1.3-0.9,1.8-2.5,2-4
				C129.4,66.7,128.5,65.1,127.2,64.5"/>
			<path class="st0" d="M18.5,52.5c0-0.6-0.1-1.4-0.6-1.8c-0.5-0.3-1.3-0.4-1.9-0.2c-1.1,0.4-1.5,1.5-2,2.4
				c-0.7,1.6-1.4,3.2-1.5,4.9c-0.2,0.8,0.8,1.2,1,0.3c0-2.1,1.3-5,2.3-6.3c0.4-0.6,1.1-0.4,1.4-0.3c0.3,0.1,0.3,1.8,0.2,3.2
				c0,0,0,0,0,0c-0.8,0.3-1,1.4-0.9,2.2c0.1,0.4,0.6,0.8,1,0.7c0.3-0.1,0.6-0.4,0.7-0.7C18.5,55.4,18.5,53.9,18.5,52.5"/>
		</g>
		<g>
			<defs>
				<path id="SVGID_00000109726692579059164550000017549117912352669116_" d="M134,76.6c-0.4-3.4-1-6.8-1.9-10
					c-0.9-3.9-1.4-8-2.9-11.8c-1.5-4-4-7.4-6.3-11c-3.4-5.3-7.2-10.4-11.5-15c-5.3-5.7-12-9.7-18.3-14.1c-6.1-3.6-12.3-8-19.5-9
					c-1.2-0.1-2.4-0.1-3.5,0c-0.2-0.1-0.4-0.1-0.6-0.2c-2.7-0.7-5.6-0.9-8.3-0.2c-4.3,1.4-8.2,3.6-12.1,5.9
					c-2.7,1.5-5.4,3.2-7.9,5.1c-1.2,0.8-2.4,1.5-3.5,2.4c-0.7,0.7-1.4,1.3-2.1,2c-7.5,6.2-14.1,13.4-19.2,21.5
					c-2.6,4.8-5.3,9.7-7.5,14.7c-1.4,3.7-2.6,7.5-3.9,11.3c-1.2,3-1.6,6.3-2,9.5c-0.7,2.1-0.9,4.4-1.2,6.6c-0.3,2.6-0.2,5.2-0.1,7.8
					c0.3,2.1,0,4.7,0.7,8.6c0.3,1.4,0.7,2.7,1.2,4c0.5,1.8,0.9,3.6,1.5,5.3c0.6,1.7,0.5,1.2,1.4,3.5c0.1,0.3,0.3,1,0.5,1.4
					c0.2,0.5,0.3,0.9,0.6,1.4c0.7,1.1,1.6,2.1,2.5,3.1c1.1,1.9,2.6,3.6,4.3,5c-0.1-0.1-0.2-0.1,0.1,0.1c1.3,1.3,2.9,2.1,4.5,2.8
					c1.1,0.6,2.2,1,3.4,1.2c-0.4-0.1-0.7-0.2-0.2-0.1c0.1,0,0.2,0,0.3,0.1c0.1,0,0.3,0,0.4,0.1c-0.1,0-0.2,0-0.3,0
					c2.9,0.7,5.9,0.8,8.9,0.8c4.3-0.1,8.5-1.4,12.7-2.2c1.8-0.2,3.6-0.9,5.4-1.3c2.7-0.6,5.4-0.9,8-1.5c4-0.7,8-1.3,12-2.1
					c-0.3,0-0.7,0.1-1,0.1c5.9-0.4,6.7-0.9,11.7-0.6c6.6,0.3,9,0.5,15.8,3.3c1.4,0.6,2.8,1.1,4.3,1.4c-0.1,0-0.1,0,0.2,0
					c0.2,0,0.4,0.1,0.5,0.1c-0.1,0-0.3,0-0.4-0.1c0,0,0,0,0,0c1.9,0.4,3.7,0.8,5.7,0.5c-0.3,0-0.7,0.1-1,0.1c3-0.3,3.1,0.3,7.4-1
					c3.6-1.4,7.5-2.6,10.2-5.4c3.2-3.1,5.5-7,7.5-11c0.9-2,1.1-4.3,1.8-6.3c1-2.9,1.3-5.9,1.9-8.9C135.1,88.5,135,82.5,134,76.6"/>
			</defs>
			<clipPath id="SVGID_00000018947712879381376280000011745756759866400660_">
				<use xlink:href="#SVGID_00000109726692579059164550000017549117912352669116_"  style="overflow:visible;"/>
			</clipPath>
			<g style="clip-path:url(#SVGID_00000018947712879381376280000011745756759866400660_);">
				<path class="st5" d="M132.7,102.9c-0.2-0.1-0.5-0.2-0.7,0c-0.6,0.3-1.1,0.6-1.6,1c-0.1,0.3-0.8,0.5-1.4,0.8
					c-0.9,0.5-1.8,1.1-2.8,1.6c-2.4,1.2-4,1.9-6.5,2.5c-2,0.5-2.9,1.2-4.8,1.5c-3,0.5-6.5,0.5-9.4-0.2c-2.9-0.8-5.6-2.4-8.2-4.4
					c-5.4-4.3-11.4-7.9-18-10.1c-8.6-2.8-17.9-4-26.9-2.9c-7.8,1.3-15.3,3.9-22.1,7.9c-2.8,1.5-5.9,3.8-8,5.4c-3,1.8-6.3,3.9-9.1,5
					c-2.5,0.8-4.7,0.3-7.1-0.2c-0.7-0.2-1.4-0.4-2-0.6c0,0-0.1,0-0.1,0c-0.3-0.3-0.8-0.4-1.1,0c-0.3,0.4-0.5,0.9-0.6,1.4
					c-0.1,0.6,0.3,1,0.4,1.3c0.5,1.6,0.8,3.3,1.7,4.8c0.9,1.6,1.7,2.2,2.3,3.9c0.2,1.6,2,4.6,3.6,6.2c2.4,2.6,6.1-1.1,8.2-2.6
					c3.3-2.3,6.1-5,9.2-6.7c8.2-4.8,16.3-8.8,25.3-10.8c7.1-1,14.1-1.3,21.5,0c4.1,0.3,7.4,1.3,11.3,3c6,2.4,11.2,5.9,17.4,8.6
					c2.9,0.9,5.8,1.9,8.7,2.8c2.5,0.5,5.1,0.5,7.7,0.7c1.9,0.2,3.8,0.4,5.8,0.2c0.9-0.1,1.9,0.3,2.6-0.4c1.4-2.1,2.8-5,3.4-7.4
					c0.5-2.9,0.7-5.8,1-8.8c0.1-0.9,0.2-1.7,0.4-2.5C133,103.4,133,103.1,132.7,102.9"/>
				<g>
					<path class="st12" d="M20.9,115.8C21.1,115.9,21.1,115.9,20.9,115.8"/>
					<path class="st12" d="M22.4,125.5c0,0,0.1,0,0.1,0C22.5,125.5,22.5,125.5,22.4,125.5L22.4,125.5z"/>
					<path class="st4" d="M12.9,117.5c-0.6-0.4-1.2-0.9-1.8-1.3c-0.5-0.3-1,0.4-0.5,0.8c0.7,0.5,1.3,1,2,1.4
						c0.3,0.2,0.8,0.2,0.9-0.2C13.5,117.9,13.2,117.7,12.9,117.5"/>
					<path class="st4" d="M14.3,113.8c-0.1-0.3-0.2-0.7-0.5-0.8c-0.4-0.2-0.8,0.3-0.6,0.7c0.4,1,0.8,2,1.4,2.9
						c0.3,0.3,0.8,0.1,0.8-0.3C15.3,115.9,14.6,114.9,14.3,113.8"/>
					<path class="st4" d="M16.9,115.2c-0.1-1-0.2-2.1-0.3-3.1c0-0.1-0.1-0.2-0.2-0.3c-0.3-0.2-0.8,0.1-0.7,0.5
						c0.1,0.8,0.1,1.7,0.2,2.5c0.1,0.5,0,1.2,0.4,1.5c0.2,0.2,0.6,0,0.7-0.2C17.1,115.8,16.9,115.5,16.9,115.2"/>
					<path class="st4" d="M28,106.8c-0.4-0.2-0.8-0.5-1.2-0.5c-0.5,0-0.6,0.8-0.1,0.9c0.7,0.2,0.8,0.4,1.4,0.6c0.2,0,0.4,0,0.5-0.2
						C28.8,107.2,28.3,107,28,106.8"/>
					<path class="st4" d="M29.4,104.4c-0.4-0.4-1,0.1-0.8,0.6c0.3,0.4,0.6,1.3,1.2,1.1C30.6,105.7,29.8,105,29.4,104.4"/>
					<path class="st4" d="M32.9,102.9c-0.2-0.5-1-0.4-1,0.1c-0.2,1.5-0.5,2.9-0.3,4.4c0.1,0.4,0.7,0.5,0.9,0.1
						c0.2-0.3,0-0.6,0.1-0.9C32.6,105.4,32.9,104.2,32.9,102.9"/>
					<path class="st4" d="M48,99.2c-0.4-0.6-0.7-1.2-1.1-1.7c-0.4-0.4-1,0.1-0.8,0.6c0.5,0.7,0.9,1.4,1.4,2.1
						c0.1,0.1,0.2,0.1,0.4,0.1C48.4,100.2,48.3,99.6,48,99.2"/>
					<path class="st4" d="M49.8,98.1c-0.2-0.4-0.3-0.9-0.6-1.2c-0.4-0.4-1,0.1-0.8,0.6c0.3,0.6,0.4,1.3,0.8,1.8
						c0.2,0.2,0.7,0.1,0.8-0.2C50.2,98.7,49.9,98.4,49.8,98.1"/>
					<path class="st4" d="M52.9,95.8c-0.4,1.5-0.9,3-1.3,4.6c-0.1,0.3,0.1,0.6,0.3,0.7c0.5,0.2,0.7-0.4,0.8-0.8
						c0.4-1.3,0.7-2.5,1.1-3.8C54.2,95.7,53.3,95,52.9,95.8"/>
					<path class="st4" d="M67.6,99.9c-0.2-0.7-0.3-1.4-0.6-2.1c-0.3-0.5-1.1-0.1-1,0.4c0.3,0.7,0.2,1.6,0.7,2.2
						C67.2,100.7,67.7,100.4,67.6,99.9"/>
					<path class="st4" d="M70.2,98.5c0-0.7-1-0.7-1-0.1c0,0.6,0,1.3,0,1.9c0.1,0.2,0.3,0.4,0.6,0.3C70.6,100.5,70,99.2,70.2,98.5"/>
					<path class="st4" d="M73.6,97.5c-0.5,1.2-1,2.4-1.4,3.6c-0.1,0.3,0.1,0.7,0.5,0.7c0.2,0,0.4-0.1,0.5-0.3
						c0.5-1.2,0.9-2.4,1.4-3.6C74.8,97.2,73.8,96.9,73.6,97.5"/>
					<path class="st4" d="M82.6,101.3c0-0.6-1-0.7-1-0.1c-0.1,0.9-0.1,1.8-0.2,2.7c0,0.2,0.1,0.4,0.3,0.5c0.4,0.2,0.8-0.2,0.7-0.6
						C82.5,102.9,82.5,102.1,82.6,101.3"/>
					<path class="st4" d="M84.9,102.2c-0.3-0.4-0.9-0.1-0.9,0.3c-0.1,0.8-0.4,1.7-0.3,2.5c0.1,0.3,0.6,0.5,0.8,0.2
						c0.3-0.3,0.2-0.9,0.4-1.6C84.9,103.2,85.2,102.6,84.9,102.2"/>
					<path class="st4" d="M89,103c-0.1-0.5-0.7-0.6-1-0.2c-0.5,0.8-1.1,1.7-1.6,2.5c-0.3,0.6-0.8,1.1-0.8,1.7c0.3,0.8,1,0.4,1.2-0.2
						c0.7-1.2,1.4-2.3,2.2-3.4C89,103.3,89.1,103.2,89,103"/>
					<path class="st4" d="M98.5,111.9c-0.1-0.8-0.1-1.6-0.2-2.4c-0.2-0.5-1-0.4-1,0.1c0.1,0.9,0.1,1.8,0.2,2.6
						c0,0.1,0.1,0.2,0.3,0.3C98.2,112.8,98.6,112.3,98.5,111.9"/>
					<path class="st4" d="M101,111c-0.1-0.5-0.9-0.4-1,0.1c0,0.5-0.5,1.7,0.5,1.7c0.3-0.1,0.4-0.4,0.4-0.6
						C100.9,111.8,101.1,111.4,101,111"/>
					<path class="st4" d="M102.7,111.4c-0.5,0.9-0.9,1.8-1.4,2.7c-0.1,0.2,0.1,0.5,0.3,0.6c0.2,0.1,0.5-0.1,0.6-0.3
						c0.5-1.1,0.8-1.7,1.3-2.5C103.8,111.4,103,110.9,102.7,111.4"/>
					<path class="st4" d="M116.5,113.8c-0.3-0.5-0.5-1-0.8-1.4c-0.4-0.4-1.1,0.1-0.8,0.6c0.3,0.6,0.6,1.2,1,1.7
						c0.1,0.1,0.4,0.2,0.6,0.1C116.9,114.6,116.7,114.1,116.5,113.8"/>
					<path class="st4" d="M120.2,114c0-0.4-0.1-1.3-0.1-2.1c0-0.9-1.4-0.8-1.2,0.1c0.1,0.9,0,1.4,0.2,2.5c0,0.3,0.4,0.6,0.7,0.5
						C120.3,114.9,120.3,114.4,120.2,114"/>
					<path class="st4" d="M123.9,109.6c-0.5,1.5-1,3.1-1.5,4.7c-0.2,0.4,0.3,0.8,0.7,0.6c0.7-1.1,1.1-3.6,1.7-5
						C125,109.3,124.1,109,123.9,109.6"/>
				</g>
			</g>
			<g style="clip-path:url(#SVGID_00000018947712879381376280000011745756759866400660_);">
				<path class="st4" d="M127,119.1c-0.8-0.9-2-1.5-3.1-2c-1.7-0.5-3.5-0.3-5.3-0.4c-1.5,0-3,0.5-4.6,0.6c-3.6,0.5-7.4-0.2-11.1-1.6
					c-5.9-2.3-10.4-3.9-15.6-6.5c-3.9-1.3-6-2.4-9.7-3.7c-2.3-0.7-5.4-1.5-7.1-1.8c-2.6-0.4-5.3-0.7-7.9-1.1
					c-7.2-0.6-14.4,0.6-21.2,2.7c-8.6,3.1-16.9,8.9-23.5,13.4c-2.3,1.3-3.7,2.5-6.3,3.6c-0.9,0.5-1.9,0.9-2.9,1.3
					c-0.5,0.1-0.9,0.3-1.3,0.7c0,0,0,0,0,0c0,0,0,0,0,0c-0.3,0.3-0.5,0.6-0.6,0.9c-0.2,0.3-0.3,0.6-0.2,1c0.2,1,1.3,1.4,2.2,1.8
					c1.5,1,3.1,1.9,4.9,2.6c1.4,0.4,2.8,0.8,4.2,1.1c3.1,0.3,6.1-0.2,9.2-0.4c2.3-0.2,6.6-0.1,9.5-0.8c8.6-1.7,17.2-3.8,26-4.8
					c5.4-0.5,9.9-1.3,15.2-0.6c3.1,0.2,6.2,1.4,9.6,2c2.4,0.5,4.8,1.3,7.2,1.9c2.2,0.5,4.5,0.9,6.8,1.4c4.5,0.7,9.2,0.6,13.6-0.2
					c2.9-0.5,6.2-0.5,8.7-2c1.4-1.3,2.7-2.8,3.6-4.4C128.1,122.4,127.8,120.6,127,119.1"/>
				<g>
					<path class="st12" d="M99.5,122c0.1,0,0.2,0,0.4,0.1c-0.1,0-0.1,0-0.2,0C99.7,122,99.6,122,99.5,122"/>
					<path class="st5" d="M20.2,125.5c-0.8-0.8-1.1-0.9-2-1.8c-0.1-0.1-0.3-0.2-0.5-0.2c-0.6-0.1-0.9,0.7-0.5,1.1
						c1,1,1.6,1.4,2.4,2.3c0.2,0.3,0.5,0.5,0.9,0.4C21.6,126.9,20.7,126,20.2,125.5"/>
					<path class="st5" d="M22.5,122.5c-0.5-0.8-1-1.6-1.5-2.4c-0.4-0.7-1.5-0.1-1.1,0.6c0.6,0.9,1.1,1.9,1.8,2.8
						c0.1,0.1,0.3,0.2,0.5,0.1C22.7,123.6,22.9,122.9,22.5,122.5"/>
					<path class="st5" d="M26,120c0-0.2-0.1-0.3-0.2-0.5c-0.4-0.4-1.2-0.2-1.2,0.4c0,1.2,0,2.3,0,3.5c-0.1,0.8,1.3,0.9,1.3,0.1
						C25.9,122.3,25.9,121.1,26,120"/>
					<path class="st5" d="M39.2,110.5c-0.4-0.5-0.8-1.2-1.3-1.6c-0.5-0.3-1.1,0.4-0.7,0.9c0.5,0.6,1,1.2,1.4,1.8
						c0.1,0.1,0.2,0.2,0.4,0.2C39.9,111.8,39.7,110.9,39.2,110.5"/>
					<path class="st5" d="M42.3,109.1c-0.2-0.5-0.2-1-0.4-1.4c-0.3-0.5-1.2-0.2-1.1,0.5c0.3,0.7,0.4,2.9,1.5,1.9
						C42.6,109.8,42.4,109.5,42.3,109.1"/>
					<path class="st5" d="M46.2,106.5c0.1-0.8-1.3-0.9-1.3-0.1c-0.1,1.1-0.1,2.1-0.2,3.2c0,0.2,0.1,0.3,0.2,0.5
						c0.4,0.4,1.1,0.2,1.2-0.4C46,108.6,46.1,107.6,46.2,106.5"/>
					<path class="st5" d="M38.1,122.1c-0.3-0.3-0.6-0.8-1-1.1c-0.6-0.3-1.2,0.5-0.8,1c0.6,0.5,1.3,2.2,2.1,1.2
						C38.8,122.8,38.4,122.4,38.1,122.1"/>
					<path class="st5" d="M42.2,121.5c-0.6-1.7-1.2-3.4-2-5c-0.4-0.4-1.2,0.2-0.9,0.7c0.4,1,1.2,3.1,1.4,3.5c0.4,0.8,0.2,1,0.7,1.6
						C42,122.7,42.5,122.1,42.2,121.5"/>
					<path class="st5" d="M44.9,118.2c0.1-0.8-1.2-0.8-1.2-0.1c0.1,1-0.4,2.7,0,3.5C45.3,122.9,44.8,119.1,44.9,118.2"/>
					<path class="st5" d="M58.9,107.6c-0.2-0.7-0.4-1.5-0.6-2.2c-0.1-0.7-1.3-0.5-1.1,0.2c0.2,0.9,0.4,1.9,0.7,2.8
						c0,0.2,0.2,0.4,0.4,0.4C59.2,108.9,59.2,108.1,58.9,107.6"/>
					<path class="st5" d="M62.3,107.9c0.1-0.9,0.1-1.9,0.1-2.8c0.1-0.7-1.1-0.8-1.1-0.1c0,1.1-0.2,2.2-0.1,3.2
						c0,0.1,0.2,0.3,0.3,0.3C62,108.8,62.4,108.3,62.3,107.9"/>
					<path class="st5" d="M65.6,104.1c-0.3,0.8-0.5,1.7-0.7,2.5c-0.1,0.5-0.4,1-0.2,1.5c0.2,0.3,0.7,0.4,1,0.2c0.4-0.7,0.9-3,1.2-4
						C66.8,103.6,65.8,103.4,65.6,104.1"/>
					<path class="st5" d="M53.6,119.3c-0.5-0.5-0.8-1.6-1.5-1.8c-0.5,0-0.8,0.6-0.5,1c0.8,1.1,1.2,1.6,1.8,2.7
						c0.1,0.3,0.5,0.4,0.8,0.3C55,120.8,53.8,119.9,53.6,119.3"/>
					<path class="st5" d="M57.5,118.3c-0.4-1-0.7-2.1-1.1-3.1c-0.3-0.5-1.2-0.2-1.1,0.5c0.4,1.2,0.8,2.3,1.1,3.5
						c0.1,0.5,0.8,0.6,1.1,0.2C57.8,119,57.5,118.7,57.5,118.3"/>
					<path class="st5" d="M59.7,115.6c-0.3,1.1-0.6,2.2-0.8,3.3c-0.2,0.5,0.4,1,0.8,0.7c0.4-0.2,0.3-0.7,0.4-1
						c0.2-0.9,0.5-1.9,0.7-2.8C60.9,115.1,59.9,115,59.7,115.6"/>
					<path class="st5" d="M70.8,118.7c-0.2-1.1-0.3-2.1-0.4-3.2c-0.1-0.5-0.8-0.6-1.1-0.2c-0.2,0.5,0,0.8,0,1.5
						c0.1,0.8,0.1,1.6,0.4,2.3C70,119.7,71,119.3,70.8,118.7"/>
					<path class="st5" d="M72.6,116.3c-0.5,0.1-0.5,0.6-0.6,1c0,0.5-0.2,1-0.1,1.4c0.2,0.7,1.3,0.5,1.3-0.2
						C73.2,117.8,73.9,116.2,72.6,116.3"/>
					<path class="st5" d="M77.3,116.8c-1-1.2-2.2,1.9-2.7,2.6c-0.5,0.7,0.6,1.4,1.1,0.7c0.5-1,1.2-1.9,1.7-2.8
						C77.4,117.1,77.4,116.9,77.3,116.8"/>
					<path class="st5" d="M73.3,107.8c-0.1-0.2-0.3-0.4-0.5-0.4c-0.5,0-0.7,0.5-0.6,1c0,0.6-0.1,1.3,0,1.9c0.2,0.6,1.1,0.5,1.1-0.2
						C73.3,109.3,73.4,108.5,73.3,107.8"/>
					<path class="st5" d="M75.1,108.2c-0.4,0.3-0.4,0.8-0.6,1.3c-0.1,0.3-0.2,0.6-0.1,0.9c0.2,0.4,0.9,0.4,1.1-0.1
						c0.1-0.6,0.4-1.1,0.5-1.6C76,108.3,75.5,108,75.1,108.2"/>
					<path class="st5" d="M79.7,109c-0.2-0.6-1-0.5-1.3,0c-0.7,0.7-1.4,1.4-2,2.1c-0.7,0.6,0.3,1.7,0.9,1c0.8-0.9,1.6-1.7,2.4-2.6
						C79.7,109.4,79.7,109.2,79.7,109"/>
					<path class="st5" d="M85.3,119.5c0-0.5-0.1-1.2-0.8-1.1c-0.4,0.1-0.5,0.5-0.4,0.8c0.1,1,0.2,1.9,0.3,2.9
						c0.1,0.7-0.1,0.9,0.2,1.6c0.3,0.4,1,0.1,1-0.3C85.5,122.1,85.4,120.8,85.3,119.5"/>
					<path class="st5" d="M89.2,120.2c-0.3-0.3-0.9-0.1-1.1,0.3c-0.4,0.9-0.6,1.9-0.8,2.9c0,0.2,0.1,0.4,0.2,0.5
						c0.4,0.5,1.2,0.2,1.2-0.4c0.1-0.7,0.3-1.5,0.7-2.6C89.5,120.7,89.4,120.3,89.2,120.2"/>
					<path class="st5" d="M93.3,121.9c-0.4,0-0.6,0.3-0.9,0.6c-0.7,0.8-1.6,1.6-1.9,2.6c-0.2,0.7,0.8,1.1,1.2,0.5
						c0.7-1.3,1.3-1.6,2.2-2.7C94.1,122.4,93.7,121.9,93.3,121.9"/>
					<path class="st5" d="M87.4,112.4c-0.1-0.4-0.6-0.5-0.9-0.2c-0.4,0.6-0.1,1.5-0.1,2.2c-0.1,0.7,1.1,0.8,1.1,0.1
						C87.5,113.7,87.5,113,87.4,112.4"/>
					<path class="st5" d="M90,113c-0.6-0.4-1,0.2-1.2,0.7c-0.2,0.5-0.6,0.9-0.6,1.4c0,0.7,1,0.8,1.2,0.2c0.3-0.7,0.4-0.8,0.8-1.6
						C90.4,113.4,90.2,113.1,90,113"/>
					<path class="st5" d="M93,115.2c0-0.4-0.4-0.7-0.8-0.6c-0.5,0.3-0.9,0.7-1.3,1.2c-0.1,0.1-0.2,0.2-0.2,0.3c0,0,0,0,0,0
						c0,0,0,0,0,0c0,0.1-0.1,0.1-0.1,0.2c-0.1,0.5,0.5,0.9,1,0.6c0.1,0,0.1-0.1,0.1-0.1C92.1,116.2,92.8,115.8,93,115.2"/>
					<path class="st5" d="M102.5,126.9c-0.4-1.3-1-2.8-1.2-3.3c-0.1-0.3-0.3-0.5-0.5-0.5c-1.3-0.1-0.6,1.4-0.4,2.1
						c0.4,0.8,0.5,1.9,1,2.5C101.9,128,102.7,127.5,102.5,126.9"/>
					<path class="st5" d="M105.2,126.9c-0.2-0.9-0.3-1.7-0.4-2.6c-0.1-0.6-0.9-0.7-1.3-0.2c-0.2,0.5-0.1,0.4-0.1,1.1
						c0.1,0.8,0.1,1.6,0.4,2.3C104.3,128.1,105.4,127.6,105.2,126.9"/>
					<path class="st5" d="M109.5,124.5c-0.8-0.8-1.3,0.2-1.6,0.8c-0.5,1-0.6,1.2-1.1,2.2c-0.6,0.9,0.9,1.6,1.3,0.6
						c0.4-0.8,1.3-2.8,1.4-2.9C109.6,125,109.6,124.7,109.5,124.5"/>
					<path class="st5" d="M118.6,126c-0.3-0.4-0.9-1.5-1.4-2.4c-0.1-0.2-0.4-0.4-0.7-0.4c-1.6,0.3,0.4,2.5,0.8,3.2
						C117.8,127.6,119.3,127,118.6,126"/>
					<path class="st5" d="M120.5,125c-0.1-0.8-0.2-1.7-0.3-2.5c0-0.2-0.2-0.4-0.5-0.5c-0.8-0.1-0.7,0.8-0.6,1.4
						c0.1,0.7,0.1,1.4,0.3,2C119.7,126,120.7,125.6,120.5,125"/>
					<path class="st5" d="M122.5,122.7c-0.4,0.8-0.7,1.6-1,2.5c-0.1,0.2,0,0.4,0,0.5c0.3,0.5,1.1,0.5,1.3-0.1c0.3-0.7,0.5-1.4,0.8-2
						C124.3,122.6,123.1,121.6,122.5,122.7"/>
				</g>
			</g>
		</g>
	</g>
</g>
</svg>
