<?xml version="1.0" encoding="utf-8"?>
<svg version="1.1" xmlns="http://www.w3.org/2000/svg" xmlns:xlink="http://www.w3.org/1999/xlink" x="0px" y="0px" viewBox="0 0 70.2 67" style="enable-background:new 0 0 70.2 67;" xml:space="preserve"><style type="text/css">.st0{fill:#FFFFFF;}.st1{fill:#8CA2CF;}.st2{clip-path:url(#SVGID_00000000928308023960824440000013684030001619133621_);}.st3{fill:#627EB5;}.st4{fill:#8CA05C;}.st5{fill:#677724;}.st6{fill:#E0A955;}.st7{fill:#BBD7FF;}.st8{fill:#3C5987;}.st9{clip-path:url(#SVGID_00000177467947225152592290000000719083944929056660_);}.st10{fill:#669CD3;}.st11{clip-path:url(#SVGID_00000088839588043973852960000011106251861203849399_);}.st12{fill:#92C4FC;}.st13{fill:#FAF4D2;}.st14{fill:#FCCB7C;}.st15{clip-path:url(#SVGID_00000168115804419947563580000016807479601223761317_);}.st16{clip-path:url(#SVGID_00000037660946767132567680000014450127315472168851_);}.st17{fill:#C5CAF0;}.st18{clip-path:url(#SVGID_00000142141178142305529390000005416130148929345926_);}.st19{clip-path:url(#SVGID_00000030488477134165160630000009673117044027679915_);}.st20{clip-path:url(#SVGID_00000110432720918743870170000007440192127509963136_);}.st21{clip-path:url(#SVGID_00000000221441415431176560000018116364021689169538_);}.st22{fill:#F9CC3D;}.st23{fill:#FFEAAE;}.st24{fill:#FFECB8;}.st25{fill:#D3AA37;}.st26{fill:#FFE08A;}.st27{clip-path:url(#SVGID_00000109020917259150612270000002739665073376020154_);}.st28{clip-path:url(#SVGID_00000000900966400663591970000012511697815068295829_);}.st29{clip-path:url(#SVGID_00000079448457682330112100000004676301039448175786_);}.st30{clip-path:url(#SVGID_00000130611893860799989430000016495303313125643412_);}.st31{clip-path:url(#SVGID_00000166654505741658252160000001790198066615274115_);}.st32{clip-path:url(#SVGID_00000131365167606850655180000017089373607448492952_);}.st33{clip-path:url(#SVGID_00000177480080139624879400000005841500101270589326_);}.st34{clip-path:url(#SVGID_00000142894120672995942020000004280176484446500254_);}.st35{clip-path:url(#SVGID_00000090273401206986759930000009989593738737218956_);}</style><g ></g><g ><g><path class="st13" d="M69.5,39.5c-0.2-1.7-0.5-3.5-1-5.2c-0.5-2-0.7-4.1-1.5-6.1c-0.8-2-2-3.8-3.2-5.6c-1.8-2.7-3.7-5.3-5.9-7.7c-2.7-2.9-6.1-5-9.4-7.3c-3.1-1.9-6.3-4.1-10-4.6c-0.6,0-1.2,0-1.8,0c-0.1,0-0.2-0.1-0.3-0.1c-1.4-0.4-2.9-0.5-4.3-0.1c-2.2,0.7-4.2,1.8-6.2,3c-1.4,0.8-2.8,1.7-4.1,2.6c-0.6,0.4-1.2,0.8-1.8,1.2c-0.4,0.3-0.7,0.7-1.1,1c-3.8,3.2-7.2,6.9-9.9,11c-1.3,2.5-2.7,5-3.9,7.5c-0.7,1.9-1.3,3.9-2,5.8c-0.6,1.6-0.8,3.2-1,4.9c-0.4,1.1-0.5,2.3-0.6,3.4c-0.1,1.3-0.1,2.7-0.1,4c0.2,1.1,0,2.4,0.3,4.4c0.1,0.7,0.4,1.4,0.6,2.1c0.2,0.9,0.5,1.8,0.8,2.7c0.3,0.9,0.3,0.6,0.7,1.8c0,0.2,0.2,0.5,0.2,0.7c0.1,0.2,0.2,0.5,0.3,0.7c0.4,0.6,0.8,1.1,1.3,1.6c0.6,1,1.3,1.8,2.2,2.6c-0.1-0.1-0.1-0.1,0.1,0.1c0.6,0.7,1.5,1.1,2.3,1.5c0.5,0.3,1.1,0.5,1.8,0.6c-0.2,0-0.4-0.1-0.1,0c0,0,0.1,0,0.1,0c0.1,0,0.1,0,0.2,0c0,0-0.1,0-0.2,0c1.5,0.4,3,0.4,4.6,0.4c2.2-0.1,4.4-0.7,6.5-1.1c0.9-0.1,1.8-0.5,2.7-0.7c1.4-0.3,2.8-0.5,4.1-0.8c2.1-0.4,4.1-0.7,6.2-1.1c-0.2,0-0.4,0-0.5,0c3-0.2,3.5-0.5,6-0.3c3.4,0.1,4.6,0.2,8.1,1.7c0.7,0.3,1.4,0.6,2.2,0.7c-0.1,0,0,0,0.1,0c0.1,0,0.2,0,0.3,0.1c-0.1,0-0.1,0-0.2,0c0,0,0,0,0,0c1,0.2,1.9,0.4,2.9,0.2c-0.2,0-0.4,0-0.5,0c1.5-0.2,1.6,0.2,3.8-0.5c1.9-0.7,3.8-1.3,5.2-2.8c1.7-1.6,2.8-3.6,3.9-5.6c0.4-1,0.6-2.2,0.9-3.3c0.5-1.5,0.7-3,1-4.6C70.1,45.6,70,42.5,69.5,39.5"/><g><path class="st14" d="M26.4,24.4c-0.1-0.3-0.4-0.9-0.5-0.9c-0.1-0.2-0.2-0.3-0.5-0.4c0,0-0.1,0-0.1,0c-0.2,0-0.4,0.1-0.4,0.2c-2,1-4.1,2-5.4,3.8c-1.3,1.8-2.4,3.7-3,5.8c-0.2,0.6-0.4,1.2-0.4,1.7c0.1,0.3,0.5,0.1,0.7,0c0.3-0.2,0.7-0.3,1-0.5c1-0.5,1.8-0.6,2.9-1c1-0.4,1.8-1,2.5-1.5c0.9-0.7,1.5-1.4,2.1-2.3c0.4-0.7,0.8-1.3,1.1-2.1c0.1-0.5,0.4-0.9,0.5-1.4C26.7,25.3,26.6,24.8,26.4,24.4"/><path class="st14" d="M25.2,23.5C25.2,23.5,25.2,23.5,25.2,23.5C25.2,23.5,25.2,23.5,25.2,23.5C25.2,23.5,25.2,23.5,25.2,23.5C25.2,23.5,25.2,23.5,25.2,23.5"/><path class="st14" d="M31.9,28.3c0-0.7-0.2-1.5-0.5-2.1c-0.1-0.3-0.4-0.5-0.7-0.6c-0.2-0.1-0.4,0-0.4,0c0,0-0.1,0-0.1,0c0,0,0,0,0,0c0,0,0,0,0,0c0,0,0,0-0.1,0c0,0,0,0,0,0c-0.1,0-0.1,0-0.1,0c0,0,0,0-0.1,0c-0.1,0-0.2,0-0.3,0c-0.7,0-1.2,0.4-1.7,0.8c-0.7,0.5-1.2,1.2-1.7,2c-0.8,1.1-1.3,2.4-1.7,3.7c-0.4,1.2-0.3,2.4-0.3,3.7c0.1,0.8,0,1.5,0.3,2.4c0.2,0.4,0.6,0.5,0.8,0c0-0.1,0.5-0.4,0.7-0.6c1.6-1.2,3.2-2.6,4.3-4.3C31.3,31.9,32,30.1,31.9,28.3"/><path class="st14" d="M30.2,25.6C30.2,25.6,30.2,25.6,30.2,25.6C30.2,25.6,30.2,25.6,30.2,25.6C30.2,25.6,30.2,25.6,30.2,25.6"/><path class="st14" d="M39.2,41.3c-0.1-0.6-0.2-1.1-0.2-1.8c0-2.1-0.1-4.2-0.4-6.2c-0.1-0.4,0-0.8-0.2-1.3c-0.1-0.7-0.4-1.3-0.6-2c-0.1-0.3-0.3-0.7-0.4-1.1c-0.2-0.7-0.5-1.5-1.1-2c0,0,0,0,0,0c-0.1-0.2-0.3-0.3-0.6-0.4c-0.5-0.2-1,0.1-1.3,0.6c-0.1,0-0.2,0-0.2,0.1c-0.6,1-1.1,2-1.3,3.1C32.8,31,33,32,33,32.5c0.2,1.3,0.6,2.6,1.1,3.9c0.6,1.1,1.3,2.2,2.1,3.2c0.3,0.4,0.6,0.7,0.8,1.1c0.2,0.3,0.4,0.5,0.6,0.8c0,0,0,0,0,0c0.2,0.3,0.5,0.6,0.8,0.8c0.2,0.2,0.4,0.3,0.6,0.2C39.5,42.3,39.2,41.7,39.2,41.3"/><path class="st14" d="M46.3,36.3c-0.3-1-0.6-2-0.8-3c-0.4-1.8-0.8-3.8-1.7-5.4c-0.4-0.8-1-1.5-1.8-2c-0.2-0.2-0.5-0.4-0.8-0.4c-0.9,0.1-1.8,0.8-2,1.7c0,0,0,0.1,0,0.1c-1.2,2.4,1.5,5.2,3,7.1c0.6,0.7,1.2,1.4,2,1.9c0.3,0.3,0.7,0.5,1,0.7c0.4,0.2,0.4,0.3,0.8,0.5c0.2,0.1,0.6,0.3,0.6-0.1C46.6,37.1,46.4,36.7,46.3,36.3"/><path class="st14" d="M26.3,18.2c0-0.1,0-0.2-0.1-0.2c-0.6-0.6-1.4-1-2.2-1.3c-0.8-0.4-1.7-0.6-2.7-0.6c-1.2-0.1-2.3,0.1-3.4,0.4c-1.7,0.4-3.5,1-4.9,1.4c-0.9,0.4,0.4,0.9,0.8,1.1c0.9,0.4,1.5,0.8,2.5,1.2c1,0.4,2,0.7,3,0.9c1.3,0.4,2.7,0.8,4.1,0.8c0.9,0.1,1.8-0.1,2.6-0.6c0.3-0.2,0.5-0.3,0.7-0.5c0.2-0.3,0.3-0.7,0.4-1.1C27,19,26.7,18.6,26.3,18.2"/><path class="st14" d="M20.3,22.8c-0.3-0.1-0.6-0.2-0.9-0.3c-0.6-0.1-1.2-0.2-1.8-0.2c-0.1,0-0.2,0-0.2,0c-0.1,0-0.2,0-0.3,0c-1.1-0.1-2.2,0.2-3.3,0.6c-0.3,0.1-1.3,0.4-1.5,0.5c-0.1,0.1-0.3,0.1-0.3,0.3c0,0.4,0.6,0.4,1,0.5c0.5,0.1,1.1,0.2,1.8,0.4c1.3,0.2,2.6,0.4,3.8,0.2c0.5,0,1.1-0.2,1.4-0.3c0.3-0.1,0.6-0.2,0.9-0.4C21.7,23.3,21,22.9,20.3,22.8 M16.3,24.1C16.3,24.1,16.3,24.1,16.3,24.1c0.7,0,1.5,0,2.2,0c0.4,0,0.7-0.1,1.1-0.1c-0.1,0-0.2,0.1-0.4,0.1C18.2,24.1,17.4,24.2,16.3,24.1"/><path class="st14" d="M32,35.6c-0.7-1.1-1.2,1-1.5,1.5c0,0,0,0.1,0,0.1c-0.4,0.7-0.8,1.5-1,2.3c-0.2,1-0.4,2.2,0,3.2c0.1,0.2,0.2,0.4,0.5,0.2c0.2-0.3,0.3-0.6,0.5-1c0.5-1.1,0.8-1.7,1.2-2.7c0.2-0.5,0.4-1.1,0.5-1.7C32.2,36.8,32.2,36.2,32,35.6"/><path class="st14" d="M43.8,38.8c-0.2-0.4-0.4-0.6-0.7-0.9c-0.1-0.2-0.4-0.5-0.3-0.4c-0.1-0.2-0.2-0.3-0.3-0.4c0,0-0.1-0.1-0.1-0.1c-0.1-0.2-0.2-0.3-0.4-0.4c-0.2-0.1-0.5,0-0.5,0.2c0,0,0,0,0,0c-0.1,0.2-0.2,0.4-0.2,0.6c0,0.6,0,1.3,0.1,1.9c0.1,0.5,0.2,0.7,0.3,1c0.1,0.5,0.8,2,1.3,2.5c0,0,0.1,0.1,0.1,0.1c0,0,0,0,0,0c0.2,0.2,0.5,0.1,0.6-0.2c0.1-0.5,0.1-1.1,0.2-1.6C44.1,40.3,44.2,39.5,43.8,38.8"/><path class="st14" d="M15.7,26.8C15.7,26.8,15.7,26.8,15.7,26.8c0,0-0.1,0-0.1,0c-0.8,0.2-1.6,0.3-2.2,0.9c-1.1,1-1.4,1.9-2.1,3.1c0,0.1-0.1,0.2-0.1,0.3c0,0.2,0.2,0.3,0.3,0.3c0.1,0,0.3-0.1,0.4-0.2c0.4-0.2,0.5-0.2,1.1-0.4c0.8-0.2,1.5-0.8,2.1-1.5c0.6-0.7,0.9-1.2,1.1-2C16,27,15.9,26.8,15.7,26.8"/><path class="st14" d="M11.2,30.8C11.2,30.8,11.2,30.8,11.2,30.8C11.2,30.9,11.2,30.8,11.2,30.8"/><polyline class="st14" points="11.2,30.8 11.2,30.8 11.2,30.8 11.2,30.8 "/><path class="st14" d="M30,12.9c-0.1-3.1-3.9-5.2-6.3-6.3c-0.8-0.4-1.7-0.8-2.5-1.2c-0.6-0.3-1-0.5-1.7-0.7c-0.2,0-0.3-0.1-0.5-0.1c-0.3,0.1-0.3,0.4-0.1,0.6C19.2,5.6,19.6,6.3,20,7c0.7,1.4,1.2,3.1,2.1,4.6c0.4,0.6,0.9,1.1,1.4,1.7c0.6,0.7,1.6,1.5,2.3,1.7c1,0.5,2,1.1,3.1,0.7c0.6-0.3,1.2-0.9,1.3-1.5C30.3,13.8,30.2,13.3,30,12.9 M26.3,8.5C27,9,27.7,9.5,28.2,10C27.6,9.5,27,9,26.3,8.5 M29.2,11.5c-0.1-0.1-0.2-0.2-0.3-0.4c-0.1-0.3-0.3-0.6-0.5-0.8C28.7,10.6,29,11,29.2,11.5"/><path class="st14" d="M21.4,14c0-0.4-0.1-0.8-0.4-1.2c-0.5-1.8-1.6-2.2-3.6-3.1c-0.6-0.3-1.8-0.8-2.6-1.2c-0.3-0.1-0.5-0.2-0.8-0.3c-0.1,0-0.2-0.1-0.3,0C13.4,8.5,13.8,8.9,14,9c0.3,0.2,0.5,0.4,0.9,0.8c1.4,1.4,2.7,3.3,4.1,4.5c0.3,0.2,0.7,0.4,1.1,0.4c0.1,0,0.1,0.1,0.2,0.1c0.3,0.1,0.6,0,0.8-0.3C21.2,14.4,21.4,14.3,21.4,14"/><path class="st14" d="M57.9,33.1c-0.1-0.6-1.1-1.4-1.7-2c-1.4-2.1-3.8-4-5.7-5.6c-1.3-0.9-2.3-2.2-4.1-2.5c-0.4-0.1-0.7,0-1.1,0.1c-0.2,0-0.5,0.1-0.6,0.3c-0.2,0.2-0.2,0.5-0.2,0.7c0,0.1,0.1,0.2,0.1,0.3c0.4,1.3,1,2.6,1.9,3.6c0.7,0.8,1.5,1.3,2.4,1.9c2.2,1.6,4.5,2.2,7.1,3.1C56.4,33,58,34,57.9,33.1"/><path class="st14" d="M52.8,37.8c-0.5-1.4-1.5-3.1-2.4-4.1c-0.4-0.6-1-1.1-1.6-1.6c-0.3-0.2-0.7-0.5-1.1-0.5c-0.2,0-0.3,0.1-0.3,0.3c-0.1,0-0.1,0.1-0.1,0.2c0.4,1.7,1.3,3.1,2.5,4.4c0.5,0.6,1.6,1.1,2.1,1.4c0.2,0.1,0.3,0.2,0.5,0.2C52.7,38.1,52.9,38,52.8,37.8"/><path class="st14" d="M55.5,24.6c-1-0.7-1.9-1.5-2.9-2.2c-0.5-0.3-1.1-0.5-1.7-0.7c-0.4,0-1.5-0.4-1.5,0.3c0.2,0.4,0.5,0.7,0.9,1c1.1,1.1,2.3,2.1,3.9,2.2c0.5,0,1,0.1,1.5,0.2c0.1,0-0.1,0,0,0c0.1,0,0.2,0,0.3,0C56.3,25,55.7,24.7,55.5,24.6"/><path class="st14" d="M59.2,16.5c-1.2-0.2-2-0.3-3.1-0.4c-2-0.2-3.8-0.7-5.9-0.7c-1.5,0-3.1,0.2-4.6,0.8c-0.7,0.4-1.4,0.9-2,1.3c0,0-0.1,0.1-0.1,0.1c0,0.1,0,0.1,0.1,0.2c-0.1,0.1-0.2,0.3-0.2,0.5c0,0.3,0.2,0.6,0.3,0.9c0.1,0.4,0.3,0.7,0.7,0.9c0.3,0.2,0.7,0.3,1,0.3c1,0.1,1.6,0,2.6-0.1c1.6-0.2,3.1-0.7,4.7-1c1.8-0.4,3.4-1.1,5.2-1.5c0.6-0.2,1.5-0.3,2.1-0.6C60.2,16.6,59.6,16.6,59.2,16.5"/><path class="st14" d="M52,4.5c-0.1,0-0.1,0-0.2,0.1c-0.1,0-0.1,0-0.2,0.1c-0.1,0-0.2,0.1-0.3,0.1c-0.1,0-0.2,0-0.3,0c-0.2,0.1-0.3,0.2-0.5,0.3c-1.3,0.6-2.5,1.2-3.8,1.9c-0.8,0.5-1.6,0.8-2.4,1.3c-0.3,0.2-0.7,0.5-1,0.8c-2,1.4-3.6,3.2-2.8,5.3c0.1,0.1,0.1,0.3,0.3,0.4c0,0,0,0,0,0c0.1,0.2,0.2,0.3,0.4,0.4c1.1,0.3,2.2-0.5,3.1-1.4c0,0,0,0,0.1,0c0.8-0.6,1.6-1.3,2.2-2c1.1-1.4,2.3-2.9,3.5-4.3c0.6-0.8,1.7-2.1,1.9-2.3v0c0,0,0,0,0.1,0C52.4,4.9,52.3,4.5,52,4.5"/><path class="st14" d="M39.4,2C39.4,2,39.4,1.9,39.4,2c0-0.3-0.3-0.5-0.5-0.3c0,0.1-0.1,0.2-0.1,0.2c0,0,0,0,0,0l0,0c0,0,0,0,0,0c0,0,0,0,0,0c0,0,0,0,0,0c0,0,0,0,0,0c0,0,0,0,0,0c-0.1,0-0.2,0-0.3,0c-0.2,0.3-0.3,0.3-0.6,0.6c-1.9,1.5-3.7,3.8-4.7,5.8C33,9,32.9,9.7,33,10.3c0.1,0.4,0.3,0.8,0.5,1.2c0.1,0.2,0.1,0.4,0.3,0.6c0,0,0,0,0,0c0,0.1,0.1,0.2,0.2,0.2c0,0,0.1,0,0.1,0c1.2,0.8,2.4-0.2,3.1-1.4c0.4-0.7,0.8-2.1,0.9-2.9c0.2-0.9,0.4-1.8,0.6-2.7C39.2,4.3,39.2,3.2,39.4,2C39.4,2.1,39.4,2,39.4,2C39.4,2,39.4,2,39.4,2C39.4,2,39.4,2,39.4,2"/><path class="st14" d="M41.1,9.1C41.1,9.1,41.1,9.1,41.1,9.1C41.1,9.1,41.1,9.1,41.1,9.1C41.1,9.1,41.1,9.1,41.1,9.1"/><path class="st14" d="M44.6,3.8c-0.1,0-0.6,0.3-0.5,0.3c-0.8,0.5-1.7,1-2.3,1.7c-0.7,0.9-1.1,2-1.4,3.1c0,0.1,0.2,0.2,0.3,0.2c0.1,0.1,0.3,0.1,0.4,0.1c0,0,0.1,0,0.1-0.1c0,0,0,0,0,0c0.1,0,0.1,0,0.2-0.1c0.3-0.2,0.5-0.4,0.7-0.6c0.5-0.5,0.7-0.8,1.1-1.3c0.6-0.9,1-1.9,1.5-2.7c0.1-0.1,0.1-0.2,0.2-0.3C44.9,4,44.7,3.8,44.6,3.8"/><path class="st14" d="M41.1,9.1C41.1,9.1,41.1,9.1,41.1,9.1C41.1,9.1,41.1,9.1,41.1,9.1"/><path class="st14" d="M31.3,7.6c0.1-0.1,0.1-0.2,0.1-0.3c0-0.1,0-0.2,0-0.4c0.1-1.1,0.1-2.2-0.1-3.2c-0.4-1.2-1.3-2.4-2-3.2c-0.5-0.3-0.7,0.2-0.5,0.6c0.1,0.4,0,0.4,0.1,0.9c0.1,0.8,0.1,1.6,0,2.4C29,5,29.1,5.3,29.2,5.9c0.2,0.7,0.4,1.6,1.1,2c0.2,0.1,0.6,0.1,0.8,0C31.2,7.8,31.3,7.7,31.3,7.6"/><path class="st6" d="M34.8,9.7L34.8,9.7C34.7,9.7,34.7,9.7,34.8,9.7"/><g><path class="st6" d="M47.8,19.6c-0.3-0.8-0.4-1.6-0.8-2.4c-0.4-0.9-1-1.3-1.5-2.1c-0.2-0.3-0.5-0.6-0.7-0.8c-0.3-0.4-0.7-0.9-1.1-1.2c-0.5-0.4-1-0.8-1.5-1.1c-0.5-0.3-1-0.5-1.4-0.8c-1.1-0.6-2.6-1-4-1.4c-0.3-0.1-0.8,0-0.9-0.1c-0.5-0.1-0.7,0-1.1-0.1c0,0,0.1,0,0,0c0,0-0.1,0-0.1,0c-0.1,0-0.3,0-0.4,0c-0.1,0-0.2,0-0.2,0c0,0-0.2,0-0.2,0c0,0-0.1,0-0.1,0c-0.5,0-0.6,0.1-1.1,0.3c-0.1,0.1-0.3,0.1-0.5,0.2c-1,0.2-2.1,0.5-2.9,1c-0.6,0.4-1.1,1-1.7,1.5c-1.8,1.8-2.9,3.6-3.6,6c-0.4,1.7-0.6,3.5,0,5.2c0.2,1,0.7,1.9,1.3,2.7c0.9,0.6,1.4,1.2,2.3,1.9c0.5,0.4,1,0.7,1.6,1c0.4,0.2,0.8,0.5,1.2,0.7c0.9,0.3,1.8,0.6,2.8,0.6c0.9-0.1,1.5,0,2.4-0.2c2.1-0.3,4.2-0.9,6.2-1.7c1.1-0.4,2.4-1.3,3.4-2c1.4-1.2,2.1-2.9,2.6-4.6C48,21.3,47.9,20.4,47.8,19.6"/><path class="st14" d="M43.8,19.4c-0.2-1.6-0.6-3.3-2-4.3c-0.8-0.7-1.5-0.7-2.3-1.3c-0.8-0.6-1.7-1.1-2.7-1.4c-1.2-0.5-2.6-0.6-3.8-0.2c-1,0-1.9,0.7-2.7,1.2c-0.6,0.4-1.2,0.5-1.9,1c-0.9,0.7-1.6,1.7-2.1,2.7c-0.3,0.8-0.5,1.7-0.5,2.6c0.1,0.2,0.4,0.1,0.4-0.1c0.1-0.9,0.2-1.7,0.6-2.6c0.3-0.6,0.9-1.3,1.2-1.7c0.7-0.8,1.4-1,2.3-1.5c0.5-0.3,1.4-0.8,1.7-0.9c0.7-0.2,1.3-0.2,2.1-0.3c0.2-0.1,1.5,0.1,1.7,0.2c0.7,0.2,1.7,0.5,2,0.8c0.6,0.3,1.1,0.8,1.7,1.1c0.5,0.3,1,0.5,1.4,0.7c0.4,0.3,1,0.8,1.3,1.3c0.8,1.3,1,3,0.9,4.6c0.1,1.5-0.6,2.7-1.6,3.6c-0.2,0.2-0.4,0.3-0.5,0.5c-0.1,0.1-0.2,0.1-0.2,0.2c0,0,0,0,0,0c-0.6,0.3-1.2,0.5-1.8,0.8c-0.3,0.2-0.3,0.2-0.7,0.2c-0.6,0.1-0.7,0.2-1.5,0.4c-0.7,0.3-0.8,0.4-1.4,0.4c-0.6,0-1.1-0.2-1.7-0.2c-0.6-0.1-1.2-0.1-1.7-0.3c-0.7-0.3-1-0.4-1.5-0.9c-0.4-0.7-0.8-1.9-1-3c-0.2-1-0.2-2.9,0.3-3.8c0.6-1.1,1.7-1.9,2.8-2.2c0.8-0.1,1.2-0.4,1.9-0.5c0.3,0,1.6,0.1,1.9,0.2c0.1,0,0.5,0.3,0.6,0.5c0.2,0.3,1,0.8,1.1,0.9c0.2,0.2,0.3,0.6,0.5,1c0.3,0.6,0.3,1.6,0.2,2.5c0,0.4-0.4,1-0.7,1.5c-0.2,0.2-0.9,0.8-1.2,1c-0.4,0.2-0.7,0.2-1.3,0.2c-0.3,0.1-0.4,0.1-0.7,0c-0.6-0.1-1.3-0.4-1.5-0.6c-0.6-0.6-0.8-1.9-0.5-2.5c0.5-0.8,1.2-1.3,2-1.2c0.4,0.1,0.8,0.6,0.7,1.3c0,0.4-0.3,0.7-0.6,0.8c0,0,0,0,0,0c0,0,0,0-0.1,0c0,0,0,0,0,0c-0.1,0-0.1,0-0.2,0c-0.3,0.1-0.1,0.6,0.2,0.5c1.2-0.1,1.5-1.9,0.7-2.7c-0.6-0.6-1.3-0.5-1.9-0.3c-0.7,0.4-1.5,1.1-1.6,2c-0.2,0.9,0.1,1.9,0.8,2.5c0.8,0.6,1.8,0.8,2.8,0.6c0.2,0,1,0,1.4-0.3c0.6-0.3,1.1-0.8,1.5-1.3c1-1.4,1.1-3.3,0.3-4.8c-0.3-0.8-1.1-1-1.5-1.5c-0.3-0.3-0.6-0.5-1-0.7c-0.5-0.1-1.1-0.1-1.6-0.2c-0.7-0.1-1.2,0.3-1.8,0.4c-1.5,0.2-2.8,1.2-3.6,2.4c-0.4,0.9-0.5,1.9-0.5,2.9c0.1,1.2,0.3,2.5,0.8,3.8c0.1,0.3,0.2,0.6,0.4,0.8c0.3,0.4,0.7,0.7,1.1,0.9c1,0.5,2.2,0.5,3.3,0.7c0.6,0.1,1.1,0.1,1.5,0.1c0.4-0.1,0.8-0.4,1-0.4c0.6-0.2,1-0.4,1.8-0.5c0.7-0.3,1.4-0.6,2-0.9c1-0.6,1.8-1.6,2.4-2.6C43.9,22.2,43.8,20.8,43.8,19.4"/></g></g><g><path class="st0" d="M8.6,50.2c-0.2,0.3,0,0.7,0.3,0.7c0.1,0,0.2-0.1,0.3-0.3c0,0,0,0,0,0c0,0,0,0,0,0c0-0.1,0.1-0.1,0.1-0.1c0,0,0.1-0.1,0.1-0.1c0,0,0.1-0.1,0.1-0.1c0.1-0.1,0.3-0.1,0.4,0c0,0,0,0,0,0c0,0,0,0.1,0,0.1c0,0,0,0,0,0c0,0,0,0.1,0,0.1c0,0,0,0,0,0c-0.1,0.3-0.6,1.1-0.7,1.2c-0.6,0.8-1.9,1.2-2.4,1c-0.6-0.1-1-1.1-1.1-1.6c-0.1-0.3,0.4-1.4,0.4-1.6c0.3-0.6,0.8-1,1.2-1.5c0.7-0.8,1.5-1.6,1.6-2.8c0-0.3,0.1-0.6,0-0.9c-0.1-0.4-0.3-0.7-0.6-0.9C8,42.9,7,42.7,6.6,42.8c-0.7,0-1.7,0.5-1.8,1.5c-0.1,0.5-0.2,1.1,0,1.6c0.2,0.2,0.5,0.1,0.5-0.2c-0.1-1.4,0.3-2.3,1.2-2.3c0.8-0.1,1.7,0.3,1.9,0.9c0.1,0.3,0,0.9-0.1,1.2c-0.4,1.2-1.8,2.3-2.6,3.5c-0.3,0.6-0.5,1.2-0.6,1.9c0,0.5,0.2,1,0.4,1.4C6.3,54,8,53.6,9.2,52.8c0.8-0.5,1.3-1.4,1.6-2.2C10.9,49.2,9.1,49.1,8.6,50.2"/><path class="st0" d="M12.7,34.3c-1.3-0.4-2.8-0.6-4.1-0.3c-1,0.3-1.7,1.1-2.3,1.8c-0.4,0.4-0.7,0.9-0.9,1.5c0,0.1,0,0.1,0,0.2c0.1,0.2,0.3,0.1,0.4,0c0.7-1.3,1.8-2.7,3-3c1.9-0.2,4.1,0.1,4.6,1.4c0.6,1,0.5,1.8,0.4,3.1c-0.2,1-0.7,1.6-1.9,1.7c-0.8,0.2-1.6,0.2-1.9,0.1c-1.1-0.5-1.1-1.5-0.7-2.2c0.3-0.5,0.7-0.6,1.3-0.4c0.3,0.1,0.4,0.2,0.5,0.2c0,0,0,0,0,0c0,0,0,0,0,0c0,0.1,0,0.2,0.1,0.2c0.2,0.2,0.5,0.2,0.6,0c0.3-0.9-0.9-1.3-1.6-1.3c-1.7,0-2.3,2.3-1.3,3.4c0.8,1,2.1,1,3.2,0.7c0.5-0.1,1-0.2,1.4-0.5c0.4-0.3,0.7-0.7,0.9-1.1C15,38,14.8,35.1,12.7,34.3"/><path class="st0" d="M24.5,43.1c-0.1-1.4,0-3.2-1.4-4c-1.2-0.5-2.7-0.8-3.8-0.6c-1.1,0.3-2,1.1-2.7,1.9c-0.6,0.6-0.8,1.5-1,2.3c-0.2,1.1-0.5,2.1-0.4,3.2c0,0.8,0.2,1.9,0.4,2.5c0,0.2,0.1,0.3,0.3,0.3c0.2,0,0.3-0.2,0.3-0.3c-0.8-2.2-0.4-5.2,0.7-7.3c1-1.2,2.2-2.3,3.8-2c1.1,0.2,2.4,0.4,2.7,1.3c0.3,0.7,0.3,1.4,0.4,2.2c0.1,1.2,0,2.2-0.6,2.8c-1.1,1-3.4,0.7-3.7-0.4c-0.1-0.4-0.1-0.7,0.1-1.1c0.4-0.4,0.5-0.5,0.5-0.5c0,0,0,0,0.1-0.1c1-0.6,1.8-0.6,2.2,0.2c0,0.1,0.1,0.2,0.1,0.3c0,0.1,0,0.3,0.1,0.3c0.2,0.2,0.4,0.2,0.6,0c0.2-0.4,0-0.8-0.2-1.1c-0.9-1.4-3-0.7-3.8,0.3c-0.4,0.5-0.4,1.2-0.2,1.8c0.7,1.7,3.1,1.8,4.5,1C24.3,45.6,24.5,44.2,24.5,43.1"/><path class="st0" d="M36.6,42.6c-1.5-1.6-3.9,0.1-5.1,1.3c-0.2,0.3-0.5,0.5-0.5,0.8c0,0.2,0.4,0.3,0.5,0.1c0.9-1.3,3.2-2.5,4.1-2.1c0.6,0.4,1.2,1.2,1.3,1.8c0.3,1-0.7,2-1.6,2c-0.8,0-0.8-0.5-0.4-0.9c0,0,0.1-0.1,0.2-0.1c0.1,0,0.2,0,0.3-0.1c0.1,0,0.3,0,0.4-0.1c0.2-0.1,0.2-0.4,0-0.6c-0.3-0.1-0.6,0-0.8,0c-0.4,0.1-0.7,0.4-0.8,0.8c-0.4,1,0.4,1.7,1.3,1.6c1.1-0.1,2.1-0.9,2.2-2C37.9,44.2,37.3,43.3,36.6,42.6"/><path class="st0" d="M46.8,41.9c-1.1,0.3-2.1,1.1-2.9,1.9c-0.7,0.7-1.3,1.5-1.8,2.4c-0.1,0.1-0.1,0.3,0,0.4c0.1,0.2,0.4,0.2,0.5,0c1.6-2.8,4.6-5.5,7.3-3.5c1.7,1.1,2.6,4.1,1.7,5.7c-0.8,1.2-1.6,1.9-3,1.7c-0.2-0.1-1.3-0.2-1.4-0.3c-0.9-0.6-1.1-0.9-0.9-2.1c0.1-0.6,0.8-1.2,1.6-1.1c0.3,0,0.7,0.1,0.9,0.2c0,0,0,0,0,0c0,0.1,0.1,0.1,0.1,0.2c0.1,0.2,0,0.3,0.1,0.8c0.2,0.4,0.8,0.2,0.7-0.2c0.1-0.6-0.2-1.4-0.9-1.6c-1.3-0.5-3,0-3.3,1.5c-0.1,0.7-0.2,1.4,0.2,2c0.5,0.8,1.5,1.2,2.2,1.2c1,0.3,2.2,0.1,3-0.6C54.9,47.9,51.5,40.5,46.8,41.9"/><path class="st0" d="M63,25.8c-0.8-1.2-2.3-0.7-3.5-0.7c-0.3,0.1-0.8,0.1-1,0.4c-0.1,0.2,0.2,0.5,0.4,0.4c0.8-0.3,2.9-0.5,3.3-0.1c1,0.9,1,2.4,0.2,3.5c-0.5,0.8-1.9,1.1-2.6,0.7c-0.3-0.1-0.2-1.1,0.5-1.4c0.1-0.1,0.5-0.1,0.6,0c0.1,0,0.1,0.1,0.4,0.1c0.5-0.2,0.3-0.7-0.2-0.8c-0.6-0.1-1.2,0-1.6,0.5c-0.5,0.5-0.6,1.2-0.4,1.8c0.2,0.5,0.8,0.6,1.3,0.7c1,0.1,2-0.3,2.6-1.1C63.8,28.8,63.9,27,63,25.8"/><path class="st0" d="M60.5,43.1c-1,0-2,0.9-1.8,1.9c0.2,0.6,1,1,1.6,1c0.3,0,0.6,0,0.9,0c0.3-0.1,0.3-0.5,0.1-0.6c-0.4-0.1-0.8,0-1.1-0.1c-0.1,0-0.3-0.1-0.3-0.1c-0.1-0.1-0.3-0.2-0.3-0.2c0,0-0.1,0-0.1-0.1c0,0,0,0,0-0.1c0-0.3,0.2-0.8,0.5-0.9c0,0,0.6-0.2,0.5-0.2c0,0,0.1,0,0.1,0c0.1,0,0.5,0.2,0.6,0.2c1.2,0.6,1.4,2.1,0.8,2.8c-0.6,0.5-0.6,0.5-1.4,0.8c-1,0.2-1.3,0.2-2.3-0.2c-2.4-0.8-3.1-4-2-6.5c0.8-1.7,3.2-2.3,5.2-1.8c0.1,0,0.3,0.2,0.6,0.3c0.4,0.1,0.6-0.4,0.3-0.6c-0.7-0.5-1.5-0.5-2.3-0.5c-1.7-0.1-3.4,0.7-4.2,2.2c-1.3,2.4-0.9,6.1,1.7,7.5c1,0.5,2.3,0.8,3.4,0.4C64.1,47.4,63.5,43.6,60.5,43.1"/><path class="st0" d="M62.5,52.2c-0.7-1.9-3.2-2-4.7-1.1c-1.1,0.7-1.6,2-2,3.3c0,0.2-0.2,0.5,0,0.7c0.2,0.2,0.5,0.1,0.5-0.2c0.2-1.2,0.9-2.8,2-3.3c1-0.5,2.5-0.4,3.2,0.4c1,1,0.1,2.7-1.1,2.7c-0.1,0-0.1,0-0.2,0c0,0,0,0,0,0c0,0,0,0,0,0c-0.2-0.3,0-0.5,1-0.7c0.3,0,0.6-0.2,0.4-0.5c-0.2-0.4-0.7-0.1-1,0c-0.5,0.1-1,0.4-1.1,1c-0.1,1.5,1.6,1.2,2.4,0.5C62.5,54.2,62.8,53.1,62.5,52.2"/><path class="st0" d="M66,33.3c-0.5-0.2-1-0.1-1.4,0.1c-0.6,0.2-1.1,0.5-1.3,0.9c-0.1,0.3,0.4,0.5,0.5,0.2c0.2-0.4,1.2-0.8,1.9-0.8c0.2,0,0.7,0.4,0.7,0.7c0,1-0.5,2.4-1.3,2.3c-0.2,0-0.2-0.2,0-0.3c0.1-0.1,0.9,0,0.7-0.6c-0.1-0.3-0.5-0.2-0.7-0.1c-0.4,0.1-0.8,0.5-0.8,0.9c0,0.8,1.1,1,1.6,0.5c0.7-0.4,0.9-1.3,1-2.1C67.1,34.4,66.7,33.6,66,33.3"/><path class="st0" d="M10.2,27.1c0-0.3-0.1-0.7-0.3-0.9C9.6,26,9.2,26,8.9,26c-0.5,0.2-0.8,0.8-1,1.2c-0.3,0.8-0.7,1.6-0.8,2.5C7,30.2,7.5,30.4,7.6,30c0-1.1,0.7-2.6,1.2-3.3c0.2-0.3,0.6-0.2,0.7-0.2c0.2,0,0.2,0.9,0.1,1.6c0,0,0,0,0,0c-0.4,0.2-0.5,0.7-0.5,1.1c0.1,0.2,0.3,0.4,0.5,0.3c0.2,0,0.3-0.2,0.4-0.4C10.2,28.6,10.2,27.8,10.2,27.1"/></g><g><defs><path id="_2" d="M69.5,39.5c-0.2-1.7-0.5-3.5-1-5.2c-0.5-2-0.7-4.1-1.5-6.1c-0.8-2-2-3.8-3.2-5.6c-1.8-2.7-3.7-5.3-5.9-7.7c-2.7-2.9-6.1-5-9.4-7.3c-3.1-1.9-6.3-4.1-10-4.6c-0.6,0-1.2,0-1.8,0c-0.1,0-0.2-0.1-0.3-0.1c-1.4-0.4-2.9-0.5-4.3-0.1c-2.2,0.7-4.2,1.8-6.2,3c-1.4,0.8-2.8,1.7-4.1,2.6c-0.6,0.4-1.2,0.8-1.8,1.2c-0.4,0.3-0.7,0.7-1.1,1c-3.8,3.2-7.2,6.9-9.9,11c-1.3,2.5-2.7,5-3.9,7.5c-0.7,1.9-1.3,3.9-2,5.8c-0.6,1.6-0.8,3.2-1,4.9c-0.4,1.1-0.5,2.3-0.6,3.4c-0.1,1.3-0.1,2.7-0.1,4c0.2,1.1,0,2.4,0.3,4.4c0.1,0.7,0.4,1.4,0.6,2.1c0.2,0.9,0.5,1.8,0.8,2.7c0.3,0.9,0.3,0.6,0.7,1.8c0,0.2,0.2,0.5,0.2,0.7c0.1,0.2,0.2,0.5,0.3,0.7c0.4,0.6,0.8,1.1,1.3,1.6c0.6,1,1.3,1.8,2.2,2.6c-0.1-0.1-0.1-0.1,0.1,0.1c0.6,0.7,1.5,1.1,2.3,1.5c0.5,0.3,1.1,0.5,1.8,0.6c-0.2,0-0.4-0.1-0.1,0c0,0,0.1,0,0.1,0c0.1,0,0.1,0,0.2,0c0,0-0.1,0-0.2,0c1.5,0.4,3,0.4,4.6,0.4c2.2-0.1,4.4-0.7,6.5-1.1c0.9-0.1,1.8-0.5,2.7-0.7c1.4-0.3,2.8-0.5,4.1-0.8c2.1-0.4,4.1-0.7,6.2-1.1c-0.2,0-0.4,0-0.5,0c3-0.2,3.5-0.5,6-0.3c3.4,0.1,4.6,0.2,8.1,1.7c0.7,0.3,1.4,0.6,2.2,0.7c-0.1,0,0,0,0.1,0c0.1,0,0.2,0,0.3,0.1c-0.1,0-0.1,0-0.2,0c0,0,0,0,0,0c1,0.2,1.9,0.4,2.9,0.2c-0.2,0-0.4,0-0.5,0c1.5-0.2,1.6,0.2,3.8-0.5c1.9-0.7,3.8-1.3,5.2-2.8c1.7-1.6,2.8-3.6,3.9-5.6c0.4-1,0.6-2.2,0.9-3.3c0.5-1.5,0.7-3,1-4.6C70.1,45.6,70,42.5,69.5,39.5"/></defs><clipPath id="_3"><use xlink:href="#_2" style="overflow:visible;"/></clipPath><g style="clip-path:url(#_3);"><path class="st5" d="M68.8,53c-0.1-0.1-0.3-0.1-0.4,0c-0.3,0.1-0.6,0.3-0.8,0.5c-0.1,0.1-0.4,0.3-0.7,0.4c-0.5,0.3-0.9,0.6-1.5,0.8c-1.2,0.6-2.1,1-3.3,1.3c-1,0.3-1.5,0.6-2.4,0.8c-1.5,0.2-3.3,0.3-4.8-0.1c-1.5-0.4-2.9-1.2-4.2-2.3c-2.8-2.2-5.8-4-9.2-5.2c-4.4-1.4-9.2-2-13.8-1.5c-4,0.7-7.9,2-11.4,4c-1.4,0.8-3,2-4.1,2.8c-1.6,0.9-3.2,2-4.6,2.6C6.2,57.5,5,57.3,3.8,57c-0.4-0.1-0.7-0.2-1-0.3c0,0,0,0,0,0c-0.1-0.2-0.4-0.2-0.6,0c-0.1,0.2-0.2,0.5-0.3,0.7c0,0.3,0.2,0.5,0.2,0.7c0.3,0.8,0.4,1.7,0.9,2.4c0.4,0.8,0.9,1.1,1.2,2c0.1,0.8,1,2.4,1.9,3.2c1.2,1.3,3.1-0.6,4.2-1.3c1.7-1.2,3.1-2.6,4.7-3.5c4.2-2.5,8.4-4.5,13-5.5c3.6-0.5,7.3-0.7,11.1,0c2.1,0.1,3.8,0.7,5.8,1.5c3.1,1.2,5.8,3,8.9,4.4c1.5,0.5,3,1,4.5,1.4c1.3,0.3,2.6,0.2,4,0.4c1,0.1,2,0.2,3,0.1c0.4-0.1,1,0.1,1.3-0.2c0.7-1.1,1.5-2.6,1.8-3.8c0.3-1.5,0.3-3,0.5-4.5c0.1-0.4,0.1-0.9,0.2-1.3C69,53.3,69,53.1,68.8,53"/><g><path class="st13" d="M11.4,59.6C11.5,59.6,11.5,59.6,11.4,59.6"/><path class="st13" d="M12.2,64.6C12.2,64.6,12.2,64.6,12.2,64.6C12.2,64.6,12.2,64.6,12.2,64.6L12.2,64.6z"/><path class="st4" d="M7.3,60.5C7,60.3,6.7,60,6.4,59.8c-0.3-0.2-0.5,0.2-0.3,0.4c0.3,0.2,0.7,0.5,1,0.7c0.1,0.1,0.4,0.1,0.4-0.1C7.6,60.7,7.4,60.6,7.3,60.5"/><path class="st4" d="M8,58.6c-0.1-0.1-0.1-0.4-0.3-0.4c-0.2-0.1-0.4,0.2-0.3,0.4c0.2,0.5,0.4,1,0.7,1.5c0.1,0.2,0.4,0.1,0.4-0.1C8.6,59.7,8.2,59.1,8,58.6"/><path class="st4" d="M9.4,59.3c-0.1-0.5-0.1-1.1-0.2-1.6c0-0.1-0.1-0.1-0.1-0.1c-0.2-0.1-0.4,0-0.4,0.2c0,0.4,0.1,0.9,0.1,1.3c0.1,0.3,0,0.6,0.2,0.8c0.1,0.1,0.3,0,0.4-0.1C9.4,59.6,9.4,59.4,9.4,59.3"/><path class="st4" d="M15.1,55c-0.2-0.1-0.4-0.2-0.6-0.3c-0.3,0-0.3,0.4-0.1,0.5c0.4,0.1,0.4,0.2,0.7,0.3c0.1,0,0.2,0,0.2-0.1C15.5,55.2,15.2,55.1,15.1,55"/><path class="st4" d="M15.8,53.8c-0.2-0.2-0.5,0.1-0.4,0.3c0.2,0.2,0.3,0.7,0.6,0.6C16.4,54.4,16,54.1,15.8,53.8"/><path class="st4" d="M17.6,53c-0.1-0.3-0.5-0.2-0.5,0.1c-0.1,0.7-0.2,1.5-0.2,2.3c0.1,0.2,0.4,0.2,0.5,0.1c0.1-0.1,0-0.3,0-0.5C17.4,54.3,17.6,53.6,17.6,53"/><path class="st4" d="M25.3,51.1c-0.2-0.3-0.4-0.6-0.6-0.9c-0.2-0.2-0.5,0.1-0.4,0.3c0.2,0.3,0.4,0.7,0.7,1.1c0,0,0.1,0.1,0.2,0.1C25.6,51.6,25.5,51.3,25.3,51.1"/><path class="st4" d="M26.3,50.5c-0.1-0.2-0.1-0.4-0.3-0.6c-0.2-0.2-0.5,0.1-0.4,0.3c0.2,0.3,0.2,0.6,0.4,0.9c0.1,0.1,0.3,0.1,0.4-0.1C26.4,50.8,26.3,50.7,26.3,50.5"/><path class="st4" d="M27.9,49.3c-0.2,0.8-0.4,1.6-0.7,2.3c0,0.1,0,0.3,0.2,0.3c0.3,0.1,0.4-0.2,0.4-0.4c0.2-0.7,0.4-1.3,0.6-2C28.5,49.3,28.1,48.9,27.9,49.3"/><path class="st4" d="M35.4,51.5c-0.1-0.4-0.1-0.7-0.3-1.1c-0.2-0.2-0.6-0.1-0.5,0.2c0.1,0.4,0.1,0.8,0.4,1.2C35.2,51.9,35.5,51.7,35.4,51.5"/><path class="st4" d="M36.7,50.7c0-0.3-0.5-0.4-0.5,0c0,0.3,0,0.7,0,1c0,0.1,0.2,0.2,0.3,0.2C36.9,51.7,36.7,51.1,36.7,50.7"/><path class="st4" d="M38.5,50.2c-0.3,0.6-0.5,1.2-0.7,1.8c-0.1,0.2,0.1,0.3,0.2,0.3c0.1,0,0.2-0.1,0.3-0.2c0.2-0.6,0.5-1.2,0.7-1.8C39.1,50,38.6,49.9,38.5,50.2"/><path class="st4" d="M43.1,52.2c0-0.3-0.5-0.4-0.5,0c-0.1,0.5-0.1,0.9-0.1,1.4c0,0.1,0,0.2,0.1,0.2c0.2,0.1,0.4-0.1,0.4-0.3C43,53,43,52.6,43.1,52.2"/><path class="st4" d="M44.3,52.6c-0.2-0.2-0.5-0.1-0.5,0.2c0,0.4-0.2,0.9-0.2,1.3c0.1,0.2,0.3,0.2,0.4,0.1c0.2-0.2,0.1-0.5,0.2-0.8C44.3,53.1,44.5,52.8,44.3,52.6"/><path class="st4" d="M46.4,53c0-0.2-0.4-0.3-0.5-0.1c-0.3,0.4-0.6,0.9-0.8,1.3c-0.1,0.3-0.4,0.5-0.4,0.9c0.1,0.4,0.5,0.2,0.6-0.1c0.3-0.6,0.7-1.2,1.1-1.7C46.4,53.2,46.4,53.1,46.4,53"/><path class="st4" d="M51.2,57.6c0-0.4,0-0.8-0.1-1.2c-0.1-0.3-0.5-0.2-0.5,0.1c0,0.4,0,0.9,0.1,1.3c0,0.1,0.1,0.1,0.1,0.1C51.1,58,51.3,57.8,51.2,57.6"/><path class="st4" d="M52.5,57.1c-0.1-0.3-0.5-0.2-0.5,0.1c0,0.3-0.2,0.9,0.2,0.9c0.2,0,0.2-0.2,0.2-0.3C52.5,57.5,52.6,57.3,52.5,57.1"/><path class="st4" d="M53.4,57.3c-0.3,0.5-0.5,0.9-0.7,1.4c0,0.1,0,0.3,0.2,0.3c0.1,0,0.3,0,0.3-0.1c0.3-0.5,0.4-0.8,0.6-1.3C54,57.3,53.6,57.1,53.4,57.3"/><path class="st4" d="M60.5,58.6c-0.1-0.2-0.2-0.5-0.4-0.7c-0.2-0.2-0.6,0.1-0.4,0.3c0.2,0.3,0.3,0.6,0.5,0.9c0.1,0.1,0.2,0.1,0.3,0C60.7,59,60.6,58.8,60.5,58.6"/><path class="st4" d="M62.4,58.7c0-0.2,0-0.7-0.1-1.1c0-0.5-0.7-0.4-0.6,0c0.1,0.5,0,0.7,0.1,1.3c0,0.2,0.2,0.3,0.4,0.3C62.5,59.1,62.5,58.9,62.4,58.7"/><path class="st4" d="M64.3,56.4c-0.3,0.8-0.5,1.6-0.8,2.4c-0.1,0.2,0.2,0.4,0.4,0.3c0.4-0.5,0.6-1.8,0.9-2.6C64.9,56.3,64.4,56.1,64.3,56.4"/></g></g><g style="clip-path:url(#SVGID_00000117636347294419990120000006286622193619799466_);"><path class="st4" d="M65.9,61.3c-0.4-0.5-1-0.8-1.6-1c-0.9-0.2-1.8-0.1-2.7-0.2c-0.8,0-1.6,0.2-2.3,0.3c-1.8,0.2-3.8-0.1-5.7-0.8c-3-1.2-5.4-2-8-3.3c-2-0.7-3.1-1.2-5-1.9c-1.2-0.4-2.8-0.8-3.7-0.9c-1.4-0.2-2.7-0.3-4.1-0.6c-3.7-0.3-7.4,0.3-10.9,1.4c-4.4,1.6-8.7,4.6-12.1,6.9c-1.2,0.7-1.9,1.3-3.2,1.9c-0.5,0.2-1,0.5-1.5,0.7c-0.2,0.1-0.5,0.2-0.7,0.3c0,0,0,0,0,0c0,0,0,0,0,0c-0.2,0.1-0.3,0.3-0.3,0.5C4,64.6,4,64.8,4,65c0.1,0.5,0.7,0.7,1.1,0.9c0.8,0.5,1.6,1,2.5,1.3c0.7,0.2,1.4,0.4,2.2,0.6c1.6,0.1,3.1-0.1,4.7-0.2c1.2-0.1,3.4-0.1,4.9-0.4c4.4-0.9,8.8-2,13.3-2.5c2.8-0.3,5.1-0.7,7.8-0.3c1.6,0.1,3.2,0.7,5,1c1.2,0.3,2.4,0.7,3.7,1c1.2,0.3,2.3,0.5,3.5,0.7c2.3,0.4,4.7,0.3,7-0.1c1.5-0.3,3.2-0.3,4.5-1c0.7-0.7,1.4-1.4,1.8-2.3C66.5,63,66.3,62.1,65.9,61.3"/><g><path class="st13" d="M51.8,62.8c0,0,0.1,0,0.2,0c0,0-0.1,0-0.1,0C51.9,62.8,51.8,62.8,51.8,62.8"/><path class="st5" d="M11.1,64.6c-0.4-0.4-0.6-0.5-1-0.9c-0.1-0.1-0.1-0.1-0.2-0.1c-0.3,0-0.5,0.3-0.3,0.6c0.5,0.5,0.8,0.7,1.3,1.2c0.1,0.1,0.3,0.3,0.5,0.2C11.8,65.3,11.3,64.8,11.1,64.6"/><path class="st5" d="M12.3,63.1c-0.3-0.4-0.5-0.8-0.8-1.2c-0.2-0.4-0.8-0.1-0.6,0.3c0.3,0.5,0.6,1,0.9,1.4c0.1,0.1,0.2,0.1,0.2,0.1C12.4,63.6,12.4,63.3,12.3,63.1"/><path class="st5" d="M14,61.7c0-0.1,0-0.2-0.1-0.2c-0.2-0.2-0.6-0.1-0.6,0.2c0,0.6,0,1.2,0,1.8c0,0.4,0.7,0.5,0.7,0C14,62.9,14,62.3,14,61.7"/><path class="st5" d="M20.8,56.9c-0.2-0.3-0.4-0.6-0.7-0.8c-0.3-0.1-0.5,0.2-0.3,0.4c0.3,0.3,0.5,0.6,0.7,0.9c0.1,0.1,0.1,0.1,0.2,0.1C21.2,57.5,21.1,57.1,20.8,56.9"/><path class="st5" d="M22.4,56.2c-0.1-0.2-0.1-0.5-0.2-0.7c-0.2-0.3-0.6-0.1-0.5,0.2c0.1,0.3,0.2,1.5,0.8,1C22.5,56.5,22.4,56.3,22.4,56.2"/><path class="st5" d="M24.4,54.8c0-0.4-0.7-0.5-0.7,0c0,0.5-0.1,1.1-0.1,1.6c0,0.1,0,0.2,0.1,0.2c0.2,0.2,0.6,0.1,0.6-0.2C24.3,55.9,24.3,55.4,24.4,54.8"/><path class="st5" d="M20.2,62.8c-0.2-0.2-0.3-0.4-0.5-0.5c-0.3-0.2-0.6,0.3-0.4,0.5c0.3,0.3,0.6,1.1,1.1,0.6C20.6,63.2,20.4,63,20.2,62.8"/><path class="st5" d="M22.4,62.5c-0.3-0.9-0.6-1.7-1-2.5c-0.2-0.2-0.6,0.1-0.5,0.3c0.2,0.5,0.6,1.6,0.7,1.8c0.2,0.4,0.1,0.5,0.4,0.8C22.2,63.2,22.5,62.8,22.4,62.5"/><path class="st5" d="M23.8,60.9c0-0.4-0.6-0.4-0.6,0c0,0.5-0.2,1.4,0,1.8C24,63.2,23.7,61.3,23.8,60.9"/><path class="st5" d="M30.9,55.4c-0.1-0.4-0.2-0.8-0.3-1.1c-0.1-0.4-0.7-0.2-0.6,0.1c0.1,0.5,0.2,1,0.4,1.4c0,0.1,0.1,0.2,0.2,0.2C31.1,56.1,31.1,55.6,30.9,55.4"/><path class="st5" d="M32.7,55.5c0-0.5,0.1-1,0.1-1.4c0-0.4-0.6-0.4-0.6,0c0,0.6-0.1,1.1-0.1,1.7c0,0.1,0.1,0.1,0.1,0.2C32.5,56,32.7,55.8,32.7,55.5"/><path class="st5" d="M34.4,53.6c-0.1,0.4-0.3,0.9-0.4,1.3c0,0.3-0.2,0.5-0.1,0.8c0.1,0.2,0.3,0.2,0.5,0.1c0.2-0.3,0.5-1.6,0.6-2.1C35,53.3,34.5,53.3,34.4,53.6"/><path class="st5" d="M28.2,61.4c-0.3-0.3-0.4-0.8-0.8-0.9c-0.3,0-0.4,0.3-0.2,0.5c0.4,0.6,0.6,0.8,0.9,1.4c0.1,0.1,0.3,0.2,0.4,0.1C28.9,62.2,28.3,61.7,28.2,61.4"/><path class="st5" d="M30.2,60.9c-0.2-0.5-0.3-1.1-0.6-1.6c-0.2-0.3-0.6-0.1-0.6,0.2c0.2,0.6,0.4,1.2,0.6,1.8c0,0.3,0.4,0.3,0.6,0.1C30.3,61.3,30.2,61.1,30.2,60.9"/><path class="st5" d="M31.3,59.5c-0.2,0.6-0.3,1.1-0.4,1.7c-0.1,0.2,0.2,0.5,0.4,0.4c0.2-0.1,0.2-0.3,0.2-0.5c0.1-0.5,0.3-1,0.3-1.4C31.9,59.3,31.4,59.2,31.3,59.5"/><path class="st5" d="M37,61.1c-0.1-0.5-0.1-1.1-0.2-1.6c0-0.3-0.4-0.3-0.6-0.1c-0.1,0.2,0,0.4,0,0.8c0.1,0.4,0,0.8,0.2,1.2C36.6,61.6,37.1,61.4,37,61.1"/><path class="st5" d="M38,59.8c-0.3,0-0.3,0.3-0.3,0.5c0,0.2-0.1,0.5,0,0.7c0.1,0.3,0.6,0.3,0.6-0.1C38.2,60.6,38.6,59.8,38,59.8"/><path class="st5" d="M40.4,60.1c-0.5-0.6-1.1,1-1.4,1.3c-0.2,0.4,0.3,0.7,0.6,0.4c0.2-0.5,0.6-1,0.9-1.5C40.4,60.3,40.4,60.2,40.4,60.1"/><path class="st5" d="M38.3,55.5c0-0.1-0.1-0.2-0.3-0.2c-0.3,0-0.3,0.3-0.3,0.5c0,0.3,0,0.7,0,1c0.1,0.3,0.6,0.2,0.6-0.1C38.3,56.3,38.4,55.9,38.3,55.5"/><path class="st5" d="M39.3,55.7c-0.2,0.1-0.2,0.4-0.3,0.6c0,0.1-0.1,0.3,0,0.5c0.1,0.2,0.5,0.2,0.6,0c0-0.3,0.2-0.5,0.2-0.8C39.7,55.7,39.4,55.6,39.3,55.7"/><path class="st5" d="M41.6,56.1c-0.1-0.3-0.5-0.3-0.7,0c-0.4,0.4-0.7,0.7-1,1.1c-0.4,0.3,0.1,0.9,0.5,0.5c0.4-0.5,0.8-0.9,1.2-1.3C41.6,56.3,41.6,56.2,41.6,56.1"/><path class="st5" d="M44.5,61.5c0-0.2-0.1-0.6-0.4-0.6c-0.2,0-0.3,0.3-0.2,0.4c0.1,0.5,0.1,1,0.2,1.5c0.1,0.4-0.1,0.4,0.1,0.8c0.2,0.2,0.5,0.1,0.5-0.2C44.6,62.8,44.6,62.2,44.5,61.5"/><path class="st5" d="M46.5,61.9c-0.2-0.2-0.5-0.1-0.6,0.1c-0.2,0.5-0.3,1-0.4,1.5c0,0.1,0,0.2,0.1,0.3c0.2,0.2,0.6,0.1,0.6-0.2c0-0.4,0.2-0.8,0.3-1.3C46.6,62.1,46.6,61.9,46.5,61.9"/><path class="st5" d="M48.6,62.7c-0.2,0-0.3,0.2-0.5,0.3c-0.4,0.4-0.8,0.8-1,1.3c-0.1,0.3,0.4,0.6,0.6,0.3c0.3-0.7,0.7-0.8,1.1-1.4C49,63,48.8,62.7,48.6,62.7"/><path class="st5" d="M45.6,57.8c-0.1-0.2-0.3-0.3-0.5-0.1c-0.2,0.3,0,0.8-0.1,1.1c0,0.4,0.6,0.4,0.6,0C45.6,58.5,45.6,58.2,45.6,57.8"/><path class="st5" d="M46.9,58.2c-0.3-0.2-0.5,0.1-0.6,0.4C46.2,58.8,46,59,46,59.2c0,0.3,0.5,0.4,0.6,0.1c0.1-0.4,0.2-0.4,0.4-0.8C47.1,58.4,47,58.2,46.9,58.2"/><path class="st5" d="M48.4,59.3c0-0.2-0.2-0.4-0.4-0.3c-0.3,0.1-0.5,0.4-0.6,0.6c0,0-0.1,0.1-0.1,0.1c0,0,0,0,0,0c0,0,0,0,0,0c0,0,0,0.1,0,0.1c-0.1,0.3,0.3,0.5,0.5,0.3c0,0,0.1,0,0.1-0.1C48,59.8,48.3,59.6,48.4,59.3"/><path class="st5" d="M53.3,65.3c-0.2-0.7-0.5-1.4-0.6-1.7c0-0.1-0.1-0.3-0.3-0.3c-0.7,0-0.3,0.7-0.2,1.1c0.2,0.4,0.2,1,0.5,1.3C53,65.8,53.4,65.6,53.3,65.3"/><path class="st5" d="M54.7,65.3c-0.1-0.4-0.2-0.9-0.2-1.4c-0.1-0.3-0.5-0.4-0.6-0.1c-0.1,0.3,0,0.2,0,0.6c0.1,0.4,0.1,0.8,0.2,1.2C54.2,65.9,54.8,65.7,54.7,65.3"/><path class="st5" d="M56.9,64.1c-0.4-0.4-0.7,0.1-0.8,0.4c-0.3,0.5-0.3,0.6-0.6,1.1c-0.3,0.5,0.5,0.8,0.6,0.3c0.2-0.4,0.7-1.4,0.7-1.5C57,64.4,57,64.2,56.9,64.1"/><path class="st5" d="M61.6,64.8c-0.1-0.2-0.5-0.8-0.7-1.2c-0.1-0.1-0.2-0.2-0.3-0.2c-0.8,0.1,0.2,1.3,0.4,1.7C61.2,65.7,61.9,65.4,61.6,64.8"/><path class="st5" d="M62.6,64.3c-0.1-0.4-0.1-0.9-0.2-1.3c0-0.1-0.1-0.2-0.2-0.2c-0.4-0.1-0.4,0.4-0.3,0.7c0.1,0.3,0,0.7,0.2,1.1C62.2,64.8,62.6,64.6,62.6,64.3"/><path class="st5" d="M63.6,63.1c-0.2,0.4-0.3,0.8-0.5,1.3c0,0.1,0,0.2,0,0.3c0.1,0.3,0.6,0.2,0.7,0c0.1-0.4,0.3-0.7,0.4-1.1C64.5,63.1,63.9,62.6,63.6,63.1"/></g></g></g></g></g></svg>