<?xml version="1.0" encoding="utf-8"?>
<svg version="1.1" xmlns="http://www.w3.org/2000/svg" xmlns:xlink="http://www.w3.org/1999/xlink" x="0px" y="0px" viewBox="0 0 59.9 65.3" style="enable-background:new 0 0 59.9 65.3;" xml:space="preserve"><style type="text/css">.st0{fill:#FFFFFF;}.st1{fill:#8CA2CF;}.st2{clip-path:url(#SVGID_00000137846727237234831030000007627115361410389932_);}.st3{fill:#627EB5;}.st4{fill:#8CA05C;}.st5{fill:#677724;}.st6{fill:#E0A955;}.st7{fill:#BBD7FF;}.st8{fill:#3C5987;}.st9{clip-path:url(#SVGID_00000000192547495291099990000015430193004998391461_);}.st10{fill:#669CD3;}.st11{clip-path:url(#SVGID_00000093889292826200564280000005165719627556319116_);}.st12{fill:#92C4FC;}.st13{fill:#FAF4D2;}.st14{fill:#FCCB7C;}.st15{clip-path:url(#SVGID_00000063616835533673976350000018022258087152300937_);}.st16{clip-path:url(#SVGID_00000037671843169779479380000014870318836871449496_);}.st17{fill:#C5CAF0;}.st18{clip-path:url(#SVGID_00000007400051227365670960000004888819233715620782_);}.st19{clip-path:url(#SVGID_00000164499232947713547740000012298271199773645710_);}.st20{clip-path:url(#SVGID_00000080206585905616163920000002926508404318789249_);}.st21{clip-path:url(#SVGID_00000091710434152316365580000009904980861253334942_);}.st22{fill:#F9CC3D;}.st23{fill:#FFEAAE;}.st24{fill:#FFECB8;}.st25{fill:#D3AA37;}.st26{fill:#FFE08A;}.st27{clip-path:url(#SVGID_00000002372962597215731520000008483081419316424114_);}.st28{clip-path:url(#SVGID_00000138566999944282905330000002317147646046384005_);}.st29{clip-path:url(#SVGID_00000121964125151665872710000007027171641278217656_);}.st30{clip-path:url(#SVGID_00000152948511232204613550000010598854656926097564_);}.st31{clip-path:url(#SVGID_00000030485555320263781630000014551391097958130599_);}.st32{clip-path:url(#SVGID_00000065789669398602760330000016066007156908289707_);}.st33{clip-path:url(#SVGID_00000088812346112217171320000015584183744734133948_);}.st34{clip-path:url(#SVGID_00000094577526366102009330000011180450202612138147_);}.st35{clip-path:url(#SVGID_00000057139817995258161850000011272492493869037972_);}</style><g ></g><g ><g><path class="st1" d="M59.8,27.8c-0.1-0.8-0.1-2.5-0.6-4.9c-0.4-1.7-0.7-3.3-1.2-5c-0.7-1.7-0.5-1.2-1.1-2.6c-0.2-0.4-0.6-1.5-1.5-2.7c-1.2-1.4-2.3-3-3.6-4.3c-1.8-1.6-3.4-3-4.5-3.8c-2.3-1.4-4.2-2.5-5.7-3c-2-0.5-2.9-0.7-4.1-0.8c0,0,0,0,0.1,0c0,0,0,0-0.1,0c-0.1,0-0.1,0-0.2,0c-0.4,0-0.1,0,0.1,0c-0.2,0-0.4-0.1-0.5-0.1c-0.3-0.1-0.7-0.1-1-0.2c0,0,0,0,0,0c-0.1,0-0.3,0-0.4-0.1c0,0,0.1,0,0.2,0c-3-0.5-3.9-1-6.9-0.6c0,0-0.1,0-0.2,0c-1.3,0.1-2.5,0.5-3.7,0.9c-1.3,0.3-1,0.1-2.8,0.5c-2,0.7-2.1,0.7-4.1,1.8c-0.6,0.3-1.2,0.7-1.8,1c-0.7,0.5-1.5,0.9-2.2,1.4c-1.8,1.4-3.6,2.9-5.2,4.6c-1.6,1.8-3,3.7-4.3,5.7c-1.6,2.5-3.1,5.1-3.8,8c-0.8,2.5-0.9,5.2-1,7.8c0,1.8,0,3.9,0.2,4.4c0,0.2,0,0.3,0.1,0.3c0.1,1,0.3,2,0.6,3c0.2,0.9,0.5,1.8,0.8,2.6c0,0.3,0.1,0.6,0.2,0.9c0.8,3.1,1.2,2.9,1.7,5c0,0.1,0,0.2,0.1,0.3c0,0.3,0,0.8,0,1c0,1.3-0.1,2.7-0.2,4c-0.2,1.1-0.3,2.2-0.2,3.3c0,1.1,0,2.1,0.5,3.1c1,2.8,3.9,4.1,6.5,4.7c1.9,0.5,3.9,0.3,5.8,0.2c2.7-0.2,5.6-0.1,8.2-1.1c2-0.7,1.7-0.9,3.3-0.8c0.1,0,0.3,0,0.4,0c0.2,0,0.4,0.1,0.6,0.2c0.3,0.1,0.6,0.3,0.9,0.5c0.7,0.4,1.4,1,2.1,1.4c1.2,0.6,2.5,0.9,3.8,1c1.4,0.3,2.7,0.6,4.1,0.3c0.9-0.1,1.7-0.5,2.5-0.8c0.6-0.2,1.2-0.3,1.7-0.6c1.6-0.6,2.3-0.8,4.3-2.2c0.7-0.4,1.2-1,1.8-1.6c0.9-0.8,1.7-1.7,2.4-2.7c0.1-0.2,1.4-1.9,2.2-3.2c0.9-1.4,0.6-0.9,1.7-2.4c0.5-0.9,1.1-1.8,1.4-2.7c0.9-2.6,1.5-5.4,2.2-8.1c0.3-1.6,0.5-3.2,0.6-4.9c0.2-1.4,0.2-1.4,0.4-3.4C59.9,31.4,60,29.6,59.8,27.8"/><g><defs><path id="_2" d="M59.8,27.8c-0.1-0.8-0.1-2.5-0.6-4.9c-0.4-1.7-0.7-3.3-1.2-5c-0.7-1.7-0.5-1.2-1.1-2.6c-0.2-0.4-0.6-1.5-1.5-2.7c-1.2-1.4-2.3-3-3.6-4.3c-1.8-1.6-3.4-3-4.5-3.8c-2.3-1.4-4.2-2.5-5.7-3c-2-0.5-2.9-0.7-4.1-0.8c0,0,0,0,0.1,0c0,0,0,0-0.1,0c-0.1,0-0.1,0-0.2,0c-0.4,0-0.1,0,0.1,0c-0.2,0-0.4-0.1-0.5-0.1c-0.3-0.1-0.7-0.1-1-0.2c0,0,0,0,0,0c-0.1,0-0.3,0-0.4-0.1c0,0,0.1,0,0.2,0c-3-0.5-3.9-1-6.9-0.6c0,0-0.1,0-0.2,0c-1.3,0.1-2.5,0.5-3.7,0.9c-1.3,0.3-1,0.1-2.8,0.5c-2,0.7-2.1,0.7-4.1,1.8c-0.6,0.3-1.2,0.7-1.8,1c-0.7,0.5-1.5,0.9-2.2,1.4c-1.8,1.4-3.6,2.9-5.2,4.6c-1.6,1.8-3,3.7-4.3,5.7c-1.6,2.5-3.1,5.1-3.8,8c-0.8,2.5-0.9,5.2-1,7.8c0,1.8,0,3.9,0.2,4.4c0,0.2,0,0.3,0.1,0.3c0.1,1,0.3,2,0.6,3c0.2,0.9,0.5,1.8,0.8,2.6c0,0.3,0.1,0.6,0.2,0.9c0.8,3.1,1.2,2.9,1.7,5c0,0.1,0,0.2,0.1,0.3c0,0.3,0,0.8,0,1c0,1.3-0.1,2.7-0.2,4c-0.2,1.1-0.3,2.2-0.2,3.3c0,1.1,0,2.1,0.5,3.1c1,2.8,3.9,4.1,6.5,4.7c1.9,0.5,3.9,0.3,5.8,0.2c2.7-0.2,5.6-0.1,8.2-1.1c2-0.7,1.7-0.9,3.3-0.8c0.1,0,0.3,0,0.4,0c0.2,0,0.4,0.1,0.6,0.2c0.3,0.1,0.6,0.3,0.9,0.5c0.7,0.4,1.4,1,2.1,1.4c1.2,0.6,2.5,0.9,3.8,1c1.4,0.3,2.7,0.6,4.1,0.3c0.9-0.1,1.7-0.5,2.5-0.8c0.6-0.2,1.2-0.3,1.7-0.6c1.6-0.6,2.3-0.8,4.3-2.2c0.7-0.4,1.2-1,1.8-1.6c0.9-0.8,1.7-1.7,2.4-2.7c0.1-0.2,1.4-1.9,2.2-3.2c0.9-1.4,0.6-0.9,1.7-2.4c0.5-0.9,1.1-1.8,1.4-2.7c0.9-2.6,1.5-5.4,2.2-8.1c0.3-1.6,0.5-3.2,0.6-4.9c0.2-1.4,0.2-1.4,0.4-3.4C59.9,31.4,60,29.6,59.8,27.8"/></defs><clipPath id="_3"><use xlink:href="#_2" style="overflow:visible;"/></clipPath><g style="clip-path:url(#_3);"><path class="st5" d="M57.3,52.8c0-0.3,0-0.4-0.1-0.6l0,0c0-0.1,0-0.2-0.1-0.3c0,0,0-0.1,0-0.1c0-0.1,0-0.2,0-0.3c0-0.2,0-0.3,0-0.5c-0.1-0.1,0-0.1-0.2-0.3c0,0,0,0,0,0c0,0,0-0.1,0-0.1c-0.2-0.2-0.1-0.1-0.3-0.4c-0.2-0.2-0.4-0.4-0.6-0.6c0,0,0,0-0.1-0.1c-0.3-0.3-0.3-0.2-0.5-0.4c-0.4-0.2-0.5-0.2-0.7-0.4c-1-0.6-2.1-0.9-3.3-1.1c-0.9-0.2-1.9-0.5-2.8-0.6c-1.8-0.2-3.2-0.4-5-0.6c-2.5,0-5.4,0.2-7.5,0.6c-1.6,0.1-3.2,0.7-4.8,1c-2.4,0.5-4.7,1.4-6.9,2.4c-2.6,1-5.6,2.1-8.2,3.6c-1.4,0.7-2.9,1.4-4.1,1.9c-1.3,0.5-2.4,1.1-3.7,1c-1.1-0.1-2.6-0.6-3.9-1c-0.1,0-0.1,0-0.2-0.1c-0.2-0.1-0.3-0.2-0.5-0.4c-0.3-0.3-0.3-0.4-0.6-0.7c-0.3-0.2-0.6,0-0.6,0.3c-0.1,0.5,0,1,0,1.5c0,0.2,0,0.4,0,0.7c-0.1,1,0,2,0.5,2.8c0.5,0.8,1.2,1.5,2,2.2c0.5,0.5,1.2,0.7,1.8,1c0.3,0.2,0.5,0.4,0.8,0.6c2,1.1,4.1,1.2,6.3,1.3c1.3,0,2.7,0.2,4,0.2c2.5-0.3,4.9-1,7.2-1.8c1-0.3,1.6-0.4,2.4-0.2c1,0.3,2.4,1.2,3.4,2c0.9,0.6,1.9,1.1,2.9,1.6c0.7,0.3,1.5,0.3,2.2,0.5c2.6,0.5,5.4,0,7.9-0.9c1.2-0.4,2.2-1.2,3.3-1.9c1.3-0.7,2.4-1.6,3.6-2.7c1.8-1.5,2.7-3,3.9-4.6c0.6-1.1,1.1-1.6,2-2.4C57.1,54.3,57.3,53.6,57.3,52.8"/><g><path class="st4" d="M52.6,52.7c-2.6-2.7-7.4-3.6-11.1-3.5c-5-0.2-9.8,1.5-14.6,3.1c-2.6,1.1-4.3,2-6.4,2.7c-1,0.5-1.8,0.8-2.9,1.3c-1.6,0.8-2.9,1.5-4.5,2.1c-1.6,0.7-4.2,1.6-5.9,0.8c-0.8-0.4-1.6-0.8-2.1-1.3c-0.1-0.1-0.3-0.1-0.4,0c-0.1,0.1-0.1,0.3,0,0.3c1.4,1.1,2.9,2,4.8,1.7c1.2-0.1,2.5-0.6,3.6-1c1.1-0.4,2.3-0.9,3.5-1.5c2.1-1.1,3.7-1.6,5.8-2.5c0.9-0.4,1.7-0.7,2.8-1.2c0.9-0.3,1.3-0.7,2.1-0.9c3.2-1.1,6.3-2.1,9.7-2.7c1.9-0.3,4.8-0.4,7.3-0.1c2,0.3,4.4,0.8,6.3,2c0.7,0.5,1.6,1.1,1.7,2c0.3,1.3-0.8,2.8-2,4c-2,2-5.4,2.5-7.7,1.2c-1.4-0.7-1.8-1.7-0.9-3c0.1-0.2,1.2-1.2,1.2-1.1c1.2-0.4,2.3-0.7,3-0.3c0.9,0.6,0.5,1.3-0.9,1.9c0,0,0,0,0,0c-0.1,0-0.2,0-0.2,0c-0.2,0.1-0.3,0.4-0.1,0.6c0.5,0.3,1.1-0.2,1.5-0.4c1.3-0.8,1.3-2.3-0.3-2.8c-1.1-0.3-2.3,0-3.3,0.4c-1.1,0.7-2.1,1.9-2,3.2c0.4,1.9,2.5,2.6,4.1,2.8c2.2,0.2,4.1-0.4,5.8-1.7C52.2,57.4,54.2,54.8,52.6,52.7"/><path class="st4" d="M38.7,52.9c-2.5,0.4-5,1-7.4,1.6c-1.7,0.4-3.3,0.8-4.9,1.5c-2.3,1-4.5,2.1-6.7,3.4c-0.8,0.5-1.9,0.9-2.5,1.7c-0.3,0.5,0.2,1,0.6,1.2c0.4,0.2,1,0.2,1.5,0.2c0.7,0,1.4,0,2-0.2c1-0.3,2.2-0.5,3-1.3c0.8-0.6,0.1-1.7-0.8-1.8c-0.7-0.2-2.5,0.8-1.5,1.4c0.3,0.2,0.7,0.2,0.7-0.2c0-0.2-0.1-0.3-0.2-0.3c0.2-0.2,0.6-0.4,1-0.3c0.2,0,0.2,0,0.5,0.3c0,0,0,0,0,0.1c0,0,0,0,0,0c0,0,0,0.1,0,0.1c0,0,0,0,0,0.1c-0.1,0.1-0.3,0.3-0.5,0.5c0,0,0,0,0,0c-0.1,0-0.3,0.2-0.2,0.1c-1.1,0.5-2.2,0.8-3.4,0.8c-1.1,0.1-2,0.1-2.2-0.4c0,0,0,0,0,0c0,0,0,0,0,0c0,0,0,0,0,0c0,0,0,0,0,0c0,0,0,0,0,0c0,0,0,0,0,0l0,0c0,0,0,0,0,0c0,0,0,0,0,0c0,0,0,0,0,0c0,0,0,0,0,0c0,0,0-0.1,0.1-0.1c0.3-0.4,0.6-0.5,0.9-0.7c2.5-1.5,5.2-3,7.9-4.2c3.5-1.5,7.8-2.3,11.7-3.1c0.2-0.1,0.5,0,0.6-0.2C39.1,53.1,38.9,52.9,38.7,52.9"/><polygon class="st4" points="17.8,61.5 17.8,61.5 17.8,61.5 "/><path class="st4" d="M40.5,62.2c-0.3-1.3-1.6-2.1-2.6-2.8c-1.2-0.7-2.4-1.6-3.8-1.7c-0.8-0.1-1.9-0.3-3,0c-1,0.2-2,0.7-2.9,1.2C28.1,58.9,28,59,28,59c-0.1,0.2,0.2,0.5,0.4,0.3c1.4-0.8,3.1-1.4,4.4-1.2c1.6,0.1,2.5,0.5,3.9,1.4c1.4,0.9,2.7,1.5,3,2.8c0.1,0-0.1,0.8-0.2,0.9c-0.3,0.5-0.6,0.8-1.3,1.2c-0.4,0.2-1.5,0.2-2.3,0.1c-0.3-0.1-1.6-0.5-2.1-0.7c-0.5-0.1-0.6-0.1-1-0.4c-0.8-0.5-1.6-1-1.6-1.2c0-0.2,0.3-0.7,0.8-0.9c0.3-0.1,1.4-0.2,2.1,0.1c0,0,0.1,0,0.2,0.1c0.2,0.1,0.4,0.2,0.3,0.2c0,0,0,0,0.1,0.1c0,0,0,0,0,0c0,0,0,0,0.1,0.1c0,0,0,0,0,0c0,0.3,0,0.4,0,0.5c0,0,0,0,0,0c0,0,0,0,0,0c-0.1,0-0.1,0-0.1,0c-0.1,0-0.3,0-0.4,0c-0.3-0.2-0.7,0.3-0.4,0.6c0.2,0.2,0.4,0.1,0.7,0.2c0.3,0,0.7-0.1,0.9-0.3c0.2-0.3,0.2-0.8,0.1-1.1c-0.1-0.3-0.4-0.5-0.7-0.7c-1-0.6-2.5-0.7-3.5-0.1c-0.7,0.5-1.2,1.5-0.4,2.1c0.3,0.3,0.8,0.5,1.2,0.8c0.4,0.2,0.8,0.5,1.3,0.6c0.5,0.1,1.3,0.5,2.1,0.7c0.6,0.1,1.2,0.1,1.9,0.2C39.2,65.4,40.7,63.9,40.5,62.2"/><path class="st4" d="M13.7,62.8c-0.3-0.7-1.1-1.1-1.8-1.4c-1.7-0.3-3.5-0.1-5.1,0.3c-0.2,0.1,0,0.5,0.2,0.4c1-0.3,1.9-0.3,3-0.3c0.9,0,1.6,0,2.3,0.3c1.1,0.5,1.2,1,0.6,1.4c-0.1,0.1-0.4,0.1-0.8,0.1c-0.2,0-0.4,0-0.6,0c0.1-0.1,0.1-0.1,0.2-0.2c0,0,0,0,0.1,0c0.1,0,0.2-0.1,0.2-0.2c0-0.7-0.9-0.1-1.1,0.2c-0.4,0.5,0.1,0.9,0.6,0.9c0.7,0,1,0,1.7-0.2C13.5,63.8,13.7,63.3,13.7,62.8"/><path class="st4" d="M55.1,53.5c-0.2-0.5-0.2-0.6-0.5-1.2c0-0.2-0.5-1.1-1.1-1.5c-1.1-0.9-2.1-1.3-3.1-1.7c-0.7-0.3-1.6-0.7-2.7-0.9c-2.7-0.2-5-0.5-7.6-0.2c-3.1,0.2-5.7,0.5-8.6,1.5c-1.6,0.5-3.3,0.9-4.9,1.4c-0.9,0.4-1.5,0.8-2.3,1c-2.1,0.7-4,1.5-6,2.2c-1.4,0.7-2.9,1.4-4.2,2.3c-0.2,0.2,0.1,0.4,0.3,0.3c3.2-2,6.3-3,9.7-4.3c1-0.2,2.1-0.9,2.8-1.2c2.2-0.7,4.5-1.3,6.8-1.9c2.1-0.6,3.5-0.6,5.8-0.7c1-0.1,2-0.2,3-0.2c0.4,0.1,1.7,0.1,2.4,0.2c1.4,0.2,2.5,0.1,3.7,0.5c1.5,0.6,2.4,0.9,4.1,2c0.4,0.3,1,0.9,1.2,1.4c0.1,0.2,0.4,0.6,0.5,0.9c0.1,0.2,0,0.1,0.1,0.2c0,0.1,0,0.1,0,0.2C54.5,54.3,55.2,53.9,55.1,53.5"/><path class="st4" d="M49.4,54.6c-0.1-0.4-0.4-0.6-0.6-0.8c-0.3-0.3-0.6-0.6-1-0.8c-1.5-0.9-3.2-1.2-4.9-1.4c-1.9-0.2-3.8-0.2-5.8,0c-1.8,0.3-3.5,0.8-5.2,1.3c-0.9,0.3-1.9,0.5-2.8,1c-0.1,0.2,0.1,0.4,0.3,0.4c4.3-1.5,8.7-2.8,13-2.2c1.1,0.1,3,0.5,4,0.9c0.7,0.3,1.2,0.6,1.6,1c0.1,0.1,0.7,0.8,0.7,0.8c0.2,0.6,0.3,0.9,0.1,1.3c0,0,0,0.1,0,0.1c-0.1,0.1-0.1,0.3,0,0.4c0.2,0.2,0.5,0.2,0.6-0.1c0.1-0.3,0-0.2,0.1-0.4C49.7,55.5,49.6,55,49.4,54.6"/><path class="st4" d="M23.8,56.2c-2.4,0.9-4.6,1.7-7,2.7c-0.7,0.3-1.5,0.6-2.2,1c-0.1,0-0.1,0.1-0.1,0.2c-0.1,0.2,0.2,0.4,0.4,0.3c3.2-1.5,6.2-2.5,9.2-3.7C24.3,56.4,24.1,56.1,23.8,56.2"/><path class="st4" d="M11.4,57.3c-0.9,0.4-2.2,0.4-3.5,0.4c-0.3,0-0.3-0.1-0.8,0c-0.2,0.1-0.2,0.5,0.1,0.5c1.2,0.2,3,0.2,4.4-0.4c0.3-0.2,0.7-0.1,0.8-0.5C12.4,56.8,11.7,57.2,11.4,57.3"/><path class="st4" d="M38.9,57.9c0,0-0.1-0.1-0.1-0.1c-0.9-0.8-2.1-1.4-3.2-1.9c-0.4-0.1-0.7-0.3-1.1-0.4c-0.4,0-0.4,0.5,0,0.6c1.5,0.5,2.8,1.1,4,2.1l0,0c0,0,0,0,0,0c0,0,0,0,0,0c0.1,0,0.1,0,0.1,0C38.8,58.5,39,58.1,38.9,57.9"/><path class="st4" d="M38.9,57.9C38.9,57.9,38.9,57.9,38.9,57.9C38.8,57.9,38.9,57.9,38.9,57.9"/><path class="st4" d="M38.9,57.9C38.9,57.9,38.9,57.9,38.9,57.9C38.9,57.9,38.9,57.9,38.9,57.9C38.9,57.9,38.9,57.9,38.9,57.9"/><path class="st4" d="M43.6,64C43.6,64,43.6,64,43.6,64C43.6,63.9,43.6,63.9,43.6,64c0-0.9-0.9-2-1.5-2.8c-0.3-0.3-0.3-0.5-0.7-0.8c-0.3-0.1-0.5,0.2-0.4,0.5c0.7,1,2,2.4,2,3.1c0,0.4,0.5,0.6,0.7,0.2C43.7,64.1,43.6,64,43.6,64"/><path class="st4" d="M53.6,57c-0.3,0.1-0.2,0.1-0.4,0.3c-1,1.1-1.9,2.3-3,3.3c-0.4,0.2-1.2,0.9-1.7,1.1c-0.6,0.3-1.9,0.6-2.8,0.8c-0.4,0.1-0.2,0.6,0.2,0.5c1.2-0.2,2.9-0.6,3.6-1.3c1.7-0.9,3-2.7,4.4-4.2C54.1,57.4,53.9,57,53.6,57"/><path class="st4" d="M29.3,60.1c-0.2,0-0.4,0.1-0.6,0.2c-0.8,0.4-1.4,0.9-2.1,1.4c-0.2,0.2-0.6,0.4-0.7,0.7c0,0.2,0.3,0.3,0.4,0.2c0.7-0.6,1.9-1.4,2.7-1.8c0.2-0.1,0.4-0.1,0.5-0.2C29.6,60.4,29.5,60.2,29.3,60.1"/><path class="st4" d="M44.1,65.3c-0.2,0-0.3,0.1-0.4,0.1c-0.5,0.2-1.1,0.3-1.8,0.5c-0.7,0.2-1.2,0.4-1.7,0.4c-1.1,0.1-2.2-0.1-3.3-0.1c-0.3,0.1-0.2,0.5,0.1,0.5c1.5,0.1,3.2,0.3,4.6-0.2c1-0.3,2-0.4,2.6-0.8C44.4,65.6,44.3,65.3,44.1,65.3"/><path class="st4" d="M4.7,60.7c-0.5-0.5-0.8-1.2-1-2.3c-0.1-0.4-0.1-0.6-0.1-1.2c0-0.1,0-0.2-0.1-0.2C3.4,56.9,3,57,3,57.3c0.1,1.4,0.2,3.1,1.5,4.1c0.2,0.1,0.3,0.3,0.5,0.2C5.5,61.3,5,60.9,4.7,60.7"/></g></g><g style="clip-path:url(#SVGID_00000085971055136265165500000000447809561084913537_);"><g><path class="st5" d="M53.7,49.7C53.7,49.7,53.7,49.7,53.7,49.7C53.7,49.7,53.7,49.7,53.7,49.7"/><path class="st3" d="M9.3,35.9c-0.5,1-1.7,2.9-2,3.6c0.1,0.3,0.4,0.1,0.5-0.1c0.7-1.1,1.3-2.2,1.9-3.3C9.8,35.9,9.4,35.7,9.3,35.9"/><path class="st3" d="M10.8,38.5c-0.5,0.9-1.1,1.9-1.7,2.8c0,0.1,0.1,0.2,0.2,0.3c0.2,0,0.3-0.1,0.3-0.2c0.2-0.2,0.3-0.5,0.4-0.7c0.3-0.6,1-1.5,1.2-2.1C11.2,38.4,10.9,38.3,10.8,38.5"/><path class="st3" d="M10.9,43.6c-0.4,0.8-0.9,1.7-1.4,2.5c-0.1,0.2-0.2,0.3-0.2,0.5c0,0.1,0.2,0.2,0.3,0.2c0.1,0,0.2-0.1,0.2-0.2c0.5-0.9,1-1.8,1.5-2.7C11.6,43.6,11.1,43.3,10.9,43.6"/><path class="st3" d="M5.7,42.2c-0.5,1-0.9,1.9-1.4,2.8c-0.1,0.1-0.2,0.3-0.2,0.4c0,0.1,0.2,0.2,0.3,0.2c0.3-0.1,0.3-0.4,0.4-0.6c0.4-0.8,0.9-1.7,1.3-2.6C6.3,42.1,5.8,41.9,5.7,42.2"/><path class="st3" d="M7.8,43.9c-0.4,0.8-0.9,1.5-1.3,2.3c-0.1,0.1-0.2,0.3-0.2,0.4c0,0.2,0.2,0.4,0.4,0.3c0.7-0.6,1.2-1.9,1.7-2.7C8.5,43.8,8,43.6,7.8,43.9"/><path class="st3" d="M7.3,49.3c-0.4,0.9-0.8,1.8-1.3,2.6c-0.1,0.2,0.1,0.5,0.4,0.4c0.6-0.9,1-1.9,1.4-2.8C7.9,49.2,7.5,49.1,7.3,49.3"/><path class="st3" d="M10.1,50.1c-0.5,0.9-0.9,1.7-1.3,2.6C8.7,53,9,53.3,9.2,53.1c0.5-0.8,0.9-1.8,1.4-2.7C10.8,50.1,10.3,49.8,10.1,50.1"/><path class="st3" d="M14.2,43.4c-0.4,0.8-0.8,1.7-1.2,2.6c-0.1,0.1,0,0.4,0.2,0.4c0.1,0,0.3,0,0.3-0.1c0.3-0.6,0.6-1.3,0.9-1.9c0.1-0.3,0.4-0.6,0.4-0.9C14.7,43.2,14.3,43.2,14.2,43.4"/><path class="st3" d="M19.9,38.1c-0.4,0.9-0.9,1.8-1.4,2.7c-0.1,0.2,0.1,0.5,0.4,0.4c0.6-0.9,1.1-1.9,1.5-2.9C20.4,38,20,37.8,19.9,38.1"/><path class="st3" d="M16,47.1c-0.5,0.9-0.9,1.8-1.4,2.7c-0.1,0.2,0.1,0.4,0.3,0.4c0.1,0,0.2-0.1,0.2-0.2c0.5-0.9,0.9-1.7,1.3-2.6C16.7,47,16.2,46.7,16,47.1"/><path class="st3" d="M20.1,43.3c-0.2,0.4-0.5,0.8-0.6,1.3c0,0.1,0.1,0.3,0.2,0.3c0.1,0,0.3,0,0.3-0.1c0.2-0.4,0.5-0.8,0.6-1.2C20.7,43.2,20.3,43,20.1,43.3"/><path class="st3" d="M24.1,41.3c-0.3,0.6-0.6,1.2-0.9,1.8c0,0.1,0,0.2,0.1,0.3c0.1,0.1,0.3,0,0.4-0.1c0.3-0.6,0.6-1.1,0.9-1.7C24.7,41.3,24.2,41,24.1,41.3"/><path class="st3" d="M20.4,47.5c-0.3,0.7-0.6,1.3-1,1.9c-0.1,0.2,0,0.4,0.2,0.4c0.1,0,0.3,0,0.3-0.1c0.3-0.6,0.7-1.2,0.9-1.8C21.1,47.6,20.7,47.2,20.4,47.5"/><path class="st3" d="M27.6,42.3c-0.5,1-1,2-1.5,3c-0.1,0.2,0.1,0.5,0.3,0.4c0.3-0.1,0.3-0.5,0.5-0.8c0.4-0.8,0.8-1.6,1.2-2.4C28.3,42.3,27.8,42,27.6,42.3"/><path class="st3" d="M31.2,41.8c-0.2,0.4-0.5,0.8-0.7,1.2c0,0.1,0,0.2,0.1,0.3c0.3,0.1,0.4-0.1,0.5-0.3c0.2-0.3,0.4-0.6,0.6-1C31.9,41.7,31.4,41.5,31.2,41.8"/><path class="st3" d="M29.7,44.8c-0.3,0.6-0.7,1.2-1,1.8c0,0.1,0,0.2,0.1,0.2c0.3,0.3,0.6-0.1,0.7-0.4c0.3-0.4,0.5-0.9,0.8-1.3C30.4,44.8,29.9,44.5,29.7,44.8"/><path class="st3" d="M34.7,42c-0.4,0.8-0.9,1.5-1.3,2.3c-0.1,0.1-0.1,0.2,0,0.3c0.2,0.3,0.5,0,0.6-0.2c0.3-0.5,0.5-1,0.8-1.4c0.1-0.3,0.4-0.6,0.4-0.9C35.2,41.8,34.8,41.8,34.7,42"/><path class="st3" d="M38.3,41.8c-0.6,1-1.2,2-1.8,3c-0.2,0.2,0.1,0.5,0.4,0.5c0.3-0.1,0.4-0.5,0.6-0.8c0.5-0.8,0.9-1.6,1.4-2.3C39.1,41.7,38.6,41.4,38.3,41.8"/><path class="st3" d="M43.4,41.7c-0.1-0.2-0.4-0.3-0.6-0.1c-0.3,0.6-0.6,1.2-0.9,1.8c-0.1,0.1-0.1,0.2,0,0.3c0.2,0.2,0.5,0.1,0.6-0.2c0.3-0.4,0.5-0.9,0.8-1.3C43.3,42.1,43.4,41.9,43.4,41.7"/><path class="st3" d="M45.6,42.6c-0.3,0.6-0.7,1.2-1.1,1.8c-0.1,0.2,0.1,0.5,0.3,0.4c0.2-0.1,0.3-0.3,0.4-0.5c0.3-0.5,0.7-1,0.9-1.5C46.1,42.5,45.7,42.4,45.6,42.6"/><path class="st3" d="M54.3,37.7c-0.1,0.3-0.5,0.6-0.5,0.9c0.1,0.2,0.4,0.2,0.5,0.1c0.1-0.3,0.4-0.5,0.5-0.8C54.9,37.6,54.5,37.5,54.3,37.7"/><path class="st3" d="M49.9,42.9c-0.4,0.7-0.8,1.4-1.2,2c0,0.1-0.1,0.2,0,0.3c0.2,0.4,0.6,0.2,0.8-0.1c0.4-0.6,0.7-1.1,1-1.7C50.8,42.9,50.2,42.4,49.9,42.9"/><path class="st7" d="M2.9,37.1c-0.1,0.5-0.3,0.9-0.4,1.4c0,0.1,0.1,0.2,0.2,0.2c0.1,0,0.2,0,0.3-0.1c0.2-0.4,0.3-0.9,0.4-1.3C3.3,37,2.9,36.9,2.9,37.1"/><path class="st7" d="M7,33.1c-0.4,1-1.1,2.2-1.6,3.2c0,0.1,0.2,0.3,0.3,0.2c0.1-0.1,0.1-0.2,0.2-0.3c0.5-1,1.1-2.1,1.4-3C7.5,33.1,7.1,32.9,7,33.1"/><path class="st7" d="M4.3,39.2C3.8,40,3.4,40.9,3,41.7C3,42,3.3,42.1,3.5,42c0.4-0.7,0.8-1.6,1.3-2.5C5,39.2,4.5,39,4.3,39.2"/><path class="st7" d="M53.4,40.9c-0.2,0.5-0.5,1-0.7,1.4c0,0.2,0.2,0.3,0.4,0.2c0.3-0.4,0.5-1,0.8-1.5C53.9,40.8,53.6,40.7,53.4,40.9"/><path class="st7" d="M53.1,44.5c-0.3,0.6-0.6,1.2-0.9,1.9c0,0.1,0.1,0.2,0.2,0.3c0.1,0,0.2,0,0.3-0.1c0.2-0.4,0.4-0.9,0.7-1.3c0.1-0.2,0.3-0.4,0.3-0.6C53.5,44.3,53.2,44.3,53.1,44.5"/><path class="st7" d="M56.8,38c-0.5,1.1-1.1,2.3-1.6,3.4c-0.1,0.1,0,0.3,0.2,0.4c0.1,0,0.2,0,0.3-0.1c0.4-0.8,0.7-1.6,1.1-2.3c0.1-0.4,0.5-0.8,0.5-1.2C57.3,37.8,57,37.8,56.8,38"/><path class="st7" d="M56.3,43.7c-0.3,0.5-0.5,1.1-0.7,1.6c-0.1,0.3-0.5,0.7-0.2,1c0.2,0.1,0.4,0,0.5-0.1c0.3-0.6,0.4-0.9,0.7-1.6c0.1-0.3,0.3-0.5,0.3-0.8C56.8,43.6,56.4,43.5,56.3,43.7"/><path class="st7" d="M12.3,34.7c-0.1-0.2-0.5-0.2-0.5,0.1c-0.2,0.4-0.4,0.8-0.6,1.4c0,0.1,0,0.1,0.1,0.2c0.4,0.3,0.5-0.2,0.7-0.5C12,35.6,12.4,35.1,12.3,34.7"/><path class="st7" d="M12.4,50c-0.3,0.8-0.6,1.7-0.9,2.5c-0.1,0.2,0.2,0.4,0.4,0.3c0.5-0.8,0.7-1.8,1.1-2.6C13,49.8,12.5,49.6,12.4,50"/><path class="st7" d="M17,41.5c-0.1,0.7-0.4,1.3-0.6,1.9c-0.1,0.2-0.2,0.6,0.2,0.6c0.3,0,0.3-0.3,0.4-0.5c0.2-0.6,0.5-1.3,0.6-1.9C17.6,41.3,17.1,41.2,17,41.5"/><path class="st7" d="M24.2,45.2c-0.1-0.2-0.5-0.2-0.5,0.1c-0.3,0.8-0.5,1.6-0.8,2.4c0,0.1,0,0.2,0.1,0.3c0.2,0.2,0.5,0,0.5-0.3c0.1-0.4,0.2-0.8,0.4-1.2C24,46.2,24.3,45.6,24.2,45.2"/><path class="st7" d="M21.9,37.8c-0.3,0.7-0.5,1.5-0.8,2.2c-0.1,0.2,0.1,0.4,0.3,0.3c0.1,0,0.2-0.1,0.3-0.2c0.3-0.7,0.5-1.5,0.8-2.2C22.5,37.6,22,37.5,21.9,37.8"/><path class="st7" d="M17.6,48.3c-0.3,0.7-0.8,1.8-1,2.3c-0.1,0.1,0,0.3,0.1,0.4c0.2,0.1,0.4-0.1,0.5-0.3c0.2-0.5,0.4-1,0.6-1.5c0.1-0.3,0.3-0.4,0.3-0.8C18,48.2,17.7,48.1,17.6,48.3"/><path class="st7" d="M47.5,42.7c-0.2,0.5-0.6,1.3-0.9,1.9c0,0.1,0.1,0.2,0.2,0.3c0.1,0,0.2,0,0.3-0.1c0.3-0.6,0.6-1.3,0.9-1.9C48.2,42.5,47.6,42.4,47.5,42.7"/><path class="st7" d="M5.3,48.1c-0.1-0.2-0.5-0.2-0.5,0.1c-0.3,0.8-0.5,1.6-0.8,2.4c-0.1,0.2-0.2,0.6,0.3,0.5c0.2,0,0.2-0.2,0.3-0.4C4.8,50,5,49.2,5.3,48.5C5.3,48.4,5.4,48.2,5.3,48.1"/><path class="st7" d="M11.6,46c-0.2-0.1-0.4,0.2-0.4,0.3c-0.2,0.5-0.4,1-0.6,1.6c-0.1,0.3,0.4,0.5,0.5,0.1c0.2-0.6,0.4-1.1,0.7-1.7C11.8,46.2,11.7,46,11.6,46"/><path class="st7" d="M26.1,41.3c-0.2,0.4-0.4,0.8-0.5,1.2c0,0.1,0,0.2,0.1,0.3c0.5,0.3,0.6-0.8,0.9-1.2C26.8,41.2,26.3,41,26.1,41.3"/><path class="st3" d="M51,36.6C51,36.6,51,36.5,51,36.6"/><polygon class="st3" points="50.9,36.6 51,36.6 50.9,36.6 "/></g><g><g><path class="st8" d="M59.5,19.6c-0.2-2-1.4-3.8-2.5-5.5c-0.6-0.9-1-1.8-1.7-2.7c-1-1.1-2-2.1-2.9-3.2c-2.7-2.8-6.5-4.2-9.8-6.1C41,1.4,39.6,0.5,38,0c-2.1-0.7-4.3-1.1-6.6-1.1C29.8-1.1,25-2.3,16.7,3C9.2,7.7,8.3,10.4,5.1,14.2c-0.5,0.5-0.9,1.1-1.3,1.7c-0.9,1.4-1.8,2.9-2.6,4.4c-0.2,0.6-0.4,1.2-0.6,1.8c0,0.1-0.1,0.1-0.1,0.2c-0.5,1.5-1,3-1.4,4.6c-0.2,1.7-0.2,3.5,0.2,5.1c0,1,0.7,1.9,1.5,2.5c1.3,0.9,3.2,0.3,4.3-0.6c1.7-1.6,3.1-3.5,4.3-5.5c0,1.5,0.5,3.1,1.5,4.3c1,1,2.2,2.1,3.7,2.4c2.3,0.2,4.1-2.1,5.4-3.6c1.1-1.3,2-2.6,2.4-4.2c0.2-0.8,0.4-1.5,0.6-2.3c0.3,2.5,1,5,3.8,5.8c3.3,0.7,6.8-1.2,8.2-4.1c0.9-1.8,0.5-3.9,0.7-5.8c0-0.1,0-0.2,0-0.3c0.6,2.3,1.6,4.8,3.3,6.5c1.9,1.8,4.7,3,6.7,0.7c1.1-1.3,1.5-3,1.9-4.7c0.5,1.3,1.4,2.5,2.5,3.4c0.7,0.6,1.5,1.2,2.4,1.5c1.3,0.4,2.8,0.5,4.1,0.1c0.5-0.3,0.9-0.8,1.3-1.2c0.6-0.7,1.2-1.5,1.4-2.4C59.6,22.9,59.4,21.2,59.5,19.6"/><g><path class="st3" d="M5.4,29.3c-0.1-0.3-0.4-0.1-0.6,0c0,0.1-0.3,0.3-0.4,0.3c-0.7,0.4-1.2,0.8-1.8,0.7c0,0,0,0,0,0c-0.1,0-0.5-0.2-0.5-0.2c-0.4-0.3-0.5-0.5-0.5-0.6c0-1,0.1-1.7,0.3-2.6c0-0.3-0.4-0.3-0.5,0c-0.2,0.6-0.2,1.2-0.3,1.8c0,0.4-0.1,0.8,0.1,1.2c0.3,0.6,1,1.1,1.8,1c0.3,0,0.6-0.1,0.9-0.3c0.4-0.2,0.9-0.4,1.2-0.7C5.2,29.7,5.5,29.5,5.4,29.3"/><path class="st3" d="M4,24c-0.1,0-0.2,0-0.3-0.1c-1.2-0.4-0.7-2.4,0-4c0.1-0.3-0.4-0.5-0.5-0.1c-0.3,0.7-0.5,1.5-0.7,2.3c-0.1,0.6-0.1,1.3,0.3,1.8c0.3,0.4,0.9,0.7,1.4,0.6C4.3,24.4,4.3,24,4,24"/><path class="st3" d="M14.5,31.9c0,0-0.1,0-0.1,0c-0.2-0.1-0.7-0.6-1-0.9c-0.3-0.3-0.5-0.6-0.8-1.1c0-0.1-0.1-0.1-0.2-0.1c-0.3-0.1-0.5,0.2-0.4,0.5c0.3,0.5,2,2.9,2.7,2.3C14.8,32.2,14.7,32,14.5,31.9"/><path class="st3" d="M8.8,12.1c0.1-0.1,0.3-0.2,0.3-0.4c0-0.3-0.3-0.4-0.5-0.2c-0.5,0.5-0.8,1.1-1,1.7c-0.2,0.4-0.2,1.1,0.3,1.3c0.4,0.1,0.5-0.3,0.3-0.6c0,0,0,0,0,0c0,0,0-0.1,0-0.1C8,13.3,8.5,12.4,8.8,12.1"/><path class="st3" d="M14.2,5.6c-0.8,0.5-1.6,1.1-2.1,1.8c-0.2,0.3-0.3,0.6-0.2,0.9c0.1,0.4,0.7,0.4,0.7,0c0-0.1,0-0.2-0.1-0.2c0-0.6,1.2-1.5,2-2C14.9,6,14.6,5.4,14.2,5.6"/><path class="st3" d="M28.4,3.6c-0.7,0.2-1.2,0.3-1.7,0.2c-0.4,0-0.8-1.2-0.7-1.7c0-0.1,0.1-0.2,0.2-0.4c0.1-0.3-0.4-0.4-0.5-0.2c-0.3,0.3-0.3,0.8-0.2,1.2c0.1,0.5,0.2,1.1,0.7,1.4c0.7,0.5,1.6,0.2,2.4,0.1C29,4.1,28.8,3.5,28.4,3.6"/><path class="st3" d="M22.1,3.2c-0.1,0-0.2,0-0.4-0.2c0-0.1-0.2-0.2-0.2-0.2c-0.1-0.1-0.2-0.3-0.2-0.3c0,0,0,0,0,0c0-0.1,0.1-0.2,0-0.2c0-0.3-0.6-0.4-0.6,0c-0.3,0.8,1.1,2,1.8,1.5C22.7,3.5,22.4,3.2,22.1,3.2"/><path class="st3" d="M35.7,1.8c-0.4,0-0.7,0.1-0.9,0.1C34,2,33.5,2,33.3,1.7c-0.1-0.2-0.1-0.4-0.2-0.8C33,0.6,32.5,0.7,32.5,1c-0.1,0.7,0.3,1.4,1.1,1.6c0.7,0.1,1.5,0.1,2.2-0.2C36,2.2,36,1.9,35.7,1.8"/><path class="st3" d="M44.2,5.6c-0.2,0-0.3,0-0.6-0.1c-0.2,0-1.1-1-1.2-1.2c-0.1-0.2-0.1-0.4-0.3-0.5c-0.2-0.1-0.5,0.1-0.4,0.3c0.1,0.4,0.4,0.8,0.7,1.1c0.4,0.5,1.1,1,1.8,0.9c0.2-0.1,0.6,0,0.6-0.3C44.9,5.4,44.5,5.5,44.2,5.6"/></g></g><g><path class="st3" d="M64.1,24.9c-0.2-0.6-0.8-1-1.4-1.2c-0.1-0.1-0.3-0.1-0.4-0.2c0-1.3-0.1-2.7-0.7-3.9c-0.7-1.4-2.1-2.5-3.6-3.3c-1.5-0.5-3-0.3-4.5,0.2c-0.2,0.1-0.3,0.1-0.5,0.2c0.2-0.3,0.4-0.6,0.6-0.9c0.4-0.6,0.5-1.2,0.5-1.9c0-1,0-2-0.1-2.9c-0.4-1-1.2-1.8-2.1-2.4c-1-0.5-2.2-0.8-3.3-1C47,7.9,45.6,8.4,44.3,9c-0.9,0.5-1.7,0.9-2.4,1.5C42,10,42,9.2,41.9,8.6c-0.3-1-0.7-2-1.6-2.8c-1.7-1.2-4.1-2.1-6.3-1.5c-1.2,0.3-2.3,0.9-3.3,1.5c-1.2,1-2.5,2.3-3.4,3.3c0-0.1,0-0.2,0-0.3c0-3-3.1-4.3-6.1-3.5c-3.3,0.9-6.4,2.9-7.9,5.8c-0.4,0.7-0.5,1.5-0.5,2.2c-0.2,0.1-0.5,0.3-0.7,0.4c-1.8,1.2-3.2,2.8-4.4,4.5c-1.1,1.2-1.4,2.9-1,4.4c0.2,0.5,0.3,1.1,0.6,1.5c0.4,0.5,1,0.9,1.6,1.1c2.3,0.8,4.5-0.5,6.3-1.8c-0.2,0.7-0.4,1.4-0.5,2.1c-0.1,1.3-0.4,2.9,0.9,3.7c1.9,1.4,4.6,0.8,6.6-0.1c0.4-0.1,0.9-0.3,1.4-0.6c-0.4,1.2-0.8,2.4-0.9,3.6c-0.1,1.1-0.2,2.2,0.4,3.2c0.3,0.5,0.6,1.1,1.1,1.5c0.9,0.6,1.9,1.2,3,1.4c1.6,0.2,3.1-0.5,4.5-1.2c1.9-0.9,3.3-2.3,4.4-4c-0.1,0.7-0.1,1.3-0.1,2c0.2,2.2,2.1,4.6,4.8,3.9c0.7-0.2,1.5-0.4,2.2-0.8c1.1-0.7,1.8-1.8,2.5-2.8c0.2-0.3,0.3-0.6,0.5-0.8c0,1.8,0.3,3.7,2.2,4.3c1.3,0.3,2.6-0.3,3.6-1.1c0.9-0.8,1.5-1.7,1.9-2.8c0.3,0.2,0.5,0.4,0.8,0.5c0.4,0.2,0.8,0.4,1.2,0.5c0.9,0.3,1.8,0.4,2.7-0.1c0,0,0,0,0.1,0c0.9-0.2,1.8-0.6,2.3-1.3c0.7-0.8,1-1.9,1-3c0.4-0.2,0.7-0.6,1.1-0.8c1.2-0.9,1.8-2.4,1.9-3.8C64.7,26.4,64.4,25.6,64.1,24.9"/><g><path class="st8" d="M13,17.9c0.2-0.2-0.1-0.5-0.3-0.4c-0.7,0.4-1.5,0.8-1.9,1.5c-0.4,0.6-0.4,2,0.7,2.3c0.2,0,0.4-0.2,0.3-0.4c-0.1-0.1-0.3-0.2-0.4-0.2c0,0,0,0,0,0c-0.5-0.4-0.4-1.4,0.2-1.9C12,18.4,12.5,18.2,13,17.9"/><path class="st8" d="M20.2,9.4c-0.5-0.1-0.8-0.1-1.3,0.1c-0.5,0.1-0.9,0.5-1.2,0.9c-0.3,0.6-0.5,1.3-0.5,1.9c0,0.1,0,0.3,0.2,0.4c0.2,0.1,0.4-0.1,0.4-0.2c-0.1-1.1,0.4-2.2,1.3-2.5c0.5-0.2,0.4-0.2,0.7-0.1c0.2,0,0.3,0.1,0.5,0C20.5,9.8,20.5,9.5,20.2,9.4"/><path class="st8" d="M35,14.8c-0.7,0.2-1.3,0.7-1.8,1c-0.3,0.2-0.6,0.5-0.7,0.8c-0.4,1-0.1,2.5,1.2,2.7c0.3,0,0.4-0.4,0.2-0.5c-0.1-0.1-0.3-0.1-0.6-0.3c-0.4-0.2-0.5-1.6-0.1-2c0.5-0.4,1.3-1,2-1.2C35.5,15.2,35.4,14.7,35,14.8"/><path class="st8" d="M37.3,9.4c-0.2-0.3-0.8-0.6-1.3-0.7c-0.4,0-0.8,0.1-1.1,0.2c-0.6,0.2-1.1,0.7-1.5,1.2c-0.1,0.1-0.1,0.2-0.1,0.3c0.1,0.2,0.3,0.2,0.5,0.1c0.4-0.5,0.7-0.8,1.2-1c0.1-0.1,0.8-0.2,0.9-0.2c0.3,0,0.5,0.2,0.9,0.4C37,9.8,37.4,9.8,37.3,9.4"/><path class="st8" d="M47.6,11.6c-1.3,0-2.7,0.5-3.2,1.6c-0.2,0.3-0.2,0.7-0.2,1c0,0.1,0,0.3,0.2,0.4c0.2,0.1,0.4,0,0.5-0.2c0-0.3,0-0.1,0-0.4c0-0.3,0.3-0.9,0.8-1.3c0.2-0.2,1.4-0.6,1.8-0.5C48,12.4,48.1,11.7,47.6,11.6"/><path class="st8" d="M40,16.1c-0.7,0.9-1.5,2.1-1,3.2c0.1,0.2,0.3,0.5,0.6,0.4c0.5-0.2,0.1-0.5,0.1-0.6c0,0,0,0,0,0c-0.1-0.1-0.1-0.2-0.1-0.4c0-0.7,0.4-1.5,1-2.3C40.8,16,40.2,15.7,40,16.1"/><path class="st8" d="M50.3,24.2c-0.2-0.9-0.8-1.6-2-1.7c-0.6,0-1.2,0.2-1.7,0.5c-0.2,0.1-0.5,0.2-0.4,0.4c0,0.2,0.3,0.3,0.5,0.2c1-0.5,1.9-0.8,2.5-0.2c0.3,0.2,0.6,1.2,0.6,1.6c0,0.3,0.4,0.5,0.6,0.2C50.5,25,50.3,24.5,50.3,24.2"/><path class="st8" d="M50.5,18.2c-0.4-0.4-1.1-0.4-1.6-0.4c-0.5,0-1.1,0-1.6,0.2c-0.5,0.1-0.4,0.7,0.1,0.6c0.7-0.3,2.3-0.4,2.7,0.1c0.1,0.1,0,0.1,0.2,0.2C50.9,18.8,50.9,18.4,50.5,18.2"/><path class="st8" d="M58.1,19.7c-0.6,0.1-1.1,0.5-1.5,0.8c-0.4,0.3-0.8,0.5-1,0.9c-0.3,0.6-0.1,1.3,0.3,1.8c0.1,0.1,0.2,0.4,0.4,0.4c0.2,0.1,0.4-0.1,0.4-0.3c0-0.3-0.3-0.4-0.4-0.7c-0.3-0.5-0.3-0.7,0-1.1c0.1-0.2,1.4-1,1.7-1.2c0.2-0.1,0.4-0.1,0.5-0.2C58.6,19.9,58.4,19.6,58.1,19.7"/><path class="st8" d="M59.2,30.3c-0.6-0.4-1.4-0.5-2-0.4c-0.5,0.2-0.9,0.5-1.3,1c-0.3,0.4-0.6,0.8-0.6,1.3c0,0.3,0.5,0.3,0.6,0c0.1-0.5,0.7-1.3,1-1.5c0.3-0.3,0.8-0.3,1.1-0.3c0.7,0,0.7,0.3,1.2,0.4C59.4,30.9,59.5,30.5,59.2,30.3"/><path class="st8" d="M61.6,26.2c-0.3-0.3-1.1-0.6-1.8-0.5c-0.5,0.1-1,0.2-1.3,0.4c-0.2,0.3,0.1,0.7,0.4,0.5c0.7-0.4,1.8-0.4,2.2,0c0.2,0.1,0.4,0.3,0.6,0.5c0.2,0.1,0.5-0.1,0.4-0.3C62.1,26.5,61.8,26.4,61.6,26.2"/></g></g><g><path class="st14" d="M30.5,23.2c-1.2-0.3-2.5,0.1-3.8,0.1c-1.4,0.1-3.1-0.2-4.7,0.1c1.2-1.2,2.6-2.2,3.9-3.7c1.8-2,3.6-3.9,5.6-5.7c0.5-0.4,0.6-1.1-0.1-1.3c-1.6-0.5-6.6-0.6-6.9-0.5c-0.3,0.1-5.3,7.7-7.7,10.9c-1.2,1.5-2.5,2.9-3.5,4.5c-0.2,1.3,1.6,0.4,6.3,0.6c0.5,0,1.4-0.1,2.1-0.1c-0.2,0.3-5.4,7.7-7.7,12.5c0,0.4,0.5,0.7,0.8,0.5c0.4-0.2,0.7-0.6,1-0.9c1.1-1.2,2.3-2.2,3.5-3.4c2.3-2.4,4.5-4.9,6.7-7.3c1.2-1.2,2.5-2.4,3.6-3.7C30.2,24.9,31.6,23.8,30.5,23.2"/><path class="st6" d="M26.4,24.5c-0.4,0.1-0.8,0.2-1.2,0.3c-0.4,0.1-1.5,0.1-1.9,0.2c-1.6,0.3-3.4,0.3-5.2,0.7c-0.3,0.1-1,0.3-1.4,0.4c1.4-1.7,2.6-3.1,4-4.8c1.2-1.5,1.9-2.7,3.2-4c0.9-1.2,2.1-2.6,2.9-4c0-0.2-0.3-0.4-0.5-0.2c-1.9,3-4.2,5.2-6.1,7.9c-0.7,0.8-1.6,1.9-2.3,2.7c-0.6,0.6-1,1.2-1.5,1.9c-0.1,0.1-0.4,0.4-0.5,0.7c0,0.7,1,0.3,1.4,0.2c0.7-0.2,1.4-0.4,1.9-0.4c1.4-0.2,3.2-0.3,4.4-0.5c0.6-0.1,1.2-0.1,1.8-0.2c0.4-0.1,0.8-0.2,1.2-0.3c-1,2-2.8,4-4.3,5.8c-1.8,1.9-3.7,3.9-5,5.6c-0.1,0.1-0.8,0.8-0.8,1.1c0,0.3,0.4,0.4,0.6,0.2c1-1.2,1.9-2.5,3.2-3.9c2.1-2.2,4.2-4.4,5.9-6.9c0.5-0.7,0.9-1.4,1.2-2.2C27.6,24.3,26.7,24.4,26.4,24.5"/></g><g><path class="st8" d="M52.3,34.3c-0.4-0.4-0.8-0.8-1.3-1c0.3-0.2,0.6-0.5,0.7-0.9c0.6-1.6-0.7-3-2-3.8c-1.6-1-3.2-1.3-4.8-0.8c0.1-0.5,0.4-1,0.3-1.5c-0.2-1-0.8-1.9-1.6-2.5c-1.2-0.9-2.5-1.9-4.1-1c-0.3,0.2-0.6,0.5-0.8,0.8c-1-0.3-2.2-0.1-3.2,0.1c-1.4,0.4-2.2,1.8-2,3.1c0,0.3,0,0.5,0.1,0.8c-0.2-0.1-0.5-0.1-0.8-0.1c-0.6,0-1.2,0.2-1.7,0.4c-0.7,0.2-1.3,0.4-1.9,0.8c-0.6,0.4-1,1-1.4,1.6c-0.2,0.4-0.5,0.9-0.4,1.3c0.1,0.4,0.1,0.8,0.3,1.2c0,0,0,0.1,0.1,0.1c-0.2,0-0.3,0.1-0.5,0.1c-0.7,0.2-1.4,0.5-2,1c-0.5,0.4-0.9,1-1.1,1.6c-0.2,0.6-0.2,1.2-0.1,1.8c0.1,1.3,1.2,2.3,2.5,2.6c1.3,0.2,2.5-0.3,3.7-0.9c0.5-0.3,1.1-0.6,1.6-1c0.1,0.8,0.6,1.6,1.3,2.1c1.3,0.8,2.9,0.4,4-0.5c0.5-0.4,0.9-0.8,1.3-1.2c0,0,0,0.1,0,0.1c0.2,0.6,0.6,1.2,1.1,1.6c0.6,0.4,1.3,0.6,2.1,0.6c1.2-0.2,2.3-0.8,3.2-1.5c0.1,0,0.3-0.2,0.6-0.5c0.1,0.3,0.2,0.6,0.4,0.8c0.1,0.1,0.2,0.4,0.6,0.6c0.4,0.2,0.8,0.5,1.2,0.6c1.5,0.1,2.9-0.5,4-1.4c0.4-0.2,0.6-0.6,0.8-1c0.3-0.5,0.6-1.1,0.7-1.7C53.4,35.9,53,35,52.3,34.3"/><g><path class="st7" d="M28.2,35.1c-0.6,0.6-1.4,1.8-0.8,2.6c0.2,0.2,0.4,0.4,0.7,0.4c0.2,0,0.3-0.2,0.2-0.4c-0.2-0.2-0.3-0.2-0.4-0.3c0,0,0,0,0,0c0,0-0.1-0.1-0.1-0.1c0,0,0,0,0,0c0,0,0,0,0,0c0,0,0,0,0-0.1c-0.1-0.5,0.3-1.1,0.6-1.5c0.1-0.1,0.3-0.2,0.3-0.4C28.6,35.1,28.3,34.9,28.2,35.1"/><path class="st7" d="M34,30.1c-0.6,0.4-0.9,0.9-1.2,1.5c-0.2,0.4-0.4,1-0.2,1.4c0.3,0.5,0.9,0.8,1.5,0.7c0.2-0.1,0.2-0.4,0-0.5c-0.3-0.1-0.3,0-0.4-0.1c-1.2-0.2-0.5-1.6,0.3-2.4c0.2-0.2,0.3-0.1,0.4-0.4C34.4,30.1,34.2,29.9,34,30.1"/><path class="st7" d="M37.9,36.6c-0.3,0-0.6,0.3-0.9,0.5c-0.9,0.6-1.3-0.1-1.3-1.3c0-0.4-0.6-0.4-0.6,0c0,0.6,0.1,1.4,0.6,1.8c0.4,0.3,1,0.3,1.4,0c0.3-0.2,0.9-0.5,1-0.7C38.1,36.8,38,36.6,37.9,36.6"/><path class="st7" d="M41.1,25.7c-1.3,0-2.8,0.5-3.5,1.6c-0.2,0.7,0.5,1.4,1,1.8c0.2,0.2,0.5,0.1,0.5-0.1c0-0.4-0.5-0.4-0.7-0.8c0.1,0.1-0.2-0.3-0.3-0.4c0,0,0-0.1,0-0.1c0,0,0,0,0,0c0.2-0.5,1.2-1,2.2-1.2c0.1-0.1,0.5,0,0.9-0.1C41.5,26.2,41.4,25.7,41.1,25.7"/><path class="st7" d="M42.5,33.1c-0.1-0.1-0.3-0.1-0.4,0c-0.3,0.1-0.3,0.1-0.7,0.3c-1.2,0.3-1.4-0.7-0.7-2.2c0.1-0.4-0.5-0.6-0.6-0.2c-0.3,0.7-0.6,1.4-0.3,2.2c0.5,1.1,2,0.9,2.8,0.4C42.7,33.4,42.6,33.2,42.5,33.1"/><path class="st7" d="M44.9,37.1c-0.3,0.3-0.3,0.4-0.7,0.6c-0.4,0.2-0.4,0.2-0.6,0.1c-0.2-0.2-0.3-0.5-0.4-1c-0.1-0.4-0.8-0.2-0.6,0.2c0.1,0.6,0.3,1.4,1.1,1.5c0.7,0.1,1.5-0.5,1.7-1C45.5,37.1,45.1,36.9,44.9,37.1"/><path class="st7" d="M50.9,36.3c-0.1-0.1-0.3-0.2-0.5-0.1c-0.2,0.1-0.2,0.4-0.3,0.5c0,0.1-0.1,0.1-0.1,0.2c0,0,0,0,0,0c0,0,0,0,0,0c-0.1,0.1-0.5,0.1-0.7,0.1c-0.1,0-0.2,0-0.3-0.1c0,0,0,0,0,0c-0.3-0.4-1-0.1-0.6,0.3c0.5,0.5,1.5,0.6,2.1,0.2c0.2-0.2,0.2-0.2,0.4-0.5c0,0,0.1-0.2,0.1-0.3C51,36.5,51,36.4,50.9,36.3"/><path class="st7" d="M48.4,31.3c-0.2,0-0.4,0.2-0.6,0.3c-0.3,0.1-0.4,0.2-0.7,0.2c-0.1,0-0.3-0.3-0.5-1.2c-0.1-0.1,0-0.3,0-0.6c-0.1-0.3-0.6-0.2-0.6,0.1c0,0.5,0.1,0.9,0.2,1.4c0.1,0.3,0.3,0.7,0.6,0.8c0.5,0.2,1,0,1.4-0.2c0.2-0.1,0.4-0.2,0.5-0.4C48.7,31.5,48.6,31.3,48.4,31.3"/></g></g></g></g></g></g></g></svg>