<?xml version="1.0" encoding="utf-8"?>
<!-- Generator: Adobe Illustrator 27.0.0, SVG Export Plug-In . SVG Version: 6.00 Build 0)  -->
<svg version="1.1" xmlns="http://www.w3.org/2000/svg" xmlns:xlink="http://www.w3.org/1999/xlink" x="0px" y="0px"
	 viewBox="0 0 134.2 147.6" style="enable-background:new 0 0 134.2 147.6;" xml:space="preserve">
<style type="text/css">
	.st0{fill:#FFFFFF;}
	.st1{fill:#8CA2CF;}
	.st2{clip-path:url(#SVGID_00000046327689442334796940000000735707158869285535_);}
	.st3{fill:#627EB5;}
	.st4{fill:#8CA05C;}
	.st5{fill:#677724;}
	.st6{fill:#E0A955;}
	.st7{fill:#BBD7FF;}
	.st8{fill:#3C5987;}
	.st9{clip-path:url(#SVGID_00000037657231905192924030000016611353559914992000_);}
	.st10{fill:#669CD3;}
	.st11{clip-path:url(#SVGID_00000112610240558352333220000016433622037579443587_);}
	.st12{fill:#92C4FC;}
	.st13{fill:#FAF4D2;}
	.st14{fill:#FCCB7C;}
	.st15{clip-path:url(#SVGID_00000156575194601625876160000005680692388071673270_);}
	.st16{clip-path:url(#SVGID_00000103946358118649654930000006108007875358758577_);}
	.st17{fill:#C5CAF0;}
	.st18{clip-path:url(#SVGID_00000119107679856959544260000003297815040303803320_);}
	.st19{clip-path:url(#SVGID_00000127765953878655172550000012977449708063815611_);}
	.st20{clip-path:url(#SVGID_00000067927595106569924750000011948081794820962234_);}
	.st21{clip-path:url(#SVGID_00000033332880845799556020000011787208735707971469_);}
	.st22{clip-path:url(#SVGID_00000170247783179433176600000002748035378086369214_);}
	.st23{clip-path:url(#SVGID_00000032638875004260751740000000000908945068214180_);}
</style>
<g id="BACKGROUND">
</g>
<g id="OBJECTS">
	<g>
		<path class="st1" d="M133.9,62.7c-0.1-1.8-0.2-5.6-1.3-10.8c-0.9-3.7-1.5-7.4-2.6-11c-1.5-3.8-1.2-2.7-2.5-5.8
			c-0.4-1-1.3-3.3-3.4-6.1c-2.7-3.2-5-6.7-8.1-9.5c-4.1-3.6-7.5-6.7-10-8.4c-5.1-3.1-9.3-5.5-12.7-6.8c-4.4-1.1-6.5-1.5-9.1-1.9
			c0,0,0.1,0,0.1,0c0,0-0.1,0-0.1,0c-0.1,0-0.2,0-0.3,0c-0.9-0.1-0.2-0.1,0.3,0c-0.4-0.1-0.8-0.1-1.2-0.2c-0.7-0.2-1.5-0.3-2.2-0.4
			c0.1,0,0.1,0,0,0c-0.3,0-0.6-0.1-0.9-0.1c0.1,0,0.3,0,0.4,0c-6.6-1.2-8.6-2.2-15.4-1.3c0,0-0.2,0-0.5,0c-2.9,0.1-5.5,1.2-8.3,2
			c-2.9,0.7-2.2,0.2-6.2,1.2c-4.3,1.5-4.6,1.6-9.2,4.1c-1.4,0.6-2.7,1.5-4.1,2.2c-1.7,1.1-3.4,1.9-5,3.1c-4,3.2-8,6.4-11.6,10.2
			c-3.5,3.9-6.6,8.3-9.5,12.7c-3.6,5.5-6.9,11.3-8.5,17.8C0.6,59.1,0.3,65,0.2,70.8c0,3.9,0.1,8.7,0.4,9.8c0.1,0.3,0.1,0.6,0.1,0.7
			c0.2,2.3,0.7,4.5,1.3,6.7c0.5,1.9,1,3.9,1.7,5.8c0.1,0.7,0.2,1.4,0.3,2c1.8,6.9,2.7,6.4,3.8,11c0.1,0.2,0.1,0.5,0.1,0.7
			c0,0.6,0.1,1.7,0.1,2.2c0.1,3-0.3,5.9-0.4,8.9c-0.5,2.5-0.6,4.9-0.5,7.4c0,2.4,0.1,4.8,1,6.9c2.2,6.2,8.7,9,14.5,10.5
			c4.2,1.1,8.6,0.6,12.8,0.5c6.1-0.4,12.4-0.2,18.2-2.4c4.4-1.5,3.8-2,7.4-1.8c0.3,0,0.6,0,0.9,0.1c0.4,0.1,0.9,0.2,1.3,0.4
			c0.6,0.3,1.3,0.7,1.9,1c1.6,0.9,3,2.2,4.7,3c2.7,1.3,5.6,1.9,8.5,2.3c3,0.7,6.1,1.3,9.1,0.7c1.9-0.3,3.7-1.2,5.5-1.8
			c1.3-0.4,2.6-0.7,3.8-1.4c3.6-1.4,5.1-1.9,9.6-5c1.5-0.9,2.7-2.2,3.9-3.5c2-1.7,3.8-3.8,5.3-6c0.3-0.3,3.1-4.2,4.9-7.1
			c1.9-3.1,1.3-2,3.8-5.3c1.2-1.9,2.4-3.9,3.2-6.1c1.9-5.9,3.2-11.9,4.9-17.9c0.6-3.6,1.1-7.2,1.3-10.9c0.4-3.1,0.5-3.1,0.8-7.6
			C134.1,70.7,134.4,66.7,133.9,62.7"/>
		<g>
			<defs>
				<path id="SVGID_00000153693566849629613250000017363091824192272521_" d="M133.9,62.7c-0.1-1.8-0.2-5.6-1.3-10.8
					c-0.9-3.7-1.5-7.4-2.6-11c-1.5-3.8-1.2-2.7-2.5-5.8c-0.4-1-1.3-3.3-3.4-6.1c-2.7-3.2-5-6.7-8.1-9.5c-4.1-3.6-7.5-6.7-10-8.4
					c-5.1-3.1-9.3-5.5-12.7-6.8c-4.4-1.1-6.5-1.5-9.1-1.9c0,0,0.1,0,0.1,0c0,0-0.1,0-0.1,0c-0.1,0-0.2,0-0.3,0
					c-0.9-0.1-0.2-0.1,0.3,0c-0.4-0.1-0.8-0.1-1.2-0.2c-0.7-0.2-1.5-0.3-2.2-0.4c0.1,0,0.1,0,0,0c-0.3,0-0.6-0.1-0.9-0.1
					c0.1,0,0.3,0,0.4,0c-6.6-1.2-8.6-2.2-15.4-1.3c0,0-0.2,0-0.5,0c-2.9,0.1-5.5,1.2-8.3,2c-2.9,0.7-2.2,0.2-6.2,1.2
					c-4.3,1.5-4.6,1.6-9.2,4.1c-1.4,0.6-2.7,1.5-4.1,2.2c-1.7,1.1-3.4,1.9-5,3.1c-4,3.2-8,6.4-11.6,10.2c-3.5,3.9-6.6,8.3-9.5,12.7
					c-3.6,5.5-6.9,11.3-8.5,17.8C0.6,59.1,0.3,65,0.2,70.8c0,3.9,0.1,8.7,0.4,9.8c0.1,0.3,0.1,0.6,0.1,0.7c0.2,2.3,0.7,4.5,1.3,6.7
					c0.5,1.9,1,3.9,1.7,5.8c0.1,0.7,0.2,1.4,0.3,2c1.8,6.9,2.7,6.4,3.8,11c0.1,0.2,0.1,0.5,0.1,0.7c0,0.6,0.1,1.7,0.1,2.2
					c0.1,3-0.3,5.9-0.4,8.9c-0.5,2.5-0.6,4.9-0.5,7.4c0,2.4,0.1,4.8,1,6.9c2.2,6.2,8.7,9,14.5,10.5c4.2,1.1,8.6,0.6,12.8,0.5
					c6.1-0.4,12.4-0.2,18.2-2.4c4.4-1.5,3.8-2,7.4-1.8c0.3,0,0.6,0,0.9,0.1c0.4,0.1,0.9,0.2,1.3,0.4c0.6,0.3,1.3,0.7,1.9,1
					c1.6,0.9,3,2.2,4.7,3c2.7,1.3,5.6,1.9,8.5,2.3c3,0.7,6.1,1.3,9.1,0.7c1.9-0.3,3.7-1.2,5.5-1.8c1.3-0.4,2.6-0.7,3.8-1.4
					c3.6-1.4,5.1-1.9,9.6-5c1.5-0.9,2.7-2.2,3.9-3.5c2-1.7,3.8-3.8,5.3-6c0.3-0.3,3.1-4.2,4.9-7.1c1.9-3.1,1.3-2,3.8-5.3
					c1.2-1.9,2.4-3.9,3.2-6.1c1.9-5.9,3.2-11.9,4.9-17.9c0.6-3.6,1.1-7.2,1.3-10.9c0.4-3.1,0.5-3.1,0.8-7.6
					C134.1,70.7,134.4,66.7,133.9,62.7"/>
			</defs>
			<clipPath id="SVGID_00000178884499784104603320000015167950598148146588_">
				<use xlink:href="#SVGID_00000153693566849629613250000017363091824192272521_"  style="overflow:visible;"/>
			</clipPath>
			<g style="clip-path:url(#SVGID_00000178884499784104603320000015167950598148146588_);">
				<path class="st5" d="M128.5,118.2c-0.1-0.7,0-0.8-0.2-1.4l0,0c0.1-0.3-0.1-0.5-0.3-0.7c0-0.1,0-0.2,0-0.3c0-0.2,0-0.4-0.1-0.6
					c0.1-0.4,0-0.8-0.1-1.1c-0.1-0.3,0-0.3-0.4-0.7c0,0-0.1,0-0.1-0.1c0-0.1-0.1-0.2-0.1-0.3c-0.3-0.5-0.3-0.2-0.7-0.8
					c-0.3-0.5-0.9-0.9-1.4-1.3c0,0-0.1-0.1-0.2-0.2c-0.6-0.6-0.7-0.4-1-0.8c-0.9-0.5-1-0.5-1.6-0.9c-2.2-1.2-4.7-2-7.2-2.4
					c-2.1-0.4-4.1-1.1-6.3-1.3c-4-0.5-7-1-11.2-1.3c-5.5,0-12,0.6-16.7,1.4c-3.6,0.2-7.1,1.5-10.6,2.2c-5.4,1.1-10.4,3.1-15.3,5.2
					c-5.8,2.2-12.3,4.7-18.3,8c-3.2,1.7-6.4,3.1-9.2,4.3c-3,1.2-5.4,2.4-8.3,2.2c-2.5-0.1-5.8-1.2-8.7-2.1c-0.1,0-0.3-0.1-0.4-0.1
					c-0.4-0.3-0.6-0.4-1.1-0.9c-0.7-0.7-0.6-0.8-1.4-1.5c-0.6-0.3-1.3,0-1.4,0.6c-0.2,1.1,0,2.2-0.1,3.3c-0.1,0.5-0.1,1,0,1.5
					c-0.1,2.2,0,4.4,1.2,6.3c1,1.9,2.7,3.4,4.4,4.8c1.2,1,2.6,1.6,4,2.2c0.6,0.5,1.1,0.9,1.8,1.3c4.5,2.5,9,2.6,13.9,3
					c3,0,5.9,0.5,8.9,0.4c5.5-0.6,10.8-2.3,16.1-4c2.2-0.6,3.6-0.9,5.2-0.5c2.2,0.7,5.3,2.6,7.7,4.4c2,1.4,4.2,2.5,6.5,3.6
					c1.6,0.6,3.3,0.7,5,1.1c5.9,1.1,12.1-0.1,17.6-2.1c2.7-0.9,4.9-2.7,7.3-4.1c2.8-1.7,5.3-3.6,8.1-6c4-3.2,6-6.6,8.7-10.3
					c1.3-2.3,2.5-3.5,4.4-5.3C128,121.6,128.5,119.9,128.5,118.2"/>
				<g>
					<path class="st4" d="M118.1,118c-5.7-6.1-16.4-8-24.6-7.8c-11-0.4-21.7,3.3-32.4,6.8c-5.8,2.5-9.6,4.4-14.1,6.1
						c-2.3,1.2-4,1.7-6.4,2.9c-3.5,1.8-6.5,3.3-9.9,4.6c-3.7,1.6-9.3,3.6-13.1,1.9c-1.8-1-3.5-1.7-4.7-2.9c-0.2-0.2-0.6-0.2-0.8,0
						c-0.2,0.2-0.2,0.6,0,0.8c3.1,2.5,6.5,4.4,10.6,3.7c2.7-0.3,5.6-1.3,8.1-2.3c2.4-0.9,5.1-2,7.8-3.3c4.8-2.4,8.3-3.6,12.8-5.5
						c2-0.8,3.8-1.6,6.1-2.7c1.9-0.8,3-1.6,4.7-2c7-2.4,14.1-4.7,21.4-5.9c4.3-0.7,10.6-0.9,16.2-0.3c4.4,0.6,9.8,1.8,14,4.4
						c1.6,1.1,3.6,2.3,3.8,4.4c0.7,2.8-1.7,6.3-4.4,9c-4.5,4.4-12.1,5.5-17.2,2.7c-3.1-1.6-4-3.8-1.9-6.6c0.2-0.5,2.8-2.7,2.7-2.5
						c2.7-0.9,5-1.5,6.6-0.6c2,1.2,1.2,2.8-1.9,4.3c0,0,0,0-0.1,0c-0.1,0-0.4,0-0.5,0.1c-0.5,0.2-0.7,0.9-0.3,1.2
						c1.1,0.7,2.4-0.5,3.3-1c2.9-1.8,2.8-5.1-0.6-6.3c-2.5-0.7-5.1,0.1-7.4,0.9c-2.4,1.6-4.7,4.2-4.5,7.1c0.8,4.1,5.5,5.7,9.2,6.3
						c5,0.4,9-0.8,12.8-3.7C117.1,128.4,121.4,122.8,118.1,118"/>
					<path class="st4" d="M87.2,118.6c-5.6,1-11.1,2.2-16.5,3.6c-3.7,0.8-7.4,1.8-10.9,3.4c-5.1,2.2-10.1,4.7-14.9,7.5
						c-1.9,1.2-4.2,2-5.5,3.8c-0.6,1.1,0.3,2.3,1.4,2.7c1,0.5,2.1,0.5,3.2,0.4c1.5-0.1,3-0.1,4.5-0.4c2.3-0.6,5-1.1,6.6-2.9
						c1.7-1.4,0.3-3.7-1.7-3.9c-1.5-0.4-5.6,1.8-3.3,3.2c0.6,0.4,1.5,0.4,1.6-0.4c-0.1-0.5-0.3-0.6-0.5-0.7c0.5-0.4,1.3-0.9,2.1-0.7
						c0.4,0.1,0.5,0,1.1,0.7c0,0,0.1,0.1,0.1,0.1c0,0,0,0,0,0c0,0.1,0,0.1,0,0.2c0,0.1,0,0.1,0,0.1c-0.1,0.2-0.6,0.7-1.1,1.1
						c0,0,0,0-0.1,0.1c-0.1,0.1-0.7,0.3-0.3,0.2c-2.5,1.1-4.9,1.8-7.5,1.9c-2.5,0.3-4.6,0.1-4.8-0.9c0,0,0,0,0,0c0,0,0,0,0,0
						c0,0,0,0,0,0c0,0,0,0,0,0c0,0,0-0.1,0-0.1c0,0,0,0,0,0.1l0,0c0,0,0,0,0,0c0,0,0,0,0,0c0,0,0,0,0-0.1c0,0,0,0,0,0
						c0.1-0.1,0.1-0.2,0.1-0.2c0.7-0.8,1.4-1.1,1.9-1.5c5.7-3.4,11.5-6.7,17.6-9.3c7.8-3.3,17.4-5,26.1-6.9c0.4-0.1,1,0,1.3-0.4
						C87.9,118.9,87.6,118.4,87.2,118.6"/>
					<path class="st4" d="M40.7,137.6C40.7,137.6,40.7,137.6,40.7,137.6C40.7,137.6,40.7,137.6,40.7,137.6L40.7,137.6z"/>
					<path class="st4" d="M91,139.2c-0.6-3-3.5-4.6-5.9-6.2c-2.7-1.6-5.3-3.5-8.5-3.8c-1.7-0.2-4.3-0.7-6.6-0.1
						c-2.3,0.5-4.4,1.5-6.4,2.7c-0.2,0.1-0.3,0.2-0.3,0.4c-0.2,0.5,0.5,1,1,0.7c3.1-1.9,7-3.2,9.9-2.6c3.5,0.3,5.5,1.2,8.7,3.2
						c3,2,5.9,3.3,6.6,6.2c0.2,0-0.2,1.8-0.4,2.1c-0.7,1.2-1.4,1.9-2.8,2.6c-0.8,0.4-3.2,0.4-5.2,0.2c-0.7-0.1-3.6-1.2-4.6-1.6
						c-1.1-0.3-1.3-0.3-2.2-0.8c-1.9-1.1-3.6-2.2-3.5-2.7c0-0.4,0.6-1.6,1.8-2.1c0.7-0.2,3-0.5,4.7,0.3c0,0,0.2,0.1,0.4,0.2
						c0.4,0.2,0.8,0.5,0.7,0.4c0.1,0,0.1,0.1,0.2,0.1c0,0,0.1,0.1,0.1,0.1c0,0.1,0.1,0.1,0.1,0.2c0,0,0,0.1,0,0.1c0,0.7,0,0.8-0.1,1
						c0,0,0,0,0,0c0,0,0,0,0,0c-0.2,0-0.2,0.1-0.3,0.1c-0.3,0-0.6,0-0.9,0c-0.7-0.4-1.6,0.6-0.9,1.2c0.4,0.4,1,0.3,1.5,0.3
						c0.7,0,1.6-0.2,2-0.8c0.4-0.7,0.5-1.7,0.3-2.5c-0.2-0.7-0.9-1.1-1.4-1.5c-2.2-1.3-5.5-1.6-7.8-0.3c-1.6,1.1-2.6,3.2-1,4.8
						c0.7,0.8,1.7,1.2,2.6,1.8c0.9,0.5,1.8,1.1,2.8,1.3c1.2,0.3,2.9,1.1,4.7,1.7c1.4,0.3,2.8,0.3,4.2,0.3
						C88.1,146.2,91.5,142.8,91,139.2"/>
					<path class="st4" d="M31.5,140.6c-0.6-1.7-2.5-2.4-4.1-3c-3.7-0.6-7.7-0.3-11.3,0.7c-0.5,0.3-0.1,1,0.5,0.9
						c2.2-0.6,4.1-0.7,6.6-0.8c2.1,0,3.6-0.1,5,0.7c2.3,1.1,2.6,2.2,1.4,3c-0.2,0.1-0.9,0.2-1.9,0.2c-0.5,0-1,0-1.3,0
						c0.1-0.2,0.3-0.2,0.5-0.4c0,0,0.1,0,0.1-0.1c0.2-0.1,0.4-0.3,0.4-0.5c-0.1-1.5-2-0.3-2.4,0.4c-0.9,1.1,0.1,1.9,1.3,1.9
						c1.6-0.1,2.3,0,3.7-0.4C31,142.7,31.6,141.6,31.5,140.6"/>
					<path class="st4" d="M123.5,119.8c-0.4-1.2-0.5-1.4-1.2-2.6c-0.1-0.5-1.2-2.4-2.5-3.4c-2.5-2-4.6-2.8-6.8-3.7
						c-1.5-0.6-3.6-1.6-6.1-2c-5.9-0.5-11.1-1.2-16.8-0.4c-6.8,0.4-12.7,1-19.2,3.3c-3.6,1-7.2,2-10.8,3.2c-1.9,0.8-3.3,1.7-5.1,2.2
						c-4.7,1.6-8.9,3.2-13.3,5c-3.2,1.6-6.4,3-9.3,5.1c-0.3,0.4,0.2,1,0.7,0.7c7-4.5,13.9-6.7,21.6-9.6c2.2-0.5,4.7-2,6.2-2.6
						c5-1.5,10-2.9,15-4.3c4.8-1.2,7.8-1.4,12.8-1.6c2.2-0.1,4.4-0.5,6.6-0.5c0.8,0.2,3.8,0.1,5.3,0.3c3.1,0.4,5.5,0.2,8.3,1.1
						c3.3,1.3,5.4,2,9.1,4.4c0.9,0.7,2.3,2.1,2.6,3.2c0.1,0.5,0.8,1.4,1,2c0.2,0.3,0.1,0.2,0.2,0.5c-0.1,0.1-0.1,0.3,0,0.5
						C122.2,121.6,123.8,120.8,123.5,119.8"/>
					<path class="st4" d="M110.9,122.2c-0.3-1-1-1.4-1.3-1.8c-0.6-0.7-1.3-1.4-2.2-1.8c-3.2-2-7.1-2.6-10.9-3.2
						c-4.2-0.6-8.4-0.6-12.9,0c-3.9,0.6-7.7,1.7-11.5,2.8c-2,0.7-4.3,1.1-6.2,2.1c-0.3,0.4,0.2,0.9,0.7,0.8
						c9.5-3.3,19.3-6.2,28.9-4.8c2.4,0.2,6.6,1,8.8,2c1.5,0.8,2.7,1.4,3.6,2.2c0.1,0.2,1.5,1.7,1.5,1.9c0.5,1.3,0.6,2,0.3,2.9
						c0,0.1,0,0.2,0,0.3c-0.1,0.3-0.1,0.6,0.1,0.8c0.3,0.5,1.2,0.3,1.4-0.2c0.3-0.6,0.1-0.5,0.2-0.8
						C111.5,124.3,111.4,123.2,110.9,122.2"/>
					<path class="st4" d="M53.9,125.8c-5.3,2-10.3,3.7-15.6,6.1c-1.6,0.7-3.3,1.4-4.9,2.1c-0.1,0.1-0.2,0.2-0.3,0.3
						c-0.1,0.5,0.4,0.9,0.9,0.6c7.2-3.4,13.8-5.6,20.5-8.2C55.1,126.4,54.6,125.5,53.9,125.8"/>
					<path class="st4" d="M26.5,128.3c-1.9,0.9-4.9,1-7.8,1c-0.6,0.1-0.7-0.3-1.7-0.1c-0.5,0.3-0.4,1,0.2,1.2
						c2.6,0.3,6.7,0.4,9.7-0.8c0.6-0.4,1.6-0.3,1.8-1.1C28.7,127.2,27.2,128,26.5,128.3"/>
					<path class="st4" d="M87.5,129.6c-0.1-0.1-0.2-0.2-0.3-0.3c-2.1-1.9-4.6-3.1-7.2-4.1c-0.8-0.2-1.6-0.8-2.4-0.8
						c-0.8,0.1-0.9,1.2-0.1,1.4c3.2,1.2,6.1,2.5,8.8,4.7l0,0c0,0,0,0,0,0c0,0,0.1,0,0.1,0.1c0.1,0.1,0.2,0.1,0.1,0.1
						C87.3,130.9,87.9,130.1,87.5,129.6"/>
					<path class="st4" d="M87.5,129.6C87.4,129.6,87.4,129.5,87.5,129.6C87.4,129.5,87.4,129.5,87.5,129.6"/>
					<path class="st4" d="M87.5,129.6C87.5,129.6,87.5,129.6,87.5,129.6C87.5,129.6,87.5,129.6,87.5,129.6
						C87.5,129.6,87.5,129.6,87.5,129.6"/>
					<path class="st4" d="M98.1,143.1C98.1,143.1,98.1,143.1,98.1,143.1c0-0.1,0-0.1,0-0.2c0-1.8-2-4.2-3.5-6
						c-0.7-0.6-0.6-1.1-1.6-1.8c-0.6-0.2-1.2,0.5-0.9,1.1c1.6,2.1,4.6,5.4,4.4,6.8c-0.1,0.9,1.1,1.4,1.5,0.4
						C98.1,143.3,98.1,143.2,98.1,143.1"/>
					<path class="st4" d="M120.2,127.7c-0.7,0.1-0.5,0.3-0.9,0.6c-2.2,2.5-4.2,5.1-6.7,7.3c-0.9,0.5-2.6,1.9-3.7,2.5
						c-1.4,0.6-4.2,1.4-6.3,1.8c-0.8,0.2-0.5,1.4,0.3,1.2c2.6-0.5,6.5-1.4,8-2.9c3.7-2.1,6.8-5.9,9.8-9.3
						C121.2,128.5,120.9,127.7,120.2,127.7"/>
					<path class="st4" d="M66.3,134.5c-0.5-0.1-1,0.3-1.4,0.4c-1.7,0.8-3.2,2-4.7,3c-0.5,0.5-1.4,0.9-1.6,1.5c0,0.5,0.6,0.7,1,0.4
						c1.5-1.3,4.3-3.2,5.9-4c0.4-0.2,0.9-0.2,1.2-0.5C66.8,135.1,66.6,134.6,66.3,134.5"/>
					<path class="st4" d="M99,146c-0.4-0.1-0.6,0.2-1,0.3c-1.1,0.5-2.5,0.7-3.9,1.1c-1.5,0.3-2.6,0.9-3.8,0.9
						c-2.4,0.3-4.9-0.1-7.3-0.1c-0.6,0.2-0.4,1.1,0.2,1c3.4,0.2,7,0.7,10.3-0.6c2.1-0.6,4.5-0.9,5.7-1.7
						C99.6,146.6,99.4,146.1,99,146"/>
					<path class="st4" d="M11.6,135.9c-1.1-1.1-1.8-2.7-2.1-5.1c-0.1-0.8-0.2-1.4-0.2-2.6c0-0.2-0.1-0.3-0.2-0.5
						c-0.4-0.4-1.2-0.1-1.2,0.5c0.1,3.2,0.5,6.8,3.2,9.1c0.3,0.3,0.7,0.7,1.2,0.5C13.4,137.2,12.1,136.3,11.6,135.9"/>
				</g>
			</g>
			<g style="clip-path:url(#SVGID_00000178884499784104603320000015167950598148146588_);">
				<g>
					<path class="st5" d="M120.4,111.4C120.4,111.4,120.4,111.4,120.4,111.4C120.3,111.4,120.3,111.4,120.4,111.4"/>
					<path class="st3" d="M21.7,80.7c-1.1,2.2-3.8,6.4-4.4,8c0.3,0.6,0.9,0.3,1.1-0.2c1.5-2.4,2.8-4.9,4.2-7.3
						C22.8,80.7,22,80.2,21.7,80.7"/>
					<path class="st3" d="M25,86.5c-1.2,2.1-2.5,4.2-3.7,6.2c-0.1,0.2,0.1,0.5,0.4,0.6c0.3,0.1,0.6-0.2,0.7-0.4
						c0.4-0.5,0.6-1.1,1-1.6c0.7-1.4,2.3-3.3,2.6-4.6C25.9,86.2,25.3,86.1,25,86.5"/>
					<path class="st3" d="M25.4,97.8c-1,1.9-2,3.7-3,5.5c-0.2,0.4-0.5,0.7-0.4,1.1c0.1,0.3,0.4,0.5,0.8,0.4c0.3-0.1,0.4-0.3,0.5-0.5
						c1.1-2,2.2-3.9,3.2-5.9C26.8,97.7,25.8,97.1,25.4,97.8"/>
					<path class="st3" d="M13.7,94.6c-1,2.1-2.1,4.2-3.2,6.3c-0.1,0.3-0.4,0.6-0.3,1c0.1,0.3,0.4,0.5,0.7,0.4c0.6-0.2,0.6-0.9,1-1.4
						c1-1.9,1.9-3.8,2.9-5.7C15.1,94.6,14.1,94,13.7,94.6"/>
					<path class="st3" d="M18.4,98.4c-1,1.7-1.9,3.4-3,5c-0.2,0.3-0.5,0.6-0.5,0.9c-0.1,0.4,0.4,0.8,0.8,0.7c1.5-1.3,2.6-4.3,3.8-6
						C20,98.3,18.8,97.7,18.4,98.4"/>
					<path class="st3" d="M17.4,110.5c-0.9,2-1.8,3.9-2.8,5.8c-0.3,0.5,0.3,1.1,0.8,0.8c1.3-1.9,2.1-4.2,3.1-6.3
						C18.6,110.3,17.7,109.9,17.4,110.5"/>
					<path class="st3" d="M23.6,112.3c-1,1.9-2,3.8-2.9,5.8c-0.4,0.5,0.3,1.2,0.9,0.9c1.2-1.9,1.9-4.1,3.1-6
						C25.2,112.3,24,111.6,23.6,112.3"/>
					<path class="st3" d="M32.7,97.3c-0.9,1.9-1.8,3.8-2.7,5.7c-0.2,0.3,0,0.8,0.4,0.9c0.3,0.1,0.6,0,0.7-0.3c0.7-1.4,1.4-2.8,2-4.2
						c0.2-0.6,0.8-1.3,0.8-2C33.8,97,33,96.9,32.7,97.3"/>
					<path class="st3" d="M45.2,85.6c-1,2-2,4-3.1,6.1c-0.3,0.5,0.3,1.1,0.9,0.8c1.3-2,2.3-4.3,3.4-6.5C46.5,85.3,45.5,85,45.2,85.6
						"/>
					<path class="st3" d="M36.7,105.5c-1,2-2,4-3,6c-0.3,0.4,0.2,1,0.7,0.8c0.2-0.1,0.4-0.3,0.5-0.5c1-1.9,2-3.8,3-5.8
						C38.2,105.4,37.1,104.8,36.7,105.5"/>
					<path class="st3" d="M45.8,97.1c-0.5,1-1,1.9-1.4,2.8c-0.1,0.3,0.2,0.6,0.5,0.7c0.3,0.1,0.6-0.1,0.7-0.3c0.5-0.9,1-1.8,1.4-2.8
						C47.2,96.9,46.2,96.6,45.8,97.1"/>
					<path class="st3" d="M54.6,92.8c-0.6,1.3-1.4,2.6-2,4c-0.1,0.2,0.1,0.5,0.3,0.6c0.3,0.2,0.7,0.1,0.8-0.2c0.7-1.2,1.3-2.5,2-3.7
						C56.1,92.7,55,92.1,54.6,92.8"/>
					<path class="st3" d="M46.3,106.6c-0.7,1.5-1.4,2.9-2.2,4.3c-0.2,0.3-0.1,0.8,0.4,1c0.3,0.1,0.6-0.1,0.8-0.3
						c0.7-1.3,1.4-2.6,2.1-4C48.1,106.7,47.1,105.7,46.3,106.6"/>
					<path class="st3" d="M62.5,95c-1.1,2.2-2.3,4.4-3.4,6.6c-0.3,0.4,0.1,1.1,0.7,0.9c0.6-0.3,0.7-1.1,1.1-1.7
						c0.9-1.8,1.8-3.5,2.7-5.3C64,94.9,62.9,94.3,62.5,95"/>
					<path class="st3" d="M70.5,93.8c-0.5,0.9-1.1,1.7-1.5,2.7c-0.1,0.2,0.1,0.5,0.3,0.6c0.6,0.3,1-0.3,1.2-0.7
						c0.4-0.7,1-1.4,1.2-2.2C71.9,93.5,70.9,93.2,70.5,93.8"/>
					<path class="st3" d="M67.1,100.5c-0.7,1.3-1.6,2.6-2.2,3.9c0,0.2,0,0.4,0.1,0.5c0.7,0.7,1.3-0.3,1.6-0.8c0.6-1,1.1-2,1.7-2.9
						C68.7,100.4,67.5,99.8,67.1,100.5"/>
					<path class="st3" d="M78.2,94.2c-0.9,1.7-1.9,3.4-2.8,5.2c-0.1,0.2-0.1,0.5,0.1,0.7c0.5,0.6,1.2,0.1,1.3-0.4
						c0.6-1.1,1.2-2.1,1.8-3.2c0.3-0.7,0.9-1.3,0.9-2.1C79.3,93.8,78.5,93.7,78.2,94.2"/>
					<path class="st3" d="M86.3,93.7c-1.3,2.2-2.6,4.4-3.9,6.6c-0.4,0.5,0.2,1.2,0.8,1c0.7-0.3,0.9-1.2,1.3-1.7c1-1.7,2-3.5,3.1-5.2
						C88,93.7,86.8,92.9,86.3,93.7"/>
					<path class="st3" d="M97.4,93.7c-0.1-0.6-1-0.7-1.3-0.2c-0.6,1.3-1.4,2.6-2.1,3.9c-0.1,0.2-0.1,0.5,0.1,0.7
						c0.4,0.5,1.1,0.1,1.3-0.4c0.6-1,1.2-2,1.7-3C97.2,94.4,97.6,94,97.4,93.7"/>
					<path class="st3" d="M102.3,95.7c-0.7,1.3-1.5,2.6-2.4,3.9c-0.3,0.4,0.1,1,0.6,0.9c0.5-0.2,0.6-0.7,0.9-1.1
						c0.7-1.1,1.5-2.2,2-3.3C103.6,95.4,102.7,95.1,102.3,95.7"/>
					<path class="st3" d="M121.9,84.7c-0.3,0.7-1,1.3-1,2c0.1,0.4,0.8,0.5,1,0.1c0.3-0.6,0.8-1.1,1-1.8
						C123,84.5,122.1,84.2,121.9,84.7"/>
					<path class="st3" d="M112,96.2c-0.8,1.5-1.7,3-2.7,4.5c-0.1,0.2-0.1,0.4-0.1,0.6c0.3,0.9,1.4,0.5,1.7-0.2
						c0.8-1.3,1.6-2.5,2.3-3.8C114,96.3,112.7,95.2,112,96.2"/>
					<path class="st7" d="M7.4,83.4c-0.2,1.1-0.8,2.1-1,3.1c0,0.2,0.2,0.3,0.3,0.4c0.3,0.1,0.5-0.1,0.6-0.3c0.3-1,0.7-1.9,1-2.9
						C8.5,83.1,7.6,82.8,7.4,83.4"/>
					<path class="st7" d="M16.6,74.5c-1,2.3-2.4,5-3.5,7.2c-0.1,0.3,0.3,0.6,0.6,0.4c0.2-0.1,0.3-0.4,0.4-0.6c1-2.2,2.4-4.7,3.2-6.6
						C17.7,74.5,16.9,74.1,16.6,74.5"/>
					<path class="st7" d="M10.7,88.1c-1.1,1.8-2.1,3.6-2.9,5.5c-0.2,0.5,0.6,1,1,0.6c0.8-1.6,1.7-3.6,2.9-5.5
						C12.2,88.1,11.1,87.5,10.7,88.1"/>
					<path class="st7" d="M119.8,91.9c-0.5,1.1-1.1,2.1-1.6,3.2c-0.1,0.4,0.4,0.7,0.8,0.5c0.8-1,1.2-2.3,1.8-3.4
						C121,91.6,120.1,91.4,119.8,91.9"/>
					<path class="st7" d="M119.1,99.8c-0.7,1.4-1.4,2.8-2,4.1c-0.1,0.3,0.2,0.5,0.4,0.6c0.2,0.1,0.5,0,0.7-0.3c0.5-1,1-2,1.5-2.9
						c0.2-0.5,0.7-0.9,0.6-1.4C120,99.5,119.3,99.4,119.1,99.8"/>
					<path class="st7" d="M127.4,85.4c-1.2,2.5-2.4,5-3.5,7.5c-0.2,0.3,0,0.7,0.3,0.8c0.2,0.1,0.5,0,0.7-0.3
						c0.8-1.7,1.6-3.5,2.4-5.2c0.3-0.9,1-1.8,1.1-2.7C128.4,85,127.7,84.9,127.4,85.4"/>
					<path class="st7" d="M126.2,98.1c-0.6,1.2-1.1,2.4-1.6,3.5c-0.1,0.7-1.1,1.6-0.4,2.2c0.3,0.3,0.9,0.1,1-0.3
						c0.6-1.3,0.9-2.1,1.6-3.5c0.2-0.6,0.7-1.1,0.6-1.7C127.3,97.7,126.4,97.6,126.2,98.1"/>
					<path class="st7" d="M28.4,78.1c-0.3-0.4-1-0.4-1.1,0.1c-0.4,1-0.8,1.8-1.3,3c0,0.1,0,0.3,0.1,0.4c0.8,0.8,1.2-0.4,1.5-1
						C27.7,79.9,28.7,78.8,28.4,78.1"/>
					<path class="st7" d="M28.7,111.9c-0.7,1.8-1.4,3.7-2.1,5.6c-0.1,0.5,0.4,0.9,0.8,0.6c1.1-1.8,1.5-4,2.4-5.9
						C30,111.6,28.9,111.3,28.7,111.9"/>
					<path class="st7" d="M38.8,93.1c-0.3,1.4-0.8,2.8-1.3,4.3c-0.2,0.5-0.5,1.3,0.3,1.4c0.6,0,0.6-0.7,0.8-1.1
						c0.5-1.4,1-2.8,1.3-4.3C40.2,92.7,39,92.4,38.8,93.1"/>
					<path class="st7" d="M54.9,101.5c-0.3-0.4-1-0.4-1.2,0.1c-0.6,1.8-1.2,3.5-1.7,5.3c-0.1,0.2,0,0.5,0.2,0.6
						c0.5,0.4,1-0.1,1.1-0.6c0.3-0.9,0.6-1.8,0.9-2.7C54.4,103.5,55.2,102.3,54.9,101.5"/>
					<path class="st7" d="M49.8,85c-0.6,1.6-1.2,3.3-1.8,4.9c-0.1,0.4,0.2,0.8,0.6,0.8c0.3,0,0.5-0.2,0.6-0.4
						c0.6-1.6,1.2-3.3,1.8-4.9C51.2,84.6,50,84.2,49.8,85"/>
					<path class="st7" d="M40.2,108.3c-0.7,1.5-1.8,4-2.1,5c-0.2,0.3-0.1,0.6,0.2,0.8c0.5,0.3,0.9-0.2,1-0.7
						c0.4-1.1,0.9-2.2,1.4-3.3c0.2-0.7,0.6-0.9,0.6-1.7C41.2,108,40.4,107.9,40.2,108.3"/>
					<path class="st7" d="M106.7,95.9c-0.4,1-1.3,2.8-1.9,4.2c-0.1,0.3,0.1,0.5,0.4,0.6c0.3,0.1,0.5,0,0.7-0.3
						c0.7-1.4,1.4-2.9,2-4.3C108.1,95.5,106.9,95.2,106.7,95.9"/>
					<path class="st7" d="M12.9,107.8c-0.3-0.4-1-0.4-1.1,0.1c-0.7,1.8-1.2,3.6-1.8,5.3c-0.3,0.4-0.4,1.3,0.6,1.2
						c0.4-0.1,0.5-0.5,0.6-0.8c0.6-1.6,1.1-3.2,1.6-4.9C12.9,108.4,13.1,108.1,12.9,107.8"/>
					<path class="st7" d="M26.8,103.1c-0.5-0.1-0.8,0.3-0.9,0.7c-0.5,1.2-0.9,2.3-1.3,3.5c-0.2,0.7,1,1,1.2,0.3
						c0.5-1.3,1-2.6,1.5-3.8C27.3,103.5,27.1,103.2,26.8,103.1"/>
					<path class="st7" d="M59.2,92.6c-0.4,0.9-0.8,1.8-1.2,2.7c-0.1,0.2,0,0.5,0.2,0.6c1.1,0.7,1.4-1.8,2.1-2.7
						C60.7,92.6,59.6,91.9,59.2,92.6"/>
					<path class="st3" d="M114.3,82.3C114.4,82.2,114.4,82.1,114.3,82.3"/>
					<polygon class="st3" points="114.3,82.3 114.3,82.3 114.3,82.3 					"/>
				</g>
				<g>
					<g>
						<path class="st8" d="M133.4,44.5c-0.5-4.5-3-8.4-5.5-12.2c-1.2-2-2.3-4.1-3.8-5.9c-2.1-2.4-4.4-4.7-6.5-7.1
							c-6-6.1-14.3-9.4-21.8-13.6c-3.4-1.7-6.5-3.7-10.1-4.9c-4.7-1.6-9.6-2.4-14.6-2.4c-3.5,0-14.2-2.5-32.8,9.1
							C21.4,18,19.6,23.9,12.4,32.6c-1,1.2-2,2.5-2.9,3.8c-2.1,3.2-4.1,6.4-5.8,9.8c-0.5,1.3-1,2.6-1.4,4c-0.1,0.2-0.1,0.3-0.2,0.5
							C1,54-0.1,57.3-1,60.7c-0.5,3.8-0.6,7.7,0.5,11.4c0.1,2.3,1.6,4.2,3.3,5.6c2.9,2,7.1,0.6,9.5-1.4c3.8-3.6,6.9-7.8,9.5-12.2
							c0,3.4,1,6.8,3.3,9.5c2.3,2.3,4.9,4.7,8.2,5.3c5.1,0.6,9.1-4.7,12-8c2.4-2.8,4.4-5.8,5.4-9.3c0.5-1.7,1-3.4,1.4-5.1
							c0.8,5.5,2.2,11.2,8.4,12.9c7.4,1.6,15.1-2.8,18.3-9.1c2.1-4.1,1.1-8.7,1.5-13c0-0.2,0-0.5,0.1-0.7C82,51.7,84.2,57.1,88,61
							c4.2,4.1,10.5,6.8,15,1.5c2.5-3,3.3-6.7,4.1-10.3c1.1,2.9,3,5.5,5.6,7.6c1.6,1.3,3.2,2.7,5.2,3.4c2.9,0.8,6.2,1.2,9.1,0.1
							c1.2-0.7,2.1-1.7,2.9-2.8c1.4-1.6,2.6-3.4,3.1-5.4C133.6,51.9,133.2,48,133.4,44.5"/>
						<g>
							<path class="st3" d="M13.2,66c-0.3-0.6-0.9-0.3-1.3,0.1c-0.1,0.1-0.6,0.6-0.8,0.7c-1.5,0.9-2.7,1.7-4,1.6c0,0-0.1,0-0.1,0
								c-0.3-0.1-1-0.4-1.1-0.6c-0.8-0.6-1.1-1.2-1.1-1.4c-0.1-2.2,0.2-3.8,0.7-5.8c0-0.6-1-0.6-1.1-0.1c-0.5,1.3-0.5,2.6-0.7,4
								c-0.1,0.9-0.2,1.8,0.2,2.7c0.8,1.3,2.3,2.5,4,2.3c0.7-0.1,1.4-0.2,2-0.6c0.9-0.5,1.9-0.9,2.6-1.6
								C12.7,66.9,13.4,66.6,13.2,66"/>
							<path class="st3" d="M10,54.2c-0.3,0-0.5-0.1-0.8-0.2c-2.7-0.8-1.4-5.4,0-8.8c0.2-0.7-1-1-1.2-0.3c-0.8,1.6-1.1,3.3-1.5,5.1
								c-0.2,1.3-0.3,2.9,0.6,4c0.7,0.8,1.9,1.6,3,1.3C10.7,55,10.6,54.3,10,54.2"/>
							<path class="st3" d="M33.3,71.8c-0.1,0-0.2,0-0.3-0.1c-0.5-0.2-1.5-1.3-2.2-2c-0.6-0.7-1.1-1.4-1.8-2.5
								c-0.1-0.2-0.3-0.3-0.4-0.3c-0.6-0.2-1.2,0.5-0.8,1c0.7,1.2,4.4,6.5,6,5.1C34,72.6,33.8,71.9,33.3,71.8"/>
							<path class="st3" d="M20.6,27.7c0.2-0.3,0.6-0.5,0.6-0.9c0-0.6-0.8-0.9-1.2-0.5c-1.2,1-1.7,2.5-2.3,3.9
								c-0.4,0.9-0.5,2.4,0.6,2.9c0.8,0.2,1.1-0.7,0.6-1.2c0,0,0,0,0,0c0-0.1,0-0.2-0.1-0.2C18.9,30.6,19.9,28.6,20.6,27.7"/>
							<path class="st3" d="M32.7,13.5c-1.7,1.2-3.5,2.4-4.7,4.1c-0.3,0.6-0.7,1.4-0.4,2.1c0.3,0.8,1.5,0.9,1.6-0.1
								c0-0.1-0.1-0.4-0.2-0.5c0-1.3,2.6-3.2,4.4-4.5C34.2,14.2,33.5,13,32.7,13.5"/>
							<path class="st3" d="M64.3,9c-1.7,0.3-2.6,0.8-3.8,0.3c-0.8-0.1-1.7-2.6-1.4-3.7c0-0.3,0.3-0.4,0.5-1
								c0.1-0.6-0.8-0.9-1.1-0.4c-0.6,0.7-0.7,1.7-0.5,2.6C58,8,58.4,9.2,59.3,10c1.5,1.2,3.6,0.5,5.3,0.2C65.5,10,65.1,8.7,64.3,9"
								/>
							<path class="st3" d="M50.1,8.1c-0.2,0-0.4-0.1-1-0.4c-0.1-0.1-0.4-0.4-0.5-0.5c-0.2-0.3-0.5-0.8-0.4-0.7c0,0,0,0,0,0
								c0-0.2,0.1-0.4,0.1-0.5c-0.1-0.7-1.2-0.8-1.4-0.1c-0.8,1.7,2.4,4.4,4.1,3.4C51.6,8.7,50.9,7.9,50.1,8.1"/>
							<path class="st3" d="M80.5,5c-0.9,0-1.4,0.3-1.9,0.3c-1.9,0.1-3.2,0.2-3.6-0.6c-0.3-0.6-0.3-1-0.4-1.8
								c-0.2-0.6-1.3-0.4-1.2,0.2c-0.1,1.5,0.7,3.2,2.4,3.4c1.6,0.2,3.4,0.1,4.9-0.4C81.2,5.8,81,5.1,80.5,5"/>
							<path class="st3" d="M99.3,13.4c-0.4,0.1-0.6,0.1-1.4-0.2c-0.3,0-2.4-2.2-2.6-2.7c-0.2-0.3-0.2-0.8-0.6-1.1
								c-0.5-0.3-1.1,0.2-1,0.7c0.3,1,0.9,1.7,1.5,2.5c1,1.1,2.4,2.2,4,1.9c0.5-0.1,1.4-0.1,1.4-0.7C100.9,12.9,99.9,13.2,99.3,13.4
								"/>
						</g>
					</g>
					<g>
						<path class="st3" d="M143.4,56.2c-0.5-1.2-1.7-2.1-3-2.6c-0.3-0.1-0.6-0.2-1-0.3c0-2.9-0.3-5.9-1.6-8.6
							c-1.6-3.2-4.7-5.6-8-7.3c-3.2-1.2-6.8-0.6-9.9,0.4c-0.3,0.1-0.7,0.3-1.1,0.4c0.5-0.6,0.9-1.2,1.3-1.9c0.9-1.3,1.1-2.7,1.1-4.2
							c0-2.2,0-4.4-0.3-6.5c-0.8-2.1-2.6-4-4.7-5.2c-2.3-1.1-4.8-1.8-7.4-2.2c-3.2,0.2-6.5,1.2-9.2,2.7c-1.9,1-3.8,2.1-5.4,3.4
							c0.2-1.2,0.4-3.1,0.1-4.3c-0.6-2.2-1.7-4.5-3.5-6.1c-3.9-2.8-9-4.7-13.9-3.4c-2.6,0.7-5.1,1.9-7.2,3.4
							c-2.7,2.1-5.5,5.1-7.6,7.4c0-0.3,0-0.5,0-0.6c0-6.7-7-9.6-13.5-7.8c-7.4,2-14.3,6.4-17.6,12.9c-0.8,1.5-1.1,3.2-1.2,5
							c-0.5,0.3-1.1,0.6-1.6,1c-4.1,2.6-7.1,6.3-9.9,10c-2.4,2.7-3,6.4-2.3,9.8c0.3,1.1,0.7,2.4,1.3,3.4c0.9,1.1,2.3,1.9,3.6,2.5
							c5.1,1.9,9.9-1,13.9-4c-0.6,1.5-0.9,3.2-1.1,4.8c-0.3,2.8-0.9,6.4,2.1,8.2c4.1,3.2,10.2,1.8,14.6-0.2c0.8-0.2,1.9-0.7,3.1-1.4
							c-1,2.6-1.7,5.3-1.9,8c-0.3,2.4-0.4,5,0.8,7.2c0.7,1.2,1.4,2.5,2.5,3.3c2,1.4,4.2,2.6,6.7,3c3.5,0.4,6.9-1.1,9.9-2.6
							c4.2-1.9,7.3-5.2,9.7-8.8c-0.2,1.5-0.3,3-0.1,4.4c0.5,4.8,4.7,10.3,10.7,8.6c1.6-0.5,3.4-0.9,4.9-1.8c2.5-1.6,4.1-3.9,5.5-6.3
							c0.3-0.6,0.7-1.2,1-1.9c-0.1,4,0.7,8.2,4.8,9.6c3,0.8,5.8-0.7,8-2.5c2-1.7,3.4-3.8,4.3-6.1c0.6,0.4,1.2,0.8,1.9,1.1
							c0.8,0.5,1.7,0.8,2.6,1.1c1.9,0.8,4,0.9,6-0.3c0,0,0.1-0.1,0.1-0.1c2-0.5,3.9-1.3,5.2-2.9c1.5-1.8,2.2-4.3,2.2-6.6
							c0.8-0.5,1.6-1.3,2.4-1.8c2.7-2,4-5.3,4.3-8.5C144.8,59.6,144.2,57.9,143.4,56.2"/>
						<g>
							<path class="st8" d="M30,40.6c0.4-0.4-0.2-1.1-0.7-0.8c-1.6,0.9-3.4,1.8-4.3,3.4c-1,1.4-0.8,4.5,1.7,5.2
								c0.5,0.1,0.9-0.5,0.6-0.9c-0.2-0.3-0.6-0.3-0.8-0.5c0,0,0,0-0.1-0.1c-1.1-0.9-0.9-3,0.5-4.2C27.8,41.9,28.8,41.4,30,40.6"/>
							<path class="st8" d="M46.1,21.8c-1.1-0.3-1.7-0.3-2.9,0.2c-1.2,0.3-2,1.1-2.7,2.1c-0.8,1.3-1,2.8-1,4.2c0,0.3,0,0.7,0.4,0.8
								c0.3,0.2,0.8-0.1,0.8-0.5c-0.2-2.5,0.8-4.9,2.9-5.5c1.1-0.4,1-0.4,1.7-0.3c0.4,0,0.8,0.3,1.1,0.1
								C46.7,22.7,46.6,21.9,46.1,21.8"/>
							<path class="st8" d="M79,33.8c-1.5,0.5-2.8,1.4-4.1,2.3c-0.7,0.5-1.3,1-1.6,1.8c-0.9,2.3-0.3,5.4,2.7,6
								c0.6,0,0.8-0.8,0.4-1.1c-0.3-0.2-0.8-0.3-1.4-0.7c-0.8-0.4-1.2-3.5-0.2-4.3c1.1-0.9,3-2.2,4.4-2.7
								C80.1,34.7,79.7,33.6,79,33.8"/>
							<path class="st8" d="M84.1,21.8c-0.3-0.6-1.7-1.4-2.9-1.6c-0.9-0.1-1.7,0.2-2.5,0.4c-1.4,0.5-2.4,1.6-3.4,2.7
								c-0.2,0.2-0.2,0.4-0.1,0.6c0.1,0.4,0.7,0.5,1,0.2c0.9-1.1,1.6-1.8,2.6-2.3c0.2-0.2,1.8-0.4,2-0.5c0.6,0.1,1.1,0.4,1.9,0.9
								C83.3,22.8,84.2,22.6,84.1,21.8"/>
							<path class="st8" d="M106.9,26.8c-2.8,0-5.9,1-7.2,3.6c-0.4,0.7-0.5,1.5-0.5,2.3c0,0.3,0.1,0.7,0.4,0.9c0.4,0.2,1,0,1.1-0.4
								c0.1-0.6-0.1-0.3,0-1c0-0.7,0.7-2,1.7-2.8c0.4-0.3,3.2-1.3,4.1-1.2C107.7,28.4,108.1,26.9,106.9,26.8"/>
							<path class="st8" d="M90,36.6c-1.5,2-3.2,4.7-2.2,7.1c0.2,0.5,0.7,1.1,1.3,0.9c1-0.4,0.3-1.2,0.1-1.4c0,0,0,0-0.1-0.1
								C89,43,89,42.8,88.9,42.5c0-1.7,0.9-3.3,2.3-5.2C91.8,36.5,90.5,35.8,90,36.6"/>
							<path class="st8" d="M112.9,54.8c-0.4-2.1-1.8-3.7-4.3-3.9c-1.3,0-2.6,0.5-3.8,1c-0.4,0.2-1.1,0.4-1,1c0,0.5,0.6,0.7,1.1,0.5
								c2.2-1.2,4.3-1.7,5.5-0.3c0.7,0.4,1.2,2.8,1.3,3.5c0,0.7,1,1,1.4,0.4C113.4,56.4,112.9,55.5,112.9,54.8"/>
							<path class="st8" d="M113.3,41.3c-1-0.9-2.4-1-3.6-0.9c-1.2,0-2.4,0.1-3.5,0.5c-1.1,0.2-0.9,1.6,0.2,1.2
								c1.5-0.7,5.1-0.8,6,0.2c0.3,0.2,0.1,0.2,0.5,0.4C114.1,42.8,114.1,41.8,113.3,41.3"/>
							<path class="st8" d="M130.3,44.7c-1.3,0.3-2.4,1-3.4,1.7c-0.9,0.6-1.8,1.1-2.3,2c-0.7,1.3-0.3,2.8,0.6,3.9
								c0.3,0.3,0.4,0.8,0.9,0.9c0.5,0.1,0.9-0.2,0.9-0.7c-0.1-0.6-0.6-1-0.9-1.5c-0.6-1-0.7-1.5,0-2.4c0.2-0.3,3-2.3,3.8-2.6
								c0.4-0.2,0.9-0.1,1.2-0.5C131.4,45.2,130.9,44.5,130.3,44.7"/>
							<path class="st8" d="M132.6,68.3c-1.3-0.9-3-1.1-4.5-0.8c-1.2,0.4-2.1,1.2-2.8,2.1c-0.6,0.9-1.3,1.8-1.4,2.9
								c0.1,0.7,1.1,0.7,1.3,0.1c0.2-1.2,1.6-2.9,2.3-3.3c0.8-0.7,1.8-0.6,2.3-0.6c1.5,0.1,1.6,0.6,2.6,0.9
								C133.2,69.6,133.3,68.6,132.6,68.3"/>
							<path class="st8" d="M137.9,59.1c-0.6-0.7-2.5-1.4-4-1c-1,0.1-2.1,0.3-2.9,1c-0.5,0.6,0.3,1.5,1,1c1.6-0.9,4-0.9,4.9,0
								c0.5,0.3,0.9,0.7,1.4,1c0.4,0.2,1-0.2,1-0.6C139.1,59.8,138.3,59.5,137.9,59.1"/>
						</g>
					</g>
					<g>
						<path class="st14" d="M68.9,52.4c-2.7-0.6-5.6,0.2-8.4,0.2c-3.1,0.2-6.8-0.4-10.6,0.3c2.7-2.8,5.7-4.9,8.7-8.3
							c3.9-4.4,8-8.7,12.4-12.7c1.1-0.9,1.3-2.3-0.2-2.8c-3.5-1.2-14.7-1.4-15.2-1.1c-0.7,0.3-11.7,17-17.2,24.3
							c-2.7,3.2-5.6,6.4-7.7,10c-0.4,3,3.6,0.9,14,1.3c1.1,0,3.1-0.1,4.6-0.3C49,63.7,37.5,80.2,32.3,90.9c0,0.9,1,1.5,1.8,1.2
							c1-0.4,1.6-1.4,2.3-2.1c2.4-2.7,5.2-4.9,7.7-7.5c5.1-5.3,9.9-10.9,15-16.3c2.7-2.8,5.5-5.3,8-8.3
							C68.2,56.4,71.2,53.9,68.9,52.4"/>
						<path class="st6" d="M59.7,55.4c-0.9,0.2-1.7,0.5-2.6,0.7c-0.9,0.1-3.3,0.3-4.2,0.4c-3.6,0.6-7.6,0.7-11.6,1.6
							c-0.7,0.2-2.1,0.7-3,0.9c3.1-3.8,5.8-6.9,9-10.6c2.6-3.4,4.3-5.9,7-9c2-2.6,4.6-5.7,6.4-9c0.1-0.6-0.8-0.9-1.1-0.3
							c-4.2,6.7-9.2,11.7-13.5,17.5c-1.6,1.7-3.5,4.1-5.1,6.1c-1.2,1.3-2.3,2.7-3.4,4.1c-0.2,0.3-0.9,0.9-1.2,1.6
							c-0.1,1.6,2.1,0.8,3.1,0.5c1.5-0.4,3.1-0.9,4.2-0.9c3.2-0.4,7.2-0.8,9.8-1.1c1.3-0.2,2.7-0.2,4-0.4c0.9-0.2,1.7-0.5,2.6-0.7
							c-2.2,4.4-6.2,8.9-9.6,12.9c-4,4.2-8.3,8.7-11.1,12.5c-0.2,0.3-1.7,1.7-1.8,2.3c0,0.6,0.8,0.9,1.3,0.5
							c2.3-2.6,4.2-5.6,7.1-8.6c4.6-4.9,9.3-9.8,13.2-15.3c1.2-1.5,1.9-3.2,2.8-4.8C62.3,54.9,60.4,55.2,59.7,55.4"/>
					</g>
					<g>
						<path class="st8" d="M117.3,77.1c-0.8-0.8-1.7-1.7-2.8-2.2c0.7-0.5,1.3-1.2,1.6-2c1.3-3.4-1.6-6.7-4.5-8.5
							c-3.5-2.2-7.1-2.9-10.7-1.7c0.3-1.1,0.8-2.1,0.7-3.2c-0.3-2.2-1.8-4.1-3.6-5.4c-2.6-2.1-5.6-4.2-9-2.2
							c-0.7,0.5-1.3,1.1-1.7,1.8c-2.3-0.6-4.8-0.3-7.1,0.2c-3.1,0.8-4.9,4-4.6,6.9c0.1,0.6,0.1,1.2,0.1,1.8
							c-0.5-0.2-1.1-0.3-1.7-0.3c-1.3,0.1-2.6,0.5-3.8,0.9c-1.4,0.4-2.9,0.9-4.1,1.9c-1.3,1-2.3,2.2-3,3.6c-0.5,0.9-1,1.9-0.9,3
							c0.1,0.9,0.2,1.8,0.6,2.6c0,0.1,0.1,0.1,0.2,0.2c-0.3,0.1-0.7,0.1-1,0.2c-1.7,0.4-3.2,1.1-4.5,2.2c-1.1,1-2,2.2-2.5,3.5
							c-0.4,1.3-0.4,2.7-0.2,4.1c0.3,2.8,2.6,5.1,5.5,5.7c2.8,0.3,5.7-0.7,8.1-1.9c1.2-0.7,2.4-1.4,3.5-2.2c0.3,1.9,1.4,3.7,3,4.7
							c2.9,1.8,6.5,1,8.9-1.1c1-0.9,2-1.8,2.9-2.7c0,0.1,0,0.1,0.1,0.2c0.4,1.4,1.2,2.6,2.5,3.5c1.3,0.9,3,1.3,4.6,1.2
							c2.7-0.5,5.1-1.7,7.1-3.4c0.1-0.1,0.7-0.5,1.3-1c0.2,0.6,0.5,1.2,1,1.7c0.3,0.3,0.5,0.8,1.3,1.3c0.9,0.5,1.7,1.1,2.7,1.3
							c3.3,0.3,6.5-1.2,9-3.1c0.8-0.5,1.4-1.3,1.8-2.1c0.7-1.2,1.3-2.5,1.5-3.9C119.8,80.6,118.8,78.6,117.3,77.1"/>
						<g>
							<path class="st7" d="M63.7,78.9c-1.4,1.3-3.2,4-1.8,5.8c0.4,0.4,0.9,0.9,1.5,0.8c0.4-0.1,0.6-0.5,0.4-0.9
								c-0.3-0.4-0.8-0.4-0.8-0.6c0,0-0.1-0.1-0.1-0.1c-0.1-0.1-0.1-0.2-0.2-0.3c0,0,0,0,0,0c0,0,0,0,0,0c0,0,0-0.1,0-0.1
								c-0.1-1,0.8-2.6,1.4-3.3c0.2-0.3,0.7-0.5,0.7-0.9C64.7,78.9,64,78.6,63.7,78.9"/>
							<path class="st7" d="M76.6,67.7c-1.3,0.8-2.1,2.1-2.8,3.4c-0.4,1-0.8,2.1-0.4,3.1c0.6,1.1,2,1.7,3.3,1.6
								c0.5-0.1,0.5-0.8,0.1-1c-0.6-0.2-0.6,0-0.9-0.2c-2.6-0.4-1.1-3.5,0.6-5.4c0.4-0.4,0.6-0.2,0.9-0.8
								C77.6,67.9,77.1,67.5,76.6,67.7"/>
							<path class="st7" d="M85.3,82.2c-0.8,0-1.3,0.7-2,1c-2.1,1.4-2.9-0.2-2.9-2.8c0-0.8-1.3-0.8-1.3,0c0,1.4,0.2,3,1.3,4
								c0.9,0.7,2.2,0.7,3.1,0.1c0.6-0.4,1.9-1,2.3-1.6C85.8,82.6,85.6,82.3,85.3,82.2"/>
							<path class="st7" d="M92.4,58c-2.9,0-6.2,1.1-7.7,3.6c-0.4,1.5,1.1,3.1,2.3,4c0.4,0.4,1.1,0.2,1.2-0.3c0.1-0.9-1-1-1.5-1.9
								c0.2,0.3-0.4-0.6-0.6-0.9c0,0-0.1-0.2-0.1-0.3c0,0,0,0,0,0c0.4-1,2.7-2.2,4.8-2.7c0.3-0.1,1.1,0,1.9-0.2
								C93.4,59.1,93.2,58,92.4,58"/>
							<path class="st7" d="M95.6,74.5c-0.2-0.2-0.6-0.3-0.9-0.1c-0.6,0.3-0.7,0.3-1.6,0.6c-2.6,0.6-3.2-1.5-1.7-4.8
								c0.3-0.9-1.2-1.3-1.4-0.4c-0.6,1.5-1.3,3.2-0.7,4.8c1,2.5,4.4,2.1,6.3,0.8C95.9,75.1,95.8,74.7,95.6,74.5"/>
							<path class="st7" d="M100.9,83.3c-0.7,0.7-0.6,0.8-1.5,1.3c-0.9,0.4-0.9,0.5-1.4,0.2c-0.4-0.4-0.6-1.1-0.8-2.2
								c-0.2-0.9-1.7-0.5-1.4,0.4c0.3,1.3,0.7,3.1,2.3,3.4c1.5,0.2,3.3-1,3.9-2.3C102.1,83.4,101.4,83,100.9,83.3"/>
							<path class="st7" d="M114.3,81.5c-0.2-0.3-0.7-0.4-1-0.2c-0.4,0.3-0.5,0.8-0.7,1.2c-0.1,0.2-0.2,0.3-0.3,0.4
								c0,0-0.1,0.1-0.1,0.1c0,0,0,0-0.1,0c-0.2,0.2-1.1,0.3-1.4,0.2c-0.2,0-0.4-0.1-0.7-0.2c0,0-0.1,0-0.1,0
								c-0.7-1-2.1-0.3-1.4,0.7c1.1,1.2,3.4,1.3,4.7,0.4c0.4-0.5,0.4-0.4,0.8-1.1c0.1-0.1,0.2-0.5,0.3-0.7
								C114.5,82.1,114.5,81.7,114.3,81.5"/>
							<path class="st7" d="M108.5,70.4c-0.5,0-0.8,0.4-1.2,0.6c-0.7,0.3-0.9,0.5-1.6,0.4c-0.2,0-0.6-0.8-1-2.6
								c-0.1-0.3,0.1-0.6-0.1-1.3c-0.2-0.7-1.4-0.4-1.3,0.3c-0.1,1,0.2,2.1,0.5,3.1c0.2,0.7,0.6,1.5,1.4,1.8c1,0.4,2.1-0.1,3-0.5
								c0.4-0.2,0.9-0.4,1.1-0.8C109.4,70.8,109,70.4,108.5,70.4"/>
						</g>
					</g>
				</g>
			</g>
		</g>
	</g>
</g>
</svg>
